P2
92 112
255
 245 245 245 245 245 245 245 245 245 245 245 245 245 245 245 243 244 242 209 152  97  61  65  66  64  75  65  56  49  53  37  40  47  49  39  30  32  28  32  38  42  46  44  41  41  34  22  33  36  37  40  44  47  49  56  61  53  49  49  57  54  52  53  66  62  62  62  60  53  52  55  82 120 135  98 102 125 146 175 198 218 233 238 238 240 243 239 240 239 239 238 239
 245 245 245 245 245 245 245 245 244 245 245 245 244 245 244 243 245 243 152 124  96  57  65  65  74  63  47  50  46  44  44  44  42  40  38  31  29  29  30  34  38  39  32  30  30  25  23  24  26  32  33  34  40  42  31  19  28  35  42  48  56  61  52  54  72  66  68  65  67  63  58  67  89 134 216 232 242 243 243 239 236 235 236 236 238 239 237 238 237 237 240 240
 245 245 245 245 245 245 245 245 243 243 243 245 244 243 243 245 247 177 110  96  69  62  57  48  44  55  50  44  43  41  40  40  38  34  32  28  26  28  29  29  31  31  29  28  25  22  21  22  22  23  20  19  23  33  37  37  33  33  25  20  15  27  43  52  59  62  62  59  52  43  36  40  55 135 240 235 235 235 235 236 235 236 237 238 238 238 238 238 239 240 241 241
 245 245 245 245 245 245 245 244 243 244 244 243 243 242 239 249 183  99  43  50  57  56  53  47  46  46  44  42  40  39  40  35  32  31  28  25  24  26  28  28  28  27  26  23  23  21  21  22  22  21  20  19  19  24  31  36  37  35  34  31  32  32  27  30  49  49  43  61  45  50  48  59  57  23 181 242 235 236 236 237 237 237 238 238 238 240 238 238 241 241 242 241
 245 245 245 245 245 245 244 243 244 244 242 244 243 246 246 190  90  53  42  45  51  51  48  45  45  44  46  45  39  37  34  32  31  30  27  25  26  27  29  29  27  27  25  23  22  22  22  22  21  21  19  18  18  18  20  29  35  35  33  30  28  29  31  36  40  41  38  93  81  45  48  60  69  52  17 173 243 234 237 237 238 238 240 239 240 240 241 241 241 242 242 242
 243 244 244 243 243 242 241 241 241 241 241 241 242 249 176 118  55  46  32  43  46  49  49  43  45  48  51  48  42  39  36  36  33  31  28  28  29  28  28  26  26  27  27  26  26  26  25  25  24  22  22  19  18  19  18  17  27  32  34  31  28  28  29  30  35  40  48  41  47  57  54  51  28  80 114  81 212 236 235 237 238 239 240 241 241 241 241 241 241 242 241 241
 243 243 243 243 241 241 241 241 241 240 238 237 245 193 125 101  49  25  40  42  45  49  52  58  58  63  57  51  46  44  42  39  36  34  31  29  29  28  29  28  30  31  32  31  28  29  30  32  30  25  23  23  21  20  21  22  24  28  31  30  28  26  27  29  32  38  40  44  54  57  56  63  51  15 150 142 124 234 238 237 238 238 240 241 241 241 241 241 241 242 241 241
 242 243 241 241 241 241 241 240 240 239 237 238 211 102 102  82  35  42  42  46  49  52  56  66  80  82  51  53  55  49  46  42  40  39  30  33  33  30  32  34  35  37  38  36  36  33  39  42  34  38  35  20  13  20  17  19  25  27  30  31  29  26  25  26  30  32  33  32  35  45  57  65  71  58  76 119 120 224 234 237 240 239 238 241 241 242 242 242 242 242 241 242
 242 241 240 241 239 239 237 238 236 235 234 244 137  89  82  44  49  46  48  52  54  54  70  81  87  73  73  72  57  56  57  46  36  40  46  46  41  41  38  30  52  55  52  45  41  50  53  46  47  50  52  60  62  59  56  49  41  28  31  31  30  28  28  29  31  35  37  38  41  42  33  36  45  52  50  55  71 229 232 237 238 240 241 242 242 241 241 241 241 241 243 243
 239 238 237 237 237 238 237 232 229 227 225 168  94 112  64  39  52  57  54  55  62  87  84  80  85  93  89  86  88  85  74  70  77  78  71  61  60  57  64  71  75  80  75  76  81  85  82  85  82  81  95  93  87  89  89  69  56  53  32  32  32  33  31  33  38  39  43  41  39  37  36  34  28  37  45  41  21 217 224 237 238 240 241 241 242 241 242 242 243 244 243 244
 238 234 232 228 222 214 212 217 217 214 200  83 101  93  48  38  65  71  55  79 100  99 102 110 124 129 123 120 129 122 111 109 104  99 102  96  93  94  95 104 109 103 106 118 108 109 120 116 112 113 120 120 115 112 107  93  81  64  46  28  32  33  37  44  41  40  34  39  41  54  42  38  36  32  36  44  19 137 222 237 238 240 242 241 241 242 243 243 243 243 243 243
 211 218 214 215 218 223 219 211 204 184 110  57 108  85  34  62  81  80  92 120 109 101 130 138 145 146 142 146 147 142 135 129 126 122 120 123 118 126 122 126 122 127 127 128 132 127 135 133 133 147 132 133 130 129 124 115 105  84  65  34  40  41  53  67  64  66  95 115 127 104  75  46  36  35  34  36  38  39 166 240 236 240 241 242 241 241 243 243 243 243 243 243
 211 206 201 185 160 142 124 103 110  98  55  51  82  85  47  82 104 120 139 137 141 155 162 167 170 169 161 161 164 162 152 148 139 138 139 133 135 130 132 132 132 133 136 139 143 145 142 144 146 145 146 142 141 139 143 143 134 119 106  65  45  53  61  55 110 148 152 151 152 147 114  81  47  43  30  32  37  55  49 193 241 239 240 242 242 243 243 243 243 243 243 244
 128 107  87  88 113 136 172 171 113  71  83  81  81  78  66 115 139 152 153 165 179 181 181 182 178 175 177 171 172 166 162 157 150 147 144 142 140 144 139 140 139 141 142 143 145 145 147 146 148 149 150 148 148 149 147 147 147 150 139 123  90  66  69 134 156 162 162 157 157 159 144 114  82  53  46  37  34  41  50  68 234 240 241 241 242 243 243 243 243 243 243 245
 144 188 213 233 243 243 244 210  74  84  84  91  71  81  62 128 158 155 182 190 190 189 186 183 180 176 174 173 171 168 167 162 154 151 149 147 146 146 145 143 143 144 145 146 148 148 149 150 150 150 153 152 152 152 152 153 153 152 152 156 156 154 154 159 165 165 165 166 162 161 158 139 126  59  30  39  36  23  58  20 155 247 239 241 243 243 243 243 243 244 245 245
 246 245 239 240 239 241 250 113  90  77  77  74  47  71  83 142 157 178 189 190 189 187 185 183 179 176 174 172 171 169 167 163 159 156 152 150 149 149 147 146 145 144 145 146 147 148 148 150 149 151 151 151 152 152 154 153 154 155 155 157 159 160 166 165 164 166 167 167 166 164 158 155 123  92  40  40  35  29  43  43  26 237 244 240 243 243 243 243 243 243 245 245
 240 240 238 238 238 245 202  58  77  64  70  49  39  63  98 158 185 182 188 189 188 185 183 179 178 174 170 167 168 167 167 163 159 155 153 150 148 148 147 147 146 145 145 145 146 146 147 149 148 147 146 148 150 151 152 154 154 156 157 156 158 159 161 163 164 165 167 167 167 164 161 164 113 121  66  37  35  34  30  50  23 149 246 241 243 244 244 244 243 243 245 245
 241 241 240 240 241 239 111  40  63  70  60  49  45  53  94 176 187 185 187 185 181 179 178 173 171 166 163 161 160 163 162 158 156 153 150 148 147 145 144 143 145 147 144 145 145 147 148 148 147 145 144 146 146 146 148 153 153 153 155 156 156 157 157 159 162 163 164 165 165 164 163 163 127 150  95  41  29  35  34  43  45  27 244 243 242 244 245 245 244 244 245 245
 242 242 243 240 248 199  50  54  54  56  52  48  49  50  98 182 186 188 189 187 179 168 164 165 160 159 156 155 159 158 156 153 150 147 145 145 143 143 143 143 143 144 145 144 145 146 147 147 147 147 146 147 147 147 147 150 150 151 152 152 152 154 154 156 159 160 162 163 164 165 166 168 132 150 123  71  40  37  38  39  50  19 199 245 242 244 245 245 245 245 245 245
 241 241 241 245 248  91  30  49  46  45  47  49  56  51 117 176 179 185 189 180 166 162 157 151 144 145 145 146 146 144 140 138 130 134 138 140 140 141 141 141 141 142 143 144 144 145 145 147 147 147 146 147 146 146 147 148 148 149 150 150 151 152 153 155 156 159 160 161 164 164 166 168 151 147 143 101  45  45  39  37  41  44  87 250 244 243 244 245 245 245 245 245
 242 241 241 246 192  28  38  48  43  40  41  47  60  58 137 159 173 183 182 174 163 155 147 147 142 139 138 138 133 132 130 128 129 130 132 135 136 138 140 139 139 141 142 143 142 143 144 146 145 144 144 144 144 144 143 145 145 147 147 149 149 151 152 153 154 157 159 160 161 163 165 167 167 158 138 139  83  44  42  41  41  40  29 235 246 243 244 245 245 245 245 245
 243 243 245 248  82  27  53  49  43  40  40  46  61  83 155 168 176 179 177 170 160 152 147 137 128 132 132 130 128 128 127 126 127 126 130 132 135 137 137 137 139 142 142 141 141 142 141 144 143 143 143 144 143 143 143 142 145 145 145 146 146 149 150 153 153 155 156 158 159 160 163 166 166 162 155 158 133  80  40  44  43  46  20 169 249 243 244 245 245 245 245 245
 243 243 246 229  26  37  50  45  41  39  40  47  57 120 164 173 174 175 173 166 160 155 145 138 135 131 129 129 127 128 127 125 126 127 128 130 133 135 137 138 139 141 142 142 142 142 142 143 142 143 142 144 143 143 142 143 144 144 144 146 146 147 146 148 149 151 154 157 158 159 161 164 165 165 163 159 151 122  50  44  45  45  28  70 250 243 244 245 245 245 245 245
 243 243 248 167  24  48  45  42  38  36  41  39  92 139 174 175 173 170 169 165 159 151 146 141 138 133 131 130 131 129 128 127 128 129 130 131 133 136 137 135 140 142 142 143 143 143 143 143 143 144 144 143 144 142 143 143 145 145 147 146 147 147 146 145 148 150 151 154 158 157 160 161 164 165 164 159 154 155  89  36  45  43  37  25 229 244 243 245 245 245 245 245
 243 243 250 126  32  43  41  36  33  34  41  45 106 161 179 175 172 170 167 163 155 149 146 145 142 140 139 137 136 134 135 136 133 134 136 137 138 139 139 140 142 142 143 144 143 142 144 143 145 144 143 144 143 143 144 145 146 147 148 148 149 150 149 149 150 150 152 152 154 156 158 160 161 164 162 159 152 151 124  42  43  41  44  19 176 249 243 245 245 245 245 245
 244 244 250  96  32  41  38  33  31  30  40  58 127 172 173 172 169 167 162 159 153 150 149 148 146 144 144 142 140 140 141 140 141 145 148 144 136 142 144 143 143 143 143 145 145 145 144 143 145 145 144 144 144 146 146 148 149 150 150 150 151 152 152 151 152 152 152 152 152 154 156 158 159 162 161 157 153 145 145  70  40  39  40  42  69 249 243 245 245 245 245 245
 241 248 244  54  43  37  34  30  31  34  42  70 143 174 172 170 167 164 158 153 150 149 150 150 150 150 150 148 145 146 147 151 157 153 151 151 160 157 150 148 146 145 146 145 144 144 145 142 143 144 145 148 149 149 149 151 151 151 151 151 153 153 152 152 151 152 151 151 151 154 156 157 158 159 160 158 152 145 142 111  37  18  32  41  13 240 248 244 245 245 245 245
  85 170 157  19  40  35  32  31  33  39  43  87 162 172 171 170 166 158 153 151 147 147 147 147 150 153 154 153 153 159 165 160 163 167 168 167 161 162 154 150 148 148 147 147 146 145 143 143 145 145 148 150 151 151 152 155 155 156 155 153 153 154 152 152 151 150 150 150 152 153 156 156 156 158 160 159 151 143 136 126  57  13  31  39  22  71 249 242 245 243 243 244
  99  82  53  32  36  30  30  32  35  43  46 101 162 165 168 168 163 150 151 147 143 143 146 148 151 152 154 157 159 163 167 176 175 174 175 173 170 166 159 153 150 148 149 148 146 145 144 145 146 147 150 150 152 152 153 155 157 159 159 157 156 154 155 153 152 151 147 148 149 152 154 157 157 158 160 159 151 141 137 124  72  29  29  27  48  17 250 242 241 240 238 238
 116 119  74  24  30  28  30  32  36  44  50 111 159 160 166 166 161 155 150 147 144 143 145 148 151 154 156 158 162 165 170 174 178 176 176 175 172 169 162 158 155 151 148 148 146 147 146 147 147 149 150 153 154 154 154 155 158 159 159 159 159 159 158 157 154 152 150 148 149 150 153 155 156 159 160 159 159 139 108 121  80  32  29  30  42  14 166 240 234 235 236 235
 117 124  56  25  27  26  29  31  33  49  50 112 160 158 162 163 158 154 149 145 143 144 146 151 155 156 159 162 165 166 168 172 174 176 174 171 169 167 162 159 156 152 151 149 147 147 148 147 147 148 149 150 152 152 153 154 154 156 157 157 159 159 158 157 157 154 151 150 150 151 152 153 154 157 157 158 158 144 113 110  79  39  31  25  36  38  73 246 233 233 234 235
 118 122  41  27  28  25  27  31  38  43  60 114 150 157 160 160 157 153 148 143 143 145 149 151 159 160 163 165 166 167 168 170 171 173 170 168 165 158 157 156 155 154 151 149 147 147 147 147 148 148 148 150 150 149 151 152 152 153 154 154 158 157 157 157 158 156 154 153 152 152 152 154 154 155 157 157 156 159 118  89  76  45  30  28  32  39  17 246 232 232 224 218
 117 131  29  33  27  24  27  32  38  44  75 117 152 157 158 159 156 150 147 146 145 150 151 157 160 162 166 166 166 165 163 162 165 160 155 152 149 149 147 151 151 151 149 146 143 143 144 146 147 148 148 148 148 147 146 148 149 148 149 152 153 155 156 158 159 157 155 154 154 153 151 152 154 155 157 157 156 160 131  81  65  48  32  31  32  34  15 224 224 203 216 225
 116 126  30  36  27  25  28  32  38  43  77 121 159 159 159 158 155 149 147 148 152 157 158 161 164 166 168 166 164 162 158 150 149 144 130 130 133 139 141 144 146 148 145 142 139 139 140 143 143 145 145 145 144 143 143 143 143 143 144 147 148 151 152 155 155 155 155 154 154 153 152 152 153 155 157 157 157 155 159  84  56  47  37  31  28  32  11 211 244 241 240 238
 116 125  30  29  27  24  27  31  38  41  84 131 162 158 158 155 151 148 149 152 157 164 168 168 169 166 164 164 165 157 148 147 135 130 128 124 124 128 134 138 139 143 142 135 136 134 136 138 138 139 139 139 138 139 139 138 138 139 140 139 135 142 148 152 150 156 151 151 151 152 153 153 152 154 154 155 155 155 160 113  44  44  38  31  28  30  12 208 247 238 241 240
 115 127  31  25  27  26  28  34  39  42  88 142 161 156 156 154 151 150 149 159 164 170 169 172 174 169 164 157 150 138 138 137 132 119 113 112 113 116 122 126 130 131 133 131 129 129 131 132 132 133 133 128 122 126 131 128 132 132 123 114 116 110 116 125 129 125 132 131 148 156 152 154 153 153 156 153 151 152 156 138  48  33  37  31  28  29  10 225 243 237 238 237
 113 125  47  20  29  26  30  37  40  34  96 152 158 158 155 152 150 152 160 164 167 178 178 168 162 145 133 124 114 113 114 103  93  91  89  93  99 105 113 117 119 124 124 122 120 122 125 127 128 126 124 121 124 114 113 110  91  80  63  66  53  60  61  90  99 105  91  99 116 141 152 153 153 154 156 153 151 151 151 150  59  27  34  29  29  28  14 244 237 234 235 235
 111 121  71  30  31  28  31  38  40  38 101 163 156 156 154 150 150 154 161 166 162 154 141 131 119 107  94  86  68  64  52  54  60  59  75  71  81  90 104 113 113 116 120 117 116 117 119 119 119 118 116 110 106 101  93  88  77  61  52  44  39  44  53  51  65  68  75  76  72 110 131 150 153 153 154 153 152 150 150 158  60  30  31  29  30  21  61 244 234 233 234 234
 107 110  91  38  29  28  32  37  41  28 122 159 153 155 152 149 150 153 164 176 147 123 103  92  76  76  56  41  40  45  44  45  43  52  61  70  79  83  90 105 105 111 112 113 111 111 112 115 115 110 107 103  96  89  86  72  57  47  45  41  44  46  47  50  56  66  71  80  82  75 107 134 151 152 153 152 153 151 149 158  60  44  19  29  32  13  98 245 234 235 234 235
 104 107 111  37  35  31  33  37  39  34 131 157 154 153 150 148 154 163 173 145 107  85  72  68  58  49  47  43  39  36  38  39  41  44  47  59  64  74  85  95 102 105 108 108 107 107 109 108 107 106  99  96  84  81  76  64  45  42  42  41  42  44  44  47  51  58  68  74  78  80  72 103 137 149 150 152 152 151 151 157  75  43  17  29  32  15 156 242 234 235 236 237
 100 102 117  39  35  33  32  36  32  48 139 157 155 154 150 150 158 171 164 114  69  69  64  53  49  43  33  32  30  32  31  33  38  43  47  54  60  63  81  87  96 100 105 107 106 106 106 108 108 105  98  90  84  82  70  59  52  47  46  49  41  36  38  41  51  58  67  74  78  79  70  97 112 142 151 153 154 154 152 161  73  38  27  32  29  14 230 241 237 238 241 241
  95  97 112  52  35  31  31  34  27  60 153 158 156 153 151 150 151 152 119  86  75  65  57  51  47  41  41  38  36  34  35  35  38  46  50  55  61  67  76  85  91  97 102 106 108 108 109 110 108 105  99  92  87  82  71  65  63  61  58  52  59  62  60  60  46  60  68  74  78  80  83  92 109 133 152 152 153 154 153 165  65  33  35  33  21  25 245 240 241 241 242 242
  91  92 106  69  20  32  31  33  20  56 162 160 157 153 150 149 138 107  97  79  68  60  55  53  49  46  39  45  41  46  48  48  50  51  56  60  61  66  74  80  88  95 103 106 109 111 113 114 114 110 102  94  90  84  82  77  73  71  72  75  78  81  82  81  85  79  78  78  84  85  87  92 102 127 145 150 154 155 154 162  66  29  37  34  15 116 250 240 242 242 243 243
  87  89  91  77  15  33  31  30  16  59 162 162 158 153 149 151 123  93  87  70  65  58  57  56  59  62  66  65  65  66  56  59  59  59  59  59  60  64  72  72  85  92 105 109 112 115 118 119 119 113 105  99  91  84  79  75  71  68  69  69  70  72  76  80  84  88  91  96  94  92  93  97 105 119 147 149 153 156 156 159  57  29  38  32  12 187 250 243 243 243 243 245
  84  85  84  81  27  38  33  32  13  66 168 163 158 152 148 143 132 101  75  73  67  65  65  63  67  80  91  97 100  95  84  78  71  63  62  60  60  60  63  72  80  89 105 112 118 124 127 127 128 119 109  98  89  83  78  72  65  62  62  67  74  84  85  88  84  80  85  89  94  95  97 101 104 110 143 148 152 157 159 154  53  31  38  34  14 233 247 244 244 245 245 245
  79  81  81  88  38  42  39  36  21  70 171 161 158 151 147 145 123  91  77  74  70  70  72  82  93 101 105 105 108 104 102  96  84  71  64  63  61  59  59  57  76  89 104 118 123 128 133 133 131 123 109  89  86  81  76  60  59  58  62  67  78  84  91  96  95 101  84  75  90  93  99 104 108 113 134 144 151 153 158 161  49  31  37  22  28 248 247 245 245 245 245 245
  78  79  80  85  46  43  40  38  26  64 172 162 156 150 144 138 107  91  74  77  75  76  82  93 102  83  63  49  45  38  41  46  52  61  69  62  62  61  58  58  69  85 109 121 126 131 138 138 134 125 101  88  83  78  68  56  55  57  62  68  74  85 100 102 107 101 114  86  76  90 101 104 113 113 131 143 150 153 160 169  40  27  35  16  94 249 244 245 245 245 245 245
  74  76  76  77  63  40  39  38  27  59 173 161 153 148 135 123 104  89  82  77  78  84  92  79  56  54  64  75  75  69  61  62  63  50  42  50  60  58  58  58  61  83 106 125 127 133 139 142 138 120 101  89  82  70  57  51  52  52  48  34  29  20  22  27  39  79 104 119  84  85  91 110 114 122 131 141 149 154 164 174  37  28  34  14 182 250 243 245 245 245 245 245
  72  75  74  74  72  43  35  34  35  55 178 160 152 144 125 109  96  84  82  79  82  81  63  50  61  56  32  21   8  12  17  11  19  38  43  43  43  51  55  57  60  76 103 123 128 133 142 141 141 111 101  86  78  60  53  49  48  51  20  23  27  31  37  23  60  26  47  89  99  88  89 107 112 122 131 141 148 155 163 178  36  32  26  17 231 247 244 245 245 245 245 245
  69  72  74  72  73  48  29  33  38  52 180 159 150 137 121 100  93  86  82  79  77  75  61  70  53  33  45  23  27  24  25  28  15  55  38  41  43  45  51  57  60  74  93 125 133 142 144 144 132 108 100  87  78  55  54  51  43  59  33  31  28  31  38  14 124 105  43  35  82  88  91 103 110 127 132 142 147 155 164 180  40  43  18  92 249 244 245 245 245 245 245 245
  68  70  73  75  66  58  19  34  39  42 177 160 150 140 116  99  93  86  80  76  73  56  66  53  24  59  87  45  15  24  24  28  12  78  75  43  47  46  51  58  65  63 102 126 151 154 149 145 133 107  98  89  81  53  56  54  67  99  42  29  30  35  41  15 142 125  74  47  44  82  91 101 109 126 134 142 149 154 166 182  42  47  16 186 249 244 243 244 244 244 244 244
  66  69  75  55  37  35  19  31  38  37 178 160 150 136 114 100  93  84  76  72  64  58  55  30  46  81  83  60  27  29  29  30  34  90  75  53  49  46  53  59  68  65 103 134 162 165 156 148 137 118  94  97  81  53  58  56  72  82  83  41  39  38  46  91 131 119  95  91  75  82  93 105 113 126 137 143 150 153 162 181  47  38  20 215 242 242 241 239 240 243 243 243
  65  67  43 145 199 177  82  36  39  27 177 163 148 135 113 101  88  83  74  68  62  55  42  43  52  77  78  88  49  22  28  40  76  85  67  58  55  55  55  61  71  62 115 152 180 171 162 156 143 117 108  94  80  63  63  63  69  74  81  70  50  46  84 119 113 100  92  91  97  99  99 107 116 126 139 145 151 159 161 186  46  37  39 171 210 221 231 244 243 243 244 244
  62  45 123 203 178 178 133  47  36  14 178 164 152 137 118 102  89  83  73  67  63  58  54  60  61  62  74  75  79  80  70  75  75  67  61  57  56  57  58  61  74  70 134 174 190 179 169 165 151 130 108 103  78  77  70  68  67  65  69  76  83  91  91  95  86  86  90  98 103 108 111 114 119 128 138 146 147 158 163 187  50  35  86 142 135 158 184 250 243 244 245 245
  59  41 163 139 133 136 130  87  27  14 170 165 153 143 118 106  91  85  74  71  65  70  79  77  62  62  66  69  69  68  65  59  52  51  55  57  56  58  57  65  76  90 155 185 194 194 175 175 164 140 112 110  86  74  73  69  65  62  60  61  69  68  70  73  80  85  92 100 109 112 115 118 125 130 138 145 150 156 160 182  46  73 131 139 129  98 107 235 247 244 245 245
  59  42 155  90  74 101 103 116  32  16 160 162 153 141 125 111  96  89  80  74  78  81  81  77  68  64  61  58  56  56  52  52  52  53  56  58  60  58  68  88  77 121 162 174 193 189 179 175 171 151 129 119 115  83  77  73  70  68  66  65  67  71  73  79  84  87  89 109 113 117 119 124 130 134 141 145 151 156 159 174  58  83 145 133  93  83  64 178 249 245 245 245
  55  48 133  70  78  80 105 120  42  20 146 162 151 143 129 117 103 101  96  92  85  86  81  77  70  64  61  57  56  52  52  52  53  56  58  61  63  69  79  87  90 130 168 172 182 184 180 173 165 153 132 124 125 103  83  81  78  75  73  72  72  73  76  79  85  90 101 112 118 119 121 130 133 138 141 145 152 156 159 172  58  87 141 121  97  89  50 126 249 245 245 245
  55  43 128  73  78  78 107 120  66  23 143 155 153 142 132 120 116 107 108 102  93  88  85  77  71  66  61  57  54  54  55  58  59  61  63  64  65  79  92  96 100 131 160 170 179 177 171 167 161 152 141 131 127 121 102  85  80  83  83  81  77  81  84  87  94  98 110 117 120 122 126 133 136 140 143 146 151 155 158 170  62  83 133 123  97  85  60  93 249 245 245 245
  54  38 123  77  80  85 110 113 103  20 129 161 154 141 136 130 126 124 115 105  99  93  87  82  77  68  63  66  65  65  66  65  65  65  67  68  78  88  95 100 114 132 151 164 177 176 172 165 160 156 149 136 129 132 127  95  91  87  87  87  90  96  99  97 111 112 116 119 123 127 132 139 143 144 146 148 151 155 156 175  65  81 139 125 102  86  61  88 248 245 245 245
  54  33 125  78  82  96 113 107  96  24 126 158 152 146 140 140 140 136 134 130 111 111 103 100  91  85  83  75  77  76  73  71  70  69  72  77  94 103 101 104 122 137 156 163 176 177 174 167 162 159 156 142 137 132 127 120 106  89  91  92  96 102 107 109 113 118 120 125 127 130 138 144 146 148 150 150 153 155 156 171  73  71 135 129 101  89  65  97 249 245 245 245
  53  33 129  84  76 116 117 104  97  23 119 158 153 149 145 146 150 149 149 152 142 122 111 104 103 101  94  93  86  80  77  75  74  75  76  89 102 105 106 106 132 154 164 174 184 182 179 173 167 162 155 150 143 138 137 129 123 117 100  96 102 106 110 113 119 121 125 129 133 141 145 148 149 151 149 150 153 155 158 168  76  66 150 130 101  92  64 115 249 245 245 245
  53  29 138  87  74 119 117 110  84  34 115 156 153 151 150 150 156 166 171 158 154 143 129 117 113 109 104  97  90  87  81  79  79  82  90 100 103 108 108 118 150 164 180 185 190 199 186 180 174 167 162 157 148 141 137 135 132 130 120 108 107 109 112 115 119 123 128 134 139 145 147 149 152 152 150 149 152 155 157 169  80  46 158 133  99  96  63 159 249 245 245 245
  51  28 139  94  64 125 108  92  66  40 108 155 154 154 152 151 165 168 166 164 158 153 140 123 121 109 104  97  93  88  85  84  85  98 104 105 107 109 109 139 163 176 180 184 191 197 201 181 177 173 164 160 151 145 140 138 136 134 133 122 118 116 115 119 121 127 130 133 144 148 149 150 152 154 150 146 151 155 156 169  71  35 150 138 100 101  65 204 246 245 245 245
  51  30 113  95  75 128  90  65  68  48 104 158 154 156 154 156 162 165 164 159 156 152 144 133 124 111 105 100  97  94  93  93 103 110 110 111 108 113 112 153 168 177 180 185 192 196 193 185 178 175 170 161 153 147 143 138 138 139 139 137 130 125 124 125 127 129 134 142 144 147 149 150 149 151 150 145 149 154 156 159  82  29 134 143 109  93  80 244 247 245 245 245
  51  47  75 106  98 122  88  59  65  49  88 159 152 155 155 157 160 162 156 153 145 147 149 132 122 110 107 102  98 100 102 107 112 112 113 111 111 114 120 151 170 175 181 185 191 192 190 185 179 176 171 163 153 146 139 138 137 139 139 139 136 135 131 130 131 131 135 139 143 144 146 147 148 149 149 148 149 153 153 158  89  21 122 149 106  81  98 250 245 245 245 245
  50  48  49 116 111 126  88  60  69  48  88 150 152 154 154 154 153 149 145 142 142 136 128 126 122 116 110 107 110 110 112 113 114 114 113 111 111 109 132 150 166 176 180 184 193 191 188 182 178 175 171 164 157 140 135 133 132 137 139 141 143 142 142 137 137 137 137 137 140 143 144 145 147 148 150 148 147 151 151 156  83  21 109 155 109  94 148 250 245 245 245 245
  50  50  39 105  98 135  78  64  71  70  66 152 153 154 154 153 147 139 134 127 118 113 110 110 111 112 111 111 114 115 115 115 114 113 111 108 106 110 141 158 170 174 175 175 169 176 186 179 174 169 168 165 161 150 136 121 127 130 134 141 143 144 143 145 142 142 142 141 141 143 145 147 147 148 147 147 146 149 149 156  68  32 102 149 114 101 229 246 245 245 245 245
  49  50  43  71 116 142  88  69  72  67  66 148 155 155 154 147 144 134 124 118 115 111 109 110 111 113 114 114 117 118 117 116 114 112 110 102  89 107 164 173 172 173 175 169 162 155 155 158 158 160 163 164 160 156 151 116 119 126 131 138 140 144 146 146 146 146 145 146 147 148 148 147 147 147 146 147 146 148 148 147  78  29  98 144 112 130 250 245 245 245 245 245
  49  48  51  40 117 156 106  70  73  60  70 138 150 151 150 144 138 127 119 115 113 112 111 112 113 115 117 117 117 117 116 116 114 110 105  96  73 140 172 174 170 174 168 159 150 148 141 145 148 153 152 159 157 154 154 127 110 119 129 133 140 144 144 146 147 148 148 149 151 149 148 148 148 147 146 147 148 147 144 135  71  34 109 135 124 247 246 245 245 245 245 245
  48  48  50  39  82 158 119  78  65  59  66 116 147 150 148 142 134 122 115 114 113 112 113 115 116 118 119 118 117 117 116 115 112 107 101  90  59 176 172 172 163 157 153 143 136 134 135 131 134 137 140 146 146 145 151 153  98 115 123 129 137 141 145 146 147 149 151 151 152 151 149 149 148 148 146 147 147 145 143 131  54  40 122 135 132 249 244 245 245 245 245 245
  48  48  49  44  37 154 128 131 114  64  65 114 144 146 144 141 133 119 114 114 114 114 115 116 115 117 119 118 117 118 116 112 109 102 102  85  69 158 157 145 137 130 124 122 124 117 116 122 123 126 131 134 137 135 144 158 108 106 117 126 132 138 143 146 146 147 150 152 151 149 146 147 149 147 145 145 145 143 141 120  60  26 140 142 182 249 245 245 245 245 245 245
  47  48  48  50  16 148 128 131 161  66  77  91 141 142 142 140 130 118 115 114 113 113 113 114 115 117 117 117 116 115 112 110 103  98  91  77  91 141 131 111 104  96  98 100  98 105 107 106 111 120 123 119 114 121 126 136 117  94 114 120 127 136 140 144 145 146 148 150 149 149 148 148 148 146 145 144 141 140 134 112  66  18 181 119 210 244 245 245 245 245 245 245
  48  48  49  50  15 130 129 147 210  78  72  73 123 143 141 135 127 118 116 113 113 113 113 113 115 115 116 116 115 112 108 106 101  96  90  79  97 122 109  99  85  82  86  89  92  94  93  98 103 107 109 112 114 105 117 126 109  96 109 118 126 130 136 142 144 145 148 148 149 148 149 149 148 146 145 142 140 133 124 105  54  39 176 116 229 244 245 245 245 245 245 245
  48  48  49  49  15 118 137 175 188  88  70  72 112 130 130 127 121 117 114 112 112 112 115 115 116 115 115 114 114 112 109 104 100  95  89  82  87  95  90  80  55  30  48  76  82  82  89  92  96 102 109  91  32  68  95 115 108  97 104 117 123 129 133 141 142 145 145 145 146 148 149 149 148 145 144 141 134 122 117  91  51  54 173 137 237 245 245 245 245 245 245 245
  46  47  47  48  30  88 164 197 146  90  64  83 102 117 124 124 117 114 112 111 110 111 112 114 114 114 115 114 113 111 107 102  98  94  89  83  82  87  72  63  49  35  15  42  72  72  78  84  88  91  88  53  52  61  82 102 107 104 108 115 121 127 131 136 141 142 143 144 145 148 148 149 147 146 140 135 131 111 110  83  59  42 172 143 242 245 245 245 245 245 245 245
  45  45  45  46  43  63 189 198 165  89  58  81  94 104 114 118 113 111 110 110 110 111 111 111 111 113 113 113 112 110 106 102  98  94  89  86  81  76  67  57  50  48  47  41  46  73  70  71  72  82  77  70  66  70  81  97 109 109 111 116 121 126 130 134 138 141 142 144 146 147 148 148 147 144 137 130 122 110 106  71  62  34 167 148 236 245 245 245 245 245 245 245
  46  45  45  45  46  61 209 190 156  98  65  82  92  95 105 116 111 110 109 109 109 109 109 110 110 111 111 111 111 109 105 101  98  95  93  90  88  75  61  56  52  53  53  53  50  51  63  67  72  76  79  78  80  71  86 106 112 112 113 116 119 124 129 133 137 140 143 144 145 147 148 148 145 142 134 129 117 104  91  64  63  48 156 150 236 245 245 245 245 245 245 245
  45  45  44  45  47  62 205 186 137 115  64  80  83  90  92 107 103 104 106 107 108 107 106 108 110 111 111 109 108 106 104 100  99  96  96  95  97  88  77  53  56  57  54  52  52  53  57  60  57  59  78  82  87  91 102 117 117 117 116 116 119 123 126 131 136 138 142 143 143 144 145 146 143 141 133 123 104  91  85  71  58  45 147 128 249 245 245 245 245 245 245 245
  45  45  44  45  46  47 188 159 135 121  64  81  80  82  88  95  98  99  96 104 104 105 106 107 109 111 110 109 106 105 102 104 101  99  99 101 106 107  88  66  63  56  51  49  48  50  51  50  49  46  53  76  81 112 110 117 119 120 118 117 119 122 124 128 133 138 141 143 143 143 142 140 137 133 130 115  97  87  79  70  56  52 133 185 248 245 245 245 245 245 245 245
  44  44  44  45  46  23 141 144 124 120  66  79  77  78  85  91  91  93  92  96 101 104 104 108 110 110 110 108 107 105 104 104 103 102 105 108 109 107  95  61  60  52  45  42  41  43  49  44  42  45  48  55  72  92 109 117 121 121 120 117 119 121 124 127 131 134 139 141 141 141 136 136 128 120 116 105 101  93  73  69  47  61 166 247 245 244 245 245 245 245 245 245
  43  43  44  45  46  39  89 132 118 106  70  74  73  68  85  80  92  84  86  95  96  98 100 106 109 110 110 107 104 103 104 105 105 108 110 112 110 108  87  59  50  44  40  38  39  42  46  42  41  43  44  44  67  79 115 117 118 120 118 117 118 120 124 127 130 133 138 139 138 138 133 129 122 116  94  90  92  89  76  68  31 149 249 245 244 245 245 245 245 245 245 245
  43  43  44  45  46  49  22  95 110  86  75  71  70  71  74  73  73  79  77  79  94  93  96 101 106 109 106 104 102 102 104 105 105 109 110 109 110  97  77  53  45  39  36  35  38  40  43  41  40  42  43  44  53  50  86 102 114 121 118 115 115 115 119 126 129 133 135 137 136 134 131 120 118 116  95  90  89  84  77  79  48 193 250 245 244 245 245 245 245 245 245 245
  45  44  45  44  45  45  43  38  55  74  71  71  70  69  68  66  71  68  59  80  85  90  93  99 102 106 105 104 102 104 104 104 105 106 103 106 107  85  58  49  42  37  35  38  38  40  41  41  43  46  47  46  47  48  71  82  98 101 105 111 111 113 117 126 129 130 132 133 131 128 127 115 115 108  99  90  86  81  74  63  62 212 248 245 245 245 245 245 245 245 245 245
  44  45  44  44  44  44  43  47  45  50  64  67  68  67  67  65  64  63  58  62  78  79  84  93 100 105 107 104 102 102 102 104 106 107  89  87  82  73  51  48  38  35  38  40  42  41  40  40  49  49  51  52  52  52  59  67  81  87  91  99 105 110 117 122 128 132 131 130 129 123 118 114 112 104  96  88  83  82  61  44  47 238 247 245 245 245 245 245 245 244 244 244
  45  45  43  43  43  44  44  46  47  49  59  65  66  68  69  62  61  61  61  63  70  73  78  92  96 102 104 102 103 101 100 102  99  83  73  77  63  60  45  48  38  35  48  64  58  48  41  57  69  93  87  69  62  57  59  57  59  66  70  87 104 106 102 122 127 130 130 129 125 118 108 104 110 102  92  81  72  68  59  41  34 244 248 248 249 250 250 250 249 247 243 240
  46  45  43  43  42  42  42  43  44  48  58  64  60  66  68  73  59  61  61  62  68  68  73  76  96 102 105 103 102  98  94  94  73  73  68  56  56  50  51  50  59  73  80  87 101 106 108 102 107 103  98 103  96  96  76  60  53  44  51  54  78 105  99 114 129 129 130 128 123 115 109  94  88  81  81  76  61  61  60  39  45 209 191 204 199 192 195 197 181 188 189 191
  44  44  44  43  44  43  43  44  44  48  54  57  62  63  65  63  61  59  57  61  64  63  55  75  96  96 100 103 101  95  90  79  68  55  41  37  43  54  54  62  60  56  59  58  61  84  91  87  81  71  62  58  75  89  93  75  58  50  51  46  46  76 103  98 124 128 130 129 123 111 107  88  87  78  71  76  71  63  60  36  56 202 196 195 199 197 196 201 201 200 201 200
  45  45  44  44  44  44  44  45  38  29  39  63  62  59  60  59  57  54  54  57  62  63  58  71  83  91  96  99  97  91  83  56  45  39  40  41  47  57  63  55  51  50  52  54  55  60  67  72  70  66  62  60  58  63  79  86  84  61  53  56  52  59  86 109 121 129 130 128 103  94  88  86  81  74  65  63  66  60  58  27  79 204 193 198 198 198 198 197 198 199 198 198
  46  46  44  44  45  46  30  15  18  39  44  60  54  48  52  55  56  52  51  54  61  61  53  69  76  87  95  97  94  88  68  46  42  41  38  40  48  53  49  40  42  43  49  49  51  53  60  64  67  62  51  48  47  48  51  67  78  66  59  58  59  51  84 109 115 130 128 125 119  76  75  73  71  67  64  61  60  57  54  21 111 203 193 197 196 196 195 195 197 197 197 196
  45  45  44  44  45  26  84 161 189 196 198 160  65  58  54  52  54  54  51  52  55  57  56  56  72  83  95  97  95  86  61  45  44  40  37  36  41  41  29  35  35  37  29  28  36  44  51  56  51  41  30  29  28  31  34  37  50  55  52  58  62  60  87 104 117 125 127 121 121  85  54  58  67  61  58  59  53  53  52  33 152 200 193 194 195 195 194 195 196 195 194 194
  45  45  45  45  44  46 181 203 199 195 195 205  89  50  55  53  53  53  52  50  52  51  52  46  63  79  87  93  94  87  60  52  48  42  40  30  17  26  56  63  60  64  63  60  45  39  35  36  46  53  62  72  87  94  84  69  34  19  30  60  64  72  88 105 119 124 125 121 112  84  60  61  57  57  49  51  50  50  46  57 187 190 191 192 192 192 191 191 192 192 190 192
  45  45  44  45  34  75 196 195 196 195 195 207 123  46  49  53  53  53  52  50  48  48  50  50  55  77  79  89  90  83  66  56  53  48  36  46  62  76  87  87  86  84  91 100  98  93  87  90  93 101 107 104 105 103 105  99  95  89  69  58  69  79  99  93 121 123 123 122 104  87  65  56  56  55  50  46  44  49  35  91 190 184 183 185 186 182 182 183 182 181 177 180
  45  46  45  47  18 109 197 197 195 194 193 198 158  42  49  50  51  52  51  48  48  48  48  49  52  72  79  84  86  80  69  59  56  56  63  68  79  84  84  86  83  81  84  87  90  92  96  98  99  98  99 101 104 106 107 116 117 110  97  84  82  84  99 104 118 121 122 119 107  82  70  58  53  54  54  50  49  49  35 141 178 179 180 176 177 178 179 179 180 182 180 180
  46  46  46  48  14 141 197 193 195 193 192 197 175  71  43  48  46  49  51  48  46  44  43  45  48  67  73  82  82  76  66  62  61  64  72  74  76  79  82  82  80  78  79  79  83  90  89  96  95  91  96 101 102 106 107 109 110 114 105  98  83  90  93 109 115 121 121 119  94  80  73  64  56  54  54  53  52  45  48 160 180 179 180 180 181 181 182 182 182 182 182 182
  46  46  46  47  16 153 198 190 192 193 191 188 192 108  40  46  43  45  47  46  45  43  41  42  49  64  71  77  77  71  66  65  66  70  74  76  76  74  70  71  70  69  66  67  70  73  74  72  73  76  79  83  87  93  97 101 107 110 111 106 102  98  96 104 111 117 118 117 105  88  75  68  60  57  58  54  51  48  38 179 178 180 180 180 181 181 181 182 181 181 182 180
  48  47  46  49  15 160 185 192 185 181 181 180 178 134  45  43  43  42  43  44  44  42  39  41  47  60  72  74  73  67  63  65  67  71  72  74  73  70  68  61  56  52  53  53  46  48  43  38  45  46  52  70  75  79  89  95  99 106 109 109 103  99  99 102 108 112 116 114 108  90  78  67  59  53  52  52  51  22 112 185 178 181 182 182 182 180 180 182 181 180 180 180
  49  48  48  50  16 159 159 158 160 165 162 169 170 157  82  39  44  41  41  41  41  40  37  40  44  56  69  71  72  67  63  64  67  71  71  72  71  69  65  61  57  51  45  35  38  34  33  35  37  39  50  61  71  80  86  93  99 103 106 106 103 101 100 104 108 112 113 113 100  87  62  54  48  48  47  49  40  65 175 179 179 181 180 180 180 180 180 182 182 180 180 181
  33  37  47  53  19 124 162 162 167 175 193 192 193 183 117  57  38  40  36  37  37  37  36  39  44  54  63  68  69  65  61  61  65  68  70  69  69  66  63  61  58  52  46  41  37  36  36  35  37  41  51  60  70  78  84  90  95  98 100 101 100  96  99 101 106 110 111 107  91  84  51  50  46  44  43  45  24 152 172 179 179 180 180 180 179 180 180 180 180 180 181 181
 151  90  28  15  22  35 152 200 227 243 203 111  88  93 114 100  42  36  34  32  31  31  32  36  39  48  56  64  63  59  58  57  61  63  64  66  65  64  62  63  59  56  49  41  37  31  29  31  31  44  54  63  71  79  83  86  92  94  94  94  93  92  91  96 103 105 105 101  83  64  51  43  39  39  39  28  63 180 177 178 179 179 180 180 179 179 178 178 178 179 180 180
 205 206 187 137 109 213 250 233 176 100  58  24   9  11 109 103  65  37  31  28  27  28  29  31  36  37  50  60  60  58  54  53  56  59  61  61  62  62  64  65  64  56  58  63  61  61  57  57  65  67  68  66  76  82  85  86  88  91  92  92  89  87  88  95  97 101 100  90  73  52  46  38  34  32  33  21 122 182 176 177 178 178 179 179 178 178 178 178 177 178 178 178
 193 192 201 236 249 223 194 137  23  11   8  14  15   8 105 109  78  46  24  30  27  28  28  29  34  41  48  53  55  55  52  51  55  58  59  62  64  65  67  68  68  85  85  89  88  80  74  79  90  99  98  99  87  87  89  88  90  91  91  89  88  88  86  87  89  91  92  82  70  54  45  38  32  30  33  43 173 177 176 178 176 177 178 177 177 177 178 178 178 176 176 176
 187 182 238 249 248 146  63  15  20  11  17  16  14   7  94 114  88  62  27  30  26  28  27  28  32  39  46  49  50  51  51  50  53  57  59  62  66  70  72  77  86  90  97  92  88  86  83  93  95 107 113 108 103  90  95  96  95  93  92  91  88  86  84  83  83  83  84  77  63  55  46  39  32  35  44  80 181 174 175 177 176 176 177 176 176 176 177 176 176 176 176 175
 167 241 247 235 214  78  25  10  17  17  14  13  14   6  83 113  91  78  44  26  27  27  25  26  29  35  42  44  44  45  45  46  49  53  59  63  70  74  80  84  89  99  99  94  92  93  88  88  91  97 116 119 116 115 111 106 103 100  98  92  89  85  81  78  75  74  74  71  62  56  47  40  32  36  69 113 180 174 175 176 175 175 175 176 175 175 175 175 175 175 175 175
 243 242 248 215  95  34  25  18  16  14  13  12  12   7  74 113  91  76  59  30  27  27  26  26  26  29  34  40  41  42  43  42  42  46  56  63  70  78  84  88  90  94 100  93  90  91  90  83  88  92 109 119 121 118 118 114 111 106  98  93  86  82  80  73  61  58  56  58  55  52  46  39  29  57  60 152 173 172 173 173 175 175 174 174 173 173 173 173 173 173 172 172
 245 245 249 147  50  24  14  16  14  13  11  11  12   7  75 114  98  71  65  47  33  27  24  24  24  26  32  34  36  35  36  38  38  43  55  61  68  79  84  84  84  88  87  83  81  84  83  78  81  95 108 114 120 119 118 113 110 106  93  85  76  73  71  68  61  54  50  45  42  38  35  27  42  72  65 167 168 170 171 172 171 170 170 170 169 169 170 169 170 170 173 171
 243 243 200  64  30  23  17  14  13  12  11  11  12   7  78 110  99  78  64  59  43  27  22  21  21  23  26  28  25  14  20  31  38  45  51  59  66  73  78  76  76  75  63  69  69  75  74  68  69  86  82 103 102 111 112 113 102 107  91  81  69  50  59  45  40  40  42  39  36  34  31  28  57  80  74 176 172 170 164 163 168 167 172 168 173 172 171 171 171 168 161 166
 247 236 105  31  35  23  16  14  13  13  12  10  13   5  88 109 101  82  68  60  52  30  23  21  20  20  22  22  21  20  18  29  37  42  47  55  59  66  72  72  67  65  61  56  57  60  61  58  60  67  82  81  87  84  87  96  96  85  76  71  65  58  51  43  39  36  36  34  32  30  24  44  66  88 120  86 133 165 189 172 129 125 117 113 109 103  94  93  83  75  79  69
 239 177  60  34  28  20  15  14  13  11  11  11  10   6 107 107 106  85  62  58  54  36  23  20  18  19  19  18  18  20  23  28  35  38  42  45  50  53  55  57  57  56  53  48  47  45  51  52  54  59  66  70  81  74  73  69  67  71  70  64  59  55  49  40  34  34  33  32  27  26  35  56  77  92 142  11  10  26 126 181 182 159 138 129 130 134 138 135 138 139 140 145
 239 118  39  38  25  18  15  14  13  11  11  12   9   8 114 110 110  90  69  60  56  43  25  22  19  17  16  16  16  19  22  26  31  33  35  37  42  45  46  49  50  47  45  42  42  42  43  43  46  51  49  54  51  55  61  63  60  61  63  56  54  50  45  39  33  33  31  28  25  17  39  71  79  94 140  10  12   6   8  12  23 103 178 201 175 150 147 147 145 144 145 147
 159 119  52  33  18  16  16  14  13  11  11  14   6  41 120 112 110  93  77  62  55  51  33  26  20  18  16  17  16  18  20  23  27  30  30  31  35  37  38  41  40  38  38  37  36  37  38  38  39  42  45  42  43  48  49  50  49  52  55  52  50  48  42  37  31  29  28  27  17  45  61  78  86 101 125   8  16  14  11  10  13   8  24  72 123 176 174 154 149 150 150 149
 132 116  60  26  19  15  15  13  12  12  14   6  20 120 114 115 112  96  78  66  56  50  39  30  20  17  16  15  16  17  19  20  23  25  25  25  28  28  31  33  32  31  33  32  30  31  30  33  35  37  36  34  36  37  38  38  41  41  43  43  44  41  35  30  27  25  24  22  33  50  74  84  89 110 115   7  15  12  13  14  14  18  14   8  17  27 136 223 207 162 141 142
 160 139  42  25  18  15  13  13  12  10   5  40 159 131 119 118 118 101  83  63  57  49  40  35  26  20  15  14  14  16  18  20  21  22  22  22  22  23  23  26  26  21  23  26  25  19  18  25  29  28  29  28  29  29  31  30  31  32  34  36  36  35  31  27  26  24  18  36  48  58  78  88 105 115  99   8  13  11  11  12  13  16  18  20  12   9  14  67 138 180 194 176
