P2
92 112
255
 243 244 245 244 243 243 243 243 243 243 243 243 244 243 243 243 243 243 243 246 246 115  75  93  60  34  38  39  42  44  45  45  43  41  39  38  39  38  35  34  33  29  28  24  23  24  26  27  32  41  39  24  30  36  44  26  16  22  21  23  25  25  28  29  30  32  37  38  32  27  27  31  37  34  31  32  35  41  39  83 136 150 221 245 243 244 245 244 243 242 242 248
 243 243 243 243 243 243 243 243 243 243 243 243 243 243 243 243 243 242 245 240 122  75  93  73  61  48  41  40  43  45  47  47  46  47  44  42  38  34  32  30  28  26  25  22  20  21  21  24  28  26  25  23  25  25  18  19  21  22  23  25  28  28  28  30  28  28  29  31  30  28  28  30  36  39  33  34  38  37  35  37  23 115 184 244 244 244 245 244 243 241 240 238
 243 243 243 243 243 244 244 244 243 243 243 244 243 243 243 243 242 247 229 117  46  90  95  36  46  49  46  45  47  47  50  54  64  49  52  45  39  33  30  28  27  25  22  20  19  19  20  22  23  21  22  21  20  18  17  17  18  19  19  19  22  24  24  24  24  25  25  27  31  32  32  29  33  37  37  34  39  40  40  43  42  54 164 174 248 243 244 243 243 241 240 235
 243 243 243 243 243 243 242 241 243 243 243 243 243 243 243 241 244 228  80  55  40  94  81  33  47  57  53  51  50  52  49  57  67  80  59  48  41  40  36  32  29  26  23  20  19  19  20  20  20  19  19  18  18  15  15  15  17  16  16  15  15  20  23  23  21  20  20  22  21  31  34  31  31  36  36  36  39  41  39  37  40  47  91 170 242 239 240 239 241 239 239 234
 243 243 243 243 243 243 243 241 242 243 243 241 241 241 242 243 241  96  62  58  58  95  51  34  70  67  52  47  66  76  72  65  76  70  56  49  48  44  40  34  30  26  24  22  21  22  21  19  19  18  17  17  18  16  15  15  15  16  15  13  13  15  20  23  24  22  20  20  18  18  19  25  29  32  31  33  34  26  28  30  36  38  16 143 227 239 236 236 237 236 235 233
 241 242 243 243 244 243 242 241 243 243 243 241 242 241 240 245 123  29  76  65  83  74  35  67  90  86  69  88  88  89  84  85  85  72  72  67  56  48  42  37  33  29  26  25  26  26  22  20  20  20  20  20  19  18  17  18  16  15  15  13  13  12  15  21  25  23  21  20  18  18  20  22  25  25  27  30  31  29  29  31  37  40  32  12 160 242 232 233 233 233 232 231
 241 240 241 241 243 241 241 241 243 242 241 242 240 240 234 171  59  93  57  81  90  64  60  86 103 103 108 116 112  92 100  99 111 112  93  83  69  57  53  39  33  34  28  30  29  27  25  26  26  27  26  23  22  22  22  20  19  16  15  15  13  13  13  16  22  23  22  18  18  18  19  22  24  24  28  29  47  39  28  31  39  31  25  46  50 214 234 229 230 229 231 227
 242 240 239 239 240 240 241 241 241 241 240 239 238 245 224  43  62  55  62  85  53  66  61 111 138 136 126 124 124 135 136 137 132 117 116 105  95  79  64  57  58  49  47  42  30  29  24  29  35  35  32  29  26  24  28  28  24  21  20  17  17  16  15  15  18  22  23  20  17  18  18  19  21  25  31  32  38  35  31  32  31  28  21  40  85 117 230 225 227 227 228 227
 243 243 241 237 235 237 240 239 238 237 236 234 233 232  85  29  45  63  74  55  38  60  84 128 148 148 152 158 167 168 165 162 148 148 138 132 124 101  91  83  82  78  72  57  56  52  50  51  47  46  43  38  38  40  43  29  32  28  21  30  23  21  20  18  19  22  24  22  20  20  20  19  22  25  29  32  32  35  36  34  37  34  34  26  26  58 198 223 223 223 224 225
 245 243 243 228 228 227 217 208 210 233 234 234 242 134  18  48  53  56  39  38  37  60  97 140 161 169 168 169 172 169 169 165 164 171 162 155 134 125 114 107  98  89  86  83  79  76  65  73  70  68  61  62  63  61  59  57  52  53  51  44  53  46  39  34  26  24  22  21  19  20  20  19  21  23  22  27  28  30  31  31  35  39  39  38  43  16 195 212 222 222 222 222
 245 243 243 228 221 231 231 229 232 234 237 245 203  25  37  43  46  50  43  40  42  47 131 173 171 174 175 177 176 174 173 171 169 165 162 155 146 133 127 118 111 109 109 100  97  95  95  94  88  85  91  87  84  85  83  78  77  79  82  73  73  70  60  46  39  25  25  25  21  21  20  21  23  27  26  28  28  29  29  29  30  34  40  42  42  17 139 213 217 218 219 219
 244 241 240 239 240 237 236 233 234 233 235 248 109  25  42  40  39  41  41  41  48  43 157 175 173 174 178 176 175 174 170 168 165 163 163 155 150 143 133 127 122 117 113 111 110 109 107 106 113 107 109 106 104 106 109 106 104 109 103  96  91  86  80  57  49  36  26  23  25  23  23  25  26  31  36  38  30  30  27  26  25  27  29  32  40  28  64 177 224 214 215 217
 241 241 241 240 240 239 238 238 237 233 228 221  32  40  46  40  38  38  38  42  48  55 177 174 175 176 175 172 171 169 165 159 155 158 154 153 148 142 136 128 124 121 118 118 116 113 114 115 113 115 116 117 117 114 115 121 122 113 111 111 114 100  89  79  63  43  25  23  23  28  27  26  37  36  32  46  42  47  30  23  24  23  23  31  36  34  46  63 230 213 216 208
 242 242 242 240 240 240 238 238 238 235 247 126  22  45  44  42  39  37  40  47  34 109 175 174 176 176 172 168 164 164 158 156 152 146 148 148 144 140 136 130 126 124 123 122 120 119 120 120 120 122 122 123 123 122 123 124 125 122 120 119 116 118 118  99  81  56  35  22  29  35  53  56  37  44  62  77  98  72  58  42  26  23  23  27  31  33  44  31 161 199 199 197
 242 242 242 240 240 239 238 237 237 234 249  61  37  46  42  40  38  36  42  50  51 142 166 173 176 176 169 159 156 157 150 148 145 141 142 140 139 137 133 129 126 124 125 124 123 121 121 122 123 124 125 125 125 126 126 127 126 126 126 123 122 121 121 113 104  86  53  45  41  54  60  63 100 122 123 129 123 116  84  69  32  26  24  25  29  35  44  44  53 187 185 176
 241 241 241 241 238 238 238 238 237 237 212  28  42  41  40  41  38  34  44  41  83 165 169 175 176 169 161 143 147 144 142 139 140 135 135 136 132 131 129 127 124 122 123 123 120 120 121 123 124 124 125 125 127 128 126 127 129 129 128 128 126 126 124 127 124 113  87  53  17  16  71 122 142 140 136 140 146 130 114  79  51  25  26  26  30  33  43  43  42  93  65 123
 239 237 238 237 237 238 237 236 235 244 135  20  42  39  37  39  36  39  39  62 126 169 172 173 173 162 153 141 140 134 129 126 126 128 127 125 128 129 117 118 119 117 117 118 117 117 119 121 122 122 122 124 125 125 125 125 126 127 127 129 129 129 128 127 127 127 128 116 107 117 128 143 144 144 142 142 139 138 120 104  72  38  25  23  24  30  39  39  37  51 202 217
 237 238 238 237 237 237 235 235 233 235  58  35  40  36  36  36  35  35  53  85 157 169 170 169 165 155 137 142 134 126 122 120 122 115 120 116 117 114 112 113 112 114 115 115 116 117 119 119 119 120 120 121 122 124 124 122 123 123 126 126 128 129 128 129 130 132 137 143 142 142 144 143 146 147 146 145 143 140 132 119  73  51  28  24  21  25  36  37  31  17 228 219
 238 235 236 236 236 235 234 234 234 201  19  35  35  33  34  33  23  47  71 127 174 168 167 165 160 156 147 139 123 120 117 116 115 113 112 109 104  99 105 109 110 112 114 114 115 117 119 120 118 118 120 122 122 123 122 121 121 121 120 124 127 128 129 130 132 132 134 134 139 140 143 144 146 148 147 146 145 142 135 123  63  69  38  26  21  23  30  38  36  15 207 222
 236 237 234 233 232 232 233 232 242 142  18  34  33  34  36  34  30  51  83 154 169 167 165 162 158 153 143 137 127 120 115 112 111 109 107 106 103 103 103 106 108 108 111 113 114 115 116 118 117 118 120 122 124 123 123 120 121 121 121 120 124 125 127 128 129 131 132 132 134 137 140 143 144 145 146 145 145 145 137 103 117  77  45  20  24  23  29  35  40  11 158 222
 235 235 234 233 232 231 230 232 248  59  28  32  33  35  36  35  41  56 116 170 167 167 164 159 155 146 138 133 127 121 117 113 110 108 105 102 101 101 100 103 104 105 109 112 113 113 115 116 119 118 118 121 122 123 122 123 122 122 121 122 122 123 124 125 126 129 131 130 131 133 135 138 141 143 144 144 147 147 133 121 126  97  48  25  26  24  28  35  41  36  43 231
 234 234 233 231 232 230 229 222 246  20  26  30  32  35  34  32  51  65 144 169 165 163 161 154 149 142 135 132 128 122 119 116 111 110 106 101 101 100  99 100 102 106 108 110 110 113 114 115 116 118 118 118 121 120 120 121 121 122 120 121 120 121 122 123 124 125 129 129 130 131 133 135 139 140 143 143 146 147 141 121 127 115  69  28  32  25  27  34  43  54  21 231
 231 231 231 230 228 227 223 223 218  16  32  29  30  32  33  43  40  94 149 163 162 160 153 151 144 138 134 132 129 126 121 119 119 113 110 105 105 101 101 101 102 106 108 110 110 113 114 115 117 116 115 115 118 117 118 119 119 118 118 119 117 119 122 122 123 124 125 128 129 131 132 134 137 141 143 142 144 147 149 123 127 118  86  55  34  29  26  28  34  50  19 210
 229 229 229 227 227 228 225 230 187  14  32  28  29  30  33  46  47 114 150 160 160 158 151 143 138 133 132 131 130 129 128 123 121 114 110 109 106 106 105 104 105 108 108 109 109 111 115 116 117 118 117 116 117 118 116 117 118 118 118 117 117 117 120 120 122 123 124 126 128 130 132 132 136 140 140 141 143 145 146 142 135 118 104  77  47  34  27  27  31  37  35 172
 228 227 225 225 225 225 224 225 180  20  29  28  28  29  34  44  59 138 149 158 157 156 148 141 137 131 130 129 129 130 131 130 125 120 115 112 110 110 110 109 108 109 109 109 109 110 114 116 117 117 117 117 117 116 116 117 116 116 117 117 117 118 119 119 120 122 122 123 126 127 129 130 132 137 138 139 140 144 145 142 140 135 146 101  58  40  30  28  30  31  40 122
 225 224 224 224 224 222 221 222 156  24  30  28  25  30  32  48  73 141 150 156 155 152 145 140 135 131 129 128 129 133 132 132 127 120 125 123 119 117 116 116 115 114 112 110 111 113 115 116 118 117 118 118 117 117 117 115 116 117 114 115 117 120 121 120 120 120 119 119 122 123 125 126 131 134 134 135 138 142 144 143 142 140 139 132  91  37  34  29  31  35  39  58
 224 225 223 222 222 220 217 226 170  18  33  30  28  30  32  66  93 149 153 156 155 151 145 139 133 131 129 129 130 133 133 134 133 139 126 128 125 126 123 121 119 113 115 114 114 115 117 117 118 117 117 117 118 118 117 118 117 118 117 117 118 121 122 122 122 122 123 121 121 124 125 126 129 132 133 134 136 140 142 143 143 141 138 136 110  50  34  31  30  32  38  39
 222 220 220 219 219 217 214 211 205  17  33  30  28  31  34  75 115 156 156 156 152 150 141 136 131 130 131 132 133 135 136 137 138 139 140 139 134 133 131 131 128 121 119 116 115 115 118 119 118 117 118 117 117 117 117 119 119 119 119 120 121 121 122 123 124 125 125 125 124 125 125 125 126 129 132 133 135 137 140 144 143 140 134 129 112  62  41  27  28  33  35  37
 218 216 217 215 212 212 205 201 226  18  35  31  29  29  42  83 134 160 156 155 151 145 138 135 133 133 134 135 140 138 141 141 141 141 140 138 140 138 135 133 130 125 120 118 115 116 117 117 118 118 115 116 117 118 119 120 122 125 124 123 124 124 123 125 125 127 127 126 127 126 125 126 126 128 130 131 134 135 138 140 139 136 128 125 132  78  46  19  27  30  32  29
 203 202 199 197 197 195 197 188 185  15  37  32  31  34  43 101 152 157 154 152 149 142 139 136 136 137 138 141 142 143 144 145 145 142 140 138 138 137 135 134 132 124 122 120 119 118 116 117 117 117 117 117 118 118 120 121 122 125 126 126 125 126 127 126 126 127 128 129 128 127 126 125 127 128 128 131 133 133 136 137 138 133 126 121 122 108  43  23  26  29  29  19
 178 187 186 182 172 155 127 118 134  28  38  31  32  28  45 128 161 155 153 151 147 142 141 143 143 143 146 147 146 147 146 145 144 141 138 137 135 133 132 130 130 124 123 122 121 119 119 117 118 119 119 118 119 120 121 123 124 126 126 126 128 130 130 129 129 129 128 128 128 128 126 125 126 126 129 131 132 133 134 138 138 133 121 121 113 113  47  25  25  27  30  13
 141 109  92  79  86 101 145 172 168  23  36  31  32  32  53 157 156 154 154 148 144 144 145 148 150 155 157 152 150 149 146 143 142 135 131 130 129 128 123 121 120 122 121 122 120 120 120 120 118 117 118 119 119 120 122 125 126 126 126 127 130 131 131 131 128 129 130 129 126 127 125 123 123 127 129 130 133 132 134 137 137 137 116 112 112  96  48  30  24  26  32  10
 107 154 184 205 214 216 219 217 225  18  31  31  34  28  82 156 153 152 150 144 145 147 152 157 158 158 156 154 150 146 142 139 135 130 123 120 117 115 114 113 113 116 117 118 120 119 118 118 117 117 118 118 118 118 119 123 124 125 125 126 128 129 130 131 132 131 131 130 129 126 124 122 123 125 127 130 131 132 133 138 136 135 112  92 106  89  56  30  22  22  32  10
 230 226 221 221 220 220 219 226 221  16  31  32  35  22 122 150 152 151 147 144 145 150 156 157 164 165 158 148 149 143 138 137 129 121 114 114 108 105 104 108 108 111 112 116 117 117 115 114 114 115 117 119 119 120 120 121 121 122 125 125 127 127 128 129 132 133 132 132 130 128 126 124 123 124 126 129 131 132 133 134 134 130 117  85  94  82  51  35  20  22  28  26
 220 220 221 221 221 222 221 226 218  19  26  31  33  21 145 162 156 150 146 143 152 158 159 161 148 128 119 121 115 111 108 100 101 106 103 102  97 100  96  91  99 105 109 113 114 114 112 111 111 113 116 116 118 119 118 119 120 119 122 123 124 124 126 127 130 134 133 132 133 130 126 126 125 126 126 128 130 129 131 131 132 130 121  90  86  73  49  31  20  21  26  14
 224 223 222 223 223 222 223 223 229  46  27  34  30  24 160 162 157 152 149 149 158 162 155 117 104  83  89  77  79  72  70  75  74  75  63  78  80  77  82  88  95  96 103 107 109 109 108 108 108 109 112 113 115 116 115 116 118 118 121 121 121 121 123 125 128 130 131 132 133 131 129 128 127 126 127 128 129 130 130 131 131 132 135  98  66  55  48  28  23  22  24  11
 224 224 224 224 225 224 224 222 245  96  16  35  18  40 168 162 157 153 148 153 157 156 127  84  62  62  58  59  51  38  41  29  40  36  47  49  52  65  64  72  84  90  95  97 102 103 101 100 104 106 109 110 110 111 111 112 112 114 115 115 115 116 118 120 124 127 128 131 132 132 131 130 129 129 127 127 128 128 128 130 131 132 134 105  62  49  42  28  23  20  22   8
 225 225 226 226 226 225 226 224 239 132  16  38  19  56 178 162 153 149 148 146 141 103  67  69  61  55  46  41  39  38  32  32  31  34  35  36  43  54  58  65  77  82  90  92  98  98  97  95  98 101 104 107 107 106 106 102 103 113 108 113 111 112 111 111 115 121 124 130 128 128 128 129 129 128 126 128 127 128 128 129 129 130 127 125  61  46  36  27  22  19  21   9
 225 226 227 227 227 227 227 226 238 153  22  39  22  82 176 160 151 148 143 123  92  90  64  64  52  49  44  40  35  29  28  27  27  28  30  32  37  43  57  59  64  78  84  88  89  92  91  90  91  98  98 100 101  98  97  95  93  95  98  96 101 100  95  96 101 106 115 115 118 121 127 124 129 129 128 129 127 127 127 128 128 129 128 129  75  34  30  25  22  19  20   9
 225 227 227 227 227 227 227 227 231 188  20  43  14 111 174 159 151 146 141 123  91  81  65  55  51  47  42  40  36  33  31  28  26  26  27  30  35  42  49  54  66  72  79  81  86  88  88  87  88  92  93  94  97  89  89  88  86  81  79  70  66  50  55  59  64  70  89  98 102 105 105 113 125 129 132 130 128 127 128 126 125 125 125 134  81  39  24  24  22  20  20  11
 226 227 226 227 227 227 227 227 224 222  49  31  10 138 170 159 150 145 134 117 101  71  64  56  53  51  46  43  45  44  38  28  33  32  33  35  37  43  49  53  57  70  76  80  83  85  85  85  85  87  88  87  83  82  80  76  75  72  64  54  45  41  35  34  34  48  59  71  76  71  73  79 109 131 130 133 130 128 127 125 124 122 123 131  86  25  24  22  22  22  15  68
 189 234 230 226 227 227 226 224 223 230 149  21  15 160 164 154 149 137 122  97  93  68  64  61  58  57  56  51  55  54  55  52  44  43  42  43  43  46  50  53  59  66  73  77  81  83  84  85  83  84  84  83  80  75  72  69  62  62  50  42  35  30  30  29  36  38  42  50  50  58  61  54  79 104 131 130 130 129 127 125 125 124 123 133  71  28  22  21  22  25  10 183
  65 104 210 231 232 228 226 216 211 202 161  20  14 174 159 151 146 122 116  96  83  71  67  63  60  64  72  80  81  81  78  68  62  57  52  47  47  48  51  54  59  64  70  75  79  84  85  85  84  84  83  81  77  73  67  61  58  49  45  38  33  28  29  29  30  32  36  43  50  57  61  62  65  81 103 130 126 127 126 126 125 126 124 130  61  30  24  21  22  19  20 232
  96  76  63 127 199 225 214 177 175 182 133  29  15 190 157 148 134 109  99  87  79  72  70  62  78  81  78  81  75  78  77  72  67  65  56  53  50  49  50  53  58  62  70  75  81  86  87  88  88  88  86  83  78  72  66  62  57  51  45  41  38  36  33  32  31  33  34  41  47  53  59  63  63  60  85 119 122 126 126 125 125 125 123 127  63  25  24  23  24   9 135 219
 102 101  99  72  71 116 151 103 130 135 123  33  15 190 158 146 133 107  97  85  77  74  74  94  86  65  33  45  53  52  56  57  48  38  52  52  49  49  50  51  54  61  68  77  83  87  89  90  92  93  90  85  80  75  69  64  60  56  54  48  44  43  42  40  35  35  40  40  46  51  56  60  61  64  66  95 123 124 125 124 125 125 123 128  46  30  26  23  25  12 217 213
 102 100 100 100  91 117 111  66  88  97 115  42  15 193 156 143 128  98  93  83  77  74  76  68  44  52  53  45  33  32  32  30  31  42  41  38  41  47  49  50  50  56  70  76  89  94  91  99  97  99  95  90  82  76  69  64  60  57  53  50  49  48  50  54  54  50  46  45  46  51  56  59  61  65  71  85 108 123 124 124 126 125 123 127  34  28  26  24  21  30 219 209
 102 101 103 101  99 134  96  77  67 102 109  50  26 190 153 145 125 100  89  82  76  73  69  51  63  54  32  26  45  30  16  21  21  17  19  32  34  37  47  48  48  53  63  82  94 100 104 109 111 107 101  92  83  73  67  64  60  55  50  46  46  46  48  50  52  55  57  59  58  60  60  60  64  66  72  73 107 121 123 126 127 128 122 101  41  29  27  26   9 121 201 198
 101 102 101 102 103 130  83  80  81 107 120  38  39 185 160 146 122  93  88  77  72  67  59  55  47  18  43  69  77  29  25  23  22  24  14  25  37  37  37  48  49  53  55  84  95 103 109 111 113 111 105  92  82  66  64  60  57  49  44  44  47  50  55  65  64  65  50  59  60  63  67  70  73  72  76  78 110 117 123 126 131 132 138  82  30  27  28  28  21 205 229 224
 101 101 101 100 105 126  93  81  68 111 122  40  60 187 157 144 118  97  82  76  68  62  58  50  41  29  88  84  95  34  22  22  22  23  11  61  40  38  38  41  47  51  51  83  98 107 111 114 116 112 106  88  78  66  61  55  48  44  42  44  48  51  57  66  73  77  76  68  54  60  64  71  74  76  78  82  98 116 121 126 130 134 137  54  21  28  28  15  81 225 224 222
  99 100 100 101 102 137  89  77  77 114 108  46  80 176 157 146 120 100  87  72  68  62  58  48  57  57  77  83  88  44  26  24  23  16  41  69  55  41  40  41  47  52  50  78  98 107 111 116 118 118  97  81  74  65  57  49  43  41  39  41  48  54  56  59  74  81  78  79  84  41  57  70  75  78  80  83  91 115 119 125 123 132 139  33  19  28  21  12 201 225 220 220
  97  98  98 101  96 148  82  71 101 114 101  38  97 172 154 142 120 103  90  80  70  64  61  72  70  66  63  74  81  78  49  27  16  46  78  65  51  42  39  42  48  53  58  78 105 110 112 115 117 118  90  80  71  60  52  45  40  38  38  27  10   7   5  10  15  21  48  77  84  85  49  63  73  79  84  89  94 111 117 122 126 134 141  16  25  28  16  57 228 219 219 217
  94  95  95  98  94 145  82  65 138 106 101  25 124 169 153 139 120 108  92  89  80  70  75  79  76  66  62  61  69  70  72  67  62  64  59  51  49  46  43  43  49  55  62  86 104 110 114 117 118 116  84  79  71  60  49  44  41  36  38  52  17  22  20  22  26  10  24  28  69  86  65  65  72  79  85  96  98 112 117 123 129 136 129  17  28  27  12 212 218 218 219 218
  90  93  95  95  97 128  83  86 137  90  80  30 137 164 153 146 122 115 107 100  88  80  79  80  77  67  61  60  57  62  60  61  56  52  52  48  46  47  47  47  52  59  58  89 107 112 115 118 117 112  84  82  71  62  49  44  44  50  72  66  19  23  21  23  26  24  92  47  17  58  77  69  75  80  87  96 104 112 117 124 131 139 116  20  33  18  96 220 218 220 221 220
  86  88  89  91  92 119  86 119 110  75  59  29 141 159 152 145 133 126 121 114 101  88  82  80  76  65  59  55  50  49  48  45  44  46  45  44  46  46  48  51  56  66  77  95 110 115 117 119 116 108  96  83  74  60  49  48  49  46  74  86  33  29  26  26  31  64 105  83  29  29  65  69  74  80  89  97 108 115 120 126 133 144 102  13  37  17 190 218 220 221 224 225
  82  84  85  88  91 104 103 140  96  61  58  26 148 154 152 145 139 138 135 129 114  97  90  80  75  67  59  54  50  47  44  44  43  43  45  46  47  48  51  54  68  64  86 107 115 117 119 119 117 109  98  79  74  63  55  51  50  52  58  69  72  38  26  22  62  95 107  89  61  57  54  66  75  81  88  96 113 117 124 127 133 151  82  24  36  36 104 145 179 225 226 226
  77  80  82  84  87  94 112 145  88  54  61  32 150 157 153 148 144 143 146 143 134 116  97  91  79  70  57  56  52  50  49  47  46  47  48  49  49  52  58  68  77  81  98 116 123 122 124 123 121 115 104  92  78  64  56  52  52  53  56  60  64  71  69  77  92  95  87  78  73  74  67  66  76  84  92 106 115 118 126 129 134 148  66  24  45  66 111 124 132 163 234 231
  75  75  78  81  84  80 121 145  72  60  62  33 157 157 154 151 149 149 158 163 160 146 119  92  92  83  76  65  61  58  56  53  53  53  52  51  53  55  71  81  86  93 112 124 129 131 129 129 129 122 104  99  92  72  55  54  51  50  47  51  55  58  66  69  77  75  71  72  75  79  81  85  82  87  97 104 115 121 127 130 134 152  25  43  88  95 111  95  70  99 236 230
  70  72  74  76  78  75 106 153  70  68  61  48 152 159 154 152 149 162 163 163 158 150 137 123 104  84  81  75  70  65  61  58  55  54  54  54  55  73  85  86  88 105 122 127 131 133 133 132 129 124 104 102  95  79  63  56  53  51  50  48  51  53  57  59  62  64  70  72  78  83  87  87  89  93 102 108 117 123 126 129 132 149  20  56 112 104  93  73  50  78 204 233
  66  68  71  73  75  72  80 152  83  64  65  44 150 155 153 153 156 159 161 159 157 150 145 127 112  98  89  82  74  69  64  59  58  57  58  60  74  80  89  92  94 117 123 129 131 132 131 131 129 122 109 106 101  91  74  60  56  55  53  51  52  53  55  58  62  64  68  73  78  87  90  95  97 103 107 111 119 122 128 129 130 139  19  61 106 102  82  68  57  63 183 235
  65  66  67  67  70  70  62 134 103  75  60  53 149 154 154 153 154 155 154 154 150 147 146 129 113 104  95  83  78  72  67  64  62  56  63  78  85  90  93  97 107 117 126 129 130 130 129 129 127 122 110 109 104  98  95  70  63  61  58  58  57  57  57  60  62  67  71  79  91  93  93 100 107 109 110 114 120 125 128 129 129 132  20 100 105 109  79  72  61  66 196 241
  62  62  64  66  67  65  60 132 118 107  39  61 147 154 154 152 149 147 145 143 140 144 142 129 116 108  95  86  79  74  70  69  67  77  86  86  90  93  95 104 111 127 128 130 131 129 129 129 126 123 120 113 107 106 100  80  72  64  62  63  64  60  60  60  71  71  75  88  94  97  98 106 111 113 115 117 122 125 127 129 131 125  15 113 106 109  72  72  54  64 226 242
  58  59  60  62  63  67  47 136 100 142  36  62 149 153 153 150 147 138 134 132 131 127 124 118 112 103  92  87  80  78  77  78  85  88  91  92  94 101 104 119 115 131 132 133 134 132 130 129 128 127 122 117 112 110 103  84  82  58  65  66  68  71  75  78  81  85  88  91  96 100 104 110 117 117 119 120 122 125 127 130 134 104  17 114 114 107  79  74  51  71 250 243
  57  57  58  59  60  65  42 157 101 201  40  74 138 153 150 148 140 132 124 119 116 108 108 107 110  93  92  89  86  83  87  89  92  92  95  95  99 109 111 124 130 144 142 148 142 137 133 130 131 128 125 120 115 111 110 105  95  83  72  71  72  75  79  82  88  91  94  97  99 106 113 119 120 123 125 123 124 124 126 127 128  96  23 111 118  92  77  77  59 112 250 243
  56  57  56  57  59  59  42 166 152 197  38  68 125 148 148 140 132 121 114 109 105  99 100  96  93  94  93  93  94  93  96  97  98  97  98  97  99 110 128 135 143 148 151 150 146 141 137 133 133 131 127 123 118 115 112 110 107  96  81  78  78  79  82  87  91  94 101 103 105 113 119 123 124 127 127 126 126 126 128 128 133  73  28 109 128  87  84  81  60 178 247 240
  55  53  54  56  57  57  38 176 197 158  33  73 128 146 143 139 131 117 110 107 101  96  95  95  95  96  97 101 104 101 100  99  99  99  97  98 102 116 129 145 151 152 151 152 149 146 140 137 135 132 129 125 122 116 114 113 112 109  99  86  84  84  87  90  95 100 103 109 116 119 123 126 128 128 126 124 126 127 130 128 136  57  25 101 126  89  84  72  80 222 233 235
  55  53  53  55  56  58  38 191 206 142  62  76 120 142 141 138 127 115 108 105  99  98  97  97  98 102 102 105 108 105 102 100  99  96  94  95 102 115 131 146 152 153 154 152 151 147 142 138 137 134 132 128 123 118 115 114 115 114 113 107 101  95  95  95 100 105 110 115 118 122 125 128 132 132 126 123 125 127 128 127 123  46  38  91 118  99  87  65 110 249 245 242
  51  50  52  52  54  46  48 204 192 135  43  67 103 141 139 137 117 112 106 103 102 100 101 101 101 105 106 108 108 106 104  99  97  94  89  91 101 117 133 150 154 154 155 153 147 145 141 139 139 135 132 128 123 117 114 113 115 117 116 114 109 104 100 102 106 108 111 119 123 125 125 126 129 130 126 118 124 127 126 125 113  32  48  84 122  99  73  77 196 247 245 245
  50  50  50  51  51  39  76 197 170 117  54  70 102 131 134 136 113 111 108 104 101 101 101 101 102 105 109 107 107 106 102  98  95  90  86  74 105 132 134 154 154 156 154 152 147 143 142 139 139 135 130 127 120 115 113 111 113 116 116 116 115 110 107 108 108 110 112 118 120 123 122 123 124 128 122 112 124 125 126 122 103  37  44  86 124  93  81 138 250 245 245 245
  49  49  48  48  49  38  65 191 131 108  55  73  92 127 124 123 106 111 106 103 101 101 101 101 105 105 108 108 107 102  99  95  91  84  80  64 132 144 143 151 152 143 147 144 143 143 140 138 138 134 131 123 120 112 106 106 110 115 116 120 120 117 116 115 111 111 113 115 118 118 119 119 123 124 123 122 123 125 124 120  90  38  42  84 127 108  80 243 245 245 245 245
  49  48  48  48  49  46  41 150 130 105  64  75  87 109 119 115 111 109 105 103 103 102 100  99 101 104 105 106 103 102  96  91  87  81  64 110 143 145 148 150 150 146 139 133 136 132 131 133 133 133 131 125 121 106  95  95 105 111 116 121 121 121 120 119 117 114 114 113 115 117 119 119 120 121 122 120 121 122 123 120  73  37  38  83 137  94 198 248 245 245 245 245
  49  48  46  46  47  49  24 131 120 103  73  77  80 100 118 111 108 106 102 101 101 102 102 100 100 103 102 100  97  93  89  87  81  78  43 146 146 145 148 146 144 136 127 117 114 115 123 128 131 132 131 127 127 113  76  88 101 108 114 118 122 122 124 123 121 120 116 116 118 119 120 119 120 121 121 119 119 119 119 115  60  35  65  93 126 111 250 245 245 245 245 245
  46  45  46  46  46  46  38  91 102  88  80  77  79  81 112 107 105 105 104 103  99 101 102 102 100 100 101  99  94  90  85  82  79  75  52 142 133 128 118 130 130 121 116 110 107 109 110 118 123 129 128 126 123 133  62  85  94 107 109 117 120 122 122 123 122 122 123 124 122 122 121 121 121 121 121 119 120 118 118 113  49  30  99 111 101 225 246 245 245 245 245 245
  44  45  45  44  45  45  47  38  82  88  78  77  73  81 101 102 100 100 101 101 100  99  98  99  99  99 100  96  93  87  85  82  77  71  68 121 113 102 106 107 106 103 100 100 100 101 108 112 117 120 121 120 122 131  82  80  88  97 110 114 121 122 122 123 125 125 127 127 125 124 122 119 120 120 121 121 119 117 116  96  39  26 140 127 109 247 244 245 245 245 245 245
  45  45  45  45  46  46  46  46  42  55  73  73  75  80  92  97  93  94  99  99  99  99  99  99  98  98  96  93  89  85  82  79  75  70  75 103  95  86  79  88  85  83  87  90  91  96  96 100 109 112 115 112 119 124  90  77  85  94 105 109 120 121 122 124 125 126 127 127 125 124 123 121 119 119 119 120 118 114 111  80  48  31 155 118 122 249 244 245 245 245 245 245
  44  45  45  44  45  45  45  46  49  62  69  71  74  80  84  90  89  92  97  97  95  98  99 100  96  95  94  90  87  84  81  78  74  71  76  82  71  67  56  64  83  84  83  83  75  87  93  94  98  99  98 100 113 115  91  78  82  91 100 110 114 119 120 122 125 125 125 126 121 121 123 119 119 118 117 117 114 117  94  70  41  36 151 134 183 246 245 245 245 245 245 245
  44  44  44  43  44  45  44  45  48  59  68  69  75  77  79  82  81  85  92  95  96  98  99  98  96  94  91  87  85  82  80  77  75  74  74  67  65  44  36  15  62  75  74  73  74  76  81  85  86  87  85  88  95 109  81  76  80  88 101 104 110 115 118 120 122 125 124 124 121 121 123 121 119 117 115 114 112 105  88  62  28  96 150 134 224 245 245 245 245 245 245 245
  44  44  44  44  43  44  44  44  47  53  67  68  69  68  69  76  76  83  88  91  95  97 100  99  96  93  89  87  84  81  79  78  78  79  76  63  55  50  47  44  42  65  67  68  70  73  76  79  80  56  40  62  87  93  82  79  81  89  94 103 109 113 117 118 120 121 122 121 121 121 122 122 119 117 114 112 102  95  77  54  31 118 149 129 245 246 245 245 245 245 245 245
  45  44  44  43  43  43  45  45  46  48  66  68  65  62  66  69  69  73  86  88  92  96 100  98  95  91  87  85  84  81  80  79  82  83  82  78  58  53  51  50  49  46  60  61  63  67  71  73  60  47  48  58  78  80  85  84  84  90  94 102 107 111 114 116 118 115 122 122 122 121 120 119 119 115 113 101  96  85  70  53  21 112 138  93 250 245 245 245 245 245 245 245
  44  44  44  43  43  43  43  44  45  47  65  68  65  58  59  62  56  73  78  83  88  93  96  95  93  89  86  85  85  83  83  84  87  88  86  84  65  58  53  51  48  46  51  54  55  57  58  62  59  56  55  58  73  84  87  87  87  89  93  99 104 109 112 115 115 115 119 119 121 121 120 119 116 111 103  97  85  80  53  52  20 117 135 125 250 245 245 245 245 245 245 245
  44  43  42  42  43  43  43  43  43  49  60  66  67  61  57  56  56  63  73  76  82  88  93  93  90  86  86  85  85  86  88  91  91  91  88  93  66  55  51  46  45  44  45  48  49  48  49  59  62  64  63  74  85  90  89  90  90  91  93  96 101 107 111 113 116 115 117 119 119 121 120 117 111 107  99  88  80  77  51  52  32 117 116 197 248 245 245 245 245 245 245 245
  44  43  42  43  43  43  42  43  45  48  58  62  66  62  57  59  61  62  66  67  80  87  93  92  89  87  87  88  87  88  93  94  94  91  89  76  58  53  42  39  36  39  41  44  43  40  41  49  61  67  79  79  93  96  96  93  92  92  94  98 100 106 110 114 115 116 117 120 121 120 117 114 101 100  95  83  72  65  55  52  45 110 128 250 245 245 245 245 245 245 245 245
  44  42  42  42  43  43  42  44  44  46  56  65  61  61  60  59  59  62  65  69  78  86  91  92  89  87  89  87  88  92  91  89  91  91  78  63  52  42  38  32  31  32  36  38  35  36  37  41  54  65  76  87  94  98  99  96  93  92  94  97  99 104 109 112 115 115 116 116 117 117 114 110 105  95  84  76  66  59  53  35  71 170 247 245 245 245 245 245 245 245 245 245
  43  42  42  43  42  42  42  43  43  45  49  57  56  56  55  53  56  59  61  59  64  82  89  90  89  88  88  89  90  96  88  82  85  74  69  49  46  40  33  29  28  30  34  36  30  30  33  34  43  52  74  88  95  98  99  97  95  93  95  97  99 103 108 111 113 114 115 113 113 113 107 105 102  89  80  69  59  55  51  18 201 246 246 245 245 245 245 245 245 245 245 245
  43  44  42  41  42  41  41  41  43  44  49  60  53  51  53  50  53  56  60  57  59  78  88  91  91  91  88  85  87  76  74  65  55  62  54  47  40  34  28  29  27  29  33  33  29  29  30  31  39  48  60  86  91  95  98  96  94  94  94  96  99 103 106 109 111 112 113 111 105 104  99  93  82  79  76  73  47  53  52  37 239 244 243 245 245 245 245 245 245 245 245 245
  42  42  42  42  41  41  42  42  42  42  46  60  56  54  53  50  50  56  57  56  62  78  83  91  91  88  86  80  75  65  63  60  59  54  45  42  38  33  30  29  30  29  31  33  30  31  31  32  37  41  36  74  84  90  92  92  93  91  89  93  99 100 106 109 111 110 111 109 106  96  93  79  61  69  71  69  53  56  40  93 244 243 245 245 245 245 245 245 245 245 245 245
  42  42  40  40  41  41  42  40  40  42  46  50  54  55  54  51  51  53  56  54  64  72  81  86  88  86  78  72  58  49  44  45  48  46  45  42  39  28  33  33  33  33  31  33  33  32  35  35  35  36  42  61  74  80  81  85  85  87  87  95  99 101 103 107 108 109 110 104  93  93  86  78  71  68  67  65  57  55  32 158 248 244 245 245 245 245 245 245 245 245 245 245
  42  42  41  40  41  41  41  40  40  42  46  51  52  55  55  52  50  50  51  53  55  68  79  86  86  81  70  52  41  39  35  37  45  51  45  50  62  58  54  64  53  33  27  35  39  46  43  43  36  40  45  51  51  64  63  72  82  84  85  92 100 101 102 106 107 106 100  99  91  89  85  78  73  67  63  61  54  45  24 211 249 244 245 245 245 245 245 245 245 245 245 245
  41  41  41  40  40  41  41  40  40  42  46  50  51  49  50  52  49  46  47  49  52  64  78  84  86  83  62  42  39  34  34  40  50  56  61  53  52  51  52  59  74  81  68  73  69  72  63  58  50  46  48  47  49  51  52  63  71  85  83  82 100 101 101 102 101 100  86  86  84  86  82  74  68  63  58  52  47  28  42 243 246 245 245 245 245 245 245 245 245 245 245 245
  42  41  40  40  40  40  40  40  40  42  44  47  48  47  50  52  48  45  45  47  48  63  74  81  82  83  59  44  41  35  33  40  50  50  42  42  45  45  47  49  55  66  68  67  69  63  61  62  64  66  57  48  46  40  41  50  53  76  81  81  97 101 101 101  99  93  85  72  76  73  73  72  59  51  51  50  46  31  93 248 245 245 245 245 245 245 245 245 245 245 245 245
  43  41  40  41  41  41  40  40  41  41  42  44  45  44  46  48  48  45  43  46  50  61  71  77  80  76  59  46  42  37  33  30  42  36  39  38  31  39  42  46  46  53  61  56  52  55  51  48  55  59  63  56  49  39  37  37  40  51  75  82  94 100 101  99  98  88  85  73  68  67  54  67  58  53  49  47  45  14 150 250 245 245 245 245 245 245 245 245 245 245 245 245
  42  42  40  40  40  40  41  40  40  40  39  41  43  43  43  44  47  45  41  42  49  56  71  75  75  73  57  49  45  40  33  30  28  39  37  39  25  21  30  37  43  47  50  54  52  48  45  45  44  44  53  56  54  46  41  40  40  45  63  81  90  99 101  99  92  81  78  68  66  63  50  50  55  52  47  45  42  16 236 246 245 245 245 245 245 245 245 245 245 245 245 245
  40  41  41  40  40  40  40  40  40  40  40  40  42  44  41  41  43  42  40  42  46  61  69  73  73  65  56  51  49  46  52  55  60  61  59  63  65  58  49  43  36  41  50  50  47  35  36  39  43  41  39  42  52  46  42  43  41  39  60  77  87  98  99  96  90  68  60  61  58  56  50  47  49  48  45  43  18  72 249 244 245 245 245 245 245 245 245 245 245 245 245 245
  41  42  41  40  40  40  40  42  40  40  40  41  42  43  41  40  40  40  39  40  45  57  69  71  69  63  57  54  55  61  63  73  75  78  75  71  70  70  75  70  67  64  52  42  33  49  44  40  40  45  32  31  39  33  33  39  43  44  66  79  92  97  99  96  84  59  52  46  51  51  48  47  46  45  44  38  16 210 248 244 245 245 245 245 245 245 245 245 245 245 245 245
  41  42  41  40  42  42  41  42  40  40  40  41  41  42  42  38  39  37  38  40  45  61  70  71  69  63  60  62  65  65  68  71  73  75  75  74  72  71  72  72  74  78  80  82  81  71  72  81  82  74  66  53  51  34  40  41  47  54  68  82  96  98  98  92  85  63  52  45  46  45  43  43  41  40  42  21  21 250 245 244 245 245 245 244 245 245 244 244 244 244 244 244
  41  41  42  41  42  42  41  40  41  41  41  42  43  45  43  39  37  37  39  41  47  59  69  71  69  63  61  63  64  67  68  70  70  70  71  70  70  71  72  72  77  77  80  80  80  80  80  81  82  81  83  80  82  67  48  47  51  58  70  83  91  95  97  85  77  64  48  44  42  40  34  35  30  36  39  15 158 249 249 249 250 250 250 250 250 248 246 242 235 235 239 239
  44  43  43  42  42  43  41  42  42  42  43  39  37  37  33  43  40  39  40  41  46  57  66  69  68  61  59  61  64  67  66  68  67  65  65  63  61  61  63  65  71  75  76  78  77  76  79  82  84  85  84  86  81  78  63  56  57  63  73  85  91  95  92  87  67  63  48  43  41  41  39  36  36  38  39  22 193 199 198 198 183 182 183 175 173 177 176 175 181 215 215 228
  42  43  44  43  42  43  43  47  39  32  16  17  87 134 121  37  40  37  38  40  45  51  62  66  66  61  59  61  63  65  66  67  66  63  59  55  52  51  49  48  55  53  55  61  62  66  70  77  80  79  81  82  81  80  76  68  63  65  73  81  90  93  90  85  64  57  50  45  41  40  40  39  38  41  39  83 184 188 185 181 181 184 184 179 179 185 187 187 182 214 221 231
  44  44  44  45  45  46  47  33  16  36 165 242 215 128 123  78  32  39  39  40  45  53  61  65  63  59  58  59  62  64  65  63  62  59  56  53  48  43  41  33  29  36  34  35  45  52  55  61  68  72  77  79  81  81  78  72  70  70  75  79  88  90  90  83  65  58  51  47  43  41  44  41  40  39  25 166 179 182 183 184 185 185 185 185 185 184 184 185 173 218 217 223
  46  46  46  47  48  46  30  64 219 248 194 152 120  53  61 135  31  42  40  40  46  54  60  62  61  58  57  59  61  62  61  61  60  59  55  53  48  42  37  34  33  30  30  30  33  41  50  56  63  69  74  77  80  80  79  75  72  72  76  79  84  87  88  82  70  60  52  49  45  42  41  40  40  12 118 169 179 181 181 182 182 181 182 182 182 181 182 183 175 216 208 195
  49  48  49  49  49  17 149 249 236 181  77  20  11  20  50 148  52  43  40  40  45  52  54  54  55  55  55  58  60  61  61  61  61  59  55  55  51  44  38  31  35  32  31  30  35  43  50  55  61  65  69  72  76  78  77  75  72  74  76  78  82  84  81  76  64  56  44  38  34  35  35  39  33  48 186 176 178 179 180 180 179 178 179 180 182 180 180 180 181 190 184 175
  49  48  49  42  19 223 245 179 138  44  27  33  31  23  60 136  87  32  40  40  41  45  48  49  51  51  51  54  57  61  62  62  62  61  58  51  61  57  56  55  47  41  33  39  42  49  53  58  62  64  67  70  72  74  75  74  73  73  75  77  80  80  79  67  63  47  39  33  28  28  30  31  25 128 177 176 176 178 175 174 174 174 176 177 178 175 169 171 166 154 150 158
  49  51  48  20 218 248 234 132  42  32  35  30  30  24  74 129 101  31  40  38  38  41  45  46  46  46  48  51  54  60  63  65  67  67  71  80  80  82  76  70  66  58  63  64  68  58  59  61  64  66  67  69  70  71  71  68  68  71  75  76  78  76  73  61  46  41  30  27  25  24  22  24  37 160 165 164 164 163 162 167 166 165 163 159 158 161 166 164 165 160 161 165
  52  53  36 216 249 230 180  55  33  32  31  28  27  18  95 128 109  46  37  35  34  38  40  40  41  41  42  46  52  59  64  70  74  77  81  86  86  85  77  72  69  71  75  78  82  79  63  66  67  69  67  68  69  68  66  65  64  66  71  72  74  73  67  51  44  36  27  22  21  23  19  49  76 169 168 168 167 168 166 164 166 166 166 166 165 165 166 168 169 166 165 166
  54  26 184 245 246 213  76  38  34  29  25  25  26  10 121 128 113  73  31  34  32  34  35  31  32  35  40  46  54  60  65  72  77  80  83  86  86  84  80  77  72  73  74  83  89  90  84  73  71  71  69  70  69  66  66  65  64  63  64  66  66  64  57  49  39  29  24  21  21  21  32  64 102 144 180 188 169 165 166 166 166 167 166 166 166 166 168 166 166 167 166 166
  42 105 250 242 243 154  40  35  30  25  23  24  24  11 146 131 112  81  40  35  32  32  31  32  34  37  42  48  53  60  65  72  77  78  80  82  83  80  77  79  76  72  73  82  92  98  94  85  82  79  76  73  72  70  67  64  63  60  61  61  62  59  52  45  38  29  23  22  19  37  57  76  93  16  68  95 145 173 171 168 169 167 167 166 167 166 167 166 166 166 166 168
  31 246 245 248 208  61  38  35  27  22  22  22  20  18 157 126 108  87  55  38  33  32  31  32  38  38  42  45  49  55  61  67  73  72  73  76  75  73  73  73  70  68  72  81  93  97  98  94  92  88  83  81  75  68  64  60  59  56  53  53  53  51  47  42  35  28  24  23  34  57  63  90  82  13  10   9  22  63 164 200 196 172 167 166 166 166 166 166 166 166 166 166
 219 248 246 248 144  39  38  30  26  25  24  23  15  45 146 129 108  95  66  46  34  31  30  31  33  36  39  42  46  49  54  56  63  64  63  63  58  61  62  63  63  62  70  80  87  92  96  96  93  91  90  82  75  68  62  60  55  52  47  43  41  39  37  36  29  25  26  29  42  63  72  92  69   8  12  15  11   7  18  39  87 156 197 174 169 168 166 166 166 167 167 167
 231 243 225 213  78  43  36  28  25  25  27  28   7 117 136 132 106  92  72  57  35  31  29  30  30  32  35  38  40  43  47  49  50  54  55  54  52  49  52  54  55  56  63  73  76  86  85  90  86  86  83  75  68  61  55  52  47  44  43  36  34  29  28  25  23  23  23  43  52  63  81 100  58   8  12  12  13  14  12   6  10  28 102 170 173 175 168 168 166 166 166 166
 245 244 248 163  68  41  31  27  25  27  27  23  14 152 140 125 106  88  67  63  37  28  25  25  28  29  32  34  35  37  41  43  45  48  47  47  44  41  41  45  47  46  53  59  65  70  72  72  76  74  73  68  62  56  48  40  29  32  28  28  26  24  22  22  22  23  36  51  60  70  89 104  63   7  11  11  11  13  13  12  14   9   9  12  82 147 177 175 168 166 165 165
 244 245 231 147  66  49  18  25  25  23  25   7 120 140 136 125 111  88  67  62  45  23  25  23  26  30  29  29  30  33  35  37  40  42  39  38  36  35  34  36  39  39  44  49  50  57  61  58  61  61  59  56  55  51  46  39  33  29  24  23  22  20  19  19  22  27  49  53  66  78  90 102  62   7  11  11  11  11  11  11  13  16  15  19  10  21 109 189 197 174 154 165
 244 249 170 133  72  41  22  23  23  24   8  87 154 138 136 123 110  88  76  62  53  46  25  23  24  26  28  26  26  28  32  29  33  34  30  30  30  29  29  30  30  31  37  38  41  43  48  49  49  51  50  50  49  43  39  36  29  26  23  22  20  19  18  21  23  40  56  65  73  83  91 101  74   8  14  10  10  11  11  11  12  14  15  16  18  19  10  20  80 160 202 179
 246 248 154 145  76  29  22  23  21  10  39 161 144 136 131 107 107  88  75  64  56  49  36  27  24  22  24  24  22  22  23  23  23  22  22  22  24  23  22  23  25  27  28  31  29  33  32  38  39  41  43  43  41  37  36  30  25  21  20  20  19  18  18  21  39  47  58  71  77  88  93  95  92   8  13  12  11  10  10  10  11  13  11  14  15  15  15  10  20  33 126 201
