P2
92 112
255
 245 245 245 245 245 245 245 245 245 245 245 245 245 245 249 130 136 114  40  92 107 150 161 175 187 209 213 215 219 223 222 223 224 223 217 207 186 182 175 170 167 161 157 155 151 152 154 154 150 150 148 148 145 143 149 145 142 122 112 114  87  65  53  38  39  37  32  31  34  39  44  41  53  59  69  52  91  29 148 249 245 245 245 245 245 245 245 245 245 245 245 245
 245 245 245 245 245 245 245 245 245 245 245 245 245 248 211  85 106 113  66 126 168 159 184 204 217 222 223 222 221 221 223 224 226 227 225 228 219 195 181 175 173 171 167 164 161 157 160 158 159 160 163 160 161 160 157 158 150 153 145 136 118  91  64  46  35  37  36  31  36  41  44  44  43  45  98  86  70  77  51 245 246 245 245 245 245 245 245 245 245 245 245 245
 245 245 245 245 245 245 245 245 245 245 245 245 245 245 137 115 122 135 100 155 177 200 223 222 219 219 219 219 219 219 219 221 225 224 224 224 230 222 202 189 178 181 176 172 171 164 164 164 164 164 164 165 164 164 163 162 160 158 155 152 149 126 101  59  43  36  41  48  49  46  48  46  46  36  58  87  81 129 124 175 249 245 245 245 245 245 245 245 245 245 245 245
 245 245 245 245 245 245 245 245 245 245 245 245 250 191 136 108  57 118 107 169 200 217 214 220 217 215 214 213 212 216 213 210 214 216 223 223 220 211 205 193 190 182 178 176 174 170 168 167 166 166 166 167 166 167 167 166 166 164 161 161 157 151 131 114  54  45  58  65  51  36  25  37  38  39  27  20  44  43 125 155 246 244 245 245 245 245 245 245 245 245 245 245
 245 245 245 245 245 245 245 245 245 244 246 240 179 133 117  72  52  99 139 206 217 215 216 217 213 210 206 207 205 203 206 203 205 203 207 207 208 207 201 196 188 183 178 175 173 170 169 167 166 165 166 166 166 166 166 168 169 168 168 169 168 166 162 152 119  68  58  62  88 112 102  82  63  49  43  41  29  40  88 160 237 245 245 245 245 245 245 245 245 245 245 245
 245 245 245 245 245 245 245 245 245 244 248 184 120 115 101  52  77  77 154 218 221 220 220 214 212 204 198 199 198 195 191 189 196 200 204 202 202 195 189 188 184 182 178 175 171 170 168 166 167 164 165 165 165 165 165 166 167 170 172 172 171 169 170 173 172 157 137 147 169 166 165 158 156 103  46  38  39  41  43  98 242 244 245 245 245 245 245 245 245 245 245 245
 245 245 245 245 245 245 245 245 244 248 198 104 108  93  60  52  93  83 166 220 218 220 221 218 202 194 197 189 179 177 179 181 183 183 181 171 173 171 174 179 179 177 174 169 168 168 167 166 166 166 165 165 166 164 163 163 165 167 169 171 173 172 171 170 172 179 178 176 178 176 175 173 165 149 100  35  44  41  27  25 241 244 245 245 245 245 245 245 245 245 245 245
 245 245 245 245 245 245 245 245 245 240  91  83  76  78  53  72  95 105 183 209 214 217 218 209 195 187 179 177 174 170 171 171 171 164 161 158 157 160 162 165 168 169 170 168 166 165 165 165 166 166 166 165 165 163 163 163 164 164 166 170 172 173 173 171 173 173 175 181 181 181 181 184 179 172 137  73  34  49  39  16 225 249 244 245 245 245 245 245 245 245 245 245
 245 245 245 245 245 245 245 245 248 173  70  77  71  52  54  89  73 150 196 205 215 215 212 200 192 185 180 174 164 161 163 160 163 159 158 158 156 154 154 160 161 165 165 164 163 163 164 164 164 164 166 166 164 162 163 163 163 162 165 168 169 170 170 171 171 171 172 176 179 182 186 187 187 179 160 129  49  75  44  13 123 250 244 244 245 245 245 245 245 245 245 245
 245 245 245 245 245 245 245 247 219  76  88  75  55  60  67  84  78 171 205 210 213 211 205 197 189 185 176 170 165 161 158 158 152 155 153 149 150 150 149 156 158 160 161 162 161 162 163 163 162 161 162 163 162 161 161 161 160 160 163 165 166 168 168 168 169 170 170 174 177 180 183 186 187 184 172 147  76  46  46  33  19 239 248 244 245 245 245 245 245 245 245 245
 245 245 245 245 245 245 245 250 151  88  83  60  60  61  63  74 150 191 216 211 209 208 202 195 189 180 175 168 166 162 160 157 156 154 151 149 147 148 150 148 153 157 159 161 161 162 162 162 162 162 161 161 160 160 161 161 161 159 158 161 162 165 166 168 167 168 170 172 173 175 180 184 186 185 181 160 101  31  46  43  12 137 250 244 245 245 245 245 245 245 245 245
 245 245 245 245 245 245 246 215  94  90  74  52  58  61  50 116 174 204 214 210 208 203 199 191 179 177 175 172 168 165 163 161 158 154 153 152 151 149 151 152 154 155 157 158 159 160 162 163 163 161 160 159 159 160 160 160 159 158 158 159 159 162 164 165 165 165 168 169 172 173 177 181 185 185 184 155 135  36  50  43  20  50 246 244 244 245 245 245 245 245 245 245
 245 245 245 245 245 244 248 150  77  68  63  58  59  54  67 137 191 215 211 206 206 198 189 184 179 178 177 175 171 168 166 163 161 157 156 154 153 154 154 155 156 159 159 160 160 161 161 162 163 162 161 160 159 159 159 159 155 155 156 157 158 160 161 162 163 164 165 168 169 171 175 179 183 184 185 157 152 100  44  44  37  19 212 248 245 245 245 245 245 245 245 245
 245 245 245 245 245 248 212  85  78  65  58  57  54  60 105 167 206 212 209 206 200 191 186 181 178 176 176 177 176 176 173 170 165 165 159 161 162 163 161 162 165 166 164 163 162 162 161 162 163 163 162 161 161 159 158 157 156 153 154 155 157 158 159 159 160 161 163 164 165 169 170 178 179 182 184 178 151 147  43  42  44  21  63 249 244 245 245 245 245 245 245 245
 245 245 245 245 245 248 134  80  67  61  57  58  54  69 124 197 208 208 207 201 193 186 181 174 174 174 174 175 177 177 177 176 174 176 178 182 177 171 176 175 178 178 171 167 165 164 163 163 164 163 163 162 161 160 159 159 157 156 155 155 158 158 158 159 159 160 159 159 162 165 170 174 175 178 182 185 165 155  87  39  44  32  20 219 248 245 245 245 245 245 245 245
 245 245 245 245 245 248  76  53  74  49  57  57  61  80 144 200 209 205 205 200 188 182 178 173 171 172 173 174 175 177 179 182 190 191 191 190 192 200 196 192 191 185 177 171 168 166 165 165 165 163 162 163 162 161 161 161 160 159 159 158 159 159 159 159 159 160 160 159 160 162 166 170 173 174 179 183 175 167 138  31  46  40  32 122 250 244 245 245 245 245 245 245
 245 245 245 245 246 224  68  50  65  57  56  56  63 100 160 199 202 202 200 196 188 181 175 173 171 171 173 175 179 180 184 187 186 195 201 202 206 202 202 202 197 186 180 173 169 167 166 165 165 164 162 162 163 163 163 165 164 163 162 162 162 161 161 161 161 163 162 162 163 162 165 167 170 171 176 179 181 166 166  83  33  48  30  67 248 245 245 245 245 245 245 245
 245 245 245 244 248 185  67  61  56  57  55  62  74 110 166 192 197 200 196 188 185 179 174 170 168 171 173 178 186 187 189 192 196 198 201 207 208 209 207 203 196 188 182 176 173 169 167 165 165 165 164 163 164 165 166 167 167 167 167 166 166 166 164 164 164 164 165 164 163 163 164 166 168 170 175 179 180 173 175 124  29  52  37  21 231 247 245 245 245 245 245 245
 245 245 245 244 247 124  53  53  58  56  57  62  82 115 166 189 193 195 194 189 183 176 169 166 168 171 177 183 188 194 196 200 201 202 205 205 206 207 203 202 196 187 181 178 176 172 169 167 166 166 166 166 166 166 167 169 171 170 170 169 171 169 168 166 166 165 165 164 163 163 164 165 167 170 173 176 178 178 176 160  44  47  46  22 182 249 245 245 245 245 245 245
 245 245 245 245 250  94  49  46  54  55  58  60  84 128 174 190 193 194 191 186 174 173 170 168 170 175 183 187 198 199 202 202 201 200 204 207 200 199 190 182 177 173 177 177 175 173 170 167 167 166 167 166 166 167 169 170 170 171 169 170 173 173 170 169 167 166 165 164 163 162 162 163 165 169 172 175 178 176 176 163  88  29  53  24  94 250 244 245 245 245 245 245
 245 245 245 246 240  95  40  52  52  53  56  58  97 137 172 191 192 193 189 179 176 172 171 173 180 181 186 198 197 200 201 200 200 194 189 183 178 172 167 166 166 171 172 172 172 173 167 165 163 165 166 167 168 168 168 168 168 168 168 169 170 172 171 171 172 169 167 164 162 160 158 161 163 168 171 173 176 176 170 165 135  18  47  39  33 249 245 245 245 245 245 245
 245 245 245 247 197  76  56  53  53  54  55  63 108 146 182 192 192 188 182 179 177 175 180 184 192 203 204 200 200 197 204 203 194 185 181 175 165 156 154 151 153 161 164 168 166 165 162 161 161 161 163 166 166 166 165 165 165 165 166 167 167 168 168 172 174 172 170 167 162 159 159 160 162 165 169 172 174 176 174 161 157  37  41  48  19 209 249 244 245 245 245 245
 245 245 245 250 159  43  58  53  53  55  54  59 116 156 193 190 188 185 183 181 180 186 195 200 210 210 208 206 203 194 181 176 172 169 168 156 149 143 141 137 141 149 154 160 163 162 155 154 156 157 160 161 163 163 161 164 160 161 162 164 165 166 166 171 172 172 170 168 165 162 160 159 161 164 168 172 174 176 175 159 164  80  28  45  21 116 248 244 245 245 245 245
 245 245 245 250 132  49  51  53  54  55  53  63 118 172 187 190 188 184 181 183 187 201 203 209 212 204 186 181 164 151 144 133 127 123 111 118 114 117 114 122 132 137 143 148 148 152 151 150 153 153 155 155 156 156 155 153 153 154 157 159 162 161 163 165 167 170 169 169 168 165 163 161 162 164 166 170 173 175 175 153 148 115  23  39  40  22 241 244 244 245 245 245
 245 245 245 250 112  36  47  50  54  56  49  63 129 186 193 191 189 182 181 185 191 201 201 185 168 152 146 126 115 106  88  64  61  59  67  61  74  81  92 101 113 125 131 139 142 144 144 143 144 147 148 149 151 151 146 144 143 151 156 152 151 154 152 158 160 161 165 167 167 167 165 163 163 163 165 168 171 174 172 153 135 123  34  30  36  19 175 250 244 245 245 245
 245 245 245 249  75  62  44  51  53  57  54  55 158 191 187 188 185 181 181 190 197 207 172 146 130 118 111  95  86  68  56  56  57  51  42  51  56  86  86  93 105 115 131 129 136 136 136 133 134 141 143 144 144 137 138 135 131 132 132 135 139 141 139 137 143 148 163 161 167 170 166 166 165 164 165 167 169 171 174 165 128 123  33  32  38  18  63 248 244 245 243 243
 245 245 245 228  52  61  46  50  51  55  48  75 181 185 183 182 181 180 180 194 200 188 132  95  84  84  63  49  45  46  52  50  44  47  48  53  58  65  82  86  94 108 120 122 126 131 130 131 131 133 137 129 130 141 124 123 119 114 124  99  83  57  63  80  90 106 130 142 152 159 169 167 167 164 164 167 169 170 171 176 108 112  50  31  36  25  17 240 246 243 243 242
 245 245 244 220  72  37  49  49  50  53  48 101 182 186 184 181 179 177 184 194 175 134 102  87  81  71  65  55  52  45  46  44  44  43  46  50  54  61  68  78  85 104 113 118 122 124 124 125 126 126 129 128 126 120 117 114 102 103  88  79  62  57  47  38  44  62  96 113 121 126 143 163 169 166 165 166 168 171 171 175 120  89  61  32  35  29  20 186 248 242 240 240
 245 244 244 234  52  43  51  49  49  52  43 126 182 187 185 182 179 180 176 167 125 105  96  84  70  66  63  57  53  50  48  46  46  47  47  50  58  59  72  79  84 101 108 116 118 122 123 122 121 122 122 121 119 115 108 101  92  91  85  65  54  51  51  52  55  55  63  67  84  88  87 132 168 169 166 166 168 171 170 169 146  75  58  36  35  29  33  47 250 240 239 238
 245 245 244 249  53  39  50  49  48  47  55 141 187 189 185 179 176 174 154 118 114  93  77  62  55  57  60  53  57  56  57  53  52  55  55  61  58  72  78  85  91  98 105 111 116 120 122 123 121 121 122 122 118 113 102  94  89  81  67  53  49  49  48  49  51  52  52  66  75  85  92  92 137 172 166 168 169 169 169 170 169  69  41  41  35  32  36  16 246 234 237 235
 245 245 245 250  55  32  49  47  48  43  48 156 198 192 195 191 192 199 154 136 129 120 106  76  53  40  41  51  60  75  79  66  59  61  65  67  68  74  78  84  92 101 105 111 116 120 120 123 124 124 124 123 118 113 102  94  88  81  63  54  47  52  52  51  51  50  53  58  67  83  88  79 111 142 169 168 169 168 168 168 176  86  41  42  37  35  40  14 231 226 218 222
 245 245 245 250  62  29  49  46  46  39  54 172 199 206 159  95  56  32  41  52  66 128 162 192 204 211 194 188 181 137 111 110  98  82  77  71  72  73  75  80  88  94 104 111 117 121 124 124 125 127 127 123 117 110 101  95  90  83  78  68  67  62  55  46  44  47  54  60  68  77  83  85  74 116 160 168 169 170 168 167 180  99  41  41  36  32  27  23 166 162 152 123
 245 245 245 250  74  34  48  46  45  27  87 194 170 169 173 172 173 158 137 142 137 143 131 139 148 160 170 179 190 164 114 116 117 110  93  88  81  63  60  58  68  93 101 110 118 125 127 131 130 131 129 126 117 109 102  96  92  89  84  81  78  79  82  89  82  76  65  56  61  76  82  87  79  91 137 163 167 168 169 166 176 106  33  38  36  33  23  14 149 138 177 196
 245 245 245 246  72  45  51  50  41  36 166 167 155 140 129 147 165 156 145  96  78  73  84  82 107  89  55  34  34  36  95  86  97 107 115 115  91 116 124 111 102  75  76  92 118 129 135 139 142 142 139 129 119 109  95  87  73  66  63  55  55  59  67  75  88  87  83  81  71  71  72  83  85  81 125 156 168 169 168 166 177  98  38  33  34  35  21  16 241 243 247 248
 245 245 245 249  86  45  49  42  43 132 156 161 161  77  13  14  15  87 116  85  88  84  88  92  80  78  87 101  89  73  67  68  70  76  73  65  81  98 111 124 123 143 156 168 156 146 139 143 145 144 141 127 102  87  82  85 109 124 133 133 142 138 135 132 129 132 136 121  97  86  69  58  69  80 103 150 171 170 171 170 175  91  34  30  34  36  12  30 250 242 242 244
 245 245 245 250 104  44  51  20  79 108 166 163 118  70  34  19  15  92 107  88  87  85  85  85  83  90  82  85  66  50  53  40  46  44  46  74  77  57  77  85 104 100 103 173 138 133 166 169 163 153 150 167 176 191 245 246 238 222 207 204 195 198 200 197 207 215 228 236 246 247 247 247 230 195 173 172 165 157 156 163 173  93  36  31  34  38  12 132 248 242 242 243
 245 245 245 250 133  35  30  81 118 146 137 137 135 153 156 140 128 118  96  88  85  84  82  78  81  70  62  67  81  43  52  51  54  58  62  72  74  78  73  83  91  91  96 131 154 135 109 101 125 125 127 119 140 103  74  51  56  61  65  83  93 101 108 115 118 121 110 109  87  91 120 127 139 172 188 204 220 232 230 205 183  89  39  36  36  27  15 223 248 243 243 243
 245 245 245 247 178  19  26 118 151 140 130 175 184 140 155 135 110 114  89  87  86  84  78  78  69  50  84 109 100  38  51  51  55  60  58  98  89  76  76  78  82  90  91 129  91  74  90  87  86  94 118 138 144  98  96  87  79  91  93  93  89  87  83  96 104 112 126 131 134 109 110 115 110 111 118 112 139 135 149 172 199 117  29  39  38  19  39 245 244 243 244 244
 245 245 245 247 208  25  39 138 154 234 209 180 160 123 129 146 117 113  88  86  83  79  74  70  51  46 102 110 102  52  55  52  52  52  41 108 103  77  76  74  82  87  97 122  48 120 155 165 161 135  79  80 132 101  90  85  85  87  88  87  84  83  83  80  81  82  77 109 127 140  97 117 122 126 128 125 167 161 177 178 148 145  14  39  38  16 137 248 244 243 243 243
 245 245 243 245 226  83  49  71  25  21  78 170 152 146 138 108 104 102  89  83  80  74  68  49  56  51  89 123 106  52  56  53  52  53  49 101  98  83  72  72  79  88 111 108  59 148 173 178 165 153 108  51 115 101  84  82  76  81  98  90  83  83  86  90  86 104 116  88  85 119 129 116 120 124 127 123 176  40  36  44 103 149  16  41  39  16 215 247 243 244 244 244
 245 245 246 239 233 187  86  42  52  23  88 175 163 159 142 110 105 100  84  82  76  71  54  39  53  63  64  83  95  57  41  37  41  53  71  87  61  62  70  70  65 111 137  23 124 170 194 184 173 158 133  30 139 110  84  80  78  79 105  82  82  82  80  89  91 112 143 119  84  89 121 120 123 122 125 112 174  57  50  60  98 164  20  42  40  28 243 245 243 245 244 245
 245 248 216 190 180 162 119  58  47  27  98 179 171 162 143 119 100 100  84  75  72  72  78  93  94  84  79  83  89  93  95  96  97  79  88  86  78  71  67  66  78  85  97  59 157 198 207 197 184 175 156  34 136 158  91  83  79  84  96  61  72  76  78  86  84 120 144 134  91  85 104 121 122 124 126 105 170 151 146  97  66 163  30  41  27  83 249 244 245 245 245 245
 248 232 144 121 133 131 125  89  43  26 101 179 169 167 152 131 109 107 101  86  82  89  94  97  87  95  98  97  94  93  94  92  92  89  85  86  82  70  66  66  61  88  65 111 182 213 227 213 195 183 183  64 108 132 109 106 106 104  98  84  67  54  72  85  77 121 135 135  94  87  79 113 121 124 126 109 171 114 127 140  94 141  38  39  17 147 247 244 245 245 245 245
 248 182  99  90  87 117 120 107  42  41  98 177 168 166 152 135 120 110 114 123 115 102  88  95 103 102 104 102  99  97  96  93  90  86  84  79  69  62  69  64  84 101  55 161 191 196 211 209 196 193 178 134  71 138 119 111 104  99  92  89  92  96  98  87  99 112 114 105 110 111 104  91 119 121 124  96 163 227 230 228 198 135  65  27  21 221 246 245 245 245 245 245
 245 136  83  99  94  85 122 125  42  44 106 173 167 166 154 146 133 126 113 102 118 161 186 168 140 124  92  64  75  86  99  96  87  76  52  41  51  74  75  73  94  85 103 169 208 211 204 201 193 189 182 163  65 149 114 106  82  85  87  87  88  92  94  96  97 104 111 112 117 129 116 112 118 119 124 126 102  81  81  61  67 148  94  15  37 250 245 245 245 245 245 245
 228 119  90  97  94  97 108 126  62  40 115 172 164 163 163 155 150 143 137 121  93  85  62  70  85 131 141 165 163 166 128 113  75  55  53  70  77  69  88  99 100  78 137 167 191 198 201 193 187 181 176 162 121 124 116  98  92  89  87  88  91  91  93  95  97 102 105 109 111 114 127 123 119 120 124 126 127 127 119 127  30  66  94  19 132 250 244 244 245 245 245 245
 214 105  96  93 100 121 108 121  86  34 114 173 163 164 160 161 161 160 158 153 144 120  87  91  83  71  66  42  37  30  70  74 105 109 115 113 113 114 113 103  85 110 148 173 178 194 196 193 184 178 172 166 156  99 119 105  90  86  90  92  92  94  93  92  94  96 101 101 107 109  92 120 120 121 124 128 128 138 144 163  35  29  74  47 241 248 244 245 245 245 245 245
 172 115  96  94 129 132 113 113  89  31 129 171 164 163 163 167 173 181 188 191 175 167 152 127 116 109 104  98  97  96  86  93  90  90  88  90 107 111 111  97 105 130 164 180 192 196 196 191 186 179 173 173 163 119 114 112 111 109 101 101 103 103  95  93  99  90  90  82  88  97 111 104 119 131 134 132 134 146 151 174  41  41  19 178 249 244 245 245 245 245 245 245
 165 117  88  89 143 134 127 115  93  24 134 166 163 165 162 168 185 198 198 198 197 201 194 178 151 132 121 111  96  98 105 105 106 110 115 120 116 116 110 103 119 153 181 204 211 213 209 199 191 183 178 173 165 150 113 116 112 111 108 107 109 109 122 131 129 122 124 137 144 148 141 142 138 132 131 133 141 153 157 178  36  41  79 170 239 249 244 245 245 245 245 245
 223 118  90  96 147 136 128 132  71  30 131 166 165 166 167 173 190 194 196 197 199 195 192 191 184 166 143 126 127 131 133 145 147 150 150 143 129 120 119 123 147 181 190 203 206 209 209 204 197 189 181 178 174 162 136 107 115 113 113 112 100 100 108  91  93 112 109 104 110 111 119 116 125 129 132 134 144 157 160 178  32  80 121 143 153 208 247 245 245 245 245 245
 232 120  87 108 146 118 105  90  77  42 133 165 166 168 171 174 185 191 194 195 195 193 194 185 180 185 192 192 182 188 184 186 185 175 168 146 138 127 130 130 161 191 193 199 203 204 206 208 199 188 187 182 178 166 153 132 119 115 116 119 121 119 117 119 122 120 123 129 132 130 133 137 135 136 137 141 145 159 163 176  30 117 136 132 112 127 240 245 245 245 245 245
 239 114  94 125 140 107  82  72  75  38 134 168 168 169 172 176 178 182 187 194 195 189 198 211 221 227 226 227 227 201 192 180 177 169 155 136 135 128 122 142 165 185 187 191 194 200 198 194 187 186 185 182 175 172 156 139 133 127 127 125 125 127 132 132 135 137 136 139 142 142 150 145 147 150 148 148 152 158 166 168  29 125 114  96  75  74 209 247 245 245 245 245
 250 132  88 141 127  87  71  64  84  37 144 169 170 172 173 174 176 179 183 194 201 213 221 225 225 226 224 217 202 197 186 176 166 158 148 135 118 117 132 150 167 175 182 186 188 194 191 187 185 183 181 179 174 167 158 136 132 130 127 129 133 135 141 142 143 146 148 150 148 150 150 151 152 154 152 150 154 159 170 156  25 128 113  95  86  56 180 249 245 245 245 245
 248 163  90 150 120  83  79  70 112  36 136 171 172 173 174 173 173 176 187 199 212 213 214 222 226 219 207 201 193 182 172 162 150 133 116 104 110 129 151 184 182 179 179 180 184 182 182 179 186 178 176 176 175 166 154 139 131 110 122 128 130 143 144 145 149 152 154 156 157 151 153 154 154 154 154 153 154 162 174 145  27 128 115  99  91  51 159 249 245 245 245 245
 248 204  97 156 125  82  69 100 117  57 139 172 174 174 173 170 169 170 187 201 208 206 207 205 199 187 188 180 173 165 151 141 126 111  96  72 112 157 171 183 185 175 171 169 169 163 164 169 172 171 172 171 171 166 164 159 142 111  88 112 123 136 140 147 151 153 156 159 164 167 157 152 157 156 155 154 155 163 172 136  34 131 122  96  91  58 172 249 245 245 245 245
 245 242  81 158 131  78  73 132  94  66 133 173 173 175 171 167 160 169 185 191 192 189 192 188 182 177 168 158 145 137 132 123 112  95  81  66 130 174 173 174 176 168 170 169 167 156 151 147 151 157 160 164 168 167 166 165 169 148  87  88  97 124 133 143 150 155 158 161 164 169 180 170 160 159 158 158 159 164 170 124  37 142 125  94  93  70 183 249 245 245 245 245
 243 248 123 172 137  85  76 126  87  55 128 172 173 174 167 163 163 168 176 179 177 181 175 169 164 157 146 137 136 122 112 106  96  79  64  54 136 150 160 163 160 162 158 156 151 147 142 139 140 147 151 157 163 165 164 164 164 167  89  68  90 111 120 136 148 148 157 159 162 167 175 182 174 165 160 162 165 165 173 111  31 156 113 100  89  81 209 245 245 245 245 245
 244 247 199 172 144 100  74 119  95  65 124 169 175 174 168 156 154 165 169 171 168 162 156 151 144 138 134 130 122 116 109  94  87  69  59  42 128 137 132 134 133 132 136 133 132 132 130 128 130 136 145 146 153 156 153 160 162 162 112  50  79  94 110 126 134 144 152 154 157 166 173 176 176 174 163 162 165 165 172 102  33 162 117 102  98  94 238 245 245 245 245 245
 245 244 248 157 144 142 112 133  97  68 125 164 174 172 159 149 152 151 148 157 152 140 139 137 131 127 122 120 112 108  94  90  74  60  59  37 115 105 109 111 108 105 102  94 107 113 113 117 121 124 129 137 141 135 139 147 147 148 112  52  65  86 101 110 125 138 147 149 154 164 169 173 175 174 167 164 164 165 175  88  26 159 114 103  99 125 250 245 245 245 245 245
 245 245 249 174 127 151 211 170  93  74 112 159 168 163 147 145 148 149 147 140 130 132 123 125 123 120 115 114 107 101  94  76  65  63  62  59  63  93  96  91  88  89  90  96 100 106 108 113 116 117 126 130 123 125 123 127 126 133  95  61  68  78  87 107 118 128 145 146 152 157 167 169 172 172 168 166 166 166 175  86  30 157 111 110  79 187 249 245 245 245 245 245
 245 245 250 189 120 181 215 165  85 104 106 155 163 165 131 139 141 143 141 135 131 125 121 118 117 115 113 110 104  97  85  66  66  67  68  69  70  72  67  57  43  35  55  86  96  98 104 101 104 103 113 117 117 114 103 100 108 111  87  70  67  67  84  98 115 121 134 142 143 155 158 162 169 171 169 165 166 165 171  84  35 156 111 106  94 231 245 245 245 245 245 245
 245 245 248 207 124 201 184 151  94 103 108 136 158 154 131 128 135 134 130 127 122 117 114 111 110 109 107 100  96  86  79  73  71  73  76  76  77  70  56  55  57  50  34  37  76  85  85  92  99 103 108 109  96  64  53  63  90  96  92  81  56  64  78  90 105 118 124 135 141 147 151 152 163 168 168 164 163 165 165  79  44 156 118  94 132 250 245 245 245 245 245 245
 245 245 245 218 189 232 198 180  76  94 116 128 141 151 129 121 128 128 124 120 115 113 109 108 105 103 101  97  92  86  79  76  76  79  80  79  78  70  57  55  54  57  64  57  58  74  83  84  90  98 101  97  77  75  74  85  92 101  97  91  60  70  72  86  97 108 121 131 140 142 150 151 163 167 167 162 162 162 164  57  67 151 120 118 221 247 245 245 245 245 245 245
 245 245 244 237 238 226 188 160  91 108 119 126 132 133 119 116 122 117 115 115 111 110 107 102 101  99  99  94  90  83  80  79  79  80  81  81  78  69  57  53  51  52  54  56  57  64  75  80  81  82  78  73  73  76  80  90  94 105 106  96  78  73  72  80  90 101 113 124 128 138 141 149 159 167 166 161 158 158 154  65  68 152 116 170 249 244 245 245 245 245 245 245
 245 245 245 243 233 205 168 160 106 106 109 119 125 128 111 109 110 109 108 104 107 105 102 100  99  98  95  93  90  83  79  79  78  81  82  81  77  62  54  51  46  45  47  53  51  56  62  64  69  59  51  44  52  67  78  86  98 105 106 101  90  71  73  77  86  95 106 120 127 131 139 142 151 164 162 160 156 153 143  59  81 147 141 245 245 244 245 245 245 245 245 245
 245 245 245 242 220 181 167 184 102 111 104 116 119 124 108  98 100 100  99 101  99 100  99  98  96  94  94  91  88  80  78  77  76  82  80  77  65  56  54  47  41  40  37  38  37  45  51  49  38  44  40  41  44  56  64  80 100 101 102  94  91  77  73  76  84  94 105 118 121 130 136 143 146 154 157 156 151 152 133  47 104 145 204 247 245 245 245 245 245 245 245 245
 245 245 245 241 195 169 171 160 102 108  99 110 108 111 108  89  86  92  88  87  90  97  97  97  94  93  91  88  84  77  76  72  67  63  71  66  53  52  49  44  41  38  34  29  32  39  52  48  39  37  41  42  44  50  59  59  84  92  98  91  85  79  74  68  81  95 106 113 121 125 130 136 143 146 151 149 147 144 124  33 135 142 246 244 244 245 245 245 245 245 245 245
 245 245 245 245 158 158 154 142  93 100 100 107  95  92  92  72  80  71  77  79  86  91  96  95  93  91  90  86  82  74  68  63  58  54  53  55  51  51  49  43  39  36  35  35  36  40  44  46  41  40  42  44  47  50  52  55  70  82  83  78  77  76  73  68  80  95 104 106 119 123 127 133 138 134 144 146 145 133 116  39 154 165 250 245 245 245 245 245 245 245 245 245
 245 245 245 249 173 133 135 121 102  98  97  95  96  97  87  60  75  74  71  78  82  89  95  94  90  89  86  82  73  67  55  52  47  46  52  53  51  52  50  34  39  40  40  40  40  42  46  46  45  45  47  48  50  55  55  56  72  67  70  66  72  73  72  67  77  92 102 109 116 121 126 129 132 135 129 133 142 127 107  39 164 182 250 245 245 245 245 245 245 245 245 245
 245 245 245 247 191 121 127 114  94  99  99  95  92  90  84  70  72  74  71  67  74  89  93  93  91  89  85  79  70  57  46  41  39  44  52  55  53  53  53  41  44  48  40  40  41  41  46  49  47  48  49  62  59  61  53  56  70  61  63  58  58  65  68  69  71  86 103 110 114 119 121 124 125 122 120 130 116 119  90  44 165 193 250 245 245 245 245 245 245 245 245 245
 245 245 245 248 172  95 122 111 102  99  98  98  87  83  81  78  74  73  65  61  62  88  90  93  91  89  84  74  63  43  36  31  34  42  61  63  61  64  74  72  71  71  83  82  89  90  80  80  86  84  91  94  92  88  95  88  92  68  64  46  43  46  56  61  51  80 100 109 115 118 118 115 115 115 120 106 101 103  91  45 157 197 250 245 245 245 245 245 245 245 245 245
 245 245 245 250 164  89  94  93 101  96  97 104  81  71  75  77  71  70  63  59  66  83  87  90  90  86  82  70  57  29  31  34  41  49  72  78  79  69  65  65  62  72  70  76  76  85  91  86  83  88  95  92  91 100 107 115 113  97  80  54  46  42  40  51  54  77 100 110 115 117 115 111 108 111 114 111 105 104  97  53 149 195 250 245 245 245 245 245 245 245 245 245
 245 245 245 249 186 247 150  72  95  97  96 100  94  68  67  60  69  70  65  61  59  77  86  89  89  87  80  68  48  32  31  32  42  56  62  52  42  55  61  57  57  49  49  46  47  55  55  44  42  47  47  33  39  33  36  53  76  89  91  64  36  43  39  34  52  76  99 111 115 116 113 105  94 105 112 111 109 109  95  42 150 191 250 245 245 245 245 245 245 245 245 245
 245 245 245 233 183 239 193  37  92  88  90  94  90  69  64  63  67  68  64  60  59  70  79  91  90  89  86  72  51  40  33  27  32  31  37  44  42  70  70  72  70  64  72 100 100  75  78 100 114  89  80  97  70  70  59  38  37  53  60  56  40  40  40  37  54  73  99 116 115 114 110 106  86 101 110 110 107 104  84  93 120 224 245 245 245 245 245 245 245 245 245 245
 245 244 244 215 190 246 172  20  70  86  74  81  82  78  62  61  62  63  62  57  55  63  77  85  89  90  91  73  59  45  41  27  19  23  28  52  54  83  75  85  93  87  95 114 138 127 130 142 146 132 130 134 109 111  89  57  38  12  10  16  22  35  42  44  54  77 105 117 115 109  95  87  89  82  88  98  99  98  78  92 153 250 244 245 245 245 245 245 245 245 245 245
 243 243 240 191 205 242 151  15  63  92  67  70  76  77  67  63  62  60  56  54  53  50  74  81  86  92  90  81  70  57  47  41  26  25  29  46  45  79  76  93  98  93 106 120 139 144 130 141 141 140 138 139 116 122  95  90  41  13  24  19  20  37  47  52  68  86 110 117 115 109  90  78  83  89  79  81  87  85  58 105 245 246 244 245 245 245 245 245 245 245 245 245
 245 243 247 194 202 221 146  15  51  96  79  74  75  74  74  68  61  57  53  52  53  56  71  77  87  92  93  88  74  69  56  56  52  24  26  39  37  79  54  95  93  86 107 114 138 142 135 139 144 136 135 134 109 118 102  94  45  30  13  22  49  48  55  68  81  96 115 118 115 108  91  60  77  82  80  77  77  64  33 150 249 245 245 245 245 245 245 245 245 245 245 245
 245 245 250 174 209 232 106  20  32  94  85  75  75  72  71  69  60  56  52  51  51  54  64  82  88  92  94  92  78  70  70  79  70  60  36  23  34  61  56 100  92  88  99 115 127 125 126 131 135 118 106  96  95 112  77  66  43  25  38  71  65  60  65  78  86 103 115 118 110  98  74  69  66  77  75  71  80  76  27 210 247 245 245 245 245 245 245 245 245 245 245 245
 245 244 248 145 203 208  67  20  36 101  80  66  70  72  71  67  60  56  52  50  48  52  63  79  86  92  94  88  80  76  78  79  84  81  78  68  65  70  82 114 107 104 105  80 128 124 106  82 115 120 115 102 132 119  39  51  37  56  78  96  84  66  69  82 104 109 115 114 117  92  75  62  66  73  73  73  74  73  35 247 245 244 245 245 245 245 245 245 245 245 245 245
 245 245 246 120 197 184  42  32  41  91  81  62  66  68  72  65  59  54  51  47  45  53  66  76  84  91  90  86  82  82  82  85  90  92  87  85  86  83  81 106 108 116 116  91 137 138 112 107 116 126 122 106 134 119  66  63  68  79 110 111  87  79  73  87  99 114 116 113 103  84  72  61  61  63  68  70  70  50  80 247 245 245 245 245 245 245 245 245 245 245 245 245
 245 245 241 122 192 191  19  41  42  70  73  67  60  59  63  62  60  54  47  46  47  50  65  75  83  87  87  85  83  84  87  88  90 100 100  99  97 100 104  92  94 110 111  86 128 119 108 103  99 127 126 110 101 100  90  91  97 119 115 111  95  84  79  93 103 114 116 114  97  75  69  59  59  60  62  68  67  39 132 249 245 245 245 245 245 245 245 245 245 245 245 245
 245 247 230 161 209 169  17  46  45  65  80  65  57  56  46  59  59  56  49  44  46  46  69  74  81  86  85  84  81  85  88  89  93  99 104 108 110 107 107 107 103 100 104 107  99 109 104 106  98 106 104  89  97 102 110 115 121 126 121 113 112  84  85  99 104 114 114 117  93  78  58  57  56  58  58  63  57  19 206 249 245 245 245 245 245 245 245 245 245 245 245 245
 245 246 203 187 214 143  18  50  47  71  81  68  57  54  52  52  53  54  48  44  45  49  62  72  81  85  84  81  82  85  88  90  92 100 105 109 110 110 110 110 111 108 109 112 113 114 115 115 113 113 112 115 118 121 127 128 130 127 125 116 112  92  93 106 108 112 112 107  95  74  72  61  58  57  57  54  44  22 246 244 245 245 245 245 245 245 245 245 245 245 245 245
 245 246 158 211 217 119  17  51  49  70  87  71  54  53  50  49  48  48  45  44  45  47  54  66  81  83  82  79  80  85  88  90  91  96 102 109 108 108 108 109 109 108 108 110 113 114 114 118 121 118 119 118 127 131 136 137 131 127 122 117 110 100 100 105 110 112 112 102  90  79  75  72  60  57  56  52  15  82 250 244 245 245 245 245 245 245 245 245 245 245 245 245
 245 246 161 217 235  85  24  50  46  70  95 104  58  48  49  47  44  42  41  40  41  45  49  62  76  80  79  75  76  82  87  89  90  94  98 103 104 102 101 102  99  99 100 104 104 106 108 109 115 117 117 118 124 129 133 137 133 128 122 117 108 105 106 110 111 110 108  98  86  77  72  66  61  59  56  47  18 187 249 244 245 245 245 245 245 245 245 245 245 245 245 245
 245 248 177 228 247  56  34  50  55  66  97 136 100  54  46  46  41  40  39  39  40  44  51  59  72  77  77  73  73  86  88  88  89  94  98 101 100  98  97  93  90  92  93  94  90  93  97  98  95 104 108 114 122 128 131 133 131 125 120 115 109 105 105 109 111 108 100  91  82  64  55  64  61  62  61  39  81 223 246 245 245 245 245 245 245 245 245 245 245 245 245 245
 244 247  84  27  30  36  45  50  54  71  98 156 120  68  43  45  41  39  37  37  39  43  51  65  67  71  72  71  70  85  85  88  87  90  94  96  98  95  91  82  77  79  77  67  80  82  78  82  88  89 101 108 119 124 128 129 127 123 118 112 109 105 102 106 107 104  96  82  68  55  51  50  55  58  57  29 158 231 247 245 245 245 245 245 245 245 245 245 245 245 245 245
 244 247  32  47  57  59  50  49  49  84  84 159 123  94  46  42  40  37  37  37  38  40  49  60  63  63  66  68  69  79  85  89  89  89  91  95  96  92  87  79  76  71  69  70  65  72  72  74  74  75  88  94 111 117 122 125 125 119 114 111 108 107 104 104 104 104  84  62  61  53  46  47  48  50  46  45 188 237 245 245 245 245 245 245 245 245 245 245 245 245 245 245
 245 241  27  65  67  59  52  43  61  81  92 153 136 100  61  40  41  39  39  37  38  41  46  51  57  58  61  65  70  74  83  91  92  90  92  95  94  93  87  86  78  75  72  69  68  66  69  68  71  73  75  92 111 115 119 120 118 116 111 110 109 103 100  98  94  95  77  61  53  44  42  43  46  52  31 103 196 248 244 245 245 245 245 245 245 245 245 245 245 245 245 245
 246 225  23  63  64  59  46  45  70  86  86 159 140 109  93  51  43  39  39  39  38  40  41  44  51  53  55  61  60  61  81  93  99  99  96  96 102  97  94  93  90  72  66  70  71  67  60  60  70  86  89  99 113 115 117 117 115 113 112 112 113 102  93  94  92  86  72  61  51  43  39  40  46  41  53 171 205 250 244 245 245 245 245 245 245 245 245 245 245 245 245 245
 248 205  20  66  62  53  51  48  79  89  84 159 140 115  97  74  42  42  39  39  37  37  38  42  45  48  51  49  53  55  78  93 105 110 106 104 107 107  99 107 107 102  97 101  93  89  88  89  91  98 106 110 115 117 116 115 113 113 114 114 114 101  93  82  83  82  69  61  50  42  37  38  35  27 162 209 201 250 244 245 245 245 245 245 245 245 245 245 245 245 245 245
 248 144  25  63  54  41  34  31  54  77  86 156 142 120 102  95  41  43  38  35  33  32  34  37  39  38  36  43  49  56  76  92 104 109 110 110 110 112 112 115 123 119 121 118 108 110 113 120 123 122 121 118 115 117 116 114 113 116 123 116 104  95  82  70  63  63  64  63  48  39  36  34  19 103 199 198 201 249 245 245 245 245 245 245 245 245 245 245 245 245 245 245
 250 104  58  30  18  21  67 125 140 144 142 155 143 118 105  86  71  52  40  35  31  30  31  34  36  34  35  41  46  68  79  90 103 114 115 114 115 113 121 120 120 121 116 112 110 112 115 120 124 130 130 129 131 120 119 122 127 129 128 115  85  92  77  61  59  56  55  53  47  41  39  35  19 182 205 200 198 249 245 245 245 245 245 245 245 245 245 245 245 245 245 245
 248  78  58  90 189 225 249 249 179 158 172 162 138 121 105  85  77  62  41  34  30  30  32  33  33  33  35  42  50  65  76  92 105 116 117 118 118 122 121 121 119 116 111 108 107 111 115 117 123 129 131 132 130 127 131 133 133 130 123 103  84  75  62  56  52  47  48  49  45  41  39  31  91 202 200 202 200 249 245 245 245 245 245 245 245 245 245 245 245 245 245 245
 226  64 214 247 250 241 187 140  83  38  60 150 139 117 106  81  84  69  49  31  31  30  29  30  28  30  35  42  49  60  71  88  98 114 117 116 118 120 124 116 118 115 109 107 108 110 115 113 113 132 129 131 131 132 134 135 134 131 109  96  76  54  52  45  41  39  34  37  40  40  34  85 147 204 202 204 203 249 245 245 245 245 245 245 245 245 245 245 245 245 245 245
 236 244 248 249 199 106  36  17  16  15  10 143 141 119 104  89  81  71  63  39  32  30  28  27  27  29  36  40  45  53  65  76  87 107 116 111 113 115 114 110 109  85  91 104 109  89  93  93 102 121 129 130 131 134 134 132 132 125  96  89  75  53  41  41  41  41  36  36  37  33  74 102 182 203 204 198 209 248 245 245 245 245 245 245 245 245 245 245 245 245 245 245
 245 245 246 228  93  28  33  23  26  22   9 136 133 120 102  87  72  68  64  50  33  30  27  27  28  28  29  33  36  47  49  62  75  73  95 102  91  92  92 106 100  91  90  90  96  86  83  92  94 110 110 119 120 120 124 123 113 108  90  76  74  45  38  40  39  36  35  37  39  65  97 116 194 202 203 199 215 245 245 245 245 245 245 245 245 245 245 245 245 245 245 245
 245 245 250 153  41  23  19  25  22  20  12 142 132 117  99  81  77  70  64  59  36  32  28  25  26  26  28  33  37  38  41  50  60  64  79  80  81  76  77  74  78  79  85  87  84  80  79  80  89  92 107 104  83 102 109 111  99  88  75  61  51  42  40  38  37  33  32  39  52  86 107 133 205 201 205 199 220 245 245 245 245 245 245 245 245 245 245 245 245 245 245 245
 245 245 245  84  37  18  26  22  20  19  14 148 127 118  99  91  79  72  63  59  45  38  28  25  22  23  26  32  34  31  31  38  46  54  57  63  66  67  62  58  57  54  63  70  74  75  69  72  80  82  84  89  95  82  88  81  78  77  68  57  48  41  37  35  33  30  29  37  78  99 108 149 210 203 205 198 232 243 245 245 245 245 245 245 245 245 245 245 245 245 245 245
 245 247 215  50  25  26  24  23  21  16  36 146 127 120  94  93  79  71  62  55  48  41  34  26  21  22  25  28  28  26  26  30  37  43  47  52  57  59  55  45  44  52  55  51  60  61  59  68  73  77  73  81  80  89  70  65  64  53  52  48  43  36  34  33  31  23  38  45  91 114  96 170 205 203 206 205 236 245 245 245 245 245 245 245 245 245 245 245 245 245 245 245
 245 249 181  45  27  22  23  23  20  17  48 143 126 117 101  86  80  72  64  57  48  43  36  29  23  21  22  24  25  24  22  22  24  28  33  41  47  52  50  47  44  45  49  46  44  43  51  53  68  68  58  58  57  58  59  56  48  43  41  35  36  35  33  32  28  40  65  70  92 111 117 178 203 203 207 197 238 245 245 245 245 245 245 245 245 245 245 245 245 245 245 245
 245 248 167  61  23  21  23  21  21   7  62 142 127 121 108  92  79  71  63  58  50  44  39  32  27  23  22  21  21  21  21  19  19  22  24  30  40  41  44  40  42  38  37  37  42  40  42  45  46  45  43  49  46  43  42  35  31  30  27  29  29  33  39  29  41  53  68  92  94 111 117 188 199 204 206 190 244 245 245 245 245 245 245 245 245 245 245 245 245 245 245 245
 244 247 151 113  32  20  22  21  22   9 102 130 129 125 112  94  80  70  64  60  51  47  43  37  29  26  24  21  21  19  20  19  18  18  19  21  26  25  22  30  32  29  27  26  22  30  34  36  36  34  32  35  32  31  24  27  23  22  28  31  32  34  29  49  50  78  81  94 105 117 120 193 204 205 206 193 248 245 245 245 245 245 245 245 245 245 245 245 245 245 245 245
 245 243 233 125  72  16  26  22  14  14 137 133 130 126 116  90  81  72  65  62  54  48  43  38  32  27  23  21  21  18  16  17  16  16  16  17  17  18  17  13  13  16  16  19  15  16  13  16  25  20  21  23  20  17  21  20  22  26  30  34  36  36  46  59  69  76  87 100 111 120 126 194 200 205 207 195 249 245 245 245 245 245 245 245 245 245 245 245 245 245 245 245
 225 249 197 100 157  43  23  18   8  83 139 136 134 127 112  90  81  72  65  60  55  49  44  39  34  29  25  22  20  17  16  16  16  15  14  14  16  16  15  16  15  13  15  15  16  16  16  16  18  18  18  18  19  19  18  21  22  25  30  35  39  43  58  66  71  77  91 109 113 119 134 195 204 204 208 195 249 245 245 245 245 245 245 245 245 245 245 245 245 245 245 245
 195 194  32  19  68 105  52  10  33 147 135 138 138 128 110  96  83  74  67  60  55  50  45  41  37  33  28  25  20  18  16  16  16  15  14  14  14  15  14  14  15  14  15  16  16  16  16  16  16  15  15  17  18  20  20  21  22  24  31  41  52  54  66  76  83  88  98 109 118 128 150 145 196 220 219 208 249 244 244 245 245 245 245 245 245 245 245 245 245 245 245 245
 222 122  13  21  42 152 164 129 134 141 143 138 140 126 112  97  87  76  67  62  56  51  47  43  39  35  30  28  24  20  16  15  15  16  16  16  16  15  14  14  15  16  17  19  20  18  16  16  17  18  18  20  20  20  21  23  26  29  40  48  54  62  73  81  86  93 104 111 117 133 180  16  18  83 123 198 249 246 245 245 245 245 245 245 245 245 245 245 245 245 245 245
 191  63  10  25  83 132 134 125 169 192 173 146 139 128 113 105  82  80  69  64  58  53  49  44  40  37  35  30  26  23  20  17  16  15  15  16  16  15  16  15  16  17  19  21  21  20  20  20  21  22  24  22  22  23  20  22  34  44  53  60  61  68  76  75  96  92 109 116 120 134 182  15  19  12  10  39 104 238 250 249 246 244 244 245 245 245 245 245 245 245 245 245
 151  11  10  10 100 180 194 117 106  44 162 153 141 134 119 105  91  83  77  68  61  57  52  47  43  38  36  31  28  25  23  20  17  16  15  15  16  16  15  16  17  18  20  23  23  21  21  20  21  22  26  27  28  31  39  47  44  52  56  62  68  75  79  90  96 106 116 120 127 137 179  14  12  18  21  16  12  22 111 211 250 250 243 244 245 245 245 245 245 245 245 245
  46   9  21   7  92 219 192 166 182 218 202  92 101 138 116 109  95  85  78  72  67  59  54  51  46  40  34  32  29  27  25  23  21  20  18  17  17  17  17  17  18  18  20  23  25  23  22  22  21  23  26  33  38  43  44  46  49  49  59  66  75  79  85  94  99 110 115 121 129 136 179  12   9  15  17  17  16  11  11  16  41 181 245 249 246 245 244 245 245 245 245 245
  17  18  27  12  53 192 154 142 178 206 189  76  96 136 121 109 102  89  80  75  71  66  61  54  50  43  37  34  31  28  26  26  25  23  22  21  22  22  22  22  21  20  22  24  26  28  28  27  27  29  34  39  42  46  51  52  55  61  65  75  80  83  88  99 105 111 117 125 128 134 180  12   9  15  15  15  19  20  20  13   9  20  72 183 248 249 248 245 245 245 245 245
  10  24  28  31  27  76 109 131 196 205 181  76 115 128 124 109 100  92  82  76  73  68  64  60  51  47  45  40  35  32  29  27  27  27  26  26  26  26  26  26  26  26  27  29  31  34  36  37  38  39  41  44  47  50  53  57  60  65  73  79  83  88  96 106 111 115 118 121 129 138 171  17   6  14  13  14  15  18  20  22  23  17  16  13  51 165 232 250 245 246 246 248
