P2
92 112
255
 245 245 245 245 245 245 245 245 245 245 245 245 248 235 147  99  88  56  56  49  49  51  52  53  56  53  52  53  53  52  49  45  44  40  38  35  32  31  30  30  31  33  35  35  33  29  28  25  24  25  24  24  22  21  24  20  36  38  40  35  36  29  23  17  31  49  56  64  62  55  64  49  52  45  38  60 173 250 245 245 245 245 245 245 245 245 245 245 245 245 245 245
 245 245 245 245 245 245 245 245 245 245 245 245 249 125  95 127  88  46  49  49  50  51  51  53  58  59  53  57  54  54  48  44  41  39  36  34  32  30  30  32  33  34  33  31  29  27  25  24  24  25  23  23  22  22  21  21  17  32  44  41  40  38  36  35  37  36  32  48  53  45  70  56  56  45  69  67  30 208 249 244 244 245 245 245 245 245 245 245 245 245 245 245
 245 245 245 245 245 245 245 245 245 245 245 245 236 100 135 115  76  53  52  50  51  51  50  56  59  65  69  72  62  59  50  44  43  40  40  36  34  33  32  33  34  32  31  31  29  29  27  27  27  26  24  24  23  22  19  19  20  15  26  42  40  37  35  32  32  38  40  43  47  43  76  88  47  50  75 100  62  33 225 245 245 245 245 245 245 245 245 245 245 245 245 245
 245 245 245 245 245 245 245 245 245 244 244 249 134 112 150  89  52  51  40  50  52  53  48  51  76  85  91  80  73  61  54  52  45  46  41  39  36  35  33  32  32  32  31  31  32  32  32  30  28  29  29  28  26  22  20  19  20  21  19  28  36  36  34  30  28  29  28  38  47  55  62  71  42  55  48  16 138 146 121 249 245 245 245 245 245 245 245 245 245 245 245 245
 245 245 245 245 245 245 245 245 245 244 249 198 121 138 138  66  61  75  75  65  61  55  77 108  94  94  99  84  55  56  52  53  56  53  46  41  37  39  37  36  36  31  36  39  40  40  36  36  37  35  33  32  30  27  20  23  24  21  22  20  33  34  33  31  29  29  29  29  44  48  51  59  68  64  66  31  40 175 136 204 247 245 245 245 245 245 245 245 245 245 245 245
 245 245 245 245 245 245 245 245 245 247 200 104 102 133 106  65  66  82  84  77  60  79 116 114 102 104 102 101 103  95  93  78  70  57  44  45  48  44  44  44  42  41  43  49  52  48  43  43  42  44  45  41  41  37  38  33  27  29  25  25  26  33  34  31  29  28  29  35  39  42  44  47  57  63  85  86  47 103 139 176 250 245 245 245 245 245 245 245 245 245 245 245
 245 245 245 245 245 245 245 245 247 223 109  96 101  97 101  59  86 106  77  71 104 124 120 104 111 125 136 135 124 122 112  96  90  79  79  81  78  59  49  64  52  56  53  56  51  50  64  58  58  62  52  50  63  59  58  61  53  53  48  41  13  34  35  31  29  28  28  32  37  40  41  45  51  57  58  66  89  79  70 137 250 244 245 245 245 245 245 245 245 245 245 245
 245 245 245 245 245 245 245 246 250 123 126  92 107 107  76  74  97 107 124 137 145 137 135 149 152 160 161 156 146 142 138 132 122 120 112 105 101  96  87  79  83  91  95  95  95  91  93  98 100  90  93  89  87  95  97  88  92  81  63  49  48  30  34  34  34  31  31  33  39  45  45  45  43  40  39  43  45  40  34  94 247 247 244 245 245 245 245 245 245 245 245 245
 245 245 245 245 245 245 244 248 164 117  91  99 103 106  72  95 126 154 160 158 158 159 170 176 184 180 176 165 160 164 160 154 142 140 129 129 121 120 120 123 121 117 121 125 119 122 125 120 120 129 123 121 120 130 122 115 109 106  86  72  60  43  33  34  35  36  37  45  47  49  43  35  37  39  41  34  35  46  33  31 227 245 245 245 245 245 245 245 245 245 245 245
 245 245 245 245 245 245 249 212 126 117  57  93  85  94  94 110 148 171 170 171 183 202 198 190 182 185 181 179 172 172 167 161 151 146 143 142 140 132 131 132 133 133 132 134 135 140 142 135 138 135 134 139 144 140 136 133 135 123 114  97  73  53  37  38  40  47  58  45  34  43  57  86  83  45  44  34  38  41  49  18 132 240 245 245 245 245 245 245 245 245 245 245
 245 245 245 245 245 246 241 117 108  78  77  90  73  71  76 127 159 174 183 206 202 199 199 196 196 188 184 178 174 172 167 164 158 154 151 149 146 142 142 143 142 143 140 141 146 144 146 148 148 146 148 148 148 146 145 149 142 141 141 124 108  84  49  45  53  65  71  80 118 130 145 140 120  97  52  44  40  39  42  29  60 202 248 244 245 245 245 245 245 245 245 245
 245 245 245 244 244 248 153  79  82  84  76  83  62  58  80 137 175 188 201 202 201 200 199 197 194 188 182 178 176 174 167 164 159 155 151 149 149 148 148 148 146 148 148 148 148 148 150 151 150 151 153 154 154 154 153 151 149 148 150 143 133 120  92  46  37  48  78 139 159 164 163 164 158 125  93  34  50  38  40  42  57  61 241 245 245 245 245 245 245 245 245 245
 245 245 245 244 248 201  83  88  71  75  83  59  57  67  62 143 197 197 199 200 200 196 198 192 189 187 181 176 173 170 166 161 159 157 153 150 151 151 150 150 150 150 150 151 151 151 152 152 154 153 154 155 157 156 155 154 154 154 153 155 150 147 137 122 111 121 147 164 170 172 165 163 165 142 124  79  52  45  40  37  53  40 171 249 245 245 245 245 245 245 245 245
 245 245 245 245 243  98  72  68  69  69  69  60  54  72  62 149 207 200 200 199 197 193 189 187 183 177 176 174 167 163 162 160 158 156 153 150 150 151 152 151 150 149 150 152 152 152 152 153 155 154 154 153 154 155 156 156 156 156 156 155 156 158 164 168 165 160 166 169 172 173 171 168 167 152 150 114  53  42  41  37  40  42  36 250 245 245 245 245 245 245 245 245
 245 245 245 250 173  87  67  68  60  61  59  58  64  69  69 162 200 197 199 200 195 187 180 172 168 169 168 156 158 156 157 157 154 154 149 148 147 148 148 148 148 148 148 149 149 149 150 151 152 153 153 151 150 152 152 154 156 157 157 157 158 159 160 162 164 167 167 172 173 173 171 168 166 167 157 118  62  40  42  38  28  51  19 228 247 245 245 245 245 245 245 245
 245 245 245 248 116  76  64  68  57  55  54  54  71  60 102 170 187 193 198 199 193 178 169 162 161 157 154 156 152 151 152 153 151 148 146 144 144 144 143 143 145 145 147 148 149 148 148 149 151 151 151 150 148 149 150 150 152 154 156 157 159 159 161 161 161 163 165 168 170 171 170 168 166 167 153 110 102  50  38  38  32  44  38  88 250 245 245 245 245 245 245 245
 245 245 246 230  76  68  72  68  53  51  53  52  83  65 137 178 180 192 194 195 181 171 164 157 149 141 136 141 144 145 147 142 149 144 139 138 139 139 142 143 143 144 145 146 147 147 148 150 151 152 152 151 149 148 148 148 149 152 154 155 156 157 159 159 161 161 162 164 167 167 168 167 167 165 145 143 152  70  37  40  38  43  45  30 242 245 244 245 245 245 245 245
 245 245 249 185  56  68  70  64  56  50  50  61  76  93 146 182 184 189 190 185 174 161 156 143 143 142 135 136 135 136 134 135 124 130 132 132 135 135 139 139 142 143 144 146 145 146 147 149 151 151 152 151 151 150 150 148 148 150 152 153 155 155 158 157 157 156 161 162 163 165 166 167 167 167 160 144 161 101  44  45  41  41  49  35 194 249 244 245 245 245 245 245
 245 244 248 137  46  81  64  56  50  51  51  61  82 126 157 185 188 188 187 181 167 160 153 148 136 130 124 128 129 128 129 128 128 128 128 129 131 133 134 138 140 141 142 143 145 144 146 146 147 150 149 149 150 148 149 148 147 148 150 151 153 154 154 156 156 156 158 160 161 163 165 166 167 167 170 134 154 128  71  46  45  43  42  34 118 250 244 245 245 245 245 245
 245 244 249  88  69  70  44  51  48  50  54  54  99 144 181 197 189 186 185 170 167 163 155 144 134 129 125 125 126 127 127 127 127 125 125 125 129 131 132 137 138 140 142 142 144 144 144 144 147 148 147 147 147 147 149 147 145 144 144 149 151 151 153 155 155 156 158 158 159 161 162 165 166 166 166 172 152 142 115  61  43  47  45  37  61 248 244 245 245 245 245 245
 245 246 216  66  50  61  51  46  46  50  56  65 113 159 197 190 187 182 179 173 164 163 151 145 136 131 128 127 128 126 125 127 125 124 124 125 127 129 131 134 135 138 140 142 143 144 144 144 145 145 146 145 146 146 146 145 145 145 145 147 148 149 150 151 152 154 155 156 157 158 162 163 164 165 167 166 159 157 158 112  52  44  46  48  18 229 246 245 245 245 245 245
 244 246 159  51  59  53  50  46  46  49  57  80 132 178 193 189 183 182 174 168 163 149 147 142 140 138 134 130 129 128 128 128 127 126 127 125 128 130 131 133 134 136 139 142 144 145 147 146 145 145 145 144 145 145 146 144 143 144 144 147 148 148 149 149 148 148 152 152 153 156 160 162 162 164 167 166 164 160 163 145  77  36  49  48  24 164 249 243 245 245 245 245
 244 247  89  53  54  54  47  46  47  46  68  91 155 189 188 184 179 176 171 166 159 151 147 146 142 139 137 132 133 131 130 129 129 129 128 129 131 132 132 134 134 135 139 142 145 146 147 146 146 146 145 146 145 146 145 143 143 145 145 146 148 150 150 150 149 148 149 151 152 154 157 159 160 162 164 166 166 162 159 154 124  38  46  47  26  71 247 245 245 245 245 245
 244 248  60  53  45  50  47  47  47  48  62 116 165 190 185 183 178 171 166 158 152 148 147 146 145 142 141 142 140 136 134 133 133 130 131 132 134 133 137 137 138 139 141 145 145 147 146 146 146 146 147 147 147 146 146 146 146 146 146 147 148 150 150 152 151 151 151 153 152 153 155 157 159 161 164 164 164 163 159 150 143  45  41  44  44  19 220 248 243 245 245 245
 243 223  50  43  50  47  45  45  48  59  66 125 171 178 182 182 174 166 156 150 148 145 142 142 143 145 145 145 144 140 139 137 137 138 139 141 139 141 143 142 142 143 143 145 146 147 147 148 147 146 147 148 148 148 148 148 148 148 148 148 148 150 152 152 154 154 154 154 152 154 155 157 159 161 163 164 164 162 157 150 150  83  30  42  38  26 104 250 243 245 245 244
 249 137  43  49  46  43  44  46  52  54  83 131 169 175 178 176 171 162 156 150 145 142 141 142 143 146 147 148 148 142 147 148 148 147 146 145 148 147 146 145 144 144 145 146 146 147 148 147 145 145 146 147 148 150 151 151 150 152 151 152 152 151 151 151 153 155 153 153 153 153 153 156 158 160 163 163 165 164 158 149 141 126  33  33  39  44  16 245 248 243 244 243
 247  49  51  49  44  40  42  45  53  61  81 131 163 172 173 173 168 161 156 150 145 142 142 142 143 146 148 149 150 153 156 159 160 156 157 159 155 151 149 148 147 146 146 146 145 145 147 146 144 145 145 147 150 151 152 153 154 154 154 155 154 153 152 153 154 154 152 151 150 149 152 156 158 160 162 164 165 164 163 149 140 140  54  11  35  36  18 173 248 245 243 244
 231  32  45  47  43  42  43  46  51  62  77 129 161 168 170 170 166 161 155 152 145 143 143 144 146 148 150 152 154 157 157 157 162 165 163 160 158 159 153 151 149 149 148 147 146 147 148 148 146 143 146 148 150 153 154 155 155 155 157 157 157 155 155 156 155 154 154 151 150 150 151 152 157 160 162 164 165 165 165 142 142 132  70  20  33  26  45  43 250 240 240 240
 218  33  52  44  42  42  45  47  52  64  93 140 165 167 168 168 164 159 158 144 143 142 143 146 148 150 153 155 157 158 159 159 160 162 162 160 159 157 155 153 152 151 150 148 147 147 147 147 147 147 146 148 150 154 155 155 155 155 156 158 159 159 159 158 158 157 156 154 153 151 151 152 155 157 160 163 165 165 166 152 129 126  77  30  30  32  43  18 224 239 239 236
 213  21  48  45  41  42  44  47  44  72 111 140 166 168 170 167 163 159 151 147 144 144 146 150 151 153 155 160 161 161 160 157 159 160 160 157 156 157 153 152 152 152 151 148 148 148 147 147 146 146 147 147 151 152 152 154 154 155 155 157 158 158 159 161 159 159 159 158 156 154 154 155 155 157 159 163 164 165 164 166 125 112  75  36  31  29  42  23 136 222 221 222
 216  19  45  43  40  40  43  46  41  74 114 149 170 171 168 166 159 156 151 149 147 148 149 155 158 160 161 164 162 162 158 155 154 157 153 151 147 145 145 148 150 151 150 150 149 147 146 145 146 146 148 148 149 150 151 151 154 155 154 155 158 157 157 160 160 161 160 159 157 155 156 154 154 157 159 162 164 164 164 173 133  89  75  48  30  31  37  42  69 229 206 199
 225  35  38  44  40  40  43  46  47  72 118 160 169 168 166 163 158 154 153 151 152 155 163 163 166 165 165 166 166 163 158 152 148 147 147 138 138 138 139 142 146 148 150 148 147 144 143 142 143 146 148 149 149 150 151 150 151 152 152 153 155 156 156 156 157 158 160 159 159 157 157 156 154 155 158 162 163 163 164 170 144  82  62  46  31  33  36  36  33 178 128 116
 246  79  39  44  40  40  44  47  49  67 128 163 169 166 165 161 157 156 156 160 166 174 176 178 176 172 168 167 164 158 160 148 142 137 128 128 129 132 136 134 141 144 146 146 144 140 139 141 141 143 146 148 147 147 146 147 148 150 152 149 149 149 149 155 154 155 156 158 156 156 155 154 154 157 159 161 162 165 164 164 159  83  50  46  40  36  37  36  42 192 223 236
 250 115  29  44  41  42  44  47  38  80 153 167 167 167 163 159 156 157 161 166 170 174 180 178 176 178 171 165 163 160 147 143 133 133 127 124 126 122 124 128 132 140 139 141 139 137 137 137 139 141 142 142 143 144 144 142 143 142 144 147 144 145 142 143 146 149 154 148 151 152 151 155 156 156 158 160 163 163 165 165 166  98  40  44  39  32  33  36  49 245 241 242
 248 145  28  39  41  41  42  46  34  98 164 166 165 164 164 154 154 156 162 168 171 173 174 167 159 146 140 133 126 119 116 117 119 108 105 108 107 105 111 118 122 130 130 135 136 130 130 132 134 134 136 138 136 130 126 134 141 141 132 140 133 127 125 116 119 124 127 130 127 124 133 156 158 157 158 160 162 162 163 164 169 109  31  42  38  33  29  31  87 249 241 241
 248 186  21  43  42  41  42  44  34 117 162 164 164 160 158 153 155 154 167 173 178 162 135 126 110 109 100 100  91  81  76  72  62  77  79  80  87  93 107 106 121 123 128 129 128 124 123 128 131 131 131 133 130 128 123 121 114 117 119 106  88  72  64  75  67  93 105 107  96  97  95 132 155 160 159 159 160 162 161 161 171 120  25  41  35  31  30  16 125 250 241 241
 248 221  27  37  41  40  41  43  35 140 161 164 163 159 155 153 155 166 179 181 141 116 103  83  81  78  71  49  45  37  42  39  43  49  55  67  67  73  84  94 111 118 120 122 122 120 117 120 124 126 125 127 123 118 115 110 110  97  70  59  44  40  40  45  54  58  66  69  80  83  78  94 129 155 159 160 161 162 162 161 169 126  33  34  32  32  30  17 188 248 242 243
 248 241  40  30  41  40  40  40  52 149 164 166 163 159 156 154 159 173 182 155 107  70  67  70  68  52  48  52  45  42  43  42  43  43  48  55  69  74  74  94 106 109 112 117 115 116 116 114 118 121 120 117 119 105 112  86  91  79  70  59  53  46  46  50  52  55  56  73  82  83  84  81 109 135 155 159 161 163 163 162 172 120  30  22  31  31  19  32 239 246 243 244
 247 246  45  17  41  40  40  38  51 158 168 168 165 159 157 154 161 171 140 105  77  77  70  62  54  49  44  38  36  36  36  39  40  41  44  51  60  70  75  84  99 104 107 112 113 112 112 111 113 114 114 111 100  99  92  88  86  67  54  45  41  43  43  46  47  49  53  60  75  80  83  84  78 106 145 156 159 162 162 163 173 114  36  34  32  35  12  76 249 245 243 244
 248 244  48  15  41  41  40  23  69 164 173 169 165 157 153 155 142 121 106  87  74  61  60  57  52  47  43  40  35  39  38  39  40  43  47  52  60  65  71  82  94  97 103 108 110 111 110 109 111 113 112 107 101  93  87  82  76  61  52  48  46  47  47  47  47  49  53  64  72  79  82  84  82  92 124 154 157 162 163 164 173 114  33  36  34  28  16 198 247 243 244 244
 246 248  75  19  44  42  42  24  60 175 171 169 164 156 152 146 126  96  98  84  69  65  60  55  53  42  33  33  47  31  35  37  41  48  51  55  63  71  75  81  89  94 100 106 109 111 112 111 112 114 113 108 100  93  86  80  71  60  51  46  45  45  40  50  45  44  50  59  70  78  83  87  87  89 116 145 160 161 165 166 173 108  26  38  37  23  43 248 244 243 244 245
 244 249 129  21  46  45  44  31  81 177 168 166 159 153 152 145 112  89  74  56  43  48  39  35  48  56  65  69  63  61  51  55  55  56  57  61  68  75  80  84  90  94 100 105 109 112 113 114 115 115 114 110 102  91  87  82  78  71  71  67  68  71  75  75  80  77  71  73  78  81  86  90  92  94 107 137 158 159 166 167 174 105  27  42  39  11 120 248 242 243 244 244
 243 249 177  23  46  48  47  25  91 185 183 172 154 160 173 170 158 151 150 153 155 132 112  94  83  83  72  81  84  82  84  72  62  62  62  62  64  71  75  84  94  96 102 107 111 115 116 118 121 119 115 109 103  93  87  83  81  77  72  69  68  69  66  69  68  76  77  80  85  92  99  98  97  94 111 134 151 159 167 167 178  84  30  42  36  13 192 248 243 243 245 245
 244 249 229  27  41  43  19  42 177 198 207 155 102  90  61  94 123 119 127 144 154 163 156 165 160 155 146 116 111 106  93  89  84  72  53  46  49  47  56  78  92 100 103 109 118 118 122 123 126 127 117 109 100  93  87  83  74  64  51  44  28  35  38  42  46  30  29  34  47  67  62  72  71  73  79 134 144 152 164 178 181  76  28  45  24  27 231 248 243 245 245 245
 248 236 242  60  27  23  98 218 180 176 122 145 131 127 118 104 102 118 111 100  94 121 133 137 129 111 114 127 134 139 140 121 110 109 114 106  90  90  69  56  59 101 100 115 121 123 124 127 128 127 116 107  98  84  62  62  56  75  89 117 146 171 193 206 211 217 216 214 215 215 218 216 211 208 204 199 202 204 208 202 191  87  24  45  25  97 245 244 244 245 245 245
 199 208 230 114  17 120 138 129 155 184 162  92 100 118 112 116 120 103 105 103 109 117 101  56  65  80  61  45  44  34  32  44  66  82  85 108 148 152 150 143 138 136 131 125 124 126 127 131 131 125 115 114 108 106 169 154 186 222 209 188 183 166 145 137 134 124 125 117 103 103  94  99 124 133 121 127 148 162 176 195 198 155  17  46  14 181 249 244 245 245 245 245
 201 196 209 169  23 140 180 211 189 185 149  28  14  14  13 101 104 103 103 100  97  74  75  91  79  67  69  76  63  59  60  63  54  57  76  78  72  86  98 109 118 104 122 117 117 130 128 119 120 115 101  79  85  83  71  56  37  34  39  47  33  29  31  41  46  57  83 112 122 118  83  75  91  91 106 116 106 131 140 152 152 165  48  22  38 226 247 244 245 245 245 245
 207 212 241 207  80 133 212 115  65 116 133  78  51  36  34 104 100 100  99  93  88  85  90  75  69  84 109  67  63  64  63  65  66  74  72  67  76  73  80  94  88  86 140 132 103  94  93 111 116 119 105  79  96  88  76  60  47  48  32  25  47  52  56  59  62  79  58  53  85 110  92 100 104 108 111 112 131  72  69  71 119 178 108  18 114 247 245 245 245 245 245 245
 224 228 210 207 133  27 109 203 184 130 110 125 117 109 101 108 101  99  96  90  86  85  79  70 103 120 113  76  66  67  66  69  68  87 113  91  67  76  75  89  95  62 153  91 104 111 114 111 124  99 109 124 102  88  76  74  70  59  51  44  30  39  54  60  55 123 124  86  55  79  93  93 102 105 109  92 170  48  67  50  57 203 130  25 230 249 244 245 245 245 245 245
 192 156 164 157 132  58  21  63 189 228 173 137 123 104 104 106  99  96  93  85  81  83  76  80 132 150 143 101  91  84  81  82  72 109 121 117  91  69  78  77  85  90 102  61 123 138 139 146 137  95  45 145 108  93  77  73  69  82  62  42  40  37  31  46  52 121 150 122  77  75  84  92  95 103 109  92 170  92  84  82  53 147 136 122 250 244 244 245 245 245 245 245
 140  96 101 117 111  95  62  34  73 172 160  76 129 104 106 107 100  99  99  98 104  79 103 105 129 134 140 119  95  94  90  83  92 129 129 114  95  73  77  79  80  62  48  92 129 134 141 140 146 117  26 138 118  94  73  67  69  79  82  38  34  37  40  50  41 130 136 134  93  84  80  91  99 102 108  86 169 110 124 116  79  99 120 205 250 244 245 245 245 245 245 245
 101  98  80 101 112 114  75  19  57 167 160 144 125 100 100 102 102 105 103 103 108 117 118 118 121 129 131 135 121 102  98  87 122 122 107  79  82  82  82  80  94  95  24 107 129 139 143 145 141 137  29 151 163  65  62  65  65  78  95  77  55  47  46  40  81 126 128 112  92  90  93  94  97 101 106  92 168 132 126 152 187 201 148 171 231 244 249 245 244 245 245 245
  85  94  90 100 112 119  92  23  58 172 155 143 131 113  91 101 106 107  98 100 112 123 123 121 120 121 132 124 124 116 112 105  96  89  83  88  85  85  85  86  83 109  48 118 136 146 147 147 146 149  49  87 126  71  67  67  69  74  83  95  85  64  56  86 115 116 107  91  87  87  90  95  98 102 107 102 146 205 202 190 178 108  97 122 135 153 188 249 245 245 245 245
  86  94  93 101 111 120 103  37  48 162 156 142 130 111 102  95 113 116 110  97 111 125 125 121 117 119 113 107 101 100  94  89  88  85  86  85  85  86  90  91  84  82  72 127 144 150 153 153 155 157  96  57 102  79  71  70  70  71  76  82  88  97 107 102 105  98  87  87  86  90  91  96  98 103 108 117 106 102 122 160 136  39 118 135 143 135 139 201 250 245 245 245
  85  95  93 122 107 117 126  38  47 159 154 142 134 109 106 105 119 124 125 123 120 124 121 111 100  94  89  85  90  84  84  84  84  83  85  86  85  90  92  97 109  69 112 134 153 159 160 159 157 162 137  57 105  85  75  72  69  69  71  78  83  85  88  89  91  94  91  90  90  93  94  96  96 106 109 117 129 143 150 160 137  40 136 138 124  68  82 143 250 244 245 245
  90  95  88 135 112 112 134  48  66 156 150 146 135 118 116 111 119 129 127 119 109 109  97 103  99  95  91  88  85  85  84  83  83  83  85  85  87  93  96 103 111  79 126 139 151 161 162 161 161 158 158  85  83 107  67  74  72  70  71  76  79  83  85  89  92  94  94  94  94  96  99 100 101 104 112 113 134 147 152 161 148  29 144 130  96  88  54 112 250 244 245 245
 100  91  84 145 117 113 127  44  71 149 150 147 137 131 119 118 114 112 128 147 152 139 115 101  72  61  67  65  65  73  75  83  87  88  88  89  90  95 101 111  73 109 133 146 154 159 161 161 160 159 157 121 106 110  88  77  77  76  76  77  80  83  86  88  92  97  98  99 101 106 107 100 104 110 111 125 139 149 159 169 140  38 135 122  97  91  63 100 249 245 245 245
  90  91 109 137 118 117 112  45  70 148 148 145 140 138 131 129 125 117 103  82  76  88 119 134 179 169 172 162 142 130 120 105  99  98  96  93  93  97  99  91  88 115 130 142 154 158 159 159 159 158 153 153  97 114 101  90  83  80  84  82  83  81  86  87  89  95 102 109 114 117 119 119 117 121 132 135 142 153 160 178 128  49 141 115  94  93  71  96 250 245 245 245
  95  84 132 122  97  83  79  54  74 153 149 147 143 141 141 141 142 139 131 115 100 101  85  69  51  45  41  49  67  69  78  81  74  72  72  79  94  98  95  92 107 117 127 139 149 155 158 159 160 158 157 154 133 105 113 109 101  96  93  96 106 115 111 114 111 117 124 129 133 125 122 123 125 137 137 143 147 155 160 176 130  59 135 115  97  95  63 124 250 244 245 245
 114  98 140 113  80  72  65  57  74 150 151 150 146 143 143 154 158 157 147 130 118 110 107 104 100  97  94  89  85  85  80  78  79  77  82  89 101  98  96 101 111 120 131 141 149 155 159 160 160 159 159 161 147 116 115 115 109  92  90  91  88  88 104 105 111 113 114 117 105 115 123 127 135 136 140 144 151 157 162 173 132  58 137 120 101  88  68 165 250 245 245 245
 127 103 142 101  74  68  63  68  65 155 153 150 146 145 152 158 161 156 151 142 132 121 117 111 105 102  99  94  90  88  86  86  84  90  99 103 100  98  99 108 114 129 136 145 150 160 161 162 161 161 161 159 158 128 120 118 117 114  98  86  93  94  99 105 109 112 115 115 116 124 128 136 143 143 144 147 152 160 164 179 120  45 147 109 105  90  66 217 247 245 245 245
 130 107 143  99  76  59  84  67  71 143 157 151 147 149 155 157 158 156 150 142 137 139 123 115 111 108 102  96  83  91  89  93 107 114 112 104  99 101 105 113 127 135 145 158 164 170 167 166 166 164 164 159 158 141 131 123 123 123 113 107  96  98 102 106 109 113 116 119 121 129 134 143 146 154 148 150 153 160 164 182 116  33 160  99 108  93  89 250 245 245 245 245
 127 114 146 106  68  49 136  70  62 140 158 151 149 151 152 154 156 151 145 139 136 130 125 120 117 112 112 106 112 111 113 117 125 123 115 108 104 104 112 129 138 145 156 161 168 170 174 173 170 167 166 161 157 145 139 128 127 126 123 120 105 108 109 110 112 115 120 123 134 138 144 146 151 153 154 150 154 161 165 180 106  39 154 114 107  88 126 250 244 245 245 245
 105 122 154 108  78  64 122  78  57 138 154 152 151 149 149 147 147 143 142 133 130 125 123 121 121 123 119 117 118 126 127 139 136 130 119 113 105 104 116 131 144 150 157 163 170 175 178 175 173 170 167 163 159 153 144 133 131 131 133 126 120 116 117 116 116 119 127 137 138 143 147 149 150 153 153 150 142 164 163 175 107  37 148 120 104 101 185 248 245 245 245 245
  97 127 156 109  81  71 111  74  55 135 155 151 152 150 147 144 141 135 128 124 118 117 118 120 124 122 132 139 146 148 153 142 135 129 119 112 108 111 114 133 148 154 156 165 173 176 176 175 173 171 168 166 159 156 144 134 134 134 135 135 130 126 123 122 121 125 128 135 140 144 146 149 150 151 153 152 151 162 162 171 102  35 146 126 104 113 241 245 245 245 245 245
  85 119 160 116  89  74  96  71  66 121 152 150 150 149 144 140 134 129 122 119 116 115 118 124 124 137 146 155 153 149 147 144 131 129 117 111 109 111 116 134 139 159 161 168 174 175 175 174 173 170 169 166 160 154 145 135 132 133 136 135 137 134 132 132 129 131 132 135 139 143 144 147 148 151 152 153 156 159 159 172 101  38 135 132 110 196 248 245 245 245 245 245
  84 107 167 122 115  91  72  72  65 112 150 147 150 145 141 136 126 125 121 119 118 118 120 131 139 148 148 151 153 153 142 132 127 124 113 109 105 112 111 134 141 161 161 166 165 176 180 172 169 169 169 167 162 153 144 133 130 129 132 136 139 139 140 142 138 138 139 139 139 143 146 148 149 150 152 152 155 156 157 169  90  40 135 132 148 250 246 245 245 245 245 245
  94  81 177 124 127 147 148  62  70 105 139 147 146 144 138 131 123 121 120 120 120 122 128 134 142 144 147 148 146 136 137 128 125 126 114 103  86 116 144 147 152 155 160 160 160 156 160 164 164 164 165 165 164 158 147 127 122 126 130 135 139 142 142 143 145 144 144 146 145 146 148 149 150 150 151 152 153 153 154 156  88  36 129 118 229 245 244 245 245 245 245 245
  95  65 176 138 127 172 151  58  82  90 129 148 144 143 137 131 123 121 119 122 122 127 131 136 139 142 142 143 139 133 130 128 117 113 105  93  67 139 145 149 153 156 159 157 151 147 144 137 153 155 156 162 162 161 156 137 102 115 129 133 139 141 144 145 146 148 148 149 150 151 151 150 151 149 150 152 153 153 153 152  73  44 128 156 250 245 245 245 245 245 245 245
  91  70 170 150 152 183 151  56  83  82 117 140 141 142 140 127 122 121 119 120 122 125 129 133 135 138 136 133 132 130 127 122 117  97  96  82  81 164 151 154 152 151 151 150 143 138 133 137 142 147 151 154 160 157 154 155 104 109 120 130 133 141 144 145 148 150 151 152 153 153 154 152 152 149 149 152 153 153 152 143  63  55 141 206 245 245 245 245 245 245 245 245
  83  59 154 161 185 171 135  70  82  78  98 129 138 136 133 126 121 120 119 121 123 125 126 130 132 133 132 128 126 125 120 115 112 101  93  76  99 157 145 135 132 132 129 127 128 127 127 124 128 136 136 144 150 149 148 155 141 101 114 125 132 140 143 145 148 150 152 154 154 152 151 152 152 150 150 150 151 151 145 135  57  63 138 248 245 245 245 245 245 245 245 245
  82  84 130 184 207 170 138  81  80  76  99 122 128 131 126 122 121 120 119 120 122 124 127 128 129 129 126 122 120 117 113 111 109 100  89  65 112 129 125 119 114 107 108 109 111 113 115 117 121 125 128 136 142 140 142 148 160  77 111 121 130 135 141 145 146 147 152 155 154 152 150 150 151 151 149 147 149 147 142 110  52  74 160 250 244 245 245 245 245 245 245 245
  97  86 107 220 206 167 140  78  77  80  96 101 121 125 122 118 119 118 118 118 120 123 125 126 126 123 123 120 119 117 113 109 103  96  86  65 110 116 113 107  95  92  95  98 102 105 110 110 117 121 125 122 122 125 130 139 155  76 106 116 127 132 138 143 146 147 151 152 152 152 152 152 152 151 150 147 144 135 130 109  38  93 177 250 245 245 245 245 245 245 245 245
  95  85 116 219 202 153 121  97  74  84  93  96 110 120 118 115 116 117 118 117 119 120 120 122 121 122 120 118 116 113 109 108 100  97  87  80  93 101  95  87  79  75  78  93  96  99  99  99 105 107 116 118 116 110 120 129 134  86 103 116 123 130 137 142 146 148 150 151 152 152 152 153 152 151 150 145 139 131 119 101  40  91 188 250 245 245 245 245 245 245 245 245
  94  84  91 209 184 141 150 120  69  86  88  92  93 113 112 113 115 116 115 116 116 117 118 119 120 118 116 115 114 110 107 102  99  92  86  84  79  89  77  58  52  16  27  73  84  85  90  95  95 104 106 105  67  59  94 109 117 106 105 115 120 127 135 139 143 145 147 148 149 151 152 152 153 151 149 142 131 121 113  84  52  97 178 250 245 245 245 245 245 245 245 245
  94  91  77 180 162 144 153 109  80  84  81  82  91 109 107 109 112 112 113 114 114 114 117 117 114 114 113 114 113 109 105 101  97  92  90  86  81  67  67  58  54  49  41  38  71  77  79  83  90  93 105  73  50  52  80 110 110 111 110 115 119 129 133 138 141 143 146 148 149 152 153 154 153 151 141 136 126 115 105  68  57  99 174 250 245 245 245 245 245 245 245 245
  93  91  71 150 148 135 141 102  85  91  78  83  90  94 100 104 104 108 110 110 111 113 116 115 112 111 110 109 107 108 105 100  97  96  94  92  88  74  60  58  56  56  56  52  48  64  67  76  76  83  74  82  78  81  87 110 116 114 114 116 119 118 130 135 139 143 145 148 148 151 153 153 151 150 141 130 116 108  95  58  62  89 167 250 245 245 245 245 245 245 245 245
  92  93  88 104 144 127 122  98  84  80  81  78  89  92  97  97  94 105 106 108 110 111 112 111 110 109 107 105 105 105 103  99  97  96  98 100  92  97  74  58  59  56  55  53  51  59  63  68  75  82  87  83  82  76  97 119 118 117 115 116 119 120 128 134 138 143 145 148 149 150 152 152 150 144 139 121 115  97  89  59  59 107 164 250 245 245 245 245 245 245 245 245
  90  90  89  80 111 127 113  93  85  80  78  78  85  85  88  87  87  97 104 104 106 108 110 111 110 108 105 102 103 104 102  99  98  99 100 100  98  96  80  65  59  54  51  49  50  55  57  57  51  53  70  84  93 108 112 119 123 120 117 116 118 122 126 131 138 142 143 145 147 147 146 149 147 141 138 117 108  90  79  74  56 110 217 246 245 245 245 245 245 245 245 245
  92  89  79  79  58  69  87  90  86  81  77  77  79  78  84  87  83  88  94  98 100 108 108 107 106 104 103 101 101 100  99  99  99 100 101 100  96  91  74  58  51  47  43  42  45  49  50  47  46  50  53  77  88 104 115 123 126 122 118 119 119 122 125 129 135 140 142 145 146 146 144 141 140 133 130 116  98  88  74  75  26 189 249 244 245 245 245 245 245 245 245 245
  55  58  61  62  67  65  75  84  84  81  77  75  70  69  74  71  65  81  92  92  90  95 103 103 102 100  99  98  99  98  97  97  97  99  98  98  88  85  56  52  46  41  37  37  41  46  46  41  41  44  47  50  64 103 113 121 124 125 123 120 120 120 125 129 133 138 143 143 146 146 142 138 134 122 103 103  98  90  75  73  52 249 246 245 245 245 245 245 245 245 245 245
  72  76  78  89  87  81  69  72  84  79  76  74  71  67  65  66  62  69  76  84  86  93  97 101 102  99  98  97  97  96  94  95  95  93  96  95  82  64  45  48  41  36  36  37  39  44  43  40  42  42  43  45  58  74  97 121 118 124 122 120 118 118 124 126 131 136 140 142 143 143 141 126 118 109  94  90  94  87  78  68  85 250 245 245 245 245 245 245 245 245 245 245
  63  46  36   8   7   8   8  27  88  77  78  77  76  66  63  62  61  67  73  76  83  88  97  99 101  98  96  95  95  93  92  92  94  86  80  79  63  45  45  42  38  36  37  39  40  42  42  41  42  42  44  47  47  48  80 103 117 115 113 115 114 115 120 127 131 134 137 140 141 138 135 120 121 111  99  93  91  78  85  62 143 248 245 245 245 245 245 245 245 245 245 245
   5   8   9  13  18  17  20  22  85  75  70  78  79  66  62  62  63  66  72  73  77  82  90  99  99  96  94  93  91  89  89  86  77  63  54  54  52  41  43  40  38  40  40  42  41  42  44  44  45  45  49  48  48  49  67  84  99  94 108 114 111 114 118 129 131 134 136 138 137 132 125 116 116 111  96  93  88  75  74  42 179 250 244 245 245 245 245 245 245 245 245 245
  18  18  20  20  21  16  22  24  55  76  67  72  72  66  63  60  61  64  66  67  66  57  97  95  98  96  93  92  87  83  80  65  62  48  51  50  47  45  44  36  30  36  49  39  32  37  38  35  41  51  45  42  44  55  64  61  78  77  80  91 113 109 114 129 132 134 133 135 133 130 113 112 112 111  90  86  80  75  59  31 201 250 244 245 245 245 245 245 245 245 245 245
  13   8  11  15  18  28  33  40  64  80  73  65  67  63  60  57  58  61  64  63  60  67  83  90  94  95  93  88  81  76  63  56  50  43  43  46  48  46  48  62  63  78  90  97  94  84  84  95  97 106  92  80  76  63  64  63  52  53  70  75 105 111 107 123 129 132 134 134 130 121 110 101 100  92  93  76  70  65  54  29 214 247 245 245 245 245 245 245 245 245 245 245
  40  52  63  67  79  77  80  71  67  84  72  49  54  59  59  56  55  61  65  63  60  62  78  85  90  92  90  88  73  68  53  46  40  38  41  47  53  60  66  66  70  68  68  81  96 112 111 105 104  93  91 104  99  91  76  54  58  51  46  56  61  95 104 110 132 132 135 132 126 114 109  86  88  70  85  74  70  65  42  42 228 244 245 245 245 245 245 245 245 245 245 245
  78  73  61  66  68  66  67  69  72  88  66  63  59  59  58  56  54  57  60  60  60  56  76  79  88  92  89  84  73  43  40  38  38  39  42  48  57  62  57  54  55  46  57  55  58  74  71  64  67  58  58  63  79  98  95  89  62  50  54  50  42  68  93 110 125 130 132 131 115 108  96  90  84  62  64  79  67  65  35  54 250 245 245 245 245 245 245 245 245 245 245 245
  65  61  61  58  65  67  74  75  77  86  70  65  60  59  57  57  55  55  55  55  54  50  67  76  87  91  89  86  69  45  44  41  38  37  41  48  50  45  42  40  45  53  53  55  57  60  68  71  71  67  61  55  51  59  78  88  86  61  57  58  54  51  86 109 125 129 132 125 113  83  83  80  75  69  63  63  65  61  28  73 250 244 245 245 245 245 245 245 245 245 245 245
  83  85  81  79  77  78  77  78  80  81  74  61  58  58  57  57  56  53  50  50  51  48  61  75  82  85  86  85  69  53  47  44  38  34  29  40  26  29  34  28  28  36  43  48  54  57  64  65  58  52  47  40  42  38  43  53  75  56  55  58  59  42  86 109 119 129 128 122 115  83  60  66  70  66  64  62  60  60  22 173 249 245 245 245 245 245 245 245 245 245 245 245
  82  83  81  81  80  80  79  79  80  83  74  59  55  53  57  58  55  52  49  49  49  51  47  70  77  82  82  81  69  61  51  46  42  40  43  45  60  68  71  70  67  62  48  42  31  41  45  52  48  48  50  62  70  76  57  47  29  40  45  55  58  67  91 107 121 126 128 119 110  85  54  62  59  58  59  56  57  42  69 249 244 245 245 245 245 245 245 245 245 245 245 245
  84  83  83  82  82  81  81  80  81  83  93  60  55  51  52  57  57  53  49  47  47  48  55  63  74  81  83  80  71  63  56  51  52  58  71  84  86  81  81  82  82  83  95  91  87  74  68  81  87  92 101 102 111 106  97  89  76  63  44  59  65  70  89 108 121 124 125 118  99  82  60  59  57  53  51  49  50  36 107 249 244 245 245 245 245 245 245 245 245 245 245 245
  84  83  84  83  81  80  80  79  82  83 100  62  55  50  44  54  54  52  49  46  43  45  48  60  74  81  82  78  69  63  61  61  67  72  73  80  81  82  81  79  79  81  83  85  88  96 108  99  95  94  96 100 106 109  99 119 122 104  71  70  72  74  94 109 120 123 125 115  97  78  53  53  53  54  50  50  40  45 208 249 245 245 245 245 245 245 245 245 245 245 245 245
  84  83  83  84  82  81  79  78  79  76 102  77  45  50  47  47  48  50  46  44  40  41  49  62  72  79  78  76  68  64  66  68  71  73  76  76  77  78  81  74  77  80  81  84  87  91  90  93  91  91  94  97 105 109 109 108 111 105  96  84  80  80  98 109 117 122 123 115  91  71  60  54  54  54  55  55  46  72 241 244 245 245 245 245 245 245 245 245 245 245 245 245
  85  84  83  84  84  81  81  79  78  67 118 113  49  49  46  44  44  44  45  39  38  41  48  58  72  74  75  73  65  66  68  69  70  72  73  73  72  66  66  65  66  67  70  70  76  76  81  80  80  86  85  87  96  96  99 102 108 106 102  98  92  89  93 102 114 118 117 117  92  63  68  62  57  58  59  58  38 109 248 245 245 245 245 245 245 245 245 245 245 245 245 245
  84  85  83  82  83  81  81  81  80  75  96 146  92  51  42  42  40  40  39  38  37  40  44  55  67  70  72  70  66  64  66  70  71  70  71  70  68  63  61  57  49  48  51  51  50  52  52  52  54  55  69  74  76  84  89  95  99 104 104 101  95  94  94 101 108 115 115 116  99  75  68  64  59  58  58  59  27 189 248 245 245 245 245 245 245 245 245 245 245 245 245 245
  86  85  85  84  83  83  83  83  83  78  79 149 106  61  38  42  39  36  35  35  36  38  44  52  61  68  70  68  64  62  62  65  68  67  68  68  65  63  60  55  49  43  37  34  31  25  27  23  38  50  57  64  73  80  84  91  95  99 101 100  96  94  95 100 107 111 111 112  90  76  57  56  55  53  58  34  79 247 246 244 245 245 245 245 245 245 245 245 245 245 245 245
  86  86  87  87  79  65  62  55  61  41 114 156 111  89  51  38  37  33  31  31  33  35  39  46  60  64  66  63  61  58  59  62  66  65  64  65  63  62  61  58  52  43  40  32  31  34  34  36  40  43  57  64  72  78  82  89  92  94  95  94  94  94  94  99 107 108 110  97  86  58  51  50  49  51  55  21 214 247 244 245 245 245 245 245 245 245 245 245 245 245 245 245
  85  81  76  54  59  75 105 138 195 215 167 149 118 101  69  32  33  30  29  29  31  32  36  43  53  59  62  58  54  52  54  59  62  65  64  65  65  64  64  62  57  45  35  43  41  33  26  33  36  53  59  68  72  77  80  84  88  89  91  91  89  89  91  95 101 103 104  87  65  53  47  44  43  47  24  43 250 244 244 245 245 245 245 245 245 245 245 245 245 245 245 245
  80  70  82 180 227 249 250 240 223 197 120 130 124 101  76  46  32  28  27  27  28  30  34  44  50  53  56  54  53  50  52  56  60  63  64  65  68  68  66  63  67  69  75  71  67  61  64  68  76  71  69  69  77  79  81  83  87  87  87  85  85  83  87  93  96  97  95  79  50  48  41  39  39  41  15 144 250 244 245 245 245 245 245 245 245 245 245 245 245 245 245 245
  84 173 249 250 245 219 184 107  44  32  41 126 124 104  89  65  30  26  26  27  28  28  31  41  46  47  48  49  50  50  52  55  59  64  68  69  74  75  78  87  91  98  91  85  82  81  88  97  93  97  95  88  82  83  84  85  88  86  85  84  83  82  83  86  88  91  83  70  53  45  39  37  40  28  36 234 247 245 245 245 245 245 245 245 245 245 245 245 245 245 245 245
 220 250 249 250 205  90  25  19  21  17  10 114 129 104  84  72  41  25  27  27  27  28  31  35  41  43  43  44  46  46  48  51  57  64  71  75  83  84  89  96 104  98  97  91  87  85  89  89 107 112 110 104  98  96  87  94  90  87  87  86  81  80  80  82  84  82  74  66  52  43  40  39  41  45  68 245 244 245 245 245 245 245 245 245 245 245 245 245 245 245 245 245
 248 244 249 192  73  40  28  12  18  20   7 107 124  97  80  71  53  32  30  26  26  26  26  27  33  38  38  39  40  41  42  47  56  63  71  77  88  91  92  96 104 104  98  94  96  93  87  88 101 120 119 123 116 111 110 107 104 100  89  85  81  77  72  75  78  77  70  63  55  45  40  38  40  76 105 249 244 245 245 245 245 245 245 245 245 245 245 245 245 245 245 245
 244 247 210  81  65  33  23  20  19  19   7 102 116  98  80  73  60  48  26  27  25  23  22  25  30  31  31  31  31  35  39  44  56  62  70  78  86  94  90  92  92  99  95  91  92  86  76  91  99 118 120 122 126 121 118 112 107 101  87  84  80  76  67  57  45  53  57  58  53  45  41  33  65  81 162 249 245 245 245 245 245 245 245 245 245 245 245 245 245 245 245 245
 247 231 109  46  37  26  22  20  19  19   7 103 110  96  82  70  62  55  37  24  23  20  19  22  25  26  25  25  27  31  38  46  53  58  69  75  80  81  82  84  84  80  79  82  83  80  75  84 104 108 112 119 123 121 116 114 107  98  88  81  72  69  61  54  52  46  44  46  44  41  38  45  87  81 203 245 244 245 245 245 245 245 245 245 245 245 245 245 245 245 245 245
 248 168  85  37  36  24  22  19  19  19   6 110 113  97  79  65  59  54  47  30  24  21  20  20  22  21  22  23  25  33  39  44  47  58  65  75  76  84  72  73  68  65  67  71  69  69  68  75  78  96  99 103 110 113 118 102  96  83  81  58  56  55  50  46  44  41  40  39  39  39  35  71  98  69 234 245 244 245 245 245 245 245 245 245 245 245 245 245 245 245 245 245
 225 163  90  58  40  20  19  18  18  20   6 124 108  96  81  67  59  52  49  33  24  21  19  19  19  18  19  21  25  30  34  38  44  48  50  54  58  51  61  62  62  56  48  48  54  60  60  64  70  84  88  93  80  87  91  91  84  79  73  61  55  44  41  38  38  37  35  34  37  36  53  82 105  72 250 245 245 245 245 245 245 245 245 245 245 245 245 245 245 245 245 245
 217 170 144  42  28  20  18  17  18  15   9 128 109  95  83  71  60  54  50  40  24  21  18  17  16  17  17  20  23  26  30  35  36  38  44  47  48  50  53  53  52  49  46  48  49  47  51  56  61  58  61  68  76  75  75  74  74  73  61  53  56  41  36  34  34  35  32  32  35  42  69  87  96  82 250 245 245 245 245 245 245 245 245 245 245 245 245 245 245 245 245 245
 146  52 131  70  13  23  23  21  19  12  14 134 109  96  83  72  60  54  49  43  28  24  19  16  17  16  17  19  22  24  27  30  31  33  38  41  42  44  45  47  43  43  42  44  44  43  44  45  52  53  54  58  62  63  63  62  64  60  52  53  44  40  36  34  33  32  31  30  34  50  77  90 106  99 241 250 246 246 245 245 245 245 245 245 245 245 245 245 245 245 245 245
  16  13  63 145  80  18  14  14  18   9  82 128 108  95  83  70  59  54  48  42  35  26  20  18  16  16  16  19  21  23  26  27  27  28  30  34  34  36  37  36  37  37  37  34  36  38  39  40  42  40  42  42  44  49  50  50  50  51  47  48  39  36  33  30  30  29  29  23  45  57  89  86 118 131 121 184 237 250 249 247 245 244 245 245 245 245 245 245 245 245 245 245
  25   9  73 141 169 134  82  19  10  20 126 121 111  92  84  71  60  52  48  41  36  28  24  19  16  15  16  17  19  23  24  23  23  22  24  24  25  27  29  28  29  32  32  28  28  29  31  34  36  34  30  39  39  41  40  41  39  39  43  43  37  32  29  27  28  27  28  40  60  75 101 105 121 156  36  17  31  81 167 238 250 249 245 244 245 245 245 245 245 245 245 245
  16  10 108 145 124 136 151 170 154 124 136 120 116  98  77  72  61  54  49  44  37  30  25  20  16  16  14  16  18  20  21  20  20  20  20  21  21  23  23  22  22  22  22  21  20  21  24  26  28  29  28  27  26  32  31  27  31  33  35  35  30  29  28  28  25  29  37  50  70  82 106 108 123 166  29  17  12  10  15  38 159 232 249 250 247 245 245 245 245 245 245 245
