P2
92 112
255
 245 245 245 245 245 245 245 245 245 245 245 245 245 245 245 245 245 245 245 245 248 239 139 106 110  40  45  50  46  50  52  53  49  45  53  55  58  56  56  54  55  43  53  61  59  41  46  42  37  33  45  50  54  74  73  66  46  61  78  66  47  35  15  13  31  70  78  84  47  36  32  50  96 211 242 245 245 245 245 245 245 245 245 245 245 245 245 245 245 245 245 245
 245 245 245 245 245 245 245 245 245 245 245 245 245 245 245 245 245 244 244 249 206 146  77 111  99  42  50  48  49  51  51  51  53  57  57  52  53  52  51  51  48  48  47  41  30  39  32  34  37  38  44  48  50  50  52  48  59  54  42  39  34  32  39  42  47  43  73  81  66  48  51  55  54  61 175 249 246 244 244 245 245 245 245 245 245 245 245 245 245 245 245 245
 245 245 245 245 245 245 245 245 245 245 245 245 245 245 245 245 245 244 249 203  97  74 100  92  72  57  50  50  51  52  53  54  57  65  60  62  51  56  56  50  46  43  42  38  37  33  31  31  34  37  40  46  54  47  38  46  41  31  31  34  39  39  43  49  51  55  61  69  82  73  48  50  41  24  52 127 247 247 244 245 245 245 245 245 245 245 245 245 245 245 245 245
 245 245 245 245 245 245 245 245 245 245 245 245 245 245 245 245 245 250 227  97 127 123 125  53  50  66  50  44  45  54  45  52  60  77  82  81  83  69  59  50  44  43  40  38  35  32  31  32  36  39  40  45  31  37  40  28  11  26  28  30  34  38  41  58  55  56  58  59  64  75  59  58  64  69  53  64 127 236 250 243 245 245 245 245 245 245 245 245 245 245 245 245
 245 245 245 245 245 245 245 245 245 245 245 245 245 245 244 245 249 194  99  92 104 101  81  53  68  74  77  71  65  59  67  91 106 104  97 110  86  65  49  50  50  48  44  40  37  35  35  36  37  40  42  36  34  34  29  26  25  25  27  27  27  30  31  30  45  46  47  50  53  62  62  61  64  66  62  39 118 158 201 242 246 245 245 245 245 245 245 245 245 245 245 245
 245 245 245 245 245 245 245 245 245 245 245 245 245 245 245 243 153 111  87 107 108  96  64  52  87  98  89  67  67  80 120 123 102 111 123 107 101  92  81  61  53  54  49  43  39  37  37  38  38  36  34  31  29  26  26  24  24  24  25  23  22  21  21  23  31  43  38  26  37  49  58  68  64  68  70  56  58 101 172 208 228 247 244 245 245 245 245 245 245 245 245 245
 245 245 245 245 245 245 245 245 245 245 245 245 245 247 240 110  55  89  89  83  93 105  59  92 116 101  80  88 125 132 124 102 110 138 148 139 129 119 111 101  76  61  50  44  45  40  39  38  36  34  31  31  30  29  27  26  26  27  24  22  20  20  19  18  16  34  44  39  34  27  24  40  55  59  76  71  64  39  59  91 200 248 245 245 245 245 245 245 245 245 245 245
 245 245 245 245 245 245 245 245 245 245 245 245 247 241  92  56 119  93 102  90  94  73  81 101 125 140 154 166 161 149 158 175 180 182 190 176 159 149 140 119 103  78  55  51  49  49  49  43  39  38  30  35  39  39  26  29  31  29  27  23  21  20  18  17  18  19  41  40  37  32  32  34  35  64  92  85  80  84  76  87 128 246 244 244 245 245 245 245 245 245 245 245
 245 245 245 245 245 245 245 245 245 245 245 248 235  92  89 118 128 103  93  91  87 117 100 148 179 191 172 159 175 194 203 211 204 204 202 200 181 172 167 150 134 116 116  97  89  78  66  52  49  37  51  51  48  45  43  41  38  37  33  31  23  23  21  18  19  20  24  39  37  34  32  37  41  39  38  58  67  57  46  55  68 178 247 244 245 245 245 245 245 245 245 245
 245 245 245 245 245 245 245 245 245 245 245 245 106  96 126 127  77  94 104  74  70  96 110 171 174 170 189 213 214 211 213 207 204 210 216 216 210 200 198 176 158 150 137 125 115 104  92  89  77  76  69  73  63  52  47  40  44  47  47  40  33  23  24  23  21  20  18  34  36  33  31  27  40  47  49  50  60  45  49  44  24 184 248 244 245 245 245 245 245 245 245 245
 245 245 245 245 245 245 245 245 245 245 248 212  51  90 106  77  95  86  76  52  57  89 142 173 192 212 217 215 213 215 212 214 214 215 221 220 208 203 196 184 168 150 148 141 139 132 128 125 123 114 114 110 103  87  87  80  76  61  60  49  55  46  31  27  10  24  23  23  36  35  31  30  30  29  31  49  74  88  47  53  44  74 250 245 245 245 245 245 245 245 245 245
 245 245 245 245 245 245 245 245 245 246 235  65  72  72  66  69  85  74  52  42  72  76 155 198 204 206 208 212 211 209 210 211 210 209 200 198 204 202 196 189 174 167 161 154 151 145 140 142 140 138 136 130 133 135 121 111 109 109  90  85  85  79  69  58  53  41  29  27  34  34  31  28  29  31  38  49  51  52  46  44  99  25 158 248 245 245 245 245 245 245 245 245
 245 245 245 245 245 245 245 245 245 248  99  72  54  55  60  52  72  50  52  60  76  68 170 210 209 207 207 208 208 205 206 208 206 204 203 201 201 198 195 190 181 175 164 158 153 151 151 147 146 143 143 145 143 139 136 137 133 128 117 118 125 110  98  91  77  57  42  34  33  34  31  28  28  30  35  42  49  63  73  63  71 101  41 248 244 245 245 245 245 245 245 245
 245 245 245 245 245 245 245 244 249 185  71  70  62  62  54  51  57  51  51  75  80  96 189 215 207 208 209 207 203 201 197 195 196 199 199 195 192 193 193 189 186 177 167 162 157 156 154 152 151 149 149 150 151 148 152 151 145 144 154 147 139 132 126 119 101  79  57  42  39  34  31  28  28  31  35  37  42  40  69  71  19 185  49 204 248 245 245 245 245 245 245 245
 245 245 245 245 245 245 245 244 242  90  69  69  66  62  57  49  44  47  63  88  83 145 195 204 204 206 207 204 199 190 186 188 188 184 188 187 185 185 185 185 184 178 170 163 160 159 156 155 154 152 153 153 153 154 154 155 155 153 153 153 150 146 144 135 125 103  81  51  37  34  33  31  30  29  36  40  40  40  61  79  61 102 149 160 249 245 245 245 245 245 245 245
 245 245 245 245 245 245 245 249 189  67  66  71  67  57  53  49  49  50  82  79 110 175 198 201 206 206 205 203 193 184 179 178 175 176 177 179 176 178 178 176 177 169 165 163 158 157 156 154 154 153 152 154 154 155 156 155 155 154 156 154 153 153 148 146 142 134 105  81  38  38  30  42  43  44  43  42  39  40  40  45  57  66 152 166 250 244 245 245 245 245 245 245
 245 245 245 245 245 245 244 247 116  48  59  72  63  53  49  48  51  56  87  77 156 194 204 204 204 202 200 190 182 175 169 163 163 159 155 157 164 166 167 170 167 165 160 156 153 150 152 151 151 151 152 154 154 154 155 156 156 156 156 158 157 156 154 152 149 147 131 111  70  39  54  65  62  31  35  29  29  39  26  27  33  33  72 174 250 244 245 245 245 245 245 245
 245 245 245 245 245 245 245 250  74  56  60  55  46  49  46  47  51  65  74 136 172 205 205 204 201 195 188 188 177 173 168 162 157 152 152 153 148 154 146 145 147 149 148 147 149 151 150 151 151 151 153 153 153 153 155 154 156 155 155 157 158 159 159 157 154 155 154 150 113  64  25  54  63 109 118 124 105  61  46  30  33  30  19 190 248 243 245 245 245 245 245 245
 245 245 245 245 245 245 248 198  62  54  58  53  49  46  45  48  60  65 115 161 193 210 204 201 197 193 187 184 179 170 163 154 148 148 149 149 148 143 141 139 137 137 142 143 145 147 149 148 148 149 151 152 151 152 155 154 154 153 152 152 154 155 157 156 156 157 156 157 154 139 114 119 151 166 167 160 152 118  57  36  36  30  14 163 247 244 245 245 245 245 245 245
 245 245 245 245 245 245 247 122  54  55  55  51  46  44  47  47  57  99 140 180 205 203 201 197 193 187 184 182 174 168 160 155 151 146 142 141 142 140 136 135 134 137 139 140 141 145 147 147 148 149 150 151 150 152 154 155 154 152 150 151 152 152 154 156 157 159 159 160 160 168 168 167 168 172 172 160 168 145  98  36  42  38  12  95 248 245 244 245 245 245 245 245
 245 245 245 245 244 245 229  76  57  53  53  50  47  47  48  53  69 121 167 196 199 199 197 194 190 183 183 176 170 167 161 158 154 151 148 146 143 139 135 134 133 134 134 138 141 143 145 146 145 147 149 149 151 152 154 154 154 153 152 151 151 151 152 154 156 158 159 160 160 162 165 172 173 172 171 172 165 159 129  66  29  48  24  24 238 241 243 244 245 245 245 245
 245 245 245 245 244 248 173  43  55  50  50  48  47  48  43  67  85 146 188 198 199 198 196 190 183 179 174 170 169 168 165 165 159 157 153 151 146 142 139 135 134 134 135 138 141 143 145 145 146 146 148 148 149 150 151 152 153 154 152 152 151 151 152 153 154 155 157 158 159 160 161 166 170 172 173 172 169 170 149  95  40  47  42  14 178 243 241 242 244 243 244 245
 245 245 245 245 245 250 114  56  46  48  47  46  46  48  54  73 104 167 189 198 197 195 192 187 180 175 170 168 168 167 168 167 163 160 159 158 150 144 142 140 137 135 137 138 141 142 142 143 146 147 148 149 148 148 149 150 149 150 150 149 150 150 150 151 151 154 155 156 157 157 157 162 164 169 170 171 169 173 159 113  26  44  40  12  53 250 241 240 241 240 243 245
 245 245 245 245 244 235  63  54  44  46  46  46  46  47  64  72 126 176 185 193 193 191 187 179 174 169 167 165 165 166 167 168 169 170 166 162 153 150 147 144 142 140 142 143 143 142 144 143 144 146 148 148 148 147 148 148 148 147 147 147 149 147 148 149 150 151 153 155 155 156 155 159 161 167 168 169 170 171 158 109  44  36  38  19  33 243 245 241 240 238 239 242
 245 245 245 244 250 149  57  55  45  41  44  44  47  50  59  83 139 176 183 190 190 188 185 177 172 168 163 162 162 164 164 167 169 171 171 165 162 159 157 153 153 151 151 148 148 147 147 146 146 147 147 148 148 148 148 149 148 147 147 147 148 146 147 147 148 149 150 152 154 155 155 158 160 165 167 170 169 170 154 115  69  36  35  29  16 220 243 240 241 240 237 237
 245 245 245 245 240  44  50  52  45  41  42  45  50  54  57  99 141 174 182 187 186 185 180 176 169 166 164 162 162 163 165 166 169 171 174 172 170 172 168 168 163 162 161 156 155 154 150 148 148 148 148 150 149 149 148 148 147 148 147 147 147 144 144 147 147 148 149 151 151 153 156 157 159 161 165 167 169 168 156 143 110  37  33  38  18 129 248 240 241 240 239 236
 245 245 245 249 167  28  55  46  43  41  42  45  50  54  65 117 145 182 182 184 185 182 179 173 169 165 160 161 163 164 167 169 172 174 176 178 183 182 182 173 174 171 168 166 161 157 152 151 149 149 150 150 151 151 149 149 151 149 148 147 145 144 144 147 148 148 149 148 149 152 153 157 157 159 162 165 166 167 167 145 142  44  40  40  34  61 237 241 240 241 240 237
 245 245 244 248 126  21  46  44  41  41  41  45  49  63  78 128 153 184 185 185 184 182 176 172 166 160 160 161 164 166 169 173 174 177 178 179 181 182 183 182 179 177 177 171 165 159 154 151 150 151 150 150 150 150 150 148 149 150 148 148 148 148 147 148 149 150 149 150 150 150 151 151 153 158 160 163 164 166 171 155 147  75  33  43  33  36 212 248 239 241 242 240
 245 245 245 248  89  26  46  44  41  40  43  45  50  56  99 138 167 187 185 184 182 180 174 168 164 161 161 163 166 168 171 175 178 178 180 181 181 181 181 181 182 180 177 173 166 161 158 154 153 152 152 151 150 148 147 148 150 150 150 152 152 152 150 150 150 150 151 152 153 151 151 152 151 153 160 161 162 164 165 160 161 125  33  45  42  17 203 247 238 239 241 235
 245 245 244 249  78  38  45  46  41  41  46  49  47  61 106 147 183 187 185 182 179 176 172 167 165 164 164 164 172 175 176 179 184 186 184 181 180 179 179 179 180 178 174 171 167 162 160 156 153 151 151 152 151 151 147 148 151 151 154 154 156 153 152 152 152 152 154 152 152 154 154 155 153 154 153 158 161 163 164 164 158 160  50  40  47  20 182 240 231 229 223 221
 245 245 244 247  65  38  55  45  42  43  46  50  51  50 120 166 185 184 182 181 179 176 173 170 171 173 174 178 181 183 185 185 186 185 184 180 177 175 176 175 170 169 171 170 164 160 160 158 155 153 151 151 152 151 151 149 151 153 154 156 155 156 155 155 154 154 153 154 155 155 154 153 154 154 156 156 160 162 165 165 164 173  85  30  46  32 114 237 230 225 223 220
 245 245 244 247  71  34  47  44  43  44  47  50  46  64 147 178 184 184 183 180 177 175 174 172 178 184 190 199 205 196 190 188 185 184 184 178 170 163 162 162 158 154 144 143 150 155 157 159 155 153 153 152 152 151 151 151 154 154 157 158 157 156 157 159 158 157 156 156 155 156 154 153 153 153 157 157 159 162 164 165 162 161 127  22  46  33  72 187 171 153 129 141
 245 245 244 248  76  27  46  42  41  41  46  52  41  96 171 183 183 182 182 176 173 175 174 185 191 196 198 200 199 199 194 191 189 184 179 172 164 157 151 145 140 144 143 147 149 151 154 156 155 152 151 150 150 150 151 152 152 154 155 157 158 157 158 159 159 159 158 158 158 155 154 152 151 150 153 155 159 162 162 164 161 158 132  27  42  36  31 164 146 158 199 230
 245 245 245 247  82  22  42  42  42  42  46  52  49 128 179 180 180 178 177 168 172 176 180 190 190 193 190 186 183 178 175 164 158 155 151 149 147 145 142 133 131 136 133 130 140 146 151 152 152 151 148 147 148 149 151 153 152 154 155 154 155 157 157 159 159 159 161 162 159 158 155 153 150 148 151 154 159 160 163 164 161 153 142  35  38  38  15 199 240 247 246 245
 245 245 245 248 102  20  41  42  42  43  47  38  68 161 179 183 180 179 175 173 176 181 188 199 195 176 158 140 138 134 121 121 122 112 113 114 117 120 114 122 118 122 118 128 137 140 147 149 148 145 143 143 145 148 151 153 153 152 152 153 153 156 157 157 158 159 161 161 160 160 159 156 153 152 151 154 157 159 163 164 166 151 145  50  23  39  14 152 246 241 242 242
 245 245 245 248 125  16  42  42  42  44  45  32  93 174 189 187 184 179 175 175 179 186 193 195 157 134 115 104  92  96  86  82  65  55  45  51  55  70  81  84  97  90 106 117 124 132 136 138 138 142 141 141 143 144 146 148 149 149 149 150 151 153 155 155 155 156 159 161 161 161 161 159 156 152 153 154 156 158 161 162 168 145 140  76  22  33  22  27 250 241 243 243
 245 245 245 249 132  14  43  42  41  43  44  21 119 183 191 189 184 178 175 174 178 188 177 152 111  90  79  65  83  59  50  48  51  52  46  45  41  33  42  62  70  85  86  99 112 129 131 130 134 133 132 138 139 142 142 144 145 145 145 148 147 149 149 150 150 152 154 156 159 160 162 159 157 155 154 155 157 158 160 162 161 145 130  84  23  33  33  18 246 243 242 243
 245 245 245 249 124  18  46  42  42  43  36  36 150 194 194 187 182 176 172 172 167 154 118 106  88  84  76  66  57  54  45  45  40  39  42  42  42  44  47  57  61  80  81  93 105 119 122 121 127 127 127 127 134 137 138 140 142 138 138 138 142 144 146 143 147 143 145 154 156 157 159 158 157 156 156 154 156 158 159 160 159 152 118  85  22  33  28  15 212 246 243 243
 245 245 245 249 123  24  50  49  45  46  32  52 173 202 196 186 179 174 170 170 144  99 102  98  81  74  64  58  56  53  49  45  41  40  40  40  38  42  46  49  61  70  80  92 101 112 113 118 122 123 118 121 130 129 133 134 132 129 128 127 134 138 134 135 130 137 133 129 146 152 152 158 153 155 154 152 155 158 159 160 162 157 105  71  29  34  27  13 146 248 243 243
 245 245 245 249 144  27  48  47  47  48  30  79 187 208 223 215 152 201 201 212 161 126 106  89  63  40  34  38  47  50  49  41  41  38  36  40  41  43  48  53  60  68  71  80  96 106 112 116 117 116 118 118 121 124 124 120 124 119 120 118 112 105  94  82  74  77  86  96 106 126 135 133 142 152 153 152 154 157 159 160 158 162  75  72  32  32  31  31  96 250 243 243
 245 245 245 249 157  18  47  48  38  20  60 158 200 179 168 151 130  93  83  44  48  87 115 149 152 136  98  62  39  54  54  68  62  58  56  51  48  49  52  56  65  70  76  81  92 100 105 113 115 115 114 113 110 113 117 114 104 105 108  97  97  84  70  56  56  38  39  51  82 105 107 102 112 134 154 153 155 156 157 158 158 162  79  55  33  35  31  38  76 250 244 245
 245 245 245 249 178  17  43  15  55 154 182 153 165 163 160 169 176 167 159 120 115 135 172 169 162 157 173 178 150 126 116  96  89  83  67  60  60  59  62  68  70  75  85  89  94  99 105 109 113 115 113 111 111 112 109 106 104  96  82  77  78  67  56  50  39  45  50  54  47  54  72  81  76  97 147 155 156 155 156 157 158 166  88  40  37  35  34  39  68 248 244 245
 245 245 243 249 212  19  14 133 147 137 127 148 150 157 122  48  40  77 116 125 124  81  48  38  49  83 117 135 145 140 116 119 108 102 104  90  73  66  60  68  70  74  83  91  97 100 107 111 114 115 115 114 113 112 110 103  88  87  82  79  66  55  47  40  42  44  46  49  54  54  69  77  80  65 118 157 156 156 156 157 157 171  83  34  39  35  34  29  78 250 245 245
 244 243 244 247 239  37  42 171 157 168 123 133 142 133 127  44  14  12  10  89 103  82  85  86  94 115 116 104  78  53  49  72  93 111 107 106 109  98  86  60  49  52  75  98  96 105 109 115 116 116 116 117 118 113 109 104  94  84  79  72  61  53  47  46  45  45  45  46  49  52  64  77  80  74  84 128 157 154 157 157 157 167  74  32  38  32  33  17  98 250 244 245
 243 244 244 242 244 144 100 118 119 198 173 151 156 117 139 146 112  73  44  92  89  83  84  88  89  82  68  71  77  80  81  81  84  91  85  78  85  97 102 106 109  94  59  65 102 103 112 117 117 118 119 122 121 116 110 103  92  86  80  74  68  64  57  54  48  46  43  45  51  56  64  74  78  79  69 108 149 153 156 156 155 164  60  29  36  32  30  14 157 250 244 245
 227 233 217 210 226 201 116  23  20  34 160 186 213 189 151 128 118  98 101  89  83  82  80  81  77  78  83  84  48  33  33  31  32  33  43  73  81  77  89 121 125 118 148 196 120  88 106 129 128 129 129 131 130 116 111 101  92  87  81  77  74  70  66  70  74  67  68  66  46  46  65  74  80  82  73  92 136 154 155 156 155 156  51  34  31  33  33  15 240 250 245 245
 226 180 141 145 161 167 131  49  50  20  38 178 155 190 178 200 161 102  96  90  83  80  79  68  66  81  70  42  53  67  41  43  43  45  46  40  73  77  73  67  83  96 102 120 186 206 176 147 137 134 132 130 127 119  98  88  81  73  69  61  63  64  66  69  73  82  84  82  84  76  75  75  82  84  87  79 125 153 157 157 154 151  32  27  33  35  18  40 250 244 245 245
 181 117  74  79 108 113 126  86  45  28  59 183 161 145 148 108  88  99  95  93  80  75  63  63  64  44  38  68  85  83  37  47  46  46  49  36  81  76  75  75  76  85  92  90  73 168 125  96 146 176 176 166 154 146 136 133 131 126 116 110  98  80  71  50  38  35  44  62  68  71  71  87  79  76  77  84 122 153 157 160 163 135  29  28  35  34  13 190 250 244 245 245
 139  79  97  90  95 114 124 118  31  44  86 175 159 155 150 128  96 101  93  91  79  71  64  61  50  47  46  97 110 100  60  51  49  50  50  40  84  88  67  69  75  79  86  86  88  92 134 140 128 105  88  98 128 152 211 207 193 184 187 197 201 213 217 222 222 220 208 182 167 139 104  79  78  80  76  83 125 154 157 157 171 114  22  39  32  25  64 246 246 244 245 245
 115  83  94  92  95 113 119 138  27  43 109 168 158 155 147 135 110  94  90  84  72  72  63  54  52  54  70  94 106 114  68  62  62  42  70  77 115  97  68  58  58  73  77  86  85  66  47  65  78  79 112 137 140 179 141  78  61  68  59  51  64  72  77  93  98 107 115 130 162 188 218 230 225 195 179 143 125 135 144 157 172  90  27  39  35  16 201 249 244 245 245 245
 111  87  90 103 115 104 120 129  47  52 127 168 158 150 146 136 108  97  96  88  72  71  81  87  92  86  85  91 101 111  99  71  69  66  82 115 118 108  62  62  60  59  70  84 100  56 105 132 144 145 134 116  57  95 112  81  74  45  56  71  73  71  74  68  86 100 114 114 112 102 107  50  80 114 155 200 229 235 211 187 185  74  37  40  27 106 247 244 243 245 245 245
 106  96  86 127 128  98 117 137  52  45 139 172 155 151 145 133 124 114 105 105  99 100 108 106 111 113 101  97  99 102 104 106  93  98 110 105  86  66  69  66  64  61  82  90  90  70 124 138 143 142 146 134  45  68 113  82  67  59  52  42  37  45  47  56  47  55  59  86 104 116 124  84  89  93  91  95 104 120 159 187 199 158  52  34  18 174 248 244 245 245 245 245
  96  97  82 145 128 104 110 133  65  53 156 167 156 151 147 130 132 126 111 122 120 115 110 102 107 106 104 101 100  97  92  93  89  75  59  50  55  67  68  68  67  69  71  68  48  85 131 138 149 148 146 140  51  56  96  92  66  66  61  54  40  33  30  57  56  48  70  58  49 100 117 102  98 103 109 109 108 138 149 157 131 105  94  18  37 240 248 244 245 245 245 245
  93 103  91 151 127 118 115 132  50  81 156 164 159 152 148 146 142 141 142 128 116 120 134 128 106 108 106 107 103  92  86  76  76  76  74  71  70  68  70  67  72  70  70  75  48 120 144 164 158 153 148 149  47  61 151  79  70  64  69  80  25  39  38  33  46  50 100 120 108  54  79 106 101 104 106 108 109 157  88  84  66  64  78  14 137 250 244 244 245 245 245 245
  95  99 122 142 127 114 119 125  52  69 169 164 160 154 150 148 155 155 157 152 142 110  85 105 162 144 121 102  74  66  76  79  78  75  74  74  69  76  74  87  82  89 104  86  81 140 165 169 161 158 155 157  59  57 143  56  54  61  67  94  41  39  39  39  45  37 113 122  98  62  64  89  95 101 105 109 100 159  55  64  68  98  49  18 245 248 244 245 245 245 245 245
  94  99 148 126  85  77  66  54  70  90 172 164 163 156 153 153 153 169 178 187 182 158 119  87  52  55  94 141 140 134  89  63  50  54  66  70  81  82  88  89  95 100 127  61 130 157 170 175 178 166 164 162  93  55 115  75  64  66  66  84  68  45  40  42  42  57 117 118  90  58  65  78  94  96 101 107  93 180  86  72  48  93  17 121 250 245 244 245 245 245 245 245
 114 100 156 107  79  72  62  61  76 108 173 167 167 159 156 157 165 181 190 195 196 192 165 138 116 101  87  63  58  61  88 118 140 141 121 102  94  90  96 101 107 103  73 105 140 170 171 177 175 168 167 161 142  44  95  75  70  66  69  75  77  79  58  51  68  96 109 103  84  68  69  65  77  92  98 105  88 180 101 115  18  63  34 229 247 245 245 245 245 245 245 245
 121 116 152 103  66  67  58 107  49 109 175 169 169 164 163 162 174 182 191 193 197 208 198 169 146 107 109  99  95  91  86  80  63  62  72  83  93 102 105 106 101  82  86 124 144 174 175 176 174 171 167 161 158  94 109  85  64  68  69  71  76  79  87  94  90  92  73  72  81  77  76  76  79  87 100 105  68 185 170 154 103  99 188 249 244 245 245 245 245 245 245 245
 121 131 149  86  72  52 136 128  46 124 179 172 172 168 166 168 172 176 179 186 192 201 206 203 176 149 127 110 101  97  92  86  82  77  72  87  96 106 111 104  97  97 117 133 150 168 173 174 171 167 163 160 153 111 112  92  70  71  71  71  74  77  80  84  87  90  90  87  84  83  83  83  84  86  92 107  92 133 157 177 171 199 250 246 245 245 245 245 245 245 245 245
 136 152 153  83  81  47 181 117  43 133 173 173 174 173 170 168 168 168 170 178 183 186 189 190 187 169 143 131 108 104 109 100 111 122 129 132 125 120 112 103  98 113 116 142 157 166 172 173 170 166 162 158 152 134  99 110  76  77  71  72  74  76  79  83  88  92  93  92  89  90  90  90  89  90  94  99 117 126 124  99  21 191 249 249 243 244 245 245 245 245 245 245
 144 167 152  96  72  59 183  85  66 132 171 174 175 174 172 165 157 157 160 165 165 166 168 168 166 158 162 160 154 152 152 160 163 164 160 153 134 123 113 108 112 125 143 154 174 176 179 177 172 166 162 159 157 147 100 111 101  93  94  90  83  75  76  78  85  88  93  94  94  96  95  95  94  93 100 100 123 140 155  84  52 134 157 204 250 244 245 245 245 245 245 244
 143 180 145 103  83  63 175  62  81 130 175 174 177 176 173 165 159 158 159 162 159 158 170 179 185 199 203 203 199 195 190 175 166 164 161 151 136 124 120 120 127 144 160 173 192 201 191 184 173 171 165 161 158 151 106 112 107  99  94  91  91  93 100  94  84  90  95  96 103 108 105 102 105 108 105 118 131 142 166  50 109 127 142 149 215 247 245 245 244 243 244 245
 135 184 146 123  67  76 164  58  92 132 170 176 176 175 171 164 159 159 160 161 172 187 198 204 213 211 210 211 200 190 178 169 160 155 145 142 136 120 124 131 139 157 174 182 191 193 194 188 183 175 170 166 161 151 125 116 112 113 104  97  93  92  95  96 103 104 108 113 113 111 114 117 118 122 125 127 139 147 170  37 111 124 100  85 150 250 245 243 240 241 244 245
 118 193 140 158 174 156 140  69  88 126 167 176 176 175 170 162 157 159 165 171 180 192 192 201 205 210 210 205 189 181 176 161 155 147 142 137 122 127 125 130 143 161 177 180 187 191 192 191 187 180 174 168 164 153 140 121 116 114 113 108  99  99 100 100 102 101 104 107 111 113 117 119 123 125 129 134 144 151 165  33 104  86  71  64 125 250 244 243 240 239 243 243
 113 196 138 147 228 204 116  71 103 129 162 174 177 175 169 161 159 163 166 173 179 184 185 189 196 196 189 185 182 172 162 156 147 140 125 115 109 114 127 127 145 160 175 180 186 190 191 186 181 179 176 170 165 157 145 130 119 120 118 116 112 107 104 108 106 109 110 110 107 113 123 128 131 133 135 137 147 154 156  34 104  88  89  58 120 250 244 243 241 239 240 240
 116 200 140 183 224 188 119  67 110 129 164 174 174 175 161 157 158 162 167 172 173 176 180 182 181 176 175 169 162 153 147 136 126 115 104  91  91 117 137 153 159 166 176 183 186 187 188 182 177 175 174 170 165 158 150 132 126 123 122 124 120 120 120 116 117 120 120 124 129 132 130 138 140 139 141 145 149 154 136  60  97  92  87  71 149 250 245 243 243 242 243 242
 110 200 169 213 185 165 107  84  96 122 156 168 172 171 156 156 158 162 166 166 163 162 165 164 168 162 153 148 144 138 118 118 113 101  87  68  98 134 158 164 174 173 176 182 184 180 182 178 175 174 171 168 166 155 149 137 131 126 126 127 128 128 126 125 125 128 133 135 139 144 143 147 147 145 144 146 151 163 110  76  97  90  72  73 206 250 245 243 244 244 244 244
  89 214 220 231 189 161 112  86 101 115 151 164 164 160 152 151 156 158 159 159 158 155 150 146 149 144 137 131 130 116 115 109  94  83  71  63 110 149 163 164 167 172 177 178 176 169 165 171 174 173 167 166 166 156 145 136 122 125 127 129 131 134 133 135 131 131 137 139 143 145 145 146 148 149 146 148 153 167  87  84  96  93  68  71 247 245 245 245 245 245 245 245
  70 238 230 225 194 158 105  93 105 112 134 164 159 152 148 149 153 153 151 150 145 143 135 133 132 130 129 128 121 107 102  93  91  72  65  54 111 154 152 162 171 170 169 180 168 160 153 150 152 151 159 160 160 157 150 133 114 119 125 130 133 137 138 139 141 142 142 143 143 146 146 147 148 149 146 150 153 174  62  95  99  94  72 126 250 244 245 245 245 245 245 245
  73 237 226 206 159 138 108  93 109 114 125 146 151 145 142 146 149 151 150 138 134 130 128 122 124 122 117 115 110 105  95  91  74  63  62  38 115 122 137 137 142 146 156 153 155 145 137 138 142 150 150 154 158 156 157 150 101 109 118 127 132 135 139 144 145 147 147 147 145 147 148 148 149 150 150 152 155 173  36  95  99  97  86 208 248 244 245 245 245 245 245 245
  67 231 214 170 153 184 125  81 114 118 129 135 145 136 135 140 141 137 133 129 127 124 121 117 114 113 113 110 104  98  88  83  65  64  62  32 104 115 117 119 118 120 128 131 132 133 131 128 131 137 146 150 155 153 151 156 136  92 108 120 130 133 141 145 148 150 151 151 158 154 153 151 150 150 152 154 156 163  37  95 103 102 102 247 244 245 245 245 245 245 245 245
  39 212 181 158 167 185 121  95 101 106 117 121 144 131 126 131 131 132 122 124 119 118 115 107 110 109 104 104  96  90  83  75  71  70  66  59  82  92  96  97  96  94  96 107 109 115 114 119 124 130 132 138 144 148 147 151 160  72 100 115 124 133 140 144 149 152 153 156 158 159 159 155 151 150 151 153 157 154  37  99 105  95 187 249 245 245 245 245 245 245 245 245
  55 166 159 153 159 142 107 106 105 102 118 125 132 121 124 120 125 122 121 118 117 110 109 108 108 103 100  97  93  85  80  77  75  74  76  77  70  74  76  61  62  74  89 100 105 107 109 112 116 119 123 127 131 134 137 144 165  69  95 108 121 126 135 144 148 152 153 156 159 162 162 159 155 152 151 151 158 135  46 102  95 124 245 246 245 245 245 245 245 245 245 245
  72 128 143 136 137 109 100 100 102  94 109 114 122 116 101 113 113 116 104 115 111 107 105 101  96  96  95  95  89  84  81  80  79  84  81  80  76  64  44  54  43  18  45  85  94  95  99  99 103 111 116 111 114 117 121 131 138  71  89 105 114 120 128 135 143 148 150 155 159 160 160 159 155 152 153 151 155 120  53 103 100 227 245 245 245 245 245 245 245 245 245 245
  86  77 114 127 112 101 101  98  97  97 119 110 115 113  99  99 107 105 100 104 107 103 101  99  98  95  93  92  89  85  84  84  85  84  83  82  83  60  58  55  55  51  41  62  78  83  88  92  98 100 104 107 103 104 109 121 121  87  87  98 105 114 124 134 140 145 148 152 158 159 159 158 156 153 152 151 156  93  48 105 203 247 245 245 245 245 245 245 245 245 245 245
  85  81  92 103 107  97  97  99  96  94 102  89 103  96  88  93 100  94  92  94  99  97  97  96  94  93  92  89  86  84  83  83  84  85  84  80  76  60  57  56  54  55  56  54  71  77  79  87  93  93  95  82  52  46  88  95 106  94  91  96 104 112 119 133 139 141 147 151 152 157 159 157 154 152 151 151 151  60  67 166 249 244 245 245 245 245 245 245 245 245 245 245
  82  83  84  82  78  93  97  98  95  91  89  88  99  82  59  83  85  84  85  91  94  95  94  92  92  92  90  88  84  83  82  81  82  87  85  75  68  54  54  50  50  50  51  54  63  70  73  77  80  81  80  73  66  57  80 108 104  97  94  96 102 109 117 130 134 138 142 145 145 154 157 157 154 152 149 149 138  35  82 245 246 245 245 245 245 245 245 245 245 245 245 245
  81  79  81  82  83  88  96  96  93  92  85  81  91  77  63  75  72  72  79  83  92  95  93  92  90  89  87  85  79  80  78  74  72  75  72  65  46  50  46  40  38  40  46  48  54  56  61  65  71  72  75  74  74  80  89 113 108 105  94  95 101 106 113 119 129 132 140 142 143 148 155 154 152 150 148 145 119  22 133 249 245 245 245 245 245 245 245 245 245 245 245 245
  79  77  78  78  79  85  95  94  91  92 107  71  80  79  75  73  73  64  74  79  89  93  92  89  89  86  81  80  79  68  63  57  45  45  55  44  45  44  41  36  25  30  30  38  47  50  48  48  47  52  70  75  82  92 107 110 112 109  96  93  96 105 110 117 122 131 135 140 144 147 151 153 150 147 140 129 109  25 200 248 245 245 245 245 245 245 245 245 245 245 245 245
  75  73  73  64  69  68  97  88  89  92 100  69  76  75  72  72  72  65  58  74  87  91  91  89  88  83  79  71  63  54  49  42  45  50  49  47  45  43  38  32  31  30  31  34  41  42  38  39  38  40  55  70  82  91 107 114 115 111 101  95  96  97 106 119 118 125 131 135 139 148 150 150 147 140 138 119  93  24 233 245 245 245 245 245 245 245 245 245 245 245 245 245
  60  64  65  66  69  72  87  78  85  91  88  82  73  67  68  69  67  61  61  72  82  88  88  89  84  80  72  71  53  43  38  40  41  48  49  46  47  44  37  34  34  33  34  35  40  39  36  37  39  42  45  56  72  92 109 113 113 112 104  98  97 100 108 111 116 125 129 131 133 140 148 145 144 136 128 114  67  36 246 245 245 245 245 245 245 245 245 245 245 245 245 245
  73  76  78  80  81  72  81  81  76  78  80  74  65  61  64  68  66  60  54  70  79  84  86  85  82  75  67  52  39  28  26  28  33  55  46  43  45  40  33  35  36  33  31  37  37  36  34  36  38  40  44  53  53  75 107 104 110 108 101  97  95  96 105 110 118 121 126 129 131 135 137 141 140 131 123 112  54  42 247 245 245 245 245 245 245 245 245 245 245 245 245 245
  51  36  16  14  10  16  88  88  64  64  72  73  67  59  59  65  63  62  60  61  76  81  84  85  81  74  61  42  33  30  27  35  43  61  76  79  77  81  67  66  61  51  22  25  37  36  38  40  40  41  44  47  51  49  89  90  96  91  91  97  91  84 103 109 114 120 124 127 128 131 133 132 131 128 118  83  46  76 239 245 245 245 245 245 245 245 245 245 245 245 245 245
   6   8  10  15  16   6  87  94  77  68  63  71  69  59  59  59  58  58  48  58  70  81  84  85  82  73  60  39  35  29  25  36  51  64  66  58  64  64  66  65  78  92  94  76  51  39  35  33  44  41  44  48  51  57  65  79  78  76  83  86  82  90 102 110 114 118 123 124 126 126 122 121 120 119 103  83  46  80 247 245 245 245 245 245 245 245 245 245 245 245 245 245
  16  17  18  16  17   6  91  92  79  71  70  70  69  63  60  56  53  51  51  52  63  74  81  82  81  80  59  47  37  34  26  17  31  39  37  42  46  49  52  55  59  68  84  92  96  94  87  82  72  61  60  54  52  59  60  59  56  61  73  84  80  83 102 110 114 116 117 121 120 119 112 114 100  96  91  79  30 121 250 244 245 245 245 245 245 245 245 245 245 245 245 245
  12  13  16  22  24  19 102  85  76  70  68  69  68  66  57  54  51  50  51  52  61  73  77  81  83  80  66  53  46  42  41  46  39  37  40  40  31  30  35  42  47  55  54  67  75  77  83  87  81  80  79  71  71  68  60  51  45  47  51  67  76  77  94 107 113 115 116 116 115 112 109 109  98  87  88  78  22 220 247 244 245 245 245 245 245 245 245 245 245 245 245 245
  52  51  56  63  56  61  84  82  67  65  66  67  67  63  56  52  50  50  49  51  58  70  76  81  83  78  71  59  54  51  55  60  64  66  64  66  70  72  58  37  33  43  49  62  63  64  60  65  63  67  69  80  75  73  63  50  34  37  40  47  64  64  86 111 111 115 114 110 106 103 106 106  96  93  86  70  36 250 244 245 245 245 245 245 245 245 245 245 245 245 245 245
  61  59  62  63  61  63  80  99  56  60  57  66  65  61  55  51  49  46  46  48  55  70  74  79  80  79  72  64  64  62  70  78  84  82  86  84  84  83  92  96  97  79  59  31  33  45  40  39  41  51  54  53  64  76  63  51  16  33  35  40  50  66  84 106 109 112 112 104  93  91  99 107  95  92  82  44 122 250 244 245 245 245 245 245 245 245 245 245 245 245 245 245
  63  65  59  63  69  72  80 116  64  57  55  54  62  58  55  50  47  45  43  42  58  64  73  78  79  76  72  71  70  75  78  80  87  92  97 100  98  93  89  89  92  98 101  95  92  90  86  75  62  48  50  47  44  38  51  36  19  31  31  34  45  67  84 102 109 111 107 102  97  84  91  96  88  85  79  26 190 249 245 245 245 245 245 245 245 245 245 245 245 245 245 245
  72  72  75  74  73  73  83 126  58  55  53  50  51  53  55  49  45  43  43  41  59  65  74  78  78  74  71  72  77  79  83  86  88  91  94  95  96  95  96  96  95  97  99 107 108 108 106 113 105  98 104  93  85  78  67  60  44  29  38  39  60  72  88 110 108 107  91  88  81  82  80  77  80  75  64  28 232 247 245 245 245 245 245 245 245 245 245 245 245 245 245 245
  75  75  76  76  75  75  63 147  65  50  52  48  47  48  49  48  42  42  43  42  52  67  73  76  76  73  71  72  77  83  85  85  88  89  90  91  88  87  89  88  89  92  96 101 106 108 108 110 111 110 106 110 112 111  97  78  49  48  45  51  66  87  96 105 108 105  90  62  73  76  79  68  73  65  42  76 250 244 245 245 245 245 245 245 245 245 245 245 245 245 245 245
  77  77  76  76  75  74  51 172 114  52  50  46  43  43  43  43  41  38  40  43  52  62  69  74  73  71  70  70  77  81  85  87  89  90  89  87  86  82  78  77  79  81  85  86  90  95 107 106 113 115 116 117 117 111 105  88  72  61  61  74  82  97 101 105 105 102  77  63  63  71  71  67  68  70  35 144 249 244 245 245 245 245 245 245 245 245 245 245 245 245 245 245
  76  76  76  76  76  74  38 177 142  92  41  46  41  39  38  37  37  35  38  41  47  59  66  71  71  68  68  70  74  80  84  86  87  89  88  86  81  75  60  56  59  55  67  70  72  74  80  92  97 100 111 114 115 111 106  99  88  76  72  83  89  98 103 104  99  92  75  51  60  66  67  65  64  62  26 224 247 245 245 245 245 245 245 245 245 245 245 245 245 245 245 245
  78  77  77  77  75  74  37 177 141 105  52  43  42  38  35  33  34  34  36  40  45  54  64  69  69  66  63  66  71  78  82  85  87  87  88  86  81  74  65  60  56  56  57  57  59  63  71  75  88 104 109 112 113 111 110 107  99  87  81  85  93  99 102 101  96  80  69  57  55  59  61  62  63  57  55 249 245 245 245 245 245 245 245 245 245 245 245 245 245 245 245 245
  78  78  77  75  75  72  39 180 137 111  80  35  41  37  33  32  31  34  35  39  46  54  61  66  67  67  63  65  72  78  81  86  88  89  89  86  83  75  65  61  54  51  51  52  54  55  57  69  85  96 106 109 112 112 112 110 105  98  90  89  95 101 103  99  89  70  63  49  54  54  56  57  54  41 103 250 245 245 245 245 245 245 245 245 245 245 245 245 245 245 245 245
  77  78  78  75  73  71  24 185 145 120 101  40  37  37  34  31  29  32  35  39  47  55  58  57  61  62  61  61  73  78  82  86  89  89  89  88  86  82  72  50  48  48  51  51  53  56  59  69  87  95 103 109 112 115 114 111 107  98  93  92  95  99 100  98  83  67  55  53  51  52  50  52  31  50 240 247 245 245 245 245 245 245 245 245 245 245 245 245 245 245 245 245
  78  77  77  75  73  70  19 187 150 119 105  70  38  37  33  31  33  31  33  38  44  56  54  53  55  58  60  62  68  77  81  86  90  93  92  93  89  88  87  82  72  64  52  49  44  52  65  79  91  99 107 111 113 113 111 109 106  98  95  94  95  97  98  92  81  64  64  56  53  50  50  39  18 142 250 244 245 245 245 245 245 245 245 245 245 245 245 245 245 245 245 245
  78  77  76  75  72  69  17 186 147 121 106 103  47  35  33  32  32  32  32  35  38  46  48  47  49  52  54  57  58  71  81  86  91  94  97  99 107 103 107 106 102  94  76  73  77  82  87  90  96 105 111 111 112 111 109 104  95  95  95  95  95  95  94  90  75  66  63  61  55  51  51  32  45 242 245 244 245 245 245 245 245 245 245 245 245 245 245 245 245 245 245 245
  68  65  70  70  59  57  20 187 149 116 106  94  74  31  36  34  32  31  31  32  33  40  43  44  43  42  45  46  48  69  79  86  93  98 102 106 109 111 108 106 102  96  96  96 106 114 115 110 104 107 110 111 111 109 106 101  95  92  93  94  93  91  88  83  70  63  62  56  55  55  53  20 154 249 244 245 245 245 245 245 245 245 245 245 245 245 245 245 245 245 245 245
  69  92 105 110 111  79  81 186 146 123 101  90  80  47  37  31  29  26  26  29  32  36  34  26  28  37  40  45  53  73  76  85  93 101 104 105 112 112 109 105 101  99  97 105 109 119 124 123 114 111 112 111 111 108 105  98  95  93  91  91  91  90  81  70  63  52  49  47  48  50  44  31 227 246 244 245 245 245 245 245 245 245 245 245 245 245 245 245 245 245 245 245
 245 249 249 150 188 204 189 170 146 122 101  90  77  66  39  29  29  26  24  25  29  32  29  27  26  33  38  49  61  68  73  83  92  97  99 100 104 108 106 102 102 104 100 101 102 126 124 126 124 121 118 116 113 110 105  98  90  88  87  88  89  83  66  61  53  45  43  43  45  47  25 120 249 244 245 245 245 245 245 245 245 245 245 245 245 245 245 245 245 245 245 245
 183 142 122  76  63  95 109 175 145 128 104  90  81  75  51  23  28  26  24  27  29  28  27  25  26  34  42  48  54  64  70  79  87  92  90  98  94 101  97  93 102 102  97  94  99 118 123 127 127 123 121 121 117 113 105  95  89  85  84  85  82  74  59  47  45  40  39  40  43  28  44 244 245 245 245 245 245 245 245 245 245 245 245 245 245 245 245 245 245 245 245 245
  18  14  13  11  11   9  51 180 143 126 104  88  79  72  60  35  28  24  24  25  27  27  24  25  30  35  41  47  51  57  62  65  71  77  80  80  80  75  77  82  91  91  90  82 100 116 121 125 125 124 122 120 117 112  99  91  85  82  81  81  77  64  56  46  40  35  33  37  19  20 227 248 244 245 245 245 245 245 245 245 245 245 245 245 245 245 245 245 245 245 245 245
  28  17  15  20  21  11  57 172 141 128 101  81  75  70  76  43  23  26  23  23  24  25  23  25  29  34  38  42  44  48  54  57  61  66  68  68  70  70  63  66  74  78  80  77  93 100 110 118 120 121 126 119 113 104  95  86  80  65  59  58  64  60  56  49  37  33  33  38  13 111 250 245 245 245 245 245 245 245 245 245 245 245 245 245 245 245 245 245 245 245 245 245
  20  20  20  17  16   9 101 163 141 124 100  84  76  70  72  50  30  27  23  22  22  22  23  25  27  32  35  39  40  43  47  51  52  54  57  59  59  59  54  53  50  68  68  72  78  87  95 100 100 107 109 107 100  89  76  72  70  66  57  54  54  54  53  47  39  34  34  31  18 224 247 245 245 245 245 245 245 245 245 245 245 245 245 245 245 245 245 245 245 245 245 245
  22  20  19  17  16   7 129 159 141 125 104  80  75  69  64  52  39  29  24  22  22  21  21  24  28  31  34  35  35  36  41  45  43  49  51  50  50  49  49  50  51  58  59  63  71  76  81  88  79  82  85  97  87  80  70  57  45  52  49  50  45  48  47  45  37  35  30  41  60 249 245 245 245 245 245 245 245 245 245 245 245 245 245 245 245 245 245 245 245 245 245 245
  20  20  18  16  16  10 159 153 142 111 113  91  77  67  63  55  46  35  21  22  20  19  20  23  28  29  30  31  31  27  34  38  38  41  43  41  43  45  44  44  48  45  42  55  64  65  64  77  79  77  75  77  83  71  66  57  47  42  36  41  41  39  40  40  37  37  35  70 178 248 245 245 245 245 245 245 245 245 245 245 245 245 245 245 245 245 245 245 245 245 245 245
  18  18  18  16  15  19 173 154 140 127 106  84  76  69  60  52  44  39  27  21  18  18  20  24  26  27  27  26  26  27  29  31  32  34  36  35  37  39  39  38  39  45  46  44  50  52  47  45  58  61  62  65  68  55  57  51  43  37  36  36  33  31  30  33  37  41  74  64 243 247 245 245 245 245 245 245 245 245 245 245 245 245 245 245 245 245 245 245 245 245 245 245
  20  18  19  18   6  65 172 157 142 124 109  79  75  68  59  51  44  41  38  23  20  20  19  22  25  25  26  25  25  24  25  26  26  27  28  27  30  34  33  30  32  39  41  44  45  42  44  45  43  45  52  54  57  56  51  45  41  36  34  35  33  32  33  36  38  60  86  77 250 245 245 245 245 245 245 245 245 245 245 245 245 245 245 245 245 245 245 245 245 245 245 245
  22  19  18  16   8 127 162 157 145 124 112  83  74  68  60  53  47  41  36  27  22  20  20  21  22  23  24  23  22  22  22  22  22  22  22  22  24  26  28  27  24  29  33  36  38  37  37  38  39  42  42  39  46  49  48  43  38  34  34  34  31  28  31  41  47  79  80 116 250 245 245 245 245 245 245 245 245 245 245 245 245 245 245 245 245 245 245 245 245 245 245 245
  14  15  16   7  21 161 162 158 146 128 114  82  73  67  62  54  47  44  38  30  25  23  20  20  20  21  19  19  19  19  19  19  21  19  19  20  19  21  21  21  21  22  24  28  33  34  31  31  30  31  29  41  40  43  46  39  34  31  31  29  27  27  13  44  68  87  76 176 250 245 245 244 245 245 245 245 245 245 245 245 245 245 245 245 245 245 245 245 245 245 245 245
  52  35  14  14 133 164 160 156 147 134 112  93  75  66  61  55  48  43  39  32  26  21  21  20  20  19  19  17  17  17  17  17  17  18  19  18  16  16  17  19  21  21  19  22  27  29  28  26  26  26  29  30  34  39  36  31  30  28  28  26  26  23  45  50  78  88  97 150 238 250 249 245 245 244 245 245 245 245 245 245 245 245 245 245 245 245 245 245 245 245 245 245
