P2
92 112
255
 245 245 245 245 245 245 245 245 245 245 245 245 245 244 243 243 243 244 245 244 244 249 228 192 136 110  48  54  93  93  95  88  92  96  78  58  69  86  66  63  46  44  51  53  61  71  49  43  94  72  42  25  19  15  38  54  71  80  68  40  43  52  37  26  44  59 122 207 233 234 233 229 232 228 226 226 222 221 221 219 223 224 224 219 219 217 212 194 182 154 135  89
 245 245 245 245 245 245 245 245 245 245 245 245 245 245 244 244 243 243 243 244 247 217 139  98  56  61  51  82  82  80  77  88  92  69  52  63  59  41  39  32  38  46  49  52  57  45  48  49  39  30  40  41  41  42  45  48  56  70  85  84  53  51  52  59  56  45  56 125 140 188 206 217 213 207 213 215 215 220 211 210 210 200 191 176 153 121 136  85 111 142 196 224
 245 245 245 245 245 245 245 245 245 245 245 245 245 245 245 244 243 241 239 233 197 158  71  47  65  62  72  82  66  56  59  48  47  50  52  52  39  27  31  31  36  41  46  48  48  48  46  38  30  32  37  40  43  49  54  56  57  52  56  69  59  56  54  59  62  58  66  83 113 136 161 170 196 209 201 199 183 166 161 138 117 117 122 150 173 196 222 240 244 245 243 239
 245 245 245 245 245 245 245 245 245 245 245 245 245 245 245 245 243 242 244 218 151 118  82  64  68  69  66  55  49  50  46  44  45  48  45  40  36  31  31  30  32  37  42  42  37  36  28  22  27  26  30  32  34  41  45  47  48  47  45  57  64  61  58  58  66  63  70  60  44  54  68  93 129 121 117 117 132 157 178 201 224 237 244 246 243 243 241 240 238 237 237 238
 245 245 245 245 245 245 245 244 245 245 245 244 244 245 244 243 243 248 235 154 104  91  66  63  58  47  52  56  48  45  43  39  39  40  36  34  30  28  28  29  30  32  34  34  32  28  27  23  23  25  24  24  23  23  29  40  37  32  31  25  30  35  45  54  56  81  74  77  81  50  69  75 118 162 204 232 235 238 238 242 239 237 237 237 238 237 238 238 238 239 239 241
 245 245 245 245 245 245 245 244 243 243 244 243 243 243 243 242 243 241 152  86  39  40  53  56  50  44  47  44  44  41  40  37  35  29  30  30  27  25  25  28  30  31  29  28  27  24  23  21  21  21  20  21  19  18  20  22  45  40  40  36  32  32  35  41  43  85  83  87  86  53  43  51  66 147 225 235 238 235 236 237 238 237 237 238 238 238 239 241 240 240 241 241
 245 245 245 245 245 245 245 243 243 243 243 243 243 242 242 247 240 149  56  37  42  48  51  50  47  45  44  45  45  44  39  35  33  31  30  28  26  25  27  28  29  29  27  24  23  23  23  23  23  21  21  19  18  17  17  17  21  40  38  35  33  31  32  35  39  40  44  51  43  37  50  45  20 125 205 238 235 238 237 237 237 238 238 240 241 240 239 241 241 240 241 241
 245 245 245 244 243 243 243 244 244 243 243 241 241 242 247 232 172  72  58  41  42  44  48  46  47  47  43  49  51  47  42  40  39  36  34  31  28  28  28  28  28  26  27  27  27  27  26  27  26  25  23  22  20  19  18  18  18  27  34  35  34  30  28  29  37  40  43  54  87  75  49  53  82  22 144 243 235 235 237 238 237 238 239 240 241 240 241 240 241 242 241 241
 244 244 245 244 244 243 243 241 241 243 241 242 240 242 240 160 144  54  44  39  41  45  45  50  55  57  65  61  58  49  48  48  45  41  38  35  34  33  33  32  31  31  32  35  36  33  32  33  34  34  30  27  24  23  20  20  20  20  29  34  34  31  28  29  33  37  43  51  50  49  52  59  59  79  17 166 236 237 238 238 240 241 241 241 240 241 240 241 241 242 242 242
 242 242 243 243 242 241 241 241 241 241 240 239 237 233 153 105 114  52  42  41  45  48  63  50  48  74  83  83  51  50  55  49  48  42  40  35  27  32  35  37  33  24  35  35  37  36  38  32  42  41  28  32  28  23  12  12  16  17  17  28  30  31  26  27  28  32  38  43  50  60  74  58  35  58  90  26 204 238 236 240 241 240 241 241 241 241 241 241 242 241 241 241
 242 241 241 243 241 240 241 240 239 239 238 236 242 182  97  90  54  44  48  46  49  57  49  79  79  87  90  61  79  87  83  79  69  51  52  58  56  55  47  34  45  57  55  60  48  50  44  46  55  38  53  49  44  51  55  51  45  41  33  25  32  30  27  27  28  32  35  40  39  34  56  78  61  22 134 125 132 243 238 238 241 241 241 241 241 241 241 242 242 241 243 243
 240 240 241 240 240 239 239 238 238 237 237 235 210 117  93  98  39  48  52  57  57  52  80  92  90 100 107 119 121 126 122 115 103 100  94  93  88  77  75  77  82  87  92  91  92  95  94  98  97  97  82  87  95  89  87  84  69  56  47  40  33  31  30  28  30  33  37  40  40  41  46  53  60  55  70 160 140 217 240 239 240 241 242 241 241 242 242 242 244 243 243 243
 239 238 236 237 241 236 235 230 227 225 220 222 123 101  95  73  37  64  74  55  62  94  99 111 122 132 151 152 148 156 158 150 147 131 124 127 122 121 112 112 114 117 121 126 134 127 121 123 126 122 123 124 123 130 120 114 106  82  70  52  36  33  32  34  35  39  42  44  40  40  40  30  25  45  44  66 105 226 228 237 240 241 242 241 241 241 241 241 243 243 243 243
 232 233 234 228 222 219 219 220 220 216 214 162  77  92  80  49  45  85  94 103 122 128 129 147 161 166 167 174 172 173 179 166 153 152 146 141 146 137 133 131 135 137 137 138 137 137 143 141 142 140 146 145 140 135 139 136 125 115  92  63  39  33  32  44  52  39  30  33  39  41  36  33  32  24  34  34  31 234 224 238 239 241 242 242 243 243 243 243 243 243 243 243
 219 216 211 221 225 220 216 207 192 179 151  83  49  90  97  35  70 106 122 141 143 148 167 183 181 189 192 188 186 187 188 185 175 162 159 156 146 144 146 145 141 141 142 143 143 144 144 146 147 148 146 147 147 146 145 143 141 140 131 109  78  41  51  62  66  74 106 107 120 116  88  57  37  30  31  35  17 210 226 238 238 241 242 243 243 243 243 243 243 243 243 243
 212 207 194 177 164 144 110  81 128 110  76  77  67  72 109  50  98 146 154 149 172 194 189 190 191 189 188 187 188 188 188 186 183 178 166 159 156 154 152 151 148 149 148 147 147 147 148 150 151 153 151 151 152 154 153 149 149 150 145 138 127  95  53  32  83 138 149 157 151 162 140  91  49  38  30  25  27 109 227 239 238 242 241 243 244 243 243 243 243 243 243 244
 120 102  94 102 110 153 177 206 180  62  95  90  94  57  98  57 120 151 163 187 194 193 194 194 193 191 189 189 189 188 190 189 188 186 184 175 165 161 159 158 156 154 153 152 152 151 151 152 152 152 151 153 155 155 155 156 158 157 157 158 155 154 149 144 155 163 165 167 162 160 160 130  86  37  55  22  31  21 180 238 239 240 241 243 243 243 243 243 243 243 243 245
 173 204 223 243 246 245 244 240 127  59  91  88  85  36  73  79 135 164 185 191 194 195 193 192 192 189 187 186 185 185 188 188 187 185 182 177 169 165 162 159 158 155 154 154 153 152 152 152 152 152 151 152 154 154 156 159 160 160 159 159 159 159 166 168 172 169 168 168 167 167 165 156 137  68  57  35  38  26  22 227 238 240 242 243 244 243 243 243 243 245 243 245
 244 243 242 240 242 241 245 204  69  97  81  69  64  41  62  79 148 188 190 190 192 192 188 188 186 182 180 179 178 179 181 182 181 183 178 174 168 165 162 159 157 155 154 154 151 151 152 152 152 151 150 150 151 152 153 156 159 160 159 161 161 160 161 164 165 168 168 169 169 168 165 158 150  92  45  41  37  28  23  90 248 240 242 241 243 243 243 243 243 244 245 245
 237 238 240 240 241 242 231  88  52  73  76  61  51  48  63  79 162 192 191 194 193 189 184 175 175 172 171 173 173 175 177 174 175 175 169 168 168 162 160 157 154 154 152 152 151 152 152 152 153 153 152 150 151 151 151 154 157 157 157 158 160 160 160 161 162 164 166 169 169 169 166 162 160 107  63  41  39  31  39  18 215 243 241 243 243 243 243 243 243 244 245 245
 240 240 241 240 239 244 179  37  55  51  58  52  44  54  63  76 176 183 190 194 193 189 176 172 168 164 158 155 157 160 159 162 161 156 156 154 153 156 156 156 153 151 150 148 149 150 151 152 152 153 152 152 151 152 151 153 155 156 157 158 157 158 159 159 160 161 162 166 167 168 167 167 151 133 104  44  34  37  32  41  89 249 240 243 243 243 243 243 244 245 245 245
 241 241 242 241 242 242  93  18  53  50  49  47  51  63  46 110 168 175 188 191 190 179 167 165 161 158 153 152 154 155 150 149 141 140 145 147 150 149 151 152 150 150 148 147 147 148 151 152 152 152 151 150 150 151 150 151 152 152 154 155 156 156 157 157 159 160 161 162 166 168 167 167 164 133 144  69  31  38  36  42  24 224 245 243 243 244 245 245 245 245 245 245
 242 242 242 241 249 158  45  43  49  46  43  44  49  67  41 142 171 175 185 188 184 172 167 162 158 147 146 147 145 145 144 143 140 139 137 139 139 144 147 148 148 148 148 148 147 147 148 148 149 149 148 148 149 148 147 147 149 150 151 152 153 153 154 155 157 159 159 162 165 167 168 168 173 138 147 109  41  43  39  41  30 137 249 241 243 245 245 245 245 245 245 245
 241 241 241 242 243  63  42  52  49  44  41  43  47  65  99 172 174 180 182 182 180 172 166 161 154 147 142 139 135 135 133 134 131 131 132 133 138 139 141 143 144 145 146 148 148 148 148 147 145 145 145 146 146 147 146 145 146 146 147 149 148 150 151 151 154 155 157 159 162 165 166 167 169 167 152 131  74  34  41  42  25  51 247 242 243 244 245 245 245 245 245 245
 242 242 241 248 212  21  48  51  46  41  40  44  45  58 138 174 181 181 182 181 176 171 164 156 151 146 142 141 137 134 134 133 131 130 131 132 134 133 136 141 143 144 145 148 148 148 148 147 146 145 147 145 145 145 143 142 142 145 145 146 147 146 149 148 149 152 154 156 159 163 164 165 166 164 156 156 132  50  33  44  50  17 237 247 243 244 245 245 245 245 245 245
 243 244 240 249 101  19  53  48  41  37  37  42  39 102 154 187 181 179 178 178 172 166 160 155 151 148 145 143 141 139 135 133 133 132 132 133 134 137 138 140 142 144 146 148 147 149 148 148 147 147 146 146 145 144 142 141 141 143 144 145 146 147 149 150 149 151 153 154 156 160 160 163 164 164 162 161 160 107  23  46  48  16 179 249 244 244 245 245 245 245 245 245
 243 243 243 248  37  37  47  40  36  33  37  39  49 122 166 184 178 176 174 173 167 160 156 153 152 150 146 145 143 141 138 137 136 133 134 136 137 140 140 143 144 147 147 147 149 148 148 149 149 149 148 147 146 144 144 143 143 144 144 144 145 147 148 149 151 152 153 153 156 156 159 160 164 163 164 162 157 157  32  46  46  27  24 250 242 244 245 245 245 245 245 245
 243 243 246 231  26  32  42  38  33  32  34  43  78 138 184 180 178 175 172 167 162 158 155 154 153 151 151 150 151 144 143 141 141 142 139 143 141 146 150 150 150 148 148 148 149 150 148 148 148 148 148 148 148 148 147 146 146 146 146 146 147 148 149 150 152 153 153 154 155 157 159 160 161 162 164 162 156 159  84  24  44  41  17 233 244 243 245 245 245 245 245 245
 242 243 249 193  19  37  39  36  31  33  40  42  96 158 180 178 178 174 167 164 159 154 152 150 151 151 153 153 152 149 148 153 154 155 155 153 159 161 152 160 155 151 150 149 150 150 149 148 146 146 149 149 151 152 150 150 151 151 151 151 150 150 150 150 152 153 153 152 152 155 158 160 160 163 164 162 156 144 135  19  36  42  18 126 250 243 245 245 245 245 245 245
 245 246 250 150  17  41  37  34  31  34  43  32 116 161 177 176 176 173 163 160 156 150 149 148 150 151 152 152 154 157 158 160 164 164 169 175 173 169 169 163 156 155 154 150 151 151 151 149 146 146 148 150 152 153 154 155 155 157 156 156 153 153 154 153 152 152 151 150 150 152 156 158 160 161 163 162 158 147 144  53  29  39  31  25 245 246 244 245 245 245 245 245
 134 220 245  85  20  33  32  30  30  36  46  47 121 158 171 173 173 169 161 157 153 149 147 148 150 151 152 155 157 160 163 168 172 176 180 180 179 176 172 168 160 158 155 153 152 152 150 151 149 150 152 152 155 156 157 158 157 159 159 160 159 162 159 158 156 155 152 151 150 150 152 157 159 160 161 162 163 137 138 105  36  26  39  21 159 249 242 243 243 243 242 242
  86  87 128  40  31  22  28  30  31  35  43  60 125 157 166 169 169 165 159 155 151 148 147 147 150 153 156 161 162 165 169 173 177 182 185 184 183 180 176 169 165 160 157 155 154 152 150 151 151 152 152 153 156 157 157 158 159 161 161 162 163 163 162 161 159 157 156 152 152 151 150 153 157 159 161 162 163 143 129 133  41  21  31  29  27 244 243 239 239 237 236 236
 114 115  97  41  34  29  28  27  32  36  51  68 125 157 161 165 164 163 158 153 148 143 144 147 150 156 161 164 168 173 176 176 180 182 183 182 178 181 172 166 163 161 159 157 154 153 150 152 153 154 154 155 156 157 157 157 160 160 162 162 162 162 163 163 162 160 158 156 152 152 152 153 155 158 160 160 159 149 117 124  53  30  32  30  14 175 240 233 234 235 234 234
 117 120  98  31  36  28  25  27  32  42  41  81 122 156 159 162 162 160 155 149 143 143 144 149 153 158 165 172 174 176 176 176 177 183 183 177 174 161 162 162 159 159 159 156 152 150 149 150 152 154 156 156 156 156 155 156 157 158 159 160 160 161 161 161 161 161 160 157 156 155 154 152 154 158 158 160 158 165 121 111  66  33  31  22  40  38 247 232 233 234 235 235
 119 120  98  20  33  28  26  28  33  35  47  87 120 159 160 163 162 157 152 148 146 147 149 155 156 166 170 173 176 176 176 173 170 167 165 158 151 148 149 153 155 156 155 153 151 146 145 147 150 153 154 153 153 153 152 153 153 153 153 153 153 153 158 159 160 161 157 154 153 153 154 152 154 157 158 159 158 164 129  89  75  30  33  27  40  14 223 226 221 214 203 201
 119 122  87  27  32  28  27  30  35  41  45  95 140 156 162 162 160 156 149 149 150 148 158 164 168 172 173 173 173 173 174 172 167 160 147 144 138 135 134 141 148 150 151 148 144 142 143 144 148 148 148 147 148 146 147 145 149 149 147 147 148 143 138 141 144 146 152 148 152 147 153 153 154 156 158 159 159 159 149  73  66  36  35  29  37  20 127 228 231 236 242 242
 118 121  88  21  30  28  26  29  35  39  47  96 132 163 160 160 157 153 152 154 157 164 171 179 176 174 175 174 168 167 157 155 150 143 139 130 130 124 124 129 134 138 140 140 140 137 138 139 141 141 141 143 139 131 130 136 138 141 142 132 116 109 102  96 109 117 119 114 110 129 154 153 153 154 156 156 156 155 159  97  51  40  35  30  33  17  76 245 239 238 239 240
 116 119  91  14  30  28  27  31  38  39  50  97 146 163 159 156 155 154 155 159 173 177 182 186 185 175 167 151 144 127 130 118 116 105  94 102  97 105 111 118 124 127 130 132 131 126 129 131 133 133 132 132 131 130 123 122 117 109  89  63  49  54  36  47  66  78  76  77  72  86 120 156 153 153 153 156 156 155 161 109  48  42  36  30  29  14  63 250 238 237 238 238
 116 120  88  19  32  28  28  33  39  41  42 101 156 160 159 156 153 154 158 170 175 180 177 167 149 139 119 109  88  82  64  64  54  65  67  77  79  85  91 100 116 119 122 123 124 123 121 125 128 128 126 126 121 118 112 105 106  81  64  64  55  45  52  56  52  62  65  75  79  72  84 123 149 153 154 155 156 154 158 133  43  42  36  31  29  16  57 250 234 236 237 236
 115 117  99  31  35  27  28  34  39  40  32 120 162 158 158 156 154 155 160 175 177 164 143 121 112  98  80  70  53  41  45  45  42  38  42  56  71  75  90  92 112 112 112 116 118 118 117 119 122 122 118 116 112 109  97  92  88  77  60  49  47  47  48  49  50  52  62  70  76  79  75  92 129 152 152 154 155 154 156 147  46  33  33  29  29  14  65 247 233 233 235 235
 114 112 107  49  31  29  28  34  39  43  41 141 164 156 156 154 152 152 168 173 161 127 102  89  72  65  55  48  42  41  39  41  42  43  46  52  57  70  75  82  95 103 109 113 113 113 106 114 115 114 113 109 104  96  86  86  81  63  46  47  46  48  48  47  48  54  60  70  78  78  76  63 108 143 151 153 154 154 155 153  41  30  32  30  32  13  88 242 233 235 235 235
 109 109 117  47  38  28  30  32  38  31  53 153 161 156 155 152 152 156 167 171 135  93  75  71  65  52  48  42  39  36  35  38  39  41  44  50  55  64  70  72  90  99 105 109 111 111 110 105 109 113 111 109 100  93  84  80  72  61  54  53  55  46  46  44  49  50  64  75  83  87  82  77  96 121 146 152 153 154 154 155  50  32  30  30  30  13 187 240 234 235 236 237
 107 106 116  44  35  29  29  32  35  30  71 155 162 158 155 153 153 157 159 128  79  84  70  58  58  54  47  45  40  38  40  40  40  42  46  49  57  63  68  70  90  93  99 105 107 109 110 110 111 113 111 109 101  92  85  81  73  63  66  66  61  71  78  90  86  81  71  79  90  95  92  90  84 113 153 152 154 155 154 154  49  36  32  30  27  15 240 239 237 238 241 241
 102 103 112  51  31  32  30  31  35  23  90 154 163 159 156 153 151 147 126  97  90  72  64  60  57  54  52  48  47  49  43  46  46  50  49  56  61  65  69  75  81  90  97 103 107 109 111 111 113 114 113 109 102  95  89  86  86  85  77  82  90  92  92  94  95  96 100  98  99 109 108  99  98 107 145 150 153 156 156 157  42  41  30  30  11  43 250 237 240 241 242 242
  96  98 106  58  23  32  31  31  32  21  92 165 165 161 158 152 149 129  94  92  79  71  63  61  61  63  69  67  72  74  70  61  65  63  61  61  62  64  67  71  78  84  92 100 107 110 113 115 118 118 115 111 104  96  89  86  84  80  78  79  83  84  86  88  93  92  95  98 103 109 110 111 110 111 131 151 153 156 156 157  35  36  32  28  11 173 248 242 243 243 244 243
  91  93  92  65  20  32  30  29  28  22 106 166 166 161 153 150 150 130  98  88  77  71  69  69  69  74  82  92  98  96  94  96  78  73  70  64  63  63  65  68  73  80  87 104 109 113 118 121 124 123 117 111 103  93  88  84  81  76  73  70  74  82  84  80  68  65  82  94 100 107 110 112 112 107 135 148 153 156 152 153  27  38  35  28  15 224 247 243 243 244 245 245
  88  87  92  63  33  36  31  30  31  14 118 171 164 160 151 150 151 130 105  89  77  73  71  72  74  88  90  95 107 110 113 108  87  78  73  70  66  64  63  63  63  77  86  99 114 121 122 130 131 130 121 110  98  87  83  81  80  69  64  69  75  84  92 105 112 108  81  70  91  99 108 112 113 115 125 151 153 157 163 150  22  39  36  24  17 237 244 243 243 244 245 245
  85  85  84  77  39  39  34  34  36  10 122 177 165 158 151 149 144 122  87  84  79  75  75  78  84  95 102  85  68  57  49  45  57  65  74  73  65  65  64  61  62  72  83 102 115 126 127 137 138 134 121 109  90  86  81  74  61  60  63  68  77  87  95  99 103 102 115  94  85  96 105 111 115 117 130 148 152 157 167 136  25  40  38  25  33 247 243 243 244 244 245 245
  81  82  84  79  51  35  34  36  36  13 117 181 164 156 151 148 134 113  82  82  79  77  81  83  84  67  50  65  79  82  79  76  71  61  48  50  58  59  59  60  62  60  79 100 117 127 132 137 141 139 114 102  88  83  74  64  58  55  58  62  61  65  74  82  91 107 107 116  96  93 100 111 115 124 130 147 152 156 172 120  29  34  37  20 107 249 243 245 245 245 245 245
  77  79  79  80  59  31  31  33  34  15 123 178 165 155 150 143 124  95  88  81  79  79  79  78  64  67  68  53  39  18  17  21  19  34  46  49  43  45  52  56  57  60  72  90 117 125 132 139 142 138 116 102  90  78  69  50  51  50  43  28  19  16  17  19  21  31  78 113 116 109 104 110 115 124 138 145 153 158 176 116  25  35  35  14 197 249 244 245 245 245 245 245
  74  77  78  82  53  19  32  36  38  13 127 178 163 154 146 142  99  90  86  81  79  79  78  72  76  68  38  33  30  27  28  29  32  19  34  30  45  45  47  51  57  59  73  89 113 131 134 141 141 134 114 102  90  76  58  54  50  40  45  28  28  32  39  29  65  66  27  44 106 108 107 111 115 123 132 148 154 159 180 117  26  33  26  18 239 246 244 245 245 245 245 245
  71  76  69  63  43  22  22  39  38  13 124 179 160 154 150 130 102  90  85  81  79  81  66  71  66  20  38  60  35  29  27  28  31  11  75  71  35  42  44  51  56  64  68  97 116 139 147 148 144 134 106 103  84  74  54  50  45  66  66  29  29  32  40  33  93 137  67  26  46  95 108 111 117 121 134 147 152 160 180 119  30  34  13  78 248 245 244 245 245 245 245 245
  71  74  58 163 190 124  58  33  38  12 118 185 161 155 153 126 103  90  85  81  79  80  61  60  23  29  58  77  48  22  29  29  28  25  93  77  51  48  44  52  59  68  74  90 131 149 157 156 147 137 111 103  88  71  56  53  53  70  74  35  35  32  42  30 102 123  78  42  35  61  95 109 116 121 133 145 154 159 183 127  23  38  14 217 249 244 245 245 245 245 245 245
  69  63 111 187 155 137  87  27  41  12 111 186 162 157 149 123  92  89  83  80  78  66  54  41  34  36  52  72  71  37  22  18  32  63  78  68  59  56  53  53  58  74  68 102 141 169 174 163 152 140 118 106  91  70  64  60  61  66  72  47  39  39  42  55  81  69  76  81  92  88  82 104 117 123 133 146 155 160 175 124  29  40  21 223 249 245 243 243 243 243 243 245
  66  48 150 121  74 106  98  40  38  11 105 189 164 158 150 123  93  87  82  76  70  52  50  59  63  60  60  65  69  71  68  69  68  66  65  63  60  57  57  58  62  74  77 114 162 196 179 169 170 150 123 112  95  76  74  67  64  64  65  67  75  78  83  77  82  87  89  96 106 114 106 107 118 125 136 142 156 159 176 125  26  34  56 149 192 237 240 243 243 244 243 245
  65  66 145  86  67  77 107  60  36  11  94 187 165 159 156 122 105  90  85  78  71  64  81  82  82  69  66  64  63  61  60  59  59  59  57  55  54  56  59  62  71  79  76 135 182 201 196 181 174 167 132 114 107  84  73  66  61  62  60  61  64  69  73  77  82  88  90  96  99 100 108 113 119 130 138 144 153 158 174 120  24  37 108 119 119 235 244 243 243 244 245 245
  63  46 138  80  73  77  97 104  35  16  90 186 165 157 151 124 110  98  93  86  80  81  79  78  75  71  65  63  60  59  58  55  53  52  51  52  54  58  63  71  84  87  90 166 178 196 193 184 179 173 139 112 118  99  78  61  62  62  59  59  61  63  70  69  78  82  88  94 102 111 108 118 127 131 137 145 152 156 169 124  25 105 119  74  48 194 247 245 245 245 245 245
  60  52 129  80  74  77  96 115  55  25  85 184 162 157 153 127 122 109  96  97  89  85  81  77  73  66  61  57  57  53  53  52  46  47  51  53  57  62  67  82  89  86 106 181 182 187 188 182 180 173 155 122 121 120  95  85  72  58  58  60  61  62  62  69  70  77  80  94 104 108 114 119 125 133 139 145 151 156 164 131  28 122 101  86  46 135 249 245 245 245 245 245
  59  42 124  76  75  96 112  96  89  31  75 177 160 157 153 139 133 122 118 109 103  96  90  81  73  65  59  51  46  46  50  50  50  53  58  64  65  67  82  90  94  83 132 169 190 185 180 177 174 169 154 143 117 120 113  99  88  83  74  65  56  54  64  68  72  71  78  91  95 107 114 128 129 137 140 145 151 156 167 131  29 124  99  87  48  91 250 245 245 245 245 245
  57  40 129  71  75 111 125 102  97  42  73 173 158 156 151 149 141 136 126 120 107 101  89  77  75  73  68  61  55  53  50  55  62  65  68  71  74  85  90  92  95 105 136 159 166 175 178 174 170 166 157 150 133 124 120 113 108  99  97  97  92  84  85  84  78  89 102 114 119 129 136 144 143 142 144 147 150 155 167 122  36 133  90  88  59  94 250 245 245 245 245 245
  56  40 141  80  71 126 124 111 100  47  60 171 155 155 156 152 149 148 147 148 139 121 117 112 101  93  92  81  81  73  79  78  74  78  82  75  87  93  98  98 103 111 145 164 165 173 176 173 170 165 162 154 142 129 122 120 120 115 116 108 102 104 104 111 111 113 118 126 133 144 149 148 151 148 147 148 152 153 163 129  44 141  87  92  59  91 250 245 245 245 245 245
  55  46 151  71  71 139 119 110  94  38  62 160 154 156 156 154 157 167 171 168 163 159 149 135 127 116 105 100  93  91  90  87  88  87  96 103 103 102 103 104 110 138 164 171 177 181 179 176 173 169 165 158 150 129 129 126 122 125 123 128 128 128 124 120 127 138 138 138 146 149 150 151 152 152 150 148 152 154 162 127  51 144  97  92  59 113 250 245 245 245 245 245
  54  44 133  80  69 136  98  76  57  44  61 153 151 156 158 161 169 176 175 174 172 172 177 169 151 132 123 113 106 106  98 106 106 111 110 110 109 109 111 110 139 165 178 184 185 184 182 181 172 172 168 163 156 150 133 134 133 131 133 133 135 136 140 144 143 142 147 146 147 150 152 152 152 152 153 150 152 154 161 116  57 149 106  94  52 154 249 245 245 245 245 245
  52  47 113  81 111 126  80  57  61  57  58 152 150 156 159 164 172 175 176 176 175 173 171 169 160 155 152 144 137 128 129 121 120 119 117 119 116 111 120 134 160 181 180 183 182 183 184 182 180 175 172 168 162 153 143 135 128 130 131 132 136 139 144 144 147 149 152 153 154 154 154 154 152 152 153 152 152 155 161 121  42 155 108  93  58 199 248 245 245 245 245 245
  53  37 105 100 127 120  75  60  58  63  49 148 149 154 161 167 171 173 175 176 175 174 166 175 178 180 176 174 156 148 138 133 133 132 126 122 120 121 126 148 164 178 177 178 178 180 182 182 176 174 173 170 163 154 142 132 119 118 117 122 139 138 141 145 149 151 153 156 158 159 160 158 155 154 153 154 155 155 161 114  31 154 106  93  65 224 245 245 245 245 245 245
  51  44  84 107 139 123  69  63  61  72  35 144 149 155 163 168 170 171 173 176 175 172 186 192 200 188 183 180 169 162 152 150 141 134 133 123 118 116 134 152 165 167 173 172 174 177 174 174 173 172 171 169 164 155 141 133 124 107  92 105 112 130 134 144 147 151 152 155 159 162 165 165 161 157 157 156 156 154 155 115  24 142 112  94  74 240 244 245 245 245 245 245
  51  46  60 117 143 130  69  63  95  84  30 137 150 156 164 167 168 170 174 175 192 204 200 196 193 188 184 177 168 162 158 149 140 131 118 101  89 123 154 167 167 168 168 168 168 170 171 167 168 168 168 168 165 157 149 145 141 124  68  87 102 117 128 130 144 147 152 154 158 163 165 169 168 162 159 156 154 151 153 109  25 123 122  95 125 249 245 245 245 245 245 245
  49  50  43 112 145 141  88  52 106  86  44 120 148 155 162 164 166 168 176 187 193 195 194 190 185 178 176 170 163 160 150 132 119 103  94  82  85 151 181 184 180 168 164 165 161 158 158 161 166 164 164 164 162 159 162 162 161 157  79  77  81  87 113 121 138 142 147 152 152 160 165 166 166 164 161 157 154 150 153 103  34 109 127  98 211 246 245 245 245 245 245 245
  50  50  42  70 158 151  97  79 104  75  47 111 144 154 160 162 162 162 177 184 191 189 183 178 173 169 161 158 149 141 129 110 104  95  71  51 107 169 176 179 182 157 156 149 143 145 143 148 143 151 154 156 160 159 157 156 156 163 111  41  62  79  96 113 115 130 139 146 150 155 161 164 166 165 161 156 154 145 149  97  40 107 125 117 250 245 245 245 245 245 245 245
  50  49  49  27 166 141 110  70 115  79  51  98 135 155 157 159 157 157 171 175 170 172 167 162 154 150 144 139 124 118 110 109  96  80  58  37 104 165 175 163 160 158 155 157 146 135 130 128 133 140 146 148 156 151 154 157 154 154 128  40  62  74  92  98 116 122 129 142 147 150 157 159 162 164 161 156 153 143 144  90  40 100 137 180 249 244 245 245 245 245 245 245
  50  50  52  19 166 136 149 175 153  88  45  92 123 152 157 157 152 154 163 169 167 160 154 148 144 135 125 119 120 110  98  87  85  68  53  35  91 138 141 147 146 141 135 132 129 123 124 117 122 123 135 139 142 143 140 141 145 138 126  45  61  65  78  82 105 112 122 138 141 146 150 150 161 162 159 156 154 146 134  84  31 114 122 242 245 245 245 245 245 245 245 245
  48  49  51  23 145 146 131 202 175 105  48  88 120 152 156 153 144 147 154 158 150 144 139 124 125 119 114 111 105  98  91  84  74  54  52  42  73 118 117 115 115 113 114 112 111 111 113 115 116 116 123 129 133 132 132 131 130 128 100  60  61  58  69  83  96 106 119 123 132 139 145 148 153 159 159 156 151 144 124  84  23 124 111 250 244 245 245 245 245 245 245 245
  48  49  50  26 130 153 151 190 160  93  62  78 107 148 153 142 133 140 140 134 141 132 123 120 106 110 107 104  97  92  83  82  65  55  52  50  54  86  90  93  89  90  88  92  90  94 101 105 106 113 110 125 122 119 112 116 110 107  91  76  67  60  64  76  86  96 113 115 127 136 141 147 150 156 157 156 151 141 114  78  18 159 130 250 245 245 245 245 245 245 245 245
  49  49  50  25 113 151 181 177 159 104  66  76  94 147 143 138 131 133 141 139 124 119 115 109 106 103  97  96  93  86  78  69  59  56  56  57  60  66  76  78  76  74  75  77  86  86  92  93  99 101 104 109 111 101  74  69  75  86  89  83  73  64  62  66  78  91 107 113 122 130 136 143 148 151 155 154 147 140 109  68  20 167 148 250 245 245 245 245 245 245 245 245
  48  49  49  36  51 191 214 186 162  94  69  79 100 127 143 121 124 126 125 117 116 113 106  99  93  95  94  90  86  81  74  66  59  58  60  61  63  63  52  30  28  31  21  47  66  77  80  86  84  93  96  99  95  68  56  74  83  89  91  89  79  70  65  66  73  83  94 112 116 123 129 137 142 146 149 150 143 138 100  69  22 162 163 250 245 245 245 245 245 245 245 245
  47  47  49  34  38 215 207 179 143  98  64  83  97 116 141 121 118 119 115 114 110 103  97  92  90  89  89  87  84  78  71  64  62  64  65  66  67  63  56  49  44  45  48  49  50  69  72  74  81  84  91  92  73  63  67  71  82  88  92  91  88  71  68  64  72  80  90 104 112 119 126 133 135 141 144 144 140 134  92  64  23 159 178 250 244 245 245 245 245 245 245 245
  47  47  47  36  42 219 197 143 143 115  65  88  93 109 119 118 115 113 109 105 104 101  92  88  86  86  85  84  81  78  70  65  63  66  68  68  67  61  53  47  43  40  43  45  51  53  63  72  73  78  76  57  43  49  58  66  81  88  91  90  85  77  70  67  69  75  88 100 110 116 124 127 132 136 138 139 141 124  99  55  26 150 160 250 244 245 245 245 245 245 245 245
  45  45  46  37  39 207 175 143 158 123  61  81  84 102 115 113 106 105 102  98  93  91  88  86  83  82  81  80  78  74  67  65  63  65  67  68  64  59  49  44  39  36  35  40  42  45  52  57  61  51  35  20  34  35  47  53  56  80  86  87  81  77  72  66  62  75  89  95 105 113 119 123 128 129 128 129 130 121  86  65  33 140 158 246 244 245 245 245 245 245 245 245
  45  45  46  45  30 164 156 139 147 110  71  82  82  93 111 108  93  93  91  89  87  86  85  82  80  79  78  77  77  72  65  61  62  63  64  65  60  54  47  43  38  33  29  23  27  33  37  40  30  20  28  33  34  37  41  48  51  71  75  83  71  72  71  66  60  74  87  97 107 111 118 120 124 126 116 115 107 106  91  69  41 135 126 250 244 245 245 245 245 245 245 245
  45  44  45  46  20 131 134 126 125  84  81  78  80  86 105 101  85  77  83  79  74  79  81  79  77  77  76  76  74  69  63  62  61  58  60  58  55  47  44  41  37  31  27  26  25  26  33  40  41  33  31  33  37  39  44  47  50  61  62  62  53  63  68  64  59  73  84  96 105 110 116 115 113 111 114 115 106  93  93  61  32 124 152 250 244 245 245 245 245 245 245 245
  46  46  46  46  41  73 118 114 104  84  80  77  76  84  83  83  76  75  73  69  71  77  77  79  77  77  76  76  72  67  62  59  58  51  46  48  48  45  44  42  37  32  30  29  30  31  33  39  38  36  36  38  40  48  50  49  56  63  66  61  50  53  57  59  61  54  78  94 105 109 111 111 110 108 107 114 103  96  89  69  50 133 243 245 245 245 245 245 245 245 245 245
  45  45  46  46  47  46  68  89  89  78  76  77  74  77  81  86  55  63  66  64  63  67  75  79  77  75  73  75  69  63  58  52  48  42  42  45  45  42  43  43  39  33  33  32  32  32  35  39  37  30  39  50  58  59  57  59  75  77  57  67  43  47  46  48  54  51  73  96 101 109 111 109  98  94 104 110 105  99  86  78  51 226 247 244 245 245 245 245 245 245 245 245
  45  44  44  45  46  44  34  35  56  67  74  75  74  74  75  77  65  64  64  60  58  53  73  76  77  76  73  72  67  59  51  43  37  23  37  44  47  46  41  47  35  38  41  48  54  50  56  58  60  73  75  86  90  89  96 103  96  92  90  81  56  45  41  40  40  50  63  91 103 109 110 107 100 100  98 102 105  96  86  53  84 250 245 245 245 245 245 245 245 245 245 245
  45  44  45  45  45  44  44  46  47  55  69  74  74  75  72  71  69  64  62  58  55  45  66  74  76  75  74  71  63  54  40  38  17  29  30  50  54  51  60  54  69  60  66  65  66  68  77  81  84  82  81  77  69  65  53  55  73  87  90  86  77  43  43  39  35  47  60  86 106 110 107 103  95  89  84  90  89  86  80  31 122 249 245 245 245 245 245 245 245 245 245 245
  46  46  45  44  46  44  44  44  47  44  69  70  74  79  69  68  66  63  62  58  51  51  65  69  73  75  74  69  60  51  28  20  25  30  35  54  53  54  53  53  54  52  53  53  57  58  63  65  58  53  48  51  50  43  49  53  39  36  45  56  51  43  41  40  42  49  61  90 109 110 106  92  84  83  87  84  72  80  64  25 132 249 245 245 245 245 245 245 245 245 245 245
  45  45  44  44  44  44  43  44  45  47  66  67  71  75  76  64  60  60  60  59  51  50  60  66  71  75  75  71  58  49  28  26  25  28  40  43  45  48  51  53  48  54  49  53  66  69  62  59  83 100  96  83 109  96  92  96  60  49  32   9  17  23  38  43  47  56  71  91 108 109 106  90  63  76  83  83  67  69  64  19 142 249 245 245 245 245 244 243 243 245 244 244
  45  44  44  43  44  43  43  44  44  44  57  65  65  68  69  63  56  55  57  57  53  51  54  64  70  75  75  73  63  50  35  29  24  20  12  27  37  45  57  60  64  74  67  68  90 108 111  97 122 135 141 112 128 117 107 115  85  54  27  21  21  21  40  49  52  64  82 100 110 106 104  88  70  71  75  77  65  65  63  31 134 250 250 250 250 249 248 246 244 242 241 238
  45  44  43  44  43  44  44  44  45  45  54  66  59  61  64  64  55  54  54  53  49  46  47  59  70  72  76  77  68  55  40  31  17  20  19  23  33  43  57  61  66  81  80  74 101 117 134 128 125 136 134 126 127 116 111 102  90  54  17  21  23  43  47  57  66  58  92 104 110 107  97  88  73  64  71  74  68  62  59  20 137 217 201 200 194 192 184 187 187 184 192 197
  44  44  43  43  43  44  44  44  45  47  50  70  61  52  63  63  59  55  52  48  46  44  46  55  64  71  75  78  76  65  47  46  44  26  13  22  29  36  51  61  62  78  79  76 100 117 128 126 127 132 131 121 123 108 109  83  68  41  13  28  58  69  64  64  71  82  94 109 109 106  93  85  66  62  61  56  62  61  55  16 158 203 196 195 195 200 201 201 201 201 201 201
  45  44  44  43  44  45  42  42  33  32  35  58  69  58  59  62  61  56  50  46  44  45  45  51  61  68  74  78  75  69  59  53  52  50  36  17  22  29  48  56  54  75  77  74  94  95 117 115 116 120 118  99  93  79 104  63  39  25  27  58  87  86  74  70  75  86  97 108 109 105  89  81  55  59  59  58  55  54  52  15 192 194 197 197 198 198 198 199 198 197 198 198
  45  45  43  44  47  32  14  14  25  31  46  62  77  56  59  60  58  55  49  46  44  43  44  48  57  67  73  78  77  69  61  59  61  64  55  40  20  26  52  52  79  90  75  73  79 100 118 116  92  97 101 106  99 109 126  57  42  38  60  81 106  96  86  76  78  87 101 111 108 101  82  74  61  58  55  54  51  49  43  31 186 199 196 195 196 196 197 196 196 196 196 195
  44  44  45  46  32  62 159 195 206 213 209 162  80  44  54  56  58  54  49  45  43  40  41  46  56  65  73  77  76  71  67  65  68  75  73  67  57  54  61  61  99 110  96 110 103 111 133 130 107 105 113 121 112 117 139  74  60  70  81 105 109 102  93  79  83  90 100 106 106 105  78  74  68  55  54  51  48  45  20 115 193 195 194 195 195 195 194 194 194 194 194 194
  44  44  45  46  26 179 202 196 195 194 191 192  94  46  53  52  53  54  50  44  43  39  39  44  55  63  71  75  75  72  69  70  70  74  78  80  70  68  73  58 107 108  99 112 104 116 135 127 111 102 109 128 125 123 115  80  79  88 102 116 117 106  98  86  87  93 101 105 108  97  87  77  71  67  54  51  48  47  16 159 195 190 192 192 191 189 188 189 191 191 193 191
  45  46  45  39  34 194 199 196 196 195 194 196 140  40  53  49  50  52  50  44  41  40  39  43  51  63  70  74  73  70  70  73  75  77  82  82  84  84  82  82  86  95  94 114  93 106 130 105 102  96 101 121  93  84  86 100 104 111 123 123 118 112  96  88  89  95 102 104 102  93  85  77  73  67  58  55  51  47  33 193 183 183 185 182 183 182 181 177 178 180 175 177
  46  45  44  24  79 196 196 197 196 196 193 197 179  49  42  47  46  47  47  45  40  39  39  40  51  60  68  72  72  69  68  73  76  78  81  86  88  88  88  90  91  89  93  96  98  98  98 100  98  98  98  91  99 102 105 110 118 120 125 124 119 113 100  95  93 101 104 103  99  92  77  73  64  63  59  54  52  33  92 182 174 178 181 182 180 180 180 180 180 180 181 180
  46  45  46  20 121 196 194 195 194 193 192 189 197  70  47  44  41  41  41  40  36  34  36  41  48  58  65  70  71  67  67  71  75  76  80  87  91  92  93  95  95  95  97  99  98  99 104 106 108 105 106 106 111 112 111 120 124 128 127 124 118 111  96  97  98 100 101 101  92  82  77  57  54  50  50  49  49  20 131 188 178 180 180 181 182 182 181 180 180 180 180 180
  46  47  47  18 140 197 192 191 194 188 191 192 188 115  60  42  40  37  36  35  34  32  34  38  44  55  63  67  67  66  66  69  73  76  78  88  90  92  93  93  96  97  97  99  99 101 105 107 112 111 110 111 112 113 118 124 126 128 127 122 116 109  98  97  97  98 100  94  86  75  59  52  47  42  43  44  44  23 163 179 178 180 181 181 182 181 180 180 180 180 179 179
  47  48  49  17 151 188 191 186 174 175 172 165 179 137  91  54  41  35  32  30  30  30  31  34  35  48  59  64  64  61  62  67  72  74  74  83  88  90  92  92  92  93  93  92  94  96  98 106  99 102 104 108 109 113 116 121 124 125 126 121 113 107  99  96  94  97  97  92  80  65  55  45  41  40  40  44  27 111 178 177 181 180 181 181 180 181 179 180 180 180 180 180
  50  50  50  19 148 163 162 161 169 170 172 171 177 152 110  74  41  35  32  28  28  28  29  33  36  46  54  60  61  60  60  67  72  73  75  81  84  86  86  86  86  88  85  83  87  87  87  82  89  91  92  97 102 107 112 118 121 122 122 118 111  99  99  99  95  94  92  89  74  60  52  44  38  36  36  24  48 191 179 179 180 180 180 180 180 180 180 180 180 180 181 181
  15  37  52  31  86 161 165 168 151 167 186 191 197 159 112  85  56  32  31  28  25  25  28  31  35  47  51  55  58  58  58  66  72  75  73  78  80  84  83  82  79  76  75  76  75  74  75  80  78  80  84  87  91  98 105 113 117 118 118 114 106  99  99  96  93  90  88  83  71  60  51  43  36  33  27  13 149 177 177 179 180 180 180 180 182 180 179 179 179 180 180 179
 140  50  18  29  25  62 164 197 239 210 143 135 138 134 127  95  70  41  27  27  26  25  27  30  34  44  48  51  53  55  56  60  72  76  75  76  79  81  83  81  74  70  67  67  66  61  61  62  68  70  66  65  79  78 106 109 113 114 114 111 105 101 103  96  88  88  87  80  68  61  51  41  36  34  19  43 182 176 178 179 178 179 179 179 179 180 178 178 178 178 179 178
 211 213 176  83  73 235 237 217 163 129  39  15  17  80 141  99  82  61  30  28  25  24  26  27  30  37  43  47  48  51  55  59  68  76  77  77  78  79  81  80  76  71  68  63  62  62  60  59  61  63  67  69  71  86  94 108 110 110 110 106 106 105 105  95  87  67  56  61  58  60  52  41  35  27  12 162 178 175 177 179 178 178 178 178 177 177 177 177 177 177 177 179
 194 186 205 243 248 241 185  77  15  13   9   9  11  37 147 104  87  74  44  26  27  26  26  26  27  29  38  42  46  48  51  53  64  75  81  82  82  82  82  82  80  77  70  66  59  55  57  60  56  61  64  69  83  94 108 110 110 109 109 109 110 110 104  92  84  69  61  56  53  54  49  42  38  23  75 174 173 176 178 177 178 177 177 177 177 177 177 177 177 177 177 177
 184 198 249 249 164 120  43  13  12  11  16  15   6  24 150 109  88  75  62  31  29  25  24  23  24  27  34  36  39  41  43  45  59  76  88  90  89  89  88  87  88  86  85  77  75  86  82  76  82  74  87  98 103 100 108 111 110 110 111 115 117 112 100  91  75  66  55  47  42  41  42  40  33  42 136 175 173 174 176 175 177 177 176 176 176 176 176 175 175 175 175 177
 183 249 248 236 117  26  20  22  16  15  13  13  10  13 146 111  90  75  62  52  24  25  22  20  20  23  26  27  28  32  37  42  52  74  91  95  96  95  97  94  99 101 104 109 112 105  99  98  98 114 117 121 120 122 116 113 113 111 119 121 125 116  87  76  53  49  45  39  35  33  29  32  43  69 167 171 172 173 174 175 174 175 175 176 174 175 176 175 176 174 174 174
 248 247 229 153  37  20  20  16  15  13  13  13  11  15 143 110  94  68  68  63  41  31  23  19  20  22  23  23  23  27  35  41  63  75  91 101 105 106 105 105 110 112 114 110 107 101  97  98 104 109 114 121 123 125 124 121 121 128 126 125 116 103  81  64  46  42  37  37  35  32  33  29  70  89 174 170 173 172 172 172 173 173 173 172 172 173 173 173 173 173 171 171
 244 249 192  66  38  20  18  16  14  14  12  13  12  16 133 110  94  76  70  62  49  33  21  19  18  20  20  20  21  25  35  49  60  75  89 103 110 112 111 117 117 117 113 110 106 100  97  96 105 108 113 125 125 125 124 125 127 127 127 123 113  89  82  60  41  37  34  33  33  32  36  40  83 114 172 168 169 172 170 169 169 169 169 168 169 167 169 172 173 172 168 170
 240 240 118  44  22  18  16  15  14  13  13  13  12  22 131 108  93  82  66  61  55  42  25  21  19  19  19  19  21  26  36  47  53  69  92  99 111 112 114 117 118 117 113 109 104  99  97  95  99 105  98 116 122 123 124 125 125 125 125 122 105  79  72  55  39  37  36  32  29  28  35  62  91 132 166 166 161 160 163 163 163 163 157 156 158 158 158 159 146 142 140 139
 248 165  36  38  21  18  14  13  12  11  12  13   6  33 133 108  92  78  70  63  57  54  30  25  19  17  18  19  20  25  35  38  52  65  82  93 110 111 114 120 126 109 102  94  88  92  93  88  87  85  90 106 118 119 124 118 115 118 112 103  92  71  63  47  39  35  32  31  29  25  43  77 100 108 147 172 164 142 137  99  97  93  98 114 109  94  95  97 101 108 110 116
 234  81  30  33  18  15  14  13  11  11   9  11   6  63 128 112  98  83  75  65  59  56  38  27  21  17  17  18  19  20  25  35  39  48  63  81  91 108 101  91  88  97 101  88  85  84  85  85  66  80  87  94  98 112 101  99 101 105  97  87  79  61  52  40  36  32  29  28  21  44  64  82 114  31  13  63 147 194 186 163 144 144 144 141 139 142 141 143 143 145 146 143
 140  52  32  27  19  17  15  13  12  11  11  13   6  96 120 114 106  87  73  66  61  54  44  34  23  20  17  17  17  18  21  27  31  39  49  52  69  87  82  73  76  75  85  87  79  77  77  77  76  68  75  70  86  90  88  86  86  85  76  71  58  55  45  38  34  31  29  25  26  62  75  84 121  19  10   6   9  19  49 157 209 192 150 144 149 146 148 147 147 147 147 148
 106  49  42  17  17  16  16  13  14  13  11  10  16 119 119 116 106  88  77  66  61  55  45  37  30  21  17  16  16  17  20  23  25  27  41  50  54  57  62  67  59  58  49  56  60  64  65  67  63  61  69  70  74  76  84  85  74  63  59  56  48  39  34  31  31  29  21  40  54  70  80  92 133  12  16  16  15   6   8   9  48 120 179 177 154 145 151 150 150 150 150 150
