P2
92 112
255
 245 245 245 245 245 245 244 243 243 243 244 245 243 243 246 247 203 100  87  59  56  97  81  69  72  72  76  54  45  62  66  55  58  50  33  54  60  65  53  32  39  38  39  43  50  56  67  70  50  50  63  43  32  38  41  47  59  88  81  56  50  59  91 168 222 220 217 217 216 216 215 211 218 216 206 197 180 153 139 138  96 120 145 180 204 223 235 239 242 244 243 241
 245 245 245 245 245 245 245 243 243 242 241 243 245 248 226 176 120  69  54  51  48  74  64  70  82  73  25  45  55  59  52  48  43  36  38  47  63  43  38  34  32  31  37  41  48  53  53  49  48  51  38  37  38  40  49  65  62  81  92  97  62  69  62 118 185 203 211 214 209 197 189 174 139 124  84  90 104 144 192 221 239 249 247 244 244 238 238 239 240 240 240 239
 245 245 245 245 245 245 245 244 243 242 240 244 227 179 172 144  95  74  58  48  49  51  56  54  43  35  40  45  45  37  40  40  40  38  38  41  33  24  29  29  27  29  34  38  43  44  45  40  42  24  29  31  33  34  34  53  67  68  75  75  74  67  68  61 132 156 150 146 140 113 118 163 177 216 229 238 246 246 245 240 240 237 238 239 239 239 240 240 241 241 239 239
 245 245 245 245 245 245 244 243 243 243 245 214 143  89  62  69  53  47  36  39  38  43  48  47  47  45  42  44  42  41  41  40  38  35  34  30  28  27  25  26  26  29  33  35  38  37  31  32  27  28  25  26  25  25  27  34  45  44  42  51  56  71  73  78  86 134 146 163 194 220 224 229 238 238 239 238 237 236 238 238 238 238 238 240 240 241 241 241 241 241 242 241
 244 244 244 244 244 244 243 243 242 241 240 176 116 124  92  26  41  43  36  36  38  41  45  48  48  47  44  40  44  46  42  40  38  35  33  31  27  26  25  25  26  29  34  36  34  31  28  25  24  25  24  23  22  22  21  18  29  45  46  38  23  34  48  73  98 110 138 171 190 232 233 237 236 238 238 237 238 238 238 239 241 240 241 240 240 241 241 241 242 241 241 241
 243 243 243 243 243 243 243 241 240 247 188  89  84 177  80  40  44  39  37  37  40  41  46  48  50  49  47  60  58  59  52  45  42  40  37  34  31  27  27  27  28  31  32  32  30  27  26  21  24  26  26  24  21  19  19  19  20  21  40  44  41  39  33  45  99  98  87  98 178 212 233 236 238 238 237 238 240 239 240 240 241 241 242 242 242 241 241 241 243 241 242 242
 243 243 243 243 243 243 241 238 241 200 133  71  89  82  64  50  46  43  40  41  43  49  45  63  75  77  82  97  92  72  46  48  47  46  41  39  37  33  33  32  34  34  33  33  29  29  27  28  29  29  30  26  23  20  20  20  21  22  24  48  41  41  42  43  82  91 116  72 112 197 233 237 238 238 240 240 240 240 241 241 241 241 241 242 241 241 241 242 243 242 242 242
 243 242 242 241 241 240 243 246 182 164 138  94 107  64  43  39  40  37  43  52  52  47  69  80  80  93 100  92  81  71  79  76  68  57  46  39  40  41  30  38  40  39  33  29  38  37  37  31  33  36  35  34  25  25  22  20  20  19  20  28  42  40  38  44  63  70  76  52  33 141 236 237 237 239 239 239 240 241 241 241 242 242 242 241 241 241 243 243 243 243 241 241
 242 240 241 239 240 238 243 200 112 110 111 133 101  64  61  65  73  78  71  55  50  77  90  95 102 106 114 124 127 120 118 113  98  91  81  65  60  62  68  56  48  37  42  54  41  43  41  47  47  46  45  40  38  33  24  22  22  21  21  17  34  40  40  39  39  35  64 114  72 131 240 235 239 241 241 241 241 241 242 241 241 241 242 242 241 241 241 241 243 244 241 241
 241 240 238 237 238 238 189 131  71  68  72  64  74  50  64  79  86  80  66  72  98 109  92 110 101 120 136 151 154 152 145 148 139 130 120 112 108 100  91  84  74  75  79  76  79  76  72  55  60  61  50  45  49  46  43  29  25  18  16  19  27  37  38  38  40  42  56  83  68  81 237 233 238 239 239 240 241 241 241 242 242 242 242 241 243 243 243 243 243 243 243 243
 238 237 235 236 242 187 105  77  79  82  82  68  68  60  72  96  93 106  98 122 135 136 135 144 160 172 182 183 185 185 178 179 169 155 145 137 128 127 129 127 119 121 119 122 119 115 110 123 113 105  96  87  81  79  77  78  62  52  43  29  28  37  37  35  37  39  48  71  93  68 124 242 237 240 241 241 241 241 242 241 241 243 243 243 243 243 243 243 243 243 243 243
 233 229 222 222 165  81  94  82  74  64  75  67  95  70  96 118 130 138 152 146 146 157 169 189 192 190 190 201 207 205 198 192 193 172 164 155 150 145 143 139 142 137 134 136 139 138 137 134 129 134 131 129 119 125 112 102  96  79  56  46  30  36  36  34  35  37  45  44  70  82  25 236 240 239 241 242 241 241 241 241 243 243 243 243 243 243 243 243 243 243 243 243
 215 219 215 147  53  68  68  84  76  58  77  66 100  90 113 144 168 166 161 165 178 191 197 192 193 195 199 200 201 204 203 198 195 194 187 171 164 160 152 150 149 147 145 145 145 146 147 145 148 148 147 146 151 143 137 134 127 112  83  61  48  42  36  36  37  39  42  39  62 100  46 180 242 240 240 241 241 243 243 243 243 243 243 243 244 243 243 243 244 244 244 245
 209 192 137  55  61  67 122  73  84  55  83  62  70  87 122 145 157 169 188 195 193 194 193 193 194 196 198 199 199 200 200 198 195 195 189 182 174 165 162 157 155 153 151 152 152 150 152 151 151 152 152 151 151 152 150 147 146 141 129  90  68  49  39  42  46  44  44  44  36  43  43 132 232 240 238 241 244 243 243 243 243 243 243 243 244 245 243 243 244 245 245 245
 142  95  79  86  68  85 117  79  75  74  66  59  60  80 135 171 177 185 187 189 192 192 190 190 189 191 192 194 197 199 191 194 194 194 192 189 179 174 166 161 160 159 157 155 155 155 154 155 155 156 156 156 155 155 155 153 151 148 148 133 104  62  45  61  55  36  29  41  38  27  14 112 210 235 237 241 243 243 243 243 243 243 243 243 244 245 243 244 244 245 245 245
 122  72  95  98  67 109  81  91  78  73  64  54  53  65 139 177 189 190 189 190 190 189 187 186 184 184 185 189 187 181 185 186 189 189 188 185 180 175 170 166 162 161 159 158 157 157 157 156 156 157 159 157 157 158 159 159 157 156 158 159 148 120  52  36  71  92 112  63  31  42  25  30 191 245 236 240 243 243 243 243 243 244 245 244 244 245 245 244 245 245 245 245
  63  85 102  80  69  49  60  89  85  66  59  46  84  45 135 182 190 189 190 190 191 189 184 179 175 176 175 176 177 178 176 179 182 185 183 181 180 173 170 165 162 161 158 158 159 158 158 157 157 157 157 159 157 158 159 159 159 159 159 160 166 160 153 134 155 176 171 151  66  31  43  12  95 249 236 239 243 243 243 243 243 243 245 245 245 245 245 245 245 245 245 245
  83  92  85  32  44  51  60  40  38  42  51  70  80  66 141 187 185 185 187 190 189 187 180 173 172 170 168 159 161 163 163 169 171 168 170 167 166 166 164 161 162 160 158 157 157 157 157 157 156 156 157 158 157 156 156 156 159 161 162 163 164 165 171 174 182 185 184 171 134  32  41  41  18 244 237 240 243 243 243 243 243 243 245 245 245 245 245 245 245 245 245 245
  61  58  30  50  51  53  52  49  45  43  53  85  74 106 151 180 175 183 186 187 184 183 173 167 161 159 159 158 153 158 156 158 157 158 153 153 152 148 155 157 159 159 157 155 156 156 155 155 157 157 158 158 157 157 155 154 157 159 162 162 166 166 167 171 175 180 183 181 171  87  24  46  60  86 246 242 243 243 243 243 243 244 245 245 245 245 245 245 245 245 245 245
  54  51  49  55  48  50  49  44  42  41  65  92  73 136 161 168 179 183 185 184 181 175 170 166 162 157 153 145 145 146 150 150 147 147 147 143 144 146 148 151 152 155 156 155 153 154 154 155 156 156 157 158 157 157 156 156 156 157 158 160 163 163 165 168 172 177 182 185 184 155  30  56  54  34 230 243 242 243 243 243 244 244 245 245 245 245 245 245 245 245 245 245
  56  52  49  68  48  46  44  41  41  43  70  89 103 165 175 183 182 182 182 180 177 174 172 167 162 155 150 147 143 144 143 143 143 142 143 141 140 141 144 146 149 154 154 153 154 153 154 154 153 155 156 156 155 155 155 155 155 155 157 157 159 162 163 166 168 173 179 182 183 188  69  42  43  23 144 248 242 243 243 243 244 245 245 245 245 245 245 245 245 245 245 245
  49  49  54  59  46  42  41  39  42  50  63  91 144 167 185 185 182 181 179 176 173 172 170 166 160 155 150 147 145 143 144 143 143 141 139 140 139 140 141 144 148 149 150 152 153 154 153 153 153 154 154 154 154 154 154 154 153 153 156 156 157 159 161 163 165 169 175 179 181 187 105  25  51  38 105 241 242 243 243 244 245 245 245 245 245 245 245 245 245 245 245 245
  48  44  50  43  38  38  36  39  40  57  70 122 159 174 188 184 182 178 175 172 169 169 166 162 159 157 153 150 148 147 146 144 144 142 142 141 140 141 143 144 147 148 148 151 151 154 155 154 155 154 153 152 152 151 152 153 152 151 152 154 156 157 158 161 163 167 171 178 180 193 132  28  48  45  95 212 246 241 243 245 245 245 245 245 245 245 245 245 245 245 245 245
  46  40  42  40  38  35  37  39  37  63  98 136 170 186 186 183 179 175 173 169 167 163 162 159 159 159 156 153 150 151 151 148 147 145 145 144 142 144 147 148 149 150 150 151 152 153 155 156 155 156 153 152 152 152 152 152 152 150 150 151 153 155 158 159 161 164 170 174 178 192 163  70  35  42  99 201 246 242 243 245 245 245 245 245 245 245 245 245 245 245 245 245
  46  41  38  37  36  33  37  38  46  79 108 165 179 185 185 182 176 173 169 165 162 159 158 158 158 160 162 160 159 158 158 154 152 152 152 150 150 150 154 151 151 154 154 154 154 155 155 156 156 155 155 154 154 152 150 150 148 148 150 152 153 153 154 156 158 161 164 171 175 178 177 129  38  37  65 195 233 244 243 245 245 245 245 245 245 245 245 245 245 245 245 245
  43  40  38  35  33  33  36  29  56  94 128 177 179 183 182 180 175 170 165 161 157 156 154 155 157 158 160 163 163 164 162 160 159 160 160 160 153 154 155 160 163 159 158 157 157 156 156 155 155 156 154 154 154 153 152 150 149 148 150 153 154 154 154 154 154 157 160 167 170 173 186 164  42  43  54 183 223 245 243 245 245 245 245 245 245 245 245 245 245 245 245 245
  39  36  33  31  32  34  36  37  67  96 145 171 174 179 179 177 175 167 161 157 154 153 152 152 153 156 157 160 163 165 166 163 168 171 173 171 172 171 171 175 169 167 163 159 157 158 158 157 157 155 155 155 156 154 154 153 153 151 151 153 155 155 155 156 156 158 159 163 169 171 176 174 118  21  18 190 218 246 243 245 245 245 245 245 245 245 245 245 245 245 245 245
  33  30  31  32  34  33  35  48  75 101 152 162 168 176 174 173 169 165 159 155 152 150 150 151 152 154 157 159 165 166 167 172 175 178 179 178 183 180 180 181 175 170 165 161 159 158 157 157 158 156 155 155 157 155 155 156 155 156 156 156 157 157 158 158 158 159 160 161 165 169 174 174 174  32  15 146 216 247 243 245 245 245 245 245 245 245 245 245 245 245 245 245
  28  27  29  32  32  32  35  49  77 107 143 165 164 168 170 170 166 161 157 154 150 150 150 151 152 156 159 163 167 170 171 174 177 181 181 184 185 185 184 181 177 172 169 166 163 159 157 158 157 157 156 157 157 157 157 159 159 159 159 159 159 159 159 159 159 159 160 161 165 169 172 177 191  72  17  43 216 247 243 245 245 245 245 245 245 245 245 245 245 244 243 243
  26  23  26  29  30  33  40  50  79 103 136 156 160 162 167 167 163 160 156 152 149 147 146 149 153 156 162 167 169 172 175 177 180 181 182 183 184 184 182 180 176 173 170 166 165 162 160 158 158 158 156 157 157 159 161 162 162 160 162 163 162 160 160 160 160 159 158 159 161 167 172 176 190 134  28  16 168 249 242 244 244 245 245 244 244 242 242 242 241 240 237 237
  25  23  24  26  30  37  41  55  74 104 133 159 159 166 165 165 162 159 155 150 147 147 146 150 155 160 163 169 174 178 180 181 178 179 182 183 182 178 175 174 173 168 166 166 165 162 160 160 157 159 158 158 160 160 161 162 163 162 163 164 164 165 165 164 161 159 157 158 162 167 172 176 183 169  33  24  20 250 241 243 243 241 241 241 238 236 236 236 236 236 235 235
  24  22  24  25  30  37  42  55  83 109 131 156 159 162 162 162 160 156 152 149 149 149 152 155 163 167 171 174 176 179 180 178 177 174 172 173 172 170 164 157 158 162 162 162 163 162 159 157 157 157 157 159 160 159 160 160 161 162 163 163 164 165 166 166 163 161 159 158 157 164 169 173 178 184  50  30  18 184 233 234 236 235 235 235 235 233 233 234 234 234 233 234
  23  22  24  26  31  36  43  53  85 109 134 156 158 159 158 157 156 154 151 151 152 151 159 163 172 175 177 182 178 177 177 176 176 171 160 159 158 150 149 151 151 154 156 157 159 159 157 152 153 154 157 159 161 159 158 158 158 160 161 162 161 163 165 166 166 165 164 161 158 161 167 172 174 183  63  33  36  75 247 233 233 234 233 233 233 233 230 227 225 221 216 216
  22  22  24  28  33  37  43  54  80 111 140 159 157 156 156 155 154 153 151 153 159 163 170 179 184 183 181 182 185 179 173 174 168 163 159 151 145 140 138 138 139 142 148 151 155 154 151 150 149 151 154 155 156 157 155 155 155 157 158 158 159 160 163 166 167 166 165 161 161 161 165 169 171 184 107  27  44  24 245 230 234 229 223 216 211 209 209 212 216 219 226 233
  21  22  25  28  34  39  41  51  88 123 152 157 156 157 157 155 152 152 154 157 165 175 178 184 190 189 185 179 162 154 149 142 140 142 141 134 133 124 120 123 128 133 140 144 145 148 147 146 147 148 150 151 150 150 149 149 150 153 153 154 155 157 157 160 163 167 167 165 163 162 165 168 170 183 124  36  40  17 209 212 209 207 221 225 231 236 240 243 244 239 237 241
  21  23  25  29  34  39  43  42  98 140 152 156 157 156 156 151 149 149 153 160 168 173 175 169 167 150 145 138 124 115 105  98  93  83  69  82  89  91  99 102 111 123 127 132 141 140 141 139 139 141 142 145 143 145 143 139 140 146 146 152 148 147 150 158 162 162 165 165 165 164 164 165 168 180 135  37  38  17 187 238 241 242 242 240 238 239 241 241 239 239 237 238
  22  24  26  28  35  40  43  49 116 152 151 152 153 153 152 146 146 146 154 166 176 177 168 144 114 111 108  99  86  77  65  50  43  40  38  42  54  63  79  85  92 106 120 124 129 132 133 132 130 135 138 139 140 138 134 129 129 130 132 133 133 133 134 133 143 155 158 164 162 161 163 164 167 172 142  40  36  15 183 242 238 238 238 238 240 239 240 239 238 237 236 238
  22  24  27  29  34  40  43  68 128 150 149 152 152 150 146 143 145 150 162 173 179 143 119 104  90  72  70  72  53  56  48  39  41  44  44  46  46  59  69  80  87  87 109 118 120 127 128 126 126 129 130 130 134 136 125 122 119 118 109  88  80  69  71  82  99 117 130 136 153 169 161 162 165 172 147  40  32  17 165 244 237 236 237 236 236 236 237 238 236 234 233 235
  23  25  27  29  34  40  40  77 147 147 152 153 152 150 145 144 146 151 168 169 156 107  84  77  74  70  61  48  47  38  36  38  38  40  40  41  45  52  59  71  79  90 102 113 119 121 122 121 120 124 124 124 121 116 117 110 100  89  78  74  64  50  46  50  72  91  99 100 110 158 162 162 163 169 159  21  41  21 110 244 233 235 234 235 235 235 235 236 235 233 233 235
  23  26  27  29  33  34  42 102 144 147 154 154 152 148 145 144 145 154 151 130 104  81  82  71  59  61  53  49  46  40  37  36  38  39  40  40  44  51  58  67  69  86  96 103 111 116 117 118 117 114 116 118 115 113 108  97  89  93  65  56  42  46  48  51  45  61  69  74  72 113 166 162 164 167 159  19  42  27  53 243 233 234 234 235 235 236 235 236 236 234 234 238
  24  26  28  29  33  31  49 115 147 157 155 154 152 146 143 141 148 132 109  88  92  78  68  62  61  56  54  51  39  42  41  32  39  41  41  40  47  47  60  66  68  80  93 101 108 113 115 116 116 116 116 116 114 107  96  85  84  73  59  51  47  43  47  49  52  50  65  76  86  62 129 159 164 166 152  17  43  25  62 244 234 235 235 235 236 236 238 238 237 236 238 241
  25  27  27  29  32  34  42 130 158 159 157 154 150 146 143 141 134 109  90  89  81  73  69  64  61  60  56  56  63  64  63  59  53  57  56  58  57  65  68  70  73  80  88  99 106 111 116 118 119 119 120 118 114 106  96  87  79  69  52  52  51  50  48  47  48  53  62  75  81  82  90 145 164 166 146  16  41  28 127 244 234 236 236 237 238 239 240 240 240 241 241 243
  28  27  27  28  33  32  53 141 162 159 157 152 148 146 142 138 126 107 102  86  76  75  71  69  69  69  77  78  71  79  81  81  78  69  65  64  63  66  66  69  73  78  84  95 105 114 117 120 122 124 125 122 116 106  96  90  82  76  67  59  55  56  43  46  50  58  66  74  81  83  71 128 165 170 128  19  42  14 190 245 238 240 239 241 241 241 243 244 244 243 243 243
  30  26  26  28  34  32  75 151 161 159 156 151 145 141 139 136 122 105  99  84  75  73  71  72  73  77  86  95 108 111 109 111 106  97  84  79  72  67  66  65  68  75  82  93 103 112 119 123 127 126 127 124 117 105  98  92  86  82  78  76  78  81  83  78  75  66  58  75  83  85  73 110 162 177 111  19  42  15 227 244 241 242 242 243 243 243 243 243 243 243 243 245
  31  28  28  32  36  29  86 155 162 160 156 149 143 139 132 121 110  93  82  80  75  73  74  76  81  93  94  96 103 109 108 113 113  95  92  84  79  71  69  66  65  70  78  91 106 119 125 130 133 134 133 132 114 107  97  91  86  83  82  84  91  93 102 110 103  92  90  87  88  90  85 100 155 182  87  19  42  23 244 245 242 243 243 244 244 245 245 245 244 243 244 244
  30  28  29  31  36  24  91 163 161 158 152 146 139 131 125 108 100  86  81  78  74  74  76  81  86  88  78  85  77  69  67  59  54  64  74  89  87  73  72  67  64  64  70  88 105 120 128 134 141 141 143 140 112 102  94  90  86  81  81  81  85  92  99 103 110 113 100  96  96  96  92 103 156 189  78  17  22  86 250 243 243 243 245 245 245 245 245 245 244 243 243 244
  29  26  27  29  33  21 107 171 159 156 150 144 133 126 114 102  90  84  79  77  75  75  77  78  80  79  77  76  83  92  91  89  88  83  70  51  57  69  67  66  64  63  65  82 102 118 135 139 142 147 143 133 106  92  91  88  85  77  72  77  81  97 100 106 103  98 107 103 100 100 101 108 151 194  69  14  17 199 247 243 244 245 245 245 245 245 245 245 245 245 245 245
  25  24  25  30  35  23 116 168 159 155 149 139 129 116  94  95  88  83  79  77  75  76  77  74  75  76  84  89  72  63  64  61  55  49  52  52  49  39  54  61  62  62  66  76  92 118 129 137 143 146 150 127 108  88  87  83  69  70  72  76  84 101 102 107 110 112  94 104 103 104 102  99 155 199  60  15 113 250 248 244 244 245 245 245 245 245 245 245 245 245 245 245
  23  25  28  31  36  24 123 168 160 154 146 136 124 111  91  91  87  83  80  76  75  75  69  68  75  75  62  41  27  17  18  15  21  17  14  35  41  45  46  56  59  62  64  74  90 115 133 139 144 147 145 120 101  90  82  71  65  64  66  74  82  91 100 114 112 113 102  97 103 106 107 115 155 199  42  17 237 247 243 245 245 245 245 245 245 245 245 245 245 245 245 245
  27  29  31  33  32  21 126 173 161 153 145 134 124 102  99  91  87  81  77  76  73  68  64  71  65  44  42  51  63  33  32  30  28  28  13  57  41  40  46  52  56  63  68  76  89 115 138 147 150 153 146 112  96  88  73  54  61  60  58  61  64  58  66  77 104 115 123  91  99 108 112 108 151 199  43  22 245 243 243 245 245 245 245 245 245 245 245 245 245 245 245 245
  24  33  36  35  36  14 123 174 161 153 146 135 117 108  97  92  84  79  74  71  66  65  60  49  26  39  50  66  77  55  28  30  29  26  34  66  51  45  43  52  59  66  71  79  84 116 145 152 157 156 153 115  91  81  64  60  55  48  53  26  15  15  15  14  13  55 104 115 100 107 116 122 147 187  43  69 249 243 245 245 245 245 245 245 245 245 245 245 245 245 245 245
  38  25  39  37  36  20 121 177 160 153 147 135 123 109  99  92  83  76  71  65  62  53  41  40  45  45  52  67  73  80  42  22  27  33  61  61  56  53  50  53  61  68  75  80  80 121 161 176 168 164 158 123  92  78  60  59  52  70  92  31  33  32  36  40  39  25  40 102  99 110 117 128 147 195  39 134 249 243 245 245 245 245 245 245 245 245 245 245 245 245 245 245
  80  38  37  37  37  23 120 174 159 154 148 135 124 105 102  94  86  79  71  67  63  63  61  60  55  54  57  63  69  68  72  62  66  67  59  60  59  59  59  59  59  67  81  79  91 137 174 201 172 166 164 134 105  57  58  59  61  99 104  51  34  38  40  37  75  55  43  67  95 111 115 133 147 196  39 205 249 244 245 245 245 245 245 245 245 245 245 245 245 245 245 245
 111  76  53  36  30  37 122 171 159 153 147 135 125 114 109  96  90  84  79  75  75  73  76  73  63  62  61  63  63  61  61  61  59  58  58  59  59  61  63  63  67  79  85  86  99 157 192 196 184 178 172 165 104  71  71  68  65  85  95  75  32  42  38  61 105  61  51  57  89 108 125 136 149 192  46 233 242 241 241 243 243 243 243 243 243 245 245 245 245 245 245 245
 108  97  64  36  21  47 118 165 157 151 144 135 126 118 113 107  95  92  90  88  83  80  76  72  68  63  62  60  59  59  59  58  56  56  57  59  62  63  67  63  78  85  88  84 127 170 169 193 190 184 176 176 124  82  82  74  71  73  74  79  70  56  67  97  94  87  82  79  93 115 128 138 155 180 162 235 237 241 242 243 243 243 244 244 244 245 245 245 245 245 245 245
 105 112 101  36  41  43 120 161 152 149 145 135 128 122 120 114 109 100 100  96  89  82  77  73  69  63  58  57  56  56  56  56  57  58  59  62  64  67  70  78  92  96 101  97 135 163 192 188 188 183 178 178 149  98  72  74  70  66  69  70  71  79  83  80  85  84  94  99 107 119 127 141 152 168 227 247 244 243 243 243 244 245 245 245 245 245 245 245 245 245 245 245
 109 109 113  59  52  51 113 156 151 148 142 137 130 129 129 128 128 123 112  99  94  88  84  78  73  66  58  55  55  53  56  57  61  64  66  69  70  74  74  91  96  99 100 110 136 157 185 184 182 179 175 169 158 119  84  70  72  71  70  69  72  74  78  82  88  87 111 115 116 123 131 146 148 164 244 245 245 244 244 245 245 245 245 245 245 245 245 245 245 245 245 245
 102 108 112  74  38  55 113 156 149 147 143 138 137 137 142 142 143 139 135 116 109 104  96  94  90  83  78  72  73  71  71  73  72  70  71  74  76  74  92 103 101 105 112 119 136 154 167 182 180 180 174 169 163 133 108  91  82  78  73  70  72  75  79  85  89  97 113 119 124 130 133 147 159 163 240 246 244 245 245 245 245 245 245 245 245 245 245 245 245 245 245 245
  97 108 110  94  36  53 113 153 148 147 144 142 141 143 149 154 156 163 164 159 134 113  99 106  96  97  96  98  90  88  84  83  81  79  79  80  77  89 101 105 105 108 116 124 144 152 165 177 182 180 175 168 166 145 130 101  86  84  84  82  68  74  82  88  94 101 123 122 128 138 140 148 161 169 185 249 245 245 245 245 245 245 245 245 245 245 245 245 245 245 245 245
  99 112 112 117  42  47 117 150 146 147 146 145 145 149 155 162 173 185 184 180 174 156 135 125 116 109 108 103 101  96  91  89  90  88  88  89 105 108 108 109 110 112 121 141 156 170 178 188 192 184 177 174 171 155 138 118  94  93  92  94  94 102  86  97  90 116 126 129 133 143 145 149 158 180 107 249 245 245 245 245 245 245 245 245 245 245 245 245 245 245 245 245
 100  96 108 122  39  55 118 145 147 149 148 148 149 153 161 173 174 176 177 178 177 178 163 141 133 120 112 109 105 100  98  96  97  98  99 110 108 109 110 111 111 120 138 152 170 182 194 203 199 191 184 178 175 162 140 138 121 104  99 100 103 107 114 116 122 126 129 133 135 143 149 153 159 184  40 237 245 245 245 245 245 245 245 245 245 245 245 245 245 245 245 245
  59  40 104 139  44  58 108 144 147 150 150 150 152 158 163 169 171 172 172 170 174 177 180 154 140 128 122 113 109 102 105 104 109 111 115 114 113 113 113 114 106 131 150 166 174 182 193 198 200 196 191 183 179 168 155 139 136 122 110 107 109 112 115 119 124 129 132 131 144 148 153 156 162 180  36 228 245 245 245 245 245 245 245 245 245 245 245 245 245 245 245 245
  44  41 147 143  27  56 107 146 147 150 150 151 154 158 162 165 167 163 163 166 162 160 156 157 144 134 124 117 118 116 110 116 120 119 119 119 117 114 112 115 113 139 154 170 176 183 188 197 201 196 189 184 181 178 169 142 141 140 126 116 112 117 121 125 129 134 139 145 151 155 158 159 163 179  37 229 245 245 245 245 245 245 245 245 245 245 245 245 245 245 245 245
  46 116 186 156  22  57 106 147 147 150 150 152 155 157 157 150 150 152 153 150 147 144 135 142 140 135 128 128 127 125 126 125 127 126 124 122 117 116 114 113 119 140 155 169 176 181 187 195 198 193 188 183 181 180 173 151 145 145 144 130 123 126 126 130 133 138 143 150 154 160 162 164 165 175  36 237 245 245 245 245 245 245 245 245 245 245 245 245 245 245 245 245
  30 178 179 159  35  52 104 141 145 149 152 152 155 156 153 151 144 135 130 131 127 125 130 136 137 134 140 135 140 131 131 131 128 126 126 121 117 114 113 112 129 148 160 166 174 180 186 192 199 198 184 183 180 179 176 156 142 145 145 144 140 136 132 134 137 141 148 153 158 160 162 165 165 170  38 247 245 245 245 245 245 245 245 245 245 245 245 245 245 245 245 245
  33 176 161 154  37  59  97 144 148 150 151 151 151 151 149 144 137 135 135 134 133 134 135 141 144 149 147 144 142 140 135 132 131 128 127 121 114 110 107 114 140 165 171 172 174 178 180 182 171 174 182 178 175 175 177 159 140 144 146 147 147 143 141 141 141 141 150 153 155 158 161 164 164 165  52 249 245 245 245 245 245 245 245 245 245 245 245 245 245 245 245 245
  47 169 145 150  22  59  94 134 149 147 149 150 148 146 146 140 133 132 134 135 138 141 144 147 148 150 149 148 146 142 138 135 132 128 122 116 109 102  89 131 170 182 184 174 174 175 179 176 170 165 158 164 166 167 171 172 135 142 143 147 147 148 148 146 146 146 146 149 153 155 158 161 164 162  86 250 245 245 245 245 245 245 245 245 245 245 245 245 245 245 245 245
  53 151 125 128  46  57  95 114 147 145 147 147 146 145 143 134 130 130 133 136 139 144 146 145 146 147 149 147 145 144 139 135 131 127 119 110  97  85 101 161 172 178 181 177 169 172 165 163 155 146 149 149 155 158 163 170 155 131 140 143 148 151 150 151 151 149 148 149 152 154 156 161 163 159 132 248 245 245 245 245 245 245 245 245 245 245 245 245 245 245 245 245
  38 125 125 131  56  54  90 111 136 142 144 144 144 142 140 132 129 129 130 134 138 141 142 143 145 145 145 144 144 139 138 133 129 121 113 105  95  76 111 167 175 171 165 153 153 147 145 143 141 142 141 133 142 148 152 157 158 135 137 140 145 149 151 153 154 153 152 152 153 154 155 158 162 146 161 248 244 245 245 245 245 245 245 245 245 245 245 245 245 245 245 245
 195  97 125 127  70  59  88 103 134 141 142 144 142 141 133 129 126 127 130 132 135 135 137 141 141 144 142 141 141 134 126 123 120 114 107 105  84  69 119 156 149 143 138 128 114 111 115 113 123 124 123 130 132 131 139 150 146 158 119 137 142 147 151 151 154 155 156 156 155 154 154 156 160 143 159 249 245 245 245 245 245 245 245 245 245 245 245 245 245 245 245 245
 200 105 114 126  59  71  86  88 118 136 140 140 138 136 128 125 124 125 127 131 133 135 136 136 137 137 138 137 132 129 125 117 115 112 105  97  84  71 114 129 119 117 114 102  91  89  96 105 105 113 114 119 125 130 134 130 134 151 115 131 137 147 149 152 154 155 156 156 157 154 153 156 157 134 157 248 244 245 245 245 245 245 245 245 245 245 245 245 245 245 245 245
 199 150 110 127  51  75  78  76 107 131 134 133 131 130 122 121 122 121 122 129 129 130 130 131 130 130 130 129 127 127 121 116 111 109 101  93  85  62  98 107 102  91  82  80  74  71  89  92  99 102 108 111 108 116 117 116 124 141 126 129 132 140 147 151 152 154 157 157 157 156 155 156 160 128 166 248 245 245 245 245 245 245 245 245 245 245 245 245 245 245 245 245
 152 163 149 115  57  74  77  77 106 121 126 128 127 120 117 116 118 119 120 120 125 125 125 125 124 125 125 125 122 119 114 112 109 104  99  92  84  74  77  81  75  75  57  24   9  32  69  79  86  88 100 104 110 109 111 108 114 127 120 123 131 139 143 149 151 154 157 157 156 154 155 155 161 117 167 247 245 245 245 245 245 245 245 245 245 245 245 245 245 245 245 245
 158 152 143 116  52  70  77  80 100 102 120 121 118 119 114 114 115 116 117 117 118 119 119 117 118 119 120 120 117 113 111 108 106 102  96  93  87  78  64  61  68  62  52  41  27  21  40  66  74  82  87  96 103 107  54  39 110 116 115 121 127 133 141 146 149 154 157 157 156 154 154 152 159 100 164 248 245 245 245 245 245 245 245 245 245 245 245 245 245 245 245 245
 161 142 130 116  48  72  75  80  93  97 108 116 115 111 108 111 110 112 112 113 114 115 116 115 115 112 114 114 111 110 109 107 103 100  97  95  95  88  65  50  47  53  55  64  56  47  46  47  65  73  78  84  81  75  58  55  97 115 117 117 126 132 140 145 148 151 154 155 155 155 153 152 153  90 183 248 245 245 245 245 245 245 245 245 245 245 245 245 245 245 245 245
 130 139 149 120  60  72  75  82  92  94 103 110 111 102 101 103 105 106 108 108 108 110 111 111 110 111 110 111 109 107 106 105 102 101 101 101 105 103  95  74  55  57  57  58  60  54  52  52  60  68  72  78  85  79  75  82 101 116 118 120 126 132 138 142 146 150 152 154 154 154 152 149 146  63 190 247 245 245 245 245 245 245 245 245 245 245 245 245 245 245 245 245
 128 157 146 123  72  71  74  76  77  84  97  95 101 100  98 100  99 102 102 104 105 105 108 108 108 106 106 105 105 105 105 104 103 104 102 111 112 115 114  93  66  63  59  59  57  54  53  57  60  64  69  73  82  85  85 101 115 120 120 123 127 131 135 141 145 147 151 153 154 154 151 145 136  54 201 248 245 245 245 245 245 245 245 245 245 245 245 245 245 245 245 245
 134 136 112 100  73  74  75  76  77  73  92  95  93  94  89  86  93  96  98  99  99 100 102 104 104 103 103 101 100 103 104 104 107 112 119 118 117 115 116  97  68  62  56  51  47  48  51  54  58  58  53  59  77  86 106 112 124 125 124 124 125 129 134 138 143 147 151 152 155 154 152 136 136  30 220 248 245 245 245 245 245 245 245 245 245 245 245 245 245 245 245 245
 116 116  91  82  72  75  71  74  73  71  90  83  87  87  90  78  87  93  93  90  92  95  96  99  99  98  97  96  98 101 104 105 109 112 115 116 115 115 108  89  67  57  48  44  41  41  44  54  52  46  47  46  62  79  93 114 127 127 128 125 125 128 133 137 141 145 148 150 153 150 148 136 116  29 230 248 245 245 245 245 245 245 245 245 245 245 245 245 245 245 245 245
 101  93  79  74  78  73  70  71  72  74  79  69  71  80  74  67  78  92  88  84  85  90  91  96  96  96  95  94  96  98 101 106 109 110 113 115 116 114 105  73  61  56  43  39  37  37  41  47  48  47  46  47  49  55  88 110 123 127 127 126 125 128 131 134 139 142 146 148 148 148 144 125 110  26 230 248 245 245 245 245 245 245 245 245 245 245 245 245 245 245 245 245
  91  83  70  74  75  72  71  69  71  73  72  72  73  73  62  56  74  72  78  77  79  86  90  94  94  94  93  93  94  97 100 103 109 102  94  96  98  87  75  66  53  46  38  37  36  38  40  46  47  45  45  47  47  53  74  91 120 126 127 124 125 124 132 133 138 141 143 145 145 140 139 121 105  25 237 248 245 245 245 245 245 245 245 245 245 245 245 245 245 245 245 245
  66  66  61  60  87  77  72  69  69  70  70  68  68  69  65  56  67  70  71  71  77  80  91  92  95  93  92  92  92  91  94 100  91  85  77  72  74  65  57  51  50  45  38  37  39  40  42  44  46  45  46  48  47  51  54  55  96 113 116 119 119 121 117 132 138 142 143 143 142 142 122 111  93  27 238 247 245 245 245 245 245 245 245 245 245 245 245 245 245 245 245 245
  42  49  48  54 100  73  69  69  68  70  72  67  62  64  64  63  65  67  67  67  71  76  86  90  93  92  91  90  88  86  88  81  70  70  61  61  64  59  52  48  48  42  36  38  39  40  42  47  44  46  48  49  50  50  53  52  83  96 100 112 116 115 118 131 137 138 140 140 142 124 110  93  94  26 239 246 245 245 245 245 245 245 245 245 245 245 245 245 245 245 245 245
  46  46  48  38 139  56  67  68  67  69  72  71  57  60  62  62  64  64  64  61  58  72  80  87  89  90  89  87  82  77  66  54  55  50  40  45  49  53  51  46  44  54  43  54  67  62  52  39  41  42  50  47  46  46  47  56  64  73  83  85  97 108 104 128 134 134 137 136 129 119  98  90  86  31 237 248 245 245 245 245 245 245 245 245 245 245 245 245 245 245 245 245
  45  45  47  37 146  52  64  57  66  68  70  68  57  57  56  58  61  62  61  55  57  71  75  81  86  88  84  82  75  67  57  46  42  34  37  40  47  54  57  59  64  68  73  73  82  94  99  94 100 102  98  98  79  66  67  66  62  61  63  75  88 111  91 121 131 133 134 129 119 113  98  92  83  43 237 248 245 245 245 245 245 245 245 245 245 245 245 245 245 245 245 245
  44  46  47  24 126  69  60  58  60  67  65  62  57  55  52  52  57  61  61  57  52  65  72  77  84  87  84  79  74  59  42  37  36  34  36  41  47  55  61  57  54  54  55  57  58  65  78  91  89  90  86  80  86  92  81  73  63  54  47  55  58  87  99 114 128 132 132 125 103 108 100  92  76  52 245 248 244 244 245 244 244 244 244 245 244 244 244 245 245 245 245 245
  44  45  46  18 156  86  51  57  54  46  57  57  56  54  51  50  54  57  57  55  53  58  73  74  82  85  84  80  70  55  41  39  36  32  30  37  43  43  38  40  42  46  50  48  52  56  60  70  74  69  66  66  64  65  77  78  72  57  54  49  54  50  94 108 125 133 130 119  99  97 101  83  82  53 240 250 250 250 250 250 249 249 249 249 248 249 246 245 241 242 243 243
  43  44  45  17 157  95  69  58  56  51  51  54  54  54  51  50  51  51  51  51  50  53  61  70  77  80  82  79  71  58  48  44  39  34  29  17  22  23  25  29  32  22  23  33  38  40  49  55  58  60  55  59  60  59  62  70  73  60  53  51  52  39  83 110 125 129 128 114  98  83  68  65  38  55 215 200 206 206 198 199 194 194 192 195 196 194 198 236 236 240 242 243
  44  44  47  21 163 108  74  59  56  55  52  52  54  54  52  50  50  49  47  48  47  49  49  66  73  77  80  78  73  67  52  50  44  39  46  50  52  58  61  69  79  88  87  83  75  77  73  60  56  49  53  36  33  29  32  35  45  48  43  50  54  43  78 105 122 127 128  95  72  82  62  66  26  62 201 197 198 199 200 200 202 199 198 199 200 201 201 239 234 240 243 243
  43  42  44  29 164 118  65  60  56  53  51  51  51  52  52  50  45  46  46  47  47  48  54  62  70  75  77  77  73  67  60  58  55  60  66  73  79  84  89  87  84  83  84  89 105 108 106 103 102 113 113 114 111 108  88  59  52  28  44  50  55  50  84 110 124 123 124  82  75  71  57  59  21 136 196 196 197 198 198 199 199 199 198 199 198 198 203 232 232 242 246 244
  19  29  32  53 154 123  74  56  54  51  47  48  52  52  51  50  47  44  43  44  44  46  49  60  68  73  76  76  72  67  65  64  67  69  72  72  75  78  80  83  84  84  85  88  90  93  96  98 105 109 108 107 108 110 108 109 100  79  56  55  52  73  91 111 122 121 114  83  58  63  59  56  18 192 193 194 196 195 196 197 197 196 196 196 196 198 204 231 226 213 208 244
 184 193 194 191 176 125  85  60  54  49  45  44  48  51  50  48  45  43  41  41  40  42  50  60  67  72  75  74  70  67  68  71  73  73  75  77  76  76  77  78  77  80  81  82  83  87  93  98 105 110 108 108 108 109 113 112 111  97  80  72  75  86  89 115 119 121 106  77  45  56  56  45  23 209 191 193 195 195 195 195 195 195 195 195 195 191 208 225 214 189 189 216
 202 200 199 197 174 130  99  61  49  46  43  42  43  45  46  46  45  41  38  38  38  40  50  57  65  69  72  71  69  66  68  72  75  76  76  77  76  74  74  70  68  65  65  67  69  69  69  74  76  84  93  97 100 104 107 108 108 105  95  87  82  91 100 117 117 115  97  72  49  51  50  26  92 205 190 191 192 193 192 193 191 190 192 192 192 195 193 166 165 180 155 199
 196 195 195 197 181 129 112  78  40  46  43  41  40  40  41  43  43  41  37  37  37  40  44  55  61  66  70  68  66  64  65  70  75  78  76  77  75  74  71  67  62  55  44  42  46  50  52  56  58  62  68  72  87  89 101 105 108 108 106  96  90  90 102 112 117 118  81  58  52  47  46  14 145 187 187 184 186 184 180 181 183 181 176 177 173 172 158 147 170 176 172 155
 195 194 194 195 185 130 119  89  48  47  42  40  39  37  37  38  40  40  35  33  35  40  45  53  60  65  68  65  63  62  64  69  74  76  76  75  74  73  71  69  65  55  49  45  42  39  36  36  36  34  51  67  79  90  97 105 109 109 108 100  98  99 103 111 114 114  81  52  52  48  34  28 170 177 179 180 180 180 180 180 180 180 180 181 180 179 179 181 176 177 178 179
 193 193 192 194 179 137 119 103  76  49  43  40  36  35  33  33  33  35  32  30  33  38  43  49  56  62  63  62  58  58  61  65  70  71  72  72  72  73  72  70  66  60  53  47  43  39  39  37  40  43  52  64  77  88  97 105 109 109 109 105 101 101 103 109 109 111  85  62  55  50  26 113 180 177 180 182 182 182 182 182 181 180 180 181 180 180 181 180 180 180 180 180
 191 190 189 190 183 140 110 109  94  66  51  37  34  32  31  29  28  28  28  28  31  36  40  46  53  59  60  61  57  55  57  61  68  70  72  71  73  73  74  74  68  52  49  43  38  42  33  38  38  44  56  69  81  88  97 101 105 107 105 103 101 100 102 107 107 103  85  57  57  54  16 164 179 178 180 181 182 181 180 180 180 180 181 180 180 180 180 180 181 181 180 180
 183 182 181 176 178 135 118 107  96  84  60  36  34  29  28  27  26  25  25  27  28  33  39  45  50  54  56  56  56  53  56  61  66  69  72  74  76  77  78  79  81  84  89  90  88  72  63  60  63  69  71  76  87  92  97 101 104 103 101  99  98  99 102 103 104 100  76  53  51  46  50 182 177 179 180 180 182 182 180 180 180 180 181 180 180 180 179 180 180 180 182 181
 164 167 169 170 170 141 113 110  93  84  73  55  29  29  27  26  26  25  26  26  27  32  39  44  48  48  49  53  53  55  55  58  64  71  74  79  80  80  86  89  93  99 102 101  98  91  88  97  99 110 105  93  89  94 100 101 102 100  99  96  94  97  99 100  96  87  60  49  45  11 119 182 177 180 180 181 180 181 180 180 180 180 180 181 180 180 180 180 180 180 180 180
 180 180 180 174 174 140 118 109  98  88  82  69  39  23  28  26  25  25  25  24  26  30  37  42  47  46  45  47  48  50  51  54  59  67  74  80  86  90  94  97 105 108 108 103  98  98  96 103 107 110 117 113 107 105 106 104 104 101  96  94  94  93  96  96  95  68  51  44  31  20 167 178 177 179 179 180 180 180 180 180 180 180 180 180 180 180 180 180 180 180 180 180
 165 169 172 144 134 140 124 109  98  90  83  78  54  20  27  25  24  23  24  24  26  28  30  36  41  41  40  41  42  44  45  48  55  65  71  80  87  97  98  99 104 108 108 104 101 101 102  98 101 108 120 124 117 112 112 111 108 104  98  94  89  88  90  93  82  59  41  38  16  93 180 175 177 180 179 179 178 179 179 178 179 179 179 179 179 178 179 180 180 180 179 180
  40  41  46  31  54 150 120 112 101  92  84  80  61  48  31  26  25  23  23  23  24  25  28  29  37  34  34  35  35  38  41  48  54  62  72  77  85  92  94  95  97 103 103  97  98 100  96  88  98 108 119 124 127 127 121 117 112 107  98  93  82  84  84  81  70  52  41  25  15 156 178 175 178 178 179 179 178 178 178 178 178 178 177 179 179 180 180 180 180 180 180 180
  12   7   6   9  13 152 116 104 104  90  83  77  69  57  34  24  25  23  23  23  22  22  24  27  30  27  26  25  28  34  40  47  53  50  72  75  80  89  88  88  88  84  87  84  86  91  89  77  92 105 114 121 125 125 123 119 115 108  96  88  82  72  66  72  59  49  38  12  90 186 176 177 177 178 178 178 178 178 178 178 177 177 178 178 178 178 178 178 178 179 179 178
  16  14  15   8  42 145 118 110 101  91  82  75  67  61  51  36  25  23  23  21  19  20  21  24  25  22  21  22  26  33  39  45  48  53  64  69  76  80  79  77  81  76  65  70  73  79  77  79  81  94 104 119 120 123 123 121 110  98  91  87  83  69  61  50  55  43  34  14 159 175 175 175 176 177 176 176 177 176 176 176 175 176 176 177 177 177 177 177 178 178 178 178
  13  11  12   6  84 141 119 109 100  91  84  77  69  63  56  47  27  24  20  20  18  19  19  21  22  20  20  22  27  31  36  39  44  48  49  56  55  60  55  67  63  65  62  53  56  52  65  63  66  75  91  89  94  97 105 101  96  88  77  55  66  62  53  49  45  30  14 126 163 173 174 174 175 174 175 176 176 175 175 176 175 175 176 175 175 175 175 175 175 176 175 175
  11  11  12   5 134 136 117 107  99  92  85  78  70  64  59  54  37  26  20  18  17  16  18  19  18  16  18  20  24  28  30  33  35  38  45  48  50  49  53  56  52  48  48  48  50  51  55  58  59  65  75  79  82  78  86  83  84  79  67  52  45  45  42  36  32  19  66 176 169 170 174 173 173 173 174 173 174 174 173 173 173 173 173 172 172 172 173 173 173 173 172 172
  11  13  14   6 154 128 113 107  97  92  85  74  66  61  59  56  50  29  22  18  17  17  17  18  17  16  18  19  21  25  28  30  31  33  36  41  41  41  45  46  45  45  43  44  45  47  47  48  53  59  56  55  66  71  68  74  76  66  63  50  42  34  32  33   8  30 144 170 168 170 169 170 171 171 170 171 171 171 171 171 171 171 169 169 169 173 171 172 173 170 170 172
  12  13  14  10 171 124 116 108  95  91  83  75  64  62  60  57  54  39  19  23  19  17  16  16  17  17  17  19  20  23  26  26  26  27  28  34  34  35  38  39  38  40  41  40  39  40  43  45  46  49  48  47  46  52  60  55  57  59  45  44  38  33  33  30  10 133 155 168 166 168 170 172 171 170 170 172 173 168 167 165 166 166 164 167 163 162 162 163 156 148 148 146
  12  13  11  28 164 125 116 109  99  91  84  78  73  62  60  59  53  44  32  28  22  17  16  16  15  16  17  18  20  21  23  24  23  23  25  27  28  27  30  32  31  30  35  34  33  33  38  40  40  43  41  41  45  45  41  48  48  51  45  38  34  31  30  24  26 120 164 161 139 142 139 129 119 122 115 106  92  94  92  80  69  71  72  67  59  54  49  58  57  98  73  74
  11  12   5  89 147 130 118 109  99  91  84  78  71  64  61  56  50  44  41  31  25  18  15  15  13  13  15  17  18  19  21  19  19  19  20  22  21  21  22  21  24  24  25  26  26  25  28  30  33  35  32  33  34  38  39  33  38  42  43  34  30  28  26  18  40  54 122 205 185 151 121 121 120 128 133 136 134 135 137 135 140 138 142 143 143 144 148 148 147 149 149 151
  11  12   7 133 135 131 125 111 101  93  84  77  70  64  61  54  49  44  40  36  29  23  19  14  13  15  15  16  17  17  17  17  17  17  18  18  19  19  18  19  19  19  19  20  19  19  20  22  26  29  28  27  27  29  28  30  32  35  34  28  25  25  12  44  41   7  10  16  38  92 168 194 178 154 148 145 146 146 147 146 145 145 145 146 146 146 146 146 147 148 148 148
  12   6  59 152 138 133 124 115 103  94  84  74  70  65  61  55  49  44  42  39  33  28  21  17  16  15  15  16  14  15  16  17  16  16  16  16  16  16  17  17  16  16  16  16  18  20  19  19  20  24  23  23  24  24  22  25  26  26  24  23  19   8  44  79  30  14   8   8   8  10  24  84 125 172 180 160 144 145 150 149 148 146 148 148 148 149 148 148 150 150 150 150
