P2
92 112
255
 245 245 245 245 245 245 245 245 245 245 245 245 245 245 244 243 243 243 244 244 244 245 245 244 245 245 244 243 243 246 198 228 227 191 144  92  68  55  63  54  37  60  58  34  29  36  32  40  44  43  56  57  53  52  55  50  34  28  29  37  31  21  27  50  58  63  67  56  39  43  43  39  49  79 132 181 210 223 222 222 218 221 222 223 222 216 220 221 210 196 185 148
 245 245 245 245 245 245 245 245 245 245 245 245 245 245 245 244 243 243 243 243 243 244 243 243 244 245 243 243 243 245 215 198 188 131  84  84  58  56  46  51  51  47  38  37  32  31  35  40  43  46  47  44  44  45  40  34  36  39  37  39  41  42  42  46  48  57  68  62  48  38  42  45  34  32  35  75 160 210 212 216 203 219 213 205 190 177 146 103  92  80 114 142
 245 245 245 245 245 245 245 245 245 245 245 245 245 245 245 245 244 243 241 241 242 243 243 243 243 244 243 243 243 247 224 160  80  58  64  59  46  47  45  44  41  37  37  29  28  29  32  38  40  40  37  37  36  30  21  23  30  33  36  39  44  43  43  47  50  51  65  70  56  47  44  42  43  48  49  39  44 121 177 178 161 143 127 147 114 132 160 199 220 237 243 244
 245 245 245 245 245 245 245 245 245 245 245 245 245 245 245 245 245 243 243 241 241 239 241 242 243 244 243 241 245 237 165  58  68  63  48  42  43  45  41  38  36  36  33  30  29  29  31  33  34  32  31  29  23  22  22  20  22  25  27  25  31  39  40  49  58  53  48  52  52  48  46  43  44  48  53  50  34  32  54 137 156 185 223 232 241 247 245 245 244 240 238 238
 245 245 245 245 245 245 245 245 245 245 245 245 245 245 244 244 243 243 243 243 241 241 238 239 240 241 243 244 236 151  57  50  63  54  51  47  45  45  41  39  38  37  33  31  31  31  32  31  29  29  27  23  22  21  21  22  23  22  21  20  12  30  34  29  15  20  34  40  46  50  51  46  45  48  51  49  48  43  64  69 124 163 218 240 236 232 233 236 237 237 238 239
 245 245 245 245 245 245 245 245 244 244 245 243 243 244 243 243 243 243 243 243 243 242 239 235 236 240 244 240 170  51  47  53  56  54  40  42  47  45  46  43  42  40  37  34  34  31  30  28  27  25  22  22  22  22  21  20  21  20  18  18  17  16  29  32  34  32  26  19  22  27  39  47  44  43  49  52  47  49  37  50  57 131 151 168 223 234 233 235 236 238 239 240
 245 245 245 245 245 245 245 244 244 243 243 243 243 243 243 243 241 241 243 241 241 241 241 237 233 222 231 187  89  38  62  59  58  52  71  66  59  55  40  48  46  43  40  39  37  34  32  30  28  24  26  24  23  25  24  23  22  20  18  17  16  17  15  29  35  37  33  31  28  29  21  28  40  43  47  52  51  53  61  57  42  25  83 166 149 178 242 233 236 238 240 241
 245 245 245 245 244 245 243 243 243 242 243 243 243 242 242 241 242 242 242 241 241 241 239 238 235 225 197 109  58  62  61  56  56  85  81  79  80  73  79  65  47  44  43  44  41  41  36  32  33  35  31  31  30  29  29  25  25  24  22  20  19  18  18  22  31  34  33  30  29  28  28  29  31  37  42  49  53  56  60  62  50  48  50  78 121 153 218 238 235 238 240 241
 245 245 245 243 243 244 243 244 243 241 242 241 241 241 240 241 242 240 240 238 239 238 237 236 243 226 122  55  61  61  64  78 104 113 123 132 134 126 117  78  75  73  72  63  61  53  49  50  50  48  46  29  38  38  37  37  34  32  26  23  22  19  18  19  22  30  33  30  27  23  24  26  29  32  37  41  46  43  46  37  47  47  43  52  61 148 167 243 237 238 241 241
 243 242 242 241 242 242 242 241 242 241 241 241 240 241 241 240 240 238 238 238 236 236 237 237 234 134  46  57  53  64  99 122 139 156 168 167 171 162 148 132 113 110  99  77  56  57  59  62  64  65  58  50  46  42  36  46  38  35  31  29  20  17  21  20  23  22  31  30  27  24  22  23  26  28  30  39  44  52  51  41  38  38  38  35  20 105 114 210 240 238 241 241
 243 241 242 242 241 241 241 240 241 241 240 238 238 238 238 237 235 237 234 235 234 227 222 227 159  53  56  59  95 127 151 174 186 194 197 196 193 187 173 162 152 140 134 123 109 107  99  96 105  92  82  80  82  81  71  60  56  52  54  50  43  34  25  23  21  28  30  30  27  24  22  22  25  27  33  39  41  45  50  41  39  38  39  41  35  36  88 208 241 241 242 241
 243 241 241 240 241 239 239 239 240 237 236 237 232 236 233 226 227 219 213 212 216 212 213 170  73  35  73 106 149 169 193 199 206 212 206 220 230 208 198 181 177 168 157 143 141 133 133 131 125 121 125 125 113  95 113 101  90  81  88  78  78  78  65  57  46  38  35  31  27  23  22  22  22  25  29  31  37  40  40  43  40  38  34  38  48  31  13 168 236 242 241 242
 240 239 238 238 238 236 235 235 232 233 230 226 221 218 217 221 215 218 217 209 201 196 160 102  86  45  95 161 194 210 211 209 207 207 211 216 220 226 222 213 189 180 168 163 158 153 145 143 144 142 137 135 136 139 133 130 123 127 126 119 108 102 103  77  59  48  31  31  29  26  24  22  22  25  29  29  29  29  34  38  39  37  36  35  23  25  34  23 184 241 241 242
 237 235 238 236 230 226 224 224 218 216 218 216 217 213 209 195 185 156 131 120 102 114 110  66  90  63 159 211 209 208 211 210 208 208 210 213 217 219 223 219 210 194 185 175 171 167 161 155 150 146 144 145 145 143 141 141 145 142 138 136 135 127 120 105  85  65  43  28  29  31  29  26  26  28  29  31  31  31  31  34  36  37  38  38  35  34  38  29  96 237 243 242
 223 222 220 219 220 219 220 215 211 198 187 171 140 116 105  87 100 134 170 203 193 123  73  50  71 127 199 203 207 210 209 208 206 203 205 209 213 217 220 218 213 208 203 186 185 178 174 166 160 154 150 148 149 148 147 146 149 147 146 143 142 141 133 127 105  88  52  35  32  30  33  25  34  35  37  37  35  33  30  30  32  32  33  37  42  41  29  62  95 154 245 240
 217 215 211 199 193 174 149 124 102  84 105 108 150 185 212 231 241 243 243 244 183  81  40  61  69 185 205 207 207 205 205 203 199 198 198 201 203 204 207 208 206 204 201 197 187 181 173 167 164 160 157 154 152 150 150 150 150 151 152 150 149 146 148 146 133 115  82  41  30  41  45  51  46  30  34  28  36  37  34  24  25  30  29  31  37  42  47  39  90 111 220 245
 149 127  91 106  46 111  92 145 202 234 247 248 247 246 243 239 238 237 240 245  66  34  32  77  95 213 213 212 204 199 198 195 195 191 194 195 195 197 197 194 194 195 194 192 190 178 173 168 162 159 156 155 153 152 151 152 152 154 154 155 154 153 153 154 145 145 131  86  47  43  62  51  61  89  74  62  47  41  46  44  43  22  29  29  31  34  37  43  38  55 198 248
  95 127 161 211 232 245 248 248 245 242 239 238 238 238 239 239 238 239 244 134  39  42  48  51 154 222 217 210 201 195 190 185 184 184 187 185 189 188 183 180 179 184 188 188 185 177 173 167 161 158 157 155 155 154 153 151 151 152 153 153 156 157 155 155 157 152 151 140 105  85  68 105 140 147 145 136 128 131 123  97  60  49  32  29  29  32  36  40  33  16 179 245
 243 246 247 245 244 242 237 239 240 238 238 239 239 240 240 239 237 238 176  27  49  52  45  92 196 222 214 208 190 187 184 181 178 178 176 174 164 162 163 164 165 174 174 178 176 172 169 164 161 160 160 159 157 156 154 151 151 151 151 151 153 154 157 158 157 156 158 162 167 159 153 155 157 158 158 164 152 146 147 141  98  67  45  37  30  29  33  38  38  13 109 244
 243 241 241 240 241 241 241 240 241 241 241 241 241 241 241 238 240 237  94  34  53  39  56 152 216 217 213 194 188 183 181 174 173 172 167 167 164 158 159 159 163 164 172 171 169 166 163 161 159 160 159 161 158 156 155 152 150 151 149 150 152 153 156 157 157 157 159 158 158 158 161 160 161 162 161 161 158 156 156 155 125  95  66  34  28  28  31  35  38  27  21 178
 241 241 240 241 240 241 241 241 241 241 242 241 241 241 241 239 244 176  26  48  46  45 113 184 221 212 206 191 187 180 176 173 169 167 165 161 157 156 154 155 158 163 164 166 164 162 160 160 159 159 160 159 157 157 154 152 151 151 150 149 150 152 154 154 154 155 155 156 155 157 159 160 161 163 163 163 162 160 159 158 149 118  83  58  32  30  30  33  37  40  32  73
 241 241 242 242 242 242 242 242 242 242 242 242 242 242 241 244 234  64  23  50  33  72 159 201 210 210 200 191 185 180 175 174 170 168 164 160 155 155 155 155 157 161 162 162 162 162 160 160 159 158 157 157 157 157 154 151 150 149 148 146 148 150 150 152 151 152 152 152 151 154 157 157 159 160 163 163 162 162 161 162 152 127  93  76  36  37  29  28  35  41  45  40
 242 241 242 242 241 241 244 241 241 241 242 241 242 242 241 250 174  21  45  43  54 135 188 214 209 205 194 186 183 180 176 176 174 170 168 164 159 159 159 160 160 162 163 163 164 161 161 161 160 158 157 155 154 152 150 149 150 148 146 145 145 146 147 148 150 149 150 150 151 151 153 155 158 159 160 160 161 161 162 159 156 118 110  90  56  36  30  27  32  40  46  49
 242 242 243 243 243 242 241 242 242 242 241 241 242 241 246 242  53  23  48  39  89 172 207 208 208 199 187 184 182 181 179 177 175 172 170 168 168 166 163 165 165 165 166 165 163 162 162 160 159 159 158 155 152 151 150 149 148 148 145 144 143 143 144 145 147 147 148 148 149 150 151 154 156 159 159 159 160 161 161 160 149 118 130 113  73  32  32  26  28  37  42  44
 244 244 244 243 243 243 244 243 243 241 243 243 244 241 250 156  24  40  44  57 144 198 207 207 202 194 187 184 182 182 180 180 179 176 175 175 170 173 177 179 169 165 173 171 167 165 161 159 159 157 157 155 154 151 150 148 147 144 143 141 143 142 143 144 144 145 147 148 148 149 151 153 155 157 159 159 160 161 160 159 148 136 141 134  83  36  30  28  27  35  41  43
 243 243 243 243 243 243 243 243 242 243 243 243 243 245 246  57  22  51  43  77 181 209 207 207 196 187 183 180 179 180 182 183 182 182 182 184 188 185 185 185 186 186 181 174 169 166 164 161 161 159 159 158 156 155 151 148 146 143 141 140 142 143 143 143 144 143 144 144 144 147 150 150 151 155 157 157 158 159 160 160 161 136 141 140  98  46  39  30  27  32  40  41
 243 243 243 243 243 243 243 243 243 243 243 243 243 247 197  26  42  51  33 134 194 208 206 204 189 184 180 178 179 180 183 184 187 189 189 194 195 198 201 197 200 192 187 178 170 167 165 163 162 162 161 159 157 155 153 150 149 148 145 143 143 145 145 145 145 144 144 143 142 144 146 148 148 152 154 156 156 157 160 161 160 141 143 133 120  73  40  27  30  31  37  42
 243 243 243 243 243 243 243 243 243 244 244 243 243 250 124  24  52  46  52 152 200 205 204 198 187 183 179 179 179 182 184 188 190 193 195 200 206 205 204 204 202 197 192 177 172 167 166 164 163 162 161 159 159 158 156 155 154 151 149 147 147 148 148 147 147 147 146 145 144 144 146 146 147 151 152 154 154 155 157 159 157 156 147 136 127  96  59  41  32  29  34  40
 243 243 243 243 244 245 245 244 244 245 244 243 243 239  54  39  49  35  68 174 199 200 200 195 187 181 180 180 184 184 188 191 194 195 198 201 205 206 205 205 201 192 187 179 173 168 166 164 163 162 161 162 161 160 159 159 158 158 154 154 153 153 149 149 149 148 147 147 146 146 146 147 147 148 150 152 153 154 156 157 157 155 153 151 148 125  80  44  36  32  32  34
 249 244 243 243 245 245 245 245 245 245 244 243 246 208  17  40  48  26  79 186 202 199 197 191 185 180 180 183 187 190 193 196 197 199 200 202 205 203 203 202 201 193 183 177 174 169 166 163 163 164 165 165 166 165 164 164 165 164 163 160 159 157 153 152 152 152 150 149 149 147 146 147 147 148 149 150 152 153 154 154 155 156 156 154 154 151 118  85  43  32  33  33
 219 250 247 244 244 244 243 245 245 245 244 243 250 184  15  43  48  24 115 194 204 198 193 186 182 181 184 187 191 194 196 199 199 198 199 203 204 199 197 192 184 179 180 176 174 171 168 164 163 165 167 168 168 169 168 168 168 167 164 162 162 161 157 155 153 152 150 151 150 149 148 147 147 146 147 149 149 151 152 152 154 157 157 155 151 150 147 112  58  44  35  33
  86 145 230 250 245 243 243 245 245 245 245 244 250 164  16  46  45  42 135 202 198 195 189 185 184 183 190 195 195 198 198 198 197 197 190 188 187 183 176 172 169 173 174 173 171 168 166 166 164 166 167 168 170 168 168 167 167 166 165 163 163 161 159 159 157 155 154 152 151 148 146 145 145 147 145 147 149 150 151 151 152 154 156 154 151 149 145 139  78  41  29  34
 102  89  74 162 239 248 244 244 245 244 245 244 250 159  17  49  43  49 159 209 194 192 187 186 190 195 198 197 197 198 198 190 191 186 179 173 164 149 157 159 163 165 167 167 166 165 161 158 161 164 167 170 168 166 165 165 161 160 160 159 159 159 159 158 159 158 156 153 152 148 147 145 144 144 145 147 148 149 149 150 151 154 153 151 147 145 139 141  95  47  36  34
 118 118 107  78  88 175 237 248 247 243 245 244 250 163  18  50  40  60 191 195 193 190 188 192 196 198 201 201 202 195 184 180 176 174 166 161 151 150 149 150 149 155 159 160 159 154 154 154 157 160 164 165 165 163 160 158 155 154 156 156 156 156 155 155 158 157 156 154 152 150 147 144 143 143 144 147 148 150 148 149 151 154 153 149 144 139 136 145 108  59  37  34
 120 120 118 117 103  93  94 188 245 248 246 243 250 153  20  52  30 101 203 193 192 189 191 196 203 202 193 184 172 165 157 151 143 146 141 135 137 131 127 135 141 144 152 150 152 152 150 150 152 154 159 159 162 161 156 156 148 150 153 152 152 152 152 153 157 157 157 156 154 152 148 145 143 142 143 145 148 149 151 150 150 152 152 151 141 137 135 139 126  72  36  37
 120 119 120 119 119 116 106  84  92 183 246 249 250 168  20  51  15 145 197 191 190 190 196 209 183 158 146 138 128 115  97  86  85  70  71  80  92  91 103 116 127 129 129 137 140 140 140 139 145 149 149 148 141 141 142 141 141 143 144 145 145 146 146 150 153 154 155 156 156 154 150 148 146 143 143 144 147 150 150 150 151 152 151 153 139 136 132 129 142  78  54  35
 120 120 120 119 119 119 120 118 113  82 101 186 247 180  18  49  22 173 199 189 189 190 206 176 134 120 110  97  81  57  48  51  45  39  39  51  67  76  71  93 100 117 123 125 125 129 127 129 139 142 140 138 138 135 131 130 136 135 141 139 136 140 144 144 147 149 150 154 156 155 152 150 147 145 144 145 148 148 147 149 151 150 149 147 139 128 120 126 127  90  54  41
 119 119 120 119 120 120 121 122 120 120  87  76  96 123  19  50  35 192 193 189 189 196 190 142  79  71  74  68  51  52  48  36  46  43  45  46  50  69  67  83  99 110 115 118 120 116 116 119 128 129 129 130 128 123 121 120 121 123 123 124 135 126 130 134 139 146 143 148 152 152 151 150 150 149 147 146 146 146 147 146 148 148 149 146 143 120 113 114 116  87  64  40
 120 118 117 119 120 122 122 121 121 121 121 121 103  79  33  40  46 199 194 190 185 174 134 110  88  81  67  46  45  41  40  37  34  38  40  43  47  60  69  78  89 103 108 113 114 115 116 117 120 122 120 116 119 113 110 109 104 107 103  94  86  91  97 100 100 113 136 143 144 148 152 148 147 147 145 143 146 146 146 146 147 147 146 146 149 117 105 106  99  82  60  46
 117 117 118 119 120 122 123 123 122 121 122 121 126  71  32  33  52 213 191 185 167 142 122 100  71  67  57  53  48  43  39  41  40  40  41  44  48  56  67  70  82  98 104 107 108 112 112 110 113 114 114 112 102 102 100  94  91  85  72  70  53  44  29  33  42  63  85 108 119 123 129 142 150 146 146 143 146 145 145 146 146 146 146 147 149 126  89  90  88  79  51  52
 116 116 116 118 121 121 122 122 122 122 122 122 128  61  38  32  58 213 190 186 149 118 112  81  71  65  62  56  54  55  52  43  45  48  48  47  52  60  68  73  82  91  99 104 108 111 111 109 109 110 109 107 100  96  89  83  83  77  65  53  49  42  45  43  52  53  69  76  86  90  97 103 133 148 146 147 146 144 144 145 145 145 145 145 143 135 102  77  77  72  56  48
 112 113 114 116 118 119 122 121 121 121 121 121 128  55  42  19  87 211 188 180 146 133  97  77  75  69  62  67  68  71  66  66  61  56  61  62  62  65  71  74  78  88  99 104 108 110 112 111 109 109 107 102  95  86  80  76  70  55  53  41  41  40  38  41  44  46  46  55  54  65  67  63  93 131 146 146 146 144 143 145 145 145 144 144 141 135 127  61  61  62  53  44
 111 112 113 114 116 119 121 120 121 121 121 120 123  64  42  18 135 206 184 176 144 138  96  81  77  77  80  80  91 100 100  96  88  79  71  68  67  69  70  73  79  91  98 106 110 112 113 112 113 111 108 102  96  87  80  76  69  59  51  47  44  42  41  41  39  42  46  52  61  67  74  76  82  98 126 146 146 145 144 145 144 143 142 142 141 137 140  72  59  53  48  42
 107 108 109 111 114 115 116 117 118 119 119 120 119  79  46  16 167 196 184 167 143 116  86  85  81  85 101 116 117 112 113 110  99  89  83  77  72  70  70  71  76  86  98 111 113 116 116 115 116 115 112 102  97  87  82  77  72  63  58  52  51  49  46  43  43  43  44  50  57  64  73  77  77  74 105 126 141 143 144 144 143 141 138 136 139 137 142  94  50  46  41  38
 100 104 106 109 109 111 113 115 117 118 120 120 118  92  48  17 198 193 172 166 125 109  90  87  84 119 113 110 109 107 105 102 100  97  88  82  79  73  70  70  70  84  97 110 120 122 124 123 122 125 117 107  99  89  85  80  75  74  68  63  59  57  60  50  50  45  49  52  58  62  70  74  76  68  91 106 138 140 144 143 143 142 140 138 135 137 140 110  47  39  38  33
  95  97 102 104 107 108 110 113 115 116 118 118 117 101  54  19 219 184 168 144 122  90  95  95 103 107 105 102 102 112 100  78  69  68  73  80  78  73  73  71  70  79  98 115 122 130 131 132 134 128 122 111 102  91  85  77  74  70  67  66  71  80  78  81  77  74  69  62  58  62  70  73  76  78  82 101 114 137 141 141 140 140 139 138 138 135 139 105  50  32  30  30
  90  93  96  97 100 102 105 109 112 112 112 112 115 110  40  19 224 185 160 138 113  93  94  98 101 100 110 142 140 135 120  99  83  71  63  52  66  73  69  70  68  69  95 116 132 130 137 137 135 131 122 111  99  89  83  76  72  68  65  64  68  73  77  80  96 105  96  81  76  75  71  76  77  79  83  88 105 132 140 142 141 141 140 140 139 137 137 104  48  36  25  24
  85  89  92  94  95  99 101 106 108 110 111 110 108 114  38  46 222 183 151 128 115  98  98  96  98 101 114  72  40  27  22  42  52  65  64  59  55  44  62  66  69  59  91 119 142 146 144 142 138 131 122 108  92  82  78  74  71  65  62  63  67  67  78  78  87  88  94 108  92  83  82  81  81  83  84  90 103 124 138 140 142 141 140 139 138 135 140 101  49  33  26  25
  83  85  88  90  91  93  96 100 105 107 109 111 109 108  47  74 218 178 153 123 113 101  96  95  73  92  45  33  20  13  16  15  21  23  30  49  51  51  45  59  64  63  88 130 154 160 153 146 142 129 117 102  92  80  75  70  62  56  56  62  71  82  91  89 102  97  92  94 103  98  90  88  88  87  89  91 100 122 138 140 141 141 142 142 139 135 144  96  36  34  24  22
  80  82  84  84  85  88  90  95  99 104 110 107  96 114  76 103 212 183 149 125 111  96  91  80  81  57  26  74  49  29  26  28  29  42  74  66  51  48  50  54  59  59  89 153 181 177 159 150 142 122 111  97  89  80  73  65  56  52  55  59  73  83  90  93  98  99  99  99  84  92  93  91  87  88  89  92  96 113 138 138 140 141 143 143 139 137 141  88  41  36  24  20
  76  79  80  81  81  83  87  90  94  95 100  96 183 219 125 125 209 179 148 118 108  93  87  80  68  47  40  83  71  32  29  28  30  74  94  80  60  49  47  54  60  65 104 185 197 191 169 151 140 118 100  97  86  76  66  55  51  50  53  63  70  75  89 102 101  95  99 100 100  89  89  91  91  89  92  94  96 101 138 137 139 142 144 143 141 137 139  75  41  33  26  22
  73  75  77  78  78  81  83  85  87  88  78 148 182 188 119 146 204 178 148 130 109  95  85  79  60  62  62  66  68  49  24  19  56  88  79  73  53  53  44  47  68  58 161 213 211 191 175 155 139 113 105  97  83  75  62  51  45  36  33  12  16  21  24  52  73  87  94  96 102 103  89  86  87  91  94  96 103 108 126 134 138 142 144 145 143 139 128  68  39  30  26  23
  71  72  73  74  76  77  81  82  84  88  68 168 128 151  88 175 195 177 156 138 118 107  93  93  99  99  75  64  65  68  75  73  64  64  63  62  61  60  64  58  62 110 201 232 209 190 175 158 135 103 111  97  84  81  59  47  40  39  39  20  24  26  29  14  31  44  71  95 103 108  95  86  85  89  96 101 107 115 125 132 137 141 141 144 143 142 121  45  36  32  26  23
  68  69  71  72  73  74  76  78  80  83  73 144  78 111  57 196 186 173 160 147 139 127 119 116 113 100  87  73  65  59  58  57  57  55  56  57  59  60  63  59  49 189 230 235 210 192 178 164 137 114 111  97  86  75  46  45  44  47  50  23  25  25  27  29  51  50  24  39  74  95  99  91  91  92  96 104 111 118 124 130 134 140 141 142 144 152 105  35  31  29  25  23
  67  67  70  69  71  73  75  75  75  80  73 148  81  95  40 208 182 174 165 163 158 153 129 122 117 107  83  73  66  60  56  55  54  54  55  57  62  65  63  64 138 207 216 231 214 191 182 172 139 122 112  97  86  68  65  55  53  53  61  31  30  28  26  39 108 121 111  52  34  54  95  95  92  93  96 104 114 119 126 131 133 141 143 144 145 150  92  36  27  27  26  24
  64  66  67  68  68  70  71  72  73  77  79 137  80  85  37 212 182 174 175 176 178 167 148 134 123 109  85  67  64  60  58  57  57  58  60  63  63  69  82 105 178 209 213 219 205 192 182 169 145 124 115 105  96  72  70  64  60  59  60  53  38  28  37  67 107 115 112  85  53  38  54  85  90  92  97 102 110 120 128 132 137 141 144 145 148 144  79  28  26  26  25  24
  62  63  64  65  66  67  67  70  71  73  65 135  84  82  59 208 184 182 182 186 187 184 178 159 142 124 105  85  78  72  68  66  65  67  68  69  70  69 105 145 190 204 211 207 193 181 171 161 143 128 118 114 110  79  71  67  62  58  57  57  73  72  78  81  91  91  78  68  71  69  54  64  87  91  98 105 109 124 130 133 139 142 145 148 152 139  74  15  29  25  24  24
  60  61  62  62  63  64  66  67  68  71  53 148  84  76  72 204 187 187 191 194 199 203 198 181 162 141 122 105  93  85  80  78  74  74  74  75  76 102 136 179 189 197 204 202 189 175 164 153 141 131 122 118 115  88  76  72  62  61  58  57  55  61  63  72  73  70  77  76  82  85  92  87  79  93  99 107 114 125 132 136 140 143 145 150 152 142  50  26  28  24  23  25
  58  59  60  61  61  62  63  65  66  61  75 158  91  77  99 204 189 191 197 207 209 210 209 204 196 173 154 137 113  98  89  85  81  80  75  78 110 129 172 186 193 195 207 200 186 170 157 152 146 135 126 120 118 114  86  75  74  66  63  58  59  62  63  66  71  74  77  81  86  93 103 104  99  98 101 113 119 131 133 137 141 144 146 148 154 126  48  20  29  26  25  26
  55  56  57  57  60  61  61  62  64  52 102 145  86  81 124 201 191 193 203 206 206 209 211 213 206 192 171 148 123  98  96  85  81  80 103 125 137 160 187 196 201 212 215 201 187 172 164 154 149 140 130 125 121 126 104  90  81  76  75  68  63  64  64  67  71  74  78  82  89  95 102 104 106 106 112 117 124 130 135 139 142 144 146 148 154 124  37  25  32  29  27  27
  56  57  57  57  57  59  59  60  62  51 106 123 109  91 141 202 193 199 202 202 202 205 208 208 205 196 179 160 133 116 104 101 107 112 131 138 157 180 196 201 208 219 221 210 192 176 166 156 152 142 135 129 126 123 115  92  82  82  80  79  75  74  70  71  75  76  82  85  94 100 107 109 111 116 119 122 127 131 136 141 142 145 146 147 158 107  31  34  31  31  32  23
  54  53  54  54  55  56  56  58  59  49  88 113 148  59 161 193 193 196 198 194 194 199 197 198 195 187 174 158 144 128 123 121 124 135 146 148 172 198 201 205 209 222 226 216 196 180 169 159 152 145 139 133 130 127 123 109 102  83  85  85  86  86  89  87  86  86  81  94 105 107 113 115 117 123 126 127 131 134 137 139 142 143 144 146 155  88  37  30  33  33  13  11
  53  53  53  54  55  55  55  55  57  55  59 127 190  31 181 190 191 192 190 184 181 177 178 178 183 173 165 151 146 154 150 145 145 152 159 165 183 200 205 204 214 224 227 211 193 179 175 162 157 148 141 135 132 128 126 125 114 101  88  84  91  93  95  97 100 102 112 112 110 113 116 119 122 127 129 131 133 137 138 141 143 143 144 143 144  73  35  37  32  43  65 117
  53  52  52  52  53  52  54  54  56  50  50 157 168  29 184 191 190 186 180 174 170 156 151 153 152 156 163 177 182 175 168 163 166 160 162 166 189 199 203 206 217 222 221 204 188 180 176 167 158 149 144 139 133 130 128 128 128 115 106  99  98 100 101 104 108 111 112 114 117 117 122 127 128 132 133 136 136 137 138 142 144 144 143 142 141  49  33  35  43  58 109 131
  50  51  53  52  53  53  53  54  54  51  29 173 146  41 193 188 187 181 172 167 164 160 156 153 164 174 184 188 184 181 174 167 164 160 155 174 192 198 203 205 212 221 217 201 187 179 174 166 155 149 143 138 134 132 131 132 134 130 116 110 101 105 107 109 113 115 117 122 121 129 129 137 141 140 140 141 140 139 141 143 144 144 142 142 134  45  24  60 115 132 128 126
  52  50  50  52  51  51  53  53  53  51  24 179 146  54 186 185 182 175 170 166 165 165 169 173 177 179 183 185 185 181 177 169 164 152 140 180 196 198 200 199 195 197 205 195 178 176 171 165 156 148 142 137 132 129 129 133 134 134 129 122 117 116 116 114 116 120 125 127 130 133 139 144 143 143 142 142 141 142 143 143 143 143 142 143 119  39  14 117 134 127 124 107
  50  50  49  50  50  52  52  52  53  49  32 187 135  61 178 183 180 172 168 165 166 168 171 174 178 181 183 185 183 181 176 166 155 142 140 197 198 197 200 191 183 176 169 167 169 163 163 162 155 147 141 133 129 127 128 131 134 136 136 134 128 124 121 120 122 125 131 136 140 143 144 143 145 146 146 143 141 142 143 143 143 142 140 143 110  31  24 144 125 123 111 100
  50  48  50  49  50  50  51  50  51  53  16 185 139  64 172 178 177 172 165 165 167 169 171 173 175 179 180 182 179 177 166 153 138  93 195 198 200 195 185 179 170 162 151 155 156 155 160 157 153 147 143 135 126 125 122 132 132 134 137 137 135 130 128 127 127 128 134 137 142 144 145 144 143 146 146 143 140 139 142 143 143 143 140 141  93  33  58 136 120 115 105 104
  49  48  48  49  50  50  51  51  52  53  15 177 140  79 171 179 174 169 166 164 166 168 170 172 174 176 175 174 171 163 151 140 118 114 199 187 176 174 167 161 156 151 139 138 141 141 147 147 148 145 143 143 126 115 117 121 129 134 138 141 141 136 136 131 131 132 132 136 139 141 143 143 143 145 146 142 137 137 141 142 143 142 139 146  70  30  79 128 120 117 127 109
  49  49  48  49  49  50  49  49  51  53  22 162 131  66 171 174 171 167 166 166 168 169 169 171 172 172 170 162 155 149 141 128  97 154 169 163 150 143 145 141 131 128 128 127 129 124 135 140 140 132 143 145 147  93 112 117 126 132 137 140 141 141 141 142 138 136 134 134 137 139 138 141 141 142 142 142 125 128 141 143 142 143 141 135  64  26  96 123 123 125 132 108
  48  48  48  48  49  48  49  49  50  50  29 161 116  71 154 167 165 165 164 165 167 169 168 168 167 165 161 156 151 140 129 115  85 147 149 129 115 106 129 111 113 114 112 115 118 125 122 122 125 129 131 145 151 118  92 114 122 129 133 138 142 142 143 143 142 140 138 135 135 134 139 139 139 140 141 142 135 129 142 143 141 139 144 112  60  20 105 124 131 132 132 105
  49  48  48  48  49  48  48  49  50  49  26 171 136  78 144 161 160 161 163 164 164 164 164 163 162 162 161 149 143 127 123 111  79 137 113 101  76  86 114 110 102  90  99  99 104 113 113 109 112 118 127 139 145 113  87 102 115 125 131 138 142 142 142 143 144 142 142 142 141 141 140 141 140 141 141 141 139 135 139 141 141 140 134 106  42  24 100 121 132 133 136  98
  48  47  47  49  48  48  48  50  50  43  25 187 135  86 130 159 156 159 160 161 162 161 161 161 158 156 148 141 132 120 114 107 105 111  99  79  44  16  75  95  84  91  91  92  96 101 106 100 103 106 122 126 137 111  85  98 114 122 128 133 142 142 143 143 146 144 144 145 144 143 142 141 141 139 138 139 137 135 137 139 140 134 130 104  36  21 128  92 116 134 139 102
  48  47  48  48  49  48  48  50  50  37  71 228 100  87 130 151 152 157 158 159 158 159 159 158 152 148 141 127 126 120 114 105 114 113  99  66  53  45  20  83  80  79  81  87  89  90  96  60  52  80 104 116 125  99  90 101 109 118 126 130 137 140 142 143 143 146 145 145 144 144 143 142 141 141 140 138 138 135 133 134 135 139 118  84  45  22 176  51  96 128 135  96
  47  48  47  48  48  48  48  48  49  21 170 218  98  98 118 147 147 152 156 156 155 155 155 151 147 142 135 131 127 121 117 122 134 140 111  63  65  60  55  56  74  74  75  78  81  76  48  30  32  55  85 100 109 100  95  93 111 116 125 128 133 138 140 141 143 147 146 145 144 143 143 142 139 140 141 139 138 137 133 133 132 137 115  62  42  38 166  43  87 125 136 105
  46  47  47  48  48  48  46  48  49  14 200 188 108  89 110 143 140 147 152 153 153 151 151 150 142 137 135 131 128 113 122 144 157 165 157  85  75  74  64  61  67  68  67  69  76  61  62  62  61  51  75  90  95 100 100 100 109 115 121 127 131 136 139 141 143 145 145 144 143 141 142 142 139 138 138 137 137 136 133 132 132 126 103  54  33  81 137  62  83 130 130 113
  46  47  46  45  46  46  46  48  49  16 182 172 104  79 104 133 128 142 147 150 151 152 150 145 136 134 136 135 133 138 148 168 178 179 180  85  79  78  73  63  58  58  58  62  64  68  71  70  67  64  70  80  91 103 103 105 109 115 119 126 130 133 136 141 142 142 143 143 143 142 142 143 140 139 138 136 136 135 132 129 126 126  83  47  25 112 118  77  80 124 133 113
  46  46  46  45  46  46  46  46  49  22 148 168  77  74 102 121 118 135 141 142 147 147 146 143 136 135 137 142 144 153 172 178 178 181 165  90  68  63  55  50  51  54  56  53  52  54  80  72  72  68  63  81 101 107 107 109 111 116 119 123 128 131 134 137 140 138 139 142 142 142 142 141 141 139 138 135 133 131 130 129 120 116  73  44  30 128 105  88  82 129 136 116
  46  46  45  45  45  45  46  46  47  37  81 142  85  86  81 113 108 121 132 133 139 141 141 137 134 138 141 143 148 164 171 175 174 155 125  87  48  46  40  41  46  49  47  44  42  42  60  70  81  88  94 100 115 114 111 111 113 117 119 122 126 129 132 136 138 139 138 142 142 143 142 142 141 139 135 134 130 127 124 123 116  92  67  49  45 106  98  92  93 125 138  99
  44  45  45  45  46  46  44  46  46  45  37  83  93  77  87  97  85 113 120 130 134 138 139 134 134 138 140 144 151 155 162 162 159 131  99  76  49  42  38  39  43  45  43  41  41  40  52  63  78  91 103 109 114 116 115 113 114 117 119 122 126 128 131 134 137 138 140 142 142 143 142 141 139 137 135 130 125 122 116 116 104  85  55  52  43  96 105 100 114 129 134 110
  46  45  44  44  44  45  45  45  46  48  48  63  85  81  85  90  84  92 100 120 130 135 138 134 134 138 141 147 152 139 128 134 126  99  73  64  48  42  40  38  42  43  42  40  41  42  41  58  66  92 100 111 115 118 118 115 114 116 118 120 123 127 131 133 135 139 140 141 141 141 142 141 138 130 130 126 124 116 109 100  92  78  44  50  49 119 129 148 144 149 127 222
  45  45  45  44  44  44  44  44  44  45  50  49  89  83  81  86  89  93  96 114 126 137 136 135 134 135 132 128 118 115 115 107  88  73  69  53  48  44  41  40  41  42  42  40  41  41  43  51  60  67 100 112 112 117 117 116 116 117 119 122 124 128 131 132 133 137 139 137 139 141 142 140 136 130 126 122 116 104 103  95  76  72  49  29  86 146 153 159 144 141 113 250
  45  44  43  43  43  44  44  44  45  45  50  53  89  84  81  84  87  93  90  81 120 130 134 135 133 132 125 101 105  94  93  91  63  70  68  43  39  35  38  36  43  43  44  45  44  44  43  48  50  47  97  96 110 118 115 114 116 116 117 120 123 125 129 132 133 134 135 137 135 139 140 135 132 128 122 119 107 100 101  89  59  62  55  14 112 146 147 159 144 116 197 248
  43  43  43  43  44  44  44  44  44  45  48  54  80  82  81  73  77  83  77  82 112 131 130 130 127 111  92  77  55  41  47  67  70  72  78  76  75  82  59  49  35  39  40  46  43  45  47  46  48  56  68  83 103  98 104 109 111 111 111 119 123 125 127 130 131 133 134 134 132 132 132 128 127 127 117 110 105  93  87  81  60  61  54  16 107 145 152 158 147 106 237 244
  44  44  43  45  44  42  43  44  45  45  48  55  78  76  75  71  78  83  82  77 110 119 127 129 120  97  62  43  37  39  43  71  79  82  78  78  78  82  93  93  86  82  82  82  79  67  53  43  53  60  65  68  78  80  85 105 106 109 112 119 123 125 127 129 131 132 133 132 129 126 125 123 118 121 112  99  90  81  78  71  64  59  54  24 120 127 151 157 160 149 249 245
  44  44  44  44  45  45  43  45  45  44  46  50  66  69  70  70  75  79  79  69 105 116 125 130 119  76  48  45  40  38  51  69  72  62  58  58  55  53  68  84  90  92  88  87  82  85  87  82  74  64  57  55  61  65  69  90  99 105 110 117 122 126 127 128 130 131 129 129 126 121 116 115 109 106 102  95  90  78  71  68  60  58  53  28 136 125 144 155 144 213 246 245
  45  44  44  43  44  44  43  44  43  43  45  49  71  71  71  72  71  72  74  71  90 114 128 127 110  68  46  43  37  31  46  53  49  45  46  47  54  51  55  56  54  56  57  56  53  56  67  80  82  74  58  56  50  49  60  69  94 104  98 113 122 125 127 127 126 126 125 122 121 112 115 112 106  87  76  90  89  81  68  64  59  55  49  34 129 133 138 150 127 250 245 244
  46  45  45  44  43  45  43  44  43  44  45  42  79  74  72  71  69  66  62  61  83 109 116 126 102  69  50  45  40  31  12  14  15  17  17  18  18  35  41  57  58  56  56  52  53  56  57  55  75  78  76  66  52  51  46  52  54  98  96 103 118 124 126 126 125 124 125 112 109 109 108 107  97  88  89  87  84  84  61  63  60  56  50  50 114 118 124 138 162 249 248 248
  45  44  44  44  43  43  43  43  44  44  44  41  70  73  71  70  67  62  63  65  70 100 113 114  93  70  56  50  42  42  43  52  66  83  91  84  72  66  53  42  43  51  50  51  52  54  54  52  42  69  71  69  60  49  50  49  47  67  93  98 118 122 124 125 124 121 117 101 106 104 105 108  93  92  89  83  81  78  64  65  62  56  46  68  88  99 114 135 204 219 220 218
  45  43  43  43  43  43  42  44  43  42  44  43  64  67  68  71  67  61  60  62  68 102 105 110  81  69  59  56  59  71  88 106 123 123 103 104 106 101  98  93  81  76  71  62  60  53  40  36  37  40  54  61  59  52  50  50  48  47  90 101 114 122 124 124 120 116 112 103  97  97 101 105  91  90  84  79  78  70  63  62  62  44  77 108 114 126 151 196 199 193 190 190
  44  43  43  43  44  43  44  45  45  45  46  49  62  62  67  67  66  60  56  53  71  92 100  96  81  71  66  63  76  83  94 106 120 116 109 100  95  94  94  95  96  93  94  98  98  99  98  88  74  46  33  47  42  43  46  50  53  47  83 101 111 125 123 121 117 113 100 101  93  86  81  76  80  84  76  73  69  62  57  56  63  45  97 187 201 206 206 189 196 200 199 200
  44  44  44  43  45  45  41  31  23  21  19  27  46  72  54  62  61  57  53  46  71  90  91  87  77  73  76  82  86  89  96  95  98  96  92  90  87  88  91  93  95  95  93  93  95  97  96  96  96  89  76  58  43  33  46  52  57  51  89  98 107 119 120 119 116 102  84  87  89  85  83  71  74  76  69  60  58  57  53  50  54  40 137 194 194 194 195 196 197 197 197 198
  44  44  44  44  45  20  16  20  47  72  90 105 117 102  43  58  58  55  49  45  68  90  88  84  77  76  76  83  87  91  92  89  81  73  71  69  70  72  74  80  82  85  90  92  92  93 100 103 102 108 110  97  81  61  48  56  62  65  90 104 110 117 119 117 111 101  82  61  70  77  76  68  56  70  73  64  59  55  51  49  47  41 168 197 192 195 195 196 196 197 197 195
  45  44  44  44  26  93 195 223 226 223 221 217 210 138  49  49  51  50  48  40  72  78  85  82  76  75  78  83  87  88  87  84  72  62  56  54  51  50  53  50  55  60  65  71  81  87  92  92  98 105 100  96  94  85  69  66  66  80  91 106 113 116 117 113 105  96  80  64  60  60  69  64  59  54  63  62  58  54  48  48  30  80 181 199 193 194 193 194 194 194 193 194
  45  45  45  44  15 177 203 199 196 196 195 194 200 172  79  30  49  47  48  47  62  76  83  81  76  74  77  83  85  85  82  78  71  63  56  44  34  32  29  32  26  37  43  48  52  63  74  80  85  86  96  97  98  93  85  75  73  84  94 107 111 115 115 110  98  89  78  55  60  61  61  59  59  59  58  56  55  51  46  43  29 100 190 186 188 189 189 193 188 187 186 189
  45  45  47  39  22 192 201 196 197 196 197 194 194 193 142  23  45  43  44  47  54  68  80  81  72  69  74  81  81  80  77  75  70  65  57  49  42  35  32  30  31  29  29  40  48  62  67  75  81  88  90  96  96  94  89  83  81  86  93 104 111 112 112 107  96  84  74  63  57  56  56  54  54  54  54  53  51  48  43  40  29 128 180 178 181 183 178 173 177 180 179 178
  46  45  46  27  73 192 200 196 195 194 195 194 193 191 185  37  36  41  42  46  51  62  75  75  69  68  74  81  84  80  78  76  73  69  56  44  33  29  29  26  25  28  31  42  49  59  66  73  79  84  89  93  95  95  91  88  87  87  92 101 107 111 110 109  87  78  70  63  54  53  53  50  48  48  48  49  49  48  44  21  49 158 177 178 180 181 181 181 182 181 182 180
  45  45  46  20 114 195 196 193 193 193 192 192 191 188 193  56  34  41  40  42  47  64  69  70  69  69  75  84  86  86  85  80  75  69  78  77  80  70  61  51  39  37  41  48  56  63  68  75  78  83  86  89  93  94  92  89  88  90  93  97 104 107 108 106  81  77  69  62  55  51  50  49  46  41  40  42  46  45  45  29 131 185 178 180 182 180 182 180 182 182 180 180
  46  46  46  24 134 196 191 193 191 193 189 190 188 186 179 105  25  40  39  39  48  59  63  66  68  69  81  85  87  92  84  86  93  99 101 111  96  92  81  72  81  81  75  73  57  65  74  77  79  80  83  85  88  89  88  88  88  89  91  96 101 104 105 100  90  77  68  64  58  53  50  50  47  43  43  44  43  44  31  44 176 177 178 181 182 181 181 181 180 180 180 180
  49  49  48  14 150 187 187 181 173 168 170 166 167 169 168 151  37  37  40  40  43  55  58  62  66  69  72  84  99 105 111 122 128 135 130 112  97  91  87  86  87  94  99  99  91  80  80  80  82  82  83  84  84  84  83  83  85  86  91  95  98 100 100  96  88  76  68  62  59  53  52  53  50  48  48  48  48  49  37  96 182 178 179 180 182 181 181 180 180 181 180 180
  50  51  51  14 135 168 162 169 171 171 169 170 171 170 168 180  90  30  41  41  44  49  54  58  63  69  69  86 108 117 125 141 139 137 138 114 101  95  93  89  89  84 114 110 109  97  90  86  85  83  83  83  82  80  80  79  79  82  88  92  95  95  94  86  83  72  63  56  52  51  50  51  52  49  47  47  48  42  55 140 180 177 179 180 180 180 181 180 181 180 180 180
  25  33  43  39  86 154 175 170 168 169 170 168 164 170 171 180 142  22  40  43  46  47  47  49  51  61  68  89 113 114 131 136 138 137 130 121  98  97  97  86  88  89 110 114 114 111 100  93  91  90  88  85  82  80  78  78  78  81  83  88  91  90  89  81  74  64  55  49  46  46  47  47  48  50  47  45  47  43  55 174 177 178 179 180 180 180 180 179 180 180 179 180
 159  70  22  22  31  45 107 159 172 164 149 153 184 203 208 205 166  31  33  32  26  37  34  40  44  52  74  75 104 112 124 135 131 120 109  95  91  86  82  72  85 100 111 115 115 116 114 112 105  98  94  89  84  81  79  75  74  75  78  83  88  88  84  71  60  55  47  42  40  41  40  39  45  49  47  45  44  29  91 189 175 177 178 178 180 179 179 178 177 176 176 177
 209 217 178 116  38  25  18  23 119 186 220 246 207 126 107 119 134  74  34  31  30  31  31  27  41  53  61  78  86 101 116 110 104  93  83  76  71  71  71  68  74  88  92 104 113 117 113 112 110 104  98  92  85  81  79  74  72  73  73  75  79  79  78  65  53  46  40  32  34  34  35  39  42  45  45  41  46  59 137 183 176 176 177 178 177 178 178 177 176 176 176 177
 192 192 195 207 194 146 125 205 248 237 177 134  97  30  12  13  35 123  32  30  28  27  29  31  37  49  53  62  68  76  69  80  83  75  62  54  56  58  57  59  67  67  84  91  88  98 107 109 107 103  98  92  85  80  76  74  71  65  67  71  70  70  61  58  52  45  39  34  30  31  32  34  35  43  45  43  85  71 157 178 175 178 176 176 177 177 176 176 176 177 177 176
 188 188 189 177 189 241 245 234 205 146  44  14  10  14   9  13  32 139  56  30  30  27  28  31  37  43  45  49  62  61  60  65  63  55  53  50  48  49  51  53  59  65  69  80  85  85  89 109  96  91  90  86  80  71  68  69  67  61  56  52  59  62  59  57  52  45  40  34  26  29  31  32  28  45  49  84  93  77 171 173 175 177 176 177 176 176 176 176 176 176 176 175
 183 186 172 187 249 250 217 139  72  17  10  15  15  18  15  12  30 155  74  31  30  28  27  29  32  39  41  43  50  51  51  51  49  44  44  43  42  43  43  44  49  57  59  62  74  73  72  81  83  84  84  75  72  66  57  57  56  55  52  51  52  53  52  52  52  44  38  33  30  29  32  34  29  47  70  79  91 100 180 172 174 175 176 176 176 175 174 174 173 174 175 175
 181 168 207 246 245 235 162  41  17  13  20  17  16  14  13  12  28 154  99  42  33  28  26  28  32  35  35  35  38  38  41  41  38  39  40  38  35  36  38  40  41  40  46  48  47  57  61  61  71  67  68  66  63  60  57  51  46  41  43  44  44  42  45  44  45  42  38  33  29  30  29  36  46  69  82  73  98 118 179 170 171 172 173 173 173 172 172 174 172 171 172 172
 149 223 249 246 237 159  49  20  19  19  17  16  14  13  12  13  32 147 117  56  38  26  24  26  29  30  27  29  29  30  32  33  26  27  31  31  29  29  34  34  37  37  36  40  44  42  52  56  52  57  61  60  56  54  52  47  41  38  34  33  37  37  34  34  34  37  33  31  29  22  43  59  65  73  84  89  95 132 171 169 169 169 169 170 171 168 171 171 173 171 173 169
 211 248 243 249 202  67  37  18  20  17  16  15  14  12  13   8  36 154 117  72  51  22  23  22  26  26  25  23  23  24  24  24  23  21  23  24  22  19  21  28  30  31  30  30  37  38  41  40  44  47  53  55  51  49  46  40  37  32  30  31  32  32  31  27  29  30  29  29  29  37  63  67  71  80  87  95  84 147 165 167 166 161 167 160 159 161 158 156 152 152 144 149
 246 243 247 227  80  29  32  19  17  15  13  13  13  11  13   5  44 150 119  79  61  28  23  21  21  22  24  22  20  21  20  19  18  18  18  17  16  18  19  20  23  25  27  27  29  30  32  33  33  37  43  45  45  45  44  39  34  30  28  28  28  28  27  26  28  28  30  33  39  53  66  72  78  83  91  89 108 133 152 146 114  99  94  97 100  86  89  96  85  95 101  97
 243 246 249 129  41  36  28  20  17  15  16  15  13  13  13   7  84 153 123  87  69  46  31  23  19  20  22  21  18  18  18  19  17  17  15  15  15  16  17  17  18  20  23  25  24  23  25  26  27  31  35  37  40  42  40  36  32  29  28  27  28  27  24  22  23  26  30  40  55  61  70  77  81  86  90  99 124  60  27  50 149 196 184 162 148 139 141 143 147 149 146 144
