P2
92 112
255
 233 231 231 230 229 229 228 227 227 228 227 227 226 226 226 225 226 226 224 223 223 224 224 220 225 224 178  93  69  57  57  58  52  49  49  46  45  47  51  38  46  46  34  20  25  23  29  34  38  42  45  48  40  42  52  54  41  22  11  15  25  34  45  52  54  48  34  25  29  38  54 146 169 203 198 196 192 188 197 200 201 200 200 201 201 197 200 197 194 194 192 192
 230 229 229 229 229 229 227 228 227 226 226 226 226 225 224 224 224 223 223 223 223 222 220 225 227 173 105  56  56  52  51  41  43  43  40  38  33  38  35  38  33  23  32  24  24  25  27  30  37  39  38  37  38  35  30  21  22  25  26  28  30  33  38  47  51  49  40  35  32  33  40  35 108 175 203 202 193 190 186 188 196 198 197 194 194 191 185 185 184 187 182 184
 229 229 229 228 229 228 226 226 226 226 225 224 224 224 223 223 224 222 221 220 220 218 216 208 132  75  18  39  46  43  42  35  37  32  32  32  31  30  30  24  24  24  22  20  21  21  23  27  29  30  21  19  29  22  21  20  22  23  25  30  34  39  40  41  50  50  45  39  36  37  35  26  29  43 162 194 198 196 189 184 172 180 180 183 182 185 184 180 175 162 160 133
 228 228 228 228 229 228 226 225 225 225 224 224 223 221 222 221 221 220 220 220 219 220 193 115  49  35  37  40  41  40  36  36  37  36  34  32  28  27  25  25  24  22  20  18  19  21  23  24  25  22  21  21  18  17  16  17  17  19  21  23  30  34  39  37  30  36  40  38  37  39  42  42  38  28  76 120 162 170 170 177 180 166 160 165 157 148 131 109 102  97 124 121
 227 227 227 228 226 225 225 225 224 223 223 223 223 221 222 219 218 216 216 217 218 183 124  69  39  22  30  36  40  40  40  35  35  38  39  37  33  29  28  28  25  22  20  20  20  22  23  23  23  21  18  18  15  15  15  15  15  15  15  16  20  25  20  15  19  28  32  41  40  39  41  42  42  50  59  77  93 114 144 153 132 123 103  92 101 133 161 179 188 201 199 204
 226 226 227 225 224 225 224 224 223 222 222 221 220 220 219 218 218 217 214 212 201  84 111  51  40  31  34  39  42  40  45  52  64  58  47  42  39  36  33  29  25  23  21  21  24  25  24  21  19  18  17  15  15  15  15  16  15  14  13  13  14  18  24  24  23  22  19  20  34  38  40  43  45  47  44  37  52  92 106  94 137 163 182 193 201 203 200 202 201 203 204 202
 226 225 224 224 224 224 222 221 221 220 220 219 219 219 219 218 217 215 217 205  94  67  28  42  40  38  41  43  39  49  52  69  68  59  50  45  46  41  37  31  28  26  24  24  22  24  22  21  19  19  20  18  17  17  16  15  15  13  11  12  13  13  18  23  24  21  22  22  19  25  36  43  50  51  54  44  37  25  47 100 162 193 202 201 201 201 202 201 202 204 204 202
 222 222 223 222 221 220 219 219 218 218 218 218 218 218 216 214 214 214 213  98  73  77  39  44  46  45  41  46  64  72  71  72  70  62  69  72  49  50  44  33  36  31  24  26  25  25  23  24  24  23  22  20  21  20  18  17  16  15  13  12  11  12  14  20  24  23  22  21  22  22  27  32  47  55  57  56  43  49  50  62 163 192 202 201 203 204 203 203 203 204 205 205
 219 220 220 220 221 219 218 218 218 216 218 217 217 216 215 213 212 220 141  68  69  45  21  50  55  45  57  79  81  84  96 103 114 106 108 103  85  74  62  53  47  48  45  39  35  32  23  27  28  30  28  26  24  25  26  22  20  18  15  14  12  12  13  15  21  23  22  19  18  21  23  27  27  40  35  34  28  23  29  28 117 179 204 202 203 204 204 204 204 204 206 206
 213 216 217 219 218 219 218 215 215 215 216 217 215 213 211 208 212 165  49  71  65  33  47  69  48  69  96  91  92 124 134 139 139 139 145 140 123 108  92  83  84  70  57  53  48  49  51  49  49  42  37  29  35  35  35  29  26  21  16  15  17  16  15  15  17  22  22  20  18  17  19  23  26  38  53  53  35  32  35  31  80 160 203 202 204 205 206 205 205 206 206 207
 215 214 212 217 215 216 214 213 214 213 212 212 212 210 208 212 152  51  36  86  53  50  71  94 120 123 116 127 156 159 161 162 164 173 169 162 142 133 128 114  96  92  86  78  78  78  74  72  71  64  59  63  57  54  46  47  43  38  39  36  20  20  19  18  17  22  22  19  17  17  18  21  25  37  38  44  33  36  38  52  20 137 207 202 204 205 206 207 206 207 207 206
 216 213 212 210 212 211 211 212 211 209 209 209 210 207 213 139  83  70  77  75  73  60 112 112 129 138 149 164 165 165 168 170 174 178 181 171 158 143 131 122 117 109 107 101 100  96  96  94  88  90  90  87  83  81  77  57  62  69  64  58  56  47  31  29  23  20  20  18  16  15  18  19  22  27  34  37  39  38  35  48  44  11 179 208 205 206 206 207 208 207 206 207
 214 214 213 211 209 203 204 208 209 208 208 208 206 213 153  68  86  87  79  70  69  57 128 140 151 162 167 167 167 168 168 168 169 174 178 180 177 162 146 136 127 125 115 112 110 108 108 110 111 110 109 103 102 100  95  96  96  90  85  81  74  68  56  41  32  24  20  20  16  15  16  19  21  23  23  26  34  39  37   9  69  46  51 215 206 207 207 208 208 207 207 208
 213 212 211 211 210 207 203 199 199 205 204 203 215 188  68  75  76  71  22  48  63 108 158 159 167 173 169 168 167 166 166 165 165 169 164 171 171 169 155 145 132 127 123 125 118 111 115 115 113 111 110 115 114 117 112 116 109 103 100 102 100  88  72  50  44  17  22  21  20  20  20  21  22  24  24  26  29  37  37  38  16 114  46 173 207 207 207 208 209 208 208 210
 210 210 209 208 207 206 204 200 196 184 191 197 190  79  74  64  57  41  32  43  45 134 172 167 166 167 166 164 163 163 162 162 162 161 165 166 168 168 166 152 140 134 128 126 124 121 118 117 117 115 116 117 117 116 116 117 116 114 111 108 106  99  91  74  52  37  22  22  24  20  23  27  27  28  27  26  26  24  33  37  31 114  95 100 205 204 208 210 209 209 209 211
 205 206 204 205 204 206 200 199 192 185 180 174 104  42  50  53  43  38  36  48  45 156 170 168 169 167 163 158 158 158 155 153 155 155 155 158 160 157 152 149 145 136 130 128 124 123 121 119 119 119 119 119 119 119 119 121 120 118 116 116 113 113 110  97  78  54  26  29  30  41  40  32  22  23  20  15  24  21  14  22  23  44  75  87 194 204 208 210 211 210 210 211
 204 202 202 197 193 187 186 180 182 181 172 135  28  40  37  27  31  36  41  40  81 161 164 168 168 167 153 149 150 149 147 146 147 148 152 152 151 151 146 144 142 136 131 128 124 122 121 119 119 119 117 118 119 120 121 121 121 120 121 120 120 118 118 116 104  82  57  29  34  34  50  71  67  60  61  59  40  21  22  20  20  20  38  66 197 207 208 211 211 212 212 211
 189 180 181 179 178 177 173 178 153 139 124  38  45  46  42  40  37  34  44  30 128 152 165 167 167 159 145 144 143 139 131 135 136 138 137 139 148 135 135 133 130 127 128 126 122 120 121 119 119 117 118 119 119 119 120 119 118 121 121 122 121 121 121 122 128 115 102  80  60  74 111 118 116 114 109  96  63  39  25  22  23  28  16  82 197 202 207 211 211 211 211 211
 174 169 165 161 152 153 118  64  68 106  66  33  43  41  40  38  30  41  45  71 152 162 164 165 164 147 143 138 137 133 130 132 129 126 130 122 114 119 113 119 123 123 124 124 121 119 119 119 119 118 119 119 119 117 118 117 116 117 118 120 123 122 122 125 127 127 129 130 119 125 126 134 129 125 124 124  99  61  34  21  23  24  25  50 202 201 208 210 211 212 213 214
 146 142 148 155 127  73  68 149 189 180  22  40  41  40  39  36  30  43  39 121 156 159 162 162 157 149 141 136 131 122 120 122 121 119 118 116 115 113 113 114 117 117 121 120 119 117 117 116 117 118 119 119 117 118 118 117 117 116 115 117 120 121 122 124 125 126 125 125 132 131 132 134 132 132 130 131 118  88  53  33  28  23  28  16 181 204 207 209 211 212 213 213
 151 157 146  98  71  70 165 209 217 101  20  38  37  38  37  31  34  44  79 150 161 158 159 159 155 150 140 133 128 122 120 118 116 115 113 111 108 110 106 110 114 114 116 118 116 115 115 114 117 117 118 118 118 117 117 116 117 117 115 116 118 119 121 124 124 124 124 125 126 128 133 134 134 135 132 130 129 108  77  37  29  25  27  21  43 203 210 209 211 211 214 215
  94  78  63  76  85  49 184 212 214  36  28  37  35  36  34  32  35  57 129 164 159 157 157 156 152 145 138 133 127 125 123 118 116 114 112 109 107 107 107 107 110 113 113 113 114 114 114 115 115 115 115 116 117 116 115 115 114 114 115 115 116 117 119 120 120 121 122 122 124 126 130 131 133 133 133 133 128 118  84  46  17  25  24  23  17 141 214 208 211 214 214 215
  68  73  77  80  82  57 174 213 175  15  38  32  31  31  31  32  42  81 148 159 157 156 154 151 146 140 137 133 130 127 124 122 119 117 114 110 109 108 108 109 110 111 112 113 114 114 115 116 115 114 114 114 114 113 113 113 114 114 114 113 114 115 116 118 120 120 122 121 123 125 127 129 131 131 133 132 127 124  72  59  24  25  22  19  26  19 220 209 214 215 215 216
  55  59  67  73  82  69 172 221  84  24  24  29  30  28  30  36  39 125 157 158 157 155 151 147 141 138 135 133 132 129 127 127 122 119 117 115 114 111 111 112 113 112 113 113 113 114 115 117 116 115 114 113 114 113 112 113 113 112 113 113 113 112 114 116 117 118 120 120 121 124 125 125 128 131 133 133 129 112  93  81  38  22  23  22  19  16 164 213 211 215 216 215
  58  60  68  70  76  84 110 190  33  34  29  28  29  28  27  43  59 148 160 158 155 151 147 139 138 137 134 134 132 133 133 131 128 123 121 122 120 114 118 120 115 116 115 115 116 115 115 117 117 115 115 115 113 113 112 111 111 110 111 111 111 111 113 115 115 116 117 118 119 122 124 125 127 129 132 132 133 115 108 104  54  19  23  22  27  18  68 223 210 215 217 217
  58  62  68  70  73  81  69  48  21  31  26  29  30  31  34  39 103 149 153 156 153 148 143 139 134 132 131 131 133 135 137 136 132 131 133 134 131 127 125 118 129 125 120 120 120 119 118 116 116 116 116 115 114 114 114 112 111 110 109 109 111 113 114 113 114 117 116 117 118 120 122 123 126 128 131 132 132 128 110 115  71  29  28  23  23  40  18 217 213 215 216 218
  58  62  68  69  71  87  94  43  26  25  25  27  29  30  42  50 122 150 151 153 151 145 140 134 132 130 130 131 133 134 137 139 140 141 142 145 140 146 147 146 141 140 134 127 121 119 117 117 117 117 118 116 114 114 114 114 112 111 109 109 111 112 114 115 114 114 114 114 115 117 118 123 124 126 125 128 130 127 120 109  96  48  23  25  25  33  15 181 213 213 216 219
  59  63  69  71  72  89  98  28  29  22  22  26  27  32  38  66 131 146 149 150 148 143 139 135 131 129 131 133 137 139 139 141 142 147 148 153 152 153 153 153 151 144 136 130 123 121 118 118 118 118 116 116 116 114 116 115 114 114 113 113 113 113 114 115 116 116 115 114 114 116 117 118 121 122 124 127 127 128 125 122 122  70  32  25  24  30  22 126 213 213 216 220
  59  67  70  71  77  92  85  16  26  22  22  25  26  31  49  72 135 144 147 148 145 142 136 129 129 129 131 135 139 142 142 144 146 149 153 155 158 158 157 156 152 144 137 132 128 122 119 117 118 119 117 116 115 116 117 118 118 117 116 115 115 115 115 115 116 117 117 117 116 117 117 117 119 121 122 126 127 127 127 124 122 103  49  29  28  29  21  41 230 215 217 218
  60  68  71  73  83  93  71  21  25  22  22  24  27  32  53  92 142 145 147 146 144 138 134 130 128 130 134 138 145 147 153 155 153 154 154 157 159 159 157 156 152 144 137 133 129 124 121 119 119 119 118 118 117 118 119 119 120 119 119 119 119 119 118 118 117 119 119 117 117 117 117 117 118 119 121 124 125 128 128 126 125 123  81  26  29  31  31  18 230 215 216 219
  60  67  71  73  86  95  58  29  25  24  23  25  27  33  65 111 140 145 145 145 141 136 133 132 132 133 141 145 148 154 156 156 156 154 153 155 157 155 154 152 149 141 139 133 128 126 123 121 119 119 120 118 118 119 120 123 123 124 123 122 122 122 120 118 118 118 119 119 119 117 117 118 119 119 121 123 124 125 125 127 124 123 103  36  30  30  34  12 218 213 215 216
  59  69  70  71  87  94  53  16  25  25  24  25  27  34  71 121 145 144 143 140 138 137 136 136 132 145 139 152 153 155 156 156 153 151 146 146 147 144 140 133 132 132 130 128 128 125 122 121 120 119 119 120 119 120 121 123 123 124 124 123 124 125 123 122 121 121 121 119 118 118 116 116 117 119 119 121 124 123 124 126 121 115 118  48  20  29  27  13 164 220 216 214
  53  67  70  70  84  97  39  23  27  26  24  25  28  40  86 141 144 144 141 140 138 136 139 143 151 156 158 155 155 155 152 153 151 143 139 132 126 123 122 115 116 123 124 123 124 123 121 118 117 118 120 120 121 120 121 121 121 121 122 123 123 125 124 124 125 125 123 121 119 118 117 116 115 117 119 121 122 124 125 125 120 112 109  73  13  27  27  13  54 216 198 200
  56  66  70  73  82  90  46  25  27  25  25  25  32  41 109 153 146 144 142 139 140 141 149 155 157 158 156 152 157 146 146 144 141 138 131 122 116 109 109 109 109 113 115 120 120 120 117 114 115 115 118 120 120 119 120 121 120 121 122 122 122 123 121 123 125 126 126 124 121 119 116 115 114 114 118 121 122 124 125 125 120 117 101  95  29  25  24  23  15 215 199 203
  58  64  68  71  78  86  55  28  28  25  23  26  23  45 140 148 146 144 138 138 141 148 153 155 154 150 146 135 125 120 113 108 109 111 108 100  97  99  96  96  99 102 109 110 112 115 111 110 110 113 114 117 118 118 118 118 117 116 117 120 120 120 120 122 124 125 126 125 124 122 118 116 115 116 117 119 122 123 123 123 119 108 100 101  36  19  22  21  14 197 194 191
  60  65  67  70  77  82  61  30  30  24  24  25  22  72 141 143 144 141 139 138 143 152 160 136 124 106 100  94  85  77  73  65  57  50  48  67  63  73  75  76  87  89  99 106 105 107 107 107 108 110 112 114 114 113 114 112 111 112 114 116 116 116 117 119 121 123 124 126 125 124 121 117 116 117 118 119 121 121 121 121 120 107  93  96  47   9  20  24  15 119 188 179
  58  63  65  69  77  80  56  34  28  23  24  29  16 106 147 142 141 138 137 141 148 156 124  94  78  70  67  56  56  47  41  39  35  34  38  41  48  60  61  69  75  82  89  93  97  99  99  98 102 106 107 108 107 107 105 106 105 107 109 112 111 111 112 113 117 121 119 123 124 123 121 119 118 117 118 119 120 121 121 120 118 110  81  90  55  14  20  20  37  59 214 204
  58  61  63  69  72  77  47  30  24  22  24  24  33 124 148 144 141 138 137 142 150 140 101  69  60  60  54  44  41  37  30  29  30  32  33  36  41  46  57  59  65  75  86  87  91  90  93  92  93  99  99  99 101 102  98  94  95 100 102 106 109 110 107 105 103 107 112 115 122 120 119 118 117 117 117 118 119 119 120 120 117 110  75  80  55  17  19  19  31  19 218 201
  56  57  60  66  69  76  43  24  22  21  24  26  36 133 147 145 141 138 135 138 118  79  65  62  52  49  42  38  33  27  23  27  26  25  27  31  34  41  47  55  62  72  80  82  86  87  88  89  90  92  94  93  92  90  91  89  89  78  88  82  77  65  71  71  68  76  99 101 107 106 109 119 117 117 117 118 119 120 118 119 117 117  64  68  55  20  19  19  25  16 185 206
  53  57  58  64  69  71  43  20  22  22  25  17  51 146 148 146 140 137 142 105  82  80  65  52  49  45  41  38  34  32  29  27  28  27  27  30  35  40  46  52  57  66  74  79  83  85  86  86  86  86  87  86  86  83  81  79  74  74  68  56  51  46  37  33  39  44  50  77  81  82  87  96 117 120 119 118 117 117 118 119 118 119  74  46  52  23  20  19  24  14 101 209
  55  55  56  65  68  72  40  25  24  22  23  23  65 157 148 144 139 135 123  86  80  70  59  53  48  44  43  41  40  40  38  34  34  31  33  36  37  42  46  50  56  64  71  76  81  82  84  81  83  82  82  83  80  78  75  70  63  60  57  45  41  38  33  35  37  41  44  45  59  50  61  60  94 118 120 119 117 117 116 117 116 120  89  38  39  25  21  19  22  13  61 224
  53  54  56  60  65  68  44  31  26  24  26  10  92 158 149 141 136 132 131  88  84  60  57  54  52  50  49  48  53  52  50  43  41  40  42  42  44  47  49  52  57  63  69  75  79  80  84  83  80  81  82  81  78  75  70  62  59  56  48  41  36  29  28  29  33  35  36  43  50  56  57  56  65 100 117 118 118 118 117 116 114 115 103  33  33  27  21  19  20  14  30 233
  52  51  54  59  64  67  49  33  29  25  27  12 113 155 149 137 134 135 119 103  81  57  58  55  55  59  64  72  83  81  80  78  70  57  50  48  46  48  50  53  55  61  67  72  78  80  83  84  84  84  84  82  78  72  66  60  57  50  46  39  36  34  33  32  30  29  34  39  46  52  57  59  62  63 107 117 117 119 116 113 112 111 108  43  27  26  21  18  20  11  31 235
  49  49  52  57  60  60  49  38  31  28  26  14 132 157 145 137 136 129 105  75  70  63  58  58  60  62  71  68  54  51  52  57  58  59  56  53  50  48  49  51  54  60  65  70  78  82  85  84  85  86  85  82  79  72  66  61  57  53  47  42  40  38  35  33  34  33  35  38  45  50  54  57  57  52  81 109 114 114 116 113 112 109 113  48  22  24  19  16  18  11  47 235
  49  48  51  55  58  57  54  34  27  25  25  11 143 156 144 135 131 116  92  74  68  63  60  60  59  55  44  51  53  55  55  54  51  45  47  48  49  50  48  50  51  55  63  70  79  85  88  88  91  91  89  85  79  73  69  64  59  58  53  50  46  46  49  49  46  41  42  39  43  50  54  57  58  52  74  97 110 115 114 113 112 110 110  48  13  21  18  16  19  12  86 231
  46  47  51  55  58  56  54  31  26  25  30  13 155 150 142 136 121  98  82  71  67  63  59  57  56  51  54  57  60  67  69  66  62  51  45  44  45  48  51  50  48  51  62  72  80  89  94  95  97  97  95  90  81  73  68  64  60  58  54  51  51  51  53  56  60  61  54  59  55  53  58  60  61  60  70  81 106 114 114 113 112 110 110  43  16  19  18  17  19  12 176 225
  46  46  49  55  58  48  34  33  15  29  27  15 163 149 142 130 103  89  70  69  64  62  59  56  57  67  64  50  31  22  17  18  28  40  46  41  38  43  47  48  49  47  58  70  87  92  97 101 104 104  99  90  82  71  68  61  59  54  52  48  47  49  51  56  58  60  63  62  62  62  63  64  64  65  68  74 101 114 114 114 112 111 107  32  14  18  18  18  18  16 224 219
  45  45  50  55  52  72 120  99  34  33  27  29 173 146 139 128  98  83  73  68  63  61  59  59  64  54  35  26  31  18  18  17  16  17  18  35  36  36  40  44  46  49  50  71  87  97 102 106 109 107 103  86  79  68  61  58  55  51  46  45  47  53  57  59  61  63  61  62  64  66  67  70  70  70  68  81 100 113 114 115 114 110 103  31  20  19  18  19  10  93 231 219
  43  45  51  45  65 183 169 141  78  19  17  34 173 145 140 126  92  76  71  66  63  61  57  59  56  31  32  46  56   9  21  20  20  22  24  36  32  34  35  41  45  48  46  71  87 100 103 109 111 110 103  85  76  66  60  54  47  44  44  46  50  55  59  64  68  70  69  64  60  64  69  71  73  73  73  81  98 111 113 115 115 108  94  33  21  19  19  20   8 161 220 219
  45  45  50  43 123 134 116 120  91  26  21  49 169 147 140 119  94  78  71  65  61  58  55  46  26  21  53  66  70  10  21  21  20  21  27  63  40  36  35  39  44  48  52  71  87 100 105 110 112 111  96  79  71  64  58  51  44  40  41  43  50  60  63  76  78  77  74  73  67  63  65  70  72  75  76  77  99 109 114 117 115 117  86  24  23  19  20  11  13 216 219 219
  44  45  47  53 139  72  66  91  93  38  23  72 168 147 144 118  93  80  71  63  59  54  48  36  27  31  53  59  73  20  23  22  20  11  50  64  50  39  36  40  45  51  54  71  91 109 115 118 113 113  86  77  71  61  54  45  42  40  37  35  30   9  16  21  40  51  70  76  78  59  62  68  73  75  80  81  97 109 114 119 118 119  62  20  25  21  20   9 122 215 214 217
  42  44  43  46 101  61  59  75  95  46  19  97 166 149 140 119 103  76  71  64  58  53  50  53  54  49  49  55  58  53  36  22  28  48  56  54  47  43  42  42  46  53  59  65  98 115 119 116 116 111  85  79  70  60  51  43  39  38  37  38  20  21  22  23  21  31  27  56  76  80  64  64  72  77  82  83  97 107 112 118 120 123  41  24  24  22  17   8 194 207 211 214
  42  44  40  80  92  61  59  69  96  51  26 111 162 148 138 115 106  83  74  71  68  60  68  72  70  56  54  53  51  48  50  55  52  48  49  48  46  45  45  44  47  56  58  81 114 156 142 131 117 109  84  80  70  61  51  41  37  41  52  51  17  22  20  23  25  45  56  21  38  68  72  71  74  78  83  88  98 107 112 116 121 121  39  16  22  21  14  16 205 193 190 191
  42  43  41  87  85  58  57  82  94  63  15 126 152 145 135 117 108  97  80  81  72  70  70  68  66  60  55  52  48  47  46  46  44  44  44  44  44  44  45  47  51  59  59 108 149 167 147 135 124 113  84  82  73  59  45  40  41  47  57  56  19  21  20  23  21  61 100  49  18  49  66  70  74  79  84  91  98 104 111 116 121 117  28  18  20  22  16  53 178 166 183 177
  41  44  45  89  85  63  46  96  86  81  15 131 152 144 139 116 119 111 106  99  86  75  74  69  64  58  51  47  46  45  44  42  41  40  40  40  43  46  49  52  60  60  82 140 169 168 156 146 137 121  94  86  74  56  52  47  46  47  54  59  22  25  23  27  29  74  92  67  30  36  59  69  74  78  85  93  99 104 111 119 121  96  28  20  20  22  11 179 223 231 236 237
  42  44  46 115  83  64  57 113  93  69  18 141 150 144 139 138 128 127 129 113  96  86  79  74  63  58  51  45  40  39  41  38  38  40  42  45  47  51  53  63  72  62 121 154 159 171 165 144 143 131  99  88  78  63  55  51  49  49  51  50  44  24  28  24  58  81  83  61  48  45  51  65  72  78  82  95 102 110 114 118 126  92  19  24  21  18  21 230 234 236 234 234
  41  45  28 122  74  58  92 102  98  60  18 148 147 144 141 137 138 133 137 133 123  99  87  74  71  58  42  33  26  27  33  36  40  43  48  50  53  46  65  72  72  89 136 163 171 168 156 154 144 132 110  88  86  69  58  52  48  45  45  46  48  54  60  62  61  64  63  62  60  59  60  63  71  80  87  97 105 110 114 119 133  84  13  25  24  10  91 231 232 234 235 235
  42  44  30 116  79  61 119 100  90  49  21 148 147 144 142 141 143 151 155 160 159 140 118 102  81  75  68  70  62  55  53  53  53  55  54  56  58  67  72  79  80 105 135 174 164 165 150 142 138 134 112  97  90  78  66  54  50  45  44  43  46  48  52  53  58  63  64  66  69  74  76  71  77  84  91  99 107 111 114 120 136  71  22  26  20  14 216 234 233 234 236 236
  42  45  33 131  71  78 129  67  61  55  31 139 144 144 144 144 157 160 164 165 166 162 143 126 104  93  84  75  69  67  61  61  60  60  57  64  71  76  78  79  89 125 141 151 153 158 145 139 133 123 111  99  92  88  75  63  56  51  46  44  44  46  48  52  56  60  62  65  69  73  76  78  82  87  92 102 109 112 115 120 137  52  21  27  10 136 241 230 234 235 236 237
  40  45  34 119  66 128 101  65  59  48  51 141 145 145 146 148 159 162 165 167 169 176 178 161 144 120 100  84  73  72  73  70  67  72  80  78  82  81  82  86 105 138 152 149 155 154 148 139 130 122 117  99  94  92  84  67  59  56  53  49  47  46  46  49  54  58  61  65  73  77  80  84  92  94  97 103 109 113 117 120 140  43  16  27  20 131 205 238 233 236 238 238
  41  44  38 105  72 140  76  62  57  47  64 143 144 146 148 155 157 159 162 165 167 170 174 166 157 136 111 106  92  93  80  80  91  89  86  87  87  88  86 107 137 159 162 167 164 159 147 142 132 127 118 112  97  98  93  80  75  60  61  57  56  44  40  45  51  61  57  64  78  83  86  91  94  97 101 107 109 115 117 119 145  24  34  27  50 109 115 227 237 236 238 237
  40  44  40  84  96 141  77  52  58  53  62 149 142 147 151 153 154 154 156 158 154 152 153 154 157 151 150 140 121 115 110 111 100  98 101  92  97 102 114 142 165 165 172 173 172 166 149 143 138 127 120 113 104  99  97  92  85  80  73  68  66  68  66  63  64  65  73  78  81  85  89  93  96 101 104 108 111 114 118 120 137  19  37  75  83  91  76 134 245 236 238 239
  40  44  46  60 104 140  87  51  58  56  67 136 146 150 151 153 150 151 151 152 152 154 156 161 169 169 165 156 149 138 128 118 118 113 110 108 105 120 139 154 169 168 170 171 173 168 161 147 140 132 127 118 109 103 101  98  93  89  85  79  78  75  73  74  75  77  79  82  86  88  94  97 101 105 108 109 112 115 119 119 133  18  62  90  81  58  43  80 248 237 238 239
  40  44  48  41 113 149  89  49  66  58  68 141 147 151 151 149 146 148 152 150 159 168 173 174 171 170 168 161 155 145 140 140 131 115 112 107 113 126 146 159 163 166 167 168 170 169 158 149 143 138 132 119 114 107 103 101 101  99  95  91  83  85  83  83  87  88  88  91  92  97 104 107 109 110 111 112 112 116 118 118 123  14  77  90  67  66  39  56 247 238 238 238
  40  44  48  19 119 145  96  56  73  54  67 147 146 149 149 146 146 150 155 167 173 170 169 169 170 169 163 159 154 146 137 125 113 106  92  85 120 133 153 159 161 165 166 166 166 158 153 149 143 139 132 130 116 111 106 105 104 105 106 102 100  94  94  93  90  94  98 102 105 110 113 114 115 115 114 114 114 115 116 119 112  16  90  88  70  65  46  48 241 243 238 239
  40  44  48  24 115 134 115  84  50  35  73 139 146 148 147 144 141 153 160 167 167 165 164 163 162 158 160 156 145 130 119 106  95  81  56  93 151 163 172 160 162 162 161 160 159 154 151 147 141 140 131 127 120 112 108 106 106 107 108 110 107 104 105 105 104 109 110 111 112 121 119 118 120 121 115 114 116 117 116 116 102  27  91  93  70  65  53  47 247 240 239 239
  40  44  48  30 118 126 132 169 119  37  68 133 147 147 146 141 144 150 159 159 157 158 155 151 149 147 139 128 124 110  92  89  74  61  47 136 164 172 174 164 160 156 153 150 149 156 153 140 139 137 132 128 115 111 106 102 104 106 108 111 113 113 112 113 111 112 112 114 118 120 121 120 119 120 117 114 115 117 118 122  81  34  98 103  65  67  39  63 248 242 239 239
  40  44  46  31 110 120 107 189 173  28  72 131 145 145 142 140 142 148 152 150 148 142 144 140 132 116 109 103  91  88  78  68  63  50  55 152 163 164 157 157 157 155 146 139 140 133 131 136 135 132 130 127 116 110 105  92  95  99 104 109 113 115 115 116 117 117 116 116 115 118 119 118 120 119 117 107 113 116 118 126  69  24 107  98  75  67  47  68 249 239 239 240
  40  45  46  23 113 115 131 189 152  29  68 122 143 142 135 135 139 146 146 148 139 133 128 123 112 110 100  94  86  80  70  61  54  46  59 147 153 148 149 147 146 143 139 128 115 116 119 122 124 125 127 125 120 117 111  88  85  90  98 107 110 114 116 119 120 122 123 117 117 117 117 119 119 119 118 110 112 116 115 124  41  23 121  91  78  69  49 122 247 238 239 240
  41  45  49  24 120 153 179 161 119  48  59 112 137 134 127 128 132 135 137 133 131 119 115 107  98  94  92  84  78  72  65  57  49  40  61 134 123 123 122 123 134 125 121 119 113 107 107 110 114 121 122 122 119 120 127  92  74  80  92 104 108 112 117 120 121 122 124 124 124 121 122 119 118 117 118 116 114 118 115 119  36  28 119  96  77  69  50 193 243 239 240 240
  43  45  46  30 115 178 188 155 113  50  68 116 128 126 121 123 128 129 125 118 110 104 102  95  92  85  81  77  72  66  61  52  47  45  53 102  97  88  93  99 102 102 105 103  96  89  95  98 106 110 113 113 113 119 122 123  54  75  82  91 101 107 113 117 120 123 125 126 127 127 125 123 120 118 118 116 114 115 114 113  34  22 109 100  68  67  57 237 240 240 240 241
  43  45  46  27 122 200 177 146 110  40  71  84 125 119 115 119 121 117 114 103 101  99  89  86  84  80  76  73  66  62  53  49  46  48  36  70  76  77  73  67  75  83  78  85  85  89  91  93  97 102 104 106 104 114 119 128  50  67  78  85  90 101 111 114 118 120 123 126 130 130 127 124 122 119 116 114 113 114 115 103  28  26 101 104  69  72  78 250 238 240 241 241
  41  45  46  16 165 189 158 126 101  47  77  93 114 113 103 113 111 109 104  98  93  85  81  80  77  75  73  69  64  56  52  50  50  50  52  52  56  55  50  56  64  75  77  79  79  79  82  85  88  90  89  92  94 106 110 117  53  66  74  82  90  96  99 114 115 117 119 126 128 128 127 125 122 120 117 116 114 113 111  95  19  23  98 103  78  60 159 247 239 240 241 241
  42  45  46  15 162 175 139 111 115  51  75  93 105 104 103 101 108 100  98  92  83  81  77  76  74  72  68  64  60  56  53  53  55  55  57  54  47  38  39  31  37  66  70  70  71  72  73  76  80  79  79  78  80  93  96 106  56  65  70  78  87  93  99 107 111 115 118 124 124 125 125 123 122 119 117 116 115 112 112  92  22  35  93 100  64  66 243 242 241 241 241 241
  44  46  46  14 141 148 118 125 105  70  77  85  93 100  95  96  95  94  87  85  81  78  75  73  72  68  67  63  59  58  57  58  58  57  57  53  48  42  40  41  42  38  58  63  64  67  70  71  73  71  57  38  54  79  81  82  67  65  67  75  82  89  95 100 108 111 115 119 121 123 123 123 121 119 118 116 114 111 110  76  24  45  91 107  65 183 240 241 241 241 241 241
  44  45  47  20 101 122 114 120  75  78  71  84  90  93  87  90  86  85  82  80  79  74  71  69  68  66  64  62  60  57  58  59  59  59  56  51  45  42  40  40  42  45  48  57  58  60  63  66  63  56  47  47  43  51  58  66  70  66  67  74  80  87  92  98 104 110 112 116 113 120 121 121 121 118 116 114 113 108 104  62  33  60  90 122  98 245 240 241 241 241 241 241
  42  45  46  46  59 104  97  87  77  66  68  78  85  86  76  75  77  75  75  75  74  72  69  67  65  65  63  61  59  58  58  58  58  58  54  49  41  38  35  36  38  40  44  49  52  53  55  55  56  56  52  51  51  58  69  74  72  69  68  72  77  79  87  94  98 103 107 112 112 114 118 120 119 117 114 112 109 105  91  56  23  68  97 101 217 243 241 241 243 241 242 241
  43  45  46  46  39  69  85  83  70  68  69  73  74  73  72  69  71  69  68  70  71  69  67  66  65  64  63  60  57  56  54  53  54  53  50  45  42  35  29  28  28  31  38  41  45  47  46  47  50  53  55  54  65  70  77  78  76  72  70  70  73  79  84  91  96 100 105 112 112 113 117 117 118 116 114 109 104  98  84  44  13 104 113 102 247 241 241 242 242 242 241 241
  45  46  47  45  45  47  51  78  73  65  68  70  71  73  60  61  59  60  63  68  70  69  67  65  65  62  61  58  55  53  49  46  42  46  46  44  41  35  27  24  26  27  30  36  36  36  34  30  42  48  56  62  69  75  80  82  77  75  72  71  73  76  82  88  93  97 102 108 111 112 114 116 117 117 112 108  96  89  76  45  16 134 103 146 248 241 241 241 243 242 243 243
  45  45  46  45  44  45  43  37  57  64  65  64  66  69  42  56  56  55  59  64  67  68  65  63  63  61  58  54  50  46  41  39  40  43  44  45  41  33  27  24  24  24  27  32  30  28  29  32  37  43  52  60  69  76  81  82  79  75  72  71  73  78  80  86  90  95  98 101 105 112 112 113 114 114 108 102  92  83  66  51  18 138  81 204 247 241 241 241 242 243 243 243
  45  45  46  44  44  44  44  48  53  62  65  65  62  63  57  54  54  53  52  58  66  66  64  62  60  57  55  50  42  36  35  33  38  41  42  46  39  31  27  26  24  25  28  31  30  26  28  30  34  37  45  55  66  74  79  79  79  74  71  70  73  76  80  84  88  92  96  97  99 101 105 113 112 109 103  97  87  76  58  50  22 136 114 226 245 241 243 243 244 243 243 243
  45  46  46  45  45  45  43  45  52  61  66  67  60  59  57  55  53  50  49  55  62  66  63  62  60  56  50  45  32  27  25  23  43  39  40  52  39  28  25  21  27  30  32  32  31  28  29  30  31  35  43  46  43  75  73  75  74  71  67  65  67  68  80  82  87  90  92  97  98 100 101 102 105 102 102  91  80  70  56  48  23 129 103 231 243 241 243 243 243 243 243 243
  45  45  46  45  45  45  44  44  52  60  64  66  60  56  54  53  52  47  47  51  59  61  62  60  58  53  47  36  24  25  26  24  51  60  60  58  68  58  58  63  49  33  28  34  34  32  31  31  33  35  40  42  39  63  69  69  64  63  63  62  63  65  79  83  86  88  91  94  95  97  98 100  96  96  98  84  76  61  55  50  26 126 108 229 245 241 241 242 244 243 244 245
  45  46  46  44  44  43  43  43  49  58  60  61  60  53  50  52  51  50  47  50  56  60  62  60  58  53  47  27  26  25  27  39  53  55  54  53  52  55  55  56  65  67  63  48  44  39  39  42  41  41  41  43  47  53  59  57  52  56  58  59  61  66  75  80  84  87  88  92  91  93  93  90  89  88  85  79  70  60  50  43  36 114 115 230 244 244 244 245 245 242 240 239
  46  47  46  44  44  43  42  41  48  52  54  57  57  51  48  49  50  48  45  46  52  59  62  63  59  53  43  32  29  26  23  38  43  42  41  37  35  39  44  45  49  56  60  63  64  60  57  57  53  48  41  44  50  51  50  46  42  45  50  55  57  59  68  79  82  85  87  89  88  87  85  84  84  78  65  65  67  60  44  38  48 106  99 184 200 200 193 189 188 183 178 177
  46  46  46  44  43  43  44  41  45  50  51  52  55  52  47  47  47  46  44  45  49  56  60  62  61  56  46  39  33  29  29  32  33  34  34  19  19  14  10  24  40  46  52  56  55  60  60  60  57  58  63  62  54  52  46  41  35  36  40  51  54  56  62  77  81  83  85  85  84  80  79  79  79  77  69  67  62  62  45  37  54  95 141 170 162 159 165 171 163 171 171 170
  46  46  47  45  44  43  43  42  44  50  53  52  54  54  50  49  47  45  44  44  49  55  59  61  63  59  51  46  40  36  37  36  34  37  38  41  39  28  23  20  24  35  43  47  50  45  48  46  49  54  58  59  59  55  48  36  30  27  26  30  48  54  57  75  81  85  86  84  80  75  71  74  77  74  70  68  60  54  53  37  75 128 170 165 170 170 170 169 170 170 170 170
  49  47  46  46  46  46  44  44  44  51  59  58  56  54  52  47  46  46  45  45  48  54  58  60  63  61  55  51  46  45  47  51  56  58  58  62  65  75  69  63  62  59  47  45  43  37  35  42  40  41  45  45  51  53  53  39  26  24  24  20  41  49  61  73  80  83  83  82  77  74  70  69  74  72  71  66  58  51  55  41 122 165 167 166 167 167 168 168 169 168 168 168
  48  48  48  47  47  46  45  44  44  51  55  54  54  54  51  47  45  43  41  42  46  51  56  60  62  61  58  54  54  54  56  59  63  69  72  71  71  72  74  77  76  74  76  74  68  67  62  52  54  46  47  51  41  45  37  39  13  22  21  27  36  50  60  71  79  81  80  74  73  69  66  64  63  64  64  59  54  47  38  60 142 163 164 165 166 166 166 166 167 167 166 167
  51  51  49  49  48  47  47  46  47  49  53  51  52  53  52  48  45  42  40  41  44  51  56  60  61  62  58  58  57  59  61  64  67  70  71  74  74  75  76  76  76  78  79  85  83  87  89  83  76  76  77  63  65  52  46  45  41  26  24  28  40  51  59  72  79  81  72  67  59  60  59  61  57  57  56  50  47  43  20  81 153 162 163 163 164 164 163 163 164 163 162 163
  47  52  48  51  50  49  46  47  46  49  50  49  48  50  51  47  43  41  40  40  44  51  56  61  61  61  58  58  60  63  64  68  69  71  71  72  72  71  71  72  74  75  77  78  80  82  84  86  88  89  90  90  88  86  76  61  50  36  31  36  46  55  65  73  78  78  74  64  51  53  55  57  55  51  53  50  45  41  18 106 148 156 157 156 156 157 156 156 154 152 152 154
  44  26  27  20  26  39  45  48  47  48  49  48  46  46  48  49  44  40  40  40  42  50  56  58  61  60  58  57  59  63  67  69  72  72  73  70  68  66  64  64  65  66  69  72  71  74  78  81  82  87  89  90  91  86  79  69  54  44  41  46  53  59  70  74  77  75  70  61  50  47  50  53  50  49  49  49  44  40  22 107 145 150 151 152 152 153 153 153 153 153 154 153
 187 184 177 160 113  59  20  21  37  50  50  49  45  44  45  47  45  40  38  40  42  47  52  56  59  58  57  58  60  64  67  69  71  73  72  69  65  59  54  56  56  57  57  58  60  63  68  72  77  80  85  87  87  85  81  75  68  54  50  52  58  66  71  75  75  71  65  55  48  43  46  48  48  47  46  44  41  36  22 125 147 150 152 152 153 153 155 155 155 153 153 153
 169 168 172 174 189 194 180 119  54  27  37  43  44  42  40  41  41  39  35  38  42  45  50  55  58  58  56  55  58  62  65  68  71  72  72  71  65  59  54  53  50  50  51  52  51  54  54  63  64  74  81  86  88  86  85  82  76  68  58  57  61  67  73  75  75  69  61  54  46  42  42  43  43  44  44  41  33  18  46 144 149 150 151 153 153 153 155 153 154 153 154 155
 168 168 169 170 170 170 174 190 190 155 106  53  32  40  40  38  37  36  34  36  39  41  48  53  56  55  53  54  57  62  67  68  71  72  72  71  66  61  56  50  47  46  46  45  47  48  48  56  63  73  79  85  89  89  88  86  80  73  65  63  64  68  76  75  72  64  58  50  44  41  40  40  39  39  36  35  33  10  78 149 148 151 153 153 153 154 154 153 153 153 154 155
 165 165 166 167 167 168 169 170 172 173 181 152  69  35  39  34  32  32  32  33  36  38  45  52  55  57  55  55  57  63  67  69  70  71  73  71  67  62  56  49  47  46  44  42  45  47  50  54  68  75  79  85  88  89  89  86  82  75  69  67  67  69  72  74  72  63  54  48  42  39  37  37  36  33  30  31  31  31 126 151 149 152 153 153 153 153 154 154 154 153 154 154
 163 163 163 162 162 161 163 166 167 166 167 172  99  31  37  32  30  30  29  31  35  39  46  51  53  54  54  55  57  61  65  69  71  72  73  72  70  68  57  49  48  43  43  45  44  49  53  59  70  78  81  87  88  89  88  86  81  76  72  68  69  71  72  72  70  64  52  48  45  42  37  37  36  30  25  29  21  56 153 148 149 152 151 152 153 153 153 153 153 153 153 153
 157 156 156 156 156 158 158 160 162 162 162 171 120  35  30  32  29  28  29  32  35  40  45  49  50  50  53  53  55  59  64  69  73  74  74  75  74  73  75  77  71  68  55  52  52  50  60  67  73  78  82  86  88  87  86  84  78  75  73  70  69  69  70  69  66  60  55  50  46  42  38  36  34  31  30  31  24 103 150 149 150 150 151 151 151 153 152 152 153 152 152 152
 142 142 146 147 148 149 150 151 155 159 160 161 128  62  28  36  34  31  31  33  36  40  44  47  46  47  49  50  51  56  64  70  74  77  78  80  80  82  82  80  76  72  68  70  74  79  81  79  79  80  81  86  85  85  82  80  76  71  67  68  70  69  70  68  63  59  52  47  45  42  38  38  38  34  35  29  51 139 147 150 150 151 151 151 151 150 150 151 152 151 151 150
 137 137 136 137 136 134 125 142 149 153 155 155 140  83  42  37  34  32  29  30  32  36  41  43  43  43  44  45  46  53  61  69  74  78  81  84  87  88  86  81  77  74  73  81  87  88  90  88  85  80  80  84  84  82  80  78  74  71  67  68  69  69  68  65  59  53  47  39  35  36  35  34  33  31  32  30  61 154 146 148 149 150 150 150 150 149 150 150 150 150 150 151
 132 133 133 135 133 133 133 132 128 130 139 155 140  98  65  34  35  32  28  29  30  31  36  38  38  36  38  39  42  48  59  68  75  81  85  87  91  90  87  82  79  77  76  78  80  90  91  91  91  86  84  85  84  83  80  79  74  69  68  66  66  66  66  62  52  47  41  36  30  29  29  29  31  32  33  20 105 145 145 148 148 148 150 149 149 148 149 149 148 148 148 148
 133 132 132 133 133 133 133 133 133 133 132 124 132 107  78  39  35  30  28  27  26  27  32  32  29  28  32  37  43  51  58  66  75  81  84  87  88  89  87  80  79  77  75  72  74  81  91  93  93  92  89  88  86  85  82  79  75  67  62  61  61  61  61  55  45  40  36  24  25  24  25  25  28  31  18  58 145 142 144 145 146 146 147 148 148 148 148 147 148 148 148 147
 131 132 131 132 133 133 132 132 133 132 132 131 128 112  77  55  37  29  26  23  23  25  29  27  26  26  31  37  44  51  55  63  71  77  84  82  81  83  76  74  74  71  68  66  72  81  88  93  94  94  93  91  89  86  82  76  70  65  61  59  61  58  57  50  44  36  30  25  21  20  21  23  26  21  28 124 142 142 145 145 145 144 144 144 145 144 144 144 144 143 143 145
 128 129 131 130 130 130 131 132 132 132 131 131 131 122  71  66  50  24  25  23  23  25  26  25  25  27  32  38  43  50  53  58  64  67  71  70  69  56  61  65  66  66  62  61  68  77  82  93  93  95  93  91  89  86  83  73  69  61  56  48  46  52  51  48  42  36  28  24  19  18  20  21  22  36  78 130 139 140 143 143 144 143 146 144 144 146 146 143 145 145 144 142
 128 128 130 131 131 130 129 130 130 131 131 130 127 116  92  73  57  30  27  25  24  25  24  24  26  30  31  34  39  42  46  49  55  54  50  56  58  54  48  49  52  54  54  51  62  63  77  76  84  87  93  88  85  79  72  64  60  58  53  48  45  44  44  44  42  37  28  23  19  18  20  18  26  53  95 123 124 118 118 119 116 112 107 111 105 101  98  98  93  85  87  85
 126 127 127 129 128 128 129 130 131 129 131 130 126 119  98  78  61  47  32  24  23  22  23  21  22  24  27  31  32  35  39  44  46  45  47  51  52  45  40  39  41  47  48  50  53  60  67  69  72  67  72  77  75  74  67  59  51  48  45  43  40  40  37  37  37  34  28  22  19  20  21  20  51  48 107 106  96 105 104 101  95 100 106 107 107 109 111 111 114 115 113 113
 124 125 125 127 127 127 125 119 107  96 103 131 133 126 107  73  57  57  32  25  21  20  20  20  20  21  23  27  28  29  32  38  39  39  40  36  35  37  35  36  38  39  42  42  48  52  52  53  60  59  57  64  65  63  59  55  48  42  38  35  34  33  30  30  29  29  26  23  19  21  27  48  58  64 118 113 113 115 115 116 116 117 118 116 116 116 117 118 119 119 119 119
 123 123 125 129 121 101  99 116 174 238 187 146 147 115 107  74  62  54  41  27  22  20  19  18  19  21  23  26  26  26  25  29  30  32  33  32  33  33  32  31  32  34  33  34  40  43  43  47  51  52  52  49  52  53  52  48  45  41  32  28  25  26  27  24  23  23  21  20  22  24  45  52  67  71 115 115 117 118 119 118 118 118 119 119 119 121 121 120 121 122 121 122
 121 117 114  98 142 210 248 204 178 142 124  72  70 124 107  83  69  59  45  31  24  18  17  18  17  20  24  23  24  23  22  23  23  24  25  26  27  29  28  28  27  30  32  33  36  37  37  38  38  42  44  45  45  52  47  44  42  37  28  26  23  23  24  22  21  21  19  20  19  44  53  58  68  88 119 120 121 121 121 121 122 122 122 123 122 122 124 124 124 125 124 125
  71  61  97 246 227 191 172 120  27  16  13  13  22 126 101  87  73  63  49  38  26  19  16  16  17  20  21  21  20  19  19  20  20  21  21  21  21  22  24  23  22  25  28  30  31  30  29  32  34  34  36  36  31  49  43  42  38  31  28  24  21  21  21  20  18  19  20  23  36  50  58  60  69 112 129 126 124 121 128 127 124 127 127 127 126 127 128 128 129 131 127 131
  82 161 241 232 211 110  35  14  14   8  10  15  26 121 102  88  70  62  48  40  28  19  14  13  14  17  17  18  17  17  16  16  17  15  16  16  15  17  18  18  17  18  21  23  24  25  23  24  21  22  30  24  26  30  35  36  35  29  24  20  19  21  18  16  15  16  21  28  44  53  59  65  71  96  83 104 152 158 152 155 149 139 138 134 133 130 129 130 130 129 128 128
 220 250 241 196 112  23  23  11  18  15  15  16  35 120  99  88  71  56  49  39  31  24  18  14  15  15  16  17  17  17  16  16  16  14  15  14  13  15  16  16  15  16  17  19  21  23  22  21  20  21  22  23  25  28  30  31  32  27  23  20  19  19  16  14  15  18  25  40  48  54  61  68  80  42   9   8  11  14  23  68 126 156 151 145 150 132 133 120 118 127 126 127
