P2
92 112
255
 245 245 243 243 243 243 244 242 241 241 241 241 240 240 238 238 237 237 233 233 232 234 236 236 236 239 234 202 134  86  80  64  69  63  59  57  58  56  60  69  70  45  53  60  50  31  40  36  33  38  39  44  53  56  47  44  50  54  55  52  79  72  59  50  69  67  51 116 157 190 210 223 221 221 220 220 220 222 222 222 221 220 220 220 220 219 218 218 217 218 219 218
 243 243 243 240 241 241 241 241 242 242 241 240 241 241 239 239 238 237 236 234 234 232 232 236 241 239 219 150  73  62  59  67  61  50  51  54  48  47  51  40  40  49  47  38  32  30  26  27  32  36  42  50  56  46  44  45  54  49  35  21   9  16  29  49  57  65  56  37  44  46  79 139 195 211 219 218 218 219 219 219 219 219 218 218 218 218 216 218 218 216 216 216
 241 241 242 242 239 238 240 241 242 241 241 239 238 238 238 238 238 238 237 235 236 234 228 229 218 140  58  23  26  47  52  47  40  42  43  30  33  35  39  37  37  37  24  26  24  26  25  27  30  36  40  44  36  40  36  36  20  19  29  29  30  31  33  42  52  60  57  38  25  33  42  36 122 185 214 219 217 217 217 217 217 217 217 217 217 216 215 214 214 212 214 212
 241 241 241 240 241 239 239 239 240 240 239 239 238 238 237 237 237 237 235 236 235 237 236 202 129  60  32  41  41  46  45  34  40  39  39  39  37  37  34  32  30  24  25  24  22  22  23  25  28  34  36  34  29  31  25  19  20  22  25  27  31  41  40  43  47  53  58  53  45  43  32  38  49 111 190 209 214 212 214 215 215 215 215 213 211 210 209 211 208 206 207 206
 240 239 239 239 241 238 238 240 238 238 238 237 237 236 235 236 236 234 233 233 239 235 182 133  81  39  28  29  40  43  45  45  42  39  39  41  42  39  35  32  30  26  25  24  22  21  23  26  28  28  28  25  25  23  20  18  18  19  20  22  24  30  39  43  46  44  47  48  47  41  42  42  49  25  98 171 203 215 212 209 209 211 207 204 203 202 200 199 194 196 199 200
 242 240 239 240 240 238 237 238 237 238 236 236 235 236 236 236 236 234 232 231 227 186 113 120  55  35  38  38  41  44  45  47  51  61  68  58  48  42  40  36  33  30  27  24  23  23  27  29  28  25  24  22  20  19  18  18  18  18  17  17  18  19  26  32  25  30  35  41  43  43  44  48  51  42  33 136 153 182 198 197 197 198 197 196 195 201 194 187 179 174 155 143
 240 240 238 239 238 237 237 237 235 236 236 236 236 235 234 234 234 233 229 233 169 111  97  32  41  43  42  44  47  46  47  59  70  77  81  52  58  49  46  41  37  33  29  27  26  27  28  28  27  23  21  19  20  19  18  18  18  16  15  14  14  15  18  28  30  28  26  20  37  49  45  46  49  51  58  79 103 144 149 178 188 188 186 176 160 140 121  99  92 115 144 171
 240 239 238 238 238 237 237 238 236 235 234 234 233 234 234 233 232 229 235 175 111 107  88  35  46  51  49  46  43  55  85  80  82  73  65  77  72  70  54  47  43  37  32  30  31  29  27  26  24  23  23  23  21  20  21  19  18  17  15  14  14  13  14  18  27  28  27  26  20  18  34  41  50  56  53  48  67 101 135 113 112 102  87  90 119 139 181 196 207 215 219 219
 238 238 238 237 237 237 236 235 235 234 233 233 231 231 231 230 229 230 198  70  75  62  34  34  49  60  46  61  86 102  92  96 112 132 133 120 113 102  86  64  40  46  48  47  40  34  28  25  22  21  21  27  25  24  23  22  21  19  16  14  13  13  13  14  20  26  27  26  24  23  22  36  51  57  58  64  52  33  42  80 136 171 202 214 220 219 217 215 218 218 217 218
 238 238 236 236 235 234 234 233 233 233 232 232 231 231 229 225 231 194  80  71  81  47  40  66  83  71  81 106 110 110 137 151 157 163 163 162 160 145 127 110  94  81  77  66  54  45  47  46  45  44  42  39  32  29  22  25  29  24  19  17  16  14  13  14  16  22  26  25  22  22  26  28  41  47  56  68  58  49  54  48 161 195 211 216 215 217 217 217 217 217 219 219
 236 235 234 234 233 233 233 233 232 232 231 230 230 230 230 232 187  65  53  60  94  40  51  83 122 128 130 127 148 174 178 179 188 180 197 195 189 173 149 141 129 117 107  93  87  79  74  66  70  68  63  48  43  44  45  45  32  29  30  27  16  13  12  16  16  19  24  25  23  20  21  26  31  29  43  46  29  30  31  30 107 184 221 216 217 218 218 218 219 219 219 220
 234 234 233 233 232 231 232 231 231 231 229 228 228 228 232 156  72  73  75  86  91  42  87 133 133 147 157 172 184 181 181 189 188 204 200 202 205 189 168 148 142 133 124 122 114 111 101 105 103  97  90  90  92  81  71  55  57  46  45  35  39  36  29  15  20  18  19  25  22  21  21  22  26  31  43  53  62  39  40  37  93 163 222 216 218 218 218 219 219 220 221 222
 233 233 232 230 230 229 230 230 227 227 227 226 224 236 161  63 105  96  98  75  76  67 108 147 158 170 183 187 183 183 185 186 188 193 196 199 198 195 185 178 158 146 140 131 128 124 120 111 115 114 118 113 108 104 102  96  91  81  79  77  68  65  54  40  26  22  22  22  22  19  19  20  24  29  39  45  40  42  40  54  22 145 221 215 218 219 219 219 220 220 221 222
 231 231 230 228 228 227 227 227 226 226 224 223 228 181  63 100  93  87  59  27  64  58 146 173 180 182 180 182 182 182 182 183 184 186 189 190 192 193 194 184 173 156 145 141 135 133 130 133 126 123 122 124 121 120 121 115 113 116 115 110  93  84  82  59  44  36  24  23  22  19  18  19  22  25  32  40  45  45  45  58  58  21 214 220 217 219 220 220 220 222 221 222
 227 227 226 226 226 226 225 224 224 223 222 225 197 101  93  82  68  60  42  41  42  77 169 186 181 181 181 179 178 178 178 178 179 179 180 180 182 185 187 186 177 162 159 150 143 138 136 132 131 129 129 129 131 131 128 129 123 127 119 114 114 110 100  85  61  48  31  24  23  21  20  20  22  25  25  24  33  45  45  18  82  16  85 226 217 219 221 221 220 221 222 222
 220 220 222 224 224 224 224 224 224 221 223 226 101  49  56  63  56  46  35  47  37 111 180 180 181 183 181 175 174 174 174 177 173 174 173 173 176 178 178 175 173 165 161 153 146 143 140 138 134 133 132 132 132 133 133 132 133 130 128 127 125 120 115 110  87  52  44  26  24  24  25  25  27  27  26  27  30  43  46  44  39  97  32 210 218 219 222 221 222 221 222 222
 224 219 217 218 220 220 220 221 220 220 219 137  26  47  45  43  34  41  41  51  49 146 179 179 181 182 179 169 166 165 165 162 161 170 168 168 169 168 168 166 166 164 157 153 149 143 139 138 135 133 133 134 134 133 133 133 132 133 133 133 131 126 127 115 109  88  61  26  25  27  35  35  34  19  25  30  28  16  23  41  25 129  83 149 225 218 221 224 224 224 224 225
 221 219 218 213 210 213 217 215 217 222 173  36  39  52  51  53  46  42  49  53  82 168 171 179 181 178 173 166 157 159 156 150 152 146 154 157 157 160 160 155 149 149 151 148 146 142 137 135 136 135 133 133 133 133 134 133 134 134 135 135 135 134 132 133 131 119 102  56  38  48  55  42  34  47  39  30  24  27  23  23  36  58 100 125 213 222 222 225 225 225 225 225
 218 219 217 215 209 199 182 192 198 194  55  54  50  50  46  48  42  43  54  52 130 175 177 179 177 174 167 158 155 151 149 146 145 147 147 147 144 129 124 130 137 137 143 144 143 139 137 135 135 134 133 132 132 134 133 132 132 132 133 134 135 135 135 134 134 134 130 113  68  34  42 100 107  92  92  78  52  38  23  24  20  22  78 149 203 224 222 225 225 225 225 226
 218 211 205 200 189 192 196 187 185  97  22  47  47  44  44  42  39  42  48  89 161 176 176 176 175 171 166 159 153 149 144 138 141 140 138 137 131 133 130 127 128 134 135 137 139 137 133 132 133 133 133 134 134 133 132 132 130 131 132 132 132 135 137 138 139 138 139 148 134 132 130 138 144 146 133 133  97  54  23  26  25  21  35 163 206 219 224 225 226 226 226 227
 197 197 199 197 192 181 170 160 127  44  38  42  41  40  42  40  38  46  60 142 177 175 175 174 172 169 164 158 152 147 143 140 138 134 133 132 130 127 124 122 125 129 131 132 134 135 132 129 129 130 132 133 135 134 133 133 131 130 130 130 131 133 135 138 140 138 140 143 143 142 146 147 147 148 139 137 129  84  43  25  28  29  12 159 209 215 222 224 226 226 227 228
 181 180 167 136 113  99  82  99  90  41  42  39  38  39  40  40  37  51 110 159 177 173 172 172 169 166 160 156 152 148 145 144 140 138 135 132 128 124 122 122 122 124 128 130 132 132 131 131 132 131 131 132 133 134 133 133 132 130 129 130 130 132 133 136 137 139 140 140 141 142 143 146 148 149 149 145 142 112  72  24  37  28  13 104 211 218 223 227 226 226 227 229
 173 126  84  80 133 173 201 187  58  39  39  36  34  36  37  31  45  69 148 175 174 173 170 168 164 161 156 155 153 152 148 146 144 143 140 134 130 125 125 124 125 126 128 129 130 131 132 132 133 132 131 129 129 130 131 130 129 129 129 128 129 130 132 132 134 134 136 137 138 139 142 145 147 148 148 147 148 132 101  31  41  27  21  22 216 220 223 226 226 226 228 229
  66  83 152 216 228 227 217 203  23  46  33  32  30  39  37  35  49  93 160 174 173 172 169 163 159 156 154 154 154 154 151 149 147 146 143 136 135 138 131 130 131 131 131 131 131 130 130 130 132 132 131 129 129 128 127 127 128 128 127 126 126 127 128 131 132 133 133 135 135 136 139 143 145 146 147 147 146 142 110  47  31  31  27  12 165 218 224 225 227 227 228 229
  95  91 214 221 220 219 234 154  16  37  34  33  37  38  40  48  53 130 169 170 171 169 165 160 157 153 151 152 154 154 156 157 156 154 148 144 147 141 140 141 140 136 128 129 128 132 132 132 132 133 132 132 130 129 128 126 127 128 128 126 125 125 126 128 128 131 132 132 135 134 138 142 143 145 146 147 146 142  94  87  29  28  28  10  66 223 228 225 228 228 228 229
  97  86 220 219 221 219 233  59  24  31  30  33  37  38  42  59  80 146 166 169 170 167 163 157 154 151 148 150 152 156 157 157 157 157 157 157 156 157 156 150 147 148 151 148 142 136 136 134 133 133 133 131 131 129 129 127 126 125 127 124 124 124 126 126 127 128 131 131 133 134 136 138 141 143 146 149 147 145  95  98  36  24  28  12  13 192 230 225 228 228 230 231
  96  90 220 220 221 229 199  20  29  25  29  32  35  37  44  57 116 154 165 167 166 164 160 157 152 150 149 150 154 156 157 159 159 162 165 166 167 164 163 168 160 158 152 155 145 143 139 137 135 133 132 132 132 131 130 129 127 124 122 122 122 123 125 126 126 127 128 128 130 133 134 137 139 141 144 147 147 147 101 131  51  20  28  25  15  65 232 225 227 229 231 230
  98  83 205 222 220 227 139  18  24  25  26  30  32  37  43  58 131 153 161 163 164 161 158 155 152 149 149 153 156 160 163 164 165 166 169 169 172 172 173 172 175 167 164 157 148 143 140 138 136 134 134 133 133 131 130 130 128 127 126 125 125 125 126 127 129 128 128 128 126 129 132 134 136 140 143 145 146 152 108 126  69  23  29  28  27  29 238 225 227 229 231 233
  87  81 141 199 223 233  54  23  25  26  25  28  31  36  44  76 137 157 160 162 161 159 155 152 151 149 150 155 159 164 166 167 169 172 171 172 173 175 176 176 174 172 164 157 151 144 140 138 135 135 135 133 132 131 132 132 131 131 130 128 128 127 127 128 129 130 129 130 129 129 130 133 134 137 140 143 144 145 135 123  97  37  34  29  25  15 198 230 228 230 231 232
 100  89  90  75 139 165  29  28  22  27  27  29  31  40  49 101 145 159 162 162 160 156 152 149 150 151 157 160 165 169 170 172 174 175 174 174 175 175 176 174 172 170 162 157 150 145 142 139 138 135 135 135 134 134 133 132 133 134 134 133 133 132 130 130 132 131 132 132 132 130 131 133 133 135 137 140 141 142 140 139 122  66  22  31  26  18 128 235 225 229 230 232
 105 101 100  94  76  60  15  30  25  26  27  28  29  44  62 117 157 159 160 159 157 154 151 152 155 156 163 165 168 172 174 175 176 174 174 171 174 174 176 168 167 164 157 152 150 146 143 141 138 135 134 136 136 135 135 135 135 135 136 135 135 134 134 133 133 132 132 133 133 132 132 133 132 134 135 137 139 141 141 139 140 106  37  34  31  21  67 237 226 231 234 233
 102 101 102  99  99  92  10  28  28  28  27  29  35  45  84 129 167 159 159 157 155 153 154 154 159 164 170 172 174 174 174 175 173 172 168 161 158 159 155 152 148 145 146 146 145 144 143 141 140 137 137 138 138 138 137 137 137 138 137 136 137 137 137 136 134 133 133 133 133 133 131 131 132 133 135 137 138 140 141 142 139 125  59  29  35  32  28 239 235 232 233 234
 104 100 100 100 102  73  10  30  29  29  28  30  36  46  99 148 164 160 157 155 154 154 155 159 163 166 169 169 173 178 173 167 169 167 158 151 146 140 139 123 134 127 134 139 141 141 140 140 135 135 135 137 139 138 138 139 138 137 137 136 137 138 138 138 138 138 135 134 132 131 130 131 131 133 134 136 137 138 140 140 139 133  91  23  35  32  17 237 230 231 233 234
 101 101 101 100 101  66  29  33  31  30  28  31  36  48 122 164 161 161 158 154 153 153 157 159 162 166 170 164 161 158 155 153 143 139 144 140 139 128 119 122 122 121 126 131 133 136 134 133 132 132 132 134 138 140 139 138 136 136 135 135 136 137 138 140 140 141 138 136 134 132 130 130 129 132 134 135 138 138 140 141 138 126 114  22  32  29  16 221 229 231 231 232
  97 101 102 100 100  76  35  35  32  30  29  32  29  64 150 157 159 158 155 154 153 154 159 164 151 141 127 123 120 115 110 107 104 107 100 107 111 104 104 115 109 104 117 120 129 129 128 127 125 127 129 132 137 138 136 135 133 133 133 134 135 135 136 136 137 140 140 138 137 135 132 130 129 130 133 135 136 137 138 139 138 124 109  36  27  29  13 179 233 229 229 230
  96 101 102  99  99  86  22  34  31  27  28  32  22  97 160 155 156 155 154 154 155 163 169 148 118  90  91  87  86  74  69  61  60  53  43  48  59  72  80  74  85  99 106 114 117 119 120 122 124 124 125 127 129 130 131 130 129 129 129 130 131 133 132 134 137 139 140 140 140 139 135 132 130 128 130 133 135 137 137 138 128 127 114  50  19  30  12  87 238 223 224 224
  96  99 101 100 101  81  16  33  28  25  29  29  27 130 156 158 156 154 153 154 158 170 157 116  80  67  55  66  53  44  50  38  40  40  37  35  41  50  62  70  74  83  99 105 104 112 113 115 113 116 120 123 124 122 125 125 122 123 121 123 124 126 124 129 134 135 136 138 141 140 139 134 132 130 131 132 133 135 137 138 135 120 118  70  16  24  18  16 231 214 216 218
  95  97  99  99  95  89  18  30  25  26  29  29  33 155 155 158 158 155 152 153 156 146 107  76  75  65  60  53  44  40  32  35  34  34  34  34  36  43  51  68  67  75  83  94 106 103 105 109 109 108 115 119 117 119 116 114 114 115 118 120 120 123 121 121 123 131 131 136 137 137 137 135 134 131 131 131 133 135 135 136 136 104 107  88  18  23  19  12 189 221 217 217
  93  96  97  98 100  84  23  29  22  23  29  18  66 163 160 159 157 154 152 142 134 101 102  76  59  58  54  48  43  40  36  34  32  29  30  33  35  40  46  54  62  68  80  86  91  97 100 102 101 100 108 110 111 111 109 107 106 108 106 107 109 114 116 114 116 115 123 127 129 130 132 133 133 131 130 131 132 133 134 133 134 113  93  89  27  15  23  13  78 215 188 181
  91  93  94  96  95  84  20  29  23  24  28  18  91 170 162 159 156 153 152 131  96  95  83  67  61  55  51  49  46  42  39  37  33  35  34  35  36  40  45  51  58  63  75  85  90  93  96  98  98  98 101 103 100 102 103  97  92  89  93  91  83  74  57  60  73  81  90 111 118 120 127 131 131 130 129 129 132 132 132 131 135 118  85  83  27  23  24  14  31 222 210 218
  88  89  90  92  91  77  17  28  26  26  26  12 126 173 162 158 154 152 149 130  97  93  72  69  62  57  55  53  54  51  52  46  45  43  40  38  39  45  49  54  59  62  73  82  87  91  94  96  96  94  91  95  95  94  92  87  79  77  72  71  61  43  49  45  37  40  49  72  86  94  98 110 126 132 129 131 131 131 132 132 131 120  73  71  34  19  23  20  14 226 218 218
  85  87  89  88  86  76  26  32  29  29  23  16 151 171 162 158 152 149 145 126 110  89  70  68  64  61  62  64  70  72  72  70  63  57  50  50  52  52  55  57  60  63  72  79  84  88  93  94  96  94  93  94  93  91  86  80  74  69  68  61  47  38  32  35  33  42  45  48  62  66  70  76 100 126 133 132 131 132 132 133 132 130  62  55  37  17  22  19  14 193 223 218
  83  85  85  85  86  75  37  37  32  33  30  20 172 168 163 155 150 150 133 108  93  78  72  68  66  67  69  85  86  86  89  94  93  84  70  59  57  55  55  57  60  65  70  76  84  88  92  96  97  96  96  94  92  89  84  77  70  63  54  47  40  35  34  32  34  35  40  42  51  57  64  64  65 113 133 131 132 131 132 131 132 134  75  42  29  25  22  24  31 139 228 215
  79  79  81  82  84  79  37  36  33  33  26  41 180 166 160 152 147 126 115  99  82  76  72  69  71  76  85  89  90  82  83  83  97  82  75  69  63  58  56  55  57  62  69  76  84  91  95  97  98  99  99  97  92  88  81  74  70  62  55  46  41  38  39  37  35  35  35  40  46  53  59  65  60  78 112 133 130 130 129 128 127 135  78  41  29  24  23  25  24  98 228 213
  77  77  77  78  78  82  40  35  32  31  20  61 186 163 156 151 143 115 103  90  75  74  70  72  74  74  66  56  53  57  56  57  51  57  63  67  65  61  59  56  56  59  66  76  83  94 100 103 104 106 105 101  94  88  81  76  71  66  62  56  47  45  44  40  38  36  39  41  46  52  59  63  66  57  89 119 125 129 128 126 125 132  89  31  27  24  22  23  22  85 226 214
  74  75  75  76  75  76  41  29  30  33  22  93 180 162 155 144 128 108  92  83  76  72  70  70  71  66  65  66  62  60  58  63  68  62  56  49  52  62  59  58  56  56  62  73  85  97 104 111 113 110 112 107  99  92  82  76  70  67  63  61  57  56  57  60  57  54  48  44  47  53  59  62  65  63  72 105 127 126 126 127 125 131  90  29  27  23  21  21  15 106 228 216
  73  73  73  73  74  71  47  23  31  36  20 118 176 162 151 143 120 100  87  81  76  71  68  70  61  77  68  34  34  23  15   9   7  17  30  46  45  37  52  56  57  57  57  68  89 101 112 115 117 118 116 114 101  90  81  75  70  66  63  58  57  58  62  67  71  73  72  68  57  51  60  66  67  67  66  88 121 124 125 126 124 130  79  23  25  22  21  21  12 145 230 220
  70  71  71  70  44  60  49  11  34  39  15 134 175 160 150 136 116  97  85  79  74  69  64  57  63  57  19  38  55  39  26  24  25  29  23  36  43  43  41  50  55  56  56  68  88 104 114 118 122 123 122 113 102  81  76  71  69  65  60  53  53  55  59  63  66  68  70  73  76  75  71  71  72  73  72  86 117 123 125 126 124 133  66  26  22  21  21  21  13 210 227 225
  68  67  60  50 161 193 151  60  32  40  13 148 171 159 152 141 108  96  84  75  70  65  60  55  49  25  37  69  76  35  24  24  24  28  21  66  38  41  43  43  50  55  57  67  81 106 116 119 122 125 125 113  94  73  74  68  62  58  51  50  53  57  64  72  72  72  72  71  72  74  76  78  78  76  71  81 118 123 126 126 124 133  54  19  22  21  22  14  29 247 229 228
  66  66  43 173 185 176 181 129  39  39  16 159 170 161 152 134 110  95  82  75  65  61  55  51  41  31  54  82  85  41  26  24  24  27  17  74  68  36  43  43  48  54  58  65  80 106 125 123 123 125 124 107  89  77  71  63  57  48  48  49  54  61  67  75  77  81  83  80  69  72  76  78  81  83  84  82 114 123 124 126 124 131  36  26  21  21  21  10 122 242 232 233
  64  57  97 158  99 129 142 135  58  32  17 170 170 164 148 134 115  92  82  74  65  59  56  43  39  51  58  68  76  56  29  29  28  19  48  85  72  53  43  43  49  55  62  68  86 117 131 138 130 128 118  98  85  75  66  56  50  46  44  45  48  54  62  65  81  90  84  85  77  55  74  78  81  84  86  82 114 121 126 128 126 126  22  23  22  20  16  13 233 236 233 233
  64  50 134 103  67  66 106 122  85  24  28 175 167 161 150 137 120 101  88  78  69  61  61  71  75  61  60  65  69  73  49  26  29  51  78  72  59  50  49  46  49  58  65  75  83 126 143 147 137 130 118  92  83  73  65  46  48  43  41  42  24  10   6  10  28  43  68  88  88  73  57  77  81  86  86  88 112 121 127 128 126 114  24  26  23  19  11  56 247 232 234 235
  64  51 129  78  68  55  93 116 105  27  41 176 164 159 148 140 126 111  98  87  78  74  79  77  82  67  62  61  63  62  65  57  59  60  61  58  55  53  53  52  54  59  69  70 111 159 182 155 145 132 122  96  82  74  63  49  45  41  46  42  19  24  22  25  22  30  28  34  80  88  61  72  81  87  92  89 113 120 126 129 127  96  23  25  25  21  10 192 239 231 232 233
  61  57 118  71  69  54  89 114 109  36  49 175 162 158 151 140 131 122 115 104  96  84  85  80  75  69  62  59  52  53  52  51  50  48  50  51  52  52  53  55  57  65  71  86 148 194 185 163 148 138 119 100  83  74  57  49  46  47  63  65  22  24  21  25  27  44  73  29  31  75  76  75  79  88  93  98 113 121 126 128 143  67  21  25  24  21  40 228 235 231 233 233
  58  57 117  69  66  80  97 101 111  36  66 172 162 158 153 142 140 141 142 132 110  98  89  84  77  69  61  57  54  51  48  48  47  48  48  49  51  54  56  60  64  74  77 130 169 200 186 172 156 150 131 103  85  74  51  51  51  53  68  75  25  25  23  24  22  55 115  79  24  38  71  74  79  89  97 104 112 120 124 129 145  40  21  25  28  12 132 232 226 231 233 235
  58  59 113  64  69 117 104  91  97  35  84 172 160 157 155 151 150 152 156 151 143 125  94  79  78  64  61  58  55  53  52  50  50  52  53  54  55  56  61  60  82  85  94 161 173 189 190 180 161 155 141 105  91  70  65  60  56  58  62  71  41  28  29  27  31  85 111  96  29  35  61  73  81  88  98 103 115 118 126 134 138  20  32  26  23  14 203 229 223 226 232 234
  53  77 111  67  59 134 107  97  82  30 113 167 160 157 154 155 158 159 165 171 169 157 135 114 104  85  74  70  59  59  58  57  57  58  59  59  60  62  70  83  89  78 127 162 191 189 182 173 166 158 142 112  97  77  69  59  58  57  59  61  60  38  28  37  72  97 109  84  57  51  54  71  81  88  99 109 116 124 127 137 122  23  27  26  10  37 217 212 215 218 218 220
  26 124 109  63  80 133 113 102  77  23 130 158 159 158 156 158 163 170 182 190 202 190 167 145 121 100  91  74  75  72  69  66  63  62  63  64  64  67  83  89  94 108 140 158 173 176 176 161 150 147 132 112 105  90  72  61  57  54  53  54  56  59  61  73  82  81  76  74  69  67  65  74  83  92 102 111 118 124 129 140 109  16  28  21  11 164 204 186 189 201 204 210
  23 143  99  50 127 120  97  90  71  28 133 158 159 159 157 157 171 176 181 185 191 199 187 170 151 125 112  97  88  79  75  72  69  67  67  59  75  90  93  94  96 129 149 160 172 172 172 161 152 147 126 120 108  97  79  68  61  57  53  53  51  53  56  59  64  70  70  72  73  77  77  81  85  97 107 115 120 126 129 148  93  13  28  12  16 230 226 238 240 242 244 244
  29 120  91  58 152 100  74  62  63  35 133 160 158 159 160 165 171 174 177 181 185 192 190 181 162 146 117 106  91  84  79  77  74  70  64  82  93  96  99 103 125 144 161 167 172 178 172 161 151 142 135 122 114 105 100  76  68  63  58  56  54  54  56  60  63  67  70  73  80  85  92  91  92 104 109 116 123 128 128 154  72  21  25  14 132 250 246 244 243 243 243 243
  38 102  93 111 143  74  69  61  60  31 148 159 157 159 161 165 167 169 169 169 173 182 188 183 166 150 133 113  89  89  85  82  82  86  93  94  97 100 108 114 142 161 174 186 194 188 177 157 153 143 137 128 117 113 107  86  76  70  66  64  61  57  58  60  64  67  72  74  85  89  94  96 100 109 112 120 124 130 136 162  46  35  16  63 239 246 243 244 243 243 245 245
  41  84  98 141 133  72  54  62  67  37 148 158 158 158 161 162 163 163 160 153 156 161 164 160 159 146 138 116 105  87  85  92  95  99  99 102 105 110 115 140 164 177 183 188 199 194 182 164 158 148 142 130 120 114 113  98  79  74  71  71  71  65  62  59  66  71  69  81  89  93  98 105 108 114 115 120 124 130 137 155  35  36  12 192 245 243 244 243 245 245 245 245
  48  66 105 157 127  76  43 114  76  39 150 158 158 158 158 156 152 149 145 146 144 136 136 137 143 138 131 122 123 118 113 112 112 109 109 112 110 112 139 155 181 182 185 189 194 198 187 175 163 155 142 140 124 119 114 109 107  84  75  75  75  79  77  78  83  82  77  91  97 102 102 110 114 118 120 122 126 131 133 158  22  41  18 160 228 245 244 244 245 245 245 245
  51  52 115 163 130  68  40 128  66  48 149 155 158 160 158 153 146 133 137 127 123 120 116 117 117 129 136 151 149 136 133 130 121 118 116 115 112 126 146 165 180 180 183 187 194 195 183 172 164 156 152 143 130 120 117 115 111 101  88  77  79  82  85  87  92  95  97  97 105 106 111 114 118 120 122 124 127 131 133 148  19  43  67 119 140 226 247 244 245 245 245 245
  52  36 114 171 134  74  40 129  40  67 140 157 157 157 153 153 136 136 133 130 129 126 128 132 140 149 154 156 154 146 140 133 127 123 116 114 115 127 153 168 174 179 182 183 191 189 173 166 160 157 154 144 133 121 119 117 117 111 102  94  87  87  88  95  98  99 103 105 102 114 118 120 123 124 125 126 130 131 133 143  17  86  99 108 102 139 250 244 245 245 245 245
  52  28 116 163 131  96  47 118  44  87 130 153 155 155 152 144 139 134 133 133 132 135 142 152 156 155 156 156 154 148 144 138 132 126 111 108 101 142 163 172 177 179 179 182 186 183 172 168 161 155 153 142 136 123 119 118 118 117 115 103  93  88  98  99 100 105 109 112 115 117 124 127 128 129 126 126 130 132 137 125  20 102 100  69  48  79 249 245 245 245 245 245
  52  34 114 149 152 144  87  71  50  81 124 153 152 153 150 145 137 133 134 137 143 148 148 150 153 155 158 157 153 148 145 138 128 116 105  97 105 162 184 182 177 175 173 171 168 166 173 160 156 151 151 144 135 123 118 117 118 122 123 120 110 105 104 103 106 110 114 118 119 127 129 132 131 130 129 129 130 131 141  98  37  98  78  70  43  71 244 246 245 245 245 245
  51  35 112 147 136 192 216 140  37  91 123 152 152 152 149 140 135 133 135 139 142 145 146 149 152 154 155 153 156 150 139 133 114 107  94  64 145 176 179 178 172 177 174 163 157 151 140 146 148 145 147 144 133 122 115 113 118 121 124 121 117 114 111 111 112 113 118 124 129 129 131 132 134 129 128 129 130 131 140  82  50  93  79  74  43  65 241 247 245 245 245 245
  50  38 104 141 117 199 222 143  40  91 116 148 148 150 146 139 135 135 137 141 141 143 144 147 149 150 150 148 139 135 122 113 107  94  80  65 173 177 177 170 163 159 155 151 143 136 128 131 137 137 139 141 137 128 109 111 113 118 122 124 125 124 119 116 115 115 120 126 128 129 130 131 132 130 126 128 130 132 139  65  48  98  79  72  54  62 244 246 245 245 245 245
  51  37 103 163 142 194 190 128  58  75 103 143 145 143 138 137 135 136 138 142 144 145 146 146 145 146 142 133 121 114 110 100  96  90  68 104 172 153 150 142 135 138 134 134 130 123 117 115 121 128 131 135 133 132 111 101 107 114 119 124 127 126 125 123 119 116 115 126 126 127 127 128 130 129 121 127 131 132 144  32  66 103  80  72  50  70 249 245 245 245 245 245
  51  36 102 170 186 180 147 117  62  75 105 135 141 137 135 134 135 135 135 138 141 142 143 140 143 130 128 127 119 111 103  91  87  79  67 132 138 126 112 108 106 103 107 109  97 103 106 109 110 117 122 125 125 125 141  85 101 111 116 122 126 128 129 129 127 122 121 120 124 125 125 126 127 128 118 126 130 129 138  28  71  98  81  76  57  79 250 245 245 245 245 245
  50  34  92 203 208 186 155 106  66  86  98 127 134 135 130 132 133 134 135 135 136 138 133 133 132 129 127 119 112 102  93  89  84  79  61 121 110  96  89  85  82  87  94  93 100  96  97 103 106 114 116 116 114 118 135 106  95 104 115 119 125 128 128 130 131 128 126 124 126 126 125 125 125 127 126 125 130 130 123  21  82  92  82  77  52 146 250 245 245 245 245 245
  50  34 103 217 204 165 146  92  73  87 102 113 134 128 128 130 134 133 131 132 131 131 131 129 126 121 118 109 103  97  89  84  79  77  71  68  86  79  64  48  51  63  81  81  82  88  86  83  90  98  99  98 105 115 120 113  92  98 110 118 123 127 128 130 130 131 131 128 128 127 125 125 125 125 124 126 127 127 118  18  82  90  83  71  54 230 247 245 245 245 245 245
  51  34 128 205 178 142 139 108  73  88  92 106 121 123 122 126 130 130 129 128 129 129 128 123 119 115 107  97  91  88  85  82  79  78  75  74  65  56  52  38  15  18  69  74  74  76  80  83  86  88  90  89  86 109 109 112  87  97 109 115 120 127 129 131 130 131 132 132 131 130 127 125 125 124 122 122 125 129 103  16  87  95  84  65  67 250 244 245 245 245 245 245
  50  33 116 182 164 132 155  96  89  80  87  98 113 116 118 123 126 127 126 126 128 127 121 117 112 110 101  94  90  85  83  82  82  82  77  59  62  55  49  47  35  30  42  68  68  70  72  76  80  85  68  37  69  82 105  98  88  93 105 111 118 125 127 128 129 131 133 133 131 130 130 127 125 125 123 122 122 131  86  19  86  98  83  65 137 250 245 245 245 245 245 245
  51  40  75 175 141 134 139  91  83  84  77  91 108 113 113 116 123 123 123 123 124 121 119 114 107 103  94  90  87  83  81  82  83  90 103 103  76  46  52  52  54  47  41  54  61  60  66  71  74  54  25  32  55  74  96  92  87  92 102 111 115 121 125 128 129 131 133 132 129 129 129 127 125 125 124 122 121 127  74  18 101  95  82  74 221 247 245 245 245 245 245 245
  49  48  43 128 120 116 125  68  77  80  75  92 101 106 101 107 115 115 113 121 121 117 115 109  94  91  91  89  85  84  83  81  96 107 116 131 107  60  56  55  54  51  49  52  55  58  61  63  58  54  53  50  47  72  87  90  89  93  99 107 113 117 123 125 128 132 132 130 128 126 127 125 124 122 123 122 119 120  45  20 112  90  69 135 250 244 245 245 245 245 245 245
  49  49  31  80 104 103  97  79  76  77  76  87  89  99  92 100 114 108 109 114 116 113 111 103  96  89  87  85  85  87  92 111 116 124 133 129 101  67  54  54  50  50  48  50  51  54  57  60  62  63  62  58  60  77  89  92  95  96 104 107 112 116 121 123 125 128 131 129 129 128 127 125 123 121 121 121 118 112  42  22 127 105  87 232 246 245 245 245 245 245 245 245
  47  48  46  38  76  94  85  75  76  73  76  78  80  89  74  91 103 103 103 108 109 107 100  93  88  85  82  82  83  90 107 113 120 129 131 119  93  65  51  45  42  41  42  48  49  48  47  51  58  66  68  63  67  85  95  96  97  97 101 107 109 115 118 121 125 128 120 126 128 127 127 125 124 121 119 116 110  91  33  32 125  96 182 250 244 245 245 245 245 245 245 245
  48  48  47  47  33  37  63  68  72  75  73  76  81  86  63  79  88  89  95 102  99 100  97  90  83  81  79  79  84  97 100 115 124 133 117 107  77  60  46  38  35  35  39  44  44  41  41  40  47  66  71  82  91  94 100 100  99  99 101 105 108 112 116 119 123 125 124 127 128 128 126 123 122 119 116 109 105  80  33  44 127 117 250 245 245 245 245 245 245 245 245 245
  47  48  47  46  47  47  45  64  71  73  75  75  75  75  67  75  76  77  94  91  95  96  92  85  81  76  74  78  86  96  99 102 110 105 100  85  70  59  38  36  33  32  37  42  40  37  37  39  41  52  70  81  90  99 104 103 101 100 101 105 108 111 116 118 122 125 126 127 127 128 126 124 120 115 110  95  97  66  29  93 117 208 248 245 245 245 245 245 245 245 245 245
  48  47  46  46  46  46  43  63  70  75  77  72  70  70  69  72  75  73  72  86  90  91  89  81  77  74  71  75  83  83  77  79  87  88  71  67  54  48  38  34  33  33  37  40  39  36  36  39  40  42  62  79  89 101 104 105 104 100 101 104 107 111 113 116 120 122 124 125 126 127 125 123 115 113 101  93  85  66  23 128  88 245 244 245 245 245 245 245 245 245 245 245
  47  47  46  46  44  45  48  57  66  73  76  71  69  66  68  70  70  64  55  75  82  84  84  80  75  67  67  71  65  61  67  68  78  70  51  48  55  42  38  36  35  36  37  39  39  37  36  39  37  39  52  59  80  97 101 104 104  99 101 102 108 110 113 116 120 122 123 124 124 124 123 118 112 106  98  82  77  58  18 143 102 250 245 245 245 245 245 245 245 245 245 245
  48  47  46  46  46  45  48  56  64  68  73  71  65  62  65  67  67  57  57  71  78  82  81  78  75  60  61  60  56  54  45  50  51  50  48  51  53  35  36  32  38  31  40  40  41  41  41  41  39  41  46  41  78  86  95  99 100  97  97  99 103 110 112 117 118 121 122 122 121 121 117 115 105 102  90  80  71  53  18 151 146 249 245 245 245 245 245 245 245 245 245 245
  49  48  46  46  45  44  47  52  61  60  61  64  62  58  60  64  63  59  59  66  73  78  77  75  68  61  57  45  40  26  29  30  43  53  55  55  57  58  59  67  68  57  46  44  39  37  42  46  44  43  43  43  63  73  85  88  91  93  94  93 100 109 112 114 117 118 118 119 116 118 115 110 108  92  81  66  62  54  19 154 175 248 245 245 245 245 245 245 245 245 245 245
  49  46  46  45  44  43  44  49  61  59  58  60  60  56  57  60  60  57  54  61  67  75  76  74  69  60  49  37  33  31  31  37  44  53  57  55  54  54  56  59  68  77  85  83  84  78  74  62  53  45  45  49  52  58  68  66  78  83  90  91  97 107 110 113 114 115 116 116 113 108  95  94  95  84  75  64  58  52  31 150 160 248 245 245 245 245 245 245 245 245 245 245
  49  47  46  46  44  43  44  44  63  63  59  60  60  56  56  55  53  52  52  53  62  73  75  76  72  59  43  38  34  30  29  33  45  48  49  49  49  50  52  55  57  64  75  75  75  74  70  68  65  67  57  51  52  51  48  53  64  74  83  85  93 104 107 111 113 114 113 115 105  98  95  86  64  76  75  60  54  50  47 134 188 247 245 245 245 245 245 245 245 245 245 245
  47  45  46  45  45  44  44  45  61  62  60  60  60  58  54  52  50  48  47  51  60  67  71  74  74  60  47  41  38  33  30  27  38  40  45  45  46  46  47  50  51  56  52  59  56  56  57  60  60  62  65  58  54  47  43  41  52  58  82  82  85 102 107 109 110 110 110 103  99  94  92  78  75  73  70  58  55  41  58 109 237 247 245 245 245 245 245 245 245 245 245 245
  49  46  47  46  44  43  44  46  57  58  58  58  60  56  53  51  48  47  48  49  58  64  70  74  73  62  54  48  44  37  37  39  41  35  37  46  51  48  35  37  40  51  55  59  61  62  60  59  58  57  60  59  55  48  40  38  39  43  56  76  79  98 102 106 107 107 106  95  92  91  89  81  75  70  64  60  57  40  58 160 250 248 248 249 248 249 249 249 249 249 248 248
  48  48  45  44  44  44  44  47  54  56  55  57  59  57  53  51  48  47  47  50  57  64  70  74  73  67  59  56  52  58  60  65  72  76  74  72  75  83  84  79  74  67  57  51  50  57  43  45  46  49  50  52  54  49  39  36  38  35  46  74  76  93 102 106 108 102  98  91  84  86  89  81  75  68  60  56  55  52 138 213 223 225 220 216 212 205 205 200 199 188 187 183
  49  47  47  45  45  45  44  46  51  55  54  53  55  57  53  49  47  45  46  51  57  64  70  74  71  65  63  64  74  71  77  80  83  85  89  97  86  85  84  86  88  93  94  94  92  78  75  64  58  45  39  36  35  43  36  35  37  39  37  61  79  89 106 105 106  98  93  87  75  76  79  77  65  63  57  47  46  69 158 176 173 171 174 175 177 182 181 183 184 183 183 185
  48  48  47  46  46  45  45  46  51  55  52  52  53  54  53  50  47  45  45  50  58  64  70  72  69  64  64  70  76  79  81  84  84  87  89  87  86  85  84  86  88  90  91  91  93  95  98  93  91  90  79  57  37  17  26  28  35  38  34  61  80  90 101 101  99  89  86  83  68  70  58  65  55  52  50  44  28 103 170 176 182 183 184 184 184 183 183 185 185 184 184 185
  49  49  49  47  46  45  46  47  51  55  54  51  50  51  50  51  46  42  43  47  57  64  67  68  67  64  64  72  79  82  85  87  87  86  86  81  80  80  78  77  79  84  89  92  95  96  94  97  95  92  92  80  69  59  41  36  38  41  48  66  81  90  99  99  95  87  69  66  64  64  57  55  57  52  46  43  12 143 173 177 181 180 181 181 181 182 182 181 181 182 183 182
  50  51  49  49  48  48  47  47  51  52  52  50  46  46  47  46  43  41  43  48  54  62  65  68  68  66  68  73  81  85  86  87  87  84  81  74  71  69  64  63  68  70  74  75  79  84  92  93  93  95  98  97  94  77  62  48  45  47  58  72  87  94  98  98  91  87  52  50  58  58  54  50  51  52  42  42  21 154 172 177 180 180 180 180 181 181 182 180 180 181 181 182
  53  52  51  51  51  51  47  47  47  67  58  51  45  43  43  43  41  41  44  48  54  63  65  69  67  66  68  67  82  84  85  85  83  82  75  71  63  51  49  58  47  55  55  58  61  67  72  77  85  91  94  94  93  88  79  68  59  59  66  78  87  96  97  94  86  77  59  51  52  54  50  50  48  46  42  28  29 168 173 175 177 177 177 177 177 178 177 178 178 177 178 177
  54  53  53  51  51  50  47  48  44  67  91  43  46  42  41  40  40  41  43  47  51  59  65  66  66  62  67  74  81  83  82  82  77  76  74  70  62  54  49  45  43  38  44  43  43  56  59  68  78  87  90  92  93  90  87  77  70  66  71  82  87  95  95  93  85  67  56  49  48  47  47  47  46  43  39  16  77 176 172 171 172 173 172 173 170 170 170 170 169 170 169 169
  44  49  44  52  51  51  49  47  48  53 114  62  43  42  40  40  40  40  42  45  50  57  61  63  63  62  66  80  81  82  81  79  78  76  75  68  62  56  48  44  42  40  41  43  44  48  56  64  75  83  88  92  94  92  91  87  76  73  74  80  86  94  93  90  75  64  50  46  45  43  42  41  41  40  39  14 122 163 162 161 163 165 164 166 166 166 166 166 166 166 166 166
  69  34  28  34  43  53  52  50  50  35 119  81  33  41  39  39  38  38  40  44  50  55  56  58  62  63  69  77  80  81  80  80  79  78  76  71  67  56  46  39  42  43  42  43  45  50  56  65  74  82  87  91  93  94  92  88  81  79  77  79  86  90  91  83  70  61  50  43  41  40  37  33  34  38  32  46 160 158 163 164 165 165 166 166 167 167 165 165 166 166 166 166
 203 187 150  72  31  24  49  52  52  19 132  89  46  38  38  38  39  38  39  42  48  52  53  56  59  63  68  75  78  80  82  85  86  82  77  80  81  78  79  72  63  53  45  40  42  50  62  70  76  81  87  90  91  92  92  89  84  80  78  79  83  87  88  87  72  61  52  47  42  41  40  36  34  35  22 113 162 162 164 164 165 165 165 166 167 167 166 167 166 166 165 166
 184 189 203 201 180 115  42  23  36  18 134 102  69  37  39  38  37  36  37  40  43  48  51  52  57  61  64  61  75  81  85  89  93  93  97  96  98  97  94  90  79  71  66  68  70  65  62  74  79  87  87  89  91  90  90  87  84  82  80  82  83  86  87  82  71  60  53  48  44  41  40  39  37  34  36 148 162 162 164 164 165 165 165 166 166 166 166 166 166 166 166 166
 183 182 184 185 194 203 191 153  99  60 122 107  84  50  40  38  36  34  36  38  40  46  47  49  55  59  61  61  71  78  87  92  97 104 108 112 107 102  93  88  84  82  85  92  97  89  82  81  84  87  89  88  90  88  86  83  81  80  80  82  83  83  82  80  67  58  51  47  42  41  41  39  39  26  84 165 161 163 164 166 166 166 166 166 167 166 166 166 166 166 166 166
 176 178 180 180 182 183 184 193 190 180 147 117  90  64  37  39  36  33  34  36  38  42  44  45  46  50  56  61  70  80  81 101 102 109 111 113 116 108  94  90  88  85  88  90 105 107  98  88  86  88  88  88  87  86  85  80  76  75  78  79  80  80  77  72  65  51  43  41  40  38  36  36  36  26 117 166 161 164 164 164 164 165 164 164 166 166 166 166 166 166 165 165
 171 173 173 175 177 179 180 179 181 190 156 123  89  75  52  40  37  33  29  32  37  38  37  35  39  45  53  60  66  75  84  98 104 109 110 111 112 102  93  89  88  85  85  86 105 109 106 104  94  93  91  91  88  85  80  76  75  75  74  75  76  75  74  57  46  42  37  35  33  32  33  37  21  33 152 162 161 162 163 164 163 164 164 165 165 164 164 165 165 165 166 165
 163 165 169 169 173 174 174 176 177 181 163 128  95  81  69  40  40  33  28  31  35  36  34  34  38  44  51  55  62  72  83  91 100 106 106 104 104  97  86  86  86  81  84  86 101 109 110 109 102  99  96  94  92  86  82  77  74  70  71  71  72  72  70  52  44  34  29  28  28  28  32  30  30 139 166 159 162 163 162 164 164 164 164 164 164 164 164 164 163 163 164 164
 145 146 154 160 165 168 171 173 172 175 162 135 103  91  74  46  37  34  31  30  31  31  30  32  37  41  46  50  55  61  62  77  87  87  84  85  72  71  75  81  75  74  83  89 100 101 108 110 109 104 101  94  92  87  80  75  71  66  64  65  68  67  57  46  38  31  26  24  24  25  27  26  97 161 158 160 161 162 163 162 162 162 162 163 163 163 163 164 164 163 163 165
 147 148 145 148 141 137 141 149 181 191 167 127 112  92  71  58  40  34  30  28  28  28  27  31  34  39  41  44  47  54  59  61  61  66  74  73  68  57  57  60  68  64  68  74  80  92  98 105 106 105 100  95  91  84  80  72  67  62  57  57  59  56  51  44  33  28  22  21  23  25  23  33 141 159 159 160 160 162 161 162 162 162 162 162 162 162 162 162 162 162 161 160
 146 147 148 125 117 199 242 249 210 181 143 133 110  86  71  64  45  35  30  26  26  27  26  27  31  35  37  39  39  44  50  51  51  59  60  58  55  49  49  50  50  47  55  63  72  79  83  86  91  93  92  88  85  78  69  70  62  58  50  48  48  49  48  43  35  26  22  19  23  26  38  70 154 160 159 159 159 159 160 160 160 161 161 160 160 160 160 160 160 161 160 160
 149 135 128 209 250 230 180 168 102  51 112 137 113  87  73  66  49  39  30  26  25  26  26  27  29  32  34  36  37  39  42  44  46  49  47  42  41  42  42  42  43  45  50  57  61  63  72  70  73  79  80  78  74  70  60  52  53  52  46  43  42  42  42  41  32  26  23  22  23  35  64 108 157 154 157 158 158 157 157 158 159 159 159 159 159 158 158 158 158 159 158 159
 140 154 244 243 226 178  86  31  19  15 113 131 114  92  75  64  52  42  30  26  26  23  23  28  30  32  32  32  33  35  36  33  35  36  36  38  38  35  35  36  37  40  42  49  51  50  56  60  58  63  67  67  66  61  55  45  42  37  37  36  35  34  35  32  28  25  23  24  39  58  65 131 153 152 153 154 154 153 154 155 153 153 155 154 154 158 154 157 158 160 161 157
 178 249 246 243 174  72  24  17  12   8 118 124 111  92  77  66  53  44  27  28  25  23  22  23  29  29  29  28  26  25  27  26  28  27  26  28  31  29  28  30  33  35  37  41  40  40  45  49  53  54  54  54  57  53  50  45  37  31  28  28  28  27  25  22  23  23  20  40  59  63  68 142 154 152 151 148 147 150 148 149 147 144 140 137 135 135 134 128 118 123 123 118
 249 246 230 200  68  34  23  17  19   8 128 118 112  92  76  66  57  46  38  29  23  21  20  21  21  24  24  23  21  22  21  21  22  21  20  21  25  24  23  22  26  29  33  36  33  34  32  35  45  45  48  48  50  45  37  41  32  26  24  23  24  23  20  20  20  23  29  51  62  73  90 114  82  84  80  81  85  80  80  80  82  89  96 107 100 101  98  98 108 102 108 115
 242 246 219  90  26  27  17  17  16   8 139 120 108  93  65  65  58  48  39  30  24  20  18  18  19  20  21  19  19  19  18  17  16  16  16  16  18  20  18  17  19  22  25  25  20  24  27  28  28  34  34  39  42  41  39  34  28  25  23  22  21  19  19  19  22  15  47  58  71  72  99 115 125 121 126 122 122 124 126 131 130 130 128 125 126 128 131 130 132 131 131 130
