P2
92 112
255
 245 245 245 245 245 245 245 245 245 245 245 245 245 245 245 245 245 245 245 245 244 242 203 148 108 102  91 101  94  86  73  76  73  68  40  47  81  75  56  42  39  35  42  50  57  57  53  52  62  41  40  42  45  49  51  51  54  59  56  52  98 111  67  60  58  54  22  33  97 219 249 247 244 245 245 245 245 245 245 245 245 245 245 245 245 245 245 245 245 245 245 245
 245 245 245 245 245 245 245 245 245 245 245 245 245 245 245 245 245 245 245 245 249 202 144 107 108  74  76  83  75  72  68  54  45  57  45  62  55  44  42  37  37  37  40  44  49  48  41  47  41  36  33  36  42  44  48  59  68  66  72  74  58  84 102  69  66  64  84  63  66 127 168 221 247 247 245 244 245 245 245 245 245 245 245 245 245 245 245 245 245 245 245 245
 245 245 245 245 245 245 245 245 245 245 245 245 245 245 245 245 245 244 244 248 246 152 104  81  72  72  67  44  58  68  52  50  49  48  49  42  33  32  31  33  35  37  39  42  43  39  38  34  27  30  30  30  32  37  34  39  47  45  38  36  43  58  75  93  76  67  82  77  70  49 116 172 214 238 249 245 244 245 245 245 245 245 245 245 245 245 245 245 245 245 245 245
 245 245 245 245 245 245 245 245 245 245 245 245 245 245 245 245 245 244 246 236 124  40  43  49  54  47  45  54  56  51  50  50  49  46  44  41  38  34  31  31  32  36  40  40  37  35  31  27  26  26  26  27  28  26  26  24  37  47  49  46  41  29  28  53  64  72  78  87  83  74  54  41  92 135 221 247 244 245 245 245 245 245 245 245 245 245 245 245 245 245 245 245
 245 245 245 245 245 245 245 245 245 245 245 245 245 245 245 245 245 249 219 127  52  48  50  55  55  53  57  52  57  56  55  52  47  44  42  40  37  35  33  33  34  36  37  36  33  32  27  26  26  26  25  26  26  24  22  22  20  25  51  49  48  43  41  36  28  49  56 100 100  95 105  91  81  85 143 243 245 245 245 245 245 245 245 245 245 245 245 245 245 245 245 245
 245 245 245 245 245 245 245 245 245 245 245 245 245 245 245 245 248 218 118  61  48  43  50  52  54  54  64  63  54  53  60  56  51  48  46  44  39  38  36  36  36  36  35  34  33  31  31  29  29  28  27  26  25  23  21  21  21  22  19  55  46  44  41  40  40  41  46  56  62  71 103  60  52  55  91 177 247 245 245 245 245 245 245 245 245 245 245 245 245 245 245 245
 245 245 245 245 245 245 245 245 245 245 245 245 245 245 244 246 222 163 107  51  40  48  52  52  49  60  68  85  89  84  58  56  53  56  54  48  44  40  37  36  33  34  32  34  36  38  37  34  32  33  34  30  28  26  23  20  21  21  18  26  43  42  40  40  37  43  47  59  54  57  80  68  45  51  56 165 236 245 245 245 245 245 245 245 245 245 245 245 245 245 245 245
 245 245 245 245 245 245 245 245 245 245 245 245 245 245 247 240 129 117  84  57  51  54  55  56  45  90  98 100  98  88  82  81  76  68  52  49  45  40  46  43  38  31  28  28  37  47  43  37  37  41  41  38  34  29  26  23  23  22  22  13  35  40  40  35  32  31  39  39  51  55 102 123  55  63  91  58 204 248 245 245 245 245 245 245 245 245 245 245 245 245 245 245
 245 245 245 245 245 245 245 245 245 245 245 245 245 245 245 144 138  63  51  55  46  56  53  47  99 112 110 108 119 115 120 113  99  93  77  61  66  66  61  59  59  50  55  60  62  57  54  50  49  42  54  52  44  43  39  32  23  17   8  24  27  40  39  35  31  32  34  41  49  54  55  51  64  72 100  93  32 229 247 244 245 245 245 245 245 245 245 245 245 245 245 245
 245 245 245 245 245 245 245 245 245 245 245 245 245 248 170 121 146  49  51  68  87  71  62 115 128 121 132 142 153 155 145 146 138 124 112 108 104 102  93  81  78  83  82  81  89  88  73  76  75  79  64  54  65  64  57  67  60  57  49  37  31  37  40  36  32  31  33  38  44  47  54  72  81  57  43  99  60  75 250 243 244 245 245 245 245 245 245 245 245 245 245 245
 245 245 245 245 245 245 245 245 245 245 245 245 248 225 123 137 106  40  70 108  76  85 154 136 140 164 173 182 179 174 170 175 171 158 156 142 134 128 124 125 126 118 122 128 124 116 124 134 124 119 127 109 103 110 117 101 106  96  73  59  47  41  40  39  34  31  32  38  42  45  43  47  71 120 100  36 175 114 193 246 244 245 245 245 245 245 245 245 245 245 245 245
 245 245 245 245 245 245 245 245 245 245 244 244 249 120 111 130  77  55  96 115 129 151 148 165 192 193 192 195 200 199 196 201 192 175 166 159 154 155 152 148 147 148 144 144 146 148 149 144 141 142 138 136 141 141 140 133 129 119 105  81  65  51  40  37  38  36  38  40  43  45  45  46  53  72  93  70 143 196 181 249 244 245 245 245 245 245 245 245 245 245 245 245
 245 245 245 245 245 245 245 245 245 245 244 246 222  74 100 119  71  77 132 172 166 170 194 210 210 211 208 208 203 203 199 198 194 189 178 173 169 161 157 150 152 154 152 152 154 153 152 157 157 155 152 156 160 152 153 153 147 147 132 111  82  56  42  38  40  42  43  44  46  45  43  49  40  32  42  54  43 146 167 245 245 245 245 245 245 245 245 245 245 245 245 245
 245 245 245 245 245 245 245 245 245 245 245 247 145 112 115 121  80 113 161 163 187 206 210 212 212 211 209 205 204 203 202 199 197 192 188 171 168 165 164 165 163 158 157 156 158 158 159 159 159 160 161 160 162 163 158 156 157 154 149 146 117  97  46  41  49  62  71  46  40  40  49  35  43  38  34  36  50  52 126 247 244 245 245 245 245 245 245 245 245 245 245 245
 245 245 245 245 245 245 245 245 245 245 250 190 126 123  95 102 101 141 164 190 212 216 214 212 212 210 208 205 203 202 200 199 197 196 192 183 172 169 167 166 165 163 161 160 161 162 161 162 162 162 163 163 163 163 162 161 160 161 160 159 153 137 105  57  50  68  64 118 133 130 129 120  80  38  43  41  30  42  61 250 245 245 245 245 245 245 245 245 245 245 245 245
 245 245 245 245 245 245 245 244 244 246 195 119 109 113  62  63 105 159 200 213 212 215 214 211 210 207 203 199 197 194 193 197 191 194 190 182 178 171 169 167 166 164 162 162 162 163 162 162 162 164 164 164 162 164 166 165 164 165 166 165 166 166 151 131 103 104 144 167 173 169 165 158 130  86  36  42  42  32  30 234 246 245 245 245 245 245 245 245 245 245 245 245
 245 245 245 245 245 245 245 244 245 219 138 108  96  76  59  65  91 174 216 214 213 213 211 204 200 197 193 196 187 184 185 184 182 185 184 180 174 172 166 164 162 162 161 162 163 161 160 161 161 162 164 162 162 163 163 165 166 166 166 166 167 168 173 173 170 171 176 173 178 182 176 177 158 120  60  50  46  38  20 157 249 244 245 245 245 245 245 245 245 245 245 245
 245 245 245 245 245 245 245 245 235 153 106 104  87  56  61  82  83 194 220 214 216 214 205 197 189 187 182 177 178 175 177 179 182 177 176 172 172 167 163 161 161 159 159 160 161 161 160 161 161 161 162 161 160 160 161 160 163 166 167 167 168 168 169 171 173 176 175 179 183 183 184 179 170 153 117  43  55  34  34  28 233 248 245 245 245 245 245 245 245 245 245 245
 245 245 245 245 245 245 244 250 178  88  82  78  64  51  72  76  96 198 212 210 214 213 199 187 180 171 162 165 154 160 163 164 164 163 159 154 148 155 156 159 159 157 156 157 158 159 160 160 161 161 161 160 161 159 160 159 160 163 166 166 168 168 169 169 169 172 174 178 182 185 185 183 174 164 146  73  37  45  38  19  91 250 244 244 245 245 245 245 245 245 245 245
 245 245 245 245 245 244 245 240  89  73  62  58  47  58  84  67 129 203 201 208 213 205 193 179 173 162 163 156 155 156 152 155 151 141 136 144 149 151 152 153 156 156 155 156 158 157 158 160 161 162 161 160 159 159 160 159 159 161 162 164 166 167 168 168 169 170 173 175 178 183 185 182 181 171 152  95  37  45  41  34  15 188 250 244 245 245 245 245 245 245 245 245
 245 245 245 245 245 244 247 160  84  80  63  58  56  63  85  68 160 201 203 207 207 199 186 176 172 162 154 143 150 149 148 147 145 144 143 142 144 143 145 151 152 153 153 153 155 158 157 158 158 159 159 159 159 159 159 159 159 160 161 162 163 164 165 167 167 168 170 173 175 180 183 184 180 177 133 134  71  36  42  40  28  61 245 245 245 245 245 245 245 245 245 245
 245 245 245 245 245 245 241  97  69  82  59  59  58  65  80 111 177 206 204 206 201 192 182 175 167 158 151 148 145 145 145 143 143 141 140 140 140 149 147 149 151 152 154 154 155 156 156 156 155 156 157 156 157 157 156 157 157 157 157 159 160 162 164 164 165 166 168 170 173 176 180 183 183 182 134 163 103  37  42  41  42  22 212 247 245 245 245 245 245 245 245 245
 245 245 245 245 245 247 182  79  80  72  55  56  54  64  85 148 192 208 203 201 200 190 181 173 163 159 152 149 147 145 144 143 142 142 141 141 141 140 145 148 149 150 152 154 155 155 156 156 156 155 155 155 154 156 157 158 155 155 156 157 158 159 161 161 163 165 166 168 170 172 177 179 180 184 158 155 140  61  39  43  44  34 115 249 245 245 245 245 245 245 245 245
 245 245 245 245 245 248 140  82  66  56  53  54  54  48 118 165 206 203 199 199 192 186 174 169 164 159 155 154 151 150 147 147 145 145 143 143 143 144 146 148 149 151 152 152 154 156 158 157 157 156 155 154 155 156 155 153 153 155 155 156 157 159 159 159 160 163 165 167 167 170 174 176 178 181 175 159 146 103  39  48  44  37  38 242 244 245 245 245 245 245 245 245
 245 245 245 245 246 219  95  85  56  56  54  55  53  83 139 185 204 200 198 194 190 178 173 169 165 163 161 153 156 155 152 150 146 148 145 147 146 149 149 153 152 152 152 154 155 156 156 156 157 156 156 155 155 155 154 151 151 153 154 156 157 158 158 157 158 159 161 163 165 167 170 171 175 182 183 175 165 144  65  37  48  40  26 202 248 245 245 245 245 245 245 245
 245 245 245 245 250 170  64  50  62  54  51  55  54  90 158 205 202 201 196 189 184 175 169 166 166 165 165 163 164 156 158 154 160 156 155 157 156 155 161 159 159 158 157 157 157 158 157 157 157 157 157 157 157 156 156 154 153 154 156 157 156 158 159 159 159 158 157 159 162 165 168 171 173 178 180 178 166 176 121  42  47  50  20 110 250 244 245 245 245 245 245 245
 245 245 245 245 249 119  56  64  57  53  53  55  59 112 185 206 200 198 192 183 174 167 164 163 163 162 164 166 168 170 164 154 158 168 169 167 169 170 165 168 169 162 160 159 159 158 158 158 157 157 157 157 157 158 158 158 158 156 157 158 158 159 160 161 160 160 160 160 160 160 167 169 172 176 179 178 173 173 152  62  42  50  31  44 250 244 245 245 245 245 245 245
 245 245 245 244 240  85  53  64  54  52  55  58  67 128 191 195 196 193 188 172 167 165 161 159 159 161 163 166 168 171 172 172 175 180 176 180 181 182 178 182 171 166 162 159 159 159 159 159 157 157 157 157 158 158 160 161 161 161 161 161 161 161 162 162 162 163 161 161 161 162 165 167 170 175 178 178 176 171 163 116  31  50  36  20 250 246 244 245 245 245 245 245
 245 245 245 246 239  66  46  57  53  53  54  55  83 144 189 190 192 189 186 171 169 164 161 159 159 160 164 167 169 174 176 180 182 186 192 192 186 187 185 179 175 169 165 162 159 159 159 159 159 157 157 159 159 160 161 163 164 165 166 165 164 163 162 162 162 162 163 163 162 163 164 166 168 172 174 177 174 171 163 141  33  45  43  20 178 250 244 245 245 245 245 245
 245 245 245 248 207  49  45  54  54  54  54  64  90 146 181 184 187 187 181 174 167 163 159 159 161 162 165 169 172 176 181 183 183 187 190 191 189 188 186 182 175 171 168 164 161 159 158 158 160 158 158 160 160 162 164 165 165 166 168 169 169 167 166 164 163 162 161 161 161 162 163 165 169 171 173 176 176 171 159 155  67  24  44  29  32 250 246 244 245 245 245 245
 245 245 245 248 168  47  36  54  53  54  58  71  97 147 179 182 183 181 178 172 167 160 157 158 160 165 169 175 176 180 184 185 186 186 188 189 191 187 188 183 174 170 167 165 164 161 160 159 160 159 160 160 161 162 165 166 164 165 166 169 169 169 168 168 167 165 162 160 158 159 160 164 167 171 172 175 176 174 160 150 107  23  42  30  21 202 248 245 245 245 245 245
 245 245 245 246 111  44  44  50  51  54  55  66 108 149 179 180 181 180 175 168 162 159 156 158 162 165 172 178 181 183 184 184 182 182 191 183 177 171 165 168 166 166 166 166 164 162 160 158 158 159 161 160 160 161 161 161 163 164 166 167 167 167 168 169 168 167 165 161 158 157 159 163 166 169 171 174 175 176 157 148 136  42  28  39  40  95 248 244 244 245 245 245
 245 245 245 239  68  51  44  50  51  53  44  76 111 154 179 181 182 178 173 164 162 161 161 164 166 166 179 182 185 186 183 182 175 171 169 160 160 156 153 155 159 161 162 162 162 161 157 156 156 159 160 160 159 159 160 161 161 164 163 164 164 165 168 169 170 169 166 163 159 158 158 161 164 167 170 174 175 176 158 146 142  57  13  33  46  20 242 245 243 245 245 245
 245 245 245 218  60  39  51  49  51  53  50  73 121 163 183 181 180 177 172 167 165 161 166 170 175 184 187 186 186 185 183 181 173 163 156 151 145 145 146 146 150 154 158 159 159 154 152 151 153 156 157 158 158 158 158 158 159 159 160 161 162 163 165 167 169 168 169 166 162 160 160 161 164 167 169 172 173 173 163 132 139  77  25  34  38  23 174 249 244 245 245 245
 245 245 245 213  43  45  50  50  50  52  50  82 128 174 183 179 176 173 172 171 173 179 181 191 199 196 192 186 186 177 175 169 160 157 151 136 135 134 135 140 144 150 154 155 152 151 149 148 149 151 151 154 153 154 155 152 154 155 155 157 156 159 158 163 165 166 168 166 164 161 161 162 163 164 166 170 171 171 171 137 126  87  43  27  26  36  43 249 244 245 245 245
 245 245 245 203  30  42  50  50  52  53  45  86 137 185 180 178 175 173 174 177 185 196 207 206 205 197 190 173 165 156 142 143 141 136 127 121 121 115 117 125 132 137 139 141 145 146 143 144 145 145 147 149 149 147 145 146 146 147 152 146 150 151 153 158 164 163 164 165 165 165 165 164 163 164 165 168 170 170 177 138 108  85  51  27  29  44  15 231 248 243 243 245
 245 245 248 163  29  53  50  50  52  55  42  82 158 184 179 176 174 172 173 184 195 199 199 192 177 162 150 132 116 103  98  84  77  73  76  87  95  92 104 112 116 128 132 135 138 135 134 134 139 139 143 144 143 140 130 137 138 141 141 143 141 142 142 130 146 156 158 168 168 167 166 166 164 165 166 166 169 170 172 159  84  79  48  28  31  40  15 162 250 244 243 243
 245 245 249 121  49  49  49  48  50  53  39  98 169 178 176 175 171 170 173 192 197 195 178 148 133 124 102  91  74  62  38  52  43  48  49  62  83  82  85 100 111 121 126 128 130 132 124 128 135 131 134 137 136 125 131 122 115 114  97  84  67  63  72  86  92 119 130 137 144 155 167 169 166 166 166 167 169 171 171 169 105  52  48  36  34  38  26  65 250 242 243 243
 245 245 249 146  44  43  48  47  49  52  37 114 173 172 175 171 170 167 182 196 201 152 126 111  79  77  70  59  49  46  48  46  48  46  50  50  62  78  83  91 104 111 114 123 126 125 124 122 127 129 128 122 124 117 112 104 109  91  75  70  62  43  43  41  56  84 100 102 108 107 140 173 169 168 167 167 168 168 170 177 128  44  44  39  35  34  16  37 250 241 240 240
 245 245 249 200  25  37  46  46  48  53  37 137 170 174 173 170 169 176 183 190 176 124  85  67  81  58  58  48  43  40  41  42  41  42  47  51  60  61  76  83  98 109 113 115 120 121 121 120 119 124 122 120 112 114 100  88  89  84  67  48  43  45  44  53  54  60  72  86  70  85  94 140 173 169 167 168 168 168 167 178 145  44  43  40  35  32  14  23 249 243 240 240
 245 245 246 214  22  43  47  46  47  46  49 156 175 175 174 170 169 175 181 158 113  88  82  71  58  60  54  49  45  42  41  42  42  43  46  51  58  71  75  81  95 102 110 113 118 120 121 118 119 120 119 117 109 108  82  82  78  69  50  47  45  46  47  48  49  47  53  71  78  87  77  98 141 164 168 169 169 168 168 169 154  50  38  38  35  33  22  20 243 218 223 226
 245 245 245 240  21  31  47  45  47  36  67 167 179 178 175 169 168 166 139 102  97  86  75  67  62  58  57  52  37  40  30  37  50  46  41  55  62  71  77  84  93 102 109 113 117 120 121 119 120 122 120 118 108  99  86  85  73  61  57  50  46  51  50  48  47  50  57  65  75  82  86  88 110 146 168 168 169 171 170 170 158  49  28  38  36  34  16  45 216 222 211 204
 245 245 245 245  23  28  46  45  45  25  78 173 188 181 173 168 164 157 116  97  78  61  45  45  29  47  47  54  61  69  62  61  51  59  62  63  66  71  77  83  91 101 107 114 117 121 122 124 124 125 122 117 111  96  93  88  79  73  65  64  56  52  53  40  44  50  56  65  74  79  83  82  89 123 169 165 169 170 170 170 160  47  31  35  34  35  15  77 158 116 106 109
 245 245 245 246  22  23  46  45  45  30  95 181 189 186 178 181 186 175 152 144 149 149 144 126 111  93  98  83  92  93  88  86  81  74  62  66  67  69  73  78  88  98 106 113 120 124 126 128 130 130 125 117 110  99  95  92  85  82  78  76  82  81  85  89  80  72  56  65  69  78  82  85  81 108 146 164 169 172 171 172 159  40  36  35  35  35  14 134 177 201 222 237
 245 245 245 245  30  32  48  46  47  23 114 197 218 161 112  63  52  65  81  97 143 153 171 175 167 173 182 201 176 138 115 108 105  95  92  68  62  55  60  68  79  94 105 115 123 133 132 131 140 140 128 118 111 103  96  92  88  79  70  72  74  78  77  87  99  98  79  68  74  60  67  65  78 102 140 163 169 172 173 171 158  38  37  37  36  22  28 240 241 245 245 246
 245 245 244 246  40  32  50  50  35  37 175 180 170 176 164 170 161 130 131 111  83  56  59  74 107 128 130 108  87 106 121 128 129 117 109  88  87 105 102  76  54  66 104 115 128 132 138 141 142 140 130 121 104  79  48  37  33  41  49  58  65  86 111 122 136 147 158 155 145 140 129 115  97  94 101 155 150 161 161 175 155  37  39  38  38  22  94 247 243 242 241 241
 245 245 245 247  63  36  47  48  33 176 169 169 154 122 136 148 158 155  88  70  78  83  94 104  97  79  73 105  98 100  91  89  80  73  61  78 102 130 115  97 112 145 151 140 142 139 141 142 141 141 132 129 120 160 206 235 242 238 232 228 227 226 214 204 202 198 200 205 208 216 214 221 226 231 234 229 229 228 222 188 167  30  37  40  40  15 187 248 243 243 243 243
 245 245 245 249 133  29  46  37 101 162 159 185 114  30  13  12  45 106  83  82  83  86  91  84  71  88 100  84  62  54  48  38  48  51  69  70  67  73  93 107 110  97 128 152 118 107 123 128 133 126 123 123 150 157 122  96  81  72  69  78  82  91 113 130 129 128 129 121 118  88  94  97  98 115 111 128 150 163 174 176 183  50  34  41  32  21 233 245 243 244 243 243
 245 245 245 249 197  17  16 124 130 184 188 154 121  67  48  30  74  94  88  83  83  83  83  80  86  76  59  53  47  40  29  38  45  49  53  69  73  76  75  82  78  92 105 125 119 118 114 109 119 121 122 135 107  64  71  47  46  66  79  71  65  60  60  79 101 114 123 130 142 127 118 122 124 121 127 142 154 170 178 172 133  97  26  43  32  60 242 240 243 243 243 245
 245 245 245 247 232  24  18 133 182  70  77  90 122 134 135 121 101  97  86  82  81  79  66  81  69  49  54  81  55  40  44  44  45  48  41  83  74  72  74  75  84  91  88  72  69  92 106 109  96 105  92 129 106  84  57  57  62  58  53  55  59  60  71  55  56  71  82 107 130 138 122 118 121 125 129 137 123  36  44  70 156 125  18  44  19 102 248 242 243 243 244 245
 245 245 245 243 243  63  45 121 224 248 234 206 139 131 138 112 100  94  82  81  79  74  69  65  38  42  82 110  80  39  46  45  46  43  37  95  77  70  68  75  76  93  99  64 107 143 153 155 151 119  56 106 109  84  63  61  57  57  68  50  59  63  67  78  60 110 107  85  93 126 126 123 123 124 126 135 117  50  42  52 154 139  26  41  13 162 249 244 244 245 245 245
 245 244 244 247 242 150  52  53  54 100 164 184 143 119 140 121  95  98  81  79  73  67  59  45  45  48  93 100  88  49  50  46  51  44  88  94  72  58  58  64  84 104 119  59 124 158 171 166 160 135  57  70 121  87  59  68  70  75  79  38  52  60  61  71  61 129 131  95  81  84 120 125 124 126 127 127 147 134 132  86  88 161  52  25  18 227 246 244 245 245 245 245
 245 245 245 223 203 173 102  39  41  14 103 175 151 148 141  94 103  98  79  78  70  62  45  40  50  64  83 105  99  79  71  71  65  82  99  91  82  69  63  52  73 108  94  71 146 174 178 171 169 149  87  53 168 106  83  80  82  84  91  41  44  41  46  63  54 127 130  96  79  69 104 125 127 126 125 124 148 106 109 126  74 111  96  15  24 249 248 245 245 245 245 245
 244 248 201 158 154 152 120  67  54  32 106 181 159 152 141  97 103  91  80  72  68  61  76  93  90  89  92 102  98  98  99  99 103  97  92  92  88  78  69  64  66  69  54 110 166 186 186 182 174 167 127  43 162 111  98  88  82  81  76  63  58  50  49  51  77  78  83  84  95  92  81 106 118 125 126 107 190 218 220 224 223 139 115  16 134 250 245 245 245 245 245 245
 244 238 133 108 102 119 122  96  46  32 103 183 163 158 145 112 101  98  88  89  93 106 112 107 107 102 106 101 101  99  98  96  96  93  90  79  61  57  63  65  59  65  44 152 178 198 203 194 181 176 166  65 154 107  94  77  75  69  72  74  75  80  81  79  82  85  90  93 107 115 111 103 110 122 125 117 107 112  98 142  49 144  90  27 247 247 245 245 245 245 245 245
 249 208  89 105  97  97 115 110  52  38 101 178 164 156 151 113 104 110 108 102  93  92 104 107 109 107 106 104 101  99 101  96  89  72  55  58  63  66  75  76  95  96  97 165 169 188 198 194 184 179 174 111 142 115  83  63  67  69  69  74  77  80  80  81  84  87  89  91  95  93 115 113 110 111 124 126 120 133 139 163  50  20  26 124 250 245 245 245 245 245 245 245
 244 179  69  96  96  94 112 133  70  38 101 175 161 157 154 127 120 111 124 126 108  94  90  96 100  94  96 105  96  90  71  62  58  61  60  62  69  72  75  87 116  65 125 168 193 191 190 186 182 177 172 149 111 136  90  76  75  73  72  75  77  78  81  81  84  83  87  89  89  87  78  98 108 114 121 123 134 149 153 177  58  41  59 151 224 246 248 244 244 245 245 245
 221 163  76  97  96 112 107 109  98  41  97 169 161 157 154 143 132 126 112 109 112 139 145 188 175 179 158 110  75  48  37  27  35  39  58  63  64  75  92 105  92  94 138 157 178 188 186 183 179 174 167 160 114 126 108  87  81  75  71  76  80  80  82  83  85  86  79  79  90  94 102 101 101 121 129 127 139 152 157 184  55  53 107 142 149 174 229 246 245 245 245 245
 138 170  80  96  92 127 108 108 101  51 101 166 158 157 156 151 149 132 134 129 112  89  64  61  64  71  87 103 127 117 151 166 153 147 137 131 124 116 108  98  84 119 143 158 172 181 186 182 178 174 169 168 145 111 117 106  96  90  86  78  69  72  69  77  84  84  97 102  95  81  95 112 117 133 132 129 141 154 159 182  55  76 136 138 114 106 157 249 245 245 245 245
 226 171  77  98  95 135 119 109  98  57  97 164 157 157 158 156 156 161 165 163 144 133 112 100  96  96  96  96  91  83  65  49  49  46  51  92 104 106 101  94  91 130 154 169 172 181 188 184 180 176 173 170 160 116 116 116 118 114 119 125 138 141 139 129 122 118 122 150 155 162 151 137 130 132 133 138 142 157 162 186  53  78 143 106  88  74 105 244 245 245 245 245
 249 194  81  95 108 137 122 116 100  51 107 159 156 159 161 161 178 186 179 178 169 169 160 142 123 114 101 101  97  89  93  93 104 116 119 119 108 107  98  93 122 151 179 186 200 196 197 191 185 180 176 172 164 148 121 117 116 117 116 115 101 100 106 111 108 111 118 126 131 131 132 136 140 138 144 143 148 159 164 183  51  91 118 105  95  68  88 232 246 245 245 245
 249 199  86  90 113 142 124 122  87  44 104 158 156 160 164 167 185 184 185 183 181 172 171 160 150 138 132 123 132 139 145 152 147 146 145 133 116 113 112 122 138 163 177 189 193 197 199 201 194 186 178 176 170 156 139 123 117 118 118 121 122 121 120 120 129 134 138 135 141 144 148 150 150 154 149 145 153 160 165 185  42  96 124 106  97  89  72 222 247 245 245 245
 249 207  89  89 135 128  98  83  67  50 107 158 157 161 167 173 181 182 182 182 178 172 164 156 157 161 165 169 173 178 176 174 171 165 147 130 123 116 122 126 146 171 180 187 192 194 197 198 196 187 183 177 171 164 144 132 122 122 122 124 126 124 133 133 135 145 145 143 142 146 149 150 152 152 153 152 153 161 166 179  49 112 138 108  94  77  73 231 247 245 245 245
 245 228 106  91 148 115  85  77  74  59  95 164 158 162 169 173 175 177 179 180 179 169 176 183 189 197 205 214 207 178 177 171 168 149 140 130 128 120 122 130 150 168 177 179 188 192 192 190 186 185 182 180 172 164 150 137 130 127 125 128 128 132 139 141 147 151 154 158 158 149 152 153 154 154 155 154 155 163 167 177  42 113 146 108  98  75  82 238 246 245 245 245
 245 242 129  90 153 102  73  77  78  70  99 160 160 165 169 172 173 175 177 183 181 195 205 211 213 213 208 196 179 176 162 155 149 147 137 125 109 120 120 140 146 162 174 178 184 187 186 185 184 182 181 178 172 165 151 135 130 127 122 125 130 138 142 145 148 153 154 159 166 165 160 158 156 154 155 156 153 168 168 173  38 121 149 109  99  74  89 243 244 245 245 245
 245 250 175 108 153 105  71  72  83  74  86 166 162 167 169 168 166 174 180 188 200 203 202 206 209 199 190 180 171 165 157 150 137 125 112  98 104 120 143 168 170 171 173 178 177 179 180 182 184 179 178 176 173 162 150 128 131  97 114 119 129 137 136 145 149 154 157 158 164 172 175 174 164 157 158 160 164 168 168 172  35 126 145 111 100  74 123 249 244 245 245 245
 245 246 218 103 153 113  64  75  87  71  84 165 164 167 167 165 164 164 184 193 200 199 200 199 189 181 173 167 160 154 143 131 119 105  91  74 103 146 155 173 172 169 170 166 169 163 158 168 170 170 170 170 170 166 163 162 147 114  88 104 110 126 138 140 148 151 157 159 163 170 174 178 181 166 161 162 165 167 166 170  36 115 147 115 107  75 171 249 245 245 245 245
 245 245 250 132 165 118  73  74  93  66  95 154 168 167 166 162 159 167 182 185 183 185 185 180 173 168 162 148 136 125 126 121 110  94  77  66 112 165 165 164 166 166 168 167 160 153 149 144 153 157 163 166 167 167 165 163 165 151  75  91  99 112 125 134 142 148 154 158 158 167 172 176 176 174 167 164 166 167 165 165  40  82 153 110 108  90 229 245 245 245 245 245
 245 244 249 175 161 120  82  86  91  68 104 142 173 167 166 158 156 162 174 173 175 174 171 163 158 148 136 138 129 128 103 104  93  76  60  58 116 144 150 151 158 155 148 154 154 141 135 135 132 155 156 158 163 161 160 160 160 170  91  73  91  99 113 124 127 141 147 152 157 165 168 173 174 175 173 165 166 168 168 158  37  79 149 113 116 112 250 245 245 245 245 245
 245 245 245 235 153 123 101  66  85  69 102 138 169 166 166 150 150 156 164 170 168 160 149 145 141 135 128 124 121 108 108  99  83  68  62  51 109 128 126 128 123 127 134 128 128 127 125 125 122 137 138 145 150 150 148 156 156 167 104  64  78  90 100 114 127 139 141 148 152 153 164 167 172 174 172 165 165 168 170 158  44  67 148 122 100 179 249 245 245 245 245 245
 245 245 244 248 158 124 133 144 113  72 101 135 172 162 167 137 143 147 153 146 146 147 130 129 129 122 126 119 114 106 102  83  76  61  62  51  97 109 111  97 108 100  99 109 108 113 116 110 127 118 132 135 135 138 139 143 144 158 109  68  77  84  87 108 118 124 136 142 148 153 161 158 167 174 174 166 165 166 168 154  40  71 149 118 111 247 245 245 245 245 245 245
 245 245 245 249 185 121 157 183 138  65  95 118 164 160 152 131 132 144 142 141 136 127 127 126 120 119 115 111 106 105  93  82  71  67  65  65  72  87  94 100  89  93  93  97 103 102 107 111 115 117 124 127 120 119 123 124 127 128  99  85  75  77  86  95 113 117 133 139 142 147 153 153 162 171 171 166 164 165 169 145  35  86 153 129 210 248 245 245 245 245 245 245
 245 245 245 247 217 115 166 189 125  78  88 119 156 150 147 128 131 135 135 128 126 123 117 110 112 113 110 110 101  94  86  73  71  71  71  71  69  64  66  52  41  24  44  85  90  98  99 101 100 104 115 116 117 104  82  93 108 108  99  90  76  76  79  90 100 110 121 128 137 147 149 151 159 170 170 165 163 162 164 133  35 102 143 151 250 244 245 245 245 245 245 245
 245 245 245 246 231 145 179 168 128  69  96 117 133 149 139 115 126 126 125 124 121 118 109 108 108 107 104 103  99  89  83  79  74  78  79  79  78  77  64  50  55  57  43  40  83  83  88  92  97 100 106 107  90  59  52  67  96 107 109 101  88  74  78  85  95 103 115 123 131 138 143 148 156 166 166 164 159 156 150 119  36 112 145 210 247 244 245 245 245 245 245 245
 245 245 245 244 242 197 214 171 142  62 101 114 126 137 130 114 117 121 119 117 116 112 107 102 102 101  99  97  95  89  84  82  85  84  82  81  80  82  61  55  54  55  57  56  59  75  77  83  88  94  96  92  78  79  78  87  98 109 111 111  99  80  78  76  87  92 110 118 129 132 139 144 147 154 162 161 154 151 146 113  30 142 135 246 244 245 245 245 245 245 245 245
 245 245 245 245 245 216 207 166 135  67 113 116 121 128 124 109 109 114 112 116 112 107 104 100  98  96  95  93  92  89  84  85  86  85  85  83  80  75  57  55  52  51  53  55  57  65  73  77  83  84  77  74  80  80  84  89  98 112 112 112 109  93  77  79  79  94  97 116 125 130 133 136 147 144 163 154 148 147 140 110  26 167 127 249 245 245 245 245 245 245 245 245
 245 245 245 245 247 214 196 146 142  83 102 101 113 116 116 101 101 103 104 103 101 101 101  98  94  92  91  92  90  86  84  84  82  81  82  84  77  64  53  51  46  44  45  48  49  56  59  64  64  59  54  44  62  66  76  89  94 114 110 109 102  93  85  77  80  88  98 110 114 123 130 131 138 142 147 148 146 141 126 107  28 174 152 249 244 245 245 245 245 245 245 245
 245 245 245 245 248 208 175 155 151  85  97 107 110 113 111  99  89  93  95 100  96  97  96  95  92  91  89  89  87  85  82  82  79  77  93  80  66  55  50  48  43  40  37  39  42  44  53  51  44  46  46  48  45  55  74  77  89 103 105 101  92  89  86  78  72  86  96 107 114 120 126 129 132 136 140 139 142 138 123  98  26 174 184 248 245 245 245 245 245 245 245 245
 245 245 245 245 250 191 153 151 147  99 101  89  94  98 107  94  69  80  87  85  87  91  92  92  91  89  89  87  84  83  83  78  70  59  56  59  59  46  46  45  40  37  33  35  38  42  49  51  43  41  45  46  47  49  60  61  66  90  91  90  78  80  82  78  75  82  96 109 113 118 122 124 125 128 114 129 130 121 115  87  43 168 195 247 244 245 245 245 245 245 245 245
 245 245 245 244 247 199 140 145 135  90  93  92  92  92  84  84  70  74  74  73  79  87  91  91  88  87  86  82  80  75  68  57  58  49  47  51  48  45  44  40  36  34  33  34  37  41  46  49  43  40  42  45  45  48  52  52  58  71  77  75  66  70  74  75  68  78  88 108 112 116 120 119 118 118 118 124 109 109 107  83  45 157 184 249 244 245 245 245 245 245 245 245
 245 245 245 244 245 242 150 121 124  91  89  89  88  86  84  81  56  67  68  67  72  80  88  89  88  87  83  80  76  71  58  52  44  40  40  45  44  41  42  40  34  35  35  38  40  43  46  47  44  43  45  46  48  50  51  53  60  64  62  57  53  55  62  73  64  55  88 103 110 114 116 114 110 109 112 113 104  99 105  87  49 145 194 248 244 245 245 245 245 245 245 245
 245 245 245 245 245 248 233 135 126  85 102  93  86  83  81  77  64  67  69  67  63  63  84  89  88  86  83  77  73  62  38  33  26  33  40  44  43  41  41  40  36  32  42  42  39  47  45  49  42  43  52  56  49  52  55  52  61  62  60  51  43  39  31  38  52  61  78 108 110 114 115 111 106  98 115 112 106 107 105  88  47 145 214 247 245 245 245 245 245 245 245 245
 245 245 245 245 245 244 247 217 198 136  86  93  90  78  76  74  70  68  68  64  59  57  80  84  86  85  81  73  67  53  35  27  28  33  40  45  47  48  47  49  47  49  54  57  65  65  63  50  64  62  61  68  69  64  58  64  70  65  63  56  43  40  39  39  41  51  77 106 113 114 115 108  98  86 107 112 108 109 101  83  82 129 244 245 245 245 245 245 245 245 245 245
 245 245 245 245 245 245 247 140 224 181  74  89  94  83  70  69  66  66  66  63  58  58  71  79  83  85  80  73  64  45  32  26  27  32  39  47  49  50  51  51  53  53  54  58  63  71  74  77  74  76  76  74  70  70  71  72  69  69  66  55  38  33  35  39  41  53  75 106 111 112 105 103  95  89  96 106 109 102  94  75  90 169 250 244 245 245 245 245 245 245 245 245
 245 245 245 245 244 244 247 178 235 179  61  91  91  90  63  63  60  62  66  65  60  53  66  74  81  84  82  77  64  45  36  33  32  30  31  29  31  33  40  42  40  35  42  43  52  55  57  62  59  54  50  47  49  47  53  55  51  48  46  22  36  38  40  42  42  57  79 107 112 111 107  85  82  88  93  80  95  93  87  60 108 197 250 244 245 245 245 245 245 245 245 245
 244 244 244 245 244 242 238 134 240 170  68  89  85  87  67  63  57  60  64  63  59  55  58  68  81  82  83  81  70  53  42  40  42  45  43  47  43  48  47  61  72  80  73  76  74  74  70  68  73  75  77  83  86  89  87  82  81  79  82  82  66  52  49  49  55  73  93 114 112 110 101  75  76  85  85  73  84  71  67  40 114 211 249 245 245 245 245 245 245 245 245 245
 243 243 244 245 244 243 240 161 233 166  85  73  77  77  73  65  58  58  60  59  57  51  52  58  80  81  82  82  76  71  55  49  51  59  63  74  84  90  98  90  92  94 108 112 113 115 118 123 127 131 121 124 122 122 119 125 119 121 109  93  86  66  61  68  78  82 100 112 111 108  95  75  71  76  81  76  76  87  64  18 137 225 246 245 245 245 245 245 245 245 245 245
 244 244 245 245 245 245 230 161 226 154  85  71  62  67  71  68  61  59  58  54  52  50  49  54  72  75  81  83  82  76  59  59  59  72  78  87  92 100 107 113 113 110 110 108 111 113 114 117 121 121 125 126 125 130 134 136 136 128 118 109  95  78  69  71  87  92 105 111 111 104  85  70  67  70  75  74  71  79  66  42 160 233 245 245 245 245 245 245 245 245 245 245
 245 245 245 245 244 248 190 192 208 131  78  83  69  68  68  68  66  60  56  53  50  48  50  53  63  73  80  84  83  80  69  67  69  78  84  93  97 102 107 109 109 108 108 107 107 108 110 113 115 116 124 122 125 129 137 138 138 130 122 113 106  93  74  80  90  96 110 109 105  99  81  67  62  65  70  73  73  70  59  40 174 244 244 245 245 245 245 245 245 245 245 245
 245 245 245 245 245 248 153 209 198 111  69  85  66  69  70  68  67  61  56  53  50  48  48  51  60  72  78  82  83  78  74  75  77  81  87  92  97 102 105 108 106 107  95  96  99  99  99 104 108 109 109 112 119 125 135 139 138 133 127 122 114  90  84  87  94 104 111 109 103  84  78  63  61  62  64  67  70  69  53  44 195 245 244 245 245 245 245 245 245 245 245 245
 245 245 245 245 245 249 139 198 199  98  66  82  65  64  68  68  67  61  57  52  51  48  45  49  57  68  76  81  82  79  74  76  81  84  88  93  98 102 105 107 105  93  80  80  88  89  87  93  95  99  87  99 106 119 130 135 135 134 129 124 112 103  91  94  98 104 108 110 105  70  72  60  59  60  62  58  67  50  38  74 207 248 245 245 245 245 245 245 245 245 245 245
 245 245 245 245 245 249 125 192 200  82  51  75  66  62  64  66  66  61  58  51  48  47  46  46  61  66  74  79  81  80  76  77  80  86  89  93  97 101 103 101 100  91  87  84  83  84  82  81  84  88  90  86  95 121 127 132 134 133 130 127 118 107  99  99 101 105 106 107 108  73  72  66  59  58  57  55  51  57  38 129 207 250 245 245 245 245 245 245 245 245 245 245
 245 245 245 245 245 250 138 220 196  56  46  67  70  59  58  58  60  60  57  53  48  46  45  43  55  64  72  80  82  79  77  77  79  84  88  90  95  98 101 101  98  92  88  85  79  78  77  74  81  84  86  93 104 119 127 130 131 132 129 126 117 111 106 104 105 105 106 105  97  80  75  71  64  59  58  54  50  47  47 178 209 250 245 245 245 245 245 245 245 245 245 245
 245 245 245 245 245 250 166 220 193  39  42  65  70  61  54  54  53  53  53  53  47  44  45  46  49  62  70  77  79  77  75  75  76  83  87  91  94  96  98 100  97  93  89  83  78  75  71  70  74  77  90  96 113 122 126 129 130 130 128 124 116 110 105 106 105 106 107  97  92  81  74  70  65  57  56  54  50  31  90 198 206 249 245 245 245 245 245 245 245 245 245 245
 245 245 245 245 245 246 186 218 198  28  49  46  71  64  54  51  50  49  49  48  44  43  44  45  50  54  72  74  76  76  72  68  76  81  88  92  94  95  97  98  97  95  92  81  74  69  75  75  82  62  93 109 113 118 125 128 129 128 126 122 115 108 106 105 105 105 103  90  88  74  69  67  63  61  66  59  64  24 169 201 205 248 245 245 245 245 245 245 245 245 245 245
 245 245 245 245 246 231 156 241 163  20  44  53  86  72  47  50  48  46  45  42  41  40  41  42  46  51  61  72  74  75  71  70  75  80  87  90  94  97  98  98  98  99 106 102 109 105 100  99  90 110 113 119 119 122 124 126 128 126 124 118 113 110 107 105 104 104 100  92  77  66  52  47  55  58  60  62  46  35 202 202 208 248 245 245 245 245 245 245 245 245 245 245
 245 245 245 245 245 217  37  21  46  33  52  35 126  98  61  47  46  43  40  39  38  37  38  40  44  49  59  65  69  69  70  69  72  78  83  88  93  96  98  99 100 103 107 107 107 107 103  98 110 118 125 129 132 124 123 125 125 126 122 117 113 108 103  99 100 103  99  77  68  61  53  50  49  51  53  54  37 115 203 202 217 246 245 245 245 245 245 245 245 245 245 245
 245 245 245 245 250 189  29  69  67  52  51  15 141 130  89  38  46  43  39  35  35  35  35  38  41  51  58  62  62  63  65  68  70  75  80  86  92  96  98 101 105 107 111 110 109 105 100 101 109 114 129 129 130 129 127 126 127 127 123 121 113 103  97  96  96  96  89  73  61  53  47  45  45  44  51  55  21 168 203 197 228 245 245 245 245 245 245 245 245 245 245 245
 245 245 245 245 250 155  33  66  66  55  50  23 129 137 112  62  43  41  37  36  34  34  35  37  41  48  57  57  57  56  58  62  62  62  74  84  92  97 102 103 107 109 110 110 107 103 102 101 107 111 116 131 130 132 131 129 129 128 126 115 111 100  94  98  97  91  80  71  58  50  44  40  40  44  51  48  76 193 204 200 233 243 245 245 245 245 245 245 245 245 245 245
 245 245 245 245 250 110  34  66  64  52  46  45 120 143 113  89  40  42  38  36  35  33  34  35  39  42  49  54  52  49  52  47  47  53  67  80  87 103 105 104 104 107 109 107 104 104 107  98 100  97 111 128 132 133 133 132 131 127 123 109 107  96  89  66  67  81  77  68  58  50  43  39  37  42  32  39 187 202 201 197 239 244 245 245 245 245 245 245 245 245 245 245
 245 245 245 244 247  77  41  58  51  30  28  44 111 154 122 101  59  38  39  37  36  35  34  35  38  40  41  44  44  41  39  46  49  56  69  75  81  87  99 101  99 103 105 103  94  99 105  95  83  99 111 121 126 131 131 130 128 127 118 111  95  93  83  68  68  62  67  69  61  51  43  38  39  39  15 130 199 200 203 198 240 245 245 245 245 245 245 245 245 245 245 245
 245 245 245 246 234  36  49  32  33 100 123 135 159 154 125 113  92  41  34  38  37  36  35  34  35  35  40  41  39  35  33  40  49  61  65  70  80  85  91  92  91  89  85  84  85  91  92  89  78  90 113 109 120 126 135 129 123 125  94  94  83  75  71  70  69  59  57  61  61  52  45  41  41  37  34 172 200 201 204 193 243 245 245 245 245 245 245 245 245 245 245 245
 245 245 245 248 213  53 132 207 240 249 233 156 150 156 127 111  98  80  43  39  36  34  33  32  31  32  36  39  34  32  34  41  49  56  61  68  70  72  78  75  76  77  73  65  69  78  79  79  76  77  89 102 105  99  95 110 112 109  95  92  77  56  54  50  47  52  52  53  53  51  46  42  39  33 115 186 200 203 203 196 245 245 245 245 245 245 245 245 245 245 245 245
 245 245 245 248 219 233 249 250 224 154  91  44  75 149 128 104  93  77  54  45  37  34  32  30  27  31  34  35  32  30  35  39  47  52  54  57  59  63  63  65  69  70  65  58  49  55  61  77  72  73  76  85  79  95  82  91  93  96  95  86  68  65  53  47  46  46  44  42  42  46  45  42  37  84 145 186 201 203 204 197 248 245 245 245 245 245 245 245 245 245 245 245
 245 245 245 245 249 247 232 168  43  20  16  24  12 151 127 104  88  70  69  53  38  35  30  28  28  31  33  31  29  31  35  41  44  46  47  49  55  57  56  57  61  53  57  51  52  53  55  56  54  67  72  72  72  77  82  72  73  69  88  63  66  61  51  45  43  45  44  40  40  38  41  32  76 106 170 189 200 203 205 193 249 245 245 245 245 245 245 245 245 245 245 245
 245 245 245 245 245 249 184  37  35  37  24  23  11 145 123 101  88  78  72  63  49  31  30  27  28  29  29  31  29  30  35  38  41  42  43  44  51  52  50  52  51  51  49  49  48  48  51  53  54  56  60  59  59  58  57  65  67  69  74  69  63  57  50  44  43  41  40  40  39  40  41  63  91 130 160 193 201 204 206 201 248 244 245 245 245 245 245 245 245 245 245 245
 245 245 245 244 245 249 102  30  25  22  22  16  10 139 126 106  83  78  70  64  57  41  28  28  28  28  27  28  29  29  33  36  38  40  40  38  42  44  45  45  43  45  45  45  45  44  47  50  52  53  53  50  46  51  54  55  57  56  61  62  64  55  50  45  43  42  39  35  37  41  42  87  99 149 155 195 203 205 203 214 247 244 245 245 245 245 245 245 245 245 245 245
 245 245 245 245 247 211  57  25  22  24  21  16   9 138 116 104  88  72  65  61  58  47  34  29  26  26  28  27  27  29  34  36  37  37  36  35  38  38  38  37  37  37  39  41  41  37  36  41  46  47  48  46  43  44  46  47  47  48  51  56  59  59  49  43  41  38  35  30  30  41  71  98  98 160 164 200 202 205 204 214 246 245 245 245 245 245 245 245 245 245 245 245
 245 245 245 245 250 168  36  20  25  23  21  16  11 137 113 103  93  75  64  60  60  50  35  33  27  26  27  25  27  29  35  35  34  34  32  32  33  33  29  30  30  30  30  38  37  34  31  35  39  43  43  44  41  40  40  40  41  44  47  48  51  53  45  40  39  36  32  25  33  51  84 112 108 168 132 204 203 206 206 218 246 245 245 245 245 245 245 245 245 245 245 245
 245 245 245 245 250 136  50  15  23  20  21  14  33 130 113 103  92  79  68  61  56  50  42  37  30  26  25  24  26  29  33  33  32  32  29  28  29  30  28  26  26  22  19  26  31  30  29  29  31  34  41  42  41  37  37  37  38  41  43  44  44  38  40  39  38  35  32  28  55  68  85 111 121 174 136 202 203 206 203 224 247 245 245 245 245 245 245 245 245 245 245 245
 244 244 245 245 246 144  63  20  23  20  20  14  50 121 110 104  91  79  68  61  56  50  43  39  35  29  24  24  25  28  30  30  30  30  28  26  27  27  26  26  24  22  21  23  25  26  28  27  26  27  33  40  38  33  33  35  36  37  39  41  41  40  40  39  35  32  24  47  69  82  92 111 132 173 143 200 204 207 201 231 246 245 245 245 245 245 245 245 245 245 245 245
 242 246 244 245 246 169  95  22  15  22  20   6  64 118 110 101  92  75  67  61  55  48  42  39  35  30  26  23  24  25  26  26  27  26  26  24  24  23  25  24  24  23  21  21  22  25  27  33  33  31  29  29  32  29  28  31  34  35  35  35  37  38  39  38  37  35  57  67  75  92 100 116 132 171 152 204 205 207 201 241 245 245 245 245 245 245 245 245 245 245 245 245
