P2
92 112
255
 245 245 245 245 245 245 245 245 245 245 245 245 245 245 249 155 144 120  57  68  86  94 110 148 151 168 188 192 196 199 205 205 203 199 183 173 163 154 152 146 145 143 143 143 138 141 140 139 139 131 127 137 129 120 118 128 114  99  93  82  59  57  44  37  37  35  29  31  36  42  47  47  50  88  74  41 105  49 165 248 244 245 245 245 245 245 245 245 245 245 245 245
 245 245 245 245 245 245 245 245 245 245 245 245 245 247 238  59 123 116  46  92 124 151 160 173 189 205 202 206 211 209 208 208 209 208 196 187 173 173 167 158 154 153 151 151 152 150 152 151 148 148 150 147 144 150 153 146 145 138 131 104  90  55  52  40  38  37  33  30  39  41  43  43  34  87 104  89  44 164  85 241 244 245 245 245 245 245 245 245 245 245 245 245
 245 245 245 245 245 245 245 245 245 245 245 245 245 250 139  75 107 119  78 141 164 162 182 205 214 215 217 215 213 209 210 211 211 209 205 206 189 170 173 166 163 161 158 155 155 156 155 156 158 155 158 156 156 155 153 153 150 154 149 146 128 105  68  40  41  41  42  45  46  44  46  45  45  41  45  75  47 158 162 189 248 245 245 245 245 245 245 245 245 245 245 245
 245 245 245 245 245 245 245 245 245 245 245 245 248 209 113 136  96 114  95 156 170 201 219 217 213 215 214 213 212 210 211 211 214 213 213 209 214 192 173 173 169 167 167 163 161 159 159 159 159 158 158 160 158 157 157 158 157 153 154 154 157 147 119  87  37  42  58  64  46  31  25  23  32  40  31  20  41  43 141 181 250 245 245 245 245 245 245 245 245 245 245 245
 245 245 245 245 245 245 245 245 245 245 244 248 222 128 120 102  45  98 118 169 205 215 214 215 212 212 215 209 208 207 206 208 211 210 210 207 201 193 185 177 170 167 165 164 162 161 161 160 159 158 159 160 159 159 159 162 163 163 163 163 159 162 160 145  99  47  46  69 123 130 114 107  78  44  41  38  32  34  90 162 249 245 245 245 245 245 245 245 245 245 245 245
 245 245 245 245 245 245 245 245 245 244 247 226 155 115 110  71  47  87 139 205 221 213 214 212 209 205 199 199 197 194 193 198 200 202 199 197 198 191 185 177 172 169 168 165 165 164 162 159 158 158 158 160 159 157 157 159 159 163 164 165 163 165 162 171 176 168 151 152 168 175 168 159 140  99  38  39  43  43  21 147 250 244 245 245 245 245 245 245 245 245 245 245
 245 245 245 245 245 245 245 245 244 244 245 149 117 104  90  53  66  80 149 219 216 215 215 207 201 192 191 187 181 174 175 182 185 186 191 190 176 175 176 177 175 173 169 166 165 164 163 161 160 160 161 161 161 160 159 161 161 163 163 165 167 167 167 166 166 172 177 179 173 175 176 171 171 144  95  32  51  43  12  81 250 244 245 245 245 245 245 245 245 245 245 245
 245 245 245 245 245 245 245 245 244 246 166  77  94  87  59  53  78  81 158 216 213 215 216 211 193 183 180 164 164 166 167 167 169 160 149 151 156 163 170 171 173 171 166 165 163 162 160 162 161 161 162 163 162 162 162 162 166 165 165 167 168 167 167 168 170 170 168 170 175 179 178 178 174 168 139  61  51  64  37  19 243 246 245 245 245 245 245 245 245 245 245 245
 245 245 245 245 245 245 245 245 245 240  96  74  64  75  58  63  83  85 172 198 207 212 215 197 182 177 168 167 162 160 163 163 157 158 161 160 154 157 162 165 166 165 162 160 159 159 158 158 157 156 157 159 159 160 162 160 162 163 162 164 166 166 168 167 169 169 168 166 169 177 180 180 176 175 163 121  43  53  44  15 113 250 244 244 245 245 245 245 245 245 245 245
 245 245 245 245 245 245 245 245 249 156  66  81  66  52  54  82  71 124 184 198 211 209 207 193 180 177 172 160 155 154 148 151 152 145 135 151 150 152 156 161 157 156 156 156 154 155 157 156 154 152 152 152 152 151 154 154 156 159 159 161 160 164 165 166 167 167 166 165 164 163 178 180 178 179 165 138  48  40  44  29  28 238 247 245 245 245 245 245 245 245 245 245
 245 245 245 245 245 245 245 246 224  99  84  73  54  59  58  78  61 165 196 205 206 204 202 187 183 174 166 156 154 149 150 149 147 146 144 143 144 145 144 143 143 148 149 148 152 154 155 157 155 153 152 150 149 149 149 152 153 152 152 154 153 157 159 161 163 165 167 167 167 168 169 176 178 177 167 124  95  41  45  42  13 103 249 243 245 245 245 245 245 245 245 245
 245 245 245 245 245 245 245 250 158  83  81  64  59  57  66  70 129 175 213 205 204 200 193 186 173 169 163 159 156 152 150 148 145 142 141 140 139 138 142 141 141 143 146 148 148 149 152 155 157 154 152 150 150 150 150 150 151 150 146 149 151 154 155 156 156 154 163 165 166 170 172 174 176 176 175 143 146  36  43  41  25  24 226 246 245 245 245 245 245 245 245 245
 245 245 245 245 245 245 246 235  93  86  59  57  55  57  66  82 154 195 207 204 201 196 190 181 167 166 165 160 156 154 151 147 144 140 136 137 137 137 139 139 142 143 144 147 148 150 152 154 154 154 154 152 151 151 150 149 149 148 145 145 148 150 152 154 157 159 159 156 160 166 167 172 174 173 177 153 147  89  39  43  40  29 114 250 245 245 245 245 245 245 245 245
 245 245 245 245 245 245 247 163  86  71  59  55  54  52  71 118 172 209 207 201 199 194 181 178 169 168 166 161 158 156 155 149 144 142 140 139 140 140 141 138 144 146 146 147 149 151 151 155 154 154 152 150 150 151 150 150 150 148 146 145 145 147 148 152 155 158 160 161 162 160 163 168 170 174 176 172 152 134  31  45  42  29  34 250 244 245 245 245 245 245 245 245
 245 245 245 245 245 245 242 101  55  62  57  55  56  42  80 141 196 210 204 199 195 185 177 172 169 166 164 163 161 160 156 149 139 148 141 142 145 145 145 148 145 148 149 149 150 152 152 156 156 155 152 150 152 150 151 150 151 152 149 147 146 146 147 149 151 154 156 158 160 162 163 165 169 170 172 174 163 148  92  39  46  44  23 168 250 244 245 245 245 245 245 245
 245 245 245 245 245 246 212  97  45  63  55  54  58  45 102 164 204 202 202 198 185 178 175 169 166 163 163 162 162 161 159 160 167 160 161 158 158 158 147 156 154 152 152 152 153 154 154 156 157 157 154 152 150 152 152 152 152 152 151 149 148 148 148 148 151 152 153 157 157 159 160 164 167 170 171 171 165 163 146  43  40  46  24  97 250 244 245 245 245 245 245 245
 245 245 245 245 245 249 157  86  55  59  54  53  59  54 119 179 201 199 198 198 182 176 171 167 165 166 163 165 165 165 164 169 164 169 173 176 175 176 176 168 163 159 159 157 157 156 156 157 158 159 158 155 154 154 154 155 154 154 152 152 154 152 153 152 153 155 155 155 157 157 158 162 167 168 170 171 168 163 172  89  25  48  41  34 245 246 245 245 245 245 245 245
 245 245 245 245 245 246 122  77  55  56  55  56  61  71 131 182 195 195 196 188 178 175 171 166 164 164 164 167 170 173 173 173 180 182 185 193 200 200 190 181 176 168 166 166 161 161 162 161 160 160 160 158 157 156 157 157 157 156 156 156 158 159 160 159 159 159 158 158 157 155 155 159 161 168 170 171 171 166 164 134  20  49  49  22 227 247 245 245 245 245 245 245
 245 245 245 245 245 250 111  45  58  56  54  53  67  80 139 179 191 190 190 186 179 175 168 163 162 164 165 169 175 182 187 190 198 200 199 206 205 204 192 183 176 174 171 169 167 165 165 164 163 162 162 162 161 160 159 159 160 161 164 164 165 166 165 163 162 159 159 159 159 157 155 157 160 165 170 172 171 169 157 166  47  40  51  19 158 248 245 245 245 245 245 245
 245 245 245 245 245 250  89  41  56  53  53  56  62  97 139 174 178 187 185 182 179 166 164 162 162 165 165 170 180 192 195 199 199 199 197 199 205 198 190 179 175 174 174 173 170 167 164 161 161 162 165 165 166 166 165 165 164 165 167 167 169 169 167 166 165 163 162 162 161 158 158 158 160 163 168 171 172 168 165 155  94  35  45  32  67 249 244 245 245 245 245 245
 245 245 245 245 245 224  73  45  53  51  53  56  61 106 143 173 186 186 185 178 175 166 164 163 166 173 178 184 188 195 198 197 202 204 198 190 182 176 173 173 172 170 171 171 170 166 162 158 160 161 163 166 166 167 166 166 166 167 168 167 166 167 164 164 163 163 164 166 164 160 160 160 161 163 166 170 173 172 167 153 136  28  44  42  17 219 249 244 245 245 245 245
 245 245 245 245 250 173  57  51  52  52  53  59  63 118 139 184 184 186 185 176 171 167 167 169 172 179 186 194 195 195 197 194 193 180 174 175 166 163 163 161 162 160 167 170 166 162 159 156 158 159 161 162 164 163 162 163 164 166 166 166 160 164 154 153 154 162 166 164 163 163 160 161 162 163 166 169 172 173 168 151 146  53  37  42  19 122 250 244 245 245 245 245
 245 245 245 245 250 131  46  52  52  51  54  56  69 125 153 185 183 181 177 174 171 171 174 182 192 198 196 199 200 190 179 166 152 147 148 136 130 132 123 127 135 149 151 156 160 157 153 152 154 157 157 159 159 159 157 155 152 156 155 150 151 136 132 122 118 126 145 151 157 155 162 161 163 162 165 168 171 172 169 144 144  77  32  39  33  18 250 247 244 245 245 245
 245 245 245 245 250 107  43  49  51  50  53  54  70 123 168 186 181 178 175 173 175 180 189 196 197 203 191 181 164 148 135 122  99  87  75  80  91  94 106 101 125 128 143 142 147 150 149 146 147 150 152 153 155 152 150 149 142 134 131 123 103  82  60  49  57  75 109 124 131 135 141 158 161 162 163 167 169 171 169 152 127 107  32  33  27  22 149 250 244 244 245 245
 245 245 245 245 250  67  44  47  49  51  52  45  68 134 179 183 181 177 174 174 178 182 189 188 185 161 151 139 124 107  86  55  61  45  41  51  64  82  95  96  95 119 131 140 141 143 144 142 141 145 147 147 146 144 142 135 133 118 122  84  80  81  62  65  69  76  70  80  87  95 109 140 169 162 163 166 169 169 169 166 119 107  41  23  32  23  23 250 244 243 245 245
 245 245 245 244 240  48  47  49  49  52  54  43  76 155 187 183 182 178 173 175 180 190 195 174 141 125 115 102  89  72  57  58  55  55  55  56  62  67  80  95  99 109 118 131 133 136 138 137 135 140 141 141 138 132 130 127 110 105  96  97  74  55  60  62  65  65  65  76  78  79  76  98 156 165 164 166 168 168 168 172 119  93  43  33  33  27  17 231 247 243 243 244
 245 245 245 247 213  42  50  48  49  50  54  44  82 173 186 182 180 176 172 177 184 198 171 122  94  86  85  65  53  47  51  50  49  48  49  54  59  65  75  85  97 102 113 125 128 131 132 133 132 131 131 133 129 127 122 117 115 100  93  78  61  60  61  63  64  64  64  62  74  80  85  70 124 168 163 165 168 168 167 172 128  84  47  30  33  22  35 141 249 243 243 242
 245 245 245 248 220  46  42  50  48  50  53  46  99 180 182 177 175 172 173 178 188 190 138  89  88  78  72  61  52  48  47  47  48  49  50  54  59  64  79  83  90  99 110 119 123 127 128 129 127 126 127 130 129 122 117 108  99  95  83  71  66  63  65  66  64  55  54  66  76  83  86  73  88 142 164 164 167 168 168 170 146  78  48  33  35  35  42  79 249 240 242 241
 245 245 245 244 233  40  41  48  49  50  53  39 130 186 181 179 174 172 172 181 178 134  94  93  82  74  65  60  51  47  49  46  50  52  55  55  63  68  79  88  92  99 108 114 121 125 125 127 125 124 126 128 127 121 115 107 102  96  85  72  62  74  69  67  73  74  75  75  81  88  91  82  64 108 155 161 166 168 168 172 165  57  47  38  37  36  42  33 249 236 238 239
 245 245 245 245 242  54  32  47  46  48  45  51 145 181 180 179 175 171 169 160 125 127  88  82  71  70  67  63  62  63  58  62  60  61  62  70  73  78  85  90  94 100 107 112 118 122 123 125 125 125 127 128 126 123 115 107 105  98 101  90  91  85  88  99 103 108 100  90  84  86 105  91  78  81 141 162 165 167 167 167 164  80  39  41  35  32  40  29 233 229 231 235
 245 245 245 245 247  58  29  48  46  46  34  63 158 186 184 179 173 170 167 140 105 103  83  63  57  51  68  66  69  75  76  75  72  71  66  70  72  76  80  88  94  99 104 109 117 121 124 124 125 126 128 127 125 121 112 108 105 100  97  94  89  90  93  94  95 100 103 109 114 113 104 108  95  90 119 156 165 167 168 166 169  89  31  41  35  34  35  17 219 214 219 209
 245 245 245 245 250  73  24  48  47  46  33  69 172 196 186 189 181 185 180 149 138 131 126 115 101  87  71  65  64  75  88  87  88  80  72  70  70  71  74  75  88  96 102 108 116 120 124 126 126 127 129 127 123 117 111 106 100  95  93  89  87  88  86  88  90  95 100 102 109 115 120 119  99  97 103 151 166 167 169 167 169  97  27  39  34  33  37  16 177 141 124 111
 245 245 245 245 250  77  26  47  47  47  36  84 182 200 192 113  99  47  44  43  42 154 166 191 170 178 189 202 209 150 129 120 106 100  87  78  65  71  68  69  76  86  96 101 114 122 128 130 131 131 135 128 121 112 105  97  94  89  88  83  80  78  74  69  76  78  85  91 102 112 118 126 124 112  99 148 167 166 169 169 168  89  31  37  35  35  29  35 162 156 198 228
 245 245 245 245 249  70  37  50  49  45  36 118 193 161 163 168 175 172 141 149 144 128 125 109 116 129 133 132 131 140 131 125 118 114 108  96  89  85  80  69  57  64  79  98 113 125 128 136 139 139 138 129 118 110  92  87  82  72  63  54  39  37  52  58  44  32  31  53  70  90 106 107 116 113 126 139 164 168 168 169 167  87  32  37  35  38  10 111 246 248 248 244
 245 245 245 245 249  95  46  49  47  36  91 203 165 162 140 147 164 165 158 108  80  74  67  84  81  91  91  81  99  99  95  97  93  91  92  96 106 119 120 119 118 139 133 126 115 132 140 142 143 143 136 130 106  88  89 108 126 141 161 173 186 204 208 213 214 218 207 191 187 178 173 164 152 141 133 148 157 153 169 171 168  73  38  37  35  38  15 196 244 240 241 243
 245 245 245 245 250 128  39  51  37  53 162 159 176 150  25  15  13  27 124  81  88  85  85  85  90  83  94 103  97  59  48  43  50  52  62  72  73  69  84 104 112 110 114 157 162 147 145 148 143 144 138 137 151 173 199 217 198 182 168 157 151 148 147 144 147 155 151 157 162 161 170 182 192 204 216 225 228 227 222 190 181  72  32  38  38  26  22 243 245 241 241 243
 245 245 245 245 250 159  36  41  31  96 152 172 166 127  59  39  16  46 120  88  86  82  82  84  84  85  90  68  44  60  49  39  33  46  51  37  69  76  76  73  87  88  89 114 139 109  97 104 113 120 123 108 140  94  81  69  58  66  83  96 102 107 109 114 120 126 136 134 140 117 104 110 118 121 127 120 131 145 139 171 199  73  22  40  40  14 101 250 244 243 243 243
 245 245 245 245 246 197  25  24 119 151 179  95 127 133 147 148 141 115 107  99  86  84  81  78  82  79  43  59  82  62  43  43  44  49  42  90  75  71  76  78  82  88  94  99 114 100  91  82  87 109 119 125 140 105  92  85  87  91  93  84  80  67  66  72  75  74  92 126 141 134 126 126 128 132 135 145 158 163 187 170 146 122  21  40  36  16 223 248 243 243 244 244
 245 245 245 245 246 226  43  27 127 181 169 160 185 146 148 144 123 107 106  83  86  83  80  64  72  38  46  89 105  47  42  45  45  47  40  80 106  81  78  75  81  85  99  88  65  77 130 151 142 128  98  93 136 101  90  84  82  85  91  90  84  83  85  89  92 100  91  82  99 129 126 126 128 130 131 120 155  49  40  60 135 130  22  43  29  18 246 247 243 244 245 245
 245 245 245 245 246 247  72  30 107 119 181 188 184 148 129 131 124 113 106  84  84  82  65  68  43  43  57 105 111  74  37  47  46  46  41  73 103  83  74  73  76  87  94 125  41 118 157 159 161 150 103  45 110 100  90  83  77  84  97  93  79  78  84  94  92 106 146 109  90  95 124 124 127 127 129 131 159  46  48  59 121 141  24  43  19  45 250 247 243 245 245 245
 245 245 245 246 248 239 172  57  52  30  21  85 169 151 148 140 100  99 102  88  81  74  68  53  38  42  47  96  90  83  40  48  42  38  42  93  92  74  62  67  63 108 124 104  63 141 170 178 171 155 127  30 123 126  73  83  86  93 114  64  67  86  78  83  92 109 152 149  85  82 109 121 122 128 129 119 164 147 133  88  64 146  42  40  15 134 250 244 245 245 245 245
 245 245 247 240 207 187 184 120  51  54  33  94 177 158 151 144 117 101  99  80  76  68  52  46  68  70  73  81  94  97  86  54  72  75  78  93  91  83  71  67  61  76 104  54  99 169 185 186 173 171 148  46  95 153 113 102 103 106 112  85  65  56  59  81  78 117 154 134 104  79  89 110 119 125 127 107 170 121 112 134  70 139  59  30  16 206 249 243 245 245 245 245
 245 245 248 190 136 140 137 119  77  53  30  92 180 166 159 141 120 102 102  81  65  57  71  93 103 103  95  94  97  97 105 112 104 101  96  91  87  88  75  66  63  60  51  44 152 190 204 202 193 180 167  82  80 145 115 115 109 109 108  97  79  70  59  63  79 116 115 117 112 108 104 111 118 122 126  90 180 219 223 224 199 133 106  13  37 239 244 244 245 245 245 245
 245 246 224 133  88  85 111 116 109  36  35  97 176 166 159 144 125 105 104 101  92 105 111 107 107 109 107 103 101 101  99  96  93  89  88  84  73  56  59  64  74  85  78  86 173 189 210 209 191 186 180 150  54 157 111 108 107 102 100 100  98 101 108 109 108  94 110 113 116 122 122 121 121 122 126 119  96 107 106  86  92 175 111  16 117 249 244 245 245 245 245 245
 244 248 189  92  95  97  91 116 127  40  49  99 173 164 162 151 123 118 112 122 136 121 102  85  88  96  94  97  99 101  96  93  93  81  61  54  54  59  67  76  81 104  58 137 182 196 200 201 196 192 181 168  72 160 107  81  82  83  90  95 100 101 103 103 104 107 109 110 111 111 123 125 124 124 126 128 126 126 130 141  41  33  64  28 223 248 245 245 245 245 245 245
 241 242 167  93  96  95  95 108 124  63  47 102 168 163 159 154 133 131 108 103  81  93 131 162 213 205 184 152 118  79  56  26  24  21  22  26  40  64  67  79  98  92  92 150 184 206 198 194 186 186 181 164 124 104 116  94  86  83  72  77  94 100 102 104 106 107 107 109 110 108 101 118 123 127 129 131 137 141 140 174  58  41  34  85 250 245 244 245 245 245 245 245
 226 219 156  83  98  92 119 100 113  89  33 102 170 160 159 155 155 145 137 124 111  91  70  48  39  31  43  72 108 142 148 158 146 143 133 131 127 119 115 111 100  83 123 150 172 177 188 190 186 181 174 167 158 101 120 110  93  71  70  81  87  89  96  97 103 107 105 104 106 113 115 114 119 131 133 132 141 147 153 184  51  46  68 151 216 241 246 244 245 245 245 245
 149 143 165  83  97  95 126 122 105  98  34 104 169 160 160 159 159 160 159 158 159 151 127 105  95 104  98  84  84  74  68  55  60  62  65  63  91  99 105 104  91 101 132 161 172 183 188 190 186 179 174 170 167 131 109 115 110 114 111 103  98  96  96 104 107 105 120 120 122 122 124 133 134 132 132 134 141 152 159 185  40  59 126 142 152 155 250 244 245 245 245 245
 190 207 162  88  96 113 138 121 113  98  45 100 163 158 160 162 164 171 179 182 178 170 165 152 131 110  99  99  95  90  94  86  87  95  95 101 112 112 108 104  87 121 146 174 183 189 193 192 187 181 177 173 171 149 117 117 115 114 110 109 105  95  99 106 105 118 117 122 130 127 126 132 133 133 135 134 144 158 163 185  41  91 134 129 101 105 188 250 244 245 245 245
 249 249 174  87  95 122 138 132 117  92  46 108 157 158 160 162 164 184 190 194 192 191 190 189 172 153 130 111 108 106 107 119 128 132 133 137 128 118 112  95 116 144 171 183 197 198 197 197 191 186 181 176 172 165 133 120 117 115 116 117 114 110 109 103 113 110 103 112 120 129 137 139 139 138 141 142 146 157 162 187  27  91 131  79  86  59 130 250 244 245 245 245
 244 248 178  87 104 133 129 108 104  73  52 105 158 160 162 162 176 186 191 191 191 188 186 182 179 170 165 161 154 155 163 164 166 171 161 151 133 120 120 124 134 160 179 190 194 196 198 199 201 189 183 181 175 169 150 138 122 120 119 120 122 126 126 125 124 128 134 136 142 147 146 146 152 154 149 149 152 158 161 183  24 104 115 101  92  66  90 248 245 245 245 245
 244 247 184  95 100 140 113  91  68  72  50 102 162 161 163 169 177 182 186 189 189 189 184 177 183 189 201 204 208 204 196 180 179 168 159 138 134 124 125 123 139 165 184 187 190 192 194 197 196 189 184 181 178 168 157 144 131 132 127 125 127 127 137 135 141 146 146 145 144 147 149 150 151 153 154 151 153 159 164 180  29 110 127 104  92  67  81 244 245 245 245 245
 244 246 209 105  99 145 103  77  73  77  53 103 161 163 167 171 174 176 181 185 189 185 194 206 216 225 223 219 213 203 182 175 167 160 153 132 129 123 123 125 139 161 175 182 185 188 189 186 181 183 181 180 177 168 157 143 134 128 130 128 131 136 140 144 146 149 152 155 154 145 148 152 153 154 155 154 152 162 167 177  29 117 135 102  92  74  84 248 245 245 245 245
 245 246 244 119 107 141  98  73  65  96  57 105 162 164 171 172 172 174 178 187 193 209 212 215 216 218 213 205 187 182 174 172 160 146 140 124 114 104 118 138 160 170 173 177 182 184 183 183 180 179 178 178 176 170 158 136 133 113 114 117 133 136 141 145 149 152 155 158 164 175 167 158 154 156 157 156 155 166 168 172  31 127 136  98  92  71 100 250 244 245 245 245
 245 244 248 148 108 144  98  69  61 117  63  99 166 166 171 172 167 166 175 188 199 206 209 207 209 206 192 188 182 172 162 151 141 129 106  87  88 119 143 171 177 174 171 170 172 166 169 170 177 175 174 173 174 170 164 157 145 131  89 100 110 126 135 142 149 152 155 159 164 168 174 176 167 159 159 162 160 169 170 166  28 145 136 107  93  69 123 250 245 245 245 245
 245 244 249 204  98 147 110  75  68 128  63  99 166 170 171 169 166 164 173 184 196 203 204 198 190 179 175 168 161 153 143 136 122 106  97  72  77 124 163 167 171 172 166 167 162 160 155 158 159 162 164 158 171 170 168 167 168 156 109  75  96 114 131 138 141 153 154 160 162 166 172 174 178 162 163 164 166 168 169 153  27 145 138 106  96  72 184 250 245 245 245 245
 245 245 244 243 147 156 109  79  78 124  36 109 159 171 170 170 161 160 167 180 180 173 179 176 171 166 160 152 138 121 126 122 119  94  81  61  68 131 160 165 167 164 163 161 162 152 143 137 141 145 153 157 164 167 165 162 165 164 140  47  70  94 107 128 138 144 153 155 158 165 170 173 176 173 168 164 165 166 173 140  24 129 136 107  94  78 246 246 245 245 245 245
 245 245 245 249 164 158 121  84  67 119  63 106 146 176 170 168 157 155 162 171 173 170 164 158 153 149 139 127 131 124 116 105  99  82  62  62  61 132 135 144 144 137 141 146 138 132 135 128 130 134 146 146 155 160 157 151 162 157 152  50  67  76  99 111 117 140 142 152 157 161 167 171 174 174 171 165 166 168 172 137  28 121 138 111  88 109 250 245 245 245 245 245
 245 245 245 247 222 147 134 111  93 113  67 100 146 171 169 165 147 148 152 157 157 155 150 141 134 129 124 128 121 115 113  97  88  77  58  58  51 115 122 116 119 111 114 112 111 120 118 120 122 125 119 142 142 146 144 145 148 151 150  54  61  71  86 101 112 130 137 145 153 153 164 167 172 173 168 165 166 168 168 131  28 112 143 112  92 171 249 245 245 245 245 245
 245 245 245 244 240 140 128 167 190 116  69 103 139 167 168 151 143 143 147 148 140 136 130 123 126 121 120 118 113 106  94  93  78  64  61  60  53  88  95 104 100 100  93  95  97 104 108 113 114 117 129 131 131 127 126 128 131 130 117  67  66  62  77  91 102 121 129 137 145 149 159 157 167 173 170 164 164 166 165 129  29 113 138 109 102 240 245 245 245 245 245 245
 245 245 245 244 248 157 116 195 187 104  80  83 131 169 152 148 128 139 145 141 136 128 124 122 119 115 112 111 109 104  93  84  66  64  63  65  65  73  79  82  78  75  77  88  97  99  98 108 107 109 114 123 121 115 113 115 114 111 100  85  66  67  72  86  96 113 119 132 136 143 151 152 161 170 171 163 163 164 167 124  32 112 139 113 184 249 245 245 245 245 245 245
 245 245 245 245 250 164 159 198 159 113  84  94 123 157 155 135 130 131 133 130 128 125 118 113 110 110 110 106 103  96  90  66  71  68  68  73  73  73  62  43  49  46  39  25  74  87  89  93  98 103 105 106 111  91  55  54  76  93  96  93  82  61  68  73  90 106 117 124 131 139 146 151 157 168 168 162 161 162 166 108  30 114 153 136 244 244 245 245 245 245 245 245
 245 245 245 245 247 197 188 216 170 120  63 102 108 148 142 125 121 125 126 124 119 112 111 108 106 107 106 101  96  92  86  72  72  74  76  76  78  77  71  55  54  55  56  56  57  74  83  84  89  92  98  98  90  68  77  77  88  99 106  98  90  76  71  73  83  95 108 119 128 135 142 150 152 164 166 164 160 156 153  95  35 119 149 202 244 244 245 245 245 245 245 245
 245 245 245 245 245 219 231 207 169 122  65 108 116 128 131 116 118 119 115 117 115 113 110 105 102 101 100  97  94  89  83  78  77  78  80  81  79  77  62  56  53  51  54  57  59  53  71  78  82  84  89  85  73  72  76  87  92 105 108 107  97  85  69  70  80  89 102 114 124 131 139 141 147 157 163 162 155 158 140 101  37 135 137 250 245 245 245 245 245 245 245 245
 245 245 245 245 245 242 228 185 155 137  83 119 112 126 119 119 114 109 110 113 112 108 104 101  98  97  96  94  91  90  81  77  78  79  80  79  79  75  60  54  49  46  47  51  55  56  62  74  75  71  63  52  42  59  73  82  96 104 104 102  99  87  73  73  76  87  99 109 118 126 133 138 143 149 155 155 148 146 140  91  45 160 161 248 245 245 245 245 245 245 245 245
 245 245 245 245 246 235 209 159 159 136  89  94  98 112 117 115 101  94 100  99  96 105 101  98  96  94  93  91  90  85  78  76  74  75  77  80  75  69  49  53  45  40  37  33  40  45  47  50  46  39  38  37  43  44  62  68  74 103  97 102  91  86  79  74  74  84  96 108 113 125 129 130 140 147 148 148 146 141 126  87  47 168 197 247 245 245 245 245 245 245 245 245
 245 245 245 245 246 233 181 159 162 119 107 105  95 112 108 110  93  78  88  88  85  83  94  94  93  93  92  92  89  85  75  73  73  69  73  72  66  57  52  48  44  38  35  34  33  38  44  51  40  41  40  41  43  46  52  54  51  88  90  93  85  79  79  73  71  79  93 100 113 119 125 129 131 140 139 138 148 136 117  74  49 173 220 243 245 245 245 245 245 245 245 245
 245 245 245 245 246 245 159 149 148 117  82  96  93 105  96  98  76  82  81  80  81  85  90  93  92  91  90  88  85  77  73  68  63  57  54  56  56  52  50  47  41  37  35  34  35  37  42  48  47  41  40  44  45  47  51  54  56  69  76  82  69  76  76  72  69  76  95 104 113 117 122 125 130 129 128 131 130 124 111  78  53 178 228 244 245 245 245 245 245 245 245 245
 245 245 245 245 245 249 166 136 134 105 101  94  92  91  91  88  64  63  74  70  70  77  86  93  92  90  88  88  82  73  66  58  54  47  43  49  50  47  47  46  40  36  37  40  40  40  42  45  47  44  42  46  48  51  53  53  55  69  67  66  56  61  70  70  67  68  92 104 110 116 117 121 121 122 120 115 114 109 106  69  60 174 227 243 245 245 245 245 245 245 245 245
 245 245 245 245 244 247 233 134 116 103  93  97  93  90  86  86  70  68  72  71  65  72  87  91  92  90  88  85  79  72  60  49  42  35  41  51  50  49  48  49  41  39  39  42  45  42  40  48  44  46  47  53  50  53  54  46  67  72  65  63  50  51  52  62  63  55  84 104 112 115 116 116 112 114 114 117  98 100 108  66  72 167 218 245 245 245 245 245 245 245 245 245
 245 245 245 245 245 245 248 206 129 121  82  96  93  87  83  80  77  71  71  68  63  55  85  89  91  90  87  83  77  77  45  43  25  34  38  53  55  48  47  55  52  50  58  68  69  65  68  65  70  76  76  87  89  92  91  98  92  81  70  62  44  44  42  44  51  59  78 101 110 116 117 113 105 102 109 113 108 107 103  77  56 149 233 244 245 245 245 245 245 245 245 245
 245 245 245 245 245 245 247 193 236 188  73  95  94 102  76  76  74  70  70  67  60  54  76  83  88  88  85  79  72  64  31  28  32  36  41  62  63  65  64  67  70  70  70  73  77  83  89  87  83  80  83  89  89  85  86  95 100  98  95  90  60  40  43  39  42  55  75 103 112 116 116 111 103 100 107 113 111 108  98  94  69 146 249 245 245 245 245 245 245 245 245 245
 245 245 245 245 245 245 248 142 231 206  85  80  95 105  78  73  65  67  67  66  63  59  69  80  87  89  86  81  73  52  32  32  29  40  51  61  57  57  59  58  60  57  62  64  65  70  74  72  61  55  62  61  47  55  50  45  53  63  75  80  67  50  42  41  39  51  77 106 116 117 110 107 103  91  98 107 114 104  97  69  82 216 247 245 245 245 245 245 245 245 245 245
 245 245 245 244 244 244 246 180 240 194 100  78  90  90  79  64  53  62  65  67  62  58  66  75  83  88  89  84  75  45  42  36  31  27  21  31  45  52  63  67  71  74  59  66  87  89  72  69 110 119 103  94 110  90  89  67  45  39  23  27  31  24  40  44  45  54  81 109 115 118 113  88  87  91  91  84 101  89  91  45 140 250 244 244 245 245 245 245 245 245 245 245
 243 243 245 245 244 244 234 150 240 184  82  75  77  81  78  70  51  60  63  62  59  55  57  69  85  86  89  85  82  61  47  43  33  18  22  23  44  54  76  76  80  96  84  92 118 130 133 120 144 145 140 128 135 111 122  87  85  33  21  20  17  20  43  49  55  68  87 113 115 116 107  80  77  92  86  78  81  76  73  26 174 250 244 245 245 245 245 245 245 245 245 245
 243 243 245 245 244 243 234 172 225 184  72  79  65  65  74  76  56  61  60  58  55  54  47  64  81  83  86  91  83  64  62  52  48  30  17  21  43  49  85  79  85  94  96  98 121 143 138 136 140 142 145 135 137 108 123  90  95  39  22  14  33  44  51  60  68  80 100 112 116 113 110  75  73  74  81  78  78  79  70  22 207 249 244 245 245 245 245 245 245 245 245 245
 244 244 245 245 245 244 217 176 226 144  74  89  72  70  72  72  68  63  59  55  52  52  53  56  78  81  88  92  90  87  65  60  59  58  45  23  28  35  64  62  83  91  92  98 119 137 139 137 138 138 137 138 133 103 120  87  79  41  15  42  58  68  64  71  77  89 108 115 115 108  95  78  66  71  77  76  73  75  64  31 230 244 245 245 245 245 245 245 245 245 245 245
 245 245 245 245 245 248 178 191 203 117  21  88  74  74  72  69  68  63  57  53  51  49  52  58  69  81  88  93  90  88  70  68  71  75  68  59  34  25  52  42  87  93  84  92 109 129 132 128 131 132 120 107  86 101 117  67  54  18  55  72  95  83  74  75  83  95 112 117 115 108  91  66  62  65  70  74  73  70  44  82 239 245 245 245 245 245 245 245 245 245 245 245
 245 245 245 245 244 248 125 195 190  90  21  87  80  63  68  68  66  61  56  53  50  48  50  53  69  80  89  93  90  83  78  77  79  83  86  79  76  72  65  63 102 103  86 102  86 128 133 115 104 113 120 126  87 120 113  45  43  62  82 106 106  91  82  78  85 101 114 117 113  97  86  64  63  62  65  67  69  67  35 133 246 244 245 245 245 245 245 245 245 245 245 245
 245 245 245 245 244 248 118 194 200  68  32  81  71  65  64  66  68  63  57  51  49  47  46  56  72  78  91  91  87  83  82  83  82  88  89  89  91  94  95  82  96  98  88 114  91 132 134 128 104 114 125 133  97 108 101  98  90  99 113 112 112 100  85  83  93 104 114 116 117  93  78  61  60  60  61  61  69  61  17 172 250 245 245 245 245 245 245 245 245 245 245 245
 245 245 245 245 244 249 159 201 199  53  40  68  69  63  60  62  63  62  59  52  48  47  48  51  67  79  86  87  86  84  83  84  87  88  93  98  99  98  98  98  99  98  95 106 104 115 121 111 109 104 115 118 103 100  99 102 110 116 126 120 116 110  91  91  96 105 113 114 114  94  79  63  60  57  58  56  52  51  29 193 250 245 245 245 245 245 245 245 245 245 245 245
 245 245 245 245 244 250 152 208 186  36  50  57  73  61  57  57  57  57  58  55  46  45  46  46  66  77  85  86  85  82  82  85  87  88  94 104 106 108 106 106 105 109 106 109 109 111 111 113 111 110 107 105 110 113 115 120 126 130 129 125 119 113  85  97 104 107 111 113 108 100  75  73  66  60  57  54  52  34 102 198 250 245 245 245 245 245 245 245 245 245 245 245
 245 245 245 245 245 250 181 222 184  28  52  50  78  67  55  53  51  51  52  51  46  43  45  47  62  77  85  85  83  81  82  86  87  89  94 100 105 109 110 109 109 109 109 110 112 114 115 117 117 116 118 117 120 120 127 133 132 131 128 125 121 109  97 100 106 110 111 114 102  90  84  72  71  58  56  53  53  24 161 207 248 245 245 245 245 245 245 245 245 245 245 245
 245 245 245 245 245 246 181 224 185  20  50  43  80  73  47  52  49  48  47  46  44  42  44  48  56  74  81  83  80  79  80  84  88  88  88  97 102 107 108 108 107 109 106 106 112 114 117 118 120 118 117 117 119 122 129 133 135 133 130 123 119 112 106 106 108 111 111 108  97  86  74  73  66  62  60  58  54  62 193 210 248 245 245 245 245 245 245 245 245 245 245 245
 245 245 245 244 246 225 156 215 124  27  50  37 100  95  59  50  47  45  43  42  41  40  42  47  48  64  76  81  76  75  79  83  87  87  90  94 100 101 102 102 106 100  98  98 102 102 101  98 104 109 112 112 116 123 128 133 135 133 128 121 115 111 105 106 108 108 108 100  88  82  63  52  58  59  59  60  28 130 203 209 248 245 245 245 245 245 245 245 245 245 245 245
 245 245 245 244 246 208  28  26  51  49  52  30 112 155  94  44  46  43  39  37  39  39  40  44  48  62  73  76  77  74  73  83  87  87  87  94  97  99  98  94  92  91  90  90  87  86  92  89  89  91  96 109 111 117 125 131 132 130 125 119 112 109 105 103 105 108 107  94  75  62  57  50  48  52  54  55  19 180 202 216 246 245 245 245 245 245 245 245 245 245 245 245
 245 245 245 245 250 167  30  63  59  53  51  31 104 161 110  59  43  42  38  38  35  35  38  41  50  61  64  70  72  69  67  82  87  86  87  89  94  97  97  93  86  76  76  77  76  76  77  77  74  83  82  87  96 110 119 125 128 128 121 117 111 108 106 104 100 105  99  84  69  56  50  46  45  46  50  45  56 200 202 227 244 245 245 245 245 245 245 245 245 245 245 245
 245 245 245 245 250 135  33  66  60  52  50  48  90 166 117  93  41  41  39  38  36  36  38  41  48  58  60  60  65  68  70  79  85  87  87  89  91  94  99  90  85  79  76  75  72  70  62  69  71  74  76  84  92 106 115 119 124 117 117 113 110 109 106 102  96  91  95  82  61  53  46  40  41  46  47  22 143 205 201 233 244 245 245 245 245 245 245 245 245 245 245 245
 245 245 245 245 250  88  48  64  62  53  49  53  90 167 126 106  68  37  39  38  38  38  38  40  44  51  55  57  61  64  67  74  83  90  90  89  91  93  94  91  88  85  76  72  72  71  68  69  70  73  78  81  90 108 114 117 117 117 113 111 111 111 103  96  93  91  85  68  62  52  43  38  38  43  28 127 204 201 196 239 244 245 245 245 245 245 245 245 245 245 245 245
 245 245 245 244 244  52  48  61  51  33  36  48  90 173 129 110  97  55  42  38  39  39  36  37  39  44  49  53  53  56  60  67  80  92  98  98  96  96  96  93  94  86  82  70  69  73  58  62  69  64  82  83 104 110 114 115 112 111 111 114 113 111 100  91  83  81  81  67  63  52  42  36  38  25  48 188 200 203 191 241 245 245 245 245 245 245 245 245 245 245 245 245
 245 245 245 247 223  37  42  32  18  22  39  80  95 169 136 119 100  76  43  38  37  37  36  35  35  41  43  44  45  45  52  55  74  93 101 108 104 102 104 104 104 111 117 113 109 105 104 102 102 106 115 116 110 113 115 114 114 114 113 119 118 109 101  89  69  65  61  63  62  52  44  35  37  17 124 202 200 203 191 244 245 245 245 245 245 245 245 245 245 245 245 245
 245 245 245 249 191  24  35 133 207 240 240 172 188 159 141 111 102  84  45  41  38  36  33  30  31  36  38  38  36  42  49  56  75  95 103 110 108 109 108 110 115 118 116 118 116 113 110 113 116 122 129 136 135 121 113 119 117 121 124 125 116 105  94  76  70  58  55  55  55  51  44  39  27  49 171 203 201 204 192 246 245 245 245 245 245 245 245 245 245 245 245 245
 245 245 245 248 168 167 248 250 245 198 162  83  67 153 138 115  94  81  73  48  37  34  33  29  30  34  33  33  36  40  49  65  71  95  98 116 117 117 114 116 117 118 117 116 113 110 109 114 117 126 127 132 134 134 129 125 134 134 133 128 117  88  82  65  59  52  47  45  46  46  44  43  47 109 190 198 202 205 191 249 245 245 245 245 245 245 245 245 245 245 245 245
 245 245 245 247 244 250 244 196 125  42  16  28  18 152 135 114  95  79  73  64  41  33  31  29  29  31  31  31  33  35  52  64  65  87 100 113 115 115 116 119 120 116 114 112 109 110 109 113 114 115 123 129 133 134 133 135 134 134 132 113 103  77  61  50  45  42  42  40  38  41  42  48  86 137 194 201 203 206 192 249 244 245 245 245 245 245 245 245 245 245 245 245
 245 245 245 245 244 249 223  72  40  34  23  24   8 146 131 113  96  84  72  68  52  32  30  28  28  27  28  30  34  40  49  54  67  84  93 111 113 113 111 118 118 114 108 102 103 110 106 101 106 112 116 131 132 132 137 136 134 131 129 105  92  77  60  46  37  40  40  39  38  40  38  71 106 153 193 203 204 204 199 248 244 245 245 245 245 245 245 245 245 245 245 245
 245 245 245 245 245 249 125  38  26  24  22  21   9 142 125 112  96  81  71  66  60  41  32  28  28  26  26  28  32  39  43  51  54  66  77  92 105 109 104 108 108 115 106  95  98 101  96  87  92 102 113 118 122 127 122 120 130 122 105  99  79  70  54  41  39  37  37  36  37  39  75  86 124 156 196 203 205 206 204 247 245 245 245 245 245 245 245 245 245 245 245 245
 245 245 245 245 246 241  71  34  24  25  23  21   7 143 122 112  94  78  69  65  60  49  27  29  26  26  27  27  28  33  36  42  51  56  60  77  87  91  90  75  76  77  84  85  99  85  84  85  77  88  85 108 111  94  91 106 108 101  95  90  68  58  46  41  37  37  34  32  30  48  86  95 132 154 204 202 205 204 210 246 245 245 245 245 245 245 245 245 245 245 245 245
 245 245 245 244 247 203  39  30  25  24  22  22   8 145 122 110  95  83  69  64  60  52  39  33  26  26  26  24  27  31  35  37  39  44  56  59  69  70  73  72  68  62  53  59  66  72  75  72  69  77  81  87  91 100  93  91  84  83  78  75  61  52  43  39  36  34  33  23  38  71  96 108 142 152 204 202 205 204 222 247 244 245 245 245 245 245 245 245 245 245 245 245
 245 245 245 245 250 163  49  31  24  23  22  18  10 142 123 111  94  86  76  65  59  53  44  36  29  26  23  21  25  29  31  29  30  37  42  51  54  56  62  68  60  54  52  52  55  56  63  64  63  72  73  74  73  78  82  77  73  68  63  60  50  44  39  36  35  31  31  43  53  86 101 111 150 144 205 203 206 202 226 246 245 245 245 245 245 245 245 245 245 245 245 245
 245 244 244 245 250 151  65  19  20  23  21  17  18 130 121 112  97  83  75  65  59  52  43  38  33  26  21  20  23  26  26  25  25  25  29  40  40  47  54  54  52  48  47  47  49  50  50  47  47  50  62  60  58  56  49  59  52  46  43  42  38  33  34  33  30  23  37  58  73  93  98 123 157 149 203 203 207 200 236 245 245 245 245 245 245 245 245 245 245 245 245 245
 244 246 244 245 250 169 109  22  12  24  21  10  43 124 117 113  98  83  71  64  60  51  45  39  34  27  23  23  21  22  23  24  23  23  25  28  31  40  43  44  46  46  45  43  39  39  45  44  44  48  51  47  47  48  50  43  41  37  32  33  31  32  33  34  32  45  54  79  79 100 109 120 158 157 205 204 206 200 245 244 245 245 245 245 245 245 245 245 245 245 245 245
 169 233 247 232 245 194 138  85  23  24  21   8  86 124 118 114 104  83  70  64  59  53  46  42  39  30  26  23  22  20  20  21  22  21  20  20  21  25  27  31  32  33  34  32  31  30  34  37  41  36  35  35  37  34  30  30  29  27  25  27  29  32  34  34  40  57  65  79  92 101 114 127 160 167 207 204 207 201 249 245 245 245 245 245 245 245 245 245 245 245 245 245
 140 184 182 210 237 121  45 103  51  13  16   9 119 127 122 118 101  89  73  65  60  55  48  43  39  34  27  25  23  21  20  20  18  18  16  17  17  18  20  21  20  21  22  21  20  20  23  23  18  24  25  26  23  24  23  24  23  22  23  27  32  37  38  27  60  69  70  83 104 111 113 132 156 185 207 205 206 198 250 244 245 245 245 245 245 245 245 245 245 245 245 245
 175 141 150 207 147  12  17  51 165 119  19  70 124 132 129 119  99  89  72  67  59  55  50  44  40  35  31  26  23  22  20  19  18  16  15  16  15  16  16  17  16  15  15  16  16  16  17  18  17  18  18  19  19  19  20  19  20  22  23  27  33  40  45  53  67  73  86  90 103 112 124 142 133 119 192 219 221 201 250 245 245 245 245 245 245 245 245 245 245 245 245 245
 203 167 122 194  80   9  21  80 102 158 199 178 135 108 129 119 106  90  80  70  60  55  50  45  40  37  34  29  25  22  20  18  17  16  15  13  14  16  15  15  15  13  14  13  16  16  17  16  16  15  15  13  16  18  20  20  20  23  23  27  32  48  53  60  73  81  86  99 101 116 125 148 101  13  15  40 111 207 249 247 245 245 244 245 245 245 245 245 245 245 245 245
 197 197 149 159  13  14  11 110 169 132 118 114 158 172 144 120 105  97  84  73  63  58  51  47  41  38  35  30  27  24  22  18  16  15  14  14  14  14  15  15  13  13  13  15  16  17  17  17  17  16  16  17  19  19  20  20  23  25  22  26  41  52  58  65  76  85  91  93 111 120 124 152 101   7  17   7   9  17 104 228 250 250 247 245 244 245 245 245 245 245 245 245
 194 214 178  87   8  19   9 123 215 175 167 166 181 169  79 116 108  96  84  77  66  59  53  48  44  39  36  32  29  26  24  20  16  14  13  13  15  14  15  15  15  15  16  17  17  19  20  20  19  20  20  21  22  22  22  23  20  20  38  46  54  59  63  69  79  90  91 105 116 121 138 154  96   8  18  14  16   8  11  22 100 186 242 250 245 244 244 245 245 245 245 245
 222 235 136  20  17  25   9  93 208 148 172 179 210 197  32 114 119  99  88  78  70  63  57  50  46  41  38  34  32  29  25  22  20  16  15  15  15  15  15  15  16  16  17  19  20  21  21  20  21  21  22  25  25  26  28  28  33  45  45  52  57  63  72  78  86  95  99 108 117 123 135 149 100   7  17  16  17  18  14  14  14  13  56 152 245 250 247 245 245 245 245 245
 206 226  96  10  25  26  12  36 171 150 161 200 196 181  52 114 115  99  95  83  73  67  64  56  51  45  41  38  33  30  27  23  21  21  19  17  16  16  16  16  17  17  17  20  22  24  22  21  22  21  22  25  27  29  40  44  46  50  51  56  62  69  77  84  87  99 106 110 117 126 134 144 105   9  16  13  15  15  16  20  20  21  14  16  40 151 240 250 248 245 245 245
 235 198  33   8  23  25  34  37  19  36 105 205 207 169  96 112 115 101  94  84  77  69  65  61  55  49  44  39  34  30  27  25  22  22  20  19  19  18  17  19  19  18  18  16  18  22  23  24  25  26  25  29  32  38  42  47  51  53  58  62  69  77  83  87  94 103 109 115 120 126 133 144 109   7  16  13  13  14  15  17  19  21  24  27  13  14  23 138 231 249 246 245
 245 164  14  17  20  17  24  41  42  29  14  35  86 106  81 111 113 102  95  87  79  73  68  64  59  54  48  43  38  35  29  28  27  24  23  22  22  22  22  22  22  22  22  23  23  24  28  31  32  33  34  37  38  42  46  49  54  57  61  66  72  82  88  94  99 107 113 118 124 128 132 144 122   7  17  13  12  13  14  16  18  18  20  22  21  23  21  20  52 184 242 250
 249 118  13  22  24  47  23  10  21  44  21  54  35  15  24  67 121 106  94  87  81  75  71  66  63  60  54  47  45  40  37  32  28  26  26  26  25  26  24  26  26  27  27  27  29  31  32  35  37  38  41  42  43  46  49  53  59  62  67  72  79  84  92  99 105 107 118 121 125 129 133 139 132   9  18  14  13  12  14  15  16  18  19  20  21  22  21  28  14  15  57 130
