P2
92 112
255
 245 245 245 245 245 245 245 245 245 245 245 245 245 245 245 245 245 245 245 245 245 245 247 250 200  96  97 106 100  49 103 158 177 174 184 187 217 242 238 237 240 242 211 193 176 151 108  75  50  52  47  50  46  44  46  42  23  19  26  28  29  29  29  30  33  35  43  56  52  65  75  51  44  64 191 250 246 245 245 245 245 245 245 245 245 245 245 245 245 245 245 245
 245 245 245 245 245 245 245 245 245 245 245 245 245 245 245 245 245 245 245 244 245 248 226 123  90  89 101 115 129 114 178 190 186 217 238 244 245 240 245 244 245 243 246 232 205 177 154 125 102  90  68  47  47  48  43  38  35  33  29  28  29  29  26  25  25  27  31  35  50  65  81  83  63  48  55 138 247 245 244 245 245 245 245 245 245 245 245 245 245 245 245 245
 245 245 245 245 245 245 245 245 245 245 245 245 245 245 245 245 245 245 245 245 249 199 114 137 114 106  93  78 126 144 201 224 246 240 238 240 242 243 244 245 245 244 244 247 235 204 181 160 146 122 104  82  54  41  41  46  41  34  34  31  31  29  25  24  22  22  22  27  48  47  50  60  69  64  42  65 173 250 244 245 245 245 245 245 245 245 245 245 245 245 245 245
 245 245 245 245 245 245 245 245 245 245 245 245 245 245 245 245 245 245 244 247 168 142 133 115 100  72  58  91 123 197 233 236 235 237 238 238 241 243 244 245 245 244 244 242 241 227 202 184 170 154 142 123 105  83  74  58  61  48  30  38  37  33  29  24  22  21  21  20  42  43  29  40  53  59  51  79 125 220 245 244 245 245 245 245 245 245 245 245 245 245 245 245
 245 245 245 245 245 245 245 245 245 245 245 245 245 245 245 245 244 245 241 163  96 106  90  91  47  50  92  93 156 223 230 234 236 235 235 235 237 239 242 243 243 243 243 241 241 234 224 204 179 168 159 148 139 131 118 105  82  62  47  40  38  43  26  29  24  21  19  20  20  48  41  37  41  56  53  73  86 163 249 245 245 245 245 245 245 245 245 245 245 245 245 245
 245 245 245 245 245 245 245 245 245 245 245 245 245 245 245 245 245 248 156  76  87  84  76  52  64  79 100 128 204 223 228 232 235 235 231 229 226 232 236 239 239 243 244 239 238 238 229 209 199 182 171 163 160 161 149 138 129 118 100  75  58  47  38  32  26  23  22  20  20  37  42  39  34  39  54  67  59  70 245 246 244 245 245 245 245 245 245 245 245 245 245 245
 245 245 245 245 245 245 245 245 245 245 245 245 245 245 245 244 249 177  68  87  67  67  53  57  66  95  91 183 218 219 228 231 231 230 226 221 223 223 224 228 233 229 225 233 232 229 223 218 209 195 181 171 169 162 159 154 154 148 128 113 101  82  64  50  37  31  24  22  21  28  38  39  36  36  43  54  76  52 124 230 246 244 245 245 245 245 245 245 245 245 245 245
 245 245 245 245 245 245 245 245 245 245 245 245 245 245 245 249 200  71  95  75  67  54  57  68  78  95 175 208 225 226 227 228 226 225 219 215 211 209 205 211 214 218 218 217 218 216 212 207 206 200 191 185 175 169 164 160 157 155 157 146 129 112  85  73  57  39  38  15  23  23  36  38  34  36  42  48  92  56 116 130 234 248 245 245 245 245 245 245 245 245 245 245
 245 245 245 245 245 245 245 245 245 245 245 245 245 245 245 242  97  79  77  49  56  55  57  72  89 170 206 226 224 223 223 225 226 227 217 212 209 198 202 202 206 208 207 205 205 206 202 199 196 196 191 190 180 173 169 163 162 162 157 154 151 146 139 128 103  84  51  42  26  25  32  35  32  31  36  43  67  82  96 109 185 233 246 244 245 245 245 245 245 245 245 245
 245 245 245 245 245 245 245 245 245 245 245 245 245 245 247 185  76  71  66  56  56  58  62 104 160 199 227 225 223 221 221 223 224 224 214 208 202 197 193 195 195 193 192 178 175 172 176 180 189 187 185 184 178 174 170 170 165 164 163 161 163 161 155 145 135 121  98  64  44  20  33  34  30  30  29  39  46  59  79  94 112 193 246 244 245 245 245 245 245 245 245 245
 245 245 245 245 245 245 245 245 245 245 245 245 244 245 250  92  66  61  57  56  52  61 115 144 203 226 224 221 221 218 217 216 215 210 211 205 201 198 194 190 183 181 175 178 172 171 174 177 180 182 181 180 175 173 169 167 165 164 165 164 163 161 160 154 151 144 127  90  64  44  37  33  29  28  32  39  42  63  53  34  58 124 217 245 245 245 245 245 245 245 245 245
 245 245 245 245 245 245 245 245 245 245 245 245 244 248 119  67  64  58  57  59  63  68 119 189 213 221 222 221 218 215 212 214 213 212 210 208 203 201 196 191 183 177 168 160 163 165 169 173 174 176 175 171 171 169 167 166 165 165 166 165 163 164 163 161 159 149 144 124  83  58  31  31  28  27  31  37  45  66  79  47  46  47 237 248 244 245 245 245 245 245 245 245
 245 245 245 245 245 245 245 245 245 245 245 245 246 207  78  49  51  60  57  54  78 107 172 210 218 218 220 217 214 210 209 209 211 211 213 210 207 205 202 194 185 175 169 166 163 163 163 168 169 169 170 168 167 165 166 165 165 165 164 163 161 162 165 164 162 158 153 150 112  69  31  31  30  29  31  32  36  52  49  50  50  64 172 250 245 245 245 245 245 245 245 245
 245 245 245 245 245 245 245 245 245 245 245 245 243  81  53  59  58  59  60  65  90 140 194 211 216 218 217 214 209 207 204 204 206 209 212 213 212 210 203 195 186 179 172 167 164 163 164 165 165 165 165 166 165 164 164 164 166 167 165 163 161 160 161 163 163 162 161 156 137 102  41  30  31  34  35  35  35  35  50  57  58  57 173 250 245 245 245 245 245 245 245 245
 245 245 245 245 245 245 245 245 245 245 245 244 221  77  43  58  57  61  65  76 120 161 201 211 216 217 214 210 206 205 204 203 204 206 209 212 215 213 208 193 192 186 178 168 167 167 167 165 165 164 164 165 165 164 165 163 164 165 164 162 160 160 160 162 163 165 165 162 159 138  77  45  54  49  37  37  36  34  42  56  49  53 110 250 245 245 245 245 245 245 245 245
 245 245 245 245 245 245 245 245 245 245 245 250 136  67  55  57  59  65  60  90 148 171 202 213 214 215 213 210 205 203 200 200 203 206 208 212 213 215 210 206 204 196 192 187 183 175 164 167 167 165 164 164 164 164 162 163 161 161 162 161 160 160 161 161 161 163 164 164 164 169 142  72  43  52  36  42  36  36  39  56  71  75  28 247 244 244 245 245 245 245 245 245
 245 245 245 245 245 245 245 245 245 245 244 230  79  60  58  58  60  66  72 109 161 194 211 215 214 212 210 205 201 198 197 198 201 208 213 216 218 217 217 221 219 210 199 197 195 190 185 180 172 168 165 163 163 163 162 161 159 159 159 159 159 159 159 159 160 161 164 165 165 166 170 151 139 146 130  72  41  32  34  39  51  90  20 222 246 245 245 245 245 245 245 245
 245 245 245 245 245 245 245 245 245 244 248 199  61  66  59  60  66  67  95 139 171 209 217 215 213 212 205 202 198 199 199 201 205 211 217 220 225 223 222 222 219 218 210 210 203 201 196 187 178 170 166 164 162 162 162 162 160 158 157 156 157 156 157 155 158 160 162 164 164 165 167 173 179 168 160 144 109  60  36  31  27  64  50 176 247 245 245 245 245 245 245 245
 245 245 245 245 245 245 245 245 245 244 247 102  73  52  60  65  71  60 102 153 192 222 215 214 212 208 204 201 198 201 202 206 213 219 223 230 229 228 227 225 221 219 217 214 212 205 198 187 177 170 166 165 162 162 162 162 160 157 156 155 155 155 154 154 156 158 160 161 161 163 164 166 172 171 177 168 151 102  39  32  23  45  79 154 249 245 245 245 245 245 245 244
 245 245 245 245 245 245 245 245 245 245 243  66  67  50  62  66  70  73 115 177 220 216 215 214 209 208 205 203 211 208 213 222 227 229 231 231 230 229 225 222 221 220 217 215 210 205 195 184 177 172 167 166 165 164 161 162 161 159 156 154 154 153 152 152 154 154 157 159 160 159 160 163 168 172 173 175 166 157  59  41  36  13 107 170 241 244 245 245 245 243 243 243
 245 245 245 245 245 245 245 245 245 245 211  62  53  61  62  67  71  81 155 215 217 217 213 211 207 209 212 219 231 240 239 239 238 233 230 228 228 225 221 214 212 214 211 210 206 200 189 183 177 172 168 165 164 164 162 162 161 159 156 154 154 151 148 149 151 151 153 156 157 159 159 160 164 169 174 174 168 168  99  19  40  14  67 201 235 244 245 245 245 243 242 241
 245 245 245 245 245 245 245 245 245 245 193  57  53  60  60  68  64 108 202 214 215 213 210 208 208 212 221 229 236 234 239 240 238 235 231 228 219 215 208 203 196 191 187 187 185 183 183 180 175 173 169 166 164 165 163 161 160 159 158 156 155 153 150 150 151 151 153 154 155 156 157 160 163 167 170 172 172 174 130  20  48  32  21 227 243 243 245 245 245 243 243 243
 245 245 245 245 245 245 245 245 245 249 153  46  55  60  60  63  67 167 221 215 214 211 209 207 211 217 229 229 211 195 182 180 187 182 179 179 178 188 186 184 175 173 161 164 171 166 174 174 175 173 170 166 165 165 164 163 162 160 159 159 159 154 152 151 152 152 152 152 153 154 157 159 161 166 169 171 171 172 148  28  49  43  15 229 243 243 245 245 245 243 243 243
 245 245 245 245 245 245 245 245 245 249  82  43  61  60  61  47  99 210 216 217 214 211 207 207 214 223 215 179 153 135 135 141 135 130 125 119 115 119 130 131 148 152 158 157 158 162 166 168 169 170 167 165 165 165 166 165 165 164 162 161 161 158 158 154 153 152 153 152 152 151 153 157 160 163 168 170 172 167 137  53  35  42  13 215 244 243 243 244 245 245 244 243
 245 245 245 245 245 245 245 245 245 218  51  52  60  60  63  42 151 225 229 213 215 210 206 205 200 171 137 113 114 111 107  89  76  74  76  68  67  58  65  75  90 100 122 131 142 148 157 163 164 163 162 161 162 164 166 168 166 166 166 166 165 161 161 158 156 154 155 154 152 152 152 154 157 162 166 168 170 174 128  67  33  40  11 176 247 243 243 243 243 245 243 243
 245 245 245 245 245 245 245 245 250 148  40  62  60  60  55  61 206 247 249 237 232 233 217 172 150 141 128 110  98  85  82  65  57  48  43  47  46  50  50  51  64  78  97 106 125 137 148 155 158 158 156 155 158 162 166 169 168 167 167 167 166 164 163 162 160 157 156 155 154 155 154 155 157 159 164 168 169 172 130  83  34  39  11 131 248 242 244 243 244 242 241 243
 245 245 245 245 245 245 245 244 245  66  63  64  59  49  54 155 245 244 218 188 176 142 139 144 157 146 120  89  72  76  74  64  58  53  48  47  47  49  51  52  59  75  90  88 115 122 140 146 147 149 152 152 155 160 165 167 167 166 165 163 164 164 165 164 163 160 158 156 156 156 154 155 157 159 162 163 168 176 138 107  24  38  16 101 248 241 242 242 242 241 240 241
 245 245 245 245 245 245 245 245 236  45  71  60  74  43 167 203 245 248 198 215 217 210 203 160 148 133 148 146  82  58  54  48  42  42  47  49  50  49  48  54  59  64  80  89 103 113 132 133 141 145 143 144 151 155 161 161 162 162 159 158 161 162 163 163 163 162 160 158 157 156 156 157 157 157 159 162 166 171 145 117  25  40  19  51 243 243 244 243 238 237 236 224
 245 245 245 245 245 245 245 247 220  43  63  47  69 138 210 244 250 241  38  29  84 175 174 152 134 136 141 153 165 152 122  99  89  78  70  62  55  53  51  55  62  70  80  84  99 114 124 128 130 137 135 139 146 149 151 151 154 155 154 155 158 160 161 161 161 164 163 162 159 156 155 154 156 156 157 159 162 163 164 137  35  32  27  27 223 221 223 225 224 221 224 224
 245 245 245 245 245 245 245 248 197  27  30  71 131 207 241 248 193 114  85  58  29 107 148 130 113 105  97 110 110 140 155 144 123 115 101  84  74  68  68  65  68  76  82  88  99 117 121 125 130 130 131 129 141 147 146 145 146 145 143 147 153 156 158 159 159 163 164 162 159 156 154 152 154 155 156 159 161 162 167 162  42  33  28  63 186 213 209 207 194 173 147 134
 245 245 245 245 245 245 245 248 184  18  63 175 200 154 162 244 228 198 175 188 146 162 118 110 101 101 105 116 127 126 129 134 149 127 111 121  95  80  73  75  80  86  89  97 105 112 118 120 126 126 125 129 131 133 137 144 137 135 132 141 147 149 154 154 157 160 163 163 162 158 154 151 151 152 156 159 161 162 166 168  63  38  39  42 138 114  97 136 134 166 197 222
 245 245 245 245 245 244 245 249 163  18 126 145 207 232 197 224 237 249 249 180 139 149  97  90  94  98 102 100  82  72  77  59  55  66 107 111 117 113  79  76  81  87  92 100 109 113 119 122 124 124 122 116 122 123 120 110 124 123 123 122 132 143 143 147 153 150 160 161 163 161 155 151 150 152 156 159 160 163 162 166  86  30  44  19 166 198 223 245 248 248 246 242
 245 245 245 245 245 245 249 249 227  95 127  31  19  22 149 150 154 146 162 194 177 102  82  94  96  97  96  96 109 113 112 113 112 104  93  80  90 116 132 123  71  76  94 102 111 117 122 123 125 124 121 118 119 120 120 116 112 112 108 116 119 111 115 133 139 151 152 159 162 161 157 152 152 151 155 158 160 161 159 161  99  29  43  16 209 235 243 244 241 242 241 242
 245 245 245 244 245 237 218 224 236 180  67  61  44  67 175 169 169 177 164 118 110  96  93  96 100  89  86  99  71  47  39  40  35  54  71  89  96  84 108 138 153 135  60  93 112 120 126 125 126 125 122 120 119 118 112 108 102  90  89  90  73  68  64  58  82 120 133 156 160 159 157 154 151 152 154 157 159 160 158 148  99  25  44  14 231 241 240 241 243 243 243 243
 245 245 245 245 240 156 116 163 185 189  71  59  59 130 192 179 176 171 150 112 124  91  94  90  71  85  90  72  75  67  65  56  49  43  40  35  70  88  72 101 124 142 167 119 103 119 126 134 137 124 125 124 122 117 110  96  84  88  82  77  70  64  54  45  38  44  88 125 149 162 156 155 154 154 154 156 158 160 159 152 100  17  43  14 229 243 242 242 243 243 243 243
 245 245 244 245 142  98  95 101 153 167  96  48  72 173 192 180 175 164 148 113 122  92  85  80  76  63  71  62  95 101 100  32  46  47  51  55  51  83  80  70  98 109 128 192 194 143 138 140 140 139 129 128 121 112 106  92  87  82  67  55  39  44  46  43  49  53  66 100 119 133 156 155 154 151 153 153 156 158 151 145 105  16  39  13 224 245 244 243 243 244 244 244
 245 245 247 214  90 104  99  92 143 150  97  49 100 205 185 178 172 158 145 127 121  73  67  71  55  43  51  73  86  95  91  46  48  48  50  49  69  87  81  80  77 100  94  96 185 199 169 151 148 144 141 131 121 107 101  92  86  80  71  60  53  50  46  45  47  50  51  69  86 100 116 155 151 151 152 153 154 155 150 122 114  19  38  16 211 247 243 243 245 245 245 245
 245 245 249 160  84 107 101 119 126 155  78  53 149 217 191 178 163 151 151 145 145 112  84  81 103 118 107  91  88  88  97  40  50  48  49  44  80 108  71  79  79  95 101 101 116 167 129 147 200 161 145 128 114  88  95  92  88  82  75  70  61  54  49  48  47  47  47  60  73  66  76 136 157 153 153 152 152 154 156 117 105  19  34  17 185 247 243 245 245 245 245 245
 245 245 247 117  94  96 129 137 112 155  78  69 182 215 197 178 165 156 156 167 167 159 133 114  98 105 106  95  89  87  86  63  45  39  46  47 105 108  83  76  78  87  96  97 141 145 165 164 141 147 166 189 164 129  95  68  58  56  67  77  63  62  61  53  44  49  50  55  68  78  79 102 154 152 152 151 152 152 158  92  90  19  32  14 131 248 243 245 245 245 245 245
 245 248 234 102 100  99 156 143 114 151  76  89 206 213 196 183 170 158 163 174 183 179 169 156 146 121 100  86  90  83  80  79  90  88  78  79  68  73  76  77  73  86  93 106  86  82  99  99 134 171 155  94 176 223 234 239 221 169 119  55  65  88  82  85  77  61  53  63  68  76  78  73 132 150 151 151 152 152 152  85  69  25  31  13  95 250 243 245 245 245 245 245
 244 247 209 108  88 141 170 141 126 138  61 117 213 208 199 186 166 164 167 179 191 193 189 185 157 157 146 100  75  81  79  76  81  83  83  85  81  76  74  73  63 117 120 136  69 139 172 171 156  99  99 173 166  72  69  63  84 130 200 219 196 142  91  82  86  78  61  56  69  76  77  67 113 155 150 150 151 150 152  67  57  34  28  12  62 248 243 244 245 245 245 245
 244 246 169 108 106 206 167 146 135 124  62 152 213 209 204 194 177 160 169 186 201 222 208 185 145 123  77 132 149 111 103  97  89  88  86  84  84  82  74  74  73  66 127  76 139 206 201 175 161 145  66  87 129  92  86  77  76  69  53  62 104 172 203 215 160 102  72  65  62  77  77  66  88 145 148 149 149 151 146  60  47  32  30  11  34 250 243 244 245 245 245 245
 226 235 136 108 164 200 133 124 121 111  78 183 208 210 209 196 189 187 186 189 198 220 225 231 210 184 140  84  48  74 116 117  93  88  86  84  80  77  77  77  72  96  91 129 214 230 205 178 166 144  60  77  89  80  78  78  80  88  94 106 108 111 106 111 171 220 209 140  77  55  68  70  92 141 148 149 148 147 143  35  35  32  26  17  20 250 244 245 245 245 245 245
 230 222 131 112 207 146 107  89  70  76  84 205 209 210 208 205 201 192 188 187 188 213 228 230 227 206 183 147 110  84  73  75 115 131  92  65  50  68  71  77 104 109 103 209 228 231 209 187 174 152  47 115 100  74  77  75  70  65  70  77  85 104 114 120 110  98 117 181 219 177  93  70  81 137 147 149 147 146 136  26  36  35  31  26  21 250 244 245 245 245 245 245
 220 216 133 128 194 127  94  73  69  89 114 215 210 211 210 210 204 197 189 186 188 196 209 229 231 229 213 191 150 119 106 100  87  88  90 117 140 132 121 119 134  90 184 231 228 234 209 188 178 165  36 125 131  35  43  60  73  75  65  56  51  51  74 109 122 119 114  72  89 136 198 194 118 110 150 150 145 147 121  23  38  32  33  21  34 250 245 245 245 245 245 245
 180 196 140 180 178 109  82 101 170  71 158 207 212 216 215 210 202 192 188 185 185 190 196 217 225 231 226 211 193 161 118  96  96  93  89  97  91 110 128 135 120 151 196 224 233 220 198 190 181 167  43 126  94  50  50  50  81  68  60  59  65  66  59  68  99 116 123  86 101  92  98 135 186 193 153 150 149 147  94  26  34  30  31  13 108 250 245 245 245 245 245 245
 165 196 159 214 166 101  82 155 162  71 183 209 214 216 216 210 200 197 190 183 178 196 204 223 233 238 244 242 229 208 189 166 145 134 134 139 147 153 159 140 134 180 211 219 218 207 191 178 170 158  80 122  90  93  80  64  84  35  39  51  55  71  71  76  51  89 120 109  95 105 101  98 108 137 183 187 158 148  59  32  31  30  26  14 186 249 245 245 245 245 245 245
 169 167 172 221 164 104  75 198  85  95 183 214 213 215 211 207 202 201 201 203 206 205 204 222 228 240 241 242 239 237 235 224 218 208 203 200 201 184 150 144 180 213 229 223 220 201 187 172 166 153 119 115 100  92  93  90  82  59  29  31  42  40  53 103  98  51  86 115 100 102 107 110 104 137 137 150 188 147  44  34  29  31  28  13 229 247 245 245 245 245 245 245
 107 118 211 198 171 115  81 204  71 127 186 210 213 214 209 205 204 205 208 206 201 200 202 211 223 233 235 240 240 239 238 238 225 215 209 205 179 152 158 196 223 239 243 242 225 202 184 168 162 156 129 102 100  81  70  68  70  70  76  48  40  48  58 107 103  57  67 104 102 101 106 110 113 143 126 152 129 160  27  32  31  30  25  94 249 244 245 245 245 245 245 245
 101 114 227 172 195 179 153 165  83 142 192 206 213 211 206 203 206 208 206 200 196 192 193 195 201 207 215 218 225 220 226 219 201 192 178 166 156 161 191 215 238 242 243 244 226 203 185 173 163 156 141 103 100  81  72  66  65  68  71  78  76  68  75  67  71  52  44  85 100 100 103 100 118 146  36  41  88 110  28  33  32  31  18 214 247 245 245 245 245 245 245 245
 118 122 225 158 214 248 224 149  76 148 200 211 210 204 199 199 203 206 208 195 187 182 179 180 180 178 178 179 171 169 156 141 145 126 115 143 140 160 198 219 223 230 238 231 216 199 190 175 165 157 145  94 110  92  76  60  65  69  73  76  77  77  76  76  69  59  40  53  93  96 101  96 142 123  79  62  31 130  23  32  27  14 126 250 245 245 245 245 245 245 245 245
  24 116 226 169 234 235 195 127  92 145 202 203 200 195 192 196 200 201 197 191 180 167 167 160 151 151 149 143 143 135 127 116  94  79 152 155 191 213 219 215 219 221 223 223 208 196 183 176 166 158 155 108 111 107 111  86  77  74  76  76  80  86  85  84  79  83  71  49  75  86  90  90 166 125 136  71  55 126  19  32  32  28 250 247 245 245 245 245 245 245 245 245
  15 151 232 231 234 211 178 102 115 157 196 195 192 188 189 191 192 190 183 172 165 160 155 150 148 145 139 124 121 115 104  93  63 110 156 193 226 237 228 219 216 214 211 205 193 183 178 174 169 167 149 130 108 111 107  99 104 101  83  73  80  83  87  86  79  81  82  74  73  80  86  87 177 189 156 118  64  84  40  32  21 187 250 244 245 245 245 245 245 245 245 245
  14 185 244 245 238 202 180  86 132 155 190 187 184 170 182 184 182 180 170 160 151 146 143 140 135 130 123 118 109 101  89  73  62 118 170 201 215 220 220 209 200 192 192 186 182 176 174 171 167 159 151 134 123 109 113 110  98  96  97 102  90  88  76  87  89  80  85  83  78  81  85  97  96 119 178 170 129  49  36  21  85 249 245 245 245 245 245 245 245 245 245 245
  17 226 247 236 208 191 154  95 139 153 168 187 172 170 174 176 168 162 154 151 140 136 133 124 123 117 110 101  92  78  63  58  42 134 169 175 187 196 199 199 199 193 178 170 175 169 168 167 164 157 144 135 127 124 116 115 118 100  97  89  94 101 112  98  88  99  86  91  89  88  92 105 108 102  84  60 103  25  20  16 200 248 245 245 245 245 245 245 245 245 245 245
  24 243 239 209 171 187 144 111 138 153 159 171 161 161 168 166 161 150 146 136 129 117 123 121 115 115  99  93  84  71  67  64  40 132 147 149 156 160 170 176 178 175 163 157 151 156 161 160 160 154 144 130 124 121 123 123 120 120 114 113 101  99  93  98 108 107 108 107 109 105 107 110 112 101  93  12  88  25  18 117 250 245 244 245 245 245 245 245 245 245 245 245
  31 238 210 184 198 224 121 122 121 148 163 162 160 148 157 153 151 144 139 126 122 117 113 112 110  98  92  83  74  72  71  67  57  96 111 122 118 124 131 148 150 154 149 139 140 143 151 155 156 154 146 138 109 110 127 122 125 124 127 126 126 122 120 117 111 103 105 110 113 115 114 116 117 111  79  15  87  11  22 236 247 244 245 245 245 245 245 245 245 245 245 245
  22 205 186 173 184 163 122 128 127 148 151 164 144 140 144 140 137 129 129 122 117 114 108 105 101  95  88  82  78  77  81  85  82  70  82  86  98 101  96 116 132 125 129 125 130 138 141 146 152 150 151 152 140  88 107 127 134 135 134 134 137 134 132 137 135 127 124 119 119 119 119 121 121 141  48  29  73  13 176 249 245 245 245 245 245 245 245 245 245 245 244 243
  72 166 162 165 158 117 118 125 129 142 135 146 123 123 134 126 122 124 124 113 110 110 107 103  98  92  85  82  81  85  88  88  86  79  55  49  30  24  74 100 114 112 117 119 121 125 128 139 140 142 145 151 161  72  92 116 134 135 139 140 140 139 139 137 138 139 134 129 126 123 124 129 137 149  23  45  20 126 248 245 245 245 245 245 245 245 245 245 245 245 244 242
  91 112 139 121 128 117 118 122 125 124 131 124 112 120 117 115 115 115 116 112 107 106 103  99  95  89  84  84  88  91  91  90  86  78  65  62  66  56  28  76 103 109 106 105 105 115 121 122 125 126 138 149 154  72  79 104 123 134 142 144 147 146 146 141 141 140 138 138 129 127 130 134 142 124  21  44  75 249 249 245 245 245 245 245 245 245 245 245 245 245 244 242
  94  88 119 129 113 105 117 119 118 124 133 123  87  96  98  84 113 114 114 111 107 104 100  95  93  82  82  85  89  92  93  93  82  71  66  62  63  70  68  44  90  94  96  98  99  99 110 110 112 116 125 132 143  70  65  91 115 128 139 146 149 150 150 147 143 140 138 138 137 133 137 139 151  81  48  99 118 210 249 245 245 245 245 245 245 245 245 245 245 245 244 243
  93  93  85  77 108 115 117 122 121 107 118 115  94 103  95  97 108 111 112 109 105 101  97  91  84  80  80  81  86  91  98  83  76  66  65  55  58  62  64  63  78  84  84  85  93  93  96 101  93  97 115 118 123  57  64  85 104 122 137 142 151 152 153 154 152 144 142 140 139 134 139 141 154  38  95 120 132 123 244 246 245 245 245 245 245 245 245 245 245 245 244 243
  93  92  94  93 101 115 120 127 146  80 110 114 100  97  93  83  85 115 111 107 101  98  93  86  78  74  73  74  69  74  71  64  61  65  61  46  45  49  56  61  68  77  76  83  85  88  79  55  40  50  72  93  93  60  71  82 100 113 124 138 148 151 155 159 160 154 145 143 140 138 142 143 140  17 122 103  84  85 205 246 245 245 245 245 245 245 245 245 245 245 245 245
  93  93  93  94  96 118 125 134 129 101  89  98  98  99  84  80  87 109 109 108 102  98  91  85  71  62  58  56  55  57  61  61  63  63  58  45  38  36  40  44  51  61  69  70  70  65  60  62  62  64  83  86  81  65  66  78  91 108 120 134 143 149 153 159 161 159 147 145 144 142 143 154  90  70 100  80  80  53 194 246 245 245 245 245 245 245 245 245 245 245 245 245
  93  93  92  93  96 107 109 114 112  81  85  92  91  92  84  72  92 109 105 104  98  92  81  72  58  47  46  42  51  61  61  59  66  63  45  43  38  36  33  37  44  45  44  44  30  41  61  61  68  77  85  89  86  75  68  76  87 108 116 132 140 145 150 157 159 158 149 147 146 144 143 150  25  86 100  88  83  52 209 246 245 245 245 245 245 245 245 245 245 245 245 245
  93  92  90  90  93  97  91 107 110  95  77  78  88  89  84  70  89 100 106 102  95  87  73  59  35  35  33  38  56  71  65  62  67  55  44  43  41  37  37  39  45  48  32  30  37  39  41  60  70  78  91  94  91  80  71  75  83 100 111 127 134 141 148 153 157 156 153 148 145 144 144 131  24 113  96  89  80  70 238 246 245 245 245 245 245 245 245 245 245 245 245 245
  92  87  86  86  92 101  88  91 101  97  79  79  81  81  80  60  86  97 103 101  95  86  71  36  32  34  28  51  83  86  83  80  86  64  48  43  41  40  38  43  45  45  37  36  39  40  44  55  66  84  94  96  96  81  73  75  81  93 111 122 126 136 143 146 158 155 152 147 146 143 145  92  28 124  94  88  72  74 248 245 245 245 245 245 245 245 245 245 245 245 245 245
  68  78  73  77  94 112  96  95  97  95  79  79  70  66  69  61  74  98 100 101  98  87  65  42  37  32  37  54  86  80  75  74  85  94  90  88  81  63  29  35  43  46  41  41  43  43  45  51  57  76  90  95  95  82  75  72  81  93 102 118 126 132 139 140 152 153 149 147 147 144 148  48  48 113  95  89  63 130 250 244 245 245 245 245 245 245 245 245 245 245 245 245
  85  84  95  98  98 109  99  96  94  94  81  73  69  67  68  69  74  93  98 101  98  88  69  46  38  28  30  35  41  36  52  52  51  53  64  70  85  92  97  82  53  38  42  47  50  48  49  51  49  71  88  90  88  83  77  75  84  90  98 116 122 129 135 139 146 151 148 145 145 141 135  33  88 104  98  82  78 232 245 245 245 245 245 245 245 245 245 245 245 245 245 245
  87  89  93  97 102  94  91  91  92  87  79  72  68  64  64  63  79  89  99 101  99  92  78  50  46  25  23  19  50  53  63  68  57  53  49  51  52  64  80  83  86  93  84  75  61  57  55  53  53  68  76  79  79  80  76  74  81  93 102 112 119 126 133 139 145 148 147 144 143 144 114  31 110 106  98  80 129 250 245 245 245 245 245 245 245 245 245 245 245 245 245 245
  88  90  94  97 101 101  83  85  90  85  78  71  64  62  60  65  71  94  97 101  99  93  79  64  55  48  21  15  56  48  80  80  92  92  55  77  83  65  59  62  56  70  85  98 101  81  61  52  60  62  63  67  72  75  74  74  81  97 105 111 117 122 128 136 143 146 145 142 140 142  76  43 130 105  93  93 241 245 245 245 245 245 245 245 245 245 245 245 245 245 245 245
  84  88  95  96  97  95  81  75  79  83  76  62  62  60  58  57  81  90 101 100 101  88  79  68  70  69  52  17  42  54  82  81 111 113 101 111 124 119  68  60  67  45  56  50  63  80 104  95  88  53  59  47  58  71  72  74  84  93 102 111 115 119 122 132 139 143 141 140 132 138  44  74 129 103  92 157 249 245 245 245 245 245 245 245 245 245 245 245 245 245 245 245
  69  87  96  95  95 100  73  70  68  67  72  67  59  57  57  62  83  90  98  98  91  87  82  82  87  87  79  49  37  31  64  57 110 102 110 129 134 140 123 124 117  97  46  45  52  51  60  88  90  74  49  47  52  65  67  70  86  99 105 109 114 117 119 128 133 137 136 132 121 114  34 112 123 100 121 247 244 244 245 245 245 245 245 245 245 245 245 245 245 245 245 245
  67  91  92  92  93  93  72  68  64  62  66  67  54  53  57  59  87  91  95  94  90  88  90  90  92  97  94  86  70  56  52  71 112  80 113 126 137 142 132 134 138 122 101  99  52  48  47  48  74  81  65  36  38  51  72  57  85 102 105 108 112 115 114 124 126 131 126 126 111  92  34 133 121 123 245 246 244 245 245 245 245 245 245 245 245 245 245 245 245 245 245 245
  73  93  89  91  92  91  64  66  60  58  58  59  52  52  56  66  81  91  95  92  89  88  92  95  97 100 103  96  90  99  75 120 109  87 110 126 135 134 132 132 133 114 119 111  95  96  33  41  48  68  68  34  38  35  56  54  87  97 104 109 109 110 114 116 113 122 134 113 100  69  58 144 129 250 244 244 245 245 245 245 245 245 245 245 245 245 245 245 245 245 245 245
  71  78  74  69  61 116  79  53  58  54  51  50  50  50  53  66  80  91  94  91  88  89  94  97  98 107 113 113 110 105  96  94 106 118 114  90 103 114 123 127 127 121 123 106 102  86  53  29  28  34  51  43  39  36  49  58  84 104 106 108 109 107 104 109 110 114 118 100  90  47  93 137 244 244 245 245 245 245 245 245 245 245 245 245 245 245 245 245 245 245 245 245
  63  64  67  70  76 148 103  53  54  49  45  45  46  49  54  54  79  88  89  87  88  90  95  97 100 107 115 121 125 122 122 112  93 116 111 117 131 124  80 106 100  96  97  86 105  87  78  31  21  23  11  32  39  37  49  67  88 105 107 109 104 102  95 102 106 104  93  98  76  24 124 222 247 244 245 245 245 245 245 245 245 245 245 245 245 245 245 245 245 245 245 245
  62  79  77  70  26 191 119  51  54  48  45  43  44  48  53  59  76  85  88  83  82  89  96  98 101 108 115 122 125 124 124 116 111 104 107 114 138 122 106 103 112 117  93 111  97  69  52  34  24  14  16  29  41  46  59  74  95 106 106 110 101  91  91  99 105  90  85  84  65  42 143 250 245 245 245 245 245 245 245 245 245 245 245 245 245 245 245 245 245 245 245 245
  68  46   7   7  12 198 124  57  52  48  45  43  44  47  54  68  75  83  84  82  83  95  98 100 101 109 114 119 121 123 121 120 117 113 110 107 102 100 101 101 123 122 111 132  91  54  38  16  20  35  45  45  48  59  73  83 104 108 104  99  95  89  81  99  98  93  90  85  58  72 200 248 245 245 245 245 245 245 245 245 245 245 245 245 245 245 245 245 245 245 245 245
  75  23  22  17  10 193 138  79  48  49  47  44  45  48  55  69  74  77  82  82  81  98 102 104 105 109 113 115 115 120 117 116 115 113 112 113 114 111 109 110 115 112 108 107  86  42  41  53  66  81  69  57  65  74  91  98 108 108 101  90  82  80  77  89  93  93  92  78  51 116 225 247 245 245 245 245 245 245 245 245 245 245 245 245 245 245 245 245 245 245 245 245
  75  20  28  27  13 200 141 106  46  49  49  47  47  49  53  65  72  77  82  84  86 115 118 109 108 110 113 114 112 107 107 104 101 104 106 111 116 115 117 116 113 111 109 101  95  99  88  90 107  95  78  72  71  86  99 109 111 108 101  82  62  73  81  81  79  89  80  77  53 132 232 245 245 245 245 245 245 245 245 245 245 245 245 245 245 245 245 245 245 245 245 245
  68  37  34  48  44 203 143 123  67  47  47  47  46  47  51  59  68  84  84  84  92 117 122 118 112 112 113 113 110  93  84  83  86  91  93  96 101 108 117 114 116 115 115 115 116 116 113 118 106  97  81  76  77 100 106 109 109 105  90  76  56  76  74  71  74  77  76  57  82 125 249 245 245 245 245 245 245 245 245 245 245 245 245 245 245 245 245 245 245 245 245 245
  62  52  64  76  49 203 151 126  91  41  47  44  42  43  46  56  70  80  87  81  86 118 133 129 123 110 115 113 107  94  82  80  69  71  79  82  81  89  95 104 113 113 117 120 121 120 119 116 110 106  85  83  84  99 109 111 110  91  80  67  55  62  67  66  70  67  66  39  80 227 247 244 245 245 245 245 245 245 245 245 245 245 245 245 245 245 245 245 245 245 245 245
  64  67  67  72  52 203 150 118  99  57  45  42  40  41  45  50  50  58  54  70  89 130 144 153 144 124 122 110 106  98  84  75  73  71  69  68  74  79  85  95 100 108 115 119 123 124 119 115 112 106  85  89  97 102 108 110  99  87  74  53  56  61  63  62  63  69  51  49 205 249 245 245 245 245 245 245 245 245 245 245 245 245 245 245 245 245 245 245 245 245 245 245
  82  82  85  92  67 200 157 115 105  77  40  43  41  42  44  45  46  50  60  77 109 141 153 157 153 139 135 131 123 114  90  79  74  71  65  66  68  63  60  85  95 101 115 117 119 119 118 114 109 107  96  97  99 103 107 107  94  70  69  54  53  56  56  61  62  61  38 122 250 245 245 245 245 245 245 245 245 245 245 245 245 245 245 245 245 245 245 245 245 245 245 245
  83  85  85  85  85 195 157 116 113  84  44  43  41  41  41  42  45  49  65  87 117 148 155 161 159 149 143 136 141 137 126 106  83  77  62  63  67  67  64  68  77  99 106 113 116 117 115 111 108 104 101 102 103 104 105 100  91  62  61  52  51  54  55  57  59  44  29 235 246 244 245 245 245 245 245 245 245 245 245 245 245 245 245 245 245 245 245 245 245 245 245 245
  85  86  86  86 108 188 161 124 115  89  65  38  40  38  39  40  43  50  54  84 121 142 158 159 161 161 161 161 154 154 149 139 130 118  96  84  72  66  77  78  79  97 103 109 113 112 112 108 105 101  99 101 102 102 100  93  82  70  63  54  50  50  50  51  53  23 140 249 243 245 245 245 245 245 245 245 245 245 245 245 245 245 245 245 245 245 245 245 245 245 245 245
  87  87  87  79 123 181 161 135 102  89  79  31  40  37  38  39  42  49  60  67 108 136 151 160 161 161 162 161 160 154 146 145 122 118 113 113 111  95  90  87  92  99 103 106 108 108 108 103 101 100  96  97  97  94  96  84  70  68  64  58  50  47  46  46  45  18 230 246 244 245 245 245 245 245 245 245 245 245 245 245 245 245 245 245 245 245 245 245 245 245 245 245
  66  64  75  80 140 182 160 131  93  92  89  47  40  37  36  38  40  45  44  55  83 113 129 147 162 165 161 163 153 147 145 126 121 117 116 119 120 123 115 108 108 103 104 103 104 106 106 104 102  99  94  94  94  90  79  76  70  58  56  54  51  47  45  43  23 100 248 245 245 245 245 245 245 245 245 245 245 245 245 245 245 245 245 245 245 245 245 245 245 245 245 245
 207 207 173 156 176 174 160 131 100  94  79  57  39  36  34  35  39  43  47  53  55  92 105 125 145 139 133 135 139 115 121 120 121 118 116 119 120 125 131 130 113 109 108 107 107 106 106 104 101  97  94  84  89  84  79  54  52  47  48  50  52  51  47  29  45 248 246 245 245 245 245 245 245 245 245 245 245 245 245 245 245 245 245 245 245 245 245 245 245 245 245 245
 125 146 117 108 175 181 159 134 112  88  83  65  46  36  31  32  37  42  42  39  58  66  74  85  96 101 100 110 123 122 110 104 116 114 108 110 106 122 127 128 126 117 115 112 112 113 111 108  96  87  85  83  79  75  58  51  45  42  40  45  47  49  40  32 235 247 245 245 245 245 245 245 245 245 245 245 245 245 245 245 245 245 245 245 245 245 245 245 245 245 245 245
  12  11  11  23 188 176 154 139 110  91  79  65  54  36  30  29  35  40  37  33  33  50  64  63  70  82  82  76  65  91 101 104 101 109  97 108 104 122 126 128 129 130 127 123 120 117 114 102  89  80  76  81  71  61  50  44  36  36  37  40  43  46  20 159 249 244 245 245 245 245 245 245 245 245 245 245 245 245 245 245 245 245 245 245 245 245 245 245 245 245 245 245
  23  17  13  29 194 170 151 132 114  91  81  66  54  44  32  28  29  32  32  28  27  38  49  53  63  68  61  57  64  57  65  81  81  88  86  93 111 123 125 133 133 129 130 128 125 115 111  90  86  74  59  54  62  55  50  40  34  32  34  39  43  32  55 236 245 244 245 245 245 245 245 245 245 245 245 245 245 245 245 245 245 245 245 245 245 245 245 245 245 245 245 245
  22  22   9  43 199 171 156 133 112  92  80  66  56  47  37  30  27  26  28  28  25  27  35  44  50  58  56  53  49  55  58  59  74  76  70  79  78  92 106 108 117 128 127 125 120  92  88  71  69  61  55  50  50  52  47  37  31  29  32  38  39  17 149 249 245 245 245 245 245 245 245 245 245 245 245 245 245 245 245 245 245 245 245 245 245 245 245 245 245 245 245 245
  23  24   9  91 194 172 156 131 107  89  81  74  55  58  38  31  26  26  27  26  22  22  27  32  39  43  50  53  50  49  52  44  58  59  64  73  78  85  90  86  98 108 114 108 108  86  79  61  40  46  46  45  44  47  49  36  31  30  32  31  16 121 246 245 245 245 245 245 245 245 245 245 245 245 245 245 245 245 245 245 245 245 245 245 245 245 245 245 245 245 245 245
  23  23  10 170 185 174 152 133 108  90  87  71  62  56  44  31  28  26  23  22  20  19  19  22  24  27  34  37  38  39  37  47  46  46  52  64  72  71  78  85  82  89  93  92  83  75  73  55  42  37  37  36  36  35  38  36  33  32  31  38  73 189 250 244 245 245 245 245 245 245 245 245 245 245 245 245 245 245 245 245 245 245 245 245 245 245 245 245 245 245 245 245
  23  18  17 204 179 170 156 133 111  93  80  75  61  55  44  33  28  23  22  20  19  17  16  19  20  20  23  26  25  28  29  34  36  41  45  51  51  54  60  65  74  66  58  75  68  58  48  45  33  32  35  33  31  31  32  30  34  37  41  77 126 206 250 244 245 245 245 245 245 245 245 245 245 245 245 245 245 245 245 245 245 245 245 245 245 245 245 245 245 245 245 245
  24  13  93 199 179 171 157 133 112  83  79  72  62  54  45  40  31  25  21  19  17  15  16  16  16  17  16  17  18  18  15  16  27  35  36  39  35  42  46  42  50  54  60  55  54  51  43  38  32  32  32  30  28  28  30  27  36  47  75  82 176 209 248 245 245 245 245 245 245 245 245 245 245 245 245 245 245 245 245 245 245 245 245 245 245 245 245 245 245 245 245 245
  16  15 169 183 178 171 155 129 114  92  81  69  62  53  48  42  36  28  22  19  19  17  16  16  17  15  15  14  14  16  15  17  20  18  26  28  28  29  36  36  39  40  37  35  39  38  37  32  30  31  30  26  25  30  35  36  66  81  85  76 206 210 247 245 245 245 245 245 245 245 245 245 245 245 245 245 245 245 245 245 245 245 245 245 245 245 245 245 245 245 245 245
  11  84 191 178 176 167 157 139 118  81  81  69  62  55  48  44  40  34  26  20  18  18  18  17  16  15  15  15  14  15  15  16  17  18  19  22  24  22  23  25  26  27  27  28  28  28  31  27  28  28  27  25  26  29  38  63  75  83 104 106 208 212 247 245 245 245 245 245 245 245 245 245 245 245 245 245 245 245 245 245 245 245 245 245 245 245 245 245 245 245 245 245
  46 191 179 179 173 164 154 136 112  90  82  70  63  56  49  45  42  37  31  25  19  17  17  17  16  16  15  15  16  17  18  17  16  16  16  16  17  17  18  18  20  21  21  23  23  24  27  28  27  25  26  27  33  41  64  76  84  94  91 169 209 216 247 245 245 245 245 245 245 245 245 245 245 245 245 245 245 245 245 245 245 245 245 245 245 245 245 245 245 245 245 245
 206 194 184 178 171 167 151 132 126  99  80  75  65  59  51  46  42  38  34  27  22  20  17  17  16  16  16  17  18  20  20  20  16  15  15  15  15  16  15  16  16  18  20  21  23  26  30  30  29  27  27  34  49  58  74  81  91  93  90 199 201 223 245 245 245 245 245 245 245 245 245 245 245 245 245 245 245 245 245 245 245 245 245 245 245 245 245 245 245 245 245 245
 158 187 182 180 170 161 154 137 118 102  88  75  69  60  54  47  41  38  35  30  27  23  19  18  19  16  16  17  20  22  21  20  20  17  18  16  16  17  17  17  17  19  21  23  28  30  32  33  28  40  55  51  59  65  75  84  94  99 115 167 187 235 249 244 244 245 245 245 245 245 245 245 245 245 245 245 245 245 245 245 245 245 245 245 245 245 245 245 245 245 245 245
 211 103 109 192 168 164 148 139 120 102  89  81  71  63  56  51  39  37  34  31  28  26  23  21  20  19  17  18  21  23  22  20  20  20  21  20  21  20  20  20  19  20  22  26  30  35  38  41  48  54  56  61  70  72  84  86  95 106 138  36  29  89 207 250 247 245 244 245 245 245 245 245 245 245 245 245 245 245 245 245 245 245 245 245 245 245 245 245 245 245 245 245
 194 126  74 196 169 159 149 138 126 106  80  83  74  65  59  53  52  40  37  33  31  28  27  27  25  22  20  18  18  22  24  21  20  20  20  22  23  20  20  20  19  20  23  27  31  38  45  49  54  58  62  65  70  78  85  88 104 108 129  10  10   9  14 113 230 249 250 245 245 245 245 245 245 245 245 245 245 245 245 245 245 245 245 245 245 245 245 245 245 245 245 245
 192 124  92 189 167 161 148 136 121 109  95  83  78  72  63  60  54  49  43  39  35  31  30  29  28  27  25  23  22  22  24  25  23  22  21  23  25  25  24  23  21  26  30  37  45  50  50  52  55  68  68  70  72  84  94  94 104 113 109   9  20  16  11  12  14  30 159 239 250 247 244 244 245 245 245 245 245 245 245 245 245 245 245 245 245 245 245 245 245 245 245 245
 188 109 106 191 169 159 151 137 122 111  96  88  81  74  71  65  59  55  47  42  38  35  33  31  30  29  28  27  28  28  28  28  28  26  26  27  29  31  35  37  37  39  42  47  48  51  54  55  60  67  73  74  78  88  94 101 110 122  97   7  17  16  17  16  11  17  13  45 157 234 250 245 245 245 245 245 245 245 245 245 245 245 244 245 246 245 245 246 247 249 249 250
  33  33  57 194 171 160 151 136 132 111  97  90  84  78  75  70  64  58  53  47  42  40  38  33  31  30  31  30  29  31  32  32  33  33  33  34  35  36  38  41  42  45  45  47  51  55  57  60  63  68  75  80  83  93  95 106 114 126  82   6  15  14  16  18  19  19  19  24  12  30 135 226 250 249 249 249 249 249 250 250 245 242 241 233 231 225 218 217 209 209 204 198
  90  36  25 179 175 166 152 140 128 110 100  91  85  81  76  72  69  61  57  51  47  44  40  35  32  32  33  32  32  31  32  35  35  37  37  38  39  40  41  43  46  45  46  49  53  57  61  63  67  72  78  81  89  98 106 110 116 126  73   6  13  13  14  15  17  18  21  22  18  15  13  26 157 226 218 205 191 185 190 187 189 191 191 192 196 196 200 200 202 199 203 205
  86 101  83 120 141 161 152 136 127 112  93  95  87  81  77  74  73  70  65  58  52  47  44  40  36  35  33  35  32  32  37  38  37  38  38  40  40  41  44  45  47  49  50  53  55  60  64  68  68  75  83  88  92 102 109 112 117 131  66   7  13  12  12  14  14  15  17  18  20  19  28  13  12  37 121 201 216 207 203 204 203 202 202 205 204 203 202 203 202 202 202 203
  50  30  22  19  28  79 153 144 125 114 108  98  91  84  81  78  76  73  69  65  57  51  48  44  41  39  38  37  36  37  38  39  40  41  41  42  43  43  44  46  49  51  53  56  58  62  69  73  71  79  87  93  99 108 110 115 118 129  66   7  14  14  13  13  13  14  15  17  18  20  21  24  22  16  21  43 151 230 219 203 200 200 201 201 200 200 201 200 199 200 201 200
 201 105  82  39  37  28  20  97 132 121 108 100  93  89  82  82  79  77  72  68  64  59  54  49  45  43  40  39  39  39  40  40  42  43  43  44  45  47  47  51  52  54  57  60  62  67  74  80  80  88  91  96 102 109 112 117 119 126  65   5  13  13  14  12  12  14  14  15  18  19  19  20  21  24  26  12  14  25 149 214 208 200 201 199 199 199 198 198 199 198 199 198
