P2
92 112
255
 245 245 245 245 245 245 245 245 245 245 244 170 112  40  55  48  56  58  47 119 121 116 149 157 164 166 172 180 170 165 151 151 153 155 153 151 151 151 150 151 154 162 150 157 158 156 157 158 164 157 157 154 148 144 128 101  73  47  42  40  53  49  55  41  39  37  40  25  14  60  99 157 250 243 245 245 245 245 245 245 245 245 245 245 245 245 245 245 245 245 245 245
 245 245 245 245 245 245 245 245 244 250 179 145  81  40  64  72  64  59 121 126 148 165 173 184 189 198 195 195 189 175 183 174 170 168 166 166 163 160 158 159 161 161 161 162 163 164 166 166 168 169 168 166 164 165 163 152 130  90  44  70  77  78  78  76  76  57  42  44  45  33  67 136 250 244 245 245 245 245 245 245 245 245 245 245 245 245 245 245 245 245 245 245
 245 245 245 245 245 245 245 245 245 227 124 152  65  37  87  83  75 133 141 155 178 190 195 198 201 200 200 201 200 200 188 181 175 173 173 175 172 167 165 166 166 166 166 166 166 167 169 169 172 174 176 177 173 171 174 175 168 151 118  75  89 149 171 166 160 142  99  35  48  45  22  34 250 245 244 245 245 245 245 245 245 245 245 245 245 245 245 245 245 245 245 245
 245 245 245 245 245 245 245 245 248 207 124 105  36  58 102  98 144 161 170 189 203 207 212 206 204 204 205 205 205 205 202 194 184 177 178 179 177 176 173 170 170 168 168 167 167 168 169 170 170 172 176 178 178 177 176 176 181 179 182 173 173 181 200 200 195 188 162  96  34  52  49  17 169 250 245 245 245 245 245 245 245 245 245 245 245 245 245 245 245 245 245 245
 245 245 245 245 245 245 245 245 246 144 136 105  43 102 139 163 159 183 206 213 214 212 208 206 205 203 204 204 204 204 204 203 195 188 183 181 178 176 174 173 172 170 168 167 168 169 169 170 170 172 174 176 178 179 178 178 178 177 179 188 191 204 200 203 211 209 205 156  99  37  86  28  34 239 247 244 245 245 245 245 245 245 245 245 245 245 245 245 245 245 245 245
 245 245 245 245 245 245 245 245 196 108 125  89  90 137 171 172 199 213 213 214 212 209 206 203 203 199 199 201 199 198 199 198 192 187 182 179 177 175 173 173 174 170 168 168 169 171 170 170 170 170 173 173 175 178 177 178 179 178 179 181 181 191 198 204 205 206 206 189 148  52  69  52  21 124 249 244 245 245 245 245 245 245 245 245 245 245 245 245 245 245 245 245
 245 245 245 245 245 245 245 239 141 114 111 136  93 149 172 206 208 217 219 210 206 202 197 195 191 189 190 191 193 194 191 192 186 185 179 177 175 173 169 170 169 169 170 170 171 172 172 171 170 170 172 173 174 174 175 176 176 176 177 179 182 184 188 197 204 205 203 202 174 108  43  56  42  19 220 246 244 245 245 245 245 245 245 245 245 245 245 245 245 245 245 245
 245 245 245 245 244 245 249 173 143 120  56 101 109 159 202 209 213 214 212 206 197 185 186 181 181 178 178 182 179 178 177 172 168 167 170 170 168 169 167 167 168 168 169 169 170 171 171 170 170 170 171 172 172 172 173 174 174 173 175 177 177 181 185 188 196 204 207 207 189 128  52  49  52  17  85 250 244 244 245 245 245 245 245 245 245 245 245 245 245 245 245 245
 245 245 245 245 244 247 175 128 113 100  48  82 109 176 215 214 214 214 209 199 188 184 179 166 164 164 162 163 165 154 153 148 158 162 163 162 165 166 166 165 165 166 168 168 167 169 170 169 168 168 168 167 168 167 167 170 171 172 173 175 174 178 181 186 193 202 206 206 201 146 122  48  49  39  21 226 247 245 245 245 245 245 245 245 245 245 245 245 245 245 245 245
 245 245 245 245 246 200 133 118 107  75  66  86  93 184 207 210 212 213 206 192 182 167 161 166 159 155 156 157 152 157 154 153 150 153 156 159 161 163 166 165 165 166 167 166 166 167 166 167 167 167 166 167 165 165 165 166 168 170 169 172 173 175 179 182 196 198 200 203 209 159 166  74  39  52  16 114 248 244 244 245 245 245 245 245 245 245 245 245 245 245 245 245
 245 245 245 246 241 155 108 112  83  55  70  89  94 178 199 202 209 209 203 185 172 169 162 150 150 151 149 147 150 147 147 147 147 148 151 154 157 159 161 165 166 167 168 167 167 166 166 165 164 165 165 166 164 163 164 164 165 166 166 167 166 172 173 177 180 189 194 199 202 197 165 131  52  52  28  55 236 248 244 245 245 245 245 245 245 245 245 245 245 245 245 245
 245 245 245 246 189 106  81  76  61  57  83  73 119 175 186 207 205 201 196 179 173 169 154 153 147 146 145 145 147 147 146 146 147 148 150 152 155 157 160 162 165 166 167 168 168 168 167 165 165 164 165 165 162 160 162 163 164 165 166 167 166 166 168 174 176 184 190 192 196 200 184 171  97  44  52  21 209 243 245 245 245 245 245 245 245 245 245 245 245 245 245 245
 245 245 245 243 130  90  72  75  47  59  88  59 145 183 189 203 200 197 188 179 173 165 156 153 151 148 146 147 148 148 148 148 148 149 152 153 156 156 159 161 164 166 167 168 168 167 167 167 166 165 165 165 163 162 162 163 164 166 166 167 169 169 171 171 174 179 186 188 191 196 190 179 158  47  54  36 108 246 244 245 245 245 245 245 245 245 245 245 245 245 245 245
 245 244 248 204  83  85  67  60  60  59  86  75 160 198 195 197 196 192 183 176 170 163 157 155 153 151 150 150 147 148 152 148 153 156 156 158 155 163 164 166 166 166 167 169 168 169 168 168 167 168 168 168 167 167 166 167 167 167 168 170 171 171 172 173 174 177 180 183 189 192 195 197 183 115  27  52  30 226 249 245 245 245 245 245 245 245 245 245 245 245 245 245
 245 244 243 136  80  82  61  59  56  67  75 127 172 200 197 193 191 188 180 171 164 163 161 158 157 155 155 152 151 151 154 159 161 161 164 167 173 171 170 169 168 169 168 168 170 169 168 168 168 169 171 173 174 171 172 172 174 170 171 172 173 174 174 174 175 176 179 183 187 190 195 198 187 161  36  56  38 100 250 245 245 245 245 245 245 245 245 245 245 245 245 245
 244 246 196  90  83  76  59  55  45  69  91 152 183 200 195 190 186 180 175 163 164 164 163 162 163 161 160 160 156 163 168 169 171 174 177 180 178 184 176 173 171 170 170 171 171 170 168 168 171 172 173 176 178 178 177 179 179 177 175 175 175 175 173 173 173 173 178 180 186 190 193 195 190 186  86  31  52  20 247 246 244 245 245 245 245 245 245 245 245 245 245 245
 244 236  92  79  74  55  57  53  55  63 111 156 198 195 189 187 182 175 170 164 161 161 160 162 163 164 166 161 159 172 179 184 185 194 192 191 189 185 181 177 174 173 170 170 171 171 169 169 172 175 176 179 181 182 181 184 184 182 182 180 179 178 175 173 170 171 168 176 183 187 191 193 190 185 143  21  52  20  86 250 245 244 245 245 245 245 245 245 245 245 245 245
 247 197  78  77  66  58  52  53  54  78 114 173 202 196 190 185 176 168 165 159 157 156 157 159 163 166 169 174 178 178 187 192 197 198 199 199 196 191 186 183 178 174 172 171 169 172 172 172 173 175 177 179 181 182 182 185 183 184 184 184 184 182 179 175 171 170 169 174 179 185 191 193 192 181 175  48  42  48  19 219 249 245 245 245 245 245 245 245 245 245 245 245
 248 156  78  70  60  56  52  53  40  87 130 179 201 195 189 182 170 164 161 156 155 157 158 161 163 167 172 178 182 185 189 195 200 203 201 199 197 193 188 183 179 176 175 173 171 172 172 173 174 175 176 177 178 178 181 182 181 182 182 183 186 185 183 180 176 172 172 173 177 183 185 191 192 191 168 132  24  49  37  91 249 244 245 245 245 245 245 245 245 245 245 245
 250 136  80  61  59  51  52  53  49  90 147 179 191 190 186 180 169 163 159 155 154 156 157 161 168 173 178 183 188 189 191 195 197 199 194 192 186 180 180 180 180 178 174 172 169 169 171 173 175 175 174 173 174 174 176 176 177 178 179 182 184 186 190 187 183 175 174 175 177 180 182 187 191 191 163 158  36  43  39  17 213 248 245 245 245 245 245 245 245 245 245 245
 250 117  80  56  56  51  51  51  66  93 147 175 183 186 181 176 167 161 158 153 150 154 157 168 170 175 181 186 188 188 188 194 191 189 173 169 164 169 173 175 176 175 172 168 165 164 169 171 171 171 170 170 169 169 170 173 172 172 179 176 180 185 185 188 186 181 179 179 179 179 181 184 187 192 169 140  74  40  44  21  90 249 244 245 245 245 245 245 245 245 245 245
 250 100  73  53  53  51  51  54  72  93 147 169 178 178 176 173 164 161 152 150 150 155 159 169 175 180 187 188 188 187 183 175 173 169 160 160 157 161 163 165 170 170 168 160 162 162 163 166 165 166 164 164 164 162 163 164 165 165 162 160 169 171 178 185 191 186 181 182 179 178 181 183 185 186 185 126  85  38  43  29  18 241 246 245 245 245 245 245 245 245 245 245
 237  77  58  51  51  51  50  51  71 100 144 164 174 175 173 171 164 156 152 152 154 161 167 174 181 184 187 187 186 183 178 169 163 153 151 153 145 146 152 158 162 161 159 159 156 159 157 157 157 158 157 153 150 150 156 154 156 155 150 147 137 139 146 154 165 177 185 186 183 181 180 183 185 186 192 145  92  40  44  40  15 144 250 244 245 245 245 245 245 245 245 245
 213  53  50  50  48  47  50  53  76  97 137 166 169 173 172 170 162 157 154 154 159 169 177 183 185 186 184 185 181 171 165 165 152 144 134 121 127 132 137 144 147 150 152 151 148 144 152 150 151 153 148 146 141 139 137 134 113  98  79  73  66  72  96 122 128 124 136 170 188 181 180 181 183 184 189 163  92  43  42  41  17  60 248 245 245 245 245 245 245 245 245 245
 187  52  45  50  46  47  50  52  74 107 142 167 172 172 171 167 162 160 160 166 176 189 198 197 191 185 176 163 145 144 131 120 112 106 104 106 107 117 126 129 138 138 143 147 141 133 144 146 145 143 143 133 130 124 119 107  92  71  68  45  57  65  72  70  69  82  84 107 174 192 182 182 183 185 185 187  95  39  43  41  33  22 211 249 245 245 245 245 245 245 245 244
 162  42  48  48  45  46  50  54  61 114 141 173 171 170 166 164 163 163 173 188 194 203 204 192 178 153 133 115  98  81  73  64  62  66  82  92  84  98 114 123 130 130 136 138 135 132 136 140 139 132 126 128 119 112 102  95  80  63  54  51  52  53  54  64  78  82  98  93 113 164 184 182 185 185 184 199 117  33  46  42  38  16 159 249 244 245 245 245 245 245 245 244
 123  40  50  46  45  46  49  50  62 109 149 173 169 166 164 163 165 169 185 189 197 188 157 144 107 104  77  68  55  48  48  41  47  50  56  77  87  91  93 115 117 128 130 130 129 129 131 131 133 130 126 114 108  91  97  78  55  54  52  53  53  52  55  50  62  76  89  93  76 116 172 182 183 185 184 191 141  38  43  42  41  12 120 249 243 245 245 245 245 244 244 243
  56  41  49  45  44  45  49  52  63 104 162 171 170 167 163 161 162 173 185 197 170 143 120 101  95  78  60  51  50  47  49  48  49  53  60  65  81  80  91 110 116 122 123 125 128 127 127 127 129 126 123 112  98  96  92  72  56  56  56  55  51  51  49  56  67  77  87  93  93  74 136 174 183 185 184 190 161  38  42  40  41  25  98 249 243 243 243 243 243 244 243 243
  35  39  47  44  43  47  49  53  47 118 164 168 168 166 161 158 158 178 197 170 132  99  80  75  70  47  50  45  44  44  43  45  48  51  58  66  77  79  92 106 112 117 121 125 128 127 127 129 130 127 121 112  96  95  83  76  60  66  68  70  74  74  70  62  55  72  89  89  91  82 123 158 183 185 185 187 170  32  40  40  40  29 106 250 243 243 243 241 241 242 240 241
  18  42  46  42  43  45  48  50  53 129 166 165 163 162 157 157 165 180 180 144  91  70  74  69  56  54  48  46  43  43  46  48  50  52  60  69  78  85  92 101 109 115 119 124 126 128 130 134 132 130 123 113 107 101  96  90  92  88  88  95 102 102 105 100  92  89  86  99  92  97 111 148 177 188 187 191 170  49  31  41  42  16 112 249 241 242 242 241 238 239 235 234
  18  45  47  42  43  44  48  52  48 143 157 161 159 156 156 155 166 173 138  96  89  69  69  66  60  52  47  42  54  54  54  52  57  63  71  77  79  86  93  99 106 111 117 123 127 129 136 137 138 134 123 113 109 111 101  96  92  88  92 104  90  95 100  90  96  90  93  89  97  96 110 139 167 182 186 180 179  61  37  41  40  16 132 238 234 230 231 228 224 222 224 224
  20  44  47  42  41  42  46  42  62 147 155 162 162 158 155 158 156 140  99  82  74  66  51  48  45  52  62  67  67  68  63  61  65  70  71  75  77  78  83  92 103 111 119 128 131 136 141 146 140 136 123 112 100  92  58  54  57  70  97 120 157 190 205 223 230 237 241 242 238 237 237 233 230 230 231 240 237 149  32  31  42  14 186 212 202 215 216 222 217 202 184 159
  41  46  46  42  40  40  44  43  71 153 165 164 163 157 155 153 138  93  69  85  29  30  29  47  57  72  87 106 109 111 108 102  89  77  61  50  40  47  50  65  82 103 123 131 140 145 149 150 149 141 119  77  87 138 189 235 241 246 243 217 190 160 148 128 123 107  95 106 114 108 105 113 135 146 165 181 162 139  84  25  41  16 201 201 194 150 133 105 113  75 121 125
  74  41  44  40  40  40  43  34  87 153 171 169 163 152 154 167 148 152 158 147 183 223 233 211 209 212 161 153 139 151 122 112 105 112 115 123 134 134 135 124 113 102 118 129 133 144 145 152 154 175 202 231 237 219 182 130 106 102  96 105 117 133 138 141 139 145 135 121 124 133 138 134 137 162 179 194 151  92 132  20  39  48 136  95  92 107 135 182 216 239 250 250
 117  27  45  40  39  39  41  25  94 159 169 177 160 142  96  78 119  67 101 128 162 151 137 125 128 115 110  90  71  65  67  79  82  99 113 123 128 122 115 123 178 229 201 180 176 174 166 164 142 123 172 150 101  91  81  88 106 105 110 111 111 106 117 120 131 141 145 136 130 131 133 138 140 153 127  24  38  99 145  27  18 115 201 219 235 245 249 249 247 246 242 242
 164  23  42  40  39  39  41  24  95 168 197 209 140 132 146 140 120 118  83  66  53  65  83 101  96  72  61  83  96  96  95  88  91  85  74  71  84  97 104  97  76 110 187 149 156 161 165 167 176 186 176 104 101 101  90  97  92  90  75  83  79  85  78  92  91 101 131 146 131 133 135 137 140 143 155  79  63  73 149  21  17 168 243 242 244 243 242 243 243 243 243 243
 216  25  44  40  38  38  41  30 110 199 190 149 154 150 149 141 156 118  83  83  88  94  96  91  79 113  92  72  39  36  34  43  43  77  79  80  76  73  88  92  96  86 138 102  77 128  89 105 105  99 136 114 101  95  94  94  97  86  86  87  91  96  81 138 120  92  79 118 134 130 133 135 136 129 176 176 151  42  91  26  17 211 246 241 241 242 241 243 243 243 243 243
 248  45  39  42  40  40  37  34 167 190 173 164  18  13  13  12  95 106  83  84  87  92  86  84  94  83  42  46  41  39  47  53  52  82  65  72  79  80  83  84  91  98  97  68 132 174 185 170 139  69  94 123  96  92  91  93 111  82  87  87  88  96  92 140 161 121  88  94 123 128 131 133 135 116 180 146 180 115 112  23  18 239 245 241 243 243 243 243 243 243 243 243
 250  76  33  46  41  44  32 142 182 164 195 139  29  27  20  37  94 105  87  84  86  90  84  83  77  53  58  52  43  43  46  55  55  86 113  90  79  79  83  87  93 103  80  91 157 199 194 181 161  90  59 158 106  70  81 104 110  89  86  85  84  96  87 148 153 128  94  87  95 126 128 132 134 119 170 224 229 223 167  36  36 246 245 242 243 244 244 244 244 245 245 245
 250  99  24  47  43  38  64 155 152 178 176 103 115 134 124 106 107  95  87  85  87  75  75  65  39  75  86  68  49  46  46  49  54  71 115 100  82  80  78  87 108 115  67 124 170 209 202 189 179 141  36 182 130  64  83  79  97  93  89  85  95  96  87 127 112 107 114 113 110 105 124 130 134 130 116 113 123  18  24  51  76 248 243 243 243 244 245 245 245 245 245 245
 248 148  18  45  33  40 102 155 160 133 170 119 114 118 109  95 108  93  89  86  80  67  69  36  36  81  94  78  44  50  48  50  42  88 104  89  81  82  82  84  89 118  45 149 185 220 208 203 187 183  69 146 129 119 101  93  94  93  95 103 122 122 123 124 126 126 127 132 132 124 126 129 134 138 146 148 151  38  46  46 165 250 244 244 244 244 245 245 245 245 245 245
 248 206  17  35  19 119 142 134  48 164 245 195  73 122 114 105 105  99  90  85  74  67  49  46  41  70  78  84  55  22  33  38  56  81  59  72  77  81  82  85  94 112  61 172 193 212 218 207 201 193 153  73 158 116 111  99  90  88  91  91 108 111 119 124 127 129 128 130 129 131 131 134 138 141 150 158 177  57  59  62 229 245 244 245 245 245 245 245 245 245 245 245
 246 244  34  23  26 149 161 247 242 192 114  85 107 115  98  99  99  95  88  81  71  57  45  46  60  70  84  86  89  95  95  91  93  85  78  72  65  60  76  78  98  83 105 181 190 204 213 207 203 194 185  73 148  96  99  87  85  88  86  89  89  98  99 119 130 125 126 130 131 133 137 138 144 147 151 163 184  86  33 108 243 247 246 244 245 245 245 245 245 245 245 245
 244 247 109  12  44 120  26  18  18  83 135 130 125 117 100  98  95  93  83  77  68  69  86  91 100 100  95  95  92  95  95  90  87  85  79  71  65  66  70  75  97  77 127 173 198 201 204 198 197 190 179 157 109 124 108 107 104  95  85  74  79  89  97  87 104 110 116 126 138 137 145 158 157 148 150 165 187  97  31 139 182 212 249 246 245 245 245 245 245 245 245 245
 245 248 183  49  28  50  31  31  19 122 142 139 131 120 110  98  96  97  87  87  96 110 108 107 101 105 103  99  98  97  93  93  90  80  70  64  65  69  71  84  92  86 132 158 172 194 197 195 192 189 179 180 127 124 120 105 113 108 107 114 108 100  99 110 116 142 159 183 175 146 135 126 140 145 156 169 190 113  57 146 145 147 182 249 245 245 245 245 245 245 245 245
 247 232 187 131  88  52  45  46  16 115 161 147 135 121 107 101  98  97 109 104 103  77  61  70  88  81  76  73  80  86  90  80  25  23  33  55  74  88  95 103  82 105 136 160 171 185 196 196 193 187 184 180 169 121 120 120 128 117 116 117 116 115 118 117 115 100  88  77 109 121 131 142 145 148 154 174 196 130  44 136 107  69 116 245 245 245 245 245 245 245 245 245
 224 175 157 131 105  78  51  47  27 105 164 154 142 126 112 105 101  97  99 119 128 175 194 196 192 205 207 177 173 155 133 128 110 120 120 124 115 106 103  96  87 125 155 168 179 191 204 202 196 194 189 185 181 149 123 124 124 123 117 115 110 115 113 112 115 118 124 126 149 159 157 159 154 154 159 175 195 145  27 126 102  85  82 217 246 245 245 245 245 245 245 245
 171 120  80 117 106 102  62  47  33  95 161 152 151 135 120 107 101 103 100  85  72  62  43  35  26  26  27  25  37  46  48  54  91  89  92  96 101 104 102  87 109 135 169 183 194 201 205 208 208 199 196 186 185 175 140 130 129 122 126 130 127 125 129 133 138 140 145 145 154 160 163 162 161 159 162 176 192 155  38 114 101  94  70 186 249 245 245 245 245 245 245 245
 126  86  91  87 109 116 100  37  36  85 156 152 145 142 132 129 114 104 103  96  93  87  85  88  95  97  94  94  93  94  94  86  94  88  99 103 108 105 103 112 119 164 173 186 194 196 204 211 208 201 196 191 187 183 162 149 136 140 141 138 142 149 154 153 154 150 151 146 156 162 163 163 164 164 162 183 188 168  36 127 106  95  72 175 249 245 245 245 245 245 245 245
  98  83  90  89  95 117 115  60  48  66 154 151 147 144 137 129 130 122 129 124 116 114 112 111 109 109 108 101 101  90  99 117 121 130 122 120 112 110 112 119 134 165 182 183 182 190 198 200 199 197 195 192 189 184 167 149 136 137 143 141 145 148 159 164 170 183 176 176 163 159 166 165 165 166 157 187 191 171  34 130 105  97  74 166 249 245 245 245 245 245 245 245
  85  85  91  89  95  92 118  81  40  67 147 148 149 145 143 143 145 155 156 147 141 139 137 128 125 119 122 123 126 132 144 149 150 150 141 130 123 120 122 126 135 162 168 175 179 184 191 191 189 191 191 191 189 183 168 149 138 126 129 136 145 150 154 161 166 173 180 195 191 177 166 166 166 168 174 190 192 181  28 129 111  97  77 181 249 245 245 245 245 245 245 245
  78  83  86 108 108  92 102 104  24  62 135 146 148 148 147 151 161 164 164 163 157 151 148 147 141 141 139 151 162 170 174 169 166 160 143 133 129 122 115 129 145 155 161 167 174 183 183 184 187 186 187 187 185 182 175 170 148 121  85 117 134 143 150 156 164 168 175 181 185 188 189 179 171 172 177 185 191 183  27 131 112  97  74 196 248 245 245 245 245 245 245 245
  77  82  83 119 119 104 100 116  27  49 130 146 148 150 151 152 166 167 164 161 157 154 152 147 146 154 168 182 191 191 183 172 160 155 140 126 117 110 114 143 162 162 162 163 165 163 162 165 172 174 175 174 178 180 182 184 180 165 102  73 111 126 136 146 154 162 167 173 176 185 190 188 180 178 179 183 187 183  28 115 114 104  78 222 246 245 245 245 245 245 245 245
  88  79  87 129 120 116 112 113  37  56 125 149 146 151 155 162 164 165 162 160 158 157 146 157 175 186 195 192 184 171 170 161 149 141 129 114  89 102 133 172 181 172 160 158 157 155 152 150 148 157 161 164 171 180 180 178 176 177 147  62  93 112 122 135 146 154 162 165 168 177 184 189 191 182 181 183 185 186  39 108 119 105  96 240 246 245 245 245 245 245 245 245
 100  81  86 135 127 117 108  86  56  55 118 143 146 152 159 164 164 163 160 162 164 158 176 190 197 194 193 187 175 165 162 155 142 134 116  93  73 117 151 165 170 167 158 158 156 151 142 136 137 143 148 158 159 167 168 167 168 172 174  37  84  90 113 130 135 144 154 160 166 173 180 186 189 188 182 182 186 186  50 105 120 109 112 250 246 245 245 245 245 245 245 245
 104  73  88 142 116  91  67  61  62  39 113 144 147 152 159 163 162 161 163 165 173 181 188 187 190 192 181 172 164 161 151 137 133 114 104  82  66 114 146 157 156 155 144 134 133 128 128 129 129 129 141 135 149 155 160 154 156 159 170  50  73  86 100 117 127 139 148 154 163 167 171 183 188 185 181 181 182 191  60  95 120  92 149 249 245 245 245 245 245 245 245 245
 115  80  96 133 105  73  62  64  72  33 110 141 147 154 158 159 159 160 164 172 178 184 184 184 183 170 164 156 149 140 137 125 121 106  87  57  61  98 133 131 131 123 121 120 112 107 110 117 119 124 131 133 143 140 138 137 144 140 144  58  72  75  91  96 121 130 140 149 151 160 165 171 187 186 182 181 181 192  71  90 120 107 195 248 244 245 245 245 245 245 245 245
 162  81 104 133  99  68  64  85 102  29  97 138 149 156 157 157 156 156 164 173 180 180 176 172 172 161 152 144 136 128 119 118 106  97  73  63  46  86 106 107 103 100  99  94  87 104 103 111 115 118 118 122 129 129 123 127 122 117 110  80  70  73  84  96 109 122 133 142 147 156 159 162 180 185 183 179 178 188  80  90 132 130 224 228 235 244 245 245 245 245 245 245
 218 100 111 139 103  61  61 107 114  34  84 134 151 153 155 155 153 152 161 166 168 156 165 160 152 147 139 127 123 120 115 111 104  87  69  62  54  62  93  93  94  92  88  90  81  86  93  98 103 100 111 113 110 123  98  46  52 100 102  90  76  77  73  90 100 114 126 132 138 147 154 158 177 184 182 178 177 179  93  70 156 165 216 206 227 245 245 245 245 245 245 245
 250 137 101 140 106  65  61 112 122  39  78 125 146 151 154 153 149 148 150 159 160 162 155 146 138 134 128 127 122 119 112 104  94  80  63  62  61  60  68  77  76  65  43  21  42  70  84  87  89 102 104 108 112 101  79  79  90 101 104 100  89  72  76  85  96 109 119 128 136 145 151 157 168 182 180 178 172 166 116  62 164 197 208 204 231 245 245 245 245 245 245 245
 248 201  90 144 114  81  68 107 130  43  75 115 143 151 151 152 134 138 147 151 149 147 138 135 129 123 120 118 114 113 107  99  86  76  70  68  67  67  67  50  47  53  53  50  49  37  62  75  82  84 100 103  96  85  81  82  96  98 107 109 100  77  79  78  92 100 111 122 134 140 147 153 162 177 177 171 163 162 117  55 170 209 207 201 238 244 245 245 245 245 245 245
 244 245 129 146 117  92  71  98 132  63  79 108 139 150 151 140 134 132 136 135 131 127 126 122 117 116 115 113 111 108 103  98  80  74  72  72  73  73  74  62  56  51  50  53  53  55  53  60  73  84  82  79  66  59  69  81  92 102 108 108 108  90  82  81  89 101 109 119 132 137 141 149 154 164 169 165 162 151 119  61 175 205 206 196 243 244 245 245 245 245 245 245
 245 248 207 147 122 105  75  74 134  68  79  85 131 142 142 132 126 128 131 131 129 125 122 119 114 110 110 110 109 106 100  93  78  78  77  78  79  78  75  59  57  51  48  48  53  56  57  62  66  66  71  51  37  47  52  64  78  96 106 107 107  91  83  80  81  98 108 121 126 134 140 143 151 157 159 158 159 143 126  72 189 205 205 198 244 245 245 245 245 245 245 245
 245 244 247 152 124 132 146 138 117  72  80  83 120 133 137 129 118 119 122 122 120 119 116 110 108 107 106 106 105 102  98  91  84  81  80  81  81  79  73  58  53  48  42  40  39  41  44  48  56  48  30  34  38  43  48  60  65  73  95 102  93  89  84  79  76  91 108 114 126 132 137 142 145 151 147 147 149 140 113  61 210 207 206 194 246 245 245 245 245 245 245 245
 245 245 250 185 126 115 164 141  92  81  82  89 107 123 128 122 112 112 111 117 114 114 110 108 105 103 102 101  99  98  94  90  80  80  81  82  81  80  71  51  52  46  40  36  31  35  33  41  48  49  36  37  39  43  47  53  54  59  72  89  87  80  80  78  74  85 105 115 124 128 134 138 141 141 135 135 137 127 112  53 197 212 204 197 248 245 245 245 245 245 245 245
 245 245 245 222 131 144 172 143 116  78  79  87 100 119 119 117 110 107 109 108 107 108 105 102 101  99  98  97  96  96  92  88  79  78  76  77  79  71  64  52  48  45  39  35  32  30  33  39  46  47  42  41  44  46  51  56  52  57  66  65  69  67  74  75  74  74 100 113 121 128 132 134 132 131 130 134 113 111 120  52 175 221 206 189 249 245 245 245 245 245 245 245
 245 245 245 249 131 156 177 156 133  79  78  90  98 109 110 108 102 101  99  99 106 102  98  98  96  96  95  95  95  94  90  83  77  76  71  67  63  70  55  50  50  45  39  38  37  38  40  42  46  47  44  43  49  56  43  62  63  60  68  69  62  51  61  74  74  60  89 113 119 125 131 130 127 123 124 132 115 114 112  64 160 217 206 193 249 244 245 245 245 245 245 245
 245 245 245 249 185 186 184 153 133  93  83  96  94  94 105 105  97  86  91  92  90  92  91  92  93  95  93  92  93  92  87  80  74  72  62  54  55  54  51  49  50  47  40  42  42  41  40  42  32  46  48  53  63  81  94  86  84  97  93  77  62  47  44  47  63  66  78 113 117 126 130 128 123 110 118 122 118 117 112  92 130 217 200 208 247 244 245 245 245 245 245 245
 245 245 244 248 218 199 174 147 132 120  73  87  84  93  94  95  92  79  79  84  85  82  85  88  92  92  92  91  91  91  84  74  69  57  52  44  48  51  48  49  55  52  43  49  59  71  81  89 101  88  95  97 104 104  98 105 113 114 114 110  93  50  46  42  44  59  72 100 118 127 127 126 116 110 111 116 116 119 110  83 138 206 199 211 246 244 245 245 245 245 245 245
 245 245 245 245 232 201 157 138 157 109  86  87  85  86  88  85  84  73  75  71  74  74  79  85  91  94  92  89  89  86  81  72  56  47  40  37  46  56  56  57  64  70  76  74  71  76  79  81  88  91  84  73  67  65  54  44  41  63  74  92 101  68  43  44  42  49  73  94 116 128 128 118 117 106 102 105 108 107 102  58 157 205 194 217 245 245 245 245 245 245 245 245
 245 245 245 243 239 183 149 145 147 105  84  84  82  83  83  82  79  54  55  69  68  68  72  80  88  91  92  91  89  83  80  70  44  33  32  32  47  65  71  64  66  66  59  61  58  52  45  46  58  45  58  65  60  59  63  62  69  35  40  49  62  50  33  43  43  55  73  95 119 127 131 114  93  90  94  95  81  83  84  53 154 204 197 224 245 245 245 245 245 245 245 245
 245 245 245 244 247 158 147 136 137 105  85  82  82  80  76  76  78  62  61  67  67  62  62  76  86  87  90  90  87  81  72  65  29  31  32  42  56  72  66  60  58  58  56  50  50  71  97  96  71 105 129 133 100 119 126 103  95  58  41  15  13  20  21  40  48  61  80  96 121 126 126 114  89  78  93  92  83  88  72  34 168 198 196 229 246 245 245 245 245 245 245 245
 245 245 245 244 248 190 134 131 128  99  81  82  82  82  76  72  70  70  66  68  68  59  55  67  79  83  87  88  86  79  75  49  26  31  33  45  53  49  46  51  66  69  73  85  80  91 109 135 131 131 148 154 138 134 141 112 123  87  48  16  25  24  29  44  56  68  86 104 123 124 121 112  88  67  77  84  80  81  85  43 168 201 198 234 245 245 245 245 245 245 245 245
 245 245 245 245 245 249 163 113  98  96  77  76  81  83  84  63  67  65  65  65  67  61  58  62  72  80  85  89  87  81  74  50  38  36  31  26  28  29  48  53  79  71  88  91  89  98 119 142 144 140 144 147 136 139 133 116 113  79  49  21  24  42  55  55  63  79  96 112 123 124 118 106  85  71  74  82  78  76  73  61 172 202 199 242 245 245 245 245 245 245 245 245
 245 243 243 244 244 245 244 212 185 160 146  60  82  84  93  62  66  61  62  64  65  62  58  59  65  75  83  88  89  85  80  58  47  40  31  19  23  27  52  47  82  75  85  94  87  99 118 133 146 138 142 143 128 121 104 101 106  69  40  21  52  83  81  66  69  82 107 116 125 125 118 106  77  71  70  67  73  73  71  64 186 200 193 248 244 245 245 245 245 245 245 245
 245 244 245 244 243 243 244 249 250 196 159  56  80  83  87  75  61  56  57  62  65  60  58  56  59  70  81  86  90  91  81  68  60  53  47  37  20  20  36  36  60  52  70  70  74  92 112 118 117 122 125 129 113  98  92 126 101  51  23  66  82 116  93  85  75  81 107 116 126 128 122  98  72  68  67  67  67  68  64  71 204 198 194 250 244 245 245 245 245 245 245 245
 245 244 244 244 244 245 245 245 249 183 172  70  62  78  78  74  68  59  56  58  60  59  55  53  44  68  77  83  88  92  91  81  70  61  58  59  51  41  26  20  44  49  83  97  78  90  84 105 137 118 100 102 120 127  96 115 101  89  91  95 114 116 106  95  84  83 105 116 127 126 118  88  75  66  64  63  60  61  40 100 202 200 199 250 244 245 245 245 245 245 245 245
 245 245 245 245 245 245 245 244 248 157 186 100  56  64  64  69  70  62  60  58  56  52  52  52  52  56  72  81  87  92  94  87  76  70  69  75  74  70  71  76  72  64  84  89  93 106  91 105 132 130 109 106 115 112 108 103 106 104 110 118 126 121 113 104  90  94 100 117 120 123 114  85  82  75  62  61  59  56  35 131 202 202 197 248 244 245 245 245 245 245 245 245
 245 245 245 245 245 245 245 244 247 131 193 130  71  62  64  65  68  70  62  58  55  52  50  49  51  54  65  83  88  92  93  89  78  79  79  79  85  86  84  83  88  98  97  95  95  96 102 106 104 109 110 110 109 106 109 112 116 122 126 135 133 126 117 109 104  98 109 114 121 120 110 105  75  81  70  62  60  50  21 177 202 200 206 249 245 245 245 245 245 245 245 245
 245 245 245 245 245 245 245 244 241 114 191 159  76  72  66  65  65  65  66  58  54  52  49  48  48  52  64  77  86  92  90  86  84  83  82  84  88  90  96  97  97  99 102 106 105 108 108 108 109 113 114 115 117 119 120 122 125 133 146 143 135 127 122 113 108 107 113 116 119 118 107  89  83  77  70  63  61  38  71 199 198 204 205 249 245 245 245 245 245 245 245 245
 245 245 245 245 245 245 245 244 232 164 211 154  78  74  62  63  66  65  62  58  54  50  50  48  47  51  64  78  85  89  88  84  82  84  87  87  88  94 100 103 105 107 106 106 107 108 109 111 111 113 114 118 118 119 121 121 127 137 141 141 136 127 121 115 111 111 114 118 118 117 108  98  76  71  68  67  70  29 161 206 199 201 209 249 245 245 245 245 245 245 245 245
 245 245 245 245 245 245 245 245 202 174 216 119 101  56  64  59  63  63  61  58  53  50  49  47  44  52  60  75  83  87  87  84  83  85  89  89  88  90 100 103 105 106 105 104 104 105 106 107 109 108 107 109 112 115 119 120 125 134 138 139 136 125 120 114 109 110 112 115 115 114  98  84  58  54  54  64  60  20 188 205 202 197 218 246 245 245 245 245 245 245 245 245
 245 245 245 245 245 245 245 246 167 207 221  96  93  65  63  57  54  58  58  58  57  51  47  46  46  48  53  75  80  84  85  82  80  83  89  88  87  89  94 100 101  99  98  99  95  94  93  94  93  94  94  93  95  99 106 116 121 129 134 134 132 125 118 112 110 109 108 113 113 108  89  72  55  52  52  51  55  36 195 201 202 202 222 245 245 245 245 245 245 245 245 245
 245 245 245 245 245 245 245 246 145 212 244  58  58  86  57  56  52  51  52  52  52  51  47  44  43  46  56  68  75  83  82  80  77  80  85  89  87  88  92  95  95  96  93  92  82  81  85  77  80  80  79  79  78  78  81  89 110 120 125 129 128 124 116 111 111 110 110 109 112  99  80  66  46  48  47  50  45  76 203 201 202 199 229 243 245 245 245 245 245 245 245 245
 245 245 245 245 245 245 244 248 156 189 213  43  54 100  63  53  52  50  49  49  48  48  44  41  41  45  52  51  74  78  79  74  73  77  84  86  86  87  91  92  94  92  88  83  77  76  73  72  71  71  71  72  74  76  82  91 108 119 122 124 123 116 111 111 111 109 106 103 103  89  77  58  51  43  44  48  37 145 205 199 203 199 233 243 245 245 245 245 245 245 245 245
 245 245 245 245 245 245 244 247  79  24  27  59  34 139  63  49  51  48  46  45  43  41  40  40  40  42  45  53  66  76  75  73  71  74  80  85  84  85  85  89  91  91  86  82  79  73  70  69  68  65  65  69  71  75  85  90 111 116 120 121 116 114 114 114 112 108  93 102  95  90  72  58  49  41  41  36  78 173 204 201 203 195 239 244 245 245 245 245 245 245 245 245
 245 245 245 245 245 245 245 248  45  59  55  60  32 140 103  68  53  47  45  43  39  37  38  37  37  40  43  55  61  65  69  69  68  70  78  85  88  87  86  87  90  91  88  85  84  80  66  54  55  60  58  63  58  66  94 106 112 116 117 116 114 115 115 118 115 104  94  80  74  78  73  64  41  43  39  19 143 174 199 201 203 195 244 244 245 245 245 245 245 245 245 245
 245 245 245 245 245 245 244 242  38  57  64  59  32 138 129 103  75  41  45  41  38  35  34  33  34  38  43  55  59  62  63  63  65  68  74  80  89  92  92  91  93  92  91  90  88  77  90 100 103 105  98 103 118 129 119 119  98 112 115 117 118 122 127 122 107 100  98  72  69  56  66  64  42  45  32  53 171 182 198 201 205 186 250 244 245 245 245 245 245 245 245 245
 245 245 245 245 245 245 246 231  30  58  62  57  29 117 144 119  94  57  45  41  37  34  34  34  34  36  41  51  54  56  56  58  60  63  72  69  89  94  98  99  96  98  99  98 104 119 119 116 111 108 107 114 117 121 131 132 137 129 122 122 127 132 132 124 104  95  83  74  65  62  60  57  51  42  33 141 165 182 200 202 205 193 250 244 245 245 245 245 245 245 245 245
 245 245 245 245 245 244 247 209  22  63  57  53  35  92 155 114 107  79  53  39  36  36  35  35  35  36  39  43  49  51  48  52  54  52  53  64  85  90 111 109 106 106 108 109 112 115 115 112 111 110 110 115 118 118 134 132 134 134 128 137 139 136 127 113  88  67  54  56  51  47  42  46  47  36  78 193 155 187 200 202 205 195 250 245 245 245 245 245 245 245 245 245
 245 245 245 245 245 245 249 148  40  64  58  53  43  66 157 125 105  94  61  40  36  35  35  34  33  33  35  38  40  43  42  41  43  48  49  60  85  90 107 111 114 112 112 115 115 114 114 113 111 111 111 114 113 115 125 130 133 134 137 137 134 136 126 104  86  61  50  46  46  45  43  41  35  45 134 196 152 191 200 203 204 196 248 245 245 245 245 245 245 245 245 245
 245 245 245 245 245 245 250 107  54  55  27  18  18 102 154 134 110  99  89  53  42  36  34  34  33  30  30  31  38  40  36  30  39  43  46  66  80  92  99 112 114 113 114 114 114 111 100  99 102 117 109  90 105 110 125 126 132 135 135 134 128 121 114  97  86  70  44  42  41  41  41  41  40  83 164 190 151 194 201 203 204 207 247 245 245 245 245 245 245 245 245 245
 245 245 245 245 245 245 241  77  33  57  92 168 238 197 148 133 110 100  87  75  57  32  33  31  31  29  28  28  31  34  32  30  36  41  52  67  69  86  95 108 111 111 108 109 109 110 102  94  92  98  98  91  85 103 101 114 115 107 113 119 120 113  97  80  74  60  46  41  41  39  38  33  57 109 179 185 149 199 201 203 201 215 246 245 245 245 245 245 245 245 245 245
 245 245 245 245 245 245 224 122 183 245 245 197 155 120 132 127 113  92  85  75  67  42  37  32  30  28  27  28  30  29  28  29  36  41  51  54  64  76  85  95 107 101  96  92  90  86  83  81  82  85  90  80  70  82  89  93 101  99  91  85  93  85  86  78  67  46  45  40  40  38  33  33  79 118 196 187 143 196 202 204 199 217 247 245 245 245 245 245 245 245 245 245
 245 245 245 245 245 245 239 248 244 170 134  51  28  29 112 123 108  90  84  76  59  60  46  32  28  26  25  25  26  27  27  28  33  37  42  50  55  60  71  74  83  82  82  75  76  69  61  61  65  67  75  73  69  75  80  80  79  86  84  82  77  75  73  68  60  48  41  40  37  37  39  38 108 124 207 183 144 199 203 204 202 224 245 245 245 245 245 245 245 245 245 245
 245 245 245 245 245 245 246 249 206 125  28  31  20  16  93 115 104  90  82  75  69  60  52  40  31  27  24  25  25  26  26  26  30  33  36  39  43  47  55  63  61  62  63  75  60  58  56  52  55  54  57  58  54  64  70  68  65  59  67  68  62  59  54  53  48  43  40  36  33  25  52  88 112 129 209 178 156 200 203 205 197 232 245 245 245 245 245 245 245 245 245 245
 245 245 245 245 245 245 244 248 186  46  26  24  20   7  67 121 105  88  83  76  68  60  54  48  37  29  25  24  25  25  25  26  28  31  33  35  36  39  47  52  51  54  57  59  58  54  49  48  49  52  53  52  49  47  55  54  47  52  53  54  49  44  42  41  35  37  35  34  25  42  73  99 114 135 209 176 158 202 202 206 196 243 244 245 245 245 245 245 245 245 245 245
 245 245 245 245 245 244 244 248 131  24  21  23  22   8  47 114  98  91  79  73  63  56  54  50  42  29  26  24  23  23  23  23  26  29  30  29  28  29  35  42  42  43  47  48  48  47  45  43  41  40  49  47  44  47  47  42  40  42  40  37  31  32  30  36  37  36  37  34  45  71  87 107 121 140 210 171 163 205 206 206 200 247 245 245 245 245 245 245 245 245 245 245
 245 245 245 245 245 245 243 248  72  25  20  22  21   9  48 109  94  90  81  71  63  58  54  51  44  37  30  26  23  23  20  21  25  27  27  26  24  24  26  25  32  35  37  38  38  38  37  37  34  30  24  35  36  34  35  33  32  31  30  28  28  29  29  34  37  37  39  38  60  87  94 110 125 143 205 173 167 204 205 207 195 247 245 245 245 245 245 245 245 245 245 245
 245 245 245 244 244 245 243 241 104  26  11  20  19   6  50  98  88  88  82  72  65  59  54  50  46  41  34  30  25  22  20  20  22  24  23  23  22  20  20  21  23  25  28  27  26  27  23  26  24  22  22  25  25  22  26  27  25  24  24  22  23  24  27  33  39  41  38  60  72  86 104 117 125 153 200 164 175 201 204 208 193 248 245 245 245 245 245 245 245 245 245 245
 245 244 246 247 244 244 243 238 145  29  13  19  19   6  58  89  86  84  77  74  66  60  55  51  46  41  38  33  27  22  20  21  21  22  21  21  21  19  18  18  18  18  18  21  20  20  20  20  19  18  19  20  20  19  19  20  20  19  19  21  23  23  28  33  41  45  49  91  86  91 109 122 127 157 199 156 185 202 205 207 190 248 245 245 245 245 245 245 245 245 245 245
 245 244 235 221 248 247 246 248 155 102  23  18  20   5  73  72  79  80  79  73  67  60  55  50  44  40  36  33  30  25  22  21  20  20  20  20  19  17  16  16  16  15  15  16  17  17  17  15  15  17  19  20  18  19  17  17  18  19  20  22  24  25  28  29  49  56  62  82  92  95 112 119 140 159 190 151 189 202 205 207 198 249 245 245 245 245 245 245 245 245 245 245
 245 247 226 155 220 216 236 249 150  98 113  22  12   6  79  75  78  78  79  74  66  60  55  50  44  40  37  36  30  26  24  23  22  20  20  20  18  18  17  17  16  15  15  15  15  16  15  15  16  18  20  20  19  19  19  19  21  23  23  26  26  28  21  40  59  59  75  84  97 109 118 124 141 161 179 151 191 203 204 207 204 249 244 245 245 245 245 245 245 245 245 245
 245 247 219 130 166 165 208 141  27  21 113 114  18  17  80  80  79  80  78  74  67  60  56  52  47  42  39  35  33  28  27  24  22  20  20  20  19  19  17  16  16  16  15  15  15  15  15  15  17  20  23  23  21  21  24  25  24  24  25  27  21  32  48  55  63  63  75  90  99 107 123 129 143 160 153 183 210 208 204 207 208 246 244 245 245 245 245 245 245 245 245 245
 245 247 218 182 117 147 203  66  12  23  99 157 154 119  66  46  56  78  80  75  69  63  57  52  48  44  41  37  34  32  29  27  23  22  22  20  19  19  18  19  17  15  15  15  17  17  17  18  20  26  26  26  26  26  28  31  29  29  28  21  41  48  57  60  72  80  87  97 107 110 129 126 149 170  57  22 131 217 237 218 215 245 245 245 245 245 245 245 245 245 245 245
 245 244 245 191 170 150 170  16  10  26 127 129 117 140 164 163 147  80  80  77  71  65  60  54  51  46  43  37  36  34  31  28  24  23  21  20  17  17  16  17  17  17  17  17  17  18  19  20  22  25  27  26  26  25  25  27  30  29  38  47  54  55  56  66  77  85  86 101 108 117 127 131 145 173  57  12  12  16  38 123 200 249 247 245 244 244 245 245 245 245 245 245
 245 245 248 180 207 158 106   9  24  11 155 209 171 146 130 153 160  68  80  78  73  68  62  57  53  48  44  40  38  35  33  30  26  26  24  21  20  17  17  17  17  16  16  17  17  18  19  21  25  27  30  28  27  25  26  27  35  43  52  54  56  61  67  75  83  91  95 106 113 120 127 137 144 170  57   9  19  10  10   9  19 135 233 250 249 247 244 244 245 245 245 245
 245 246 212 192 230 121  20  14  22   9 154 223 161 178 193 215 162  46  81  79  76  69  65  60  56  52  46  43  39  36  34  30  29  27  25  26  25  21  19  17  17  17  19  19  20  19  20  21  23  27  29  32  34  30  31  39  42  45  52  58  62  65  71  83  89  94 102 113 119 124 129 135 143 166  60   7  19  16  19  14  18  13  26  86 145 232 250 246 244 245 245 245
 246 218 189 209 234  72  10  24  24  11 127 188 125 166 200 199 154  71  89  83  77  74  69  66  61  56  50  47  42  39  37  34  31  29  28  26  26  24  23  22  22  22  22  23  23  24  24  24  26  24  32  36  39  45  47  47  48  51  55  62  67  73  80  87  92 103 112 115 120 127 131 137 144 161  74   7  17  16  16  17  20  21  13  10  15  41 160 247 250 249 245 245
 240 164 232 207 199  19   9  22  30  28  29  69  97 152 205 197 150  80  91  83  79  74  70  67  64  61  54  51  46  43  39  34  31  30  28  26  25  26  26  25  24  25  26  26  27  29  30  31  35  36  37  41  43  45  47  50  52  54  59  67  71  78  85  88  97 112 113 117 122 128 132 139 144 156  93   9  15  13  14  15  16  20  21  22  24  12  13  26 121 230 249 247
 207 136 249 230 130  26  11  23  28  36  47  43  23  40 101 152 111  96  86  83  81  78  75  72  69  66  61  55  52  46  43  39  34  32  30  27  27  27  28  28  28  29  29  30  32  32  34  36  38  39  42  44  46  49  52  55  57  61  65  73  83  85  88  96 108 113 118 120 125 129 132 139 143 155 119   9  15  13  13  14  15  18  18  20  20  26  29  17  17  28 110 239
 136 215 239 233 105  11  19  23  28  25  25  39  43  29  23  16  16  25  79  81  80  78  76  74  71  70  67  63  59  53  48  46  42  39  36  35  32  30  30  30  31  31  32  33  35  38  39  38  39  44  45  46  50  52  55  59  64  70  77  81  86  90  99 107 110 116 119 124 127 130 134 139 144 152 141  10  15  15  13  13  14  16  17  18  20  23  22  28  25  16  22  46
