P2
92 112
255
 245 245 245 245 245 245 245 245 245 245 245 245 245 245 245 245 245 245 245 245 245 245 245 245 245 245 245 245 245 245 244 245 244 244 248 247 240 203 106  85  71  50  22  35  32  44  55  48  41  62  51  25  14  39  41  41  42  41  37  41  50  51  51  53  51  50  45  44  41  39  35  30  31  42  57  76  94 117 103  97 152 250 249 244 244 245 245 245 245 245 245 245
 245 245 245 245 245 245 245 245 245 245 245 245 245 245 245 245 245 245 245 245 245 245 245 245 245 245 245 245 245 244 244 244 244 247 234 196 132  78  74  52  46  37  41  43  44  48  48  47  47  45  38  40  45  47  45  45  44  45  46  49  49  48  51  52  50  47  45  42  41  42  40  40  40  42  27  30  27  56  78 114 103  72 187 249 246 245 245 245 245 245 245 245
 245 245 245 245 245 245 245 245 245 245 245 245 245 245 245 245 245 245 245 245 245 245 245 245 245 245 245 245 245 244 244 244 248 233 214 101  58  64  47  47  40  35  37  40  42  42  41  40  35  24  24  28  34  35  42  42  41  42  46  53  56  45  41  41  44  46  44  41  40  40  43  45  41  37  41  42  42  37  47  62  66  89 103 125 238 249 244 244 245 245 245 245
 245 245 245 245 245 245 245 245 245 245 245 245 245 245 245 245 245 245 245 245 245 245 245 245 245 245 245 245 245 244 245 228 212 176  70  52  58  46  49  39  36  36  35  39  39  38  37  31  26  27  26  26  27  27  27  33  39  40  38  21  20  29  37  32  38  43  44  43  41  40  40  46  47  42  40  43  46  43  36  41  43  52  60  72  79 183 249 245 244 245 245 245
 245 245 245 245 245 245 245 245 245 245 245 245 245 245 245 245 245 245 245 245 245 245 245 245 245 245 245 245 245 245 245 227 181  87  56  55  55  46  42  39  39  39  40  38  35  34  30  27  27  27  24  24  23  23  23  22  25  37  40  36  31  27  23  27  26  25  31  44  44  39  38  43  44  42  41  44  46  46  44  44  46  47  65  67  83  57 141 250 246 245 244 245
 245 245 245 245 245 245 245 245 245 245 245 245 245 245 245 245 245 245 245 245 245 245 245 245 245 245 245 245 245 244 245 227 105  66  58  57  51  46  44  43  41  40  39  37  32  29  29  29  29  27  25  23  23  23  22  21  22  14  39  38  38  33  31  28  28  28  27  18  27  34  37  40  41  39  40  43  46  42  43  40  39  44  55  57  67  69 100 122 237 250 244 245
 245 245 245 245 245 245 245 245 245 245 245 245 245 245 245 245 245 245 245 245 245 245 245 245 245 245 245 245 245 244 248 181  58  58  59  57  51  47  48  45  44  41  39  35  31  30  30  32  32  30  29  27  26  25  23  22  21  21  19  32  33  34  30  28  29  27  27  29  29  31  33  35  38  40  38  37  38  35  37  34  34  34  31  34  35  59  85  79  54 229 249 244
 245 245 245 245 245 245 245 245 245 245 245 245 245 245 245 245 245 245 245 245 245 245 245 245 245 245 245 245 244 245 247  76  65  67  60  63  67  58  53  51  48  44  43  39  36  37  38  37  36  34  32  31  28  28  26  24  22  21  21  24  28  32  31  30  28  26  25  25  26  29  32  34  39  41  42  45  41  36  34  33  32  33  36  34  39  48  55  69  84 100 235 247
 245 245 245 245 245 245 245 245 245 245 245 245 245 245 245 245 245 245 245 245 245 245 245 245 245 245 245 245 244 249 191  80  63  73  94  90  81  54  48  54  48  55  45  33  39  44  48  45  42  40  39  38  39  36  29  27  23  23  24  23  26  31  31  30  28  24  24  24  23  27  32  41  41  41  41  40  39  37  33  30  28  30  31  31  28  40  41  44  60  81  99 236
 245 245 245 245 245 245 245 245 245 245 245 245 245 245 245 245 245 245 245 245 245 245 245 245 245 245 245 245 247 233  85  76  93 121 131 132 112  97  84  81  76  69  55  53  58  59  64  54  49  44  43  49  43  41  41  41  40  29  19  17  21  30  31  30  26  23  24  23  23  27  32  35  36  37  36  36  36  36  33  29  29  28  28  23  25  25  25  20  34  59  84  86
 245 245 245 245 245 245 245 245 245 245 245 245 245 245 245 245 245 245 245 245 245 245 245 245 245 245 245 243 248 153  77 112 162 174 179 171 158 143 133 118 106  88  91  83  82  89  84  77  82  82  72  61  72  62  55  61  54  65  63  57  52  41  34  30  28  26  24  24  23  26  27  32  32  32  31  31  31  31  32  33  31  31  32  32  28  28  30  33  24  57  96  90
 245 245 245 245 245 245 245 245 245 245 245 245 245 245 245 245 245 245 245 245 245 245 245 245 245 245 243 248 214  69 118 186 196 200 199 188 178 163 152 144 138 137 125 126 125 122 121 128 119 111 119 112  94 100 115 113 102  93 100  87  66  50  33  30  30  30  28  27  26  24  28  31  30  27  27  31  31  30  30  33  31  32  37  38  38  33  33  33  36  43  91  71
 245 245 245 245 245 245 245 245 245 245 245 245 245 245 245 245 245 245 245 245 245 245 245 245 245 245 244 249 111  90 197 222 217 211 210 207 191 181 174 164 157 153 153 144 139 141 148 137 130 131 133 128 132 140 131 134 131 126 118 106  89  64  45  31  31  33  34  32  35  37  28  37  41  40  42  32  27  33  34  33  33  33  32  35  39  40  39  35  34  41  38 109
 245 245 245 245 245 245 245 245 245 245 245 245 245 245 245 245 245 245 245 245 245 245 245 245 245 245 248 152  71 183 239 230 221 220 219 219 216 202 183 179 172 164 156 155 151 150 148 149 152 148 148 146 147 145 143 144 141 142 131 126 112  82  51  42  35  31  36  43  49  38  38  44  39  42  43  54  47  44  36  33  36  34  32  31  32  34  36  38  38  39  22  58
 245 245 245 245 245 245 245 245 245 245 245 245 245 245 245 245 245 245 245 245 245 245 245 245 245 248 217  89 123 242 242 228 221 219 220 222 221 208 194 185 179 173 171 163 156 155 154 153 152 152 152 152 155 155 152 151 150 149 148 145 135 126  79  47  48  52  59  63  71  84  99  82  60  69  75  93 102  90  70  46  43  33  32  28  30  32  31  34  36  37  34  49
 245 245 245 245 245 245 245 245 245 245 245 245 245 245 245 245 245 245 245 245 245 245 245 245 244 247 100  69 210 247 235 224 219 216 216 219 220 218 211 195 188 181 176 170 164 160 157 155 155 154 154 155 156 157 156 157 157 155 156 151 146 148 131  91  55  35  28  41  95 138 144 146 143 137 137 143 142 134 113  88  62  42  37  32  29  28  29  30  30  32  38  41
 245 245 245 245 245 245 245 245 245 245 245 245 245 245 245 245 245 245 245 245 245 245 245 245 244 240  52 124 243 235 226 219 212 212 210 206 203 206 201 197 189 182 175 169 166 161 159 155 156 154 154 153 155 156 158 158 158 159 157 157 158 154 153 151 139 125 128 140 149 152 154 157 158 151 153 152 156 150 136 111  87  55  43  37  32  30  30  29  29  33  37  42
 245 245 245 245 245 245 245 245 245 245 245 245 245 245 245 245 245 245 245 245 245 245 245 244 246 138  59 223 236 231 220 209 205 204 202 202 200 197 196 190 185 181 174 170 161 159 157 156 153 153 152 152 152 153 154 156 158 158 158 158 158 157 159 162 164 167 162 160 162 159 163 162 162 165 160 159 158 157 156 130 120  70  62  47  39  31  30  32  31  34  36  39
 245 245 245 245 245 245 245 245 245 245 245 245 245 245 245 245 245 245 245 245 245 245 245 245 250  67  77 249 232 221 205 202 200 202 203 190 184 180 179 185 185 176 172 167 161 158 159 158 156 154 150 150 149 150 150 153 154 156 157 158 158 159 159 158 159 160 160 160 161 162 162 165 164 164 163 162 162 162 158 144 110  98  82  61  42  32  30  30  32  34  36  36
 245 245 245 245 245 245 245 245 245 245 245 245 245 245 245 245 245 245 245 245 245 245 245 245 233  43 170 246 220 209 198 194 190 183 166 164 162 170 174 176 172 168 164 160 158 159 157 158 157 154 152 150 150 147 147 149 152 154 155 155 156 157 156 155 156 157 159 160 160 161 162 164 165 164 162 162 163 163 159 125 116 126  96  77  50  28  28  28  30  31  35  38
 245 245 245 245 245 245 245 245 245 245 245 245 245 245 245 245 245 245 245 245 245 245 245 249 145  28 233 234 216 196 191 187 183 169 164 157 157 159 164 163 165 164 158 154 155 156 157 156 154 152 152 150 148 147 147 148 147 148 151 152 152 154 155 154 154 154 156 157 158 159 160 161 162 161 162 162 164 162 150 125 133 134 123  95  61  38  30  26  28  30  32  37
 245 245 245 245 245 245 245 245 245 245 245 245 245 245 245 245 245 245 245 245 245 245 246 222  36  51 247 227 207 192 184 178 172 164 158 152 152 158 160 161 162 160 158 157 156 154 153 154 153 152 150 148 147 146 145 143 144 146 147 149 150 151 151 152 152 152 152 154 156 157 158 159 161 162 163 164 164 161 148 147 151 145 139 112  70  49  30  28  28  30  31  31
 245 245 245 245 245 245 245 245 245 245 245 245 245 245 245 245 245 245 245 245 245 245 249 126  25 145 245 220 199 192 183 177 168 158 153 151 150 154 156 154 159 159 159 157 156 154 152 151 149 147 146 145 145 144 143 142 142 142 145 145 146 148 148 149 150 151 151 154 155 156 158 159 160 159 160 162 163 162 164 140 148 147 147 126  81  61  41  29  28  28  31  33
 245 245 245 245 245 245 245 245 245 245 245 245 245 245 245 245 245 245 245 245 245 244 247  70  26 224 236 210 198 189 184 177 171 160 155 153 153 154 156 157 157 159 159 159 156 154 152 150 147 146 145 145 144 143 141 141 141 141 142 143 144 144 145 147 148 150 151 153 152 153 155 157 158 158 160 161 162 163 165 157 143 146 144 138 111  76  54  36  30  30  31  35
 245 245 245 245 245 245 245 245 245 245 245 245 245 245 245 245 245 245 245 245 245 244 250  42  78 241 217 203 197 192 183 179 172 165 159 156 157 158 157 157 159 159 159 156 155 155 152 150 147 146 145 143 143 143 135 138 139 141 142 141 142 143 143 145 145 147 148 148 149 151 154 154 155 157 158 159 162 162 163 163 163 149 143 124 129 105  75  47  29  30  28  33
 245 245 245 245 245 245 245 245 245 245 245 245 245 245 245 245 245 245 245 245 245 246 198  29 184 237 213 203 198 190 189 179 172 168 164 164 165 163 159 162 162 160 158 154 154 154 152 151 150 148 143 142 142 140 137 137 139 142 142 142 142 142 144 142 141 144 145 144 145 148 151 152 152 152 153 158 160 160 161 162 159 158 153 152 149 131 109  71  42  32  31  30
 245 245 245 245 245 245 245 245 245 245 245 245 245 245 245 245 245 245 245 245 245 250  96  47 229 228 207 200 196 193 188 183 179 178 178 175 176 178 175 174 167 162 158 158 156 155 155 152 151 149 146 145 144 140 141 140 141 142 144 143 143 145 146 147 145 143 145 146 146 146 149 151 151 152 153 155 156 158 160 161 160 159 158 155 154 149 134 106  74  39  32  31
 245 245 245 245 245 245 245 245 245 245 245 245 245 245 245 245 245 245 245 245 246 241  44  97 241 218 203 196 195 194 193 188 184 185 188 191 189 191 186 178 169 164 160 158 157 155 154 154 152 151 150 149 150 151 148 146 145 144 144 144 145 146 147 148 146 147 147 147 146 147 148 149 149 149 152 154 154 154 157 159 160 159 156 154 152 153 150 125  96  53  37  33
 245 245 245 245 245 245 245 245 245 245 245 245 245 245 245 245 245 245 245 245 245 191  28 174 238 212 193 197 195 194 195 196 196 195 198 201 204 195 189 179 173 164 161 160 159 157 155 155 155 155 154 154 155 154 153 150 149 148 148 148 148 148 148 148 149 148 148 147 147 147 147 148 148 151 152 152 152 155 154 156 159 156 153 152 149 149 148 146 113  76  46  33
 245 245 245 245 245 245 245 245 245 245 245 245 245 245 245 245 245 245 245 245 250 140  28 220 223 208 199 196 198 199 199 200 201 203 205 204 203 199 191 181 175 167 163 160 159 160 158 158 160 160 159 158 158 159 157 157 157 156 154 152 150 150 148 148 150 148 148 145 146 146 148 148 149 152 151 151 150 151 154 155 155 154 151 148 144 143 149 148 117  93  62  43
 245 245 245 245 245 245 245 245 245 245 245 245 245 245 245 245 245 245 245 245 250  94  46 233 222 199 200 199 201 204 205 204 204 204 204 203 203 201 191 180 174 168 164 159 157 159 162 163 164 164 163 164 163 161 160 158 159 160 159 156 155 152 151 151 150 148 145 144 143 143 146 148 149 151 151 150 151 150 152 154 153 153 151 145 143 141 144 152 133 105  59  53
 245 245 245 245 245 245 245 245 245 245 245 245 245 245 245 245 245 245 245 245 250  60  83 240 211 200 201 203 206 209 207 205 204 204 201 196 191 185 180 176 173 168 163 161 159 160 163 164 164 164 164 163 161 161 160 159 157 159 159 158 158 155 154 151 151 148 147 145 144 142 143 143 147 150 151 152 150 152 152 153 153 152 151 142 140 140 139 141 141 118  79  65
 245 245 245 245 245 245 245 245 245 245 245 245 245 245 245 245 245 245 245 245 248  46 136 238 207 205 206 210 211 209 206 201 197 192 186 179 173 172 168 168 169 166 160 158 158 160 164 167 167 163 161 160 158 157 158 157 157 157 157 157 158 157 156 154 152 152 148 145 144 142 144 144 146 148 151 152 151 152 152 152 154 154 151 141 134 134 131 140 131 120  91  73
 245 245 245 245 245 245 245 245 245 245 245 245 245 245 245 245 245 245 245 245 243  32 181 223 210 210 212 213 212 211 203 199 183 179 168 163 161 162 166 165 163 158 151 154 154 157 163 165 165 159 157 154 151 152 154 153 153 153 154 156 158 157 157 156 155 154 150 147 143 143 144 145 146 148 150 149 150 151 151 152 152 152 149 143 133 126 126 129 128 116  87  87
 245 245 245 245 245 245 245 245 245 245 245 245 245 245 245 245 245 245 245 244 235  30 213 215 217 219 219 215 211 199 196 183 177 161 154 149 146 149 151 156 153 151 145 146 149 153 162 160 161 157 150 150 151 146 148 148 149 148 151 152 154 156 156 157 158 157 150 149 147 147 146 147 145 147 148 149 150 151 151 151 151 152 152 146 136 116 114 118 115 106  80  80
 245 245 245 245 245 245 245 245 245 245 245 245 245 245 245 245 245 245 245 245 231  34 225 216 221 228 212 201 183 169 163 162 152 144 131 129 127 137 142 143 143 141 141 144 144 151 151 146 142 139 140 141 139 139 140 141 140 141 142 144 151 152 153 156 157 156 155 151 150 150 150 147 145 146 148 150 150 149 150 151 150 149 150 150 140 114 113 107 109 106  75  69
 245 245 245 245 245 245 245 245 245 245 245 245 245 245 245 245 245 245 245 247 224  34 233 214 229 195 169 153 135 129 113  95  96  95  89 103 119 121 125 130 129 131 134 130 138 139 139 138 135 130 125 118 128 134 133 133 131 130 134 133 130 142 143 145 149 153 154 153 149 150 151 147 144 147 150 149 149 148 149 149 151 149 150 148 145 125 108  91  85  98  71  69
 245 245 245 245 245 245 245 245 245 245 245 245 245 245 245 245 245 245 245 248 211  57 224 220 176 138 123 102  83  62  54  54  50  62  86  80  95 108 122 121 125 124 123 125 133 133 133 131 122 120 118 119 117 118 114 111 105  98  89  91  96  98 117 127 132 134 134 138 147 151 150 150 149 148 147 148 149 148 148 149 150 150 150 148 145 139 119  87  79  73  74  56
 245 245 245 245 245 245 245 245 245 245 245 245 245 245 245 245 245 245 245 246 212  88 217 191 123 103  88  64  69  53  56  51  52  56  60  79  86  99 111 111 115 119 116 114 119 120 118 115 123 108 105  97  95  98  79  64  61  43  38  40  47  57  73  91  97 102 106 111 116 132 154 150 151 151 147 145 147 150 148 147 149 149 149 147 147 146 131  94  77  56  59  55
 245 245 245 245 245 245 245 245 245 245 245 245 245 245 245 245 245 245 245 245 217 112 200 139 104  88  73  58  46  47  45  45  46  52  60  70  82  91 103 109 110 113 112 112 113 113 112 110 102 101  97  86  84  82  67  60  50  46  44  44  48  50  52  60  60  69  77  71  86 109 138 147 150 150 147 146 146 148 148 147 146 147 147 148 147 147 142 116  83  58  49  44
 245 245 245 245 245 245 245 245 245 245 245 245 245 245 245 245 245 245 245 245 225 143 158 127  86  77  64  55  52  44  46  45  46  50  59  68  78  87 104 106 110 110 111 110 107 106 107 106 104  96  87  81  71  72  58  46  45  40  39  40  43  44  43  51  59  68  76  82  72  71 105 114 152 147 148 147 147 147 147 147 146 146 146 146 145 146 143 129  94  67  40  38
 245 245 245 245 245 245 245 245 245 245 245 245 245 245 245 245 245 245 245 244 233 158 144 117  82  72  63  56  46  56  49  52  52  55  59  73  80  88  99 105 109 111 110 110 108 107 105 103  96  90  84  78  72  66  54  49  46  44  44  44  42  41  43  47  47  62  72  76  79  79  79 100 117 141 146 147 147 147 146 147 146 145 145 145 145 146 143 139 104  60  45  31
 245 245 245 245 245 245 245 245 245 245 245 245 245 245 244 245 246 247 246 246 237 177 153 105  85  65  67  70  78  69  61  56  58  62  66  74  80  93  99 108 111 111 112 110 109 109 109 105  97  90  83  80  75  67  59  54  52  51  49  49  46  41  47  49  53  61  69  74  77  78  77  86  94 119 142 144 147 147 146 146 145 144 145 146 145 144 142 141  99  59  46  30
 245 245 245 245 245 245 245 245 245 245 245 245 245 245 244 245 219 186 178 199 210 192 174 134 103  92  76  82  86 102  93  80  70  56  68  67  76  84  94 109 112 115 115 114 113 113 111 107  97  91  86  81  77  72  71  67  62  62  65  64  65  65  57  53  52  51  65  70  73  76  76  78  92  99 126 142 143 145 144 144 145 143 144 146 144 142 141 143 100  62  47  36
 245 245 245 245 245 245 245 245 245 245 245 245 245 243 246 209 113 130 189 164 127 131 138 155 160 164 172 178 173 161 149 111  83  54  44  52  63  73  87 101 115 120 120 119 117 118 117 110  97  94  88  82  78  75  70  67  64  63  63  63  63  64  67  66  65  63  67  71  75  77  78  81  81  97 121 125 141 143 143 143 145 145 145 144 143 142 142 147 104  54  46  38
 245 245 245 245 245 245 245 245 244 244 245 245 243 244 248 189 166 191 164 158 148 123 100  91 106 128 129 156 174 162 134 135 172 170 131 110  77  60  65  94 116 127 128 127 126 125 123 115 107  98  85  69  62  58  51  46  48  46  38  38  50  51  49  60  70  64  62  69  57  64  73  71  81  90 110 128 136 139 141 143 144 147 146 143 142 143 142 147 112  55  46  39
 245 245 245 245 245 245 245 243 243 241 243 245 241 237 240 121  62 171 168 157 134 118 112 112 112  82  75  29  18  18  27  68 102 122 117 109 129  88  74  98 125 131 132 130 138 132 128 122 120 113 135 147 139 151 157 156 130 107  97  99  86  89  91  85  85 100 114 118 126 116 105  91  75  81  89 128 120 135 138 141 144 147 148 145 143 143 143 149 102  52  45  38
 243 243 243 244 244 245 246 239 236 232 229 223 223 221 226 109  32 118 158 161 128 120 111 111  98  84  65  43  61  81  96  51  38  15  20  48 102  87  78  82 107 101  92  99  90  77  70  49  54  69  80  92 108 115 117 122 120 127 124 129 137 146 144 144 138 142 138 143 141 141 186 215 228 229 221 196 174 144 143 136 141 145 146 146 145 144 143 142  89  50  42  36
 229 234 239 232 228 217 220 222 223 218 211 202 186 176 214 113 155 114 156 162 128 119 112 109  92  72  42  57  98 118  96  40  43  43  42  35  13  64  96  66  91  88  89  94 110 112  46  81 110  98  97  89  84  61  58  65  70  77  78  54  52  49  71  84 110 114 125 123 106 112 102  51  35  47  78 125 167 196 134 117 141 150 149 145 145 144 146 124  84  43  40  35
 224 215 200 207 210 210 199 187 198 202 221 238 246 250 244 120 142  80 178 166 127 119 112 109  87  50  39  78 119 119  97  29  47  44  42  39  35  47  83  74  86  81  80  85  78  78  80  94 105 104  98  91  85  83  81  72  67  74  88  83  72  68  65  64  59  80  98 116 115 112 109  94  82  77  83  80  92 108 114 115 118  97 116 134 146 147 142 119  71  36  38  34
 203 194 204 195 208 208 218 246 250 250 250 250 239 198 198 157 135 100 187 175 124 118 110 107  86  44  38 103 131 129 105  33  47  44  43  42  41  55  80  53 118 167 177 147 114  86  82  98 105 105  97  91  85  83  76  91 111 119 125  72  74  71  79  81  85  80  84 102 110 110 110 101  38  42  44  50  52  53  55  64  84 109 106  90  77  90 116 109  66  15  18  34
 183 208 201 198 216 247 250 238 188 129 110  74  92  83  81  86  89 120 195 170 130 116 114 106  80  56  57  60 104 104  95  65  37  37  40  39  49  61  83  56 187 202 185 159 128  78  67  96 107 102 106  97  86  85  91 106 122 131 145  74  99  84  86  88  89 126 102  78  98 108 101 100  38  44  42  47  58  64  57  50  57  62  69  67  93 111  84  78 110 136  91  33
 206 196 187 167 135 102  53  89  75  90  89  92  85  73  65  64  68 132 201 175 145 125 116 105  87  90  87  80  73  81  92  99  86  80  83  89  92 112  95 157 218 214 191 166 138  95  43  88 130 120 116 108  95 102 104 116 122 137 149  92  93  88  89  96  94 123 108  78  73  83  99 110  93  85  93  99  97 100 107 105  93  70  48  41  29  27  47  63  21  73 145  98
 102  99 101  98 105  96  83  75  74  69  77  79  86  85  83  82  69 142 203 174 156 132 112 106 102 127 104  88  83  80  87  96  91  89  89  88  82 108 112 219 216 214 194 172 147 104  35  96  99 131 118 112 122 121 122 118 124 129 135 116  90  93  93  95 103  91  82  84  86  78  85 114  92  76  78  94  99 102 120 133 125 117 113 111 103  82  67  75  76  77  75  77
 101  89  94  83  83  90  93  87  89  89  89  84  65  48  36  21  13 126 198 176 164 152 143 110 121 136 112  90  85  83  87  89  62  69  82  87  77 125 195 229 233 219 197 181 158 128  44  98  85 138 117 101  99 117 117 118 117 119 119 118 104  99  97  99 101 103 107 111 106 104 103 119 130 165 216 221 224 199 126 109 111 114 111 107 106 111 109 100  86  46  38  53
 100 103  96  96  92  84  76  61  26  20   9   9   9  10  26  34  43  57 180 193 173 166 164 140 121 132 115  99  94  83  91  95  75  72  77  79  83 157 217 220 224 211 199 183 163 141  86 111 110 148 133 104 111 115 117 111 103  94  91  91  93  96  99 102 102 105 108 111 112 115 112  90  65  56  61  71  69  89 106 117 115 112 122 116 112 112  92  68  40  34  27  12
  94  71  53  23  13   9  14  15  19  18  36  48  52  59  63  72  76  84  67  83 178 195 192 160 122 104 100  97  91  68  91  82  76  73  76  67 100 199 222 214 213 201 189 179 159 147 119  92 148 139 139 113 103  97  80  82  83  86  88  90  92  95  98 100 100 104 105 106 110 111 107  93  91  94  93 104 108 113 118 122 122 124 125 129 136 139 104  72  38  36  31  30
   8  17  20  26  40  42  48  55  63  71  69  74  74  75  73  71  76  84  85  65 131 190 196 205 219 228 193 194 158 135 121  96  96 101 106 114  94 216 208 208 194 182 175 161 151 146 137  79  98 129 130 117 109  97  92  89  88  87  86  85  88  91  94  96  99 103 104 106 111 111  98  95  95  97 102 107 112 115 122 126 128 130 132 136 138 152 105  70  40  37  29  21
  45  62  67  68  72  80  77  82  81  80  74  72  74  72  70  75  76  81  84  66 136 196 212 208 185 167 155 114 112 112 125 114 106  99 107  98 145 210 203 199 192 175 163 159 156 151 139 118  90 105 115 120 112 103  96  83  86  85  88  87  88  92  94  94 100 103  98 105 112 117  90  98 100 103 106 111 115 118 125 130 135 135 137 140 141 142 104  63  44  41  41  57
  47  86  80  78  74  74  75  75  73  69  70  72  78  79  79  81  82  83  83  55 159 204 214 216 211 198 175 152 125  95  90  89  93 104 118 129 180 208 207 199 190 170 166 162 158 156 148 130 111 105 109 109 112 111 114 109 105 100  96  97  91  92  98 101 106 110 120 120 110 103 105 103 106 108 113 116 122 125 131 135 139 140 141 142 143 141 100  67  40  33  72 124
  56  76  76  78  76  72  76  83  82  81  83  83  81  82  81  80  79  79  80  46 177 210 212 215 213 208 193 174 153 139 130 134 137 144 155 170 220 217 210 202 189 179 170 166 162 158 158 145 120 116 111 109 111 110 111 104 100 100  99  99 101 102 101 103 106 106 102 106 104 107 109 107 115 118 120 124 124 127 133 137 141 142 142 143 141 134  93  62  39  37 122 131
  70  83  88  85  85  85  84  84  85  82  80  80  81  79  75  75  75  75  70  30 196 204 209 211 210 204 200 203 192 186 180 187 197 196 158 208 226 215 213 210 199 186 176 170 167 162 159 149 136 122 112 110 110 110 112 113 111 108 104  99  99 106 108 100 111 112 113 114 111 123 126 126 125 128 127 127 128 133 138 141 141 141 142 143 143 131  89  46  39  75 129 126
  91  88  86  85  86  85  81  80  80  78  77  78  76  75  78  78  78  79  78  48 209 196 201 210 215 215 220 219 219 223 228 216 200 176 150 233 217 213 213 214 200 188 180 172 168 164 159 152 139 135 124 117 112 113 114 116 116 115 115 115 116 114 119 122 123 123 129 129 133 133 140 132 135 134 132 130 131 136 139 143 142 143 142 143 147 132  79  45  22 111 129 126
  81  82  82  81  82  84  83  81  81  81  81  82  82  82  82  80  81  83  77  63 216 192 192 223 222 224 229 234 236 225 210 196 170 148 194 227 216 206 202 197 194 185 180 172 168 163 155 151 141 129 124 118 118 118 117 118 120 121 121 125 127 129 131 124 128 129 135 139 136 136 137 136 138 141 138 133 134 138 140 143 145 145 145 143 147 118  68  49  21 142 128 123
  71  83  86  87  87  87  86  86  85  83  83  83  82  82  82  80  82  83  66  98 208 202 222 222 222 227 225 218 209 191 172 146 117 165 216 216 210 201 193 191 184 182 176 170 163 156 152 143 136 128 121 112 114 114 116 121 125 129 132 133 134 136 136 138 138 136 137 138 138 138 139 139 139 142 141 137 126 136 141 144 146 146 145 144 144 107  57  45  29 154 117 118
  91  88  88  90  89  88  87  86  85  85  84  82  82  83  82  82  80  82  68 122 203 209 214 219 224 214 210 197 178 157 121  84 111 209 219 211 200 195 192 190 179 177 174 167 159 155 151 145 135 127 119 109  93  97 108 119 127 130 133 137 144 144 146 148 147 145 138 139 139 140 140 140 140 141 142 139 117 137 144 146 145 146 145 143 134 110  50  31  88 160 132  67
  91  91  90  91  89  89  87  86  84  84  83  84  83  83  83  83  82  81  56 142 204 206 207 205 200 192 175 155 137 115  97  57 204 214 209 198 182 178 177 172 170 169 167 162 158 155 155 158 159 155 137 119  84  75  96 112 125 129 133 139 143 145 146 148 150 150 150 149 147 144 144 142 141 142 142 145 143 141 143 145 146 146 143 139 125 107  49  23 126 155 151  59
  91  90  91  89  88  88  87  85  84  84  84  84  83  82  82  81  83  82  67 150 212 200 193 192 174 152 141 124 107 101  73  90 216 205 204 189 167 157 147 150 154 155 159 158 155 155 156 159 161 161 148 140 102  59  76  91 116 124 132 138 141 146 147 148 151 155 157 161 156 151 149 146 144 145 145 145 143 141 142 143 145 145 142 139 116  94  45  20 140 154 174  77
  92  90  89  89  88  87  86  84  84  84  84  84  83  82  81  82  82  83  51 170 201 198 177 167 156 143 127 113 101  88  44 139 197 190 189 175 146 139 129 137 139 143 152 152 151 150 149 153 157 157 154 138 100  57  62  90 101 117 123 134 139 142 145 147 151 154 158 159 158 158 156 151 148 146 145 144 143 141 141 143 143 143 142 136 107  77  56  17 139 147 171  96
  91  92  91  90  88  87  84  84  84  85  83  84  84  82  83  81  82  82  56 175 201 183 165 152 142 128 114 104  91  79  39 142 161 163 169 155 145 121 121 120 126 130 136 140 141 139 137 143 152 147 146 128  90  59  62  76  88 101 113 121 133 139 141 144 149 154 155 158 157 155 154 153 150 147 145 145 144 143 142 142 144 143 140 138  96  74  57  19 140 144 165 108
  91  92  92  90  88  85  84  83  84  83  83  81  81  81  80  78  78  78  65 165 196 171 154 141 126 117 106  98  82  70  43  95 134 135 140 131 113 113 113 116 112 119 124 124 124 120 126 130 131 136 134 132  67  58  63  66  80  93 107 118 128 133 139 141 146 150 151 152 155 154 154 152 149 145 145 144 145 145 143 142 142 142 135 133  83  70  54  21 137 144 158 108
  92  91  90  89  87  84  82  81  81  79  79  78  72  76  73  64  67  74  60 161 186 162 147 130 116 103 100  87  75  66  60  59 102 102 116 126 106 103  99 103 113 111 109 109 112 110 107 114 114 120 115 111  63  68  64  59  72  85 102 114 120 128 131 136 144 147 151 151 151 152 154 153 149 146 145 143 143 145 144 143 141 138 136 119  78  61  52  63 132 149 133 115
  89  87  86  84  83  77  78  78  78  75  74  78  78  78  78  81  78  75  72 160 173 156 138 117 108 101  94  80  72  64  61  67  68  68  52 113 102  94  93  87  96 101 103  99  94  78  72  75  96  93  86  68  79  76  68  64  60  79  92 101 112 121 127 129 138 141 129 149 149 151 152 151 149 147 145 143 142 143 144 140 138 138 121 109  78  62  40  89 138 139 107  93
  76  77  75  76  76  79  81  82  83  83  84  83  83  81  81  80  80  78  85 150 157 153 130 118 105  98  89  78  68  66  64  76  80  79  59  82  94  89  86  86  88  92  93  85  50  56  59  56  46  64  73  85  86  85  74  65  65  76  88  99 107 114 120 126 135 135 136 146 148 151 152 151 149 146 144 142 139 139 141 137 133 131 114  88  70  52  40  80 151 116  96 126
  82  90  93  92  93  92  89  87  85  83  82  82  83  82  82  81  77  88 106 139 150 148 131 117 102  91  86  77  69  68  70  78  80  73  60  65  85  89  81  81  82  86  82  63  66  60  60  62  67  75  84  88  89  88  80  71  67  70  82  95  98 110 117 121 127 132 133 142 144 149 150 150 148 145 142 140 138 133 131 126 123 118 109  88  63  54  36  87 145 115 123 148
  87  93  95  93  92  91  89  87  85  83  84  84  83  82  81  81  84  67 108 119 136 138 128 114  96  90  84  75  69  67  73  76  79  67  58  46  58  70  78  70  77  78  60  50  39  49  55  60  70  74  87  90  91  88  84  77  69  69  81  86  94 104 113 117 123 129 132 137 141 144 146 147 146 145 140 135 133 130 124 120 118 115  98  86  56  56  35 101 126 145 147 149
  89  93  94  93  92  90  89  86  84  83  83  82  81  80  79  79  78  77  86 114 124 126 125 112  96  90  83  74  68  67  71  77  76  60  51  36  31  32  39  50  47  41  38  30  29  38  41  53  61  71  86  88  91  89  83  80  69  68  77  84  90 107 109 116 119 123 128 133 135 141 142 144 142 141 138 133 131 125 125 117 111 108  88  75  60  56  34 114 118 139 146 155
  90  92  92  93  90  88  87  85  85  84  83  82  82  81  79  77  78  75  87  95 100 115 122 111  98  88  82  72  66  65  63  61  52  57  49  39  35  30  25  33  39  31  27  29  30  33  39  48  55  62  77  87  88  89  82  75  70  69  70  85  91 101 106 110 117 121 123 129 131 134 138 141 135 135 133 127 126 118 111 111 105 100  70  73  68  57  38 111 126 124 143 155
  88  93  92  92  91  87  85  84  84  81  81  82  81  78  76  75  76  76  87  88  82  95 124 116  96  89  80  67  63  56  51  53  56  55  43  39  33  28  29  33  37  34  29  28  29  33  39  46  49  47  70  81  81  81  70  69  69  66  65  79  88  94 103 109 113 118 121 125 129 130 125 127 126 129 132 128 124 114 101  97  96  92  68  70  65  56  47 106 134 131 139 150
  93  94  91  90  91  87  85  84  82  81  80  80  78  76  74  73  77  88  88  87  85  80 121 116  97  90  78  61  57  46  47  49  55  55  39  39  37  32  33  34  36  35  34  33  36  37  40  45  47  53  62  68  71  76  63  62  64  63  63  77  87  93 100 107 111 115 116 121 124 124 121 123 122 111 123 118 115  95  95  87  87  82  71  68  64  59  65 105 120 136 135 153
  88  89  89  89  88  86  83  81  78  76  75  77  72  67  67  67  57  92  88  90  85  81 109 112 101  88  73  58  40  38  38  52  51  54  40  36  42  45  31  31  36  31  35  37  41  45  51  48  47  53  62  59  54  60  46  52  58  60  56  72  88  93  99 106 110 112 114 114 118 117 115 111 115 115 102 102 104 100  93  82  82  78  69  64  63  61  68  83 108 131 136 139
  85  91  90  91  82  76  74  70  65  65  54  55  60  61  67  67  75  93  91  87  82  76  85 106 105  84  72  57  36  32  21  71  82  88  86  82  81  83  83  77  72  72  66  70  67  66  57  48  62  72  72  66  62  53  38  44  49  55  59  57  83  93  97 103 109 111 112 112 109 110 109 109 109 110  96  85  88  98  95  98  78  72  68  61  61  63  70  66 110 118 123 124
  58  49  52  51  61  67  65  72  71  69  69  75  85  89  74  68  70  89  92  76  78  75  71 109 101  86  73  50  30  32  18  86  84  79  70  66  67  68  72  74  73  71  70  70  71  71  79  92  89  86  82  75  70  56  39  40  35  45  53  59  74  93  97 104 107 108 109 111 100 101 103 104 108 105 102  91  96  93  93  96  77  72  70  66  64  64  53  84  68  73  79  89
  67  67  68  77  86  90  89  75  67  55  42  20   7   6   8  44  75  79  71  75  74  76  69 108 100  88  75  42  35  32  21  46  43  42  26  58  65  66  58  41  55  67  48  49  46  55  48  41  58  75  84  89  91  86  52  36  36  31  44  52  73  90  98 104 107 106 107 101  98  91  86 103 107  97 100  99 100  91  91  88  73  74  76  69  65  68  34 224 250 235 243 250
  67  60  55  40  22  10   6   4   6   5   7  13  12  17  13  43  69  71  73  74  71  69  61  91  96  95  76  51  41  37  29  14  13  15  20  65  71  75  84  95  78  65  86  92  91  59  67  79  59  55  47  51  63  76  65  42  36  35  36  52  69  84  98 102 104 105 101  98  96  91  88  87 102 100  96  97  94  84  86  80  72  69  73  75  69  74  58 249 244 247 247 244
  27   5   4   5  13  13  16  16  15  18  18  18  20  20  13  53  63  62  82  79  73  62  47  84  93  93  79  63  49  42  37  25  19  17   8  67  81  81 103 112 115 101 111 117 110  98  97  97  81  74  72  55  53  42  30  26  27  34  37  51  69  86 101 104 104  98  92  88  85  85  82  86  78  85  91  88  88  80  79  75  68  66  70  74  75  62  79 248 245 245 245 245
  15  16  18  18  20  19  17  10  11  14  12  12  15  23  31  59  65  67  84  80  77  60  52  75  91  91  81  70  59  50  47  47  36  21   6  51  80  74  98 111 122 113 110 110 110 100  96 101  83  74  73  53  53  46  22  26  24  27  44  59  77  90 100 103 101  97  90  73  77  77  84  81  78  71  79  88  77  65  66  64  60  60  63  68  72  55 114 249 245 245 245 245
  10  21  12   6   8  15  23  44  49  55  55  65  73  64  63  59  65  70  89  76  64  59  53  61  95  89  84  74  61  54  56  61  56  42  12  11  54  71  80 106 113 101 100 107 106  88  89  84  57  65  68  38  35  35   9  12  34  42  44  66  82  93 101 102 101  95  87  73  48  66  86  75  73  58  62  83  83  73  69  66  60  57  48  62  62  74 137 249 245 245 245 245
  23  30  51  62  72  71  78  71  73  67  62  63  62  61  63  63  64  65  68  75  77  53  54  50  94  90  83  76  65  65  69  75  76  71  56  41  62  77  73  84  86  93  90  91  86  78  74  74  73  71  61  33  29  40  52  65  58  52  62  67  89  98 101 100  95  89  86  73  59  61  68  70  69  69  62  60  76  72  68  65  59  55  54  59  61  72 158 247 244 245 245 245
  56  66  71  66  64  64  65  67  63  63  67  68  70  69  69  69  63  60  61  70  67  60  53  45 101  90  85  76  74  77  77  91  97 104  91  71  58  77  87  87  96 100  88  78  81  83  85  82  78  71  74  75  73  81  96  84  69  62  69  80  91  98 104 100  96  87  81  75  59  60  62  64  65  65  66  66  66  66  64  63  58  52  51  57  63  72 178 247 245 245 245 245
  59  66  73  73  73  74  75  75  75  76  75  75  74  74  72  69  62  58  58  60  61  58  52  36  93  89  84  77  75  80  80  97 120 125 118 102  92  83  90  93  96  95  89  82  81  85  88  86  87  92  94  92  99  99  93  85  76  70  67  81  91  97 101 102  94  83  79  77  60  56  57  60  61  58  60  65  61  61  62  59  55  50  47  48  52 102 203 247 244 245 245 245
  86  84  81  78  78  78  77  77  78  77  77  77  76  75  73  64  59  56  55  55  55  54  51  39  81  87  84  77  76  81  84 104 122 125 115 105 102 108  99  99  97  97  91  89  88  91  88  98 107 104 106 112 108 103  97  90  82  78  78  83  90  98 102 102  94  78  76  68  58  54  50  56  57  55  52  55  53  56  58  58  56  51  49  35  67 101 225 248 245 245 245 245
  83  82  82  81  81  81  78  79  78  78  77  77  77  75  72  61  55  51  51  53  53  51  50  43  69  87  84  79  79  83  87 108 121 122 117 110 104 100 101 101 102 102  95  96  98 101 103 110 112 113 112 111 109 106 102  94  88  84  84  86  87  97 100 100  99  82  73  68  61  56  52  51  54  54  50  45  45  48  50  57  54  53  57  58  90 130 237 245 245 245 245 245
  85  84  83  83  82  80  79  79  80  79  77  76  77  74  71  63  40  40  43  49  51  47  47  48  54  89  82  79  80  85  83 107 120 118 116 105  96  95  96  95  99  98  93  96  97 101 108 111 115 115 115 112 109 105 103  96  90  87  87  89  91  96  98  98  92  86  76  70  64  61  57  52  52  54  50  48  46  45  50  52  53  52  53  58 114 131 241 245 245 245 245 245
  83  83  82  81  82  80  80  80  79  80  77  76  76  74  70  59  38  39  38  46  50  48  46  48  48  89  81  77  80  87  87 110 114 112 107  97  89  86  83  80  81  83  87  87  91  94 102 108 111 113 113 111 107 104 100  97  92  90  90  90  93  95  96  97  94  79  77  70  63  61  58  54  54  55  54  51  51  53  54  55  56  60  66  59 124 125 246 244 245 245 245 245
  84  83  83  82  82  81  80  80  77  78  77  76  76  73  72  58  37  34  37  46  49  48  45  45  53  75  80  76  85  89  92 108 109 113  92  78  77  71  72  72  69  69  72  79  86  91  99 102 107 111 110 109 107 101  99  96  92  89  91  91  94  93  93  95  86  78  70  67  64  60  59  54  54  55  55  55  55  52  52  55  59  62  91  94 121 120 250 245 245 245 245 245
  84  83  83  83  83  82  80  79  77  78  78  77  76  74  73  53  37  36  36  48  52  50  46  42  48  66  75  75  86  96  96  98 107 107  77  73  63  59  59  59  60  61  60  69  71  79  92  97 101 105 103 105 103  97  95  92  89  87  88  90  92  92  89  87  82  71  64  54  47  42  46  47  49  51  52  55  55  52  49  52  57  62  69  98 129 139 250 244 245 245 245 245
  85  84  84  84  81  81  80  80  79  77  77  75  76  73  68  51  37  35  38  48  53  53  47  42  44  59  69  74  87 108 101 100 100 101  85  74  63  59  57  52  53  55  57  56  65  74  85  91  96  99  99  98  96  95  93  92  89  87  86  87  89  90  87  82  73  63  58  51  44  43  41  42  43  43  47  54  57  55  51  52  52  50  65  95 130 168 249 245 245 245 245 245
  84  84  82  80  80  79  80  78  77  76  75  77  76  73  68  38  38  35  40  48  54  58  48  44  43  55  66  72  83 112 110 103  99  98  94  82  60  47  48  53  54  56  58  62  63  77  85  92  95  95  93  93  93  95  92  91  89  85  83  82  83  85  82  79  66  58  50  45  41  38  36  37  39  40  44  55  53  54  53  49  46  81  97 113 127 197 245 245 245 245 245 245
  84  82  80  81  80  79  77  77  77  77  76  75  75  71  62  43  37  36  41  48  53  58  57  43  43  56  61  63  66 119 120 115 112 111 106  97  92  87  79  63  58  47  46  59  65  81  87  92  94  93  93  93  94  95  94  93  88  83  78  78  79  80  77  72  63  56  48  42  38  34  33  32  32  36  37  44  50  52  55  53  89 106  93 115 122 224 244 245 245 245 245 245
  83  82  81  81  80  81  80  80  78  77  76  76  75  71  61  42  37  38  42  50  54  61  54  45  46  51  50  55  69 126 128 127 121 124 129 127 122 114 103  94  94  96 104 106 102  91  87  87  94  91  98  93  98  99  96  94  86  80  74  70  75  76  72  67  60  56  51  45  40  35  31  30  33  34  36  41  48  52  53  88 103 109 111 123 101 249 245 245 245 245 245 245
  81  82  82  82  81  80  79  77  76  76  75  76  75  71  60  44  38  37  39  52  55  53  49  30  33  41  43  39  90 128 141 144 145 144 142 134 124 114 103  98 101 106 111 113 116 116 110 106  93 101 102 109 112 106  96  86  83  77  72  62  54  53  58  58  57  56  54  47  42  37  35  34  35  37  36  39  50  53  77 107 102 107 115 127  92 250 244 245 245 245 245 245
  81  81  82  81  81  80  77  76  76  77  75  75  74  71  59  44  40  42  44  24  23  25  51  58  23  39  40  43  96 131 146 147 149 152 148 134 122 118 110 106 104 103 110 115 116 118 118 116 115 123 117 113 109 109  90  85  75  74  70  63  55  53  50  51  51  53  50  48  42  39  38  36  38  38  36  46  64  77  94 100 102 106 119 124  97 250 244 245 245 245 245 245
  80  81  81  80  80  80  77  77  77  77  76  76  74  71  56  37  30  15  36  73 199 250 249 163  16  34  41  41  85 125 144 146 152 152 145 128 116 120 112 101  98 100 109 116 118 120 122 120 121 119 120 114 105  90  80  65  68  60  46  43  46  46  44  43  41  41  44  43  41  39  37  35  37  38  44  71  66  83  96 101 105 111 118 125 103 250 245 245 245 245 245 245
  82  80  80  80  80  79  78  76  76  75  76  75  73  71  46  19  25 139 244 250 229 212 166  71  40  35  40  48  68 108 133 142 136 129 124 119 108 105 100  84  93  95 104 108 115 123 124 118 119 119 111 109  95  85  77  66  52  48  44  40  37  37  39  39  37  33  31  39  39  36  34  36  42  49  81  77  91  89  96 104 108 114 113 118 123 249 245 245 245 245 245 245
  82  80  80  79  79  79  77  77  77  77  77  77  75  55  40 129 236 250 250 238 136  43  15  18  40  39  39  43  53  90 103 114 107 100  88  84  86  87  82  76  76  80  86  97  99  96 103 105 109 102  93  93  86  73  70  66  54  48  41  36  33  29  35  36  35  32  32  36  37  37  39  37  46  63  80  82  87  92  99 104 109 115 116 123 140 248 245 245 245 245 245 245
  80  79  80  79  79  78  77  77  77  77  79  75  55  54 208 250 248 250 174  96  17  21  15  20  30  34  36  42  44  68  77  81  83  78  71  62  61  63  64  65  60  70  75  76  83  83  83  83  84  81  80  73  75  64  61  59  50  43  39  34  32  31  34  32  31  31  29  31  33  37  41  52  61  74  80  89  91  96 101 105 108 118 124 117 158 248 245 245 245 245 245 245
  80  79  77  77  77  77  76  76  76  76  71  62 142 248 248 249 245 170  44  58  28  18  20  19  23  28  35  39  39  49  51  63  66  61  49  51  51  52  58  56  57  59  65  62  67  71  67  69  74  70  67  68  68  58  55  53  47  41  37  32  29  28  30  32  28  27  26  26  30  36  43  65  76  76  81  88  93 100 102 105 111 118 125 115 164 249 246 245 244 245 245 245
  78  77  77  76  77  75  75  77  77  73  54 193 249 245 249 240 110  42  32  18  22  20  16  16  18  17  26  38  36  40  46  51  48  49  47  44  44  39  42  42  45  52  53  49  51  56  58  59  54  54  56  57  54  50  46  46  44  38  32  28  27  27  28  28  27  25  25  26  27  42  59  70  73  75  82  88  92  96 103 108 113 117 127 120 145 214 247 250 248 245 245 245
  77  77  77  76  75  75  77  78  75  56 193 249 245 249 203 115  44  35  31  28  23  19  15  15   6  41  75  24  33  31  28  39  43  41  39  36  34  34  37  38  40  42  43  40  42  44  42  42  43  44  39  38  40  39  39  39  36  34  31  29  29  31  29  27  26  28  32  31  51  56  56  70  71  75  84  90  93  95 102 110 113 118 127 133 127  52  76 136 222 249 250 246
  78  77  77  76  77  77  77  77  60 147 248 244 249 192 148  69  58  23  27  23  21  17  16  15   6  83 145  27  31  28  26  21  27  29  27  28  26  24  20  27  32  34  35  31  34  33  33  35  33  31  30  27  30  24  30  30  26  27  29  31  31  31  29  27  28  27  35  54  66  61  72  71  72  79  86  90  93  94 104 110 113 121 126 131 159  15  11  12  35 111 190 240
  78  77  77  78  77  77  77  66  47 243 245 249 203 164 130  73  50  32  26  21  17  16  15  17   6 116 143  63  34  28  23  21  19  17  19  18  20  18  19  21  22  24  25  24  26  25  24  25  25  23  22  24  23  23  24  24  25  25  27  30  32  32  32  33  37  53  59  58  62  66  70  73  74  74  87  92  94 104 107 113 116 122 127 131 157  12  17  14   6  11  13  34
