P2
92 112
255
 245 245 245 245 245 245 245 245 245 245 243 249 200  83 100 110 110 131 133  23  48  48  52  52  50  57  50  59  57  73  43  44  61  65  67  87  72  91 106  89  41  67  78 106 105  79  46  95  61  43  59  62  75  81  64  58  61 119 130 130  97  84 139 218 250 246 245 245 245 245 245 245 245 245 245 245 245 245 245 245 245 245 245 245 245 245 245 245 245 245 245 245
 245 245 245 245 245 245 245 245 244 245 249 207 145  90  98  82 112 141  89  36  50  51  53  52  51  51  53  52  46  39  42  50  53  58  63  72  75  61  59  49  58  68  83  69  56  39  55  45  51  55  56  72  86  77  61  72  95  74  43  53 107 106  85  73 153 246 244 244 245 245 245 245 245 245 245 245 245 245 245 245 245 245 245 245 245 245 245 245 245 245 245 245
 245 245 245 245 245 245 245 244 246 250 222 126  91 116  93  78  78 105  87  65  50  53  53  50  50  49  51  51  55  54  54  53  53  54  54  47  39  45  53  53  52  49  43  37  39  36  33  38  49  55  62  64  66  57  56  77  56  41  44  39  69 109  84  81  67 193 248 244 245 245 245 245 245 245 245 245 245 245 245 245 245 245 245 245 245 245 245 245 245 245 245 245
 245 245 245 245 244 244 245 247 230 168 142 104  80  88  91 106  97  81  75  67  56  53  54  52  51  52  52  55  54  51  58  56  54  57  55  53  50  48  48  45  46  42  37  29  35  30  32  36  46  50  55  57  50  48  56  47  42  46  52  51  57 112 105  81  72 137 242 245 244 245 245 245 245 245 245 245 245 245 245 245 245 245 245 245 245 245 245 245 245 245 245 245
 245 245 245 245 244 246 245 194 153 116 115 100  85 104  99 115  96 106  49  66  79  52  40  36  30  57  61  45  74  82  82  77  70  49  64  54  50  47  44  42  40  35  32  30  32  31  31  38  42  45  48  46  43  44  35  29  41  43  45  68  79  85  97 114 112  92 203 250 245 245 244 245 245 245 245 245 245 245 245 245 245 245 245 245 245 245 245 245 245 245 245 245
 245 245 245 245 246 239 158 115  96  98 129  96  77  77 102 126 100  65  86  87 105 107  93  87  90  71  59  91  98 109 110  97 102  91  75  70  55  51  47  43  40  36  31  31  32  33  33  39  43  45  40  38  38  35  32  32  33  36  41  50  66  76  86  96  89  88 133 211 232 245 244 245 245 245 245 245 245 245 245 245 245 245 245 245 245 245 245 245 245 245 245 245
 245 244 244 249 240 135 102  87  71 129  62  94  78  90  99 110 114  79  80 116 127 121  97  85  70  85 110 126 130 119 106 112 117  90  82  68  69  55  51  47  43  38  30  33  33  34  35  39  40  34  34  32  28  29  29  29  27  26  26  24  43  50  40  53  80  86 100 188 208 229 245 244 245 245 245 245 245 245 245 245 245 245 245 245 245 245 245 245 245 245 245 245
 245 245 248 225 121  65 102  72  95  73 108  81  92  59 120  91 144  96 111 116 113 106  88  73 101 143 137 132 137 110 122 132 134 134 114 100  85  78  55  47  38  38  40  38  38  38  38  36  34  33  33  30  29  28  30  28  25  23  23  25  27  54  56  45  34  45 104  78 105 217 249 245 245 245 245 245 245 245 245 245 245 245 245 245 245 245 245 245 245 245 245 245
 245 246 228  99  76 131  96  74  52 122 151  94 113  50 140  60 125 113 127 144 147 143 145 178 168 148 127 126 126 152 151 156 166 162 156 142 125 109  94  77  59  49  45  39  42  36  37  40  32  40  37  36  33  33  34  31  28  24  23  23  25  29  50  51  50  32  92 135 113 185 248 244 245 245 245 245 245 245 245 245 245 245 245 245 245 245 245 245 245 245 245 245
 245 239 101  99 122  97 114  84  76 148  86  97 109  87 109  81  81 123 141 175 182 181 186 167 166 171 175 185 194 197 202 198 191 187 167 154 152 138 126 115 106 100  84  70  68  52  46  40  44  42  46  42  39  40  41  36  27  28  24  23  23  22  39  51  49  39  76 103 130 102 230 246 245 245 245 245 245 245 245 245 245 245 245 245 245 245 245 245 245 245 245 245
 250 128  85 104 105 122  93  89  85  83  86  94  89 100  83  64  73 101 151 174 179 183 175 188 200 208 215 213 211 204 200 204 204 203 192 179 177 165 150 147 137 125 121 110  83  91  87  84  79  75  65  57  55  45  49  44  40  27  28  22  21  22  21  44  48  48  53  75  92  86 250 245 245 245 245 245 245 245 245 245 245 245 245 245 245 245 245 245 245 245 245 245
 187 100 107  96 100 107  49  47  61  53  78  98  84  80  68  62  76  78 158 175 172 187 203 218 214 212 209 210 211 214 214 213 213 204 193 187 181 175 166 155 150 143 139 132 130 129 125 118 118 113 103  87  78  84  57  53  47  47  36  26  17  23  21  35  45  52  48  47  78 121 250 244 245 245 245 245 245 245 245 245 245 245 245 245 245 245 245 245 245 245 245 245
  79  90 132  67  83  40  47  58  61  65 102  90  74  62  65  59  81  70 163 183 196 205 204 206 208 209 208 206 206 207 209 209 205 200 196 194 181 178 174 163 158 156 153 157 151 149 145 152 149 141 137 137 138 119 113  96  86  85  71  60  49  30  30  25  45  49  49  42  70  90 173 247 245 245 245 245 245 245 245 245 245 245 245 245 245 245 245 245 245 245 245 245
  33 129  54  61  54  50  53  53  58  65  65  67  59  49  63  82  84  75 149 188 199 200 202 204 205 206 205 203 204 203 202 202 201 197 199 195 186 178 175 169 164 160 159 158 157 154 156 153 154 156 153 152 148 147 141 134 127 126 109 100  67  53  30  30  42  44  46  48  49  96 109 248 245 245 245 245 245 245 245 245 245 245 245 245 245 245 245 245 245 245 245 245
  63  58  53  59  54  52  50  56  58  59  53  52  47  47  69  87  88  99 164 181 195 195 198 202 203 202 197 196 192 193 189 190 194 189 185 181 180 178 174 171 167 164 161 161 160 160 160 157 157 158 158 157 158 158 157 156 155 149 136 124 105  72  58  43  41  41  41  44  45  77  85 247 244 245 245 245 245 245 245 245 245 245 245 245 245 245 245 245 245 245 245 245
  46  61  60  57  54  55  69  46  55  55  49  49  46  55  76  93  85 130 169 179 183 189 191 199 200 199 198 185 176 176 177 177 174 177 175 175 174 173 173 171 167 164 163 163 165 164 162 162 161 162 162 162 162 163 161 161 159 154 152 147 134 102  70  59  42  42  42  43  43  77  69 237 247 244 245 245 245 245 245 245 245 245 245 245 245 245 245 245 245 245 245 245
  53  64  62  56  54  53  69  54  55  52  49  48  54  55  90  95 107 159 170 174 178 185 191 194 193 190 186 175 171 169 170 162 167 170 172 169 169 167 168 168 167 164 162 162 163 164 163 162 162 164 165 165 166 167 166 166 164 162 158 154 149 141 110  66  39  41  54  57  57  42  20 204 250 244 245 245 245 245 245 245 245 245 245 245 245 245 245 245 245 245 245 245
  61  66  63  56  53  53  58  50  48  47  47  48  48  68  83  92 146 172 186 183 182 187 189 189 190 182 179 172 165 157 150 152 152 153 156 157 160 163 167 165 164 161 162 159 159 161 162 160 163 165 164 165 164 166 166 166 167 166 164 163 162 157 150 119  56  72  68  48  42  50  13 137 246 245 245 245 245 245 245 245 245 245 245 245 245 245 245 245 245 245 245 245
  67  66  60  53  51  50  45  45  42  41  41  46  54  68  83 122 160 170 189 186 185 185 186 185 183 180 173 167 161 156 151 147 145 145 149 150 148 152 146 148 153 155 156 156 157 159 159 159 161 162 162 163 163 165 165 165 164 167 167 166 166 165 167 150 110  66  94 135 100  35  29  21 219 249 245 245 245 245 245 245 245 245 245 245 245 245 245 245 245 245 245 245
  63  55  52  54  51  48  45  42  40  41  43  47  55  64 109 127 165 180 189 186 182 182 182 181 175 173 172 168 160 154 147 129 136 141 143 142 138 145 144 145 147 149 150 152 155 156 157 159 159 162 163 162 162 165 164 164 161 164 165 166 168 167 167 174 177 172 180 198 179  43  25  63 136 249 245 245 245 245 245 245 245 245 245 245 245 245 245 245 245 245 245 245
  58  53  52  53  49  46  44  41  40  41  44  49  54  83 122 146 174 186 187 183 180 179 177 175 174 171 168 163 158 154 142 140 138 135 137 138 138 138 141 142 144 145 147 149 151 153 155 155 158 159 160 162 164 165 166 164 162 162 163 163 166 167 170 173 177 188 197 208 206 120  17  69  99 247 245 245 245 245 245 245 245 245 245 245 245 245 245 245 245 245 245 245
  53  51  50  48  46  44  40  40  38  41  47  46  76  92 129 160 187 185 184 181 175 175 174 171 169 167 163 157 155 149 145 142 139 137 134 136 137 137 138 138 140 141 143 145 149 152 154 155 156 158 159 161 163 164 163 163 162 161 162 162 165 167 169 172 175 180 192 199 211 183  20  31  89 237 244 245 245 245 245 245 245 245 245 245 245 245 245 245 245 245 245 245
  51  49  48  41  41  40  40  40  41  43  45  49  83 108 138 169 181 185 184 178 175 173 168 164 164 162 159 155 152 151 149 145 142 140 137 137 137 137 138 138 139 139 141 143 146 150 151 154 156 159 157 158 159 161 161 161 163 163 162 162 163 165 167 170 172 178 190 202 205 205  46  24  86 168 248 245 245 245 245 245 245 245 245 245 245 245 245 245 245 245 245 245
  49  45  43  40  38  41  43  43  42  45  42  70  89 117 151 164 177 178 178 177 175 170 165 158 157 152 154 154 153 153 152 148 145 143 140 139 136 137 138 139 139 139 141 143 146 148 150 153 156 158 159 159 158 158 159 160 160 162 161 160 161 163 166 167 171 175 181 193 198 209 102  20  99 145 249 244 245 245 245 245 245 245 245 245 245 245 245 245 245 245 245 245
  47  44  41  37  36  40  40  40  42  47  58  80  91 122 149 162 172 173 174 175 171 165 157 155 152 151 150 151 152 151 151 151 149 147 145 142 140 139 140 140 140 141 142 143 146 147 149 152 155 158 157 157 158 158 158 158 159 159 159 159 159 161 162 164 168 172 178 185 195 209 130  31  83 144 249 244 245 245 245 245 245 245 245 245 245 245 245 245 245 245 245 245
  45  42  41  38  36  36  38  40  44  48  60  87  91 118 144 158 166 169 170 168 166 162 156 151 149 148 148 148 148 147 149 153 151 150 149 145 143 143 142 142 143 144 143 145 147 147 150 152 154 156 158 158 158 157 157 158 157 157 157 157 155 158 160 163 164 171 176 181 191 205 152  25  33 181 242 244 245 245 245 245 245 245 245 245 245 245 245 245 245 245 245 245
  43  42  39  37  35  35  38  42  46  53  69  83  98 126 144 156 161 165 167 165 161 159 155 151 149 147 145 147 147 147 149 151 152 152 152 151 149 149 149 148 148 148 149 149 150 151 151 155 154 156 157 158 159 159 158 158 158 156 153 154 156 157 158 159 162 168 172 178 186 196 182  30  27 185 227 245 245 245 245 245 245 245 245 245 245 245 245 245 245 245 245 245
  42  39  37  36  35  35  37  42  47  50  72  85 104 129 151 156 161 164 164 162 159 157 153 150 147 145 142 145 147 147 150 152 155 155 155 156 156 157 156 153 153 154 153 153 153 153 154 154 156 157 157 158 159 157 157 157 157 156 154 153 154 156 158 158 161 162 170 175 182 189 197  40  35 167 231 246 245 245 245 245 245 245 245 245 245 245 245 245 245 245 245 245
  40  38  36  34  32  34  39  44  48  55  74  97 118 133 148 160 164 165 164 163 160 154 151 145 143 142 141 144 147 150 154 159 159 159 159 160 161 162 164 165 162 161 161 159 158 157 156 155 157 157 157 157 157 157 157 157 157 157 156 155 154 154 157 159 161 162 164 169 178 184 207  66  22 184 234 245 245 245 245 245 245 245 245 245 245 245 245 245 245 245 245 245
  42  39  35  32  32  36  40  46  50  60  66 104 108 143 158 162 164 162 162 159 156 151 147 146 145 143 143 145 147 151 157 159 161 163 165 164 164 164 164 165 165 164 163 164 160 160 159 158 158 157 157 158 159 157 157 157 158 159 159 159 158 158 159 161 163 165 165 166 174 181 207 105  20 161 238 244 245 245 245 245 245 245 245 245 245 245 245 245 245 245 245 245
  44  39  34  33  34  38  42  46  52  55  76 104 126 146 163 162 161 159 155 156 154 150 148 147 148 148 148 152 151 157 161 162 165 167 166 166 166 164 164 166 166 166 163 165 164 163 162 160 160 159 158 158 159 157 158 159 159 160 161 161 161 161 161 163 165 165 166 168 172 180 199 152  18  75 248 244 245 245 245 245 245 245 245 245 245 245 245 245 245 245 245 245
  43  36  35  34  36  37  43  47  53  55  81 110 141 161 162 161 159 159 157 154 153 152 151 153 153 158 154 159 165 168 169 166 170 170 170 169 165 162 161 163 163 161 162 162 162 162 162 161 160 159 158 157 159 159 159 159 162 162 164 164 164 163 162 162 165 166 167 169 173 179 188 191  27  23 247 247 245 245 245 245 245 245 245 245 245 245 245 245 245 245 245 245
  40  36  33  36  34  36  42  48  54  54  88 132 146 159 159 159 159 158 153 151 152 153 158 161 167 173 178 183 185 183 178 178 170 169 169 167 163 158 154 155 157 154 154 154 159 158 160 162 160 160 159 159 159 159 159 160 161 164 165 163 165 166 166 166 166 165 166 167 170 178 186 213  69  17 211 250 244 245 245 245 245 245 245 245 245 245 245 245 245 245 245 245
  37  34  35  35  33  35  42  48  51  70 113 142 147 154 156 155 155 154 151 150 153 159 162 175 181 180 188 195 192 185 182 181 175 169 163 162 155 151 148 148 147 146 146 147 150 153 157 160 159 158 157 157 157 157 159 159 161 163 163 164 165 166 168 169 168 168 167 165 168 177 187 214  93  19 140 250 243 245 245 245 245 245 245 245 244 244 245 245 244 245 244 244
  35  35  37  38  36  37  41  39  61  92 137 146 150 154 155 153 151 150 149 151 153 161 168 181 182 183 179 171 167 163 161 152 145 146 139 132 133 142 143 139 138 138 131 140 144 149 153 157 157 156 155 154 158 159 159 159 159 161 161 163 165 166 168 170 171 171 169 166 168 173 183 207 119  20  60 249 244 245 245 245 245 245 245 245 243 243 245 243 243 244 243 243
  36  35  34  34  33  38  40  38  62 115 145 147 156 159 156 153 150 150 150 152 163 169 179 192 184 164 146 130 124 122 117 112 107 104 108 101 100 100 110 116 121 127 127 125 135 144 150 152 152 153 151 153 154 156 159 157 157 157 159 161 163 165 166 168 172 172 173 171 168 169 182 203 143  18  23 238 243 243 245 245 245 245 244 243 243 244 244 242 242 242 241 241
  36  35  34  32  33  37  40  39  81 125 149 156 160 158 156 153 151 149 149 153 160 173 185 178 150 121 102  92  80  79  81  81  74  54  40  46  45  48  62  83  88  98  99 114 124 128 141 145 147 146 145 148 150 151 152 154 156 156 156 159 161 162 163 166 172 175 177 172 169 172 180 200 148  20  30 214 242 243 245 243 243 243 243 243 242 243 243 241 240 240 240 239
  40  37  35  34  34  38  41  39  99 140 161 162 162 160 156 154 149 148 148 152 167 165 148 114  82  75  79  78  76  64  64  47  49  49  47  48  48  50  46  48  73  82  80  99 116 123 132 140 142 142 140 142 147 147 150 149 148 152 149 153 157 155 157 158 167 172 178 176 174 177 181 197 149  20  37 203 246 242 243 243 241 241 241 241 240 240 239 240 234 234 234 227
  40  37  35  35  38  42  45  57 116 149 166 163 162 158 154 149 144 145 145 153 127 114  94  94  85  76  73  60  65  56  50  46  39  40  41  41  44  46  48  51  58  74  82  91 104 118 126 132 133 134 132 136 143 144 144 144 142 138 140 149 151 152 152 156 159 169 178 177 178 179 181 198 144  24  23 202 245 242 241 239 240 237 236 237 232 235 237 233 236 229 222 216
  39  37  36  32  40  31  46  72 128 158 163 159 153 151 124 129 129 147 145 133  73  97  88  82  79  67  65  62  58  56  53  48  45  42  40  41  42  43  47  48  52  70  77  87  98 109 122 127 126 129 128 129 137 138 136 134 128 129 131 132 131 132 133 132 129 148 167 178 185 180 181 196 144  17  19 203 226 233 231 227 226 221 219 222 220 223 212 204 187 177 150 133
  41  28  20  19  16  19  31  68 131 155 168 171 179 187 217 214 181 154 170 168 128  95  73  62  56  58  53  57  60  58  51  56  47  48  41  42  44  42  45  54  60  70  77  82  92 108 110 122 124 125 123 124 125 126 125 121 120 116 107 105  85  73  59  59  78 102 130 145 168 178 182 200 131  21  18 212 204 201 220 219 216 212 194 170 148 117 102 107 127 161 191 220
  19  37 116 165 205 244 242 241 241 239 236 227 209 207 153 124  96 104  35  95 150 141 132 108 112  94  83  54  51  64  81  81  83  72  68  61  59  62  60  65  68  76  84  90  96 108 114 116 122 122 122 121 123 123 119 117 109 102  92  87  63  62  56  48  44  61  95 102 113 180 181 201 113  22  19 207 189 189 127 123 108 126  76 123 148 202 229 247 249 249 248 243
 109 167 159 121  51  25  27  62 100 115 112 115 115 116 128 127 126 121 118  89  64  62  93 136 146 137 130 148 164 156 139 126 117 104  91  78  74  68  68  73  76  80  86  91  98 111 114 117 121 122 120 120 121 121 118 107  99  89  84  73  57  45  46  49  52  49  75  76  75 145 187 207  93  16  86 110 104 117 150 168 201 231 245 249 247 247 246 242 241 242 242 242
 141 129 103 112 146 185 132  80  80  93 104 107 114 110 124  83  18  32  60  69  79  84  98 107  86 104 117 131 139 152 150 162 179 189 169 132  87  64  66  64  75  79  83  92 100 110 115 119 122 122 123 124 122 119 116 104  91  86  73  59  51  49  47  48  50  52  65  75  84  89 174 214  61  17 142 211 235 244 245 247 247 246 244 241 241 243 243 241 244 243 243 244
  25  11   9   9  38 185 244 225 193 128  92  91 114 168 111  81  15  10   7  17  37  85 119  86  90  90  71  49  46  66  90  93 111 119 139 173 197 198 147  74  50  52  70  89 100 111 115 123 127 128 128 131 126 118 113 100  87  81  71  56  51  54  47  48  47  52  62  71  89  73 150 217  35  18 186 245 241 241 243 242 242 243 243 243 243 243 243 243 243 243 243 243
  59  35  41  44  29  13  39 181 231 249 245 212 192 184  98 104  99  84  59  28  37  89 103  89  72  54  64  63  78  78  71  71  73  81  82  81  74  75 147 174 200 142  62  60  93 112 121 129 131 133 133 133 130 115 105  96  87  81  79  77  70  69  69  59  60  56  59  75  82  71 128 208  19  43 234 246 242 243 243 243 243 243 243 243 243 243 243 243 244 245 245 244
  92  65  52  44  40  39  26  95 114 105 143 205 234 241 183 108 105  87  87  87  76 100  91  65  56  65  63  52  36  34  45  53  66  64  66  49  74  83  57  68 101 143 189 205 144 117 108 140 141 142 143 139 135 113  98  92  86  80  76  74  78  80  89  98  83  75  59  76  83  78 128 184  20 141 232 245 243 243 243 243 243 243 243 243 243 245 245 244 245 245 245 245
 112  82  63  45  39  39  43 108 155 145 121  90  99 115 120 125 134  96 108  84  78 115  67  62  60  55  45  52  52  38  37  40  59  69  64 101  83  72  77  74  78  89  91 103 172 214 197 157 148 145 146 144 137 109  80  69  64  62  53  44  41  47  59  78  93  90  91  91  80  83 145 155  54 219 246 243 243 243 243 244 245 245 245 245 245 245 245 245 245 245 245 245
 113 110  83  40  40  32  54 119 153 148 140 131 120 113  96  93  84  82 117 129 118 110  68  63  60  54  54  84 103  77  56  47  39  42  49 139 121  89  72  75  71  71  90  85  67 103 189 126 154 192 192 177 156 132 131 135 126 120 116 118 126 125 115  70  41  60  71  68  78  93 156 113 158 246 242 243 244 244 245 244 245 245 245 245 245 245 245 245 245 245 245 245
 115 118 116  49  39  44  59 126 147 146 143 132 123 115 106 100  92  83  61  69  97 109  68  65  59  66  76 108 109  73  63  50  46  42  59 122 116 107  77  73  75  76  85  88  90  76 173 175 152 115 108 122 133 167 201 210 200 195 193 194 194 203 215 222 222 221 219 209 197 181 202 150 218 247 242 243 243 245 245 245 245 245 245 245 245 245 245 245 245 245 245 245
 117 116 127  58  50  50  72 127 141 143 141 132 126 120 110 102  95  89  85  73  69 106  90  98  90  83  86  84  92  86  54  44  35  44  97 118 103  82  73  74  71  81  83  89  91  74  71  68 118  98 126 163 189 185 122  63  43  38  33  32  32  48  65  79 114 128 102 130 150 173 197 224 236 245 249 250 248 245 245 245 245 245 245 245 245 245 245 245 245 245 245 245
 111 117 123  79  51  55  78 123 141 142 140 136 128 120 110 105  99  94  89  83  79 109  98  96  99 103  95  81  79  80  81  80  87  91  99  87  71  73  63  62  59  64  88  90  95 109  56 106 137 148 142 108  83 163  85  53  52  54  59  65  70  63  75  61  70 103 124  89 101 110 111 132 154 195 197 191 226 247 245 245 245 245 245 245 245 245 245 245 245 245 245 245
 111 115 120  91  55  59  83 128 139 142 139 137 130 121 115 109 101  96  95  92  92 108  96  90  81  63  62  75  73  74  74  76  80  85  80  79  73  69  65  63  63  57  77  99  90 106  74 121 137 148 153 136  68 104  85  52  41  43  55  78  73  81 126 128  86  64 107 111 115 118 126 137 156 157 190  85 183 249 245 245 245 245 245 245 245 245 245 245 245 245 245 245
 101 114 120 105  64  52  94 128 137 138 137 135 131 129 123 117 109 103 100  96  92 107 101  85  67  66  70  70  71  70  71  76  79  81  79  75  72  68  64  61  61  64  63  53 103  62 103 129 144 148 152 155  42 113  80  56  44  44  39  43  64  77 146 145 110  73  66 111 116 119 127 139 154 149 118  62 199 248 245 245 245 245 245 245 245 245 245 245 245 245 245 245
  46  98 117 128  55  55  99 128 134 138 139 136 133 132 130 127 123 110  97  89  92  97 102 120 108  73  43  37  58  64  70  72  76  77  76  74  73  70  64  71  69  70  69  62  51  79 123 136 150 152 150 163  84  89  96  68  31  35  45  49  45  85 135 141 115  64  73  96 112 119 126 138 147 154 113  30 190 248 245 245 245 245 245 245 245 245 245 245 245 245 245 245
  71  75 123 123  44  66  91 140 134 139 140 138 138 137 135 135 133 130 129 121 110 100  98  85  68 105 119 127 100  68  46  57  61  68  70  68  77  79  79  80  77  80  71  77  58 107 129 149 155 157 159 161 152  75 101  80  86  78  57  35  61 108 121 121 113  89  77 102 113 119 126 137 149 154 170 139 231 246 245 245 245 245 245 245 245 245 245 245 245 245 245 245
  61 104 134 117  60  64  86 139 140 141 142 141 141 141 143 149 157 159 155 145 128 116  99 106 102 102  95  79  98 136 126 121 100  68  77  90  87  83  84  88  94 100  89  72  79 114 139 148 155 162 164 164 171  63 103  81  79  78  81  89  90  85  84  77  78  90  87 105 117 121 126 139 150 134 231 108 250 245 245 245 245 245 245 245 245 245 245 245 245 245 245 245
  87 150 141 123  38  70  89 141 140 142 142 139 142 143 149 156 164 162 162 156 150 136 126 113 107 111 105 104  97  89  81  90 106 119 124 105 108 105 101 107 107 107  88  87 110 121 138 153 158 162 163 166 167 106 106  84  84  82  82  83  85  86  85  90  92  98  96  97 115 117 127 142 143 136 165 167 248 245 245 245 245 245 245 245 245 245 245 245 245 245 245 245
 111 158 142 136  52  67  93 139 140 142 141 143 144 148 152 157 161 161 160 160 156 159 157 143 129 117 111 111 110 106 112 104 101  88  91  95  96 108 110 109 108  98  86 106 119 125 131 151 156 160 162 165 168 140 117 101  83  83  83  84  86  88  90  92  95 100 101 100 110 120 130 148 155 223 232 235 245 245 245 245 245 245 245 245 245 245 245 245 245 245 245 245
 128 145 145 137  51  66  83 133 140 143 145 145 149 151 155 156 156 155 157 157 157 153 151 149 150 141 137 138 133 132 124 126 120 124 123 120 116 112 110 107 102  96 103 113 123 127 140 145 153 158 162 164 164 156 135  94  87  95  85  86  87  89  92  96  99 103 106 106 105 109 134 152 157 249 245 245 245 244 245 245 245 245 245 245 245 245 245 245 245 245 245 245
 141 135 141 134  47  64  94 138 144 145 147 150 151 153 153 151 151 151 152 153 154 152 151 153 151 157 159 162 169 162 163 165 162 154 142 131 129 113 113 108 104 107 114 120 133 140 146 146 155 161 163 165 165 171 121 120 118 110  92  89  82  86  88  91  99 112 111 114 119 124 133 152 195 248 245 245 245 245 245 245 245 245 245 245 245 245 245 245 245 245 245 245
 123 140 139 119  39  70 101 128 145 146 150 151 152 151 150 148 147 147 150 152 155 155 147 149 170 181 176 173 172 169 163 158 159 154 153 139 130 122 114 113 116 121 126 134 144 149 155 159 164 164 165 166 168 171 138 130 122 119 132 139 128 118 112 113 122 114 114 115 127 121 107 161 249 245 245 245 245 245 245 245 245 245 245 245 245 245 245 245 245 245 245 245
  96 134 144 119  46  73 102 114 146 146 148 150 150 147 146 144 143 148 152 156 162 164 176 182 183 180 177 170 169 165 160 154 149 149 147 138 126 125 122 118 119 124 122 143 148 151 158 161 163 165 167 170 170 169 163 114 126 126 117 115 119 121 127 142 152 175 183 176 174 170 232 250 245 245 245 245 245 245 245 245 245 245 245 245 245 245 245 245 245 245 245 245
  67 131 153 106  51  80  94 119 140 146 149 149 149 145 144 141 141 146 155 162 166 177 176 178 182 179 172 163 149 150 142 147 147 146 144 138 139 123 117 117 118 121 126 135 147 151 157 160 163 166 170 172 172 171 173 123 126 129 127 125 126 128 126 130 140 151 152 156 142 203 248 245 244 245 245 245 245 245 245 245 245 245 245 245 245 245 245 245 245 245 245 245
  73 125 162  97  74  73  89 120 138 147 150 150 147 144 141 135 139 143 152 161 166 170 173 174 169 167 160 154 150 149 145 146 142 140 135 128 116 105 111 115 118 119 122 127 141 148 155 158 163 166 168 170 171 172 175 146 133 132 133 133 136 136 136 139 151 159 162 163 134 222 248 244 245 245 244 245 244 244 244 245 245 245 245 245 245 245 245 245 245 245 245 245
 115 117 158  95  76  78  98 112 135 146 151 151 148 142 131 132 135 143 151 157 159 157 161 158 158 155 153 148 144 143 141 138 131 127 124 107  86  84 110 120 121 131 133 133 138 147 151 156 160 163 165 167 169 171 174 156 130 133 134 136 142 144 146 147 147 157 161 162 150 239 244 245 243 244 248 248 241 243 244 245 245 245 245 245 245 245 245 245 245 245 245 245
 119 112 157  78  79  82  88  92 128 138 145 145 140 138 129 126 132 140 145 152 152 153 150 148 146 145 144 139 137 134 135 127 120 118 108  90  75  86 112 130 137 136 137 139 138 144 147 153 154 160 162 164 167 169 175 161 114 127 135 141 146 148 154 157 148 156 160 170 157 238 244 243 246 229 211 207 210 236 244 245 245 245 245 245 245 245 245 245 245 245 245 245
 111 125 151  66  78  84  92 105 122 136 140 136 135 123 126 119 126 132 141 139 146 145 141 139 132 136 133 130 132 128 124 113 117 103  92  70  68  84 108 126 134 135 138 138 138 141 143 145 147 147 156 160 163 167 172 168 119 103 124 139 145 151 158 166 168 159 160 157 172 227 247 244 244 212 212 212 204 236 244 245 245 245 245 245 245 245 245 245 245 245 245 245
 141 127 142  73  80  83  93 102 111 127 132 132 121 119 115 119 123 126 123 131 129 122 128 129 118 127 126 124 126 125 115 112 102  93  74  57  51  77 107 119 128 131 135 133 134 140 147 142 138 133 147 149 158 160 167 173 164  83 113 124 143 151 158 166 172 173 166 163 180 209 248 241 238 203 209 209 203 244 244 245 245 245 245 245 245 245 245 245 245 245 245 245
 151 106 150  74  85  90  94 100 107 120 122 125 121 115 113 117 120 120 121 123 120 121 122 122 121 121 121 119 118 116 111 103  98  78  67  60  49  72  99 118 113 118 123 121 119 126 126 132 134 131 127 140 148 154 165 168 169 128  89 119 137 147 157 164 170 177 176 171 176 220 248 240 235 200 207 207 198 250 245 245 245 245 245 245 245 245 245 245 245 245 245 245
 134 106 128  85  86  87  92  97 109 108 100 120 113 110 106 110 114 115 113 113 114 115 117 117 118 115 115 114 111 109 107  93  78  71  68  64  58  56  97 100 102 106 112 113 112 111 113 117 122 124 129 133 138 146 157 169 166 168  66 109 133 135 150 160 166 176 180 181 176 214 246 236 228 201 205 206 196 250 244 245 245 245 245 245 245 245 245 245 245 245 245 245
 113  97 127  93  89  90  89  93  87 106 107 114 107 100 100 100 108 111 109 109 109 112 112 111 109 109 110 109 105 102  96  87  72  72  71  67  65  59  64  80  87  88  91  90  92  94 100 104 110 119 120 124 128 135 140 150 153 166  55  97 115 133 142 155 157 169 183 185 168 224 236 231 219 206 205 206 198 249 245 245 245 245 245 245 245 245 245 245 245 245 245 245
 107  90 132  86  89  89  92  81  92 101 104 107 101  93  91  97  99  99 102 103 106 108 108 106 106 107 106 104 102  98  93  84  80  78  76  75  71  68  61  56  60  60  55  51  61  74  82  96 102 109 117 121 120 131 136 119 140 140  54  95 110 124 138 149 155 164 177 185 173 215 232 225 211 205 205 201 199 249 245 245 245 245 245 245 245 245 245 245 245 245 245 245
  86 147 130  84  89  87  88  84  84 109  98  93  99  90  84  91  93  94  95  99 100 103 104 102 101 101 101 100 100  96  90  83  81  81  81  79  77  79  60  56  54  55  54  44  26  41  75  85  94 103 106 108 111 118 120 118 114  93  71  88 105 118 131 142 151 159 176 184 177 208 227 214 209 204 204 203 200 248 245 245 245 245 245 245 245 245 245 245 245 245 245 245
 247 183 122  79  90  87  85  87  85  94  77  77  81  85  81  83  88  89  88  89  93  99  99  99  98  98  98  96  96  94  87  82  83  82  82  80  78  77  62  57  52  52  53  54  55  45  27  80  83  90  94 102  95 106  93  73  76  75  76  85 100 114 125 140 146 154 154 188 162 211 221 196 203 203 203 203 205 247 245 245 245 245 245 245 245 245 245 245 245 245 245 245
 249 175 140  88  87  82  83  83  85  82  74  80  81  64  59  78  80  83  77  80  84  93  95  95  96  95  95  94  94  86  79  79  80  79  81  81  78  76  52  54  48  47  47  50  51  51  42  63  72  78  84  87  90  96  94  96  96  80  81  83  94 109 124 132 138 150 147 187 149 217 217 199 200 201 202 201 214 246 245 245 245 245 245 245 245 245 245 245 245 245 245 245
 250 180 141  96  80  83  80  82  84  80  80  78  78  65  58  74  72  72  70  76  81  88  92  94  94  94  94  94  91  83  78  76  75  76  77  77  74  65  45  52  46  41  39  40  44  48  50  55  64  67  74  77  84  85  95 106 100  90  83  85  94 109 118 128 137 145 156 177 113 223 211 198 200 201 203 199 216 245 245 245 245 245 245 245 245 245 245 245 245 245 245 245
 250 179 143  78  80  81  81  83  85  90  56  67  74  66  55  69  70  69  72  73  79  88  92  94  92  93  92  90  86  77  75  70  65  61  64  62  59  55  51  49  43  39  34  31  32  37  44  50  49  48  34  35  55  77 102 102 109  94  83  86  97 100 115 126 133 143 154 178 140 213 204 197 198 201 203 198 226 243 245 245 245 245 245 245 245 245 245 245 245 245 245 245
 250 173 151  76  78  80  79  82  84  93  59  61  67  67  68  69  70  68  63  71  76  87  91  93  92  91  92  86  81  73  64  58  56  49  49  54  55  51  50  48  42  38  33  31  32  36  44  46  33  30  39  42  47  47  92 107 109  92  86  86  96 106 116 123 130 141 157 167 134 223 199 195 197 201 203 192 233 245 245 245 245 245 245 245 245 245 245 245 245 245 245 245
 243 178 149  79  76  73  75  80  84  86  70  63  63  64  67  68  68  63  53  58  75  85  89  92  92  91  89  82  78  64  50  45  43  44  49  52  50  47  49  49  42  40  36  35  35  36  44  42  38  37  41  42  47  54  69  88  87  90  83  81  94 108 117 122 128 138 155 159  80 216 195 191 197 201 203 193 236 245 245 245 245 245 245 245 245 245 245 245 245 245 245 245
 233 177 146 103  72  72  66  74  78  78  68  64  59  58  62  67  68  63  52  51  80  81  85  89  91  89  84  79  70  51  41  32  36  42  52  56  51  46  50  45  41  41  41  41  40  41  43  42  41  42  45  46  48  49  55  67  74  82  82  81  87 113 116 124 127 134 151 148  66 203 191 177 198 200 203 192 239 245 245 245 245 245 245 245 245 245 245 245 245 245 245 245
 228 171 152 102  71  72  67  51  64  69  69  65  60  56  59  66  67  66  57  53  68  79  83  88  91  87  81  74  58  36  26  29  38  42  60  68  64  59  62  68  58  50  52  51  38  30  27  33  28  42  50  53  55  55  63  55  67  75  77  77  89 110 118 120 125 138 138 127 100 180 174 175 197 200 203 198 244 245 245 245 245 245 245 245 245 245 245 245 245 245 245 245
 221 174 149 104  82  71  68  64  61  62  67  67  62  55  57  61  63  61  60  59  65  75  82  89  90  87  80  73  52  37  31  32  45  52  62  67  68  67  66  70  74  71  85  88  95  96  82  76  81  73  76  75  63  58  73  51  49  63  75  74  88 110 116 120 125 130 125  99  73 179 180 170 200 200 203 191 250 245 245 245 245 245 245 245 245 245 245 245 245 245 245 245
 223 171 152 112  84  68  68  67  63  63  64  65  62  59  57  60  57  57  56  55  56  71  82  88  90  90  83  74  50  40  27  26  44  48  53  52  60  62  62  57  57  60  59  58  67  79  86  86  89  95 101 104 102  99  90  58  44  50  64  71  85 113 115 119 124 122 115 108  47 191 181 178 199 201 204 193 249 244 245 245 245 245 245 245 245 245 245 245 245 245 245 245
 237 163 151 117  69  72  66  64  61  62  61  63  65  59  56  57  54  53  54  53  54  65  81  84  89  90  88  78  57  46  33  22  20  46  42  59  65  66  72  79  76  74  81  78  59  57  50  50  55  46  50  57  73  90  92  81  39  40  47  67  72 114 115 120 119 108 114 104  71 192 178 184 199 201 203 199 248 245 245 245 245 245 245 245 245 245 245 245 245 245 245 245
 225 172 155 120  71  67  66  59  57  59  61  62  63  61  54  54  53  52  53  54  54  61  77  83  88  93  89  84  72  56  47  40  17  26  37  61  65  60  92  91  74  88 107 112 117 111 121 119  97  90  69  46  37  48  62  63  46  42  28  65  87 112 115 121 119  89 100 107 102 203 179 183 201 201 203 202 248 245 245 245 245 245 245 245 245 245 245 245 245 245 245 245
 224 166 154 128  90  62  62  57  52  53  57  62  62  59  56  52  51  50  49  50  53  55  74  83  88  91  91  84  74  65  63  61  51  32  21  55  53  49  87  86  84  95 110 121 129 121 126 127 112  99  85  35  22  23  27  18  41  42  43  69  92 111 117 113 107  91  89  77 106 207 177 191 199 201 205 207 247 245 245 245 245 245 245 245 245 245 245 245 245 245 245 245
 227 168 153 135 100  62  57  53  51  52  53  56  59  59  56  50  50  50  47  47  52  60  70  81  88  91  90  84  78  73  73  72  75  64  55  40  42  56  68  72  65  93 105 119 124 122 122 120 117  94  74  25  13  22  23  29  41  52  56  78  96 118 114 118  78  83  76  42 135 200 174 195 198 202 204 211 248 244 245 245 245 245 245 245 245 245 245 245 245 245 245 245
 225 165 154 134 115  63  54  53  51  49  48  50  51  57  55  50  47  47  47  48  53  68  71  81  87  90  88  84  82  80  79  80  82  82  77  77  74  68  74  77  79  77  91 118 108 115 120 111  95  60  69  12  14  20  42  47  49  53  71  84 106 113 117 100  64  73  69  31 175 194 176 195 199 203 203 216 248 245 245 245 245 245 245 245 245 245 245 245 245 245 245 245
 233 170 145 130 118  90  50  53  50  47  47  46  46  50  55  52  46  45  47  47  52  63  75  81  86  88  85  84  85  85  85  86  89  91  91  93  92  92  76  79  87  90  83 119 116  83  87 108  93  96  78  24  43  63  79  69  63  72  85 100 112 116 114 101  65  67  63  57 205 192 171 198 200 202 202 222 246 245 245 245 245 245 245 245 245 245 245 245 245 245 245 245
 243 154 147 126 127  99  79  62  52  46  43  42  43  45  46  47  45  43  44  47  47  66  73  81  85  86  83  81  84  87  88  87  89  93  98  97  96  93  94  92  90  91  95 108 109  96 100 112  90  84  69  77  86  92 100  80  75  80  90 111 115 117 110  80  54  61  48 112 221 187 171 199 199 203 196 235 245 245 245 245 245 245 245 245 245 245 245 245 245 245 245 245
 243 156 147 131 125 108  91  72  48  44  41  41  41  41  41  41  40  39  41  45  50  60  71  79  84  84  82  80  83  87  89  88  90  93  95 100 105 109 102  97  98 101 100 103 106 101 101 102  80  65  83  97 107 110 111  92  85  85  99 108 115 117 100  73  53  56  31 173 220 182 156 201 200 202 198 240 245 245 245 245 245 245 245 245 245 245 245 245 245 245 245 245
 242 160 144 130 118  98  98  59  56  43  41  40  38  36  33  36  37  36  38  44  49  52  70  77  81  79  77  77  80  86  89  88  89  91  95 100 103 102 101 100 102 103 104 107 111 113 112 112 114 118 123 124 121 122 117 108  91  93  97 108 115 116  84  58  54  51  35 211 215 176 158 202 201 203 197 242 244 245 245 245 245 245 245 245 245 245 245 245 245 245 245 245
 241 154 140 130 110 107  97  94  68  40  38  36  34  31  32  31  33  35  38  42  47  52  65  74  76  75  71  73  78  84  87  86  87  90  91  93  95  96  96  95  98  99 101 106 112 114 113 113 113 113 116 122 126 124 115 110  90 100 103 110 111 113  75  46  53  23  94 229 214 173 159 204 201 203 197 243 244 245 245 245 245 245 245 245 245 245 245 245 245 245 245 245
 227 154 136 129 115 105  98  95  74  47  36  34  33  32  32  34  32  32  37  42  48  57  63  68  72  73  70  67  77  82  85  85  87  89  91  91  90  89  90  90  90  91  96  96  98 104 112 111 109 112 114 121 126 123 115 112 102 104 106 110 109 104  75  68  46  17 175 230 209 173 165 201 201 203 187 249 244 245 245 245 245 245 245 245 245 245 245 245 245 245 245 245
 171 157 133 122 113 103  96  91  80  63  48  34  33  33  33  33  32  32  35  41  47  55  62  62  63  69  67  66  75  82  85  86  86  87  89  89  88  86  77  76  77  79  79  79  82  84  89  94  99 106 114 119 121 120 116 112 108 108 108 108 111  93  63  64  36 114 207 228 208 166 165 204 202 205 193 250 244 245 245 245 245 245 245 245 245 245 245 245 245 245 245 245
 180 151 132 119 109  97  92  85  81  73  50  38  33  30  32  30  30  32  35  40  43  48  54  56  56  64  66  68  71  82  86  89  87  87  87  89  88  84  76  72  67  64  59  67  73  70  73  80  95  98 113 118 121 120 115 111 108 107 107 107 101  79  68  48  55 173 215 224 206 172 174 202 203 205 195 250 245 245 245 245 245 245 245 245 245 245 245 245 245 245 245 245
 179 147 126 114 106  95  87  79  71  73  56  42  34  30  30  30  30  30  34  37  38  48  49  51  52  55  59  62  69  75  85  91  91  90  88  89  89  85  80  75  69  64  63  58  57  62  60  63  73  85 101 115 116 115 112 111 105 100 103 102  88  72  47  43 111 189 224 226 203 155 185 201 203 206 199 247 245 245 245 245 245 245 245 245 245 245 245 245 245 245 245 245
 175 142 121 113 102  89  82  75  72  67  64  47  34  30  27  28  29  30  32  32  31  40  44  42  45  47  51  53  54  70  83  93  97  97  93  91  90  89  83  81  71  67  57  60  59  59  62  63  72  84 101 108 112 112 110 108 104 100 100  94  71  52  43  20 157 196 229 227 198 156 186 201 203 206 203 247 245 245 245 245 245 245 245 245 245 245 245 245 245 245 245 245
 164 139 123 112 104  89  83  77  72  66  61  54  44  34  28  28  29  29  28  28  31  37  38  36  35  38  44  49  55  63  82  94 100 104  99  97  97  95  97  91  91  85  85  75  55  56  47  70  84  94 107 108 109 110 110 106 100  96  92  89  60  45  24  43 187 203 227 223 196 152 189 201 204 202 213 245 245 245 245 245 245 245 245 245 245 245 245 245 245 245 245 245
 158 135 115 111  98  91  83  74  68  63  60  54  51  39  29  26  26  26  26  28  30  34  31  30  28  32  42  47  56  69  81  93 102 109 109 108 106 106 105 114 117 118 110 104  95  90  94  93 100  99 108 109 110 111 112 108  94  88  89  70  49  39  13 153 196 199 228 226 190 146 196 203 206 201 217 246 245 245 245 245 245 245 245 245 245 245 245 245 245 245 245 245
 150 133 120 110  99  89  82  74  65  60  57  55  53  46  30  27  25  25  25  28  31  30  29  28  29  34  41  51  59  70  74  94  99 111 113 114 110 114 118 115 113 112 111 110 111 113 125 130 126 119 111 113 115 118 117 105  91  84  75  61  49  27  99 199 197 200 233 225 192 146 195 202 205 196 229 245 245 245 245 245 245 245 245 245 245 245 245 245 245 245 245 245
 144 136 121 111  97  89  80  72  65  60  58  57  54  47  37  28  23  25  24  25  27  27  26  26  29  35  42  51  56  56  73  86  90 111 110 111 111 114 115 115 113 114 113 113 111 118 119 126 128 129 121 120 126 127 119  94  91  65  54  53  31  29 171 199 198 200 234 224 191 147 200 202 205 196 235 244 245 245 245 245 245 245 245 245 245 245 245 245 245 245 245 245
 145 137 118 109  94  87  79  74  65  59  57  54  53  51  42  29  29  23  23  23  24  26  24  25  29  35  40  44  48  55  67  75  94 100 110 109 107 111 112 111 109 106 113 117 110 117 114 122 130 133 132 133 131 129 116  81  82  63  48  46  13 129 192 193 199 203 235 218 183 151 202 203 204 198 243 244 245 245 245 245 245 245 245 245 245 245 245 245 245 245 245 245
 145 137 122 102  95  86  80  69  65  59  55  52  50  47  43  36  30  25  21  22  23  22  23  24  26  31  34  35  43  48  54  56  73  77  94  93  93  94 104 104 105  97  99 108 104  92 113 117 129 132 133 134 130 126  97  74  53  42  43  36  15 184 191 195 199 204 232 217 177 150 204 203 206 200 248 244 245 245 245 245 245 245 245 245 245 245 245 245 245 245 245 245
 145 136 121 111  97  86  76  68  61  58  55  51  47  43  41  39  35  28  23  21  22  20  20  24  28  30  31  33  36  36  43  51  58  68  78  79  76  80  79  77  83  89  90  91  90  91  93 116 119 128 133 135 127 114  81  62  37  40  40  29  17 193 192 197 201 206 230 211 174 150 205 204 208 198 248 245 245 245 245 245 245 245 245 245 245 245 245 245 245 245 245 245
 161 136 107 106  93  85  76  68  62  58  54  50  46  44  41  40  36  30  25  21  20  19  20  25  29  29  29  30  30  31  34  43  53  53  53  64  68  68  69  66  59  55  72  78  81  75  81  88 100 108 104 119 114  98  71  60  38  40  43  39  25 197 194 198 198 213 230 209 164 165 201 205 208 197 248 245 245 245 245 245 245 245 245 245 245 245 245 245 245 245 245 245
 133 163 203 165  95  83  77  68  64  58  55  51  46  43  40  40  37  31  27  22  20  20  21  23  25  26  25  25  26  26  28  36  46  46  45  56  57  60  50  52  55  55  59  64  70  66  77  77  94  94  90  89  74  67  57  43  38  39  42  46  27 197 193 198 201 216 233 205 165 169 202 205 207 195 249 245 245 245 245 245 245 245 245 245 245 245 245 245 245 245 245 245
 134 137 164 157  74  87  78  69  63  58  54  52  47  43  40  39  38  34  29  25  23  21  20  21  22  23  22  22  21  22  25  28  35  34  34  46  49  49  47  46  46  49  50  52  54  57  72  67  63  73  74  74  70  68  40  39  38  32  35  41  48 200 195 199 198 224 230 202 156 178 203 206 205 201 248 245 245 245 245 245 245 245 245 245 245 245 245 245 245 245 245 245
 174 191 214 160  49  92  79  72  66  60  56  51  49  44  39  37  37  35  30  27  24  21  21  21  20  21  21  21  19  19  20  22  21  25  31  36  38  39  40  42  41  40  42  46  45  46  49  53  53  53  57  57  52  48  38  36  29  44  76  37  91 201 195 198 198 224 233 199 150 191 201 207 208 205 247 245 245 245 245 245 245 245 245 245 245 245 245 245 245 245 245 245
 167 206 189 149  62  93  77  74  68  61  56  52  48  44  40  37  34  33  31  27  23  22  21  22  20  20  20  19  17  17  17  17  19  20  22  25  26  28  28  30  31  30  29  36  38  40  42  40  42  42  43  39  37  35  36  25  24  37 109 131 191 196 197 199 203 227 234 195 146 191 207 207 208 210 245 245 245 245 245 245 245 245 245 245 245 245 245 245 245 245 245 245
 164 212 184 145  82  90  81  77  70  64  58  53  48  45  43  39  36  34  32  28  24  21  22  23  21  20  19  17  18  17  17  16  15  17  17  19  17  15  18  20  23  22  23  23  27  28  30  29  30  30  28  18  21  34  35  49  88  10   7  25 124 221 216 211 201 230 229 194 137 195 205 208 206 218 243 245 245 245 245 245 245 245 245 245 245 245 245 245 245 245 245 245
