P2
92 112
255
 245 245 245 245 245 245 245 245 245 245 245 245 245 245 245 245 245 245 245 248 248 181  93 118  58  51  52  48  48  48  53  47  43  50  53  58  62  56  54  55  43  51  62  60  44  45  41  42  32  45  49  52  67  72  67  58  60  74  69  45  27  16  20  42  68  87  77  53  39  45  58 103 220 249 245 245 245 245 245 245 245 245 245 245 245 245 245 245 245 245 245 245
 245 245 245 245 245 245 245 245 245 245 245 245 245 245 245 245 245 245 249 228 165  94 111 114  60  41  47  46  51  51  52  53  59  58  55  53  51  55  52  51  50  47  45  38  33  30  31  32  40  44  48  52  54  54  53  54  51  42  34  40  40  40  42  47  51  69  87  54  52  45  52  58  62 166 248 245 244 245 245 245 245 245 245 245 245 245 245 245 245 245 245 245
 245 245 245 245 245 245 245 245 245 245 245 245 245 245 245 244 245 248 242 104  75 104  89  90  60  52  50  49  51  51  53  56  59  63  61  52  56  55  51  47  44  41  39  37  33  30  32  35  37  41  43  48  45  38  46  42  32  30  32  37  41  44  47  50  53  59  75  79  63  55  56  41  24  55 131 247 247 245 244 245 245 245 245 245 245 245 245 245 245 245 245 245
 245 245 245 245 245 245 245 245 245 245 245 245 245 245 245 244 248 243 100  98 131 128  91  50  67  48  43  45  52  54  43  60  67  75  75  79  63  59  51  45  41  39  38  35  31  28  29  33  36  40  42  37  35  36  27  18  27  28  29  32  35  41  54  51  55  57  48  72  66  60  56  62  64  49  84 116 217 250 244 245 244 245 245 245 245 245 245 245 245 245 245 245
 245 245 245 245 245 245 245 245 245 245 245 245 245 245 245 248 226 133  97 110 104  83  60  65  77  84  76  69  64  46  78  99 103  97 100  88  72  55  52  49  46  43  40  37  34  33  34  38  40  39  37  33  32  31  26  25  26  26  27  27  27  28  37  45  47  55  56  53  63  61  60  64  72  52  54 118 175 201 240 247 245 245 245 245 245 245 245 245 245 245 245 245
 245 245 245 245 245 245 245 245 245 245 245 245 245 245 250 190 100 105 103 107  94  81  68  80  96  93  79  70  69 101 127 115 112 125 109  94  89  83  69  58  56  47  41  39  36  37  37  37  39  35  32  30  27  24  25  25  24  24  23  23  23  22  25  32  44  37  25  33  52  69  64  59  75  74  52  74  75 164 186 204 247 245 245 245 245 245 245 245 245 245 245 245
 245 245 245 245 245 245 245 245 245 245 245 244 246 248 173  56  83  94  74 100  99  76  65 106 119  85  69 103 133 125  94  95 113 127 127 127 117 107  90  69  62  51  48  45  41  41  40  37  33  33  33  31  30  28  27  27  25  24  24  23  20  19  20  19  39  43  39  35  21  21  44  57  63  75  74  69  46  64  85 230 247 244 245 245 245 245 245 245 245 245 245 245
 245 245 245 245 245 245 245 245 245 245 245 246 248 146  52 101 110  99  82  78  99  75  89 112 124 144 170 165 155 135 158 166 179 184 173 160 148 138 124 107  78  49  45  40  40  43  39  34  37  31  35  39  36  32  30  32  30  29  24  21  19  19  18  19  19  40  38  36  33  29  35  45  53  93  96  81  89  88  69 166 242 243 245 245 245 245 245 245 245 245 245 245
 245 245 245 245 245 245 245 245 245 245 244 248 145 111 110 139 106 105 100  63 116  85 120 170 181 182 167 165 184 202 212 206 198 198 200 181 168 168 149 125 115 108  95  85  74  65  54  50  39  46  49  44  41  38  36  35  38  35  30  24  22  21  19  19  13  31  36  36  34  30  33  37  46  37  50  68  37  41  45 106 195 249 245 245 245 245 245 245 245 245 245 245
 245 245 245 245 245 245 245 245 245 244 248 201  88 102 125  81  82  89  86  69  61  96 147 171 172 186 204 214 213 210 207 206 207 216 213 209 198 198 176 154 146 128 123 114  99  90  78  73  74  74  70  65  53  47  40  40  44  42  34  34  25  22  21  20  20  19  37  36  33  29  30  36  44  43  50  61  35  47  54  42 202 249 245 245 245 245 245 245 245 245 245 245
 245 245 245 245 245 245 245 245 244 244 242 104  95  85  79  91  88  86  68  50  95 111 166 186 203 215 215 212 211 212 212 212 214 213 215 209 199 195 185 168 157 146 134 130 125 124 123 115 112 112 104  98  89  87  85  78  62  58  48  49  47  36  24  20  24  24  27  36  35  30  30  30  34  41  48  90  86  42  72  48  75 250 244 244 245 245 245 245 245 245 245 245
 245 245 245 245 245 245 245 245 245 246 109  60  50  58  66  71  76  60  52  56  53 119 186 204 206 207 210 211 209 209 210 210 208 205 198 203 200 194 186 178 162 155 154 145 143 138 139 133 137 133 127 126 127 118 110 107 113  86  81  79  76  70  60  46  38  22  25  33  33  29  28  29  32  42  48  47  28  45  51 120  22 170 248 245 245 245 245 245 245 245 245 245
 245 245 245 245 245 245 245 245 247 205  74  60  60  59  53  55  57  48  45  82  60 128 197 212 208 207 207 208 204 204 205 207 205 203 201 199 196 193 185 182 173 161 156 153 148 144 144 146 137 141 144 144 144 136 134 137 127 122 116 122 110  98  90  74  56  45  26  33  33  30  28  28  31  32  44  43  64  68  52  74 124  60 248 244 245 245 245 245 245 245 245 245
 245 245 245 245 245 245 245 245 246  86  73  61  60  59  55  54  53  55  59  84  76 153 207 207 207 209 207 204 200 198 199 197 198 200 198 190 188 187 185 183 176 166 160 156 154 153 151 150 148 148 148 148 149 149 149 147 142 145 144 138 134 125 115  99  80  56  47  32  32  31  28  29  34  36  39  40  42  71  71  17 188  85 229 247 245 245 245 245 245 245 245 245
 245 245 245 245 245 245 245 250 178  55  76  60  64  58  54  50  50  48  84  67 122 177 199 203 205 208 206 200 189 184 186 186 185 186 186 185 184 182 183 181 175 169 162 159 158 156 154 154 153 152 152 153 153 158 155 152 157 156 152 148 145 146 133 126 102  71  61  38  35  34  34  36  38  39  40  42  41  58  66  50 118 145 198 248 245 245 245 245 245 245 245 245
 245 245 245 245 245 245 245 245 108  48  69  71  59  55  51  50  50  57  88  81 154 187 195 203 205 209 202 190 186 178 177 176 176 175 174 170 171 173 173 171 168 163 161 158 156 155 154 153 151 153 154 155 155 156 157 157 155 156 156 156 153 150 145 143 130 104  72  41  39  33  37  40  45  48  38  36  28  27  32  52  55 126 218 248 245 245 245 245 245 245 245 245
 245 245 245 245 245 245 247 215  74  48  66  65  53  51  47  50  56  67  56 130 171 202 202 204 203 199 190 183 174 172 161 163 151 151 158 161 163 161 165 164 163 161 158 154 151 151 151 151 151 152 153 155 154 155 156 156 156 156 159 158 157 154 151 150 155 125 112  58  50  65  72  68  37  36  44  43  43  29  34  23  44  46 230 248 245 245 245 245 245 245 245 245
 245 245 245 245 245 244 247 174  59  51  63  55  50  47  46  51  55  62 103 157 191 205 202 201 198 193 185 178 174 167 160 155 153 151 151 148 152 151 149 150 142 146 149 149 149 149 149 150 150 151 151 151 152 154 155 154 154 154 155 157 157 156 156 156 154 150 150 113  61  40  61  93 129 139 142 117  74  44  32  35  30  16 230 249 245 245 245 245 245 245 245 245
 245 245 245 245 245 244 246 110  41  63  54  52  46  46  48  51  64  89 139 179 209 204 201 197 194 189 183 179 173 165 154 150 146 147 146 145 145 137 134 138 139 140 143 145 145 148 147 148 149 150 150 150 150 152 154 155 152 151 151 154 156 157 157 157 156 160 162 160 145 128 140 151 172 166 157 154 115  64  29  35  30  14 209 248 245 245 245 245 245 245 245 245
 245 245 245 245 244 244 225  66  58  55  54  48  45  46  48  55  76 121 163 199 201 201 198 193 189 184 183 178 170 163 156 149 146 142 144 141 140 135 135 133 135 139 140 142 143 145 146 147 148 150 150 149 151 153 155 154 152 151 151 151 152 154 156 157 157 158 160 164 170 171 171 172 172 171 165 168 149  96  27  41  36  11 133 244 245 244 245 245 245 245 245 245
 245 245 245 245 245 249 142  56  57  52  50  47  46  47  52  56  99 140 185 203 200 197 194 193 184 181 178 168 167 162 158 153 150 147 143 140 135 134 132 132 132 131 135 140 142 143 145 146 146 147 149 149 150 153 153 153 152 151 152 151 150 152 154 157 158 158 159 162 163 164 168 173 173 172 173 165 159 128  43  46  42   9  29 244 244 244 244 245 245 244 244 245
 245 245 245 245 245 250  87  60  47  48  47  45  46  48  54  63 119 171 195 197 197 195 191 185 180 175 172 168 166 165 161 158 156 153 149 145 142 139 134 133 132 133 135 140 140 143 144 144 146 147 148 148 148 150 151 152 152 151 151 150 149 151 152 153 155 155 156 159 159 161 164 168 171 172 170 168 167 146  74  50  41  30  14 199 244 241 242 243 244 244 245 245
 245 245 245 244 245 226  59  60  43  46  46  46  48  45  60  83 135 185 189 195 195 193 189 180 176 171 168 167 167 166 165 162 162 159 156 149 145 143 141 135 136 136 135 138 140 141 144 145 144 147 148 147 147 147 149 150 150 150 150 149 148 149 151 153 153 155 155 157 158 159 160 165 168 170 170 168 172 153  91  33  42  38  12 100 249 242 241 240 241 243 245 245
 245 245 245 244 250 178  49  56  45  44  45  46  48  49  70  96 150 180 186 191 191 190 184 175 169 166 166 164 164 165 166 166 167 168 162 152 148 148 146 142 142 140 142 141 141 142 142 144 145 147 149 148 148 147 148 148 148 148 148 150 150 149 148 150 151 151 152 155 155 156 159 163 165 168 168 169 171 142 119  27  44  39  16  52 248 244 241 240 239 240 241 242
 245 245 245 246 234  55  53  51  43  41  43  45  49  57  68  99 156 180 184 189 188 185 182 170 168 164 161 161 161 162 165 168 169 170 168 160 150 155 151 150 147 150 146 147 145 144 144 144 145 148 148 148 149 148 148 148 146 147 147 148 148 147 146 147 147 150 152 153 154 155 156 159 163 165 168 168 173 134 142  57  39  36  23  19 237 244 241 241 240 239 233 242
 245 245 244 248 152  47  48  47  42  40  42  46  52  57  80 113 157 179 181 184 184 181 176 171 167 163 160 160 161 163 164 168 168 170 171 168 173 171 165 162 161 159 156 154 152 151 147 147 147 148 147 149 149 148 148 148 147 148 146 146 145 145 146 148 147 149 150 150 154 154 156 158 161 165 167 167 170 146 151  99  26  40  38  14 155 249 240 243 242 240 236 229
 245 245 244 246  78  34  49  45  41  41  43  47  53  55  89 125 162 184 182 184 182 179 175 171 168 161 160 161 162 165 168 170 172 173 175 182 182 181 175 174 171 169 166 160 157 154 150 149 149 150 149 149 149 148 148 149 148 147 147 146 144 145 147 148 149 149 149 149 150 153 156 157 159 162 165 167 167 162 149 124  43  42  41  21 100 239 244 240 241 242 237 236
 245 245 244 245  50  31  48  44  40  40  44  47  48  65 108 132 172 187 186 184 182 179 174 169 162 159 160 163 165 168 172 174 175 175 176 177 179 180 180 178 178 178 172 168 161 156 151 151 150 150 150 151 149 147 149 149 149 150 150 149 147 147 147 149 150 151 151 149 148 151 152 154 157 159 161 162 166 168 160 144  67  33  43  31  66 228 242 238 240 239 239 240
 245 245 246 235  41  26  48  43  38  40  45  49  43  68 120 154 187 185 184 182 181 175 169 166 164 162 161 167 168 171 173 175 178 179 179 178 178 179 179 179 177 176 171 167 162 158 154 152 151 150 151 150 149 149 149 150 149 150 151 151 150 150 150 150 150 152 152 152 151 151 151 153 154 158 160 161 164 165 157 168 120  33  44  38  19 224 243 236 236 233 227 215
 245 245 246 230  37  35  50  44  40  41  46  50  50  67 130 165 185 183 180 179 177 172 168 166 167 169 169 172 174 176 177 179 181 181 180 179 178 176 176 176 175 171 170 167 162 159 157 155 152 150 150 150 150 148 150 149 149 151 152 154 153 153 152 151 152 153 155 154 154 152 154 154 153 155 157 161 163 164 163 167 155  45  43  50  17 210 226 229 224 221 224 233
 245 245 246 230  39  49  49  41  40  42  47  51  43  82 145 176 184 182 180 178 175 172 170 169 172 176 178 181 186 185 183 184 182 182 178 170 171 171 174 168 165 167 162 161 160 158 157 155 153 151 149 149 149 149 150 151 152 153 154 154 155 155 156 155 153 153 154 154 154 154 153 153 153 155 157 159 162 164 164 161 168  77  34  48  17 183 222 221 214 208 189 168
 245 245 245 234  42  47  46  40  40  42  47  49  49 102 167 187 181 182 180 175 173 173 174 177 182 184 194 195 193 189 186 183 181 181 179 171 163 159 156 154 152 148 151 152 155 155 157 156 154 153 151 151 150 151 151 152 154 155 157 157 156 157 159 158 157 155 156 155 155 155 153 152 153 156 157 159 161 164 164 159 155 102  24  46  16 106 166 129 134 131 142 164
 245 245 244 244  41  31  45  40  40  41  46  53  42 136 177 180 179 179 178 170 171 173 176 182 185 188 196 201 198 196 192 184 179 175 170 159 157 149 143 135 134 144 141 145 147 152 154 154 153 151 151 150 150 151 152 152 154 154 156 155 156 157 158 159 159 159 158 157 156 155 151 149 149 152 156 159 161 162 163 163 151 121  20  43  33  34 183 207 225 240 246 247
 245 245 244 246  38  27  45  42  40  42  46  42  68 170 176 179 179 176 173 170 171 174 181 185 188 188 178 168 165 161 157 152 151 147 143 144 146 141 136 131 129 128 131 137 143 146 152 150 148 148 146 148 149 151 152 152 152 152 154 154 155 157 158 159 159 160 162 159 158 155 151 149 150 152 155 159 160 163 164 160 146 139  24  39  39  15 229 242 241 242 241 241
 245 245 244 246  53  22  41  42  42  42  47  38 114 174 182 184 181 176 172 172 175 183 190 200 178 154 136 125 125 121 112 110 104 107 114 107 113 119 114 117 118 121 124 131 140 143 144 146 143 140 141 143 147 150 150 152 150 151 152 151 154 155 157 157 158 159 160 160 160 158 154 152 150 151 155 158 160 163 164 163 147 142  48  25  38  14 173 248 242 241 241 242
 245 245 245 248  81  14  42  42  42  43  48  39 136 187 188 185 182 176 173 174 181 189 191 179 135 107  92  91  83  83  81  63  62  52  43  45  50  65  73  87  87  88 117 121 126 133 137 140 139 138 141 142 143 146 147 148 147 148 150 150 151 153 153 154 156 158 159 160 160 160 158 155 154 152 154 157 159 161 163 170 141 141  55  19  36  17  57 250 242 243 244 243
 245 245 245 249  99  14  43  42  43  44  36  55 163 193 190 188 180 175 173 173 175 181 158 128  93  82  78  69  66  53  51  54  49  45  45  46  42  42  61  73  81  87  96 113 121 127 130 132 133 132 133 138 141 141 143 145 144 145 145 147 148 149 148 150 154 155 157 158 159 162 158 156 154 154 154 157 159 161 162 163 142 128  57  26  34  22  38 250 243 243 243 244
 245 245 245 248 106  17  44  44  44  45  34  75 182 198 190 184 179 173 169 171 154 127 118  90  87  70  62  63  53  51  46  38  40  40  41  41  43  47  50  59  76  79  88 100 117 118 124 126 125 125 127 132 135 136 138 135 133 130 138 142 142 142 141 143 143 144 149 152 156 159 158 155 155 154 154 156 158 159 161 166 144 109  59  26  32  19  23 240 245 243 243 243
 245 245 244 249 120  15  51  48  47  46  25 115 193 197 190 178 176 172 167 161 128 106 103  90  68  66  61  56  55  51  46  41  40  39  38  39  41  45  49  55  68  73  78  94 107 112 119 119 121 119 120 124 128 128 131 127 124 124 123 129 127 130 134 131 128 130 134 146 148 154 154 155 154 154 154 155 157 158 160 161 152  89  50  33  32  27  14 213 245 243 243 245
 245 245 245 249 134  20  50  49  51  48  23 144 199 208 219 203 194 209 204 179 151 114  87  50  48  43  49  49  51  51  43  38  40  43  40  40  41  46  50  56  65  72  76  92  99 109 112 116 116 117 118 120 122 121 118 118 118 115 111 109 107  88  84  76  82  91 102 116 132 133 137 143 152 153 153 155 157 158 160 158 155  69  52  38  32  29  26 177 248 243 245 245
 245 245 245 249 151  17  47  50  38  32  94 185 199 172 158 159  95  54  43  63  89 118 149 160 138 111  77  61  53  56  65  69  62  56  53  52  53  52  55  66  73  76  80  89  97 102 110 113 113 114 115 113 115 116 113 109 105  97  90  89  79  65  53  52  39  41  56  71 100 102 103 108 145 153 154 155 156 157 158 157 159  62  43  38  31  35  32 164 248 243 245 245
 245 245 245 249 181  18  31  19  96 187 155 160 161 151 153 173 166 149 134 110 108 150 163 165 161 170 171 147 123 115 113  99  96  84  69  63  55  60  62  67  74  80  86  92  97  99 109 112 113 113 111 111 112 111 107 100  96  83  83  79  62  49  45  45  44  47  52  58  63  70  75  76 105 153 156 156 156 157 157 157 160  54  39  38  33  29  19 170 247 243 244 245
 245 245 245 249 208  21  34 160 154 116 133 147 148 154 101  25  35 113 116 127 114  61  43  38  97 119 127 134 152 134 122 113  93 104 104  82  70  60  65  67  72  79  87  95  99 106 111 114 115 115 113 113 112 110 106  97  90  81  78  59  52  45  43  43  43  45  47  52  59  76  82  81  79 118 159 155 156 155 156 157 164  44  41  37  32  26  15 196 247 244 245 245
 243 243 242 246 234  29 117 148 161 171 130 138 130 128 101  22  16  14  50 113  93  83  87  89 108 114  90  77  38  57  60  85 107 108 103 108 106  96  61  47  59  63  85  99 104 108 112 117 118 117 117 118 116 110 103  93  86  80  72  57  52  49  48  45  44  45  46  50  56  68  80  81  80  89 132 155 155 156 155 154 160  38  37  36  34  28  23 229 248 245 245 245
 241 241 243 239 241  97 131 110 193 201 141 152 153 127 135 116  77  47  70  93  85  83  84  86  75  70  77  77  69  62  65  67  77  79  84  82  88 102 111 123 112  79  58  89 108 112 119 123 124 124 126 122 117 110 101  91  86  81  75  66  61  59  57  52  46  48  50  52  56  67  76  79  80  67 116 153 153 155 155 154 156  21  31  33  33  19  43 250 245 245 245 245
 231 230 219 224 234 175  85  18  21 118 186 200 200 177 142 130 101 103  88  88  82  78  77  75  63  85  74  51  36  43  41  38  35  35  43  71  79  70 101 119 119 154 188 152 108 101 122 130 129 127 130 131 121 108  99  92  87  82  77  73  69  68  71  74  75  70  60  51  53  61  74  80  81  76 102 139 153 155 156 159 141  27  31  34  35  12 154 250 244 245 245 245
 222 175 143 160 172 166  98  36  45  32 105 164 160 194 142 178 141 102  95  86  78  74  66  63  74  55  49  67  85  51  47  42  42  47  49  62  75  78  77  77  95 109 107 164 198 196 167 142 130 133 136 126 124 100  89  69  61  59  55  54  55  61  61  73  77  83  83  78  75  75  77  81  82  87  92 131 159 157 159 168 118  32  37  34  27  24 243 248 245 245 245 245
 170  97  69  86 121 119 132  72  42  25 119 169 158 129 131 114  78  95  99  82  74  67  63  65  44  37  67  93 102  51  46  47  45  48  46  67  87  78  77  73  72  81  84  77 164 153  73 133 158 186 179 172 157 143 135 144 143 139 123  89  73  54  52  49  40  36  67  62  72  74  83  80  74  82 102 129 155 158 162 178  95  29  38  29  16 142 250 244 245 245 245 245
 119  93  93  80 113 121 134 105  40  32 141 168 160 150 141 114  96  95  95  75  74  69  64  55  44  50  94 109 120  69  51  50  49  52  40  75  89  78  69  75  75  80  87  90  75 133 145 110 128 113 107  87 130 190 195 181 177 176 181 194 201 211 220 227 225 214 199 172 144 123 102  92  82  79  95 128 159 159 162 180  62  31  39  31  50 237 246 244 245 245 245 245
 103  95  95  91 110 122 135 128  39  40 150 161 155 149 141 122 110  92  87  71  75  74  73  67  71  71  86 104 114  97  59  58  50  65  75 113 103  81  67  54  71  75  85  88  72  51  96  87  97 105 137 169 181 119  61  51  53  51  54  51  58  71  71  94  99 119 140 153 176 199 215 219 217 195 167 155 146 151 165 174  39  30  44  19 193 249 245 245 245 245 245 245
 106  93  95 110 115 117 133 128  45  47 155 160 152 147 142 129 113  99 103  76  74  79  87  91  93  92  98 100 109 116 101  78  77  85 121 135 109  83  64  60  55  72  88  98  77  80 138 140 143 145 121  57  89 118  83  68  54  54  67  65  65  58  55  57  77  96 110 116 102  93  67  92 109 139 171 200 223 217 199 179  41  36  28  43 244 245 245 245 245 245 245 245
  96  92  93 138 120 100 131 134  60  61 165 158 152 146 140 131 121 114 105 101 104 100 109 112 111 106  99  99 109 111 115 112 112 117 113  91  71  68  72  65  62  76  87  89  59 118 140 141 144 145 144  52  75 116  88  67  62  58  51  32  45  50  58  58  46  40  58  91 119 122  86  80  86  91  87 117 111 147 173 212 152  31  15 103 250 244 245 245 245 245 245 245
  92  95 108 142 124 112 127 121  58  79 176 159 152 147 142 136 128 116 116 122 115 112 111 109 110 105 100  99  94  88  90  91  78  70  53  60  65  70  71  71  69  73  67  49  75 125 144 149 147 149 145  59  75 105  95  74  69  65  68  33  41  39  50  62  58  93  98  66  70 113 106  93  98 106 111 110 138 149 157 109  97  39  20 230 249 244 244 245 245 245 245 245
  94  94 125 143 128 123 118 125  43 109 172 162 156 150 146 145 144 150 146 118 120 136 139 121 100  98  98  94  89  83  65  62  66  68  69  68  69  70  74  74  76  74  70  59 118 140 165 158 154 151 148  76  64 164  89  67  66  71  88  29  39  36  35  47  46 106 132  97  53  79 100  96 100 107 111  98 180  63  72  34  65  20 133 250 244 245 245 245 245 245 245 245
  92  94 149 136 118 113 118 105  50 119 174 164 158 150 149 150 154 155 159 154 132 110 100 117 149 146 134  89  65  55  76  74  72  72  73  75  75  77  80  81  88 107  84  82 139 164 172 163 161 159 154 100  51 157  70  69  67  69  84  56  43  43  43  48  37 112 124 104  64  66  85  93  98 105 108  93 184  48  56  45 145  21 230 247 244 245 245 245 245 245 245 245
  91  99 157 118  95  75  61  54  70 128 171 167 160 155 151 154 161 168 177 183 173 142 104  91  88  84  87 125 143 129 106  72  51  61  78  81  78  83  89  91 102 127  72 136 157 164 176 175 168 165 161 135  41 120  72  73  72  73  80  85  52  23  34  28  86 123 121  99  64  76  78  89  96 102 107  97 168 115  78  21 105 107 249 244 245 245 245 245 245 245 245 245
  99 134 143  96  76  67  58  84  63 131 171 169 166 157 155 157 166 181 190 189 192 173 149 120 107  93  86  84  73  64  84 113 153 130 121 102  98  96 101 102 108  79 104 135 164 166 178 174 169 167 170 153  66 119  75  74  71  73  79  84  94  88  78  98 114 110 102  84  79  77  79  84  93  97 113  98 159  89  72  21  88 246 247 244 245 245 245 245 245 245 245 245
 103 148 134  90  66  52  95 113  43 137 177 170 167 162 159 161 170 182 184 187 188 188 171 145 132 109 109 102  93  89  87  77  55  48  53  80  97 104 111 104  92  92 124 138 156 175 173 172 167 164 164 159 102 105  89  76  72  72  74  78  82  88  92  93  98  92  88  79  81  80  81  85  90 103 110  81 168 199 169 136 218 249 245 245 245 245 245 245 245 245 245 245
 101 164 136  80  68  43 210  65  52 149 177 170 167 165 163 165 168 175 177 181 184 183 180 159 140 119 108 105  97  94  89  86  83  84  77  78  97 108 107  99  93 111 128 141 154 168 171 169 164 162 159 152 122 102  98  78  76  75  75  76  79  82  85  88  88  86  84  84  83  85  88  87  87  93 110 104 126 141 138 160 247 245 244 245 245 245 245 245 245 245 245 245
 116 175 129  77  68  74 207  76  59 148 172 169 170 166 162 161 163 164 167 168 170 177 179 165 147 127 114 108  99  96  92  85  80  87 108 117 116 113 108 107 113 119 137 151 154 169 172 170 164 161 158 154 144  93 116  94  84  81  81  76  80  81  85  88  91  91  92  90  92  92  92  93  94  97 106 120 135 142  49 107 223 250 248 244 244 245 245 245 245 245 245 245
 139 183 132  90  68  88 173  67  65 147 172 171 171 167 161 158 156 154 154 156 157 156 157 155 143 129 118 109 106  98  98 107 112 121 127 133 125 115 112 110 119 131 146 169 174 176 175 173 167 163 159 157 152 102 112 106  96  93  95  93  68  78  82  91  93  94  96  99 107 100  97 102  99  97 111 130 141 164  34 110 140 155 220 248 244 245 245 244 244 244 244 244
 146 186 137 100  69  92 160  38  94 135 172 170 170 166 162 154 151 143 136 138 141 136 136 140 135 132 116 114 111 114 121 130 137 147 147 144 127 114 115 122 134 151 166 177 191 198 193 177 174 166 163 157 153 124 110 109  92  88  88  91 113 105 105 102  97  98 102 112 107 113 108 112 113 115 120 141 142 166  32 120 135 142 150 246 244 244 243 242 242 243 243 243
 156 176 147 111  72  88 142  61 103 134 170 167 168 165 159 150 145 140 134 133 132 122 117 117 123 121 125 132 138 146 149 153 158 161 154 149 121 119 120 125 154 168 174 185 193 197 191 188 176 173 167 162 153 140 120 116 122  94  90  92  92  98 100 109 114 115 113 114 117 120 124 125 127 131 133 147 153 155  37 133 122  69  87 233 245 244 242 239 240 243 243 244
 146 175 141 166 185 151 119  70  95 135 160 164 165 163 156 150 137 134 133 130 128 126 127 129 129 133 138 150 159 157 162 164 158 155 152 140 123 121 116 133 156 172 179 185 191 198 198 191 181 175 171 166 157 138 124 120 119 116  92  96  96  99 102 108 113 113 113 114 115 120 123 130 135 136 140 151 153 138  50 101  90  76  67 218 245 244 243 239 239 242 242 241
 142 184 131 155 226 178  96  73 105 125 155 163 163 159 154 148 133 129 130 129 130 129 130 132 138 145 152 156 162 162 162 158 152 151 135 127 119 119 122 138 153 171 180 188 192 197 195 186 180 176 172 169 158 148 125 125 123 119 111  97  99 103 106 111 114 115 114 120 124 129 133 137 139 141 146 151 165 115  69  96  89  77  62 222 245 244 243 242 240 240 241 241
 141 190 128 201 229 175 100  85 103 125 152 162 161 159 155 140 133 131 129 131 131 133 138 139 143 151 155 161 161 158 156 153 144 138 126 119 110 112 134 145 147 172 183 190 195 194 189 181 178 176 173 170 159 151 134 128 126 126 127 117 112 110 111 112 116 122 125 127 132 137 141 142 143 144 149 153 172  89  86  93  90  61  74 246 244 245 243 243 243 243 243 243
 130 201 179 216 189 167 107  91  94 103 144 155 158 157 153 138 134 132 130 130 132 134 137 139 144 152 156 158 158 154 151 146 137 137 122 103 102 113 144 160 169 177 181 186 186 183 185 184 179 175 172 169 157 148 128 130 129 131 130 126 121 117 117 117 120 125 129 134 138 143 147 146 145 145 149 154 178  61  92  94  92  61  98 250 244 245 245 245 245 245 245 245
 105 221 231 221 169 150 102  85 104 102 140 155 153 150 145 137 134 132 131 132 132 133 136 139 144 151 153 154 152 152 142 137 121 122 110 101  87 131 160 169 170 174 183 182 177 170 166 169 165 172 169 166 158 149 134 130 131 133 133 133 127 123 125 125 129 128 140 141 143 144 146 150 146 145 153 156 182  37  98  98  84  72 168 250 245 245 245 245 245 245 245 245
  90 240 225 211 181 152  90  82 104  99 126 140 148 145 139 134 132 132 130 131 132 133 135 139 144 148 148 148 143 134 135 126 117 114 104  89  96 162 163 171 171 171 170 173 165 156 143 142 159 159 161 162 160 156 120 125 127 133 137 138 137 133 131 130 128 132 135 141 142 143 146 148 146 137 154 157 175  30  99  98  80  78 234 246 245 245 245 245 245 245 245 245
  99 234 221 197 149 145 102  84 101 106 106 135 142 143 134 132 132 131 129 128 129 132 135 137 139 145 143 139 136 130 119 120 113 109  97  76 120 160 155 151 151 150 149 153 148 146 140 138 139 145 152 159 158 154 129 121 123 131 135 138 139 138 138 136 134 133 137 140 142 143 145 147 147 142 153 160 157  37  98  99  89 127 250 245 245 245 245 245 245 245 245 245
  79 231 206 164 155 189 110  83 101 108 110 126 133 136 131 129 130 131 129 128 128 130 131 134 135 138 137 134 130 129 120 116 111 105  92  71 131 134 132 125 120 116 121 118 130 130 128 128 130 137 143 149 153 149 146 107 123 129 134 139 141 142 143 143 141 140 140 140 142 143 143 147 147 150 153 157 142  40 101  95  91 215 247 245 245 245 245 245 245 245 245 245
  53 196 179 160 164 169 109 104  97 100 113 114 127 129 126 125 127 127 126 125 127 127 128 131 132 133 131 130 125 121 112 112 108 100  92  77 119 123 123 111 100  92 101 111 113 115 116 117 121 128 133 142 142 142 154 117 115 125 130 139 143 143 146 145 145 145 143 144 143 143 143 144 145 147 150 159 114  50 103  89 119 250 245 244 245 245 245 245 245 245 245 245
  58 158 158 146 153 125 112 108 105  97  95 111 118 122 121 120 123 125 125 124 125 126 127 127 129 127 126 125 120 115 113 109 105  98  93  85  94 100  92  81  70  73  91  98  99 107 108 110 112 117 130 124 127 127 146 128 110 122 129 138 143 146 147 147 148 148 148 148 146 144 144 144 146 147 146 158  78  67  98 102 218 249 244 245 245 245 245 245 245 245 245 245
  70 121 142 132 132 109 105  85  92  90  99 110 112 116 116 117 118 122 122 122 121 124 125 125 124 122 122 120 117 115 112 108 103  99  94  86  82  83  69  56  33  10  55  89  89  93  96 106 108 112 114 111 113 125 134 120 109 119 129 134 143 145 147 148 150 151 152 149 149 148 145 145 146 146 144 151  47  69 100 186 248 245 245 245 245 245 245 245 245 245 245 245
  83  80 113 121 116 105  98  97  93  87  84 110 105 113 105 105 115 117 119 121 122 122 124 121 121 121 118 115 115 112 108 106 104 103 100  90  75  62  63  56  51  38  34  74  81  83  88  95  92 101 104  96  92 113 125 110 108 117 125 132 139 143 144 146 150 151 149 148 148 147 147 146 147 147 147 141  22  93 145 249 244 245 245 245 245 245 245 245 245 245 245 245
  85  81  90 103 102  99  98  96  92  90  94  96  93 102 107  93 109 113 116 118 120 121 122 121 119 117 115 114 113 113 109 107 107 109 109 102  94  60  57  59  62  59  52  56  71  75  78  83  88  93  74  40  57  98 106  98 106 116 126 131 137 143 143 147 151 150 150 148 148 147 145 143 146 145 143 119  21 127 245 247 245 245 245 245 245 245 245 245 245 245 245 245
  84  83  78  76  86  93  99  95  90  89  85  84  88  92  87  87 102 112 110 112 117 118 119 118 116 114 112 113 115 113 111 111 112 115 116 111 108  86  66  64  62  60  57  57  63  67  72  75  78  79  66  63  64  88 111 108 112 116 121 130 138 142 144 147 150 149 150 148 148 147 143 143 142 144 139 100  21 193 248 245 245 245 245 245 245 245 245 245 245 245 245 245
  81  80  81  79  78  85 102  95  88  85  84  78  86  90  70  79  93 100 101 108 111 115 116 115 113 111 112 112 113 113 114 115 121 124 122 119 114  80  70  63  65  61  56  56  56  60  69  72  74  77  75  71  81  99 112 111 113 117 121 128 134 142 143 146 146 147 148 149 148 146 143 140 139 128 127  74  26 237 245 244 245 245 245 245 245 245 245 245 245 245 245 245
  77  76  81  79  73  77  96  87  87  86  92  78  76  74  76  71  83  90  92  97 109 112 113 112 110 109 110 112 112 113 117 121 124 122 121 119 103  65  64  51  44  39  43  45  54  53  52  51  65  81  84  85  98 113 117 115 115 118 122 126 132 137 140 144 144 145 146 147 147 145 143 138 133 116 116  56  35 250 245 245 245 245 245 245 245 245 245 245 245 245 245 245
  62  59  55  49  66  73  88  86  83  88  89  89  63  76  75  74  80  80  78  97  99 112 112 111 108 109 109 111 113 115 117 119 118 119 119  94  86  62  57  48  43  40  41  44  49  45  43  43  41  69  89 104 113 121 120 119 118 118 122 126 129 133 138 142 144 145 147 148 147 146 139 134 122 111  96  40  80 250 244 245 245 245 245 245 245 245 245 245 245 245 245 245
  69  73  76  85  89  81  86  80  76  79  86  83  74  72  74  76  79  80  80  91 108 107 112 110 109 110 110 109 112 117 119 109 107 113  96  75  60  55  52  42  40  39  40  44  46  43  42  43  47  50  79  98 115 120 122 121 118 119 123 126 129 132 137 142 144 146 147 148 148 145 135 129 121 109  87  30 156 250 245 245 245 245 245 245 245 245 245 245 245 245 245 245
  63  48  30  24  21  41  90  79  77  77  78  77  73  65  67  73  75  70  70  68 104 106 109 110 109 109 107 105 109  97  91  90  77  75  78  55  52  50  46  40  40  40  41  43  45  43  42  43  45  40  64  87 116 125 124 124 121 120 124 127 130 131 137 140 143 145 146 145 145 141 132 122 104  95  77  25 160 250 245 245 245 245 245 245 245 245 245 245 245 245 245 245
   5   5  10  17  17  10 110  96  73  55  61  70  69  61  64  69  73  71  69  78  92  98 109 109 108 107 103 100  92  84  85  79  75  69  53  55  52  46  45  39  39  42  43  44  44  44  44  46  45  47  48  65 102 117 123 121 121 120 122 127 130 131 136 140 142 143 141 141 140 134 129 110  98  85  69  30 174 250 245 245 245 245 245 245 245 245 245 245 245 245 245 245
  16  17  17  19  19   9 106  96  75  68  65  67  70  62  61  66  72  71  67  74  88  94 100 105 104 102  96  94  73  63  56  55  53  53  58  56  47  51  41  48  54  46  29  36  39  31  41  48  50  50  51  45  85 113 116 119 118 118 117 127 128 131 134 137 141 141 140 134 131 124 119 101  87  74  71  35 199 248 245 245 245 245 245 245 245 245 245 245 245 245 245 245
  10  12  11   9  11  29 111  84  75  70  66  67  65  64  62  64  67  66  66  68  84  93  99 104 101  95  83  69  47  44  40  39  46  52  62  69  71  78  75  80  97 100  95  76  69  74  73  73  56  49  50  56  67  91 102 105 115 115 116 123 129 131 134 138 138 137 133 127 126 108 100  95  92  70  44  42 250 246 245 245 245 245 245 245 245 245 245 245 245 245 245 245
  47  48  55  59  62  61  89  84  73  66  65  66  66  66  63  61  61  61  60  63  78  89  98 103 105  92  79  53  47  44  42  43  48  58  66  72  68  59  57  62  66  75  98 116 114 116 116 109  94  80  66  60  62  70  75  88 103 110 115 122 130 131 133 135 133 132 130 120 117  96  84  90  90  68  39 159 249 245 245 245 245 245 245 245 245 245 245 245 245 245 245 245
  68  64  63  62  62  63  86  84  66  63  60  63  66  64  62  57  57  58  58  58  76  91  94 100  98  93  73  58  50  45  42  42  47  57  56  48  41  55  54  58  56  64  59  74  85  83  75  75  91 101  89  75  62  58  64  75 102 107 102 117 129 133 132 133 131 125 117 114 111  92  90  85  82  71  33 220 243 245 245 245 245 245 245 245 245 245 245 245 245 245 245 245
  66  66  67  67  66  71  98 100  62  58  52  58  64  62  59  56  53  54  54  52  74  84  89  95  96  86  73  60  53  47  39  32  31  29  31  34  39  39  42  49  58  58  62  67  68  70  73  64  51  68  90  83  68  56  50  51  64  97 103 113 125 131 131 129 126 119 111 110 107  93  89  83  76  59 112 236 244 245 245 245 245 245 245 245 245 245 245 245 245 245 245 245
  74  72  73  71  72  76 103 117  56  58  54  55  60  60  58  54  51  51  52  51  71  80  86  93  91  85  72  60  57  51  45  47  51  56  68  73  64  45  30  24  41  54  56  64  68  64  58  56  61  53  63  81  82  63  50  51  45  68 100  99 128 128 130 128 120 108 101 104  99  95  85  75  64  23 149 249 245 245 245 245 245 245 245 245 245 245 245 245 245 245 245 245
  77  77  77  75  75  75 102 132  53  55  53  52  53  55  55  53  49  48  50  54  70  79  86  88  90  80  68  64  60  64  73  74  85  88  88  86  90  94  96  82  61  42  37  41  44  49  49  37  41  41  43  58  75  72  59  58  53  42  86 106 124 127 131 124 113 108  83  85  83  79  71  65  63  24 206 248 245 245 245 245 245 245 245 245 245 245 245 245 245 245 245 245
  77  77  77  75  75  70  91 163  81  52  49  51  49  50  52  52  46  45  48  55  67  77  84  86  84  74  71  70  71  75  84  83  84  88  89  89  87  86  88  91  97  92  80  71  82  74  68  72  71  74  57  34  48  57  58  57  58  53  82 108 119 127 129 113 104  90  82  83  59  75  69  64  62  36 239 246 245 245 245 245 245 245 245 245 245 245 245 245 245 245 245 245
  77  77  77  75  73  74  76 175 116  67  55  45  46  46  46  46  43  44  46  51  74  77  82  81  78  73  71  73  75  78  80  82  83  83  87  93  87  86  86  86  90  95 103 107 101 101 114 110 116 111 109  79  52  39  50  59  64  53  90 108 120 127 126 117  82  76  76  75  57  65  73  63  46  58 247 245 245 245 245 245 245 245 245 245 245 245 245 245 245 245 245 245
  78  77  77  75  74  70  74 179 129 101  38  44  44  42  42  41  41  42  45  50  67  75  79  78  73  70  68  71  75  78  78  78  78  72  73  74  74  76  80  82  89  93  94  97  96  97  98  99 105 107 106 108  92  74  54  62  66  75  93 112 119 124 120 112  81  57  64  68  61  59  62  61  20 148 250 245 245 245 245 245 245 245 245 245 245 245 245 245 245 245 245 245
  78  77  77  75  75  72  65 182 124 108  61  41  42  41  38  37  38  41  44  51  62  72  76  75  72  69  68  72  77  77  77  76  75  73  68  64  58  59  56  61  64  71  77  85  90  89  98 102 111 108 108 111 117 109  77  73  76  83  94 116 118 121 115 102  73  52  59  59  58  58  58  49  17 230 246 245 245 245 245 245 245 245 245 245 245 245 245 245 245 245 245 245
  78  77  77  75  73  69  55 186 133 112  88  29  41  40  37  35  36  38  42  45  56  67  72  71  65  64  64  67  71  73  73  73  73  71  67  61  56  48  42  43  42  48  43  49  60  62  72  80  89  98  99 105 107 106  95  83  81  88  95 117 118 117 114  93  73  52  54  53  52  53  52  33 120 250 245 245 245 245 245 245 245 245 245 245 245 245 245 245 245 245 245 245
  77  78  77  75  74  72  43 191 140 111  91  44  37  37  34  33  34  34  40  45  55  65  69  67  61  59  58  64  68  70  70  70  69  65  65  63  56  50  42  33  25  20  28  29  36  49  54  65  68  82  90  92 107 108  96  95  88  86 108 110 117 117 105  80  69  46  50  49  47  47  43  27 226 247 245 245 245 245 245 245 245 245 245 245 245 245 245 245 245 245 245 245
  79  76  76  77  74  70  47 185 142 116 103  72  31  37  34  34  35  35  37  46  54  59  61  60  58  56  58  63  67  67  68  69  69  69  68  66  58  50  42  36  37  36  33  33  38  46  56  65  74  80  86  92  98 102 101  96  94  93  96 109 114 120  97  79  63  52  51  49  49  50  33  84 249 244 245 245 245 245 245 245 245 245 245 245 245 245 245 245 245 245 245 245
  67  58  65  60  58  38  48 192 140 112 108  85  49  32  36  36  35  35  36  44  51  53  53  55  55  56  57  63  66  70  70  72  72  72  70  67  65  56  61  57  47  38  38  40  42  51  54  66  73  78  85  90  95  99  98  97  95  95  95 106 110 108 100  78  64  57  53  52  52  53  34 214 247 245 245 245 245 245 245 245 245 245 245 245 245 245 245 245 245 245 245 245
 113 162 167 156 147 114 128 179 142 118 100  85  58  35  37  36  33  31  34  36  47  47  47  48  50  52  53  56  62  70  74  77  78  77  87  91  96 101  95  90  76  66  65  63  64  58  68  73  75  79  83  86  89  93  93  93  94  95  97 101 104 105  95  75  61  57  54  53  53  45  67 248 246 244 245 245 245 245 245 245 245 245 245 245 245 245 245 245 245 245 245 245
 250 249 198 151 168 200 181 163 143 116  95  81  74  40  35  32  30  29  29  33  38  41  42  43  44  43  44  48  61  70  83  83  88  91  95 105 110 110  94  95  93  84  96  94  97  92  74  74  80  82  84  85  85  87  88  89  91  94  96  98 101  95  84  68  52  51  49  49  50  22 138 250 245 245 245 245 245 245 245 245 245 245 245 245 245 245 245 245 245 245 245 245
 132  95  68  44  34  57 122 171 143 117 102  87  77  61  30  30  27  25  27  30  35  35  34  33  35  39  44  45  62  67  78  85  94  98  99 105 109 108 104  99  97  94  94  89 115 109  99  92  79  85  85  86  85  82  83  82  84  89  94  95  98  82  71  54  44  44  45  43  30  86 246 247 245 245 245 245 245 245 245 245 245 245 245 245 245 245 245 245 245 245 245 245
  16  11  10  13   9   8  97 165 137 119 101  80  80  65  39  31  26  23  22  27  29  29  25  24  31  37  45  54  61  69  77  81  93  95  95 101 106 105 101  97  99  93  92  84 118 125 116 106 102  93  88  87  84  83  81  81  82  85  90  90  87  74  54  42  40  40  40  31  35 239 246 245 245 245 245 245 245 245 245 245 245 245 245 245 245 245 245 245 245 245 245 245
  22  18  24  18  18   8 112 158 141 114  97  75  72  64  53  26  27  24  23  24  26  24  23  25  29  39  44  50  56  66  72  82  89  90  90  92  90  92  90  94  92  85  89 102 118 122 128 122 112 105 102  94  89  86  82  78  78  80  80  85  76  64  47  36  37  37  40  18 147 249 245 245 245 245 245 245 245 245 245 245 245 245 245 245 245 245 245 245 245 245 245 245
  22  21  18  17  15   6 146 150 141 115  91  77  70  65  60  30  27  23  21  22  23  21  21  25  30  37  42  46  52  55  65  70  75  73  74  77  73  72  75  78  84  74  80  99 115 119 127 127 118 116 110 100  93  87  81  77  75  76  78  72  67  54  45  38  34  36  35  24 242 245 245 245 245 245 245 245 245 245 245 245 245 245 245 245 245 245 245 245 245 245 245 245
  22  22  18  17  15   8 164 148 136 116 101  77  70  65  66  32  30  24  21  20  23  20  21  25  30  35  39  41  45  52  52  55  58  64  67  63  66  60  55  62  67  73  71  84  86 107 107 122 122 116 112 105  93  83  78  75  64  52  51  60  57  52  43  37  34  30  36  99 249 245 245 245 245 245 245 245 245 245 245 245 245 245 245 245 245 245 245 245 245 245 245 245
  22  20  18  16  16  19 171 152 135 115 103  81  70  64  60  44  34  26  21  20  20  20  22  24  28  32  35  36  37  43  49  51  53  57  57  54  52  50  51  52  57  60  62  73  84  90  96  97 106 106 100  91  82  73  70  66  63  55  54  52  52  50  43  39  36  37  58 193 249 244 245 245 245 245 245 245 245 245 245 245 245 245 245 245 245 245 245 245 245 245 245 245
  21  20  17  18   9  60 176 151 138 121 101  77  68  62  56  45  38  27  23  20  18  19  21  23  27  28  30  30  31  35  41  42  45  47  48  47  44  44  45  47  47  48  58  63  67  76  80  77  79  91  88  72  74  63  54  51  45  46  45  42  42  40  40  39  30  64  37 248 245 245 245 245 245 245 245 245 245 245 245 245 245 245 245 245 245 245 245 245 245 245 245 245
  20  20  18  18  10 111 164 157 140 120 105  72  69  63  54  45  39  32  24  19  16  17  21  23  26  26  26  26  27  29  33  33  36  37  38  40  40  39  38  41  43  42  44  52  52  57  62  72  67  68  73  68  63  61  49  41  40  37  38  37  35  34  36  32  57  75  72 250 244 245 245 245 245 245 245 245 245 245 245 245 245 245 245 245 245 245 245 245 245 245 245 245
  21  22  17  12  25 158 158 155 143 122 103  76  71  65  55  48  41  34  26  19  16  17  19  21  21  24  23  23  22  24  27  27  29  29  30  30  37  33  31  35  42  40  40  42  42  44  48  56  61  57  59  59  53  50  45  39  34  33  34  34  31  33  33  41  69  70 140 249 244 245 245 245 245 245 245 245 245 245 245 245 245 245 245 245 245 245 245 245 245 245 245 245
  11  11  17   7  94 167 157 152 145 123 100  81  70  63  57  49  43  36  29  22  18  17  17  18  18  20  20  19  19  19  22  21  22  22  21  21  25  25  24  22  25  32  33  35  33  36  39  44  41  46  49  51  46  44  37  33  30  31  31  29  29  31  39  66  79  70 189 248 246 245 245 245 245 245 245 245 245 245 245 245 245 245 245 245 245 245 245 245 245 245 245 245
 149 105  27  45 181 161 159 153 141 126 104  84  70  62  57  50  45  40  32  26  23  20  16  17  18  18  19  18  19  16  18  19  18  17  17  16  18  19  18  19  21  24  26  27  28  30  30  35  33  33  37  42  41  40  36  30  29  30  31  25  27  24  46  75  83 103 133 182 241 250 248 244 244 245 245 245 245 245 245 245 245 245 245 245 245 245 245 245 245 245 245 245
 185 152  70 150 176 164 159 152 139 125 107  86  74  64  57  51  46  40  35  27  23  19  19  17  17  18  18  18  16  15  15  16  16  17  16  15  15  15  16  18  18  19  20  24  25  25  25  26  26  29  30  34  35  34  29  27  28  27  28  26  22  44  69  76  96 121  27  14  46 118 230 250 250 246 245 245 245 245 245 245 245 245 245 245 245 245 245 245 245 245 245 245
