P2
92 112
255
 245 245 245 245 245 245 245 245 245 245 245 245 245 245 245 245 244 243 241 239 236 171  79  37  55  62  68  72  87  81  80  74  82  63  58  63  62  48  46  30  44  45  49  55  59  52  48  49  37  33  37  34  35  41  45  50  53  68  73  66  54  49  51  58  57  50  59  75  93 132 152 174 201 218 212 212 216 209 205 191 161 136 106  88 126 118 160 189 216 233 238 242
 245 245 245 245 245 245 245 245 245 245 245 245 245 245 244 245 244 243 243 232 174 135  56  70  67  69  71  76  53  49  49  52  37  47  52  53  26  25  35  33  38  41  45  47  46  44  43  38  34  36  38  39  42  47  50  53  55  43  54  64  56  54  53  56  58  59  54  40  66  67 115 121 133 170 170 148 126 137  88 139 134 182 218 237 243 245 241 244 243 241 240 238
 245 245 245 245 245 245 245 245 245 245 245 245 245 244 244 243 243 242 247 199 135 103  69  67  66  71  65  56  51  48  43  39  46  46  43  35  33  30  28  29  33  37  40  39  38  36  24  19  21  30  33  36  40  48  46  49  54  51  45  53  60  62  56  53  64  64  63  64  53  41  47  55 112 119 149 172 199 219 231 242 244 243 240 239 237 238 238 237 237 240 239 239
 245 245 245 245 245 245 245 245 245 245 245 245 243 244 243 243 242 249 227 132  98  92  57  63  50  44  54  53  47  43  42  42  42  41  33  33  29  27  28  28  30  33  35  34  28  23  23  22  22  24  28  26  23  31  37  40  30  12  18  14  21  31  44  52  55  79  70  72  75  50  60  62  63 135 200 232 241 237 237 236 236 236 238 238 237 238 238 238 239 240 240 240
 245 245 245 245 245 245 245 244 244 243 243 244 243 243 242 240 247 225 121  68  40  45  56  54  50  47  47  44  43  42  41  40  38  35  31  29  27  26  26  26  28  29  30  29  26  23  22  21  22  22  22  21  21  22  24  37  38  37  35  32  30  27  40  36  43  56  61  56  61  41  45  42  48  95 185 238 234 236 237 236 237 238 238 238 238 240 238 238 241 241 241 240
 245 245 245 245 245 245 244 243 243 243 243 243 243 242 242 248 230 127  63  41  46  48  50  50  47  45  43  45  44  42  39  34  34  32  30  27  24  24  26  29  29  28  28  24  24  23  21  21  21  22  20  19  18  18  18   8  33  35  36  34  31  30  29  34  42  44  42  52  71  49  50  52  68  21  82 237 234 236 238 238 238 239 238 240 241 241 239 239 241 241 241 241
 244 244 245 245 245 244 244 243 242 242 241 241 243 242 245 218 126  79  42  39  40  45  46  48  47  48  45  49  51  45  39  38  37  36  32  29  28  28  28  28  28  27  27  27  25  24  24  24  24  22  21  19  18  18  16  18  20  32  34  34  31  28  27  28  34  36  42  38  86  65  48  47  72  74  17  95 242 235 237 238 238 239 240 238 238 240 240 241 242 241 241 242
 243 244 243 243 243 242 242 241 242 242 241 240 240 245 219 123 123  52  40  39  42  45  46  51  47  47  63  62  54  49  45  43  40  38  34  30  29  28  28  27  26  27  29  31  29  28  29  30  29  27  25  23  19  19  18  18  19  18  30  32  32  28  26  26  27  32  42  47  43  53  55  53  29  50 110  34 139 241 238 240 239 240 240 241 239 241 241 241 241 242 242 242
 243 243 241 244 242 241 241 241 240 240 240 237 237 227 149  85  92  50  44  42  44  48  50  51  60  80  89  75  54  48  47  44  43  41  38  36  33  34  34  33  31  31  38  40  34  34  35  36  38  29  29  31  24  12  13  17  19  21  26  31  31  27  25  25  26  31  37  41  45  52  58  59  57  22  97 140 132 219 238 238 240 241 242 241 240 239 240 242 242 242 241 241
 242 242 241 240 240 240 240 239 239 238 238 235 243 169  88  99  62  45  43  35  47  53  56  77  79  87  84  76  73  69  67  65  53  37  37  35  40  45  36  39  38  39  47  44  43  35  40  53  50  43  50  41  38  45  40  45  39  33  29  31  33  28  25  26  27  31  35  37  39  40  49  58  70  68  38 139 130 190 234 238 239 241 242 241 241 241 242 241 243 242 242 242
 240 241 239 238 238 237 236 238 235 230 229 233 211  81 106 107  35  51  56  64  60  52  86  86  89  81 104 101  92 103  96  92  83  77  79  79  73  56  64  53  60  73  76  65  57  76  79  73  65  75  64  79  85  82  88  68  56  54  41  30  32  29  26  26  31  34  37  39  40  40  38  38  37  48  54  70  62 190 230 236 239 241 241 241 242 242 242 241 242 243 243 243
 237 237 238 236 234 229 227 220 222 215 212 215 104  92  98  71  29  66  73  60  70 100  95 104 117 127 140 134 131 134 124 121 115 110 104 105 103  97  91  96 100 103 105 108 109 111 104 113 116 106 106 118 115 105 101 103  90  60  51  39  33  30  32  29  33  37  40  42  34  32  38  38  27  27  41  37  25 175 225 238 238 241 241 241 242 241 242 243 243 243 243 243
 233 225 220 215 216 222 223 218 217 211 204 144  66  88  96  49  48  86  81  97 128 128 130 140 150 154 158 154 159 161 159 144 143 138 125 123 121 130 126 119 122 121 126 133 136 131 131 136 132 130 131 130 134 137 126 119 113  97  76  46  28  29  37  47  54  41  45  47  65  60  53  35  38  32  28  41  32 122 220 232 238 241 242 242 242 243 244 244 243 243 243 243
 217 217 217 209 204 190 174 149 133 147 115  71  58  79 114  45  74 104 128 135 139 146 164 172 171 174 180 176 170 175 171 166 155 148 149 144 139 136 135 136 133 135 138 139 139 141 143 144 144 145 145 142 142 141 138 142 135 124 114  86  49  43  52  67  69  88 110 118 133 129 104  65  44  34  31  35  39  23 175 235 240 241 242 241 241 243 243 243 243 243 243 243
 178 164 129 103 115  57  95 102 148 106  74  88  82  73 110  44 102 145 152 155 170 183 185 183 185 182 180 179 178 176 173 170 167 157 152 148 145 143 143 142 141 141 142 143 143 145 146 147 148 148 147 148 149 146 145 145 143 144 134 130  99  56  38  25  98 146 157 158 150 150 140 102  67  45  34  32  38  29  29 202 238 241 242 241 244 243 243 243 243 243 243 245
  74  92 114 159 212 235 247 244 217  64  98  89  91  49  79  56 118 150 157 191 194 191 189 188 188 185 180 178 178 177 175 172 170 163 153 153 151 149 149 148 146 145 146 146 147 148 148 150 150 150 150 153 153 153 151 151 155 153 151 146 140 133 128 139 155 161 162 164 158 159 156 134 115  61  62  33  38  36  42  85 234 242 241 242 244 243 243 243 243 243 244 245
 239 246 249 246 243 243 241 243 151  72  85  77  82  46  56  71 134 163 181 188 190 191 189 188 187 183 181 178 177 176 176 175 172 168 163 157 155 154 153 149 148 147 147 148 147 148 148 149 149 149 149 150 151 153 153 154 153 154 157 157 164 164 165 168 166 166 166 166 166 162 162 155 142  89  44  44  38  28  53  21 154 247 240 242 244 243 243 243 243 244 245 245
 242 239 237 239 240 240 244 217  47  74  73  71  61  46  44  81 144 187 191 188 189 189 185 184 181 179 176 173 170 171 172 171 169 165 162 157 154 151 149 148 147 147 147 148 146 147 148 148 148 148 147 148 150 151 153 154 154 156 157 157 157 158 159 161 163 166 166 168 169 167 163 160 151 104  54  40  38  34  31  44  41 241 241 242 243 244 245 245 245 245 245 245
 240 239 239 241 241 240 248 111  44  59  68  62  49  49  52  75 158 191 189 190 189 183 180 175 174 171 168 168 163 164 167 164 164 159 157 155 151 150 148 147 146 146 148 147 145 146 148 148 147 147 147 146 146 148 149 150 154 154 155 157 157 157 157 158 162 164 165 165 166 167 165 161 147 117  89  40  38  34  33  44  20 165 247 240 243 243 244 245 245 245 245 245
 241 241 241 241 241 242 210  27  45  47  47  48  45  50  62  71 168 184 187 190 188 181 172 166 163 161 157 155 153 155 156 159 157 152 145 141 144 146 147 144 143 144 145 146 146 146 147 148 148 148 147 147 147 147 148 149 151 152 153 152 153 154 154 156 159 161 162 164 166 166 165 164 134 139 128  49  35  37  34  40  48  53 247 243 243 244 244 245 245 245 245 245
 241 241 242 241 241 245 101  30  49  48  46  45  47  61  46 103 165 175 185 189 184 175 166 155 157 148 146 142 145 149 147 142 135 134 137 139 141 143 144 143 142 142 144 143 144 145 146 148 148 148 148 147 147 147 147 149 149 151 151 150 152 152 153 154 157 159 160 162 164 164 165 168 157 142 145  88  43  41  35  40  50  20 227 247 243 244 245 245 245 245 245 245
 242 242 241 242 245 204  35  47  50  47  40  40  47  61  32 136 169 172 184 183 176 168 160 152 149 146 138 140 139 130 138 135 133 129 130 134 135 139 141 142 142 142 142 144 142 143 145 146 146 147 146 144 145 145 144 143 145 148 149 149 149 150 152 153 153 157 158 160 163 164 166 167 171 143 146 125  71  37  41  37  35  35 126 249 242 244 245 245 245 245 245 245
 241 244 243 242 247 127  24  52  49  45  40  38  50  56  76 152 174 176 179 178 172 164 157 151 144 137 134 133 133 135 123 130 129 127 127 130 134 135 139 141 140 142 142 143 142 142 142 143 144 144 144 144 144 144 144 144 144 145 147 148 149 149 150 151 152 154 156 158 160 162 164 166 166 161 157 148 107  59  39  42  41  34  21 249 245 244 245 245 245 245 245 245
 243 243 243 243 239  47  36  51  46  41  38  34  49  44 125 162 179 177 177 175 169 164 155 150 144 138 134 131 132 131 129 128 127 128 129 130 134 135 137 138 141 142 143 144 144 143 143 144 143 142 143 144 143 143 143 143 143 145 145 145 146 147 147 148 150 152 154 156 158 160 161 163 165 163 160 157 150  98  39  42  44  44  16 221 247 244 245 245 245 245 245 245
 243 243 243 249 205  29  38  49  39  36  35  36  46  79 143 176 176 175 174 170 168 161 153 149 145 142 139 137 134 134 133 132 130 130 132 133 135 136 138 138 138 141 143 145 144 143 143 143 143 143 143 143 143 141 139 141 143 144 145 145 146 145 145 145 147 149 150 154 156 159 159 160 162 163 162 160 165 144  55  38  43  44  18 117 250 244 245 245 245 245 245 245
 243 243 243 250 156  25  41  42  34  32  35  40  41 102 164 184 176 173 170 168 165 156 153 151 149 146 144 142 141 139 139 138 140 137 133 138 139 139 138 142 142 143 144 146 145 146 144 144 144 145 144 143 143 143 142 144 145 145 146 148 148 149 148 147 148 148 150 151 155 157 159 159 161 163 165 160 156 155 101  25  44  42  37  57 249 243 244 245 245 245 245 245
 243 242 243 249  86  19  40  38  32  30  32  43  58 127 173 178 175 172 168 163 159 154 152 152 152 151 149 147 145 144 143 143 145 145 147 148 149 148 147 146 146 145 146 146 146 146 146 145 145 145 145 144 145 145 146 146 147 148 148 149 149 150 150 150 150 150 151 150 153 155 155 158 160 161 163 159 154 148 130  34  40  40  35  17 231 246 243 245 245 245 245 245
 249 247 244 249  33  26  40  36  31  31  36  44  65 147 175 174 174 171 164 160 156 154 151 151 152 152 153 155 153 151 151 154 157 158 158 160 158 157 158 154 150 148 148 147 147 146 145 145 145 145 147 148 149 149 150 150 151 151 151 152 152 152 152 152 152 152 151 152 152 155 157 156 158 160 161 159 152 145 139  81  38  37  37  33 110 249 243 245 245 244 245 245
  86 210 250 237  18  38  35  34  31  33  40  41  83 160 177 172 172 168 160 157 152 148 148 149 150 151 154 157 156 156 160 164 164 167 169 171 171 168 164 157 152 151 148 147 148 148 146 144 145 147 148 149 151 152 154 154 154 155 154 154 153 153 152 153 152 151 149 150 151 152 154 156 156 159 161 159 154 146 131 125  43  26  37  42  19 240 245 243 244 243 243 243
  94  85 130 111  14  31  27  28  31  32  44  47 104 156 169 170 170 165 159 154 147 147 146 147 148 150 152 156 158 161 166 170 177 181 178 177 174 171 166 161 156 153 151 148 148 148 147 145 145 147 148 150 152 153 154 156 157 157 158 157 156 155 155 153 152 150 149 148 149 150 154 156 156 158 160 159 158 137 132 135  56  17  30  40  18 168 247 240 241 240 239 238
 117 109  99  54  23  29  26  28  31  35  44  57 106 157 160 165 167 161 157 151 148 145 145 147 149 153 154 157 159 164 168 171 175 178 179 177 176 172 168 164 159 155 153 151 148 147 148 148 147 147 150 150 153 155 154 156 156 158 158 159 159 159 158 156 155 153 151 148 148 149 151 155 157 157 158 160 155 139 128 125  74  26  30  23  44  25 247 233 235 235 235 235
 118 116 123  48  28  28  25  25  30  37  48  61 109 156 158 162 163 161 156 150 145 142 144 147 151 155 160 162 164 167 169 171 175 175 175 175 175 173 165 162 159 157 156 153 150 147 148 148 148 148 148 151 152 153 154 154 154 155 157 156 157 159 159 158 157 155 152 150 148 147 150 153 154 156 158 158 155 152 108 118  82  33  27  24  40  15 211 234 232 233 234 235
 118 117 124  36  37  26  25  26  28  37  42  63 108 152 156 160 161 159 155 149 144 143 144 150 153 156 163 166 168 170 169 169 174 173 169 166 161 159 156 155 156 157 155 152 150 148 147 146 148 150 150 150 151 150 151 151 152 152 153 153 154 157 158 158 159 158 156 152 150 150 151 152 154 156 157 157 156 154 118 102  79  44  23  27  27  22  73 238 230 226 216 203
 118 119 132  27  37  28  25  28  33  39  44  68 114 150 161 162 160 157 151 148 147 147 149 155 159 163 167 169 170 169 166 161 161 162 156 151 146 144 146 148 152 154 153 150 147 144 143 145 148 149 149 149 148 149 148 148 148 148 148 150 153 155 157 157 158 158 156 155 152 152 152 152 154 154 155 156 156 165 125  88  74  51  14  27  29  41  31 236 209 213 223 234
 118 118 125  32  34  28  25  28  34  39  42  83 124 155 160 160 159 155 150 150 146 148 156 157 165 168 169 169 167 166 165 158 149 143 138 134 132 133 137 142 145 148 148 144 141 140 139 142 144 145 146 145 144 146 146 144 144 144 144 144 147 149 155 157 157 156 154 153 153 154 151 152 154 154 155 155 155 160 144  78  63  47  22  28  28  36  17 240 242 241 239 240
 118 117 133  31  32  28  26  29  35  37  43  87 135 160 159 158 156 152 152 145 157 165 173 182 174 172 170 169 168 165 158 150 147 134 126 122 122 123 129 127 141 141 142 144 134 135 136 138 141 140 138 137 137 131 135 136 141 144 141 140 135 143 144 144 147 151 154 151 155 152 152 153 154 153 153 155 155 152 158 105  47  40  34  30  29  32  16 233 241 238 238 238
 116 116 132  31  29  28  27  31  36  40  35  87 146 160 160 157 156 153 154 159 167 175 178 179 180 173 165 155 147 135 133 137 125 118 116 112 113 111 114 123 126 129 128 131 129 126 130 131 131 132 131 131 128 127 123 131 131 127 126 118 114 106 109 118 127 133 129 133 140 154 153 153 153 153 153 154 153 153 158 128  42  41  35  30  26  30  16 227 242 237 237 237
 114 114 126  44  38  29  28  31  37  40  29  90 156 157 159 158 154 153 154 167 171 177 179 171 155 146 127 118 110 103  90  69  81  82  82  80  78  93 105 112 116 117 122 122 121 118 120 124 125 125 125 125 119 117 116 107 101  86  70  48  43  46  58  74  95 100  90  84 101 130 147 158 153 153 153 152 152 152 151 151  48  31  33  28  25  30  18 235 236 233 235 235
 111 112 117  70  36  30  29  31  37  40  28 112 158 157 157 155 154 154 161 169 172 165 143 122 113  92  90  75  52  41  39  45  40  37  50  62  76  78  83 108 111 112 115 118 115 114 116 118 118 118 116 112 109 103  94  92  80  66  57  47  43  45  47  52  56  63  70  75  67  75 117 147 154 153 153 153 150 150 148 156  49  33  31  28  27  26  28 243 233 233 234 235
 109 109 109 108  21  29  29  32  35  40  24 127 155 153 155 153 154 157 166 174 165 123 108  75  78  71  54  42  44  41  39  40  37  41  48  59  65  70  82  88  98 104 110 111 112 111 111 111 111 112 110 106 101  91  77  76  62  49  42  43  40  45  46  47  50  61  69  77  80  79  90 120 143 149 153 152 151 150 149 155  61  34  31  27  29   9  56 248 232 234 235 236
 106 107 108 108  26  31  29  32  35  39  29 145 158 156 154 152 153 159 169 168 134  72  73  66  55  44  41  43  39  37  34  34  36  39  44  49  58  63  74  84  92  98 106 108 108 108 108 109 109 109 105 100  94  83  78  67  56  48  43  43  44  45  45  45  50  54  67  74  78  80  70  97 124 148 150 153 151 150 151 159  51  38  30  27  26  13 145 240 235 237 237 237
 100 103 103 110  27  29  30  31  34  29  44 151 157 158 156 153 154 159 162 133  87  68  64  57  55  48  45  40  37  35  34  35  36  40  45  50  56  61  70  80  88  95 101 104 108 109 109 109 111 109 105  98  89  81  75  66  48  45  42  48  44  39  41  44  47  57  65  72  76  78  82  79 100 138 152 152 153 151 150 157  54  42  31  28  28  14 208 241 239 241 241 242
  97  98 100 109  33  27  30  32  34  22  68 156 165 159 156 152 151 147 117 105  85  69  59  55  51  50  47  38  33  31  32  37  37  41  46  54  60  63  69  76  86  91  97 104 108 108 109 111 113 110 106  97  89  85  80  72  67  70  67  60  65  66  68  64  63  47  53  72  78  80  83  87  97 127 150 151 153 153 152 161  47  38  33  31  36  22 248 239 241 241 241 244
  93  95  94  99  50  23  31  32  32  24  70 168 163 160 156 152 152 123  94  89  75  65  59  56  54  51  52  53  58  55  55  49  52  57  57  57  60  63  68  74  81  88  98 104 108 110 113 116 116 113 108 102  91  89  83  79  77  71  70  75  79  85  89  90  90  96  84  84  82  86  89  88  99 126 144 151 153 154 153 162  47  35  35  30  21  96 248 243 243 243 243 243
  88  90  91  96  54  29  33  31  32  18  70 174 168 160 154 150 148 124  90  82  74  67  64  61  61  63  75  81  84  85  85  76  72  67  62  61  61  61  63  70  78  84  96 106 110 115 118 122 122 119 109 105  96  89  82  77  73  69  68  69  73  77  82  85  89  93  96  93  95  95  98  97 105 120 147 148 153 156 158 155  43  36  37  30  13 152 250 241 243 243 244 245
  84  86  86  89  62  40  35  34  36  10  86 172 166 159 153 148 140 129  98  79  74  70  68  71  74  89  98 102 105 103 100  98  85  77  70  67  64  62  61  63  73  85  94 113 115 125 126 128 130 127 116 103  92  86  80  76  72  62  64  67  75  86  92  91  89  82  88  93  97  98  99 102 105 115 138 149 152 157 163 150  34  40  38  33  13 211 248 243 243 244 244 245
  79  81  83  87  74  43  38  37  37  13  84 178 165 159 151 145 131 111  95  83  75  73  74  80  93 104 113  96  85  69  66  66  79  82  76  67  64  62  61  60  69  80  93 114 121 127 131 138 136 129 120  95  87  82  84  68  53  59  62  68  76  88  91  95  98 109  99  80  97  96 100 104 108 107 135 146 152 153 164 152  38  35  37  27  17 233 247 244 245 245 245 245
  77  79  81  80  83  47  38  36  37  15  86 181 163 157 150 137 121 104  86  81  77  77  80  87  89  70  47  55  71  78  77  70  68  39  46  58  59  60  59  59  54  72  91 113 123 128 135 139 139 129 111  92  85  77  68  55  55  55  58  66  74  83  95 108 106 101 111  99  64  93  98 107 110 114 132 146 151 155 163 154  32  29  35  26  33 248 244 245 245 245 245 245
  73  74  76  78  79  48  33  34  35  13  84 188 162 153 145 130 109  98  88  81  80  81  82  82  67  62  70  69  61  52  44  41  42  52  49  45  48  52  56  57  59  54  87 119 119 130 137 139 139 126 108  95  84  74  61  54  51  51  47  36  23  28  26  24  59  77 106 117 102  89  97 106 113 121 130 142 150 156 168 154  27  32  33  19 120 249 243 245 245 245 245 245
  71  73  75  77  77  58  24  32  34  16  80 184 161 155 132 123 102  93  86  82  81  81  79  74  74  67  42  17  12  11  24  31  28  28  36  41  45  45  48  53  57  59  83 108 122 136 141 142 142 123 106  95  81  70  55  51  47  43  26  28  28  30  36  27  40  27  41  85 106 101 101 106 111 122 131 142 150 156 166 163  25  33  29  13 211 249 244 245 245 245 245 245
  69  71  74  78  59  36  17  25  39  22  83 184 160 153 139 120  94  91  84  81  81  84  69  77  64  37  48  54  21  27  27  28  27  29  71  52  43  43  49  52  60  61  77 110 129 142 146 145 143 119 105  94  79  64  52  50  46  74  39  30  28  26  38  26 113 112  41  29  76  95  99 106 113 124 133 142 149 154 167 161  30  39  14  78 248 246 245 245 245 244 245 245
  68  70  78  65 163 196 107  46  41  21  77 185 161 152 140 115  97  90  83  79  78  70  59  58  28  42  69  78  32  27  27  29  19  47  87  64  50  45  45  55  61  67  77 114 146 154 153 150 139 118 108  89  87  52  53  51  51  81  64  31  33  29  43  28 126 129  68  34  35  80  96 103 114 124 133 143 150 155 165 172  24  44  14 148 249 245 243 245 243 243 243 243
  66  67  56 142 187 170 131  70  30  24  53 197 161 155 134 113  90  88  81  77  73  62  58  35  35  45  67  74  62  36  27  27  37  66  71  59  54  52  50  54  62  76  78 121 161 169 165 158 144 121 115  97  86  54  52  56  60  69  75  43  38  38  39  73 107  89  80  73  65  74  90 103 116 124 132 141 152 156 163 173  22  47  17 153 225 238 237 240 242 243 243 243
  62  65  36 160 133 124 129  92  36  29  54 195 162 158 135 110  92  90  79  74  68  61  45  42  54  55  60  67  71  58  54  55  60  63  62  58  53  54  55  56  65  70  86 146 181 176 175 157 153 131 110 101  87  77  68  63  62  63  64  67  68  67  70  82  80  84  86  98 111  99  91 103 117 125 134 142 153 157 160 179  24  39  44 137 148 193 246 244 243 244 245 245
  61  59  76 138  80  66 102 104  51  31  47 196 165 156 135 119  85  91  81  76  69  65  77  90  77  65  62  62  61  61  60  58  59  57  55  55  54  55  57  60  73  68 110 167 193 189 181 173 169 148 120 112  90  82  70  64  62  61  61  63  67  70  75  79  85  88  90  99 103 107 110 114 120 129 138 144 151 156 159 176  21  41 105 131 103 108 234 246 244 245 245 245
  59  55  94 120  69  77  80 101  89  34  50 189 162 154 141 120 109  94  91  84  80  80  82  82  77  69  64  62  59  57  56  55  54  52  50  53  56  60  62  75  85  83 144 174 187 191 185 177 174 159 127 117 109  86  71  60  59  61  61  62  63  69  73  79  82  86  91  96 105 109 114 119 126 130 138 144 152 156 159 174  20 107 128 108  82  59 170 250 244 245 245 245
  58  52  96 105  71  79  76 108 104  33  41 183 159 154 138 116 113 105  96  96  88  86  84  82  78  65  62  57  54  53  52  51  50  50  53  55  61  66  72  85  87  84 155 182 183 186 183 177 173 160 138 121 118 103  84  79  72  65  65  65  64  64  70  76  79  80  88 100 109 113 115 122 128 133 138 143 151 155 157 172  24 115 121  97  82  58 106 250 245 245 245 245
  56  50  86 106  74  70 101 104 103  39  36 181 157 154 144 124 119 113 112 103  97  93  87  83  69  63  59  54  51  50  48  50  51  54  57  62  65  70  88  90  90 108 151 186 182 181 178 172 167 158 138 122 121 121 107  90  80  70  73  73  71  70  72  77  81  90  98 104 110 117 120 123 133 135 139 145 151 154 156 174  27 114 125  98  88  61  90 250 244 245 245 245
  54  50  73 111  74  60 128 108 102  59  29 178 158 151 143 133 132 128 131 109 107  91  91  88  79  66  57  52  53  51  54  54  58  63  65  67  74  85  90  94  95 120 147 165 175 177 175 169 165 155 151 136 128 125 121 105  98  95  88  81  80  79  83  82  90  96 104 108 113 119 126 129 137 141 142 147 150 155 155 164  24 114 129 101  85  64  87 250 244 245 245 245
  54  49  75 121  71  74 137 113 104  52  34 166 156 151 144 142 144 146 137 139 124 111  98  84  87  89  84  80  74  73  74  75  74  74  72  74  91  97  98  97 107 128 149 164 173 177 174 168 162 158 153 148 124 127 123 121 115 109 101 100  95  96  97  99 105 107 113 117 122 127 135 141 144 145 146 147 151 153 153 167  24 121 135  90  89  61  95 250 244 245 245 245
  52  48  84 129  68  79 135 114 103  55  40 159 154 152 149 148 145 159 171 169 157 147 134 118 108 108  95  92  88  85  84  86  85  80  88  96 100 103 104 101 118 147 164 166 178 179 177 173 165 164 157 153 137 133 130 126 122 121 113 102 107 110 110 108 115 112 122 128 134 137 141 148 148 148 147 149 151 154 154 169  23 118 145 103  88  70  94 250 244 245 245 245
  53  48  85 124  72  99 132  98  91  57  33 153 154 152 152 150 161 179 174 171 169 167 154 139 125 112 110 104  99  95  92  93 101 104 108 108 106 107 110 103 146 166 179 185 187 192 183 179 174 165 164 156 149 137 134 131 129 129 129 119 116 116 118 119 123 129 133 139 145 151 151 151 153 152 150 148 151 154 154 168  24 122 148 104  96  64 122 250 244 245 245 245
  52  50  58 118  77 121 119  82  59  64  27 150 153 155 156 161 169 175 175 174 172 170 170 160 150 131 118 117 116 106 115 114 115 114 116 115 111 110 109 133 162 177 180 184 187 190 192 186 178 172 168 162 154 138 138 134 133 134 134 133 131 130 129 130 134 136 140 142 149 152 152 152 152 152 150 147 152 154 152 165  29 120 155  91 100  68 160 250 245 245 245 245
  52  52  28 121  95 134 107  69  66  65  29 148 153 156 160 167 171 173 171 170 170 167 163 159 146 142 137 134 134 131 128 126 128 125 119 116 115 115 123 148 170 179 181 183 185 190 190 183 178 174 171 165 160 148 141 135 134 134 136 138 138 136 136 141 142 143 143 145 148 151 152 152 152 152 151 148 150 155 154 156  35  90 152 105  99  70 204 245 245 245 245 245
  50  51  36 104 100 136 110  61  65  66  32 144 155 156 163 167 169 163 163 166 161 158 157 156 162 163 162 161 150 143 137 132 129 126 121 115 117 114 135 154 170 176 180 180 185 186 183 181 176 173 173 166 159 150 142 135 132 133 132 135 139 143 143 144 146 149 151 151 152 153 153 153 152 150 152 152 152 154 156 150  42  62 156 105  92  73 244 245 245 245 245 245
  50  49  46  65 120 138 107  68  67  70  25 143 159 160 166 168 167 163 160 161 159 158 170 176 182 172 171 165 157 150 147 140 131 125 117 110  93 123 144 155 164 175 179 180 180 183 182 178 176 173 171 166 158 147 135 132 124 121 126 133 138 141 143 146 147 150 153 154 155 156 158 155 154 152 152 153 154 153 154 150  50  47 151 112  77 119 250 244 245 245 245 245
  50  50  50  32 125 146 120  63  73  73  31 132 161 165 169 168 164 162 162 164 172 182 185 183 179 174 169 165 159 151 145 136 128 121 106  83  78 140 167 179 172 174 175 174 172 172 176 178 171 167 167 164 159 150 139 128 114 118 123 131 134 138 142 146 148 151 152 154 158 160 161 159 156 154 153 153 152 151 154 145  51  42 139 118  92 214 247 244 245 245 245 245
  50  50  51  30  94 158 128  77  71  71  42 120 164 165 169 168 164 161 164 179 182 184 182 177 175 173 167 166 160 149 139 126 117  97  91  50 113 168 176 177 177 173 172 170 164 160 158 156 160 161 160 161 162 158 153 140 112 109 114 121 129 135 141 145 146 149 150 156 159 162 163 161 159 156 154 154 153 152 152 145  47  47 128 130 115 250 243 245 245 245 245 245
  49  50  50  47  29 161 134  97  61  52  48 114 159 165 169 167 163 160 169 176 179 180 176 175 167 162 156 151 143 133 126 111 105  90  75  39 125 179 174 175 168 169 170 160 150 145 140 136 143 149 150 161 156 153 155 164 127  82 110 115 123 127 135 142 145 146 148 153 159 159 160 159 158 157 155 154 154 153 150 146  47  62 106 138 198 247 245 245 245 245 245 245
  48  49  50  50  23 154 132 139 130 114  48 104 157 165 168 167 162 162 169 174 174 169 159 156 155 151 138 127 112 115 101 101  93  83  59  30 136 160 171 160 160 152 147 145 145 135 128 130 132 138 143 145 150 145 149 153 148  81  96 109 116 121 128 138 142 145 146 151 156 158 159 160 159 157 155 154 153 151 150 137  44  75 124 130 249 246 244 245 245 245 245 245
  48  49  49  52  18 142 133 126 183 126  42 100 158 163 165 163 158 161 164 168 171 162 162 149 143 132 126 122 118 107 103  91  86  74  60  33 123 134 135 133 128 125 124 121 120 120 117 115 124 125 132 135 133 136 141 145 158  71  92 104 111 118 125 128 136 141 145 149 152 154 156 157 157 157 154 152 151 149 148 127  50  79 146 136 250 244 245 245 245 245 245 245
  49  48  48  49  21 129 132 126 197 122  58  79 148 157 158 154 153 155 157 162 159 152 141 123 122 123 114 112 111  97  90  86  79  64  60  44  96 113 110 105  97  92  91  99 102 101 106 113 116 122 125 121 119 119 130 136 141  94  89  88 105 109 119 126 132 139 142 144 148 146 151 155 157 155 153 152 150 146 142 112  53  79 164 142 249 244 245 245 245 245 245 245
  48  48  49  48  33 108 149 160 180 115  59  76 138 153 152 147 145 146 149 149 145 135 125 122 116 113 108  98  98  93  86  82  72  64  59  57  53  86  87  79  75  77  90  93  87  91  98 102 105 106 112 105 114 111 111 120 123  97  91  92  98 106 114 123 126 130 138 141 145 146 148 154 154 155 152 150 146 142 126 111  43  92 171 155 249 245 245 245 245 245 245 245
  47  47  48  49  37  89 167 194 170 121  53  80 128 144 147 140 136 139 139 136 130 120 116 111 108 102 101  95  90  87  82  76  66  64  64  64  63  56  67  54  41  22  39  74  83  85  86  91  93  98 101 106  65  39  74  97 107  97  96  93  96 104 109 115 122 128 132 139 142 144 147 150 153 153 152 147 142 143 118 104  50  79 181 177 249 245 245 245 245 245 245 245
  47  47  46  47  39  72 202 208 178 118  51  88 101 142 139 125 128 131 124 122 116 108 110  92  90  95  94  92  88  83  78  71  69  68  70  71  70  71  48  45  48  48  40  46  78  72  78  81  88  92  88  73  53  62  62  88 101 102 101  95  95  98 105 110 117 124 129 134 138 142 144 147 149 149 148 146 139 133 118  96  49  91 167 189 249 245 245 245 245 245 245 245
  47  47  45  47  44  79 212 191 159 112  55  96 107 125 128 124 118 113 113 107 107 108  97  92  91  89  88  87  85  82  77  73  72  72  74  74  72  71  58  51  50  50  51  49  58  68  69  76  80  81  77  75  78  67  74  94 104 107 105  97  94  95  98 106 111 117 125 130 133 136 138 142 144 145 142 141 133 119 112  94  52  76 172 173 249 245 245 245 245 245 245 245
  46  47  46  45  38  84 209 182 142 139  57  92 100 111 117 113 106 108 104  96 100  93  92  89  86  85  84  84  83  80  77  75  74  76  75  74  72  69  54  52  48  46  48  48  51  57  64  65  68  71  71  75  79  82  93 101 109 113 110 103  96  92  93 105 107 113 121 125 129 131 134 137 137 137 137 134 135 119 102  86  61  79 161 169 249 245 245 245 245 245 245 245
  46  46  46  45  44  51 192 159 144 117  76  86  95 109 112 108 101  93  92  93  91  92  89  85  82  81  80  80  80  79  74  73  73  73  73  73  73  62  53  48  42  39  40  42  45  50  52  53  53  49  54  67  78  83  90 101 109 112 112 103  96  93  93  96 105 113 116 122 126 129 130 134 135 129 127 128 128 102  96  68  60  80 152 182 249 245 245 245 245 245 245 245
  45  44  45  45  45  22 152 148 119 110  87  82  88 102 112  95  85  84  85  82  82  82  82  82  80  79  78  78  77  75  72  69  68  66  68  69  67  52  50  44  38  35  32  32  36  43  45  38  40  41  43  49  65  73  90  91 111 109 108 106  95  89  88  92  99 107 115 118 123 125 126 126 126 113 119 116 111  99  99  67  60  79 120 234 245 245 245 245 245 245 245 245
  45  44  43  43  45  33  89 124 119 101  78  79  82  91  90  90  75  75  78  74  73  75  78  80  80  78  76  76  74  72  66  64  63  56  61  63  60  49  44  40  34  30  28  28  32  39  40  33  34  38  41  46  45  61  74  87  98 101 106  96  91  86  82  81  95 106 112 116 119 122 122 121 119 113 114 110  88  93  98  67  51  74 200 249 244 245 245 245 245 245 245 245
  45  44  43  44  45  43  38  90  97  88  80  78  80  79  84  76  64  69  61  62  64  68  74  78  79  76  75  73  71  66  62  55  49  46  44  50  48  44  41  36  32  30  29  29  31  36  38  34  31  34  38  41  44  55  53  72  86  89  84  79  79  81  77  71  87 105 111 114 117 118 117 113 109 108 109 107  98  95  86  77  30 173 250 245 245 245 245 245 245 245 245 245
  46  44  43  44  45  48  46  38  62  72  73  78  79  78  78  78  55  61  63  60  61  62  71  76  76  76  74  71  68  61  55  43  40  37  40  41  43  42  41  36  33  32  34  34  34  37  39  37  35  37  39  40  44  49  53  60  67  74  71  60  65  71  72  70  77  91 110 112 114 114 113 109 103 103 109 106 100  97  87  78  51 212 248 245 245 245 245 245 245 245 245 245
  45  44  44  44  45  45  45  48  44  57  67  74  77  75  72  73  58  60  61  58  51  49  66  72  75  75  72  69  60  55  45  32  26  29  37  40  41  42  42  32  32  35  35  34  30  37  41  30  29  38  46  44  46  49  52  60  60  58  50  49  47  53  58  61  60  85 107 110 113 113 109 103  94  96 102 101 103  94  85  64  58 227 247 245 245 245 245 245 245 245 245 245
  45  45  44  44  44  45  44  45  46  48  68  73  77  82  57  66  66  60  59  55  49  46  58  66  71  72  71  64  53  48  27  22  20  22  33  44  47  43  53  60  59  64  70  82  81  71  59  69  62  63  58  58  54  47  46  65  61  55  45  39  37  34  45  49  59  76 103 109 112 114 104  98  87  87  81  91 101  74  70  55  64 240 243 245 245 244 245 245 244 245 244 245
  45  45  45  44  44  43  44  44  44  45  67  70  76  80  64  62  57  57  57  53  49  47  50  63  69  72  70  62  53  41  19  19  19  22  32  48  49  51  50  50  52  55  60  64  70  79  86  85  85  85  82  73  73  78  78  72  66  55  45  23  27  29  28  43  59  67  95 111 110 102  90  85  83  84  81  62  82  67  63  53  67 250 246 247 247 246 246 246 247 247 249 249
  47  46  44  43  43  43  44  44  44  46  55  64  71  73  67  58  54  53  54  52  49  47  48  56  66  69  69  64  53  36  25  20  21  24  30  37  40  39  41  41  39  39  45  49  56  54  62  66  63  67  59  59  61  60  61  65  63  56  34  24  31  31  32  40  59  74  94 110 106  98  85  76  76  79  80  64  69  77  61  54  75 224 229 229 227 226 221 207 213 200 200 199
  46  45  44  44  44  43  43  43  42  45  53  69  63  64  63  58  51  50  51  49  46  43  42  50  65  68  69  68  57  41  33  29  28  30  28  30  35  41  44  40  35  25  23  43  47  45  46  48  49  46  42  41  46  50  56  54  41  45  59  52  39  37  37  51  66  70 102 106 103  95  83  64  65  71  74  64  63  70  57  44  83 204 186 194 190 193 189 196 196 199 198 199
  44  44  45  44  44  43  44  45  45  49  51  60  59  59  61  58  53  49  48  45  42  41  39  42  60  63  67  68  61  52  43  39  41  47  54  62  64  66  69  74  75  86  87  78  69  66  69  67  72  74  77  86  90  88  87  86  95  96  85  73  57  51  53  67  76  97  99 102  98  88  75  59  60  66  70  70  67  64  59  33 117 201 195 197 198 197 197 198 199 199 200 199
  44  44  44  43  43  42  41  33  15  15  16  27  48  57  58  57  54  50  46  43  40  39  38  42  50  62  68  70  68  57  51  50  51  51  67  73  86  83  90  88  85  88  94  95 100 110 111 110 109 110 110 109 114 115 115 118 120 113  96  88  73  63  59  75  90  95 102 104  94  85  74  58  58  60  58  62  64  60  53  14 162 197 196 197 197 197 196 197 197 197 197 198
  44  44  45  45  44  35  39  91 119 143 157 150  72  47  57  56  54  50  43  40  39  37  37  39  46  58  65  70  67  60  57  56  58  65  72  77  82  84  86  85  86  86  89  92  94  96  98 102 105 107 109 110 116 117 120 120 118 117 108  97  86  72  70  81  92  98 102 100  89  80  70  53  54  56  56  54  53  49  41  41 180 198 195 195 197 196 196 196 195 195 195 195
  45  44  45  46  43  35 174 202 208 206 199 203 105  37  56  54  53  49  42  40  38  36  34  37  44  54  63  67  66  61  59  60  65  69  75  79  81  83  83  82  83  82  80  82  86  84  85  90  92  98 101 108 113 117 119 122 120 116 115 107  93  83  79  84  93  97 104 101  88  76  66  60  55  53  53  51  46  45  23  97 191 194 193 192 192 194 194 194 193 192 192 191
  45  45  44  45  32  90 198 198 197 195 194 201 136  44  53  50  51  48  44  40  37  36  31  33  42  52  60  63  65  63  60  61  67  73  76  80  82  82  81  79  74  72  73  73  70  74  76  77  79  84  92  93 108 113 117 118 120 119 117 111 105  91  87  88  92  97 103 100  88  70  67  63  57  53  52  51  46  45  17 148 191 187 188 187 187 187 186 186 183 179 180 179
  46  46  45  46  20 124 195 195 197 195 195 197 168  55  42  46  46  46  44  41  37  33  31  33  39  48  57  61  64  62  63  63  67  72  78  81  82  82  81  76  68  63  63  62  61  63  65  61  59  60  75  86  99 108 114 117 120 120 117 113 106  97  94  94  95  99 101  96  87  79  73  65  67  56  53  52  51  42  35 174 176 178 179 181 180 180 179 180 180 180 180 179
  47  46  46  46  15 149 196 195 195 194 193 194 190  92  31  45  42  40  40  41  36  31  30  32  35  45  54  59  62  60  60  62  66  72  77  79  81  82  81  76  70  63  60  57  57  55  57  59  62  63  68  84  95 107 111 115 118 119 116 112 106 101  96  95  97  99  99  95  84  76  69  65  60  56  55  55  50  43  72 189 177 179 180 181 182 181 181 181 180 180 180 180
  47  46  47  48  19 163 193 194 192 192 191 190 198 118  40  40  39  38  36  35  34  30  28  30  36  40  50  55  59  59  58  59  66  72  75  79  81  81  81  77  74  68  61  56  54  53  53  55  59  63  69  90 102 107 110 113 117 117 115 111 106  98  94  97  97  99  97  87  82  76  60  53  52  51  51  50  50  23 112 191 178 180 180 181 181 181 181 182 182 181 181 181
  48  47  46  49  23 167 190 190 185 186 183 181 179 150  77  36  39  35  32  29  27  27  26  28  30  35  43  52  56  57  56  57  65  71  75  79  80  82  83  80  77  70  56  50  52  51  54  53  58  70  82  90  99 107 110 113 116 117 114 109 104  97  95  96  98  96  94  85  70  64  52  48  47  46  46  47  44  33 159 184 179 181 180 180 181 180 181 180 181 181 180 180
  50  48  48  49  23 163 163 162 162 165 165 170 168 171 123  56  39  35  30  25  24  23  23  25  28  34  41  47  51  54  55  58  61  69  75  80  83  84  84  84  85  92  88  87  76  74  66  66  66  81  90  92  99 107 109 112 115 115 111 107 100  98  95  95  97  95  92  65  69  56  45  42  41  41  42  45  18 136 180 181 180 180 180 180 180 180 180 180 179 180 180 180
  26  43  49  50  22 136 166 167 169 150 162 172 177 183 138  85  34  35  28  23  22  22  22  23  27  31  42  44  47  49  53  54  58  64  74  79  84  87  89  90  92  94  95  92  91  87  82  88 103 109 105 106 104 106 110 112 114 114 111 108 102  96  92  91  92  91  86  71  58  50  41  38  36  36  38  32  53 178 176 178 180 180 180 180 180 180 180 179 179 180 179 180
 103  55  26  33  31  51 133 147 188 228 213 157 154 147 126  98  56  35  27  23  23  22  21  23  26  32  38  42  43  44  46  46  48  59  71  79  84  90  94  96  98  99  97  95  91  88  89  97  99 114 115 116 113 113 112 115 116 117 114 109 102  94  89  87  87  85  80  70  54  50  41  36  33  33  34  12 130 177 177 179 178 180 180 180 180 180 180 178 178 180 179 178
 213 202 159 101  53  73 199 230 219 190 141  55  34  48 124 111  79  47  20  24  22  22  22  23  25  28  34  37  37  37  38  39  45  53  66  77  83  91  95  99 104 104 102  95  93  92  92  96 102 112 115 118 118 118 118 120 120 120 115 108  99  92  85  77  75  77  77  66  59  52  41  35  30  32  20  19 177 175 176 179 179 179 179 178 179 178 179 178 178 177 177 179
 192 195 201 199 221 249 247 202  99  37  17   9  10   8 104 123  86  69  31  26  23  22  23  23  24  25  28  32  32  27  29  35  43  53  64  73  81  90  94  97 101 106 103  94  93  94  92  91  94  96 118 120 123 124 122 123 122 122 111 104  94  88  85  65  62  64  63  60  59  53  42  37  34  32  28  97 186 174 178 178 178 178 177 177 177 178 179 178 178 177 177 177
 191 183 178 247 246 198 140  36  16  18  17  17  15   5  82 125  94  77  62  24  26  25  23  22  21  23  26  26  27  26  27  32  45  51  58  68  79  85  90  92  94  95  98  95  89  91  85  83  86 108 120 121 123 123 124 123 122 115 101  92  82  84  78  72  61  58  57  55  53  51  42  37  31  38  69 141 177 174 176 176 176 176 176 177 178 177 176 176 176 176 176 177
 176 183 248 249 242 116  25  12  18  18  16  13  13   6  58 123  99  78  65  45  31  25  23  21  19  20  23  25  23  23  27  27  44  48  55  61  70  78  87  81  83  77  73  75  80  80  78  76  84  97 103 110 114 116 116 117 113 110  97  91  68  52  50  51  52  50  47  44  45  43  40  36  34  59  78 170 172 174 174 175 175 175 175 175 175 175 175 175 175 176 176 176
 195 246 249 234 172  44  31  16  18  15  13  12  13   9  49 124  99  76  65  57  40  27  24  20  20  20  22  24  23  23  27  34  40  45  49  55  58  64  67  69  72  69  62  62  68  70  70  67  68  75  93  93  92  94  97 102 103  97  91  80  74  62  55  46  42  43  42  39  35  37  36  27  54  69 101 178 170 172 174 173 174 173 173 173 173 173 173 174 174 173 173 174
 249 245 249 195  65  35   9  19  16  15  13  13  14   7  37 127 101  85  69  62  52  37  22  20  18  19  21  21  21  22  26  31  36  40  44  46  53  54  54  59  59  59  50  49  48  54  61  60  67  69  73  81  83  82  80  77  78  83  81  73  67  61  53  41  39  38  38  35  34  33  32  37  70  81 118 168 169 170 171 170 170 170 170 169 170 170 171 170 170 171 172 173
 245 244 247 117  23  21  15  15  14  13  13  13  12   8  49 123 106  89  63  62  55  48  19  21  18  18  18  20  21  21  24  28  32  34  36  42  46  46  49  50  48  46  46  43  46  48  46  52  57  63  61  67  73  75  73  66  65  65  78  60  62  54  47  41  39  37  36  33  29  28  24  52  84  79 132 166 165 167 166 168 168 170 168 171 169 172 167 171 168 166 167 170
 244 247 165  41  34  20  16  13  13  14  11  11  11   6  73 122 107  84  65  62  56  55  31  25  20  20  20  20  21  21  23  26  28  31  31  34  39  39  41  42  41  43  42  40  41  43  46  46  48  52  52  47  51  51  59  58  59  63  63  60  58  50  46  41  38  38  34  28  26  23  42  68  82  99 111 168 177 157 157 128 136 116 113 111 111  98  88  79  75  67  61  55
 244 234  95  32  33  18  15  14  13  12  11  10  11   4  95 121 110  92  72  64  58  56  40  28  24  19  17  18  18  19  22  26  26  27  27  28  32  32  33  35  33  35  37  37  36  37  41  42  44  46  45  44  46  49  49  49  47  46  51  53  54  51  43  37  35  33  31  27  22  37  51  75  80 111  50  19  85 187 194 159 131 123 124 126 130 132 135 136 138 146 143 142
 246 158  54  29  27  17  15  15  12  11  10   9  11   6 124 118 111  94  80  68  58  52  43  37  22  22  19  16  16  18  22  24  23  25  25  26  26  26  25  27  26  27  30  32  30  29  33  37  39  40  40  39  38  37  40  41  40  41  43  45  48  46  40  35  34  30  27  26  35  49  63  76  88 115  28   9   7  13  39  91 169 199 180 160 148 146 145 146 146 146 146 145
 235 131  38  38  14  16  15  14  12  11  10  11   6  18 136 115 113  97  81  68  59  52  44  39  29  24  18  15  15  18  20  22  23  22  21  21  22  22  20  20  20  21  24  25  25  25  26  30  31  34  37  36  33  32  33  34  35  37  38  39  38  32  33  34  31  28  27  26  50  61  71  81  90 118  17  15  14  10   6   9  25  79 149 169 168 152 136 148 148 149 149 150
 155 113  62  33  11  16  15  14  12  11  13   8   7  98 120 118 115  97  85  66  61  54  47  39  34  28  22  17  15  18  20  20  22  22  19  20  20  20  19  19  19  18  19  21  22  23  23  25  25  25  32  33  30  28  28  28  30  31  32  33  34  32  31  31  31  25  34  38  56  64  82  88  96 124  10  14  12  13  15  17  19   7  14  51 125 180 207 159 150 144 153 152
 137 118  56  27  18  15  14  13  11  10   9  14 132 138 124 123 119 107  87  68  62  56  48  41  37  31  26  20  17  17  18  19  19  20  20  19  19  18  19  19  18  16  16  18  19  21  23  25  24  24  26  27  26  25  25  25  26  27  28  28  29  31  31  30  30  21  48  55  65  71  81  90 102 125  10  13  12  12  12  14  17  19  21  13  12  62 167 205 178 165 152 153
