P2
92 112
255
 245 245 245 243 243 244 244 243 243 243 243 243 241 241 242 242 241 238 241 230 126  56  76  57  52  46  46  47  50  50  47  47  49  48  44  42  41  40  42  43  42  37  29  28  30  32  34  39  42  47  47  42  41  52  46  28  21  25  29  31  36  39  44  49  50  50  45  41  41  44  45  44  44  57  49 117 145 155 196 236 232 238 238 238 240 241 241 241 241 242 241 241
 243 245 244 243 243 243 242 241 241 242 241 241 241 241 241 238 239 239 241 133  74  88  91  49  41  44  44  46  48  52  51  50  46  42  43  41  38  37  38  36  32  32  25  23  27  29  31  35  40  39  33  39  34  23  24  29  29  31  33  33  38  40  40  42  47  48  43  35  40  44  49  46  46  51  46  35  63  87 165 225 232 236 238 239 241 242 241 241 241 242 241 241
 242 242 242 242 242 242 241 241 241 241 241 241 241 240 238 238 244 238 156  71  87  99  74  49  47  44  44  45  48  52  53  52  46  48  47  42  38  35  33  31  28  27  23  23  23  26  28  31  31  29  29  27  23  22  23  25  27  29  34  39  38  38  42  42  40  40  42  41  40  42  48  49  48  50  50  43  45  30 145 171 237 236 239 240 241 242 242 241 241 241 243 242
 242 241 241 242 241 241 240 240 240 238 238 238 237 236 234 234 240 135  50  88  96 101  44  54  51  48  47  49  52  53  51  58  54  55  51  43  38  35  33  31  28  25  23  22  22  24  27  28  27  25  24  23  20  18  19  20  21  22  22  27  32  31  24  24  34  40  47  55  44  42  47  51  50  50  50  47  49  33  62 159 233 238 239 241 241 242 242 241 241 244 243 243
 242 241 240 239 238 238 238 237 236 239 233 233 232 234 224 222 127  82  76  90  86  75  51  51  53  54  55  57  61  65  68  81  88  67  51  47  42  39  36  33  30  26  23  22  24  26  26  25  24  22  21  20  17  17  18  18  18  17  16  16  25  28  28  26  20  17  15  12  31  38  41  46  47  46  43  39  37  39  37 115 222 239 240 240 242 242 242 241 241 243 243 244
 238 238 237 237 238 236 232 230 226 222 220 216 217 216 217 118  53  59  71  86  75  41  50  73  72  50  54  64  76  76  82  87  84  62  56  51  48  46  39  33  31  29  26  27  28  28  26  23  22  21  21  20  20  19  19  19  18  15  15  15  17  23  29  29  27  25  23  24  26  30  37  39  41  43  43  40  40  46  47  16 148 243 241 241 241 242 241 243 243 243 243 243
 233 231 230 224 216 215 218 217 217 217 218 214 202 197 109  44  81  75  70  76  74  44  82  91  72  73  82  94  92  93  87  84  63  75  70  62  54  47  42  37  36  34  30  27  28  28  26  27  27  26  25  25  24  24  22  21  19  18  16  15  15  19  26  31  30  25  23  24  26  29  32  36  34  59  56  38  42  45  39  58  24 209 246 241 241 242 243 243 243 243 243 244
 214 216 220 222 220 220 210 198 182 162 111  97 109  80  51  72  78  73  74  74  55  73 102 123 112 113 132 106 114  96 109 119 120  95 100  90  67  59  45  35  28  21  25  29  33  33  27  34  33  33  31  32  30  27  27  27  23  22  18  18  16  17  21  28  31  26  23  22  22  25  29  35  41  47  55  44  41  43  41  42  99 101 244 242 242 243 243 243 243 243 243 244
 207 194 177 154 140 114  99 100  99 146 160 201 173  24  81  90  59  74  75  80  71 102 134 137 152 144 139 142 137 148 148 150 143 134 128 120 103  90  70  73  65  66  56  49  45  41  45  47  49  47  43  36  41  43  39  35  33  27  21  17  19  20  22  25  28  27  24  22  22  24  27  32  38  40  44  45  44  44  43  14  58 126 196 244 241 243 243 243 244 243 243 245
  95  92  85 113 146 189 221 243 249 249 244 247  69  59  61  45  62  70  54  70  66 113 152 162 151 164 167 176 182 175 177 174 166 155 151 145 131 114 108 101  96  90  74  74  67  68  66  70  56  42  51  57  52  47  47  45  50  48  49  48  45  39  31  28  28  29  24  23  23  22  25  28  32  32  38  40  43  46  46  46  39  38 206 235 240 243 243 243 244 245 245 245
 206 225 238 245 244 245 242 240 237 239 246 134  34  52  59  61  62  60  51  59  72 138 152 159 187 187 189 190 187 184 185 187 183 174 169 167 146 141 127 121 116 115 112 100 103 100 109  99  94  99 103  99  92  92  80  77  78  81  81  80  71  55  43  29  30  28  26  24  22  23  27  31  32  33  35  34  38  39  46  56  51  17 186 242 240 243 243 243 244 245 245 245
 243 240 238 240 239 238 238 238 238 245 213  35  34  48  51  54  57  49  49  52  83 160 179 187 189 190 191 190 189 187 185 183 183 178 174 168 160 150 140 137 132 128 125 128 120 121 121 119 120 121 114 112 122 113 113 112 122 118 101  99  95  76  60  50  27  28  28  28  27  29  32  38  40  39  40  38  30  31  26  35  44  30  62 248 245 243 243 243 244 245 245 245
 241 239 240 241 241 241 241 241 239 244  85  42  45  45  45  48  48  46  51  57  81 171 190 187 188 190 190 189 189 189 185 182 180 178 174 170 164 157 150 144 142 136 135 134 131 132 132 130 135 134 130 132 132 134 129 136 129 127 127 121 103  97  78  60  28  31  31  35  31  30  40  39  40  47  36  31  30  30  29  32  42  43  41 136 246 241 243 243 244 245 245 245
 241 240 242 241 241 241 241 241 245 209  27  41  46  44  42  41  42  39  59  60  97 191 189 188 189 188 187 185 185 185 183 180 178 176 174 170 166 163 151 149 146 143 143 139 138 135 138 137 135 143 142 143 140 139 143 143 141 139 134 134 131 116 108  61  49  33  33  44  56  63  43  52  79 101 105  74  53  28  30  29  35  43  51  43 235 246 243 243 245 245 245 245
 241 242 242 242 242 241 241 241 250 132  23  47  48  47  41  39  41  48  72  67 134 183 188 191 191 187 183 180 178 176 178 175 174 172 172 172 168 164 160 149 148 146 143 142 142 141 141 142 142 144 145 145 146 146 146 146 144 145 142 141 141 138 127 112  86  38  42  62  71  58 133 145 144 150 141 112  80  47  29  30  33  38  55  37 128 249 243 245 245 245 245 245
 242 242 241 243 241 241 241 242 249  52  32  51  48  45  40  38  43  56  67  95 160 173 185 191 192 186 174 171 170 169 168 163 164 164 167 165 164 160 155 151 148 147 143 143 142 142 143 145 146 144 145 145 146 146 147 148 148 149 146 146 144 144 143 133 124  91  57  26  79 148 158 159 156 157 161 137 107  70  41  35  32  34  44  50  20 250 245 244 244 245 245 245
 241 242 243 243 243 242 242 247 212  30  36  48  46  40  34  38  41  61  64 129 173 178 185 188 187 180 170 166 162 159 157 159 157 158 157 157 158 156 152 148 146 142 141 138 138 139 141 143 143 143 144 144 144 144 144 146 146 147 148 147 147 147 150 150 151 146 136 146 150 159 160 160 160 157 157 147 128  96  36  38  32  25  40  44  17 175 250 243 244 245 245 245
 241 243 244 244 243 243 242 250 133  29  41  44  37  34  33  37  47  45 106 153 182 182 185 185 183 171 163 159 150 150 145 144 145 147 147 151 155 149 145 143 139 138 137 139 138 138 141 141 141 142 142 143 143 142 142 142 143 145 146 147 148 149 149 150 150 157 162 160 157 159 161 162 161 160 158 156 141 108  44  36  32  28  26  47  17  78 250 244 245 245 245 245
 244 243 243 243 243 241 243 249  70  27  44  40  34  32  35  40  45  79 142 172 186 184 183 180 177 166 160 155 147 142 139 140 138 138 141 134 131 129 132 133 134 134 135 136 136 136 140 141 141 141 142 143 143 142 142 141 142 143 144 145 146 149 150 150 151 153 153 156 158 158 161 162 161 161 160 155 151  98  82  40  31  28  22  44  40  39 250 244 244 245 245 245
 243 244 243 243 243 243 246 231  31  36  40  39  31  32  36  45  56 114 162 190 183 182 180 176 173 165 158 150 142 137 134 133 133 131 127 124 124 122 122 125 128 132 133 133 132 133 135 138 138 140 142 143 142 142 141 141 141 139 142 143 144 146 147 149 150 152 151 152 153 155 157 159 159 160 159 157 136 122 109  52  26  29  28  34  48  18 233 246 244 245 245 245
 243 243 243 243 243 243 248 180  15  41  36  35  33  31  39  40  83 141 181 185 182 178 176 173 170 161 154 148 140 137 132 128 126 126 123 122 120 120 121 122 124 127 129 131 132 132 134 134 136 139 141 143 142 142 141 140 140 140 142 142 143 143 145 146 148 148 148 149 152 154 156 157 159 160 159 161 129 137 142  66  38  31  31  34  47  30 153 249 244 245 245 245
 243 243 244 244 243 244 249 125  18  31  32  33  34  36  44  43 107 167 184 183 181 176 174 169 164 154 152 147 143 138 135 131 127 126 123 119 118 118 119 121 125 126 127 130 130 132 133 134 134 136 138 139 141 140 139 138 140 137 137 138 141 142 143 144 144 146 147 147 150 152 153 156 158 159 159 162 138 135 138 103  49  39  32  36  42  40  54 248 243 245 245 245
 248 248 243 243 243 243 243  70  37  25  30  33  34  35  48  60 126 172 182 182 179 176 170 164 159 153 149 147 145 142 139 136 131 128 124 120 119 118 119 121 124 125 127 128 130 133 133 134 134 135 135 136 136 135 137 138 138 138 134 134 138 140 142 142 143 143 145 147 149 150 153 155 156 158 158 159 156 140 120 126  78  41  39  35  37  24  25 245 244 243 244 244
 111 204 250 247 239 241 230  25  35  28  27  30  34  35  44  83 143 167 180 179 177 172 165 157 153 150 148 148 146 144 143 139 135 132 126 125 123 121 121 122 123 125 126 127 130 130 133 135 134 135 135 134 133 133 135 136 137 135 134 135 134 138 139 140 140 141 143 144 147 149 150 152 154 155 157 158 157 155 148 154 106  58  39  38  38  27  17 233 244 238 237 238
  84  81  99 216 248 246 215  18  31  27  25  29  35  43  54  87 151 165 176 176 173 171 159 155 150 147 147 146 147 147 147 144 141 134 131 130 127 129 125 127 127 126 127 128 129 130 134 134 137 134 134 135 133 134 134 135 135 133 134 135 137 138 138 138 139 140 139 141 143 145 149 151 152 152 154 156 156 156 155 160 146  99  42  41  39  36  16 200 233 234 234 233
 117 115  95  84 140 213 167  19  31  27  27  30  37  39  59  97 154 162 171 172 169 164 158 153 148 144 143 144 146 148 150 149 145 139 138 141 138 137 136 134 133 133 132 132 132 133 135 134 135 135 136 137 135 134 134 135 134 132 132 134 137 138 138 138 139 139 138 138 141 142 144 148 149 150 152 154 156 158 156 154 147 130  44  38  40  40  14 165 238 232 234 233
 119 117 117 113  91  81  76  18  28  28  28  32  38  41  60 108 146 164 168 167 167 162 156 151 146 144 145 146 146 148 150 151 149 148 154 151 151 147 143 144 142 142 140 135 133 134 135 135 135 136 137 135 135 136 135 135 135 135 136 135 137 138 140 140 141 142 141 141 142 143 145 147 147 150 151 152 155 156 157 153 145 138  62  30  39  40  13 120 232 220 215 220
 119 120 119 118 117 105  95  15  31  28  30  33  38  38  76 116 154 165 168 167 163 159 154 148 144 144 144 147 148 150 151 153 155 158 161 159 157 159 159 153 150 146 143 141 137 136 136 137 136 135 137 136 136 135 137 139 139 138 137 138 139 140 141 142 143 143 144 143 143 144 144 145 146 148 149 151 153 154 154 150 140 144  78  38  36  35  32  35 240 221 233 236
 119 121 121 120 119 121 104  24  35  27  30  34  37  44  83 130 158 165 167 166 162 157 151 144 143 143 143 148 152 153 155 158 159 160 161 164 164 163 161 161 157 150 142 141 138 138 138 137 138 139 135 137 136 135 138 139 141 141 141 141 142 142 142 143 143 145 145 145 143 142 142 143 144 147 148 150 151 153 152 143 138 134 111  42  30  30  41  14 244 241 239 241
 119 119 119 120 119 118 122  34  24  29  31  36  40  43  89 141 163 164 164 162 158 153 148 146 145 146 148 151 155 157 161 162 162 163 163 164 165 165 162 160 157 152 146 143 141 140 138 137 137 138 135 135 137 138 140 141 142 143 143 144 144 144 143 144 144 144 145 143 142 142 142 143 143 146 147 147 150 151 150 145 136 125 123  42  13  29  32  13 160 241 238 238
 119 118 119 120 119 118 119  50  28  31  32  37  41  29 109 150 167 164 162 159 156 152 150 149 150 152 155 156 159 164 165 166 164 163 163 162 161 162 160 157 157 151 147 143 143 142 138 137 137 138 138 138 138 140 142 144 143 143 146 146 148 148 147 147 146 146 144 143 142 142 138 141 142 145 146 146 148 151 150 145 122 126 115  54  25  28  28  27  70 250 236 238
 117 117 118 119 118 118 123  42  35  32  33  36  38  42 129 167 167 164 162 158 155 153 153 153 156 159 162 163 164 165 166 165 163 160 159 156 158 150 152 150 146 145 144 143 144 142 139 138 138 138 138 138 138 140 142 144 143 143 143 146 148 148 149 149 148 147 145 144 142 140 138 140 142 144 146 147 148 150 149 145 120 116 105  54  32  23  25  42  34 247 234 234
 112 115 116 115 116 116 121  42  30  31  34  37  34  55 157 165 165 163 160 155 154 156 159 167 167 174 175 169 169 166 164 160 158 156 150 146 140 147 134 133 135 137 139 141 141 139 138 138 135 137 138 138 139 138 142 141 143 142 143 145 145 147 147 149 150 148 147 146 144 141 139 140 141 143 145 146 147 148 147 145 122 103  95  50  36  25  21  37  17 236 235 235
 110 112 115 115 115 116 119  48  27  32  33  37  27  75 166 162 163 161 156 153 155 157 169 169 172 175 178 176 174 169 161 156 154 146 142 132 127 118 120 124 126 129 136 137 138 136 134 132 132 134 138 139 140 138 139 138 138 141 143 143 143 143 147 149 150 150 150 149 147 144 142 141 141 143 143 144 145 146 147 147 131  87  79  55  22  26  27  34  18 212 240 235
 110 110 111 115 114 115 122  50  32  34  32  36  20 107 163 163 162 159 155 154 153 164 172 173 172 172 161 156 150 143 137 135 131 131 130 130 120 109 124 116 121 122 128 131 134 132 130 129 130 131 134 135 138 138 135 138 138 140 140 140 139 141 142 148 148 147 150 151 149 146 143 143 142 143 143 143 144 145 146 146 143  72  63  50  27  27  27  32  17 207 242 239
 104 108 111 111 112 111 115  41  39  36  32  36  19 121 173 166 165 159 155 155 160 172 183 160 140 126 119 115 107  98  94  94  93  93  85  91  97 103  96 102 106 114 120 121 122 126 126 124 127 127 129 131 131 132 132 131 131 133 136 137 135 135 137 141 144 146 148 149 150 148 145 144 142 143 143 143 144 145 145 143 145  95  43  44  35  28  27  30  17 210 247 242
  98 101 105 108 109 110 107  55  43  38  35  36  17 143 173 168 164 158 155 157 163 169 164 119  92  80  80  72  61  67  59  39  38  35  45  53  65  71  77  87  95 104 111 114 119 120 120 118 120 122 125 126 126 126 127 125 124 127 131 133 129 133 136 134 140 142 144 146 146 146 144 144 142 143 143 144 143 143 144 144 143 114  39  42  34  29  26  29  17 231 246 243
  93  96 100 103 105 106 109  62  49  38  35  31  24 157 180 170 163 157 153 155 159 155 118  83  67  61  60  56  51  39  40  41  39  39  39  38  47  59  70  73  86  92 104 112 111 114 114 111 116 117 119 120 122 121 118 116 117 121 121 122 124 115 122 120 120 132 133 137 142 142 140 144 144 143 143 141 141 141 141 142 147 122  50  33  31  26  25  26  32 248 244 243
  87  92  94  97  98  99 108  72  50  41  38  37  33 169 178 170 158 155 153 144 113  97  87  78  66  56  52  44  37  38  29  32  29  33  32  37  40  48  61  66  75  85  95 100 105 109 106 106 110 113 113 115 115 109 109 102 101  97  92  87  71  60  61  68  77  93 106 115 111 110 127 145 142 146 144 142 141 140 140 139 141 136  44  17  28  25  27   9  68 250 243 244
  85  87  90  92  95  97 100  90  38  41  40  36  42 179 176 168 158 153 152 127 102 106  85  53  58  53  48  44  42  38  38  35  32  32  33  34  40  45  52  59  68  79  89  94  99 103 102 103 105 106 107 104 104 103  98  92  83  81  73  48  53  46  42  38  47  54  72  74  74  79  87 124 147 145 144 143 143 141 139 139 142 133  36  17  27  26  27  11 200 250 244 244
  83  84  87  89  91  93  87  79  19  39  39  27  52 193 175 165 156 150 146 129 105  87  74  65  56  54  52  50  48  47  43  36  32  35  38  40  43  47  53  58  65  75  85  91  96  97  98  99  99  99 101 100  94  92  93  76  76  71  54  51  37  35  38  42  46  39  57  67  70  76  66  81 112 145 142 142 143 142 141 141 144 118  41  22  26  29  17  19 250 244 244 245
  78  81  83  86  87  91  87 136  58  17  41  23  57 196 171 163 157 148 135 116 106  82  75  69  65  62  61  60  60  59  64  56  56  53  51  49  51  53  57  61  69  74  80  88  93  96  97  98  96  98  99  98  93  88  81  72  70  61  48  40  40  39  38  39  39  44  42  57  65  73  76  75  94 116 134 140 142 143 143 142 148 114  32  27  27  28  10 130 249 243 245 245
  77  78  80  80  71 142 217 214 159  64  35  21  76 192 172 161 150 137 122 107  89  82  75  72  70  69  74  84  89  93  92  88  82  69  62  57  55  55  56  59  65  72  78  87  93  96 100 101 100 100 100  98  93  83  77  70  66  59  49  44  43  43  41  41  41  44  48  54  62  69  73  75  73  99 125 137 141 143 144 143 143 102  29  28  28  27  16 237 247 243 245 245
  73  73  76  74  69 201 170 162 162  97  34  18  98 186 171 157 142 126 114  96  87  80  78  77  78  82  91  99 101  94  85  87  88  79  72  64  60  58  57  56  62  70  78  85  94 100 102 105 105 106 105 101  94  86  77  76  70  65  58  55  54  55  52  52  47  45  49  54  61  67  71  74  74  90 111 140 140 143 145 144 149  91  24  32  30  16  49 249 243 245 245 245
  71  72  74  63 119 132  87 115 137 101  38  17 109 189 168 151 136 116  95  92  87  81  81  83  95  86  66  53  56  63  75  73  66  57  47  56  58  58  57  56  53  62  74  83  96 103 107 109 113 113 108 102  95  88  81  75  70  66  60  58  56  59  61  65  67  68  65  61  63  70  75  76  86  87 105 133 141 142 146 145 154  63  23  33  32  12 178 248 244 245 245 245
  69  69  71  59 144  97  82  84 113 105  39  21 119 187 168 150 128 106  96  91  85  82  81  81  67  54  70  69  40  29  29  36  37  48  61  47  47  53  56  56  56  51  72  77 100 109 115 115 118 124 124 109  98  85  79  73  70  61  56  54  55  57  48  53  63  68  69  76  74  82  81  82  84  88  99 129 139 142 146 148 153  39  27  37  36  16 233 245 243 243 243 244
  66  67  68  47 133  85  84  66 112 113  58  14 143 183 170 151 120  98  94  88  83  82  83  76  67  79  53  37  35  31  16  15  16  16  14  43  41  37  45  51  54  54  64  84 104 116 120 125 127 127 122 108  91  83  75  73  65  55  50  52  57  65  75  81  80  74  66  74  77  79  83  85  87  87  95 122 136 141 147 151 146  23  20  32  28  75 239 242 243 243 243 244
  63  64  66  51 142  88  86  75 113 118  56  18 149 180 166 152 113 104  92  86  80  76  73  59  57  37  33  63  72  38  27  27  25  26  14  40  35  41  41  44  50  54  56  86 104 119 124 128 130 129 121 108  87  77  71  61  45  48  49  53  59  74  80  93  86  86  88  76  71  78  82  86  90  91  96 114 131 140 143 156 138  30  21  23  12 196 250 243 244 245 245 245
  61  61  64  49 145  80  80 101 121 115  74  19 162 174 164 148 120 105  91  83  78  71  62  57  33  30  59  89  91  46  26  25  26  30  23  86  63  33  41  44  49  54  61  79 103 119 126 129 131 136 118 103  88  71  65  51  49  46  45  46  42  37  39  50  74  88  94 103  75  73  81  87  92  96 101 117 130 137 139 159 133  23  25  12  48 250 244 244 245 245 245 245
  58  59  59  47 153  77  74 124 123 110  77  21 170 174 162 150 126 105  89  84  78  70  63  50  46  57  58  74  81  80  40  31  29  27  66  84  64  47  43  46  51  57  63  69 104 124 128 130 133 134 112  98  82  70  58  51  46  46  40  25  16  17  20  13  10  27  53  96 105  82  82  88  95 102 110 119 129 136 143 160 117  14  24  14 227 248 245 245 245 245 245 245
  55  57  58  50 153  93  76 140 118 109  80  21 168 169 160 147 127 113  92  90  82  76  70  83  85  71  58  62  76  77  66  45  40  62  77  70  58  51  49  47  53  58  67  70 110 123 129 132 133 137 104  98  83  71  55  50  48  44  68  18  29  26  24  35  25  74  44  24  81  90  86  90  94 104 112 118 129 135 145 164  98  20  24  58 247 245 244 245 245 245 245 245
  54  56  58  48 129  92  91 145 112 109  75  20 174 164 158 147 125 118 107  98  88  85  83  85  85  82  66  67  68  66  67  68  65  62  61  60  53  52  52  54  55  60  72  80 112 127 132 133 134 134 106 102  83  73  51  50  50  63  85  38  32  28  33  37  35 130 103  36  27  76  85  90  96 106 114 120 130 138 144 170  86  24  20 109 188 242 249 244 245 245 245 245
  53  54  57  38 134  89 122 127  87  77  65  25 173 164 158 149 133 124 116 110 106  88  88  86  84  79  70  65  63  57  55  55  53  53  53  53  50  51  52  54  59  68  74  90 120 133 136 137 136 135 105 103  87  70  56  55  55  61  77  76  31  33  36  41  79 126 107  51  54  47  81  91  97 107 117 124 134 139 144 171  68  29  27 112 142 150 249 245 245 245 245 245
  53  53  55  44 125  77 154 110  75  65  64  42 167 162 157 149 144 138 136 131 118 101  95  90  85  77  67  62  58  55  55  52  50  49  47  49  51  53  57  62  68  80  79 108 133 144 143 142 142 131 114 100  85  73  66  60  59  61  67  74  71  46  49  70 116 112  93  83  81  81  67  90 100 111 120 129 135 144 148 171  52  41  70 121 105  92 199 247 245 245 245 245
  53  53  54  41 115  84 161 105  57  63  59  61 167 161 160 152 150 152 148 148 131 114 103  96  86  81  66  61  54  50  47  47  48  49  51  53  57  59  60  71  88  88  84 131 156 156 150 151 149 140 117 112  94  71  68  61  59  60  61  63  64  78  83  88  89  83  87  86  83  93  92  97 106 117 124 131 137 143 147 166  29  68 122 113  77  59 140 249 245 245 245 245
  52  53  53  50  87 115 163  89  67  66  76  57 167 164 162 158 157 163 168 173 166 163 124  99  82  79  69  62  56  49  44  47  50  52  55  59  60  65  73  89  92  84 116 143 157 162 163 156 152 148 125 114 111  88  72  62  58  56  56  57  61  65  69  74  77  81  84  88  97 102 103 105 111 121 125 133 138 143 146 160  20 101 123  94  83  58  98 249 245 245 245 245
  50  50  52  55  43 134 163 101  62  79  77  66 167 164 163 161 165 173 181 181 179 164 154 131 117 104  95  86  79  71  70  65  62  62  62  61  65  77  84  94  94  86 125 155 157 162 162 159 157 149 135 118 113 109  80  72  65  60  56  56  58  62  65  72  77  79  84  91  96 103 106 115 118 124 128 135 139 143 145 153  18 119 117  87  85  57 107 249 245 245 245 245
  50  50  51  52  22 151 167 102  69  91  68  83 165 162 166 167 174 176 178 179 178 181 181 159 136 115  99  95  89  83  80  79  75  68  62  71  89  91 101  98 100  99 130 161 161 161 160 157 153 148 135 115 116 114  93  84  73  68  64  57  52  61  64  70  76  81  86  99 103 107 113 116 123 128 131 135 140 143 145 141  19 135 116  79  84  65 118 249 245 245 245 245
  50  50  51  51  22 153 159 114  70  90  61 101 167 164 167 172 174 176 176 176 176 176 177 180 161 144 112 109  97  92  89  82  86  85  91  98  98 101 101 103 106 110 138 155 158 159 155 153 151 144 133 131 120 119 113  95  83  75  75  71  70  59  63  66  77  85  91 104 109 113 116 121 126 131 134 138 141 144 144 126  25 137 117  91  87  63 173 247 245 245 245 245
  49  49  50  51  24 141 150 135 101  86  59 103 167 169 172 174 173 171 170 171 173 173 171 169 164 152 137 116 112 106  95 101 105 110 107 105 103 104 106 107 113 130 147 152 157 158 156 152 148 145 140 130 123 122 119 106 100  88  80  84  84  81  84  84  89  93 100 109 111 116 126 128 131 136 135 138 141 143 146 110  35 144 110  94  85  68 236 246 244 245 245 245
  49  49  50  51  27 124 148 133 191 136  39 100 171 173 175 175 172 167 165 164 160 157 164 163 153 152 147 138 130 125 122 121 109 116 113 114 109 110 112 112 131 146 146 157 162 162 160 155 149 147 144 135 128 127 125 123 113 110 104  94  95  94  97  99 101 104 109 115 121 130 134 134 138 140 141 142 142 143 151  91  39 147 110  92  80  77 250 245 245 245 245 245
  49  49  49  49  23 122 157 129 218 163  32 102 167 169 173 174 171 165 164 164 161 158 162 163 172 172 165 161 148 136 129 125 124 120 118 116 114 115 116 135 151 165 172 175 173 169 162 159 153 151 145 140 133 129 127 124 122 117 113 105  97  98 106 108 110 117 119 122 131 136 141 143 144 143 140 142 142 143 149  77  39 150 114  90  83 112 250 244 245 245 245 245
  50  50  50  49  28 128 165 166 206 141  52 111 156 171 173 171 165 165 165 166 173 181 185 184 180 176 171 167 154 145 135 128 125 119 115 113 114 117 128 148 167 172 175 176 175 173 167 162 158 152 150 144 136 133 131 128 128 128 124 118 114 116 113 113 113 124 128 131 138 141 143 145 147 145 141 141 142 143 163  60  40 140 117  88  94 171 250 245 245 245 245 245
  49  49  49  49  27 113 191 194 174 121  65 109 159 170 172 171 165 164 167 176 182 186 184 181 178 175 170 168 151 147 139 130 124 119 109 106 107 119 134 152 171 172 174 176 176 176 176 165 161 157 153 149 141 135 131 128 127 129 130 126 126 125 122 125 127 130 135 143 144 145 145 144 146 145 135 141 143 143 158  56  44 137 120  83  82 243 244 245 245 245 245 245
  49  48  49  50  27  88 211 214 177 109  73  90 156 172 172 168 162 162 170 175 179 180 177 174 170 167 163 165 151 148 141 129 117 109 100  96  89 126 143 154 168 171 173 175 175 174 170 166 162 158 153 149 144 136 131 127 128 129 131 132 134 134 134 132 132 134 136 140 142 143 143 143 145 144 140 142 143 142 152  49  49 139 117  90 196 249 243 245 245 245 245 245
  47  47  47  49  19 140 229 208 173 103  66  89 151 168 167 162 161 163 168 173 174 172 167 164 162 157 154 148 146 136 125 118 108  97  87  75  98 139 157 164 168 171 173 173 174 170 166 164 161 159 154 148 137 134 127 124 127 129 132 135 138 139 139 139 140 140 140 140 142 143 143 143 143 144 143 142 144 143 146  42  39 137 119 112 248 244 245 245 245 245 245 245
  48  48  47  49  14 179 216 191 154  78  80  98 153 156 154 155 157 159 166 169 168 167 163 154 150 144 134 129 124 118 109 107  92  87  75  54 141 164 174 169 168 171 173 170 170 170 164 161 160 158 155 149 139 132 122 119 112 121 129 132 137 141 142 142 144 144 147 145 143 143 145 142 143 144 142 142 140 142 129  37  41 122 135 230 245 244 245 245 245 245 245 245
  45  47  47  48  15 168 201 156 148  83  86 102 120 149 150 146 150 153 158 161 157 150 144 141 136 129 123 119 111 100 101  86  87  77  57  72 170 166 166 168 168 167 164 160 156 156 160 156 157 154 151 147 142 135 122 106 111 116 125 130 135 140 142 144 147 148 149 150 150 149 147 145 144 143 142 139 138 140 123  35  55 123 138 249 245 245 245 245 245 245 245 245
  46  46  46  46  28 128 169 146 145 102  88  95 131 147 142 139 145 147 149 146 141 136 128 110 118 117 114 110 108  96  93  86  78  62  50 105 163 160 159 162 166 169 163 149 142 141 142 145 146 148 149 147 144 142 132  94 105 110 121 127 134 138 141 144 146 149 150 152 153 152 150 146 145 143 142 141 137 140 103  23 106 136 186 249 244 245 245 245 245 245 245 245
  45  46  46  45  41  40 147 134 132  87  93 104 116 136 135 132 135 136 135 136 129 121 117 113 107 105 105  95  92  90  83  77  70  61  37 111 141 142 142 142 149 154 152 138 134 125 129 137 137 143 146 146 143 143 150  90  96 105 115 122 127 137 139 142 145 147 151 152 154 153 152 150 145 144 144 142 137 136  87  18 138 123 232 244 245 245 245 245 245 245 245 245
  45  44  44  45  46  14 112 119 118  75  92  82 112 130 122 115 116 124 123 111 114 114 104 101  95  98  96  92  88  84  79  70  64  60  45  98 117 117 117 116 121 128 125 125 120 116 116 120 134 134 138 138 137 143 147 115  78  95 108 115 123 125 138 139 140 146 151 152 152 151 150 149 145 143 141 141 134 128  70  18 160  85 249 244 245 245 245 245 245 245 245 245
  45  45  45  45  45  40  52  97 105  81  88  81 107 116 117 111 113 109 114 110 108 100 100  94  91  91  89  88  83  80  74  68  64  64  60  72  89  93  90  89  93  97 106 109 106 107 110 114 112 124 130 133 128 133 138 129  58  95 102 112 118 122 134 137 139 142 147 150 150 150 150 148 146 143 141 139 129 116  72  24 167 109 250 244 245 245 245 245 245 245 245 245
  45  45  45  45  46  46  42  39  68  80  82  73 109 114 107  97 100 106 108 105 102  98  94  89  87  86  86  83  80  75  69  67  66  69  70  68  69  72  54  54  71  86  93  92  95  97 103 108 115 115 107 104 109 118 126 128  65  88 102 109 115 122 130 133 136 140 143 144 148 149 150 147 145 143 139 129 118 109  58  39 170 134 250 245 245 245 245 245 245 245 245 245
  46  45  45  45  44  46  46  46  58  75  80  85  94  95 100  89  90  88  84  92  94  93  89  86  84  81  81  80  77  73  71  71  72  72  72  72  67  47  50  46  37  59  86  86  86  88  88  93  97  99  94  88  88 102 106 113  81  92 100 108 112 118 123 131 132 136 139 137 143 147 147 145 143 140 134 129 112  92  58  49 163 144 250 245 245 245 245 245 245 245 245 245
  45  44  44  44  45  45  45  46  56  70  79  81  84  86  85  69  74  81  80  82  85  88  81  81  80  80  77  77  74  72  72  72  72  73  74  72  66  54  51  50  50  38  69  74  76  79  84  87  90  93  64  31  47  75  98  97  98  96 100 104 110 114 120 127 129 133 137 138 142 144 144 144 142 138 132 121 102  83  59  56 152 139 250 245 245 245 245 245 245 245 245 245
  45  44  44  45  45  46  46  48  47  65  80  78  77  80  78  53  65  68  72  73  76  81  82  80  77  76  74  72  70  70  70  71  71  72  71  68  61  55  52  50  50  52  53  64  69  72  81  84  80  74  65  60  53  78  94 103 101  99  99 103 108 111 117 122 126 129 133 135 138 142 142 142 140 133 125 112  99  74  61  61 144 156 249 245 245 245 245 245 245 245 245 245
  45  45  45  44  44  43  44  45  35  69  79  81  73  72  71  58  61  61  62  64  74  77  79  78  77  75  71  69  67  65  62  61  66  68  69  62  54  51  46  45  44  46  49  52  59  60  63  71  71  72  71  69  73  87 104 106 105 100  98 101 105 106 112 117 121 125 130 132 134 136 137 138 135 130 119 106  93  58  59  74 121 225 247 245 245 245 245 245 245 245 245 245
  45  45  45  44  44  45  44  45  39  70  77  82  82  69  66  63  62  61  58  58  67  76  78  76  75  72  68  65  63  61  56  52  52  56  56  51  47  45  41  36  36  37  41  47  50  51  51  48  60  69  77  82  89  99 108 109 109 103 100  99 101 105 107 113 118 122 126 129 131 131 132 131 129 130 112 105  72  58  52  75 163 249 245 245 245 244 243 244 245 245 245 245
  45  44  44  44  44  43  43  43  44  59  71  77  76  67  65  61  60  58  51  52  56  75  74  74  73  70  64  57  53  49  42  36  41  47  46  43  41  40  36  32  31  29  36  41  43  41  40  40  51  65  74  82  90 104 107 109 106 101  98  97  98 102 107 112 114 118 120 123 126 127 123 124 120 123 111  86  72  61  23 136 245 250 250 250 249 243 241 236 232 231 225 221
  43  43  42  43  42  43  42  44  43  54  69  70  69  66  54  55  55  55  50  48  51  66  70  72  69  66  56  52  43  23  21  25  24  37  40  39  40  35  30  28  23  27  30  37  39  33  33  37  32  39  63  70  87 102 100 103 102  99  94  91  91  99 105 109 113 117 118 119 122 122 115 114 102  99  97  87  69  60  17 188 171 181 182 180 179 189 182 190 189 188 194 200
  43  43  43  43  42  43  44  45  47  56  65  65  64  60  52  51  53  53  51  48  47  64  66  69  67  61  51  49  31  18  20  21  28  36  36  39  38  35  30  29  28  27  29  36  36  29  32  35  38  37  57  60  76  86  94  94  95  89  85  86  84  82 107 109 110 114 115 115 114 113 110 105 106  87  81  83  74  58  21 189 196 198 199 200 200 201 200 200 200 200 201 191
  45  43  43  43  44  43  38  29  25  27  64  55  62  62  54  50  49  49  47  44  45  54  65  68  66  60  49  41  18  18  16  20  30  44  38  38  43  32  34  36  34  31  32  37  35  34  33  34  37  35  47  53  52  75  83  82  77  76  74  75  77  80  98 105 109 110 112 112 107 106  99 100  98  89  85  77  70  69  81 178 195 197 197 198 198 197 198 197 198 197 197 187
  44  44  44  45  39  18  16  33  51  68  82  57  61  59  57  51  47  43  42  40  39  50  60  64  66  62  50  35  24  21  21  22  33  47  49  51  52  52  50  52  43  33  33  38  36  39  38  38  37  39  43  47  53  59  68  70  57  59  66  72  69  72  90 107 105 107 107 108 102  93  94  96  93  89  84  71  56  55 127 184 195 195 195 196 197 196 197 196 196 196 197 187
  43  44  44  43  28 163 216 226 227 220 153  52  61  59  55  51  45  42  40  40  40  40  57  61  65  61  52  39  28  27  30  31  21  33  39  42  46  48  50  55  66  75  75  41  47  39  39  42  40  43  43  46  52  55  52  50  45  45  47  59  61  66  82  95 101 106 104 102  93  85  86  91  88  86  78  70  53  23 162 188 192 194 194 195 194 194 194 194 194 193 195 192
  45  45  46  21 122 205 199 197 194 198 174  60  48  55  54  51  45  41  39  39  39  40  54  61  64  63  60  46  38  32  40  45  49  43  36  36  36  36  41  45  53  58  69  72  70  63  61  55  55  53  51  48  54  53  50  35  24  27  32  41  52  60  75  95 100 101 101  91  87  83  80  78  79  77  63  56  49  24 181 191 188 189 191 190 190 189 190 191 189 186 188 184
  45  45  46  20 160 198 196 196 195 195 187  91  29  52  53  51  46  41  38  35  33  38  48  59  62  64  60  51  46  46  50  57  63  63  67  64  64  51  32  34  45  47  48  53  57  56  56  54  52  53  56  59  58  53  47  35  30  21  23  16  45  58  75  91  99  97  93  84  80  74  76  75  64  68  63  48  36  43 184 180 181 182 177 180 174 178 175 175 179 180 178 173
  46  45  47  18 172 202 196 195 193 192 197 119  32  47  47  46  44  40  36  33  31  35  48  57  63  64  60  54  52  52  55  61  69  79  80  80  72  71  77  70  54  52  51  52  43  43  35  34  37  36  46  44  44  45  39  45  39  29  28  16  46  57  75  93  96  96  86  72  58  67  70  69  55  59  62  45  25 102 185 177 180 180 180 180 180 180 181 182 181 181 181 180
  46  47  45  32 180 200 195 194 191 191 196 148  40  46  42  43  43  41  36  31  31  29  46  56  61  63  60  56  54  58  62  67  73  76  80  82  82  79  80  82  87  81  82  72  81  72  64  66  63  67  65  69  70  70  78  63  53  41  36  38  53  67  87  91  94  89  85  64  54  55  62  61  59  54  53  48  18 153 179 177 180 181 181 180 181 181 182 183 181 182 181 180
  45  46  45  41 183 193 193 193 188 187 184 175 106  35  41  39  40  38  34  30  32  35  42  51  59  61  61  57  56  60  65  71  75  78  78  79  79  79  80  80  82  86  88  93  92  92  95  89  90  89  89  94  92  90  88  83  66  53  48  52  57  73  86  90  90  84  77  60  53  52  54  55  54  51  49  34  50 172 179 179 181 180 181 182 182 181 180 180 180 180 180 181
  48  48  47  56 180 179 173 172 172 172 173 171 144  48  39  37  34  32  31  28  28  34  39  49  57  60  60  57  58  61  68  73  76  77  78  75  73  73  72  76  77  83  82  82  88  89  91  94  96  96  99 104 106  97  92  84  78  67  58  60  69  88  87  90  91  79  70  57  50  48  48  48  47  46  45  21 119 186 176 181 180 181 180 181 180 180 180 180 180 180 180 181
  48  51  50  57 160 163 168 170 171 170 171 170 155  75  37  33  30  26  26  26  25  29  37  48  53  57  57  56  56  60  68  73  75  78  75  73  69  64  60  63  66  70  70  72  76  84  90  92  90  95  97 101 100  98  95  92  86  77  69  68  75  84  88  89  84  72  62  54  48  46  46  44  41  40  34  35 162 181 176 179 179 180 180 180 180 180 180 179 179 180 180 180
  23  31  51  38 119 168 171 165 172 169 165 164 167 101  44  25  28  24  23  23  24  27  28  42  51  55  55  54  56  63  69  73  75  74  76  72  67  57  52  52  47  54  57  57  62  63  71  77  82  88  94  97 100 100  99  95  91  82  75  74  77  83  86  87  85  69  59  53  48  46  43  42  40  41  20 107 175 173 178 179 179 178 179 179 178 178 179 178 179 179 180 180
 150  63  35  27  18  22 145 164 192 206 210 194 162 116  62  29  26  24  23  22  23  27  29  43  48  51  53  54  55  62  69  74  76  76  75  73  68  59  52  46  44  39  42  46  41  43  52  57  73  83  89  96  99 101  99  98  92  86  82  79  80  84  85  85  81  68  58  54  50  46  44  44  42  44  22 137 180 177 177 178 178 178 178 178 178 176 177 177 178 178 179 180
 207 210 178 132 140 200 241 226 150  99 107 113 114 129  87  48  13  25  24  22  23  25  31  39  44  47  49  53  56  61  68  74  78  78  78  75  69  62  55  49  44  43  42  42  44  46  47  59  73  82  89  95  99 101  99  96  91  88  84  83  83  85  86  82  78  60  59  53  50  47  46  45  42  28  50 171 176 177 178 177 178 178 178 178 178 178 177 177 176 179 178 179
 182 181 228 250 242 200 127  87  35  17   9  11  25 149 102  65  20  28  25  23  23  25  29  35  40  42  45  49  53  58  64  73  80  80  79  79  76  63  57  51  41  43  43  41  44  48  57  65  77  85  91  96  98 100  98  96  89  85  82  82  83  83  82  77  70  59  49  44  43  42  40  42  39  18 138 178 175 175 177 177 176 177 177 176 175 176 176 175 176 178 178 178
 211 245 243 210 172  40  15  12  10  20  14  15  22 140 107  75  42  27  28  25  23  23  26  30  36  38  40  42  45  51  64  72  80  85  85  82  83  82  85  86  83  68  54  53  43  58  63  73  76  88  92  95  98  98  96  93  88  85  82  82  83  82  78  75  59  51  42  37  37  35  36  40  25 108 175 171 175 176 175 174 176 175 175 175 174 175 175 174 176 176 177 177
 248 249 201  81  17  33  12  15  16  14  13  15  23 140 110  80  57  39  28  24  22  20  22  26  30  30  31  35  39  47  65  70  80  86  89  88  91  94  91  87  81  81  77  79  89  91  97  90  88  91  93  96  97  98  97  93  87  83  81  78  79  79  72  61  50  42  30  30  30  30  31  30  26 164 170 172 173 173 173 173 174 174 174 174 174 173 174 174 173 175 175 175
 246 226 107  21  15  16  18  16  13  13  13  15  24 143 113  85  70  49  18  26  22  19  20  24  25  24  25  30  40  50  61  70  77  88  91  93  96  97  93  89  85  82  84  89  94 110 104 104 103  93  98 102 104 103  97  93  87  81  76  74  73  72  67  56  45  37  31  28  26  24  25  27  62 174 169 170 171 171 171 171 171 171 170 171 172 170 170 170 170 172 171 174
 245 119  59  27  16  19  19  15  13  13  14  16  23 146 117  90  74  59  20  25  21  19  21  22  22  23  24  25  42  50  57  71  80  86  89  90  93  95  92  89  89  87  87  89  92 102 111 116 109 106 109 110 109 109 102  89  82  77  71  69  69  67  59  52  45  38  31  26  26  27  21  66 135 170 166 167 170 170 170 170 172 172 168 170 165 166 171 168 167 167 167 162
 176  41  33  15  20  18  16  14  12  12  13  14  34 141 125  90  70  62  42  25  21  20  20  21  21  22  25  27  43  46  55  66  70  81  83  84  87  90  89  83  85  88  82  83  89  99 110 112 116 115 113 112 111 109 104  80  81  76  66  58  48  51  52  50  45  38  31  26  25  27  48  78 154 149 145 150 147 146 133 133 122 118 115 113 104  97  94  91  79  78  80  79
  62  39  30  21  17  15  14  13  12  12  12  10  43 143 117  97  73  63  56  22  23  19  18  19  19  22  25  31  36  45  50  54  58  66  75  80  72  73  73  77  84  81  76  77  83  95 109 110 112 112 111 111 109  98  97  70  68  69  60  55  50  46  45  44  43  38  32  28  22  50  59  90 162 144 106  78  88  94 110 117 124 120 125 129 139 136 139 139 144 146 145 143
  40  36  24  20  15  14  15  13  11  11  11   6  66 140 119  98  80  66  58  29  25  20  18  17  19  19  23  26  32  36  38  49  51  56  55  58  65  58  52  56  66  69  67  66  77  81  91 100 105 109 106 104  98  88  79  69  54  50  48  45  42  38  36  37  35  32  29  28  46  68  80  75  18  83 167 186 174 160 151 146 147 147 146 145 145 146 146 148 146 145 146 145
  28  39  14  18  17  16  14  12  12  11  11   6 119 142 118  99  82  70  57  41  30  23  19  19  19  19  21  27  29  31  35  40  45  46  49  53  52  52  47  47  47  56  60  59  66  75  81  83  79  74  88  91  84  79  75  65  50  46  40  35  30  34  30  29  28  28  30  35  65  77  87  55   8   8   9  22  76 169 190 172 154 149 148 148 148 148 148 148 148 149 148 148
  43  31  17  18  16  16  14  11  11  12   6   8 155 138 122 102  80  67  56  47  37  26  20  16  15  17  21  24  25  28  28  33  38  39  42  45  44  43  42  43  44  47  50  50  61  62  66  71  74  73  76  76  70  71  64  57  50  43  35  30  29  29  27  26  28  30  29  50  72  84 103  33   7  11   8   6   8  15  66 124 177 172 158 144 149 151 151 149 150 151 151 150
  51  11  18  18  17  15  14  12  12  10   5 109 149 140 123 106  78  66  57  48  38  30  22  17  15  17  20  22  23  23  23  27  29  32  35  36  36  38  38  38  40  41  42  41  49  57  54  57  44  59  55  52  60  62  53  49  44  37  33  29  28  28  24  22  23  29  42  59  74  82 109  25  13  12  12  13  15  17   8  12  25 114 213 199 163 141 143 157 154 153 155 155
  43  14  18  18  16  14  13  14  11   8 109 158 144 140 126 107  73  68  59  50  40  37  22  18  16  16  18  20  20  20  20  21  23  24  26  27  29  30  31  31  31  37  39  39  41  41  42  44  47  45  47  49  49  51  48  45  42  35  30  26  26  24  22  20  25  36  48  66  75  85 111  15  13  12  11  11  13  16  18  14   6  14  52 133 186 194 180 163 152 155 159 157
  39  21  19  18  16  18  14   6  10 154 180 149 146 144 134 109  79  68  61  53  43  36  26  21  18  17  16  18  19  19  19  19  19  18  20  18  20  22  24  24  23  27  31  34  34  34  29  35  32  35  38  38  33  39  39  39  38  31  27  26  24  23  22  19  29  52  57  72  79  88 112  11  12  11  11  11  11  13  15  17  18  12  10  10  31 139 221 214 169 136 103 102
  48  26  21  18  31  12   7  50 184 192 166 149 146 143 129 112  93  72  62  55  46  40  31  24  20  17  17  17  18  18  17  16  16  16  16  16  16  17  18  19  20  20  23  25  27  29  28  28  27  28  29  28  28  30  33  32  29  27  26  26  24  23  22  30  44  57  65  74  83  91 101   9  13  11  10  10  11  13  14  15  16  17  13  18  20  12  64 119 179 188 175 149
  83  35   7  31  51  26 122 200 201 183 163 154 146 141 131 115  98  74  62  55  47  40  34  26  20  20  18  16  16  15  15  15  15  15  15  15  14  13  13  15  16  17  17  18  20  23  23  23  22  23  23  23  23  24  25  26  26  25  27  26  24  15  40  44  50  59  69  76  86  98  90   6  13  11   9   9  11  12  13  15  15  15  16  17  17  16  10  34  44 113 175 209
 149  94  29  17  38  73 189 206 191 176 157 154 146 138 131 115  92  76  67  57  48  42  36  27  22  16  16  15  15  14  13  13  13  13  13  13  12  13  12  12  14  15  16  16  16  18  18  18  18  18  19  19  19  20  21  22  23  23  24  28  26  43  46  50  56  62  72  81  89  99  88   5  12  11   9   8   8  11  12  15  15  15  15  14  15  15  17   6  15  61 113 115
 108 127 166 123  20  24 146 199 189 168 154 152 144 137 131 116 100  81  71  58  51  43  36  29  24  20  17  15  14  13  14  13  13  13  12  11  11  11  11  13  14  16  16  16  15  15  15  14  14  15  14  14  15  16  20  23  25  26  27  30  37  45  49  54  59  62  74  84  94  95  81   4  10   9  10   9   8  10  12  15  16  15  16  17  15  14  15  16  15  19  37  77
 163 157 179 115  35  29  38 121 170 164 159 153 145 137 125 118 107  86  71  62  53  44  38  30  26  23  19  16  14  13  13  13  13  12  11  11  11  11  11  12  15  15  16  16  15  13  13  13  13  13  13  13  15  17  19  22  25  28  33  36  40  46  52  56  62  70  76  85  91  92  83   5  11   9   9   9   8   8  11  15  15  16  18  18  16  15  15  13  13   7   9  14
