P2
92 112
255
 245 245 245 245 245 245 245 244 244 245 245 244 244 245 243 243 243 242 241 241 245 232 158 119  58  60  42  49  48  57  52  35  50  53  50  48  45  43  37  46  48  49  42  34  39  32  34  41  45  50  53  53  48  43  78  58  40  26  10  16  20  43  50  55  55  48  39  42  41  40  43  39  41  56 129 189 237 241 231 234 236 236 238 237 237 238 238 238 240 240 240 241
 245 245 245 245 245 244 244 244 243 244 244 243 243 243 243 242 241 241 239 241 231 133  99  71  44  47  46  48  52  51  50  47  49  50  45  42  42  42  43  44  41  37  33  31  30  32  34  38  42  49  47  44  44  52  38  34  28  30  31  33  38  41  44  50  55  58  49  43  41  45  48  47  50  63  86 114 128 185 226 233 231 235 239 239 239 240 240 239 241 241 241 242
 245 245 245 244 244 244 243 243 243 243 243 242 242 242 241 242 240 238 240 226 134  78  96  53  49  41  43  46  49  51  50  49  46  44  41  42  39  37  37  36  30  29  28  26  26  29  30  36  38  37  33  36  34  22  15  28  29  31  35  36  40  41  45  45  46  52  47  42  41  44  49  49  47  40  45  50 114 153 155 193 238 234 238 240 239 239 240 240 241 241 241 242
 245 245 243 243 244 243 243 244 244 241 241 242 241 242 241 240 238 237 237 135  85  98  96  51  42  41  41  46  49  51  51  49  50  49  48  44  38  34  31  30  30  28  25  24  23  26  29  30  32  30  28  26  23  22  22  22  24  26  29  36  36  39  45  44  40  41  45  45  44  42  47  51  51  54  63  34  19  33 109 188 230 234 238 238 239 240 241 241 241 242 241 241
 242 242 242 241 241 242 241 241 241 240 240 240 241 241 240 238 242 240 162  87  93  89  62  52  46  45  46  48  51  54  54  61  59  62  53  46  40  37  33  33  29  27  24  23  24  25  27  27  27  25  22  21  20  19  19  19  20  19  18  22  31  32  28  24  25  31  34  46  44  42  44  53  54  56  56  52  53  48  58 171 196 239 239 241 241 241 241 242 242 242 242 242
 241 241 241 241 241 241 241 241 240 238 239 238 236 236 236 232 240 164  80  94  99  70  42  53  48  52  53  55  54  53  65  83  94  66  54  49  43  40  39  36  32  28  27  25  28  28  27  27  26  23  22  21  20  19  18  18  18  18  18  17  17  31  32  28  27  26  26  15  29  39  43  51  64  57  52  50  54  47  45 109 166 244 238 241 241 241 241 242 241 241 243 243
 241 241 241 240 240 239 239 238 237 237 234 232 232 231 226 225 148  86  75  83  81  51  59  62  64  57  56  59  78  81  84  89  92  66  57  55  49  49  43  37  35  31  30  28  29  28  27  24  25  24  23  22  22  21  20  19  18  17  16  15  15  20  35  33  30  27  27  27  28  33  36  42  46  47  46  43  35  43  45  52 134 239 239 241 242 241 242 242 241 243 243 243
 238 238 236 239 238 238 235 233 229 225 221 218 217 217 220 125  44  63  65  83  70  36  70  78  79  63  76  96 102  92  89  97  73  79  78  74  67  58  39  40  40  37  35  34  32  30  28  29  26  28  27  26  26  25  25  23  20  18  16  15  15  15  20  29  30  28  24  25  27  29  32  36  38  41  63  34  41  43  50  51  21 210 244 239 241 243 241 241 242 243 243 243
 235 233 232 225 224 217 221 221 217 220 217 214 214 202 125  42  87  67  64  72  53  55  95 115  94 105 114 113  98 102 123 129 128 119 114 102  85  72  52  45  36  33  41  41  35  34  33  36  40  35  30  28  30  31  35  28  25  19  19  18  16  18  20  26  30  29  27  25  25  25  28  30  38  46  58  51  41  43  51  53  37  66 245 240 241 243 244 243 244 243 243 243
 218 219 218 221 223 222 212 201 188 168 136 122 103 103  40  84  71  80  85  85  50  94 118 128 144 140 144 140 145 157 155 161 152 139 140 135 121 102  99  92  81  77  63  58  47  54  53  50  54  50  46  43  46  47  43  41  40  37  32  19  22  19  21  24  27  28  27  25  24  23  27  30  38  44  47  50  48  45  41  13 116  99 146 246 242 243 243 243 243 243 243 244
 214 204 189 179 149 124  97 111  92 107 116 159 148  45  89  93  65  89  67  95  67 115 157 165 147 151 164 174 181 179 183 178 178 167 160 156 142 138 117 112 112 100  90  77  81  82  74  80  79  60  58  68  61  64  54  57  52  47  47  55  41  35  34  18  29  29  27  25  24  24  26  30  31  36  40  46  46  48  48  37  56 115 110 230 243 243 243 243 243 243 244 245
 112  97  92 106 112 145 184 220 243 247 246 241 101  63  78  70  69  72  45  65  77 136 160 162 182 193 197 193 189 186 187 192 190 187 184 177 159 146 142 133 125 122 121 118 112 111 115 114 106 112 118 108 102  98  90  80  88  91  85  80  79  66  51  45  27  31  29  27  24  25  26  28  30  31  35  35  40  44  47  52  36  69 108 220 243 242 243 243 243 244 245 245
 186 211 236 244 247 247 246 241 239 237 247 166  37  63  66  70  66  47  46  66  88 161 170 189 192 192 192 193 193 193 190 187 187 188 184 187 174 162 152 146 145 138 134 129 131 130 124 124 126 130 127 124 127 125 120 114 123 125 118 109 108  89  71  54  41  27  30  29  27  27  29  28  36  38  38  36  34  28  39  47  56  37  22 241 237 242 243 243 245 245 245 245
 245 244 242 242 242 240 239 239 238 246 201  36  37  51  48  57  53  48  44  47 100 176 187 188 190 193 193 191 192 192 191 189 186 186 183 180 178 170 161 153 147 144 140 139 137 136 138 134 136 137 136 141 139 137 137 141 134 132 129 134 124 107  90  68  47  31  31  33  32  25  38  41  38  40  38  37  31  33  29  36  37  46  16 210 246 241 243 243 244 244 245 245
 239 239 239 240 240 240 240 240 240 242  74  36  46  46  46  48  49  45  55  67 105 194 193 191 191 191 190 190 189 190 187 185 184 183 183 180 177 173 167 155 153 149 146 144 142 143 142 143 143 142 143 143 144 144 145 147 143 140 139 137 137 133 110  96  71  36  36  30  47  60  47  28  40  41  67  71  50  27  31  29  33  45  25  67 228 245 242 243 243 244 245 245
 240 241 240 240 241 242 241 241 246 189  31  45  50  46  42  42  45  52  63  69 131 192 193 193 194 189 186 185 183 181 182 180 177 176 179 178 176 175 171 161 157 152 149 146 146 145 145 145 145 145 147 146 146 146 147 147 147 146 145 143 142 140 136 120 107  64  39  58  66  65  79 111 125 136 132 113  79  42  29  31  31  38  46  39 154 248 242 243 244 244 245 245
 242 242 242 242 242 241 241 241 245  91  32  51  49  48  42  41  45  63  62  97 161 178 188 193 195 187 180 175 175 173 172 169 168 168 171 171 171 169 166 161 156 152 150 147 145 145 145 146 146 147 146 148 148 147 147 150 149 151 149 148 147 149 146 144 132 110  80  43  56 103 146 159 156 155 157 149 105  74  39  33  30  34  37  42  32 236 244 243 245 245 245 245
 241 244 244 241 241 242 241 245 220  38  38  51  47  44  41  42  47  74  52 134 177 175 188 192 190 182 174 171 168 165 160 161 160 162 168 169 163 164 163 161 154 150 147 145 144 144 143 146 145 146 145 146 147 147 147 148 149 148 150 150 151 149 150 155 154 148 140 139 142 152 161 162 162 156 156 159 137  99  49  48  32  32  36  46  21 176 249 243 245 245 245 245
 242 243 243 243 243 241 240 249 175  25  45  47  44  39  38  41  48  66  97 159 183 186 189 189 187 175 166 159 155 154 152 151 152 154 152 156 158 150 147 147 147 146 145 144 142 143 144 144 143 144 145 145 146 145 144 144 145 146 147 150 151 152 152 152 153 155 157 158 159 161 161 163 163 161 159 156 148 131  71  43  37  31  27  41  47  39 250 244 245 245 245 245
 243 243 243 243 243 243 240 248 103  28  45  43  38  35  31  42  48  80 143 167 186 185 187 184 182 170 165 158 152 146 144 145 143 143 138 133 116 126 135 138 140 141 141 142 140 141 141 141 142 143 145 145 145 145 144 143 143 144 144 146 147 149 151 152 154 154 154 154 156 160 162 164 164 163 161 161 149 137  81  49  36  30  23  37  41  16 226 247 244 245 245 245
 243 243 243 243 243 241 245 242  50  38  44  39  35  32  36  46  53 116 162 193 185 185 184 181 175 170 164 156 149 140 140 139 139 135 136 132 129 129 128 130 134 137 137 138 138 139 139 140 141 143 145 144 144 144 143 142 143 143 143 145 145 148 149 150 151 151 152 153 155 157 160 161 161 161 161 161 153 129 100  65  37  31  28  23  49  16 129 250 243 244 245 245
 243 243 243 243 244 242 248 191  19  42  42  37  33  34  39  53  79 144 184 185 184 183 180 176 171 164 159 153 145 142 138 135 133 132 130 128 126 125 125 126 130 133 135 135 137 138 139 140 139 140 142 143 144 143 142 142 143 143 142 142 143 146 147 149 150 151 151 152 152 155 158 159 160 160 160 160 158 115 137  92  43  26  31  25  41  45  63 250 243 245 245 245
 243 244 245 244 243 242 250 101  22  39  37  34  33  36  41  61 116 171 188 185 183 180 176 174 169 160 156 152 147 144 142 139 135 131 129 126 123 124 124 125 129 131 132 133 134 137 139 139 138 137 139 142 142 141 140 140 140 141 141 141 142 142 144 145 146 149 148 149 151 154 155 157 159 160 161 161 163 125 145 112  55  40  34  31  36  43  34 242 245 244 245 245
 243 244 245 245 243 245 245  35  30  29  33  33  34  35  47  73 139 176 185 184 182 177 172 169 162 157 154 152 150 147 145 143 138 133 129 126 124 123 124 124 127 129 130 131 134 135 138 138 138 138 137 138 139 138 138 139 139 139 138 138 138 140 142 143 144 144 147 148 149 152 153 156 159 158 159 161 163 119 139 132  80  42  33  32  37  39  21 213 248 244 245 245
 249 245 243 243 243 247 220  24  27  32  32  35  36  38  44  96 158 174 184 183 180 174 169 163 159 155 154 154 152 148 149 145 142 138 133 130 129 127 126 128 129 131 131 132 134 134 137 137 140 138 139 138 138 138 138 138 138 137 135 135 138 139 141 142 142 143 144 146 148 149 151 153 156 157 158 159 155 157 144 131 108  54  43  35  37  37  24 145 249 244 245 245
 214 247 247 243 242 246 160  16  28  25  29  32  36  42  46 116 161 172 180 181 176 170 165 159 154 152 152 151 152 153 152 151 145 140 139 137 127 127 133 134 132 131 133 133 134 134 136 139 139 139 138 138 138 137 137 138 138 135 134 134 138 138 140 141 142 141 141 143 144 145 148 150 152 154 156 157 158 157 156 151 153  95  35  42  37  39  22  63 250 243 242 242
  87 143 224 244 245 249 122  16  27  27  25  30  37  39  63 117 162 174 176 178 175 168 160 156 152 148 148 148 151 153 154 153 151 150 149 149 150 146 138 143 144 142 141 138 138 137 137 137 140 139 140 139 140 138 137 137 136 135 133 134 138 138 141 141 142 142 140 139 141 142 145 148 151 151 154 154 158 159 157 154 160 126  62  33  39  40  34  19 246 233 234 234
 103  85  82 146 227 248 101  25  29  27  28  33  41  44  82 119 157 169 173 174 169 165 158 154 151 149 148 148 151 153 156 156 157 157 158 159 156 157 157 154 152 151 146 142 140 139 138 139 139 139 140 140 139 138 139 138 137 138 138 137 138 140 142 142 143 143 142 142 142 143 144 146 148 150 152 153 155 159 158 157 158 146 101  24  41  39  38  18 227 232 234 234
 118 117 117  84  66 121  52  27  29  27  29  36  40  48  90 129 158 168 171 171 167 163 157 151 148 147 149 150 152 156 157 159 161 162 167 169 170 170 171 165 161 157 151 146 144 140 140 140 141 142 141 139 140 140 140 140 141 141 141 141 141 142 142 143 145 145 144 144 143 143 143 145 147 148 150 153 153 156 156 156 152 146 123  35  41  38  37  17 202 231 236 235
 119 119 118 118 111 115  37  37  29  26  29  37  40  50  95 138 159 170 170 169 165 161 155 149 146 146 148 152 155 158 160 161 164 167 169 171 170 172 172 170 165 159 154 150 146 142 140 140 142 142 140 138 141 141 142 142 142 144 144 144 144 144 143 144 145 146 146 145 146 144 144 144 145 146 148 151 153 155 155 152 148 137 138  50  38  34  40  17 148 221 188 189
 120 119 119 118 118 120  48  32  31  28  30  38  42  47 105 152 164 170 168 166 163 157 152 149 148 149 150 152 159 161 166 167 169 170 170 172 173 173 172 169 166 161 154 151 147 143 141 141 141 142 141 140 141 142 142 143 144 146 146 147 148 147 146 145 145 147 147 146 145 145 143 143 145 146 149 150 150 154 154 150 145 135 146  71  34  32  34  35  59 248 239 242
 120 120 120 117 117 118  68  38  31  28  37  41  39  49 116 159 169 167 165 164 160 155 151 151 152 153 155 160 164 167 169 171 171 169 168 169 169 169 166 164 165 157 152 150 148 145 143 141 141 142 142 143 143 143 145 146 147 147 147 147 149 150 149 148 147 148 148 145 145 143 142 143 145 146 148 149 148 151 153 152 142 135 133  99  35  24  25  42  15 250 240 238
 119 119 119 118 119 123  83  30  31  31  36  40  38  54 142 167 167 165 164 160 159 156 154 154 158 157 160 167 169 170 172 173 170 167 164 161 165 163 156 153 149 149 149 147 146 145 143 142 140 140 142 142 143 143 145 147 147 148 147 148 150 149 150 151 151 150 148 147 144 143 140 140 141 145 147 148 148 150 152 150 136 129 129 104  34  14  27  37  14 212 241 237
 119 120 119 119 119 124  82  30  35  33  36  40  25  78 165 168 168 166 162 159 158 159 164 169 172 179 184 175 174 173 171 171 172 162 152 149 146 138 139 139 137 141 143 145 145 143 142 140 140 140 142 143 143 144 143 145 145 145 146 147 148 148 149 150 152 152 151 149 146 143 141 140 141 143 146 148 148 150 151 151 133 120 110  96  36  21  27  24  32  42 244 235
 117 118 117 117 117 123  81  15  34  33  36  40  15 108 168 167 166 165 159 157 161 166 178 181 183 186 179 176 176 173 167 165 159 153 147 143 136 133 128 129 128 132 137 141 142 141 138 135 135 136 139 141 142 143 143 142 142 142 145 145 145 146 147 148 150 152 151 151 149 144 141 140 140 142 143 146 147 150 149 148 144 113 106  87  44  28  25  24  42  17 248 233
 115 114 114 116 117 125  81  23  33  33  35  38  16 134 171 165 164 161 156 157 161 171 177 184 183 180 170 171 154 147 142 132 128 130 137 128 119 117 118 118 119 124 131 133 134 135 133 131 133 133 135 138 140 140 138 139 140 142 142 142 144 143 145 146 150 150 150 150 150 146 143 142 141 141 143 144 146 146 146 146 143 116  95  80  51  20  26  25  37  18 227 235
 111 112 113 114 114 122  79  28  34  32  34  36  20 153 167 167 164 160 158 158 168 179 185 170 151 127 130 119 109 100  93  89  83  85  82  87  87  92  99 102 110 114 121 122 127 129 128 126 128 129 132 133 133 133 133 133 133 135 137 138 137 137 141 141 144 147 149 151 151 148 145 143 143 143 143 143 143 145 145 145 150 123  66  65  48  22  26  26  37  14 205 241
 108 110 112 112 112 116  73  25  37  34  33  31  38 158 173 169 164 161 158 161 170 181 156 124 107  94  83  83  75  63  48  41  40  43  47  48  56  69  70  87  97 106 112 116 121 122 120 119 120 125 125 127 129 128 127 124 120 132 131 133 129 133 134 135 141 145 144 146 149 149 149 148 147 143 143 143 143 145 146 146 146 137  70  48  41  30  27  27  28  15 202 244
 105 106 109 110 109 111  78  37  39  32  32  30  41 168 175 170 164 159 159 164 169 157 116  73  64  68  62  50  42  41  43  39  40  40  38  40  51  58  68  67  74  93 102 109 111 116 113 111 115 120 121 121 123 123 118 117 118 115 125 125 125 122 116 120 119 129 135 143 145 152 148 146 147 144 144 143 144 144 144 145 146 141  85  41  38  31  28  26  26  17 205 247
  98  98 103 105 105 110  85  51  39  37  36  20  59 182 173 170 161 157 155 153 127 108  84  80  68  59  55  47  42  38  31  31  29  34  36  38  39  48  54  66  76  85  98 102 106 109 110 109 110 114 114 115 116 115 111 110 106 109 108  81  81  76  72  72  81  88 111 118 126 126 131 145 146 146 145 143 143 142 141 142 141 148  98  40  36  30  28  26  23  18 231 247
  95  96  97 100 102 104  97  59  38  38  38  17  89 186 173 169 159 155 155 119  97 102  84  62  58  55  51  48  44  40  38  35  34  32  36  37  42  42  55  59  66  82  88  96 102 104 105 106 105 108 110 108  99  93  93  88  85  83  71  61  50  39  37  31  40  53  75  83  93  97 100 118 145 150 147 144 143 143 141 140 141 144 104  43  30  28  27  27   9  21 250 242
  90  93  95  97  98 104  94  51  36  39  40  19 105 187 173 166 157 154 146 124  99  90  71  65  61  54  49  44  41  40  43  41  31  35  35  39  45  50  51  60  65  76  86  92  97 101 101 100 100 101 104 102  98  95  89  77  78  73  70  50  35  34  38  40  45  41  48  59  57  66  68  78 117 141 147 145 145 144 143 140 137 139 101  27  27  26  26  25  11  85 250 243
  83  88  89  92  94  88  63  46  29  39  39  12 126 188 176 161 156 153 149 118 101  85  72  69  65  62  62  61  66  70  65  53  58  54  51  51  51  55  62  61  67  72  83  89  95  99 102 103 101 101 102 100  97  90  83  78  72  68  53  47  41  39  39  39  40  42  45  56  62  72  77  76  78 113 137 145 144 144 144 143 141 141  96  35  18  26  27  23  14 229 249 243
  81  83  86  89  81  96 164 133  42  26  41  15 142 186 170 161 156 150 130 109  98  82  75  71  71  73  75  82  91  97  98  92  82  71  63  59  58  57  59  61  66  72  79  87  93  98 102 103 105 105 105 101  95  87  81  77  72  62  52  49  44  43  42  42  42  42  44  52  59  66  74  75  70  92 117 140 140 143 144 142 141 146  87  37  18  26  27  19  40 250 245 245
  78  81  84  84  75 188 200 186 108  15  46  16 161 183 168 161 156 138 113 100  84  80  78  76  72  85  91 100 108  96  98 103  88  83  74  67  63  59  59  60  63  71  77  83  95 101 105 108 110 111 105 106  98  89  83  79  75  69  61  58  56  54  52  47  49  42  48  53  60  65  69  73  75  77  93 124 145 142 144 144 144 147  68  35  25  27  27  15 165 250 244 245
  76  78  80  62 123 166 147 156 125  30  47  17 173 181 171 158 143 122  99  91  85  80  79  81 102  91  78  60  54  64  59  60  56  56  61  65  62  59  59  59  60  62  75  84 101 107 111 113 114 117 118 110  99  91  85  80  75  71  68  63  62  65  63  69  69  70  61  55  57  65  69  71  75  71  91 116 144 142 144 146 142 150  52  26  32  28  21  18 237 247 244 245
  73  75  77  43 158 107  65 117 116  45  46  20 181 178 166 156 142 108  94  89  83  81  81  88  68  45  64  70  74  65  65  60  65  65  59  47  52  57  56  58  58  59  67  86 105 111 117 121 121 124 120 113 104  90  82  78  73  66  63  58  57  60  63  70  70  75  80  80  75  73  69  75  76  78  85 109 142 141 143 147 142 149  27  30  32  31  23  59 248 243 244 245
  71  72  75  50 173  92  81  68 116  58  46  21 191 176 166 159 134  99  89  86  82  82  83  82  65  81  67  44  19  16  10  10  14  12  21  43  46  43  54  55  57  55  64  83 105 114 122 125 128 130 127 113 100  81  80  74  71  63  54  53  58  62  70  77  77  70  73  76  78  84  84  80  82  83  85 111 140 140 145 148 147 133  33  31  32  32  13 155 249 245 245 245
  68  70  72  64 158  78  83  69 116  87  29  29 188 176 165 160 125  91  90  86  82  81  78  64  70  59  37  29  45  31  24  28  29  30  22  37  34  42  41  50  54  57  56  81 102 121 125 129 132 132 129 106  89  81  74  68  59  51  51  52  58  64  74  79  88  89  85  78  76  78  83  85  86  87  90 104 140 141 145 149 159 123  28  21  31  31  17 219 247 243 243 243
  66  68  68  62 149  70  78  99 110 115  18  36 190 175 169 153 119  97  89  83  80  76  69  63  40  25  35  85  85  39  26  27  27  30  18  84  53  40  43  45  51  57  60  78 101 121 126 129 132 135 122 102  90  80  72  59  53  49  48  49  58  62  64  75  89  94  95  91  89  66  82  87  88  89  93 107 130 140 143 147 163 108  25  24  30  17  51 245 243 243 244 245
  62  64  65  80 145  69  65 140 115 110  38  37 194 173 166 153 122 102  90  83  75  70  61  44  28  41  46  71  79  59  28  31  30  19  55  85  67  45  42  45  51  57  65  74 106 121 128 132 134 134 118 100  90  73  64  53  49  47  44  40  19  17  15  20  27  34  75  95 104  86  82  85  89  94  96 105 136 139 145 147 165  97  26  29  19  15 143 250 244 244 244 245
  61  63  57 110 141  71  73 155 112 105  48  42 189 171 164 155 127 108  93  86  76  68  63  82  86  73  62  64  70  63  43  12  16  50  80  71  58  50  45  43  54  60  69  77 109 121 131 134 135 134 114  98  87  73  60  49  46  47  47  45  29  27  28  34  32  33  16  36  87  94  89  88  91  96  96 105 132 139 145 148 171  82  20  34  10  43 250 244 245 245 245 245
  58  59  49 139 127  69 100 151 111 109  49  43 188 170 163 156 130 114  99  94  89  79  83  86  88  79  70  65  64  59  69  72  69  66  60  55  55  53  53  53  56  63  73  87 111 130 134 137 137 132 113 100  79  78  46  48  45  47  66  65  26  29  29  34  22  88  96  40  31  80  87  88  93  97 104 113 124 142 145 150 174  75  22  37  13 203 250 244 245 245 245 245
  57  58  45 114 114  70 147 126 114 115  41  60 186 168 161 155 131 126 118 111  99  95  88  86  84  80  72  66  63  59  58  57  55  55  53  52  51  51  53  55  60  67  76  80 122 138 146 145 137 133 114 102  86  78  54  53  52  51  66  75  17  32  30  37  40 100 102  55  26  30  77  88  93  99 106 116 122 144 146 150 175  60  21  28  27 155 240 248 244 245 245 245
  56  57  53 102 119  94 159 100  84  68  40  84 180 166 162 157 149 139 133 128 111  98  90  88  83  76  67  61  58  57  55  54  52  51  50  49  51  53  57  61  68  74  81 109 139 164 151 151 151 135 116 107  92  78  67  63  58  58  61  63  61  50  50  47  68  84  75  60  63  53  61  85  91 101 109 118 130 141 146 151 175  49  31  31  61 132 137 248 245 245 245 245
  54  56  55  74 129 109 152  94  70  68  39  92 172 164 163 159 153 150 144 134 120 108 101  96  83  75  67  59  55  51  46  48  48  49  51  52  54  58  60  67  83  87  84 136 167 175 166 160 157 142 121 112 102  83  74  63  59  59  59  59  59  62  66  69  77  79  81  88  95 104  94  78  92 106 115 120 131 141 147 151 166  38  32  52  97  92  85 219 247 244 245 245
  52  53  52  41 140 132 141  79  67  65  39 111 166 165 165 162 159 159 164 172 165 146 127  95  86  72  63  60  42  47  47  50  49  56  57  58  59  63  63  80  92  89 111 155 167 173 175 164 160 149 129 113 110  95  74  65  61  58  56  56  58  60  64  69  75  80  82  84  88  93  95 102  97 110 118 125 130 142 146 151 157  24  45 103 100  82  55 161 247 245 245 245
  52  52  54  29 116 148 132  81  67  83  41 107 160 167 167 166 167 179 187 181 176 170 159 141 114 105  94  83  75  70  65  59  59  62  62  61  59  65  83  94  93  90 127 169 171 173 171 166 161 155 135 116 113 113  87  72  65  61  58  57  57  58  62  66  71  75  81  86  89  94 100 104 112 114 120 126 133 142 144 148 147  16  98 105  92  83  55 130 249 244 245 245
  52  52  52  25 113 168 127  68  70 101  40 122 165 168 170 173 177 181 183 182 186 191 192 172 153 126 105  94  89  78  73  73  73  72  76  78  85  94  96  95 101  99 145 173 172 171 168 163 160 157 137 119 117 114 109  74  73  61  55  61  60  59  61  63  68  72  78  85  92  99 106 104 117 121 123 129 134 142 145 148 127  15 108 114  88  83  59 136 249 244 245 245
  49  52  53  38  53 180 139  77  66 102  33 132 165 168 173 176 178 180 182 182 183 183 183 182 174 149 131 109  99  94  90  88  91  92  92  96  99  99 100 100 104 114 149 164 166 167 165 160 156 148 140 124 119 116 115  98  92  84  80  69  55  58  61  59  62  70  72  75  77  82 108 114 118 122 129 131 136 142 145 149 109  17 136 115  89  84  58 163 247 244 245 245
  50  50  52  46  33 182 142 103  69 106  34 138 169 169 176 178 178 176 178 180 180 179 179 178 171 163 154 140 126 117 115 113 110 113 115 108 107 104 109 108 106 148 158 162 167 167 162 158 153 148 142 132 123 120 118 111 114  97  94  89  86  81  78  66  67  63  79 101 112 127 136 135 132 132 133 133 138 143 143 150  81  36 140 111  89  83  69 202 247 244 245 245
  49  50  50  42  33 173 144 130  95 102  50 137 165 175 178 178 176 175 176 176 179 177 177 178 182 186 178 168 150 136 131 122 122 118 115 115 112 112 112 111 139 157 171 171 172 170 163 159 154 150 147 143 123 124 121 117 113 113 109 102  99  98  98 102 103 112 116 123 133 138 141 140 143 140 138 138 140 142 141 149  70  56 147 108  95  78  67 237 247 245 245 245
  49  48  50  44  31 169 128 184 181  86  48 131 168 177 175 174 174 174 177 182 188 195 204 202 198 192 188 186 168 157 142 130 126 124 119 117 117 112 129 145 176 179 179 185 178 175 169 163 158 153 150 143 133 124 124 122 120 118 116 115 116 115 110 113 119 120 125 129 137 141 143 143 143 143 142 140 142 143 142 155  46  63 150 111  93  73  78 249 244 245 245 245
  48  49  48  43  32 178 114 196 223  79  51 130 171 174 175 174 172 174 182 190 202 200 198 197 196 192 188 180 171 164 153 144 137 131 121 117 121 123 145 163 177 179 180 180 178 175 174 169 162 157 153 148 143 130 129 124 123 126 128 128 124 125 132 129 131 135 134 134 138 140 141 142 143 144 144 141 143 143 142 154  39  60 150 114  86  73 121 250 244 245 245 245
  48  48  49  50  31 189 149 214 196  90  65 128 170 174 173 171 169 172 184 192 199 199 191 192 189 185 183 176 168 164 155 144 137 124 124 116 116 132 150 165 177 179 178 177 177 177 174 171 166 161 156 153 146 138 131 127 126 127 128 131 134 136 135 139 142 144 145 143 141 142 142 143 142 143 145 142 141 144 142 153  34  66 143 111  97  79 189 248 244 245 245 245
  49  50  50  48  32 189 181 191 166  85  85 131 170 172 172 165 165 172 182 187 186 182 180 179 176 171 171 167 164 150 140 129 115 105  90  78 111 146 151 159 172 176 178 177 176 175 170 167 164 161 158 153 147 138 132 121 122 123 124 128 132 135 139 141 143 146 150 150 151 149 146 147 145 144 146 145 143 143 142 145  27  60 134 122  83  71 250 244 245 245 245 245
  48  48  49  48  30 204 224 192 162  78  89 106 174 172 172 160 160 168 177 176 173 172 169 164 159 155 151 143 131 125 109 101 101  83  63  74 146 171 182 177 173 175 175 174 173 170 167 165 163 161 158 154 146 135 128 118 105 111 118 122 129 132 138 141 144 147 150 153 153 158 158 155 145 148 148 148 145 143 140 131  35  55 144 116  87 187 249 244 245 245 245 245
  48  48  49  46  34 225 212 197 152  77  70 113 162 160 154 147 149 160 164 170 166 158 157 153 145 134 122 113 108  94 108  92  82  65  43  96 174 177 178 179 174 172 171 172 168 163 161 160 160 160 158 152 144 133 124 127  96  92 103 109 121 125 134 141 144 146 149 152 156 158 161 161 160 151 149 147 145 141 141 123  32  59 133 120 119 249 245 245 245 245 245 245
  48  48  49  34  47 226 206 160 148  55  75 118 159 156 147 139 145 154 155 152 151 144 133 128 119 114 116 114 106 100  90  82  71  55  27 121 171 170 170 173 168 167 160 153 148 151 157 156 157 155 154 151 146 142 142 138 111  65  86  95 111 121 126 133 139 143 146 149 154 160 162 160 157 153 149 147 144 140 145 110  42  54 125 133 220 247 245 245 245 245 245 245
  46  47  48  32  43 213 174 135 148  56  84 111 141 151 131 132 140 145 147 139 129 125 119 116 113 112 111 100  99  84  82  72  61  54  21 130 150 162 162 161 161 166 162 139 144 139 139 143 146 145 149 149 146 144 144 144 125  49  77  80  95 109 115 125 131 138 141 145 151 155 157 158 157 153 149 146 143 141 144  95  45  70 115 132 249 245 245 245 245 245 245 245
  46  46  47  42  33 184 156 152 160  65  98  96 131 142 128 123 131 132 130 129 120 114 110 106 102  98  91  91  84  83  77  55  56  54  28 121 129 135 139 138 143 141 143 135 124 124 123 128 133 142 144 145 141 142 143 143 134  57  69  72  89 100 109 117 124 134 138 142 148 153 155 156 155 151 146 145 145 141 142  90  32 105 132 189 249 244 245 245 245 245 245 245
  45  45  45  47  24 149 143 137 131  71  98 103 124 136 113 117 123 125 121 121 114 109  97  90  94  92  90  85  82  75  67  59  57  56  47  87 101 109 112 113 120 126 124 122 118 115 114 118 127 132 139 136 136 132 143 141 134  67  64  63  79  85  98 112 119 125 131 138 145 149 149 152 153 150 146 142 142 139 133  81  23 135 129 231 245 245 245 245 245 245 245 245
  45  45  45  46  28 105 128 125 103  92  93  99 114 117 115 111 110 113 111 109 103  96  93  91  89  87  86  84  78  72  66  62  61  62  61  72  78  87  88  85  93  97 100 105 106 107 107 111 109 118 125 127 124 116 129 128 125  68  62  64  70  79  91 104 114 120 127 133 137 142 141 150 152 148 145 142 139 136 129  74  22 165  80 250 244 245 245 245 245 245 245 245
  45  45  45  46  45  39  97 109  91  90  88  95 110 117 102  98 104 101 106 101  98  94  90  87  84  82  82  80  75  70  67  66  67  67  68  65  67  54  48  59  72  87  91  89  94  99  99 107 111 115 113 115 114 113 115 116 104  82  64  63  64  72  84  93 107 116 121 126 129 136 140 144 150 148 143 140 137 125 121  66  34 167 123 250 244 245 245 245 245 245 245 245
  45  46  45  45  47  45  38  76  89  82  84  90  98 115 103  80  87  90  88  93  93  89  86  82  80  78  78  75  72  71  70  69  69  69  69  66  61  54  45  44  38  58  79  85  87  85  89  90  95 103 100  98  87  91  92  95  95  88  75  64  63  66  85  81  95  97 115 119 127 130 134 141 145 145 142 134 134 115 103  60  59 166 145 250 245 245 245 245 245 245 245 245
  45  45  44  44  44  45  45  34  64  78  85  90  89  83  83  76  79  80  78  82  85  85  81  79  76  76  74  72  70  68  67  67  68  69  68  64  54  50  48  47  49  48  59  73  74  78  82  82  87  88  90  60  46  54  81  90  93  93  83  70  65  63  69  79  90  93 108 115 120 127 131 136 138 141 136 127 127 112  93  55  62 166 140 250 245 245 245 245 245 245 245 245
  43  43  44  45  46  45  45  47  57  82  83  83  84  84  81  64  61  65  67  73  78  81  80  76  73  72  72  71  67  66  65  62  63  66  64  59  49  45  43  41  43  47  54  62  67  69  73  75  79  77  69  64  66  72  80  89  94  95  93  79  71  65  66  74  84  84 104 113 117 121 126 127 130 133 131 125 116 105  88  39  68 162 127 250 245 245 245 245 245 245 245 245
  45  44  44  45  45  46  46  49  48  74  85  80  79  79  78  58  62  62  63  69  74  80  79  77  75  72  71  68  65  66  60  52  54  56  55  50  45  43  38  35  35  39  43  46  56  62  66  69  58  47  51  60  66  74  80  91  92  92  91  83  71  66  64  71  81  90 100 106 112 115 122 123 124 125 125 125 117  81  83  50  74 153 136 250 245 245 245 245 245 245 245 245
  44  44  44  45  45  46  46  49  40  78  83  89  69  73  72  64  62  60  59  61  74  78  77  75  74  71  66  64  62  51  47  43  44  47  44  40  40  40  36  32  27  30  33  36  41  47  40  34  35  40  41  41  57  61  76  86  87  89  82  77  72  66  64  68  80  85  94 103 110 111 113 116 118 115 116 121 104  91  75  58  84 137 185 247 245 245 245 245 245 245 245 245
  44  44  44  44  43  43  44  43  49  76  82  84  76  69  66  63  61  58  54  48  70  74  76  74  72  69  64  60  44  39  35  33  37  40  40  39  39  37  33  28  25  27  23  31  40  41  29  29  32  33  39  43  49  52  55  86  78  77  70  68  67  64  62  64  77  85  94  99 104 112 110 110 106 105 105 104  97  90  59  55  86 134 246 245 245 245 245 245 245 245 245 245
  44  44  42  44  44  44  43  44  49  65  74  80  76  67  61  58  58  56  52  50  60  68  72  72  70  65  58  48  37  24  21  22  32  39  40  40  40  37  32  27  27  27  28  28  36  39  31  28  32  34  38  41  44  46  51  59  65  65  56  60  62  60  59  58  77  82  92  97 101 103 102 101  98  99  98  83  82  90  63  27  96 226 247 245 245 245 245 244 244 244 244 244
  45  45  45  43  44  44  43  44  47  63  69  70  69  63  52  56  57  56  53  49  55  62  69  72  70  62  54  46  17  20  19  23  32  43  44  42  43  39  32  32  25  27  26  29  35  38  36  34  36  37  40  41  43  45  55  56  57  50  44  43  46  52  52  49  68  82  90  96  99 100  97  91  96  96  95  90  87  85  66  23 226 249 250 250 250 249 248 247 247 246 244 242
  45  44  44  43  43  43  43  45  47  59  64  64  65  65  46  51  53  54  50  47  49  60  67  70  72  60  53  39  19  20  19  23  39  49  51  49  50  59  53  52  56  48  45  43  40  39  35  35  37  44  36  48  43  43  60  58  55  45  40  37  34  34  41  47  59  81  91  95  97  95  89  82  92  95  96  91  88  79  61  44 191 196 203 203 193 194 195 192 188 191 193 189
  44  43  42  43  43  44  44  44  46  56  68  64  62  66  48  51  50  47  44  42  41  55  64  68  70  64  61  38  27  24  24  21  21  37  43  45  49  51  54  51  53  65  66  77  75  65  67  63  70  69  73  61  64  69  73  62  58  50  32  29  30  28  34  40  58  81  93  95  94  89  85  78  81  97  87  91  84  67  51 100 178 202 196 199 201 201 201 201 201 202 201 201
  43  43  43  44  44  45  40  38  39  47  72  65  61  61  57  53  49  45  42  41  40  50  58  65  68  66  63  46  36  33  35  42  41  32  32  41  40  41  43  45  48  49  55  62  65  65  63  65  64  63  63  66  69  71  68  66  56  49  29  25  29  32  31  41  57  77  93  93  89  85  77  75  76  74  79  80  76  67  24 115 185 197 196 197 197 197 198 198 198 198 198 199
  43  43  45  45  36  16  15  19  23  39  52  54  59  59  58  52  46  41  40  40  39  47  54  61  68  68  64  56  45  42  47  53  58  57  59  53  51  49  41  38  35  35  48  55  57  55  57  55  56  57  55  56  58  54  52  50  48  39  46  39  36  38  39  51  66  94  94  92  87  52  61  70  70  64  71  73  60  59  15 150 192 194 196 195 196 197 197 196 196 196 196 198
  45  44  45  34  45 127 178 191 199 187 109  42  55  56  55  51  45  42  40  37  38  42  51  60  66  68  67  58  53  51  54  61  70  81  88  84  78  78  84  87  84  77  67  70  60  59  61  63  56  54  58  63  67  74  70  63  66  69  60  49  47  49  54  65  81  90  94  91  79  64  59  65  67  65  60  71  60  53  17 181 191 192 194 194 195 195 195 194 194 194 194 195
  45  45  47  15 161 204 203 197 196 197 162  43  43  51  52  51  46  41  39  37  35  40  49  58  65  67  64  59  57  57  61  65  74  80  87  89  92  91  88  92  95  98  96  95  95  97  90  92 101  96  97  97  93  92 101  98  93  81  72  57  54  60  66  81  87  93  91  86  73  58  56  60  63  61  58  61  65  46  23 189 192 190 191 192 193 193 192 194 192 189 192 194
  45  46  46  16 192 199 196 196 195 196 181  76  29  47  48  49  46  40  37  34  34  40  48  57  64  65  64  60  59  61  64  72  75  80  84  86  87  86  86  87  89  90  91  93  97 105 112 111 107 108 104 104 108 102 107 106  95  91  86  62  61  71  73  86  90  91  88  79  68  56  51  56  60  60  57  56  54  26  72 195 183 185 186 183 180 181 180 175 180 179 176 175
  44  45  44  37 195 202 196 196 195 194 198  92  23  46  44  43  43  41  34  32  32  37  44  53  60  63  62  61  60  63  69  73  78  81  82  83  83  83  83  82  81  86  88  88  92  93  94 100 102 105 106 109 112 113 107 101  97  93  85  64  70  71  80  86  91  89  82  71  65  47  50  51  52  54  55  53  48  13 141 180 178 179 180 180 180 181 180 181 180 181 180 180
  45  46  37  74 190 196 194 194 193 192 197 146  48  40  42  40  39  36  33  29  32  36  43  50  59  63  64  60  59  64  69  75  79  82  82  82  79  77  75  71  72  73  74  76  77  80  82  89  92  97 104 108 112 112 110 105 100  94  86  72  75  77  81  86  91  89  78  67  54  49  46  48  49  48  47  47  34  28 168 176 179 180 180 180 181 181 181 180 180 180 181 181
  45  47  28  94 193 192 192 192 189 191 190 191  99  29  40  36  33  32  30  28  29  34  39  50  57  60  62  59  59  62  69  74  78  82  82  81  78  72  67  60  61  63  63  66  70  70  73  76  87  91  91 106 109 109 109 106 102  97  90  82  81  81  83  86  87  86  78  65  56  51  48  46  46  43  40  39  23 120 176 177 181 182 182 181 182 181 181 182 181 181 180 181
  47  48  28 107 194 191 185 182 183 178 170 176 122  42  39  34  29  27  26  26  28  32  34  44  55  59  60  57  56  61  69  74  78  81  81  80  77  72  65  62  58  56  56  55  58  61  55  57  71  77  88 100 105 109 109 108 101  96  91  88  85  85  85  87  87  79  76  62  59  55  50  47  46  43  39  33  26 164 180 178 181 181 181 181 180 180 180 180 181 180 180 181
  49  49  20 117 172 158 161 164 159 163 170 173 136  68  34  33  28  25  24  25  26  29  32  42  52  56  57  56  56  61  69  74  77  80  80  80  79  74  68  62  56  51  50  48  49  54  57  58  61  78  88  98 102 106 105 103 100  95  89  87  85  86  87  86  83  78  66  63  58  54  51  47  46  44  41  23  94 183 179 178 180 180 180 180 180 179 179 179 180 180 180 180
  36  41  34  80 161 163 160 157 169 171 166 173 153  96  41  32  28  25  23  23  24  29  35  44  49  51  53  54  55  61  68  73  78  80  82  81  80  77  71  66  56  47  52  51  51  52  56  61  68  84  92  99 104 107 105 103  99  93  88  84  83  85  85  82  79  71  63  56  53  50  48  47  47  44  43  18 136 185 178 179 179 180 180 180 180 178 178 178 180 179 179 180
  58  25  17  16  69 159 195 215 192 198 202 196 155 110  58  29  25  25  24  23  24  28  33  40  45  46  47  50  54  57  63  72  79  83  83  84  83  82  80  76  73  67  57  50  52  42  55  59  81  88  95 101 105 105 104 100  96  90  87  84  83  84  83  81  74  59  54  47  42  40  41  41  42  42  33  28 166 178 177 178 177 177 178 179 179 178 179 179 178 179 179 179
 207 172 127 196 225 239 230 199 119  86 105 111 104 117  92  50  21  25  25  25  25  26  30  36  41  41  42  44  47  50  56  74  77  84  86  87  87  88  89  90  92  90  87  78  74  86  84  89  99  94  97 100 104 103 104 100  96  90  84  82  80  80  74  72  57  55  45  40  38  34  37  37  39  41  20 120 172 175 176 179 177 177 178 178 178 178 178 176 177 179 178 180
 203 237 249 247 235 134  58  19  11   8   9  11  81 126  92  67  28  28  27  25  24  25  27  31  35  37  37  38  38  45  49  72  76  82  90  90  91  95  96  97  90  88  84  83  90  92 106 107 106 107 103 102 107 107 107 102  96  89  83  78  76  76  78  65  55  48  40  36  32  30  31  33  38  18  78 178 175 176 175 177 177 177 178 178 177 176 175 175 175 176 177 178
 249 246 195 139  78  16  17  10  14  13  12   8  74 133  92  73  46  29  27  25  22  22  23  27  30  28  28  29  37  44  56  63  76  82  90  93  92  94  99  95  91  89  88  87  88  94 100 109 113 112 109 109 110 110 109 107  94  87  80  75  72  73  70  60  52  44  39  32  28  25  26  31  29  30 165 172 173 174 175 175 176 176 177 176 176 176 175 175 175 176 176 176
 247 230 121  18  11  16   7  16  16  14  14   9  67 136 104  71  61  44  26  26  22  20  22  26  26  25  23  26  37  47  55  61  73  79  86  89  91  92  94  94  91  89  90  89  87  90  95 114 114 116 116 115 114 111 109 104  92  85  81  64  60  54  58  55  53  45  39  31  27  25  27  21  31  75 180 171 173 173 174 175 174 175 175 175 175 175 176 176 175 175 175 176
 224 123  38  31  19  19  19  16  13  13  14   8  70 132 106  80  73  49  26  26  22  20  22  24  24  22  24  30  39  45  51  59  64  69  86  86  85  86  87  88  86  87  86  86  82  88  93 113 113 116 116 116 115 112 102  99  85  75  71  67  53  52  49  50  50  45  39  33  28  26  25  26  61 118 177 171 172 173 173 173 172 171 171 172 172 173 173 174 172 171 172 172
 135  57  29  24  20  18  17  14  13  13  15   9  76 132 107  79  69  58  34  23  21  19  21  22  22  21  25  31  36  42  46  51  57  60  66  66  71  74  72  71  75  78  85  79  63  83  99 103 111 118 119 116 112 111  83  88  66  60  55  48  47  46  42  44  46  41  37  33  28  31  38  50  68 155 172 168 169 170 170 170 169 170 172 169 168 170 173 174 172 168 168 170
  50  30  20  20  17  15  15  14  12  12  15   8  91 131 111  81  69  63  46  21  22  19  20  20  20  21  24  28  35  38  42  45  50  54  55  56  58  63  60  50  48  61  65  65  62  74  77  91  95  87  91 102 100  99  82  76  62  56  46  41  37  35  37  32  29  35  34  31  31  22  56  75  77 174 162 161 161 166 167 164 165 163 163 161 165 160 160 159 150 152 149 145
  30  37  16  19  16  15  14  13  11  12  13   8 114 131 113  87  69  63  56  31  25  21  20  20  20  21  22  26  31  35  37  40  44  46  48  50  52  51  52  48  48  51  54  62  60  65  72  79  81  82  77  85  84  83  76  68  61  54  45  38  35  34  34  32  31  30  31  28  24  59  76  83  93 167 170 146 139 132 114 106 100 100  95  97  93  97  95  95  94  95 102 104
  37  36  23  18  16  14  14  13  11  11  13   8 132 132 111  94  76  67  59  35  30  22  20  19  19  20  23  26  28  31  32  33  37  40  40  42  45  44  42  43  44  45  47  52  53  58  62  58  63  67  70  63  69  66  70  56  54  49  42  35  33  32  30  29  28  29  30  27  53  73  79  91  86  32  95 178 199 166 155 136 137 137 139 137 140 146 145 143 149 143 144 145
  35  28  19  16  16  14  13  10  11  11  11  23 147 132 114  95  77  65  56  46  38  25  19  17  17  19  22  25  26  27  28  29  33  33  34  35  33  36  38  38  38  40  44  44  43  48  51  51  53  51  57  57  55  58  59  56  51  44  40  35  33  32  29  26  25  25  33  38  63  74  85  90  42  10   9  14  35  51 155 193 183 151 150 150 148 146 148 146 148 146 147 148
  38  21  18  16  17  14  13  11  12  13   7  57 145 133 119  95  77  63  54  47  40  29  21  16  16  18  22  23  24  24  24  25  26  25  27  29  28  29  32  32  33  32  41  40  40  42  43  42  44  45  41  44  46  44  49  49  49  42  37  33  30  28  27  23  20  18  38  55  68  76  85 113  13  12  16  13   7  10  11  22 100 162 175 159 145 148 150 150 149 148 149 150
  40  10  17  17  16  14  13  12  11   6  30 143 147 137 123 100  75  64  56  47  40  36  25  17  17  16  19  20  21  22  22  21  23  22  18  21  21  21  24  26  27  25  24  31  35  37  37  32  35  32  33  32  35  37  41  42  42  40  33  30  29  27  25  22  22  33  47  60  70  76  85 108  10  12  12  12  14  12  13   7  15  28  74 170 206 181 154 145 142 151 153 152
  37  11  18  18  16  13  13  10   7  23 167 144 144 142 129 103  80  66  59  50  42  37  28  22  19  18  18  19  20  23  20  19  18  20  19  18  17  17  20  21  21  20  23  25  28  31  33  32  30  28  29  28  31  33  35  36  33  31  29  29  29  25  25  26  28  43  59  62  71  73  89 103   8  13  11  11  11  13  16  18  16   7  10  23  84 138 192 204 183 155 159 159
  30  14  22  13  18  15   6  10  89 181 163 150 146 144 129 110  84  68  60  52  44  39  30  25  20  18  16  18  18  19  18  17  17  17  17  17  16  16  16  17  18  19  20  20  21  24  28  28  27  25  25  25  27  28  29  31  30  28  28  29  28  27  20  38  46  54  60  64  76  85  92 101   7  14  11  11  11  11  13  15  17  20  16  16   9  26  66 159 222 225 176 144
  79  11   9  36  35   8  13 163 201 181 156 151 147 143 135 112  89  67  60  54  45  40  33  24  21  19  18  17  16  17  15  17  16  16  16  15  15  15  14  14  15  19  21  21  22  23  23  25  22  21  22  23  24  26  26  26  28  28  30  32  32  28  42  50  51  59  62  68  76  87  94  90   6  14  11  10  10  11  13  15  15  17  17  16  14  15   9  18  35 113 140 190
 144 164  98  43  66  58 190 205 192 171 160 153 146 144 137 113  94  68  62  54  46  40  35  27  21  18  17  15  15  15  15  15  16  16  15  14  14  14  13  13  15  19  21  23  22  20  19  19  19  18  19  19  20  20  22  24  28  30  31  33  35  45  50  52  55  60  65  71  78  88  99  79   7  14  11  10   9  10  12  15  16  16  16  15  16  16  17   8  25  19  74 130
